<?xml version="1.0" encoding="utf-8"?>
<!-- Generator: Adobe Illustrator 26.0.3, SVG Export Plug-In . SVG Version: 6.00 Build 0)  -->
<svg version="1.1" id="Layer_1" xmlns="http://www.w3.org/2000/svg" xmlns:xlink="http://www.w3.org/1999/xlink" x="0px" y="0px"
	 viewBox="0 0 52 49" style="enable-background:new 0 0 52 49;" xml:space="preserve">
<style type="text/css">
	.st0{fill:none;stroke:#E9EDD8;stroke-width:3;stroke-linecap:round;stroke-miterlimit:10;}
</style>
<path class="st0" d="M22.6,9C22.6,9,9,7.6,9,22.7c0,9.4,7.6,17.1,17,17.1s17-7.7,17-17.1c0-3.8-3.1-6.8-6.8-6.8H22.6
	c-3.8,0-6.8,3.1-6.8,6.8C15.8,28.4,20.3,33,26,33s10.2-4.6,10.2-10.3"/>
<path class="st0" d="M36.2,9c7.5,0,13.6,6.1,13.6,13.7c0,13.2-10.7,23.9-23.9,23.9S2.1,35.9,2.1,22.7C2.1,1.1,22.6,2.2,22.6,2.2
	c3.8,0,6.8,3.1,6.8,6.8l0,0v13.7c0,1.9-1.5,3.4-3.4,3.4s-3.4-1.5-3.4-3.4"/>
</svg>
