<svg width="52" height="49" viewBox="0 0 52 49" fill="none" xmlns="http://www.w3.org/2000/svg">
<path d="M29.4099 39.7452C29.4099 39.7452 43.0318 41.1631 43.0318 26.0798C43.0318 16.6328 35.3993 8.99365 26 8.99365C16.6007 8.99365 8.9682 16.6505 8.9682 26.0798C8.9682 29.855 12.0247 32.9213 15.788 32.9213H29.4099C33.1731 32.9213 36.2297 29.855 36.2297 26.0798C36.2297 20.408 31.6537 15.8175 26 15.8175C20.3463 15.8175 15.7703 20.408 15.7703 26.0798" stroke="#0C978B" stroke-width="3" stroke-miterlimit="10" stroke-linecap="round"/>
<path d="M15.7703 39.7452C8.24381 39.7452 2.14841 33.6303 2.14841 26.0798C2.14841 12.8575 12.8198 2.1521 26 2.1521C39.1802 2.1521 49.8516 12.8575 49.8516 26.0798C49.8516 47.6324 29.4099 46.6221 29.4099 46.6221C25.6466 46.6221 22.5901 43.5559 22.5901 39.7806V39.7452V26.0798C22.5901 24.1833 24.1272 22.659 26 22.659C27.8905 22.659 29.4099 24.1833 29.4099 26.0798" stroke="#0C978B" stroke-width="3" stroke-miterlimit="10" stroke-linecap="round"/>
</svg>
