<svg width="283" height="264" viewBox="0 0 283 264" fill="none" xmlns="http://www.w3.org/2000/svg">
<path d="M122.2 45.3418C122.2 45.3418 45.1 37.3418 45.1 122.442C45.1 175.742 88.3 218.842 141.5 218.842C194.7 218.842 237.9 175.642 237.9 122.442C237.9 101.142 220.6 83.8419 199.3 83.8419L122.2 83.8418C100.9 83.8418 83.6 101.142 83.6 122.442C83.6 154.442 109.5 180.342 141.5 180.342C173.5 180.342 199.4 154.442 199.4 122.442" stroke="black" stroke-width="13" stroke-miterlimit="10" stroke-linecap="round"/>
<path d="M199.4 45.3419C242 45.3419 276.5 79.8419 276.5 122.442C276.5 197.042 216.1 257.442 141.5 257.442C66.9 257.442 6.50001 197.042 6.50001 122.442C6.50002 0.841842 122.2 6.54186 122.2 6.54186C143.5 6.54186 160.8 23.8419 160.8 45.1419L160.8 45.3418L160.8 122.442C160.8 133.142 152.1 141.742 141.5 141.742C130.8 141.742 122.2 133.142 122.2 122.442" stroke="black" stroke-width="13" stroke-miterlimit="10" stroke-linecap="round"/>
</svg>
