<svg width="664" height="460" viewBox="0 0 664 460" fill="none" xmlns="http://www.w3.org/2000/svg">
<path d="M422.781 235.27C423.306 225.03 425.275 214.921 427.179 204.878C428.951 195.557 432.299 186.958 439.716 180.394C446.74 174.158 452.713 176.324 456.914 182.823C461.969 190.7 465.513 199.167 466.826 208.685C468.795 223.061 469.649 237.567 469.517 252.008C469.452 261.658 469.32 271.438 467.482 280.825C465.382 291.59 462.822 302.421 457.571 312.332C454.814 317.584 452.91 323.163 450.022 328.414C444.246 338.851 436.697 347.844 427.901 355.721C425.669 357.69 425.144 359.528 425.407 362.088C426.063 369.702 427.31 377.186 429.148 384.603C430.527 390.248 433.218 394.974 436.762 399.372C439.848 403.179 444.377 403.508 448.643 403.508C457.964 403.508 465.251 398.913 471.355 392.152C472.865 390.511 472.996 388.673 472.734 386.507C470.765 372.46 469.386 358.347 469.452 344.103C469.452 334.716 469.845 325.395 470.305 316.074C471.027 302.092 471.29 288.045 472.143 274.064C472.799 262.708 472.799 251.286 472.537 239.93C472.077 223.914 472.602 207.898 472.996 191.816C473.193 183.217 472.537 174.683 472.602 166.084C472.668 156.96 474.637 148.164 477.46 139.565C478.116 137.596 479.232 135.955 480.611 134.38C483.039 131.492 485.402 131.36 488.75 133.001C492.951 135.036 495.38 138.646 497.48 142.388C501.944 150.265 505.292 158.404 507.064 167.463C509.033 177.703 510.674 188.008 511.79 198.38C512.775 207.635 512.84 217.022 513.365 226.343C513.956 237.699 512.972 249.055 512.906 260.476C512.84 272.16 511.593 283.779 510.412 295.397C509.033 308.46 506.801 321.26 503.322 333.928C501.222 341.608 499.318 349.288 496.758 356.837C493.739 365.698 489.735 374.166 483.368 381.19C481.267 383.487 480.151 386.507 477.788 388.607C476.803 389.526 476.541 390.905 476.803 392.48C478.707 404.295 482.514 415.389 488.422 425.76C489.997 428.582 491.244 431.996 495.708 430.486C496.43 430.224 497.349 430.617 497.48 431.536C497.546 432.193 497.021 432.586 496.43 432.849C492.885 434.818 489.866 434.096 487.765 430.617C481.398 420.115 477.263 408.759 474.637 396.812C474.506 396.221 474.572 395.565 473.718 395.04C472.077 395.893 470.633 397.206 469.123 398.585C460.787 406.396 450.941 408.168 440.11 405.411C437.091 404.623 435.187 402.326 433.283 399.963C428.754 394.187 426.522 387.426 425.013 380.336C424.094 375.873 423.437 371.409 423.043 366.946C422.912 365.108 422.978 363.204 421.796 361.432C418.12 363.663 414.379 365.895 410.769 368.193C403.286 373.116 394.949 375.282 386.088 375.807C382.412 376.004 379.917 373.641 377.817 371.147C372.434 364.583 368.233 357.362 367.643 348.566C367.577 347.975 367.511 347.319 367.38 346.728C366.724 343.052 366.658 343.184 362.982 342.79C355.958 342.068 349.46 340.558 343.684 335.766C340.336 333.009 337.317 329.858 333.903 327.167C331.803 325.526 330.424 323.229 329.505 320.669C328.98 319.225 328.849 317.584 327.799 316.336C326.354 316.074 325.501 317.19 324.517 317.78C319.987 320.734 314.67 321.456 309.682 320.734C305.415 320.144 301.017 318.174 298.326 314.105C297.275 312.529 296.028 311.151 295.175 309.51C294.125 307.541 292.746 307.147 290.974 308.066C286.51 310.298 281.915 311.216 276.533 309.116C277.058 313.973 277.058 318.109 277.058 322.244C276.992 328.349 276.795 334.388 275.023 340.295C273.12 346.728 269.903 352.242 264.521 356.509C261.895 358.609 261.961 358.675 263.536 361.694C263.733 362.088 264.061 362.482 264.258 362.941C264.586 363.532 264.586 364.123 264.061 364.648C263.536 365.173 262.945 365.239 262.355 364.845C261.37 364.123 260.32 363.401 259.401 362.548C258.088 361.235 256.841 361.76 255.594 362.482C254.084 363.335 254.543 364.582 255.003 365.698C255.725 367.405 258.219 376.792 258.744 378.761C261.698 390.183 265.899 401.013 273.317 410.334C275.548 413.157 277.714 415.979 279.815 418.933C281.259 420.902 282.769 420.837 284.607 419.59C286.904 418.08 288.217 415.782 289.989 413.813C290.974 412.697 291.959 411.384 293.468 412.632C295.109 413.879 294.453 415.454 293.206 416.636C290.843 418.933 288.48 421.165 285.985 423.266C283.097 425.694 281.456 425.694 278.633 423.2C276.073 420.968 273.907 418.211 271.873 415.454C270.035 412.96 268.065 410.466 266.49 407.774C262.748 401.341 259.466 394.646 257.038 387.557C254.675 380.665 253.493 373.378 250.999 366.486C249.686 362.876 247.126 363.532 244.763 363.007C242.4 362.548 241.349 363.795 240.168 365.895C234.654 376.135 229.862 386.9 222.904 396.287C220.607 399.372 218.572 402.654 215.946 405.608C214.305 407.446 213.124 409.743 211.68 411.713C210.17 413.682 210.958 414.601 212.992 415.389C215.618 416.373 217.784 418.211 220.541 418.999C221.132 419.13 221.723 419.524 222.117 419.984C222.773 420.706 222.97 421.69 222.445 422.609C221.985 423.331 221.198 423.594 220.41 423.397C219.491 423.2 218.638 422.806 217.784 422.478C214.24 420.968 211.089 418.605 207.282 417.489C204.919 416.833 204.525 415.323 205.903 413.091C207.807 410.072 209.448 406.855 211.745 404.098C219.819 394.58 226.58 384.143 231.832 372.788C233.341 369.571 235.048 366.355 236.82 363.27C237.673 361.826 237.739 360.907 236.164 359.856C229.862 355.721 226.186 349.748 224.414 342.527C224.217 341.608 224.217 340.492 223.167 340.23C222.051 339.967 221.723 341.149 221.132 341.805C217.719 346.072 213.124 349.091 209.579 353.292C208.923 354.08 207.938 354.408 207.085 353.817C206.166 353.161 206.428 352.045 206.954 351.257C208.529 348.697 211.089 347.056 213.058 344.89C214.108 343.709 215.356 342.724 216.406 341.674C217.062 341.017 219.951 336.882 222.117 335.766C223.692 334.979 222.839 332.09 222.773 330.384C222.445 320.209 224.414 310.232 225.53 300.189C226.252 293.297 228.221 286.732 230.519 280.3C233.538 271.766 237.214 263.561 241.546 255.619C242.334 254.174 242.925 251.811 244.96 252.665C247.257 253.649 245.354 255.619 244.96 257.128C244.763 257.85 244.434 258.573 244.172 259.163C244.434 259.557 244.566 259.885 244.828 260.016C245.813 260.476 247.717 259.688 247.651 261.592C247.585 263.102 245.944 263.102 244.894 263.692C243.778 264.283 242.334 263.299 241.481 264.677C241.809 266.581 243.516 265.596 244.435 266.121C245.157 266.515 245.879 266.843 245.813 267.762C245.747 268.681 245.157 269.206 244.369 269.403C243.319 269.666 242.203 269.797 241.153 269.731C239.446 269.731 238.593 270.585 238.199 272.16C239.38 273.079 241.809 271.898 242.006 273.998C242.203 275.705 239.971 275.77 238.855 276.164C235.442 277.411 233.932 279.709 233.866 283.253C234.063 283.45 234.26 283.713 234.523 283.844C238.789 285.223 238.724 285.223 241.349 281.415C243.319 278.593 245.55 275.967 248.767 274.523C254.018 272.16 259.86 274.195 262.683 279.315C263.142 280.234 263.339 281.416 264.783 281.809C266.162 280.3 265.44 278.724 264.98 277.083C263.405 271.569 261.961 265.99 260.385 260.41C260.123 259.426 260.188 258.704 260.648 257.785C267.409 245.707 273.054 233.104 275.811 219.385C276.336 216.759 277.386 214.331 277.846 211.705C279.355 203.106 277.255 195.229 273.12 187.877C271.019 184.267 267.409 182.56 263.142 183.217C254.346 184.529 247.848 189.387 244.238 197.461C241.218 204.222 239.84 211.311 240.759 218.86C241.612 225.949 242.334 233.104 244.041 240.062C244.631 242.49 244.828 244.985 244.369 247.479C244.303 247.873 243.909 248.398 243.516 248.464C242.859 248.595 242.4 248.136 242.203 247.479C238.724 235.27 236.098 222.864 237.017 210.195C237.608 201.071 240.824 192.538 247.979 186.105C251.13 183.282 254.806 181.182 258.81 179.869C265.571 177.637 273.645 178.622 278.371 189.452C281.653 196.936 283.097 204.812 281.456 212.755C279.684 221.223 277.977 229.887 274.301 237.83C271.282 244.328 268.984 251.155 265.44 257.391C264.98 258.244 264.652 259.098 264.915 260.082C266.162 264.874 266.096 269.994 268.787 274.72C270.034 273.867 271.282 273.079 272.529 272.291C275.548 270.454 277.518 270.847 278.896 273.998C280.734 278.199 281.85 282.531 279.552 287.061C278.371 289.424 277.977 292.049 276.139 294.15C275.023 295.397 275.417 303.077 276.27 304.127C277.649 305.768 282.638 306.95 285.066 306.162C285.394 306.096 285.657 305.965 285.92 305.834C292.155 303.077 291.959 303.077 290.908 296.25C289.464 286.798 290.843 277.674 294.519 268.812C295.306 266.975 296.685 265.793 298.063 264.546C303.84 259.229 309.025 260.607 311.388 267.959C312.964 272.817 312.767 277.411 310.732 282.072C308.96 286.076 307.056 289.949 305.612 294.084C304.365 297.629 301.673 300.386 298.917 302.946C297.604 304.127 297.013 305.309 297.604 307.015C300.032 313.645 308.041 318.24 315.064 316.927C316.311 316.73 317.624 316.796 318.74 316.336C321.169 315.417 323.794 314.499 325.895 312.989C328.586 311.085 325.961 308.46 326.158 306.097C326.354 303.668 325.632 301.173 325.304 298.679C324.32 290.999 325.304 283.45 326.617 275.902C328.127 267.368 328.783 258.572 332.722 250.564C335.347 245.247 338.892 240.915 344.799 238.946C348.935 237.567 351.298 238.421 353.07 242.293C355.565 247.807 356.155 253.649 355.696 259.623C355.433 263.496 355.105 267.368 354.908 271.241C354.449 279.446 351.232 286.601 346.966 293.428C346.112 294.741 345.128 295.988 344.471 297.366C341.78 302.683 338.629 307.672 334.034 311.545C331.803 313.383 331.803 315.352 332.722 317.78C333.772 320.603 335.479 323.032 337.645 325.067C341.058 328.48 344.471 331.893 348.278 334.847C352.742 338.26 358.19 339.245 363.704 339.311C365.279 339.311 365.87 338.457 365.739 336.882C365.411 333.6 365.28 330.318 364.886 327.102C362.129 305.571 364.689 284.501 370.268 263.692C371.844 257.85 372.959 251.811 374.469 245.969C376.898 236.451 379.327 226.933 384.578 218.531C387.401 214.068 390.748 209.867 395.999 207.898C396.853 207.569 397.706 207.11 398.494 206.651C403.811 203.959 409.456 205.338 412.738 210.326C414.707 213.28 416.282 216.562 417.201 220.041C418.58 225.096 420.155 230.084 421.665 235.139C422.19 235.336 422.518 235.27 422.781 235.27ZM475.425 385.522C476.344 385.128 476.672 385.063 476.935 384.866C477.263 384.603 477.591 384.209 477.919 383.881C485.993 373.444 492.492 362.351 495.971 349.42C500.894 331.04 505.62 312.726 507.852 293.756C509.952 275.902 510.28 258.047 510.543 240.127C510.674 229.691 510.018 219.253 509.296 208.817C508.508 197.92 507.392 187.089 505.62 176.324C503.913 165.953 501.484 155.844 496.168 146.655C494.001 142.913 492.229 138.843 488.094 136.612C486.124 135.561 484.746 135.758 483.105 137.202C481.07 138.975 480.611 141.403 479.889 143.767C477.525 152.169 475.425 160.505 475.95 169.432C476.41 176.39 476.081 183.414 475.884 190.437C475.753 195.885 475.228 201.334 475.294 206.716C475.359 214.659 475.622 222.536 475.294 230.478C475.228 232.185 475.097 233.891 475.162 235.598C475.884 248.661 475.884 261.723 475.097 274.851C474.309 288.833 474.178 302.814 473.259 316.796C472.602 326.905 472.012 336.948 472.34 347.056C472.471 350.47 472.865 353.883 472.734 357.296C472.274 366.814 474.637 375.873 475.425 385.522ZM425.21 354.277C429.017 350.273 432.102 346.925 435.253 343.709C437.419 341.477 439.191 338.917 441.095 336.423C447.856 327.299 451.794 316.796 456.849 306.818C457.767 305.046 458.818 303.208 459.277 301.239C461.903 290.211 465.054 279.381 465.644 267.828C466.367 253.781 466.629 239.865 465.448 225.818C464.922 219.319 463.807 212.821 463.15 206.322C462.297 197.723 458.096 190.372 453.173 183.479C450.481 179.672 446.74 180.132 443.655 181.773C442.014 182.692 440.701 184.004 439.454 185.448C434.793 190.962 432.233 197.395 430.855 204.353C429.279 212.558 427.77 220.829 426.457 229.1C425.866 232.907 425.275 236.911 425.604 240.718C425.997 245.05 425.8 249.383 425.669 253.649C425.144 266.252 424.947 278.855 424.225 291.393C423.24 308.591 424.488 325.854 424.422 343.052C424.422 346.531 424.881 349.879 425.21 354.277ZM419.368 248.004C420.812 238.355 416.217 228.968 413.394 219.319C412.41 215.906 410.703 212.689 407.552 210.523C405.78 209.276 404.008 208.817 401.842 209.604C394.162 212.296 388.713 217.547 385.694 224.833C381.887 234.088 378.211 243.475 376.373 253.452C375.388 258.638 374.207 263.758 372.763 268.812C369.612 279.446 368.43 290.474 367.314 301.436C366.33 311.02 367.314 320.669 368.693 330.252C369.021 332.418 369.218 334.585 369.546 336.751C369.743 337.867 370.137 338.983 371.647 338.457C377.817 336.357 384.118 334.782 389.501 330.712C397.115 325.001 402.038 317.452 405.977 308.985C410.769 298.745 413.394 287.848 416.217 277.018C418.711 267.828 420.549 258.507 419.368 248.004ZM422.19 266.909C420.221 270.125 420.418 273.736 419.433 277.149C416.085 288.505 413.394 299.992 408.471 310.823C405.386 317.518 401.71 323.688 396.525 328.939C390.42 335.11 383.199 339.048 374.732 340.689C373.813 340.886 372.828 341.018 372.106 341.543C371.122 342.199 370.203 343.052 370.334 344.562C371.253 353.949 374.535 362.285 380.836 369.44C382.543 371.344 384.578 372.394 387.007 372.131C390.879 371.672 394.752 371.278 398.494 370.162C406.371 367.799 413 363.27 419.696 358.609C421.599 357.296 422.322 355.852 422.19 353.621C421.928 348.632 421.402 343.709 421.402 338.72C421.402 329.202 421.074 319.75 421.009 310.232C420.943 303.865 420.877 297.498 421.074 291.13C421.271 282.991 421.796 274.917 422.19 266.909ZM238.002 294.544C236.623 300.583 237.87 305.768 238.133 310.954C238.33 314.236 239.249 317.321 240.365 320.472C242.991 327.824 245.616 334.978 249.751 341.739C252.377 346.072 255.528 349.813 258.35 353.883C259.401 355.393 260.517 355.393 261.829 354.211C265.374 350.864 268.525 347.319 270.363 342.659C273.907 333.666 273.645 324.345 273.185 314.958C273.054 312.792 272.726 310.626 272.594 308.46C272.463 305.965 271.019 303.865 269.115 302.683C267.671 301.764 266.555 303.93 265.177 304.652C263.93 305.243 262.617 305.768 261.698 306.95C259.795 309.378 256.906 310.232 254.149 309.969C251.064 309.641 247.323 310.363 245.025 307.541C242.071 303.865 238.789 300.254 238.002 294.544ZM331.606 309.969C333.378 307.015 336.266 305.44 337.842 302.486C339.745 298.942 342.239 295.725 344.274 292.246C347.688 286.47 351.101 280.628 351.823 273.801C352.545 267.303 353.005 260.804 352.742 254.24C352.611 250.761 351.692 247.479 350.248 244.328C349.394 242.49 348.213 241.9 346.112 242.622C341.058 244.394 337.973 248.201 336.004 252.862C333.706 258.507 332.459 264.414 331.409 270.519C329.374 282.203 328.061 293.822 329.571 305.703C329.768 307.147 330.162 308.328 331.606 309.969ZM232.619 350.929C235.245 351.389 238.133 351.126 238.067 354.08C238.002 356.968 239.315 357.625 241.678 357.625C242.465 357.625 243.122 358.084 243.778 358.412C247.979 360.644 251.983 359.988 256.25 357.887C255.594 356.706 255.265 355.787 254.674 355.13C250.473 350.667 247.913 345.087 244.5 340.098C238.986 331.893 236.229 322.769 234.654 313.186C234.129 309.969 233.801 306.687 233.341 303.471C233.21 302.618 233.407 301.436 232.028 301.436C230.781 301.436 229.403 301.567 229.337 303.274C229.272 304.652 228.156 305.9 228.878 307.344C230.256 307.212 231.963 305.506 232.816 307.934C233.341 309.575 232.094 310.429 230.781 311.151C230.519 311.282 230.256 311.413 229.928 311.545C227.237 312.726 227.762 315.155 227.827 317.19C227.827 319.619 229.928 318.24 231.044 318.503C231.897 318.7 232.488 319.028 232.75 319.881C233.079 320.997 232.357 321.653 231.438 322.047C230.913 322.31 230.256 322.507 229.665 322.507C227.565 322.507 227.04 323.754 227.105 325.592C227.171 327.627 228.287 327.758 229.928 327.495C230.912 327.298 231.766 327.889 231.897 329.005C231.963 330.055 231.372 330.777 230.453 331.171C229.862 331.434 229.271 331.499 228.615 331.565C227.434 331.762 227.105 332.484 227.171 333.534C227.237 334.322 227.434 334.979 228.287 335.438C231.635 337.145 231.7 337.276 229.403 339.836C228.156 341.214 228.943 342.396 229.206 343.709C229.6 345.481 230.65 344.431 231.635 344.431C234.195 344.299 235.31 346.006 234.326 348.304C233.998 349.091 233.407 349.682 232.619 350.929ZM296.356 300.123C299.835 297.957 301.608 294.412 303.183 290.671C304.43 287.651 305.612 284.632 307.187 281.744C309.288 278.002 309.485 274.064 308.369 269.994C307.909 268.222 307.712 265.793 305.678 265.465C303.511 265.071 301.608 266.646 299.967 268.025C299.507 268.419 299.31 269.075 298.982 269.6C297.21 272.357 295.634 275.639 295.438 278.593C294.978 285.682 292.352 292.968 296.356 300.123ZM264.324 292.049C263.47 295.134 261.436 296.775 259.466 298.416C254.543 302.421 249.095 300.845 246.207 295.266C244.763 292.443 244.434 289.621 244.172 286.207C241.874 290.933 242.203 297.235 244.632 300.845C247.848 305.637 253.23 306.95 258.35 304.193C259.86 303.405 261.304 302.486 262.748 301.567C267.54 298.548 267.671 298.023 264.324 292.049ZM245.091 281.875C245.419 282.269 245.747 282.663 246.076 283.057C247.388 282.006 248.504 280.694 250.211 280.168C252.246 279.578 254.215 279.249 255.856 280.956C258.285 283.45 258.154 289.686 255.79 292.246C254.937 293.1 254.018 293.69 252.902 293.231C251.13 292.443 250.605 290.802 250.342 289.095C250.08 287.651 250.277 286.273 252.115 285.813C252.837 285.616 253.887 285.682 253.165 284.501C252.705 283.713 251.786 283.91 251.13 284.304C248.57 285.879 247.979 289.227 249.62 292.903C251.589 297.301 253.23 297.694 257.366 295.2C261.764 292.574 262.354 286.207 259.598 281.022C257.563 277.149 252.771 276.099 249.292 278.79C247.848 279.84 246.469 280.825 245.091 281.875ZM274.432 289.03C277.386 283.976 277.78 281.022 276.205 277.083C275.942 276.492 275.745 275.902 275.023 275.836C273.251 275.639 269.641 280.103 270.428 281.809C271.61 284.238 272.66 286.798 274.432 289.03ZM230.322 295.2C230.19 296.185 229.994 297.169 230.847 297.432C231.832 297.694 232.816 297.104 233.079 296.185C233.669 294.15 233.998 291.984 234.523 289.883C234.654 289.227 234.72 288.702 234.063 288.373C233.407 288.111 232.75 288.439 232.422 288.898C230.913 290.868 230.913 293.231 230.322 295.2ZM270.363 294.15C270.363 292.181 270.822 290.146 269.05 288.439C268.065 290.933 268.984 292.64 270.363 294.15Z" fill="#10100F"/>
<path d="M328.193 418.276C333.903 419.13 339.614 419.064 345.391 418.67C349.592 418.408 353.793 418.802 357.994 419.13C360.816 419.327 363.573 419.392 366.396 419.13C373.222 418.408 380.049 419.261 386.876 419.918C388.057 420.049 389.042 420.508 388.976 421.887C388.91 423.068 387.926 423.462 387.007 423.528C385.628 423.659 384.184 423.462 382.806 423.462C376.308 423.265 369.875 422.346 363.31 423.265C358.65 423.922 353.727 422.871 348.869 422.477C346.966 422.281 345.128 422.281 343.29 422.609C337.317 423.659 331.54 422.477 325.698 421.821C320.578 421.23 315.458 421.821 310.338 422.084C308.829 422.149 307.188 422.543 305.743 421.755C304.89 421.296 304.299 420.574 304.562 419.458C304.759 418.539 305.547 418.276 306.334 418.276C313.62 418.342 320.906 416.635 328.193 418.276Z" fill="#10100F"/>
<path d="M122.211 421.689C121.555 421.492 120.899 421.361 120.373 421.099C119.389 420.574 118.535 419.851 118.995 418.539C119.389 417.357 120.439 417.423 121.292 417.554C124.706 418.079 128.119 418.013 131.532 417.62C141.313 416.307 151.028 417.357 160.808 417.685C171.048 417.948 181.288 418.473 191.528 418.473C193.104 418.473 194.679 418.21 196.057 419.064C196.714 419.458 197.305 420.048 197.173 420.902C197.042 421.952 196.254 421.952 195.467 421.952C191.594 422.083 187.787 422.411 183.914 422.215C170.917 421.558 157.854 421.427 144.858 420.508C140.46 420.18 135.93 421.296 131.467 421.624C128.382 421.755 125.297 421.624 122.211 421.689Z" fill="#10100F"/>
<path d="M254.806 215.184C254.675 213.411 254.806 210.654 256.184 208.094C257.431 205.731 259.204 205.6 260.779 207.7C262.88 210.589 262.683 220.041 260.451 222.864C258.482 225.358 256.447 225.161 255.331 222.141C254.937 221.157 254.872 220.041 254.806 218.991C254.74 218.072 254.806 217.153 254.806 215.184Z" fill="#10100F"/>
<path d="M265.703 214.592C265.834 212.164 265.965 209.998 266.622 207.897C267.212 206.059 268.263 204.812 270.232 204.877C272.332 204.943 272.464 206.584 272.726 208.16C273.58 212.951 273.251 217.481 270.101 221.419C268.656 223.257 267.016 223.06 266.425 220.763C265.965 218.662 265.9 216.496 265.703 214.592Z" fill="#10100F"/>
<path d="M266.487 201.844C265.606 203.832 264.385 203.404 263.275 202.902C262.064 202.341 261.494 200.21 262.084 198.956C262.555 197.91 264.186 197.396 265.316 197.979C266.747 198.736 267.167 200.435 266.487 201.844Z" fill="#10100F"/>
<path d="M232.357 209.21C232.094 210.654 231.7 211.967 230.059 212.229C228.944 212.426 226.909 210.326 226.843 208.881C226.777 207.24 227.762 206.256 229.403 206.256C231.241 206.322 231.963 207.634 232.357 209.21Z" fill="#10BAAD"/>
<path d="M219.425 350.732C220.541 350.798 222.051 352.898 221.854 354.211C221.591 355.852 220.344 356.64 218.835 356.574C217.39 356.508 216.8 355.327 216.734 353.948C216.603 352.242 218.047 350.601 219.425 350.732Z" fill="#10BAAD"/>
<path d="M245.091 378.17C242.925 378.038 241.481 376.726 241.678 375.347C241.94 373.641 243.516 373.116 244.763 373.181C246.141 373.247 247.257 374.428 247.191 376.004C247.126 377.513 245.944 378.038 245.091 378.17Z" fill="#10BAAD"/>
<path d="M213.058 333.206C211.417 332.878 210.17 332.09 210.301 330.121C210.367 328.48 211.549 328.152 212.927 328.218C214.502 328.283 215.815 328.808 215.75 330.581C215.75 332.156 214.896 333.206 213.058 333.206Z" fill="#10BAAD"/>
<path d="M233.735 248.595C233.735 250.236 232.291 251.877 230.847 251.68C229.206 251.483 228.549 250.302 228.484 248.792C228.484 247.151 229.599 246.298 231.109 246.166C232.881 246.035 233.604 247.085 233.735 248.595Z" fill="#10BAAD"/>
<path d="M238.199 181.312C239.38 181.509 240.693 181.706 240.693 183.741C240.693 185.513 239.183 186.957 237.936 186.76C236.558 186.498 234.917 184.791 235.245 183.084C235.573 181.115 236.952 181.312 238.199 181.312Z" fill="#10BAAD"/>
<path d="M286.379 181.772C286.116 183.085 285.198 183.873 283.819 183.676C282.244 183.479 281.39 182.232 281.522 180.722C281.587 179.475 282.309 178.359 283.885 178.49C285.919 178.556 286.051 180.197 286.379 181.772Z" fill="#10BAAD"/>
<path d="M230.913 221.616C232.751 221.813 233.735 222.667 233.67 224.308C233.67 225.62 231.701 226.999 230.257 226.802C228.747 226.539 228.353 225.423 228.419 224.111C228.55 222.404 229.534 221.616 230.913 221.616Z" fill="#10BAAD"/>
<path d="M232.422 194.572C234.26 194.769 235.245 195.623 235.179 197.264C235.179 198.576 233.21 199.955 231.766 199.758C230.256 199.495 229.862 198.379 229.928 197.067C230.059 195.36 231.044 194.572 232.422 194.572Z" fill="#10BAAD"/>
<path d="M274.235 264.48C274.038 265.793 273.644 266.974 272.135 267.106C270.494 267.237 269.509 266.187 269.509 264.611C269.509 263.101 270.034 261.723 271.806 261.723C273.513 261.657 274.104 262.97 274.235 264.48Z" fill="#10BAAD"/>
<path d="M278.568 254.108C278.108 255.487 277.649 256.996 275.942 256.799C274.498 256.668 273.514 255.552 273.514 253.977C273.514 252.467 274.564 251.745 275.811 251.679C277.518 251.548 278.24 252.664 278.568 254.108Z" fill="#10BAAD"/>
<path d="M282.506 243.409C282.047 244.788 281.587 246.297 279.881 246.1C278.437 245.969 277.452 244.853 277.452 243.278C277.452 241.768 278.502 241.046 279.749 240.98C281.456 240.849 282.244 241.965 282.506 243.409Z" fill="#10BAAD"/>
<path d="M282.178 330.711C283.819 330.646 285.394 331.893 285.263 333.271C285.132 334.912 284.082 335.766 282.506 335.7C280.931 335.634 280.012 334.65 279.946 333.074C280.012 331.696 280.734 330.843 282.178 330.711Z" fill="#10BAAD"/>
<path d="M220.016 282.072C218.572 281.613 217.587 280.694 217.784 279.118C217.981 277.609 219.097 276.558 220.607 276.755C221.854 276.952 222.642 278.134 222.642 279.447C222.707 281.153 221.46 281.81 220.016 282.072Z" fill="#10BAAD"/>
<path d="M277.714 347.384C277.78 345.809 278.239 344.562 280.143 344.824C281.521 344.955 282.572 345.743 282.375 347.253C282.178 349.025 280.931 350.075 279.224 350.141C277.452 350.141 277.648 348.631 277.714 347.384Z" fill="#10BAAD"/>
<path d="M268.787 367.404C267.08 367.601 266.162 368.455 266.096 369.767C266.03 371.277 267.081 372.459 268.525 372.59C270.1 372.721 271.085 371.474 271.085 369.964C271.216 368.323 269.903 367.733 268.787 367.404Z" fill="#10BAAD"/>
<path d="M276.008 358.28C274.302 358.477 273.383 359.33 273.383 360.643C273.317 362.153 274.367 363.335 275.811 363.466C277.387 363.597 278.371 362.35 278.371 360.84C278.437 359.199 277.19 358.608 276.008 358.28Z" fill="#10BAAD"/>
<path d="M216.931 303.142C216.931 304.652 216.012 305.505 214.699 305.636C213.124 305.767 211.942 304.848 211.811 303.273C211.68 301.895 212.533 300.91 213.977 300.779C215.618 300.647 216.471 301.698 216.931 303.142Z" fill="#10BAAD"/>
<path d="M291.696 212.295C291.302 213.608 290.449 214.527 289.136 214.396C287.692 214.265 286.379 213.477 286.707 211.77C286.904 210.654 287.495 209.276 289.136 209.538C290.646 209.735 291.565 210.654 291.696 212.295Z" fill="#10BAAD"/>
<path d="M234.851 235.795C234.917 237.567 233.604 238.289 232.028 238.42C230.453 238.486 229.665 237.37 229.6 235.926C229.534 234.285 230.256 232.841 232.028 232.775C233.735 232.709 234.654 233.891 234.851 235.795Z" fill="#10BAAD"/>
<path d="M285.657 225.555C287.299 225.817 287.955 226.868 287.955 228.443C287.889 229.953 287.036 230.806 285.657 230.74C284.016 230.675 283.163 229.428 283.36 227.918C283.426 226.671 284.082 225.555 285.657 225.555Z" fill="#10BAAD"/>
<path d="M225.989 268.352C225.858 269.862 225.071 270.65 223.627 270.65C222.117 270.65 221.46 269.599 221.46 268.286C221.526 266.777 222.248 265.464 223.889 265.464C225.661 265.464 225.793 267.039 225.989 268.352Z" fill="#10BAAD"/>
<path d="M229.534 258.244C229.468 259.754 228.943 260.738 227.368 260.804C225.989 260.804 224.873 260.476 224.742 258.9C224.611 257.259 225.464 256.078 227.04 256.078C228.352 256.012 229.337 256.865 229.534 258.244Z" fill="#10BAAD"/>
<path d="M224.677 361.694C226.318 361.891 227.303 362.679 227.106 364.451C226.974 365.83 226.252 366.814 224.743 366.749C223.102 366.683 222.248 365.633 222.314 363.992C222.38 362.548 223.233 361.76 224.677 361.694Z" fill="#10BAAD"/>
<path d="M291.696 195.031C291.302 196.606 290.449 197.656 288.808 197.459C287.429 197.328 286.641 196.212 286.707 194.899C286.773 193.455 287.889 192.864 289.267 192.799C290.777 192.799 291.368 193.783 291.696 195.031Z" fill="#10BAAD"/>
<path d="M213.386 319.421C211.877 319.092 210.892 318.042 210.958 316.532C211.023 315.088 212.205 314.366 213.649 314.563C215.093 314.76 215.881 315.81 215.881 317.189C215.815 318.502 214.896 319.355 213.386 319.421Z" fill="#10BAAD"/>
<path d="M220.147 290.605C219.819 291.918 218.966 292.64 217.522 292.574C216.012 292.509 215.29 291.59 215.159 290.211C215.027 288.898 216.734 287.586 218.047 287.848C219.425 288.176 220.147 289.095 220.147 290.605Z" fill="#10BAAD"/>
<path d="M285.46 319.946C285.132 321.587 283.688 321.981 282.375 321.85C281.259 321.784 280.799 320.537 280.865 319.421C280.931 317.977 281.85 317.255 283.294 317.386C284.607 317.583 285.394 318.436 285.46 319.946Z" fill="#10BAAD"/>
<path d="M276.599 172.582C276.402 174.158 275.483 174.88 274.104 174.88C272.726 174.88 271.873 174.026 271.873 172.582C271.873 171.401 272.398 170.416 273.645 170.351C275.286 170.219 276.205 171.204 276.599 172.582Z" fill="#10BAAD"/>
<path d="M247.913 177.702C246.469 177.571 245.025 177.243 244.763 175.471C244.566 173.961 245.485 173.107 246.863 172.976C248.504 172.779 249.686 173.436 249.948 175.142C250.211 176.652 249.489 177.505 247.913 177.702Z" fill="#10BAAD"/>
<path d="M261.632 172.451C260.32 172.32 259.007 172.057 258.744 170.416C258.547 169.038 259.401 168.25 260.713 168.119C262.223 167.922 263.339 168.512 263.536 170.088C263.798 171.466 263.142 172.32 261.632 172.451Z" fill="#10BAAD"/>
<path d="M535.815 328.546C535.618 330.056 535.159 331.434 533.321 331.5C531.68 331.631 530.236 330.843 530.236 329.202C530.236 327.299 531.811 326.38 533.583 326.117C535.093 325.92 535.684 327.102 535.815 328.546Z" fill="#10100F"/>
<path d="M541.395 293.822C541.198 295.332 540.738 296.71 538.9 296.776C537.259 296.907 535.815 296.119 535.815 294.478C535.815 292.575 537.391 291.656 539.163 291.393C540.673 291.262 541.198 292.378 541.395 293.822Z" fill="#10100F"/>
<path d="M541.197 130.047C540.803 132.016 539.884 133.264 538.046 133.198C536.537 133.132 535.552 132.213 535.683 130.572C535.815 128.997 536.931 128.209 538.375 128.078C539.884 127.881 540.738 128.866 541.197 130.047Z" fill="#10100F"/>
<path d="M511.921 416.242C511.528 417.817 511.199 419.589 509.099 419.589C507.392 419.589 506.605 418.408 506.67 416.833C506.736 415.323 507.458 414.01 509.099 413.813C510.74 413.616 511.659 414.601 511.921 416.242Z" fill="#10100F"/>
<path d="M543.429 152.956C543.035 154.532 542.707 156.304 540.607 156.304C538.9 156.304 538.112 155.122 538.178 153.547C538.244 152.037 538.966 150.724 540.607 150.527C542.248 150.265 543.167 151.315 543.429 152.956Z" fill="#10100F"/>
<path d="M519.405 395.434C517.501 395.237 516.714 394.186 516.779 392.742C516.845 391.101 517.961 390.445 519.536 390.707C521.046 390.904 522.162 391.823 522.03 393.267C521.899 394.711 520.652 395.499 519.405 395.434Z" fill="#10100F"/>
<path d="M543.364 212.623C541.46 212.426 540.673 211.376 540.738 209.932C540.804 208.291 541.92 207.634 543.495 207.897C545.005 208.094 546.121 209.013 545.989 210.457C545.858 211.901 544.677 212.689 543.364 212.623Z" fill="#10100F"/>
<path d="M525.903 364.451C525.05 364.254 524.196 363.269 524.327 361.76C524.459 360.119 525.64 359.462 527.084 359.528C528.725 359.594 529.447 360.709 529.185 362.219C528.988 363.598 528.332 364.779 525.903 364.451Z" fill="#10100F"/>
<path d="M542.116 184.201C541.263 184.004 540.409 183.02 540.541 181.51C540.672 179.869 541.854 179.212 543.298 179.278C544.939 179.344 545.661 180.459 545.398 181.969C545.201 183.348 544.545 184.595 542.116 184.201Z" fill="#10100F"/>
<path d="M541.394 240.521C540.541 240.324 539.688 239.34 539.819 237.83C539.95 236.189 541.132 235.533 542.576 235.598C544.217 235.664 544.939 236.78 544.676 238.29C544.48 239.668 543.823 240.915 541.394 240.521Z" fill="#10100F"/>
<path d="M540.278 266.384C539.425 266.187 538.572 265.202 538.703 263.692C538.834 262.051 540.016 261.395 541.46 261.461C543.101 261.526 543.823 262.642 543.56 264.152C543.298 265.53 542.641 266.777 540.278 266.384Z" fill="#10100F"/>
</svg>
