<svg width="664" height="460" viewBox="0 0 664 460" fill="none" xmlns="http://www.w3.org/2000/svg">
<path d="M240.801 315.986C239.418 318.61 238.538 321.212 238.355 324.075C238.229 326.049 237.463 327.943 237.166 329.929C236.251 336.078 236.388 342.285 235.954 348.457C235.68 352.325 235.565 356.193 234.982 360.061C234.491 363.29 234.548 366.598 233.873 369.85C232.547 376.205 230.764 382.4 228.363 388.436C227.472 390.661 226.18 392.829 225.837 395.133C225.471 397.598 223.333 399.754 224.591 402.527C224.911 403.223 224.008 403.405 223.379 403.154C222.682 402.88 222.282 402.321 222.167 401.568C221.882 399.663 221.904 397.529 222.693 395.989C225.986 389.554 228.146 382.754 230.307 375.909C232.547 368.778 232.97 361.407 233.736 354.071C234.594 345.822 234.125 337.504 235.314 329.267C236.171 323.322 237.051 317.412 239.498 311.867C239.898 310.955 240.298 310.019 240.321 309.004C240.424 304.611 242.699 301.496 246.151 299.077C248.072 297.731 248.083 297.765 246.917 295.643C246.677 295.21 246.403 294.776 246.254 294.297C243.853 287.018 240.447 280.081 239.143 272.425C237.989 265.591 237.543 258.756 238.32 251.854C238.721 248.283 239.269 244.791 240.355 241.311C241.956 236.223 245.225 233.188 250.244 231.876C253.136 231.123 256.051 230.381 259 229.879C261.287 229.48 263.493 229.845 265.699 230.849C272.147 233.793 276.811 238.288 279.783 244.826C283.179 252.287 284.768 260.148 285.934 268.135C287.008 275.528 288.071 282.933 288.391 290.406C288.494 292.802 290.221 294.149 291.684 295.563C295.113 298.872 297.091 302.854 298.086 307.441C300.326 317.869 300.258 328.457 300.509 339.045C300.681 346.267 299.777 353.341 298.909 360.46C298.314 365.412 298.017 370.421 298.291 375.418C298.394 377.266 298.429 379.251 300.143 380.621C300.543 380.94 300.555 381.579 300.258 382.001C299.949 382.458 299.354 382.412 298.874 382.298C297.663 381.99 297.114 381.088 296.885 379.925C296.474 377.768 296.074 375.6 296.119 373.387C296.256 366.998 296.794 360.654 297.617 354.299C298.406 348.184 298.783 342 298.611 335.782C298.429 328.982 298.166 322.193 297.285 315.461C296.565 309.996 295.022 304.782 292.015 300.036C290.998 298.438 289.249 298.302 288.06 297.138C287.26 298.381 286.848 299.249 288.38 300.435C291.718 303.036 293.147 306.699 293.227 310.92C293.273 313.328 293.399 315.712 292.861 318.086C292.152 321.212 293.01 324.247 293.593 327.247C294.988 334.367 294.885 341.509 294.553 348.686C294.279 354.573 293.844 360.449 293.776 366.347C293.684 374.14 292.678 381.853 290.872 389.452C290.038 392.931 288.872 396.331 287.968 399.788C286.882 403.964 286.837 408.277 287.648 412.567C288.129 415.134 289.409 416.971 292.027 417.747C292.964 418.021 294.393 418.306 293.97 419.504C293.536 420.77 292.107 420.234 291.089 419.949C287.957 419.07 286.105 417.256 285.408 413.811C284.093 407.307 284.813 401.146 287.248 395.076C287.934 393.354 288.151 391.676 287.214 389.885C286.334 388.219 285.796 386.371 285.031 384.637C284.436 383.279 282.904 382.378 281.555 382.549C280.424 382.697 280.263 383.747 280.058 384.545C279.418 386.953 278.88 389.383 278.366 391.825C277.623 395.316 276.651 398.784 277.165 402.435C277.451 404.455 276.743 406.44 276.159 408.311C275.485 410.468 275.919 412.27 276.948 414.027C278.949 417.484 281.647 420.519 283.224 424.239C283.419 424.684 283.739 425.095 284.299 425.186C285.008 425.3 285.808 425.46 285.819 426.327C285.831 427.091 285.145 427.502 284.493 427.787C283.682 428.152 282.904 428.072 282.321 427.354C281.887 426.817 281.361 426.27 281.155 425.631C279.989 421.9 277.451 418.911 275.028 416.127C273.336 414.187 273.279 412.704 273.37 410.491C273.53 406.794 273.942 403.154 274.605 399.526C274.765 398.659 274.788 397.666 274.513 396.856C273.244 392.988 273.222 388.995 273.13 385.002C273.107 383.895 273.416 382.857 271.472 383.154C270.146 383.347 269.015 382.092 268.054 381.066C267.174 381.556 267.586 382.332 267.574 382.948C267.529 385.652 267.494 388.356 267.574 391.06C267.7 396.046 268.5 400.815 272.341 404.501C272.913 405.048 273.164 405.733 272.73 406.383C272.25 407.113 271.484 406.839 270.844 406.52C269.22 405.733 268.226 404.284 267.529 402.766C266.397 400.325 265.597 397.746 265.448 395.008C265.356 393.228 265.139 391.448 264.968 389.577C263.825 389.908 263.733 390.923 263.344 391.631C262.396 393.376 261.63 395.225 260.692 396.982C257.286 403.417 257.72 410.057 259.583 416.766C259.892 417.895 260.681 418.671 261.858 418.933C262.659 419.116 263.425 419.264 263.687 420.2C260.772 421.352 259.229 420.85 257.903 418.238C256.417 415.305 256.383 412.065 256.028 408.905C255.445 403.588 257.32 398.91 259.812 394.369C261.012 392.19 262.076 389.919 263.139 387.66C264.522 384.728 265.059 381.727 264.922 378.396C264.648 371.813 264.899 365.229 265.905 358.669C266.5 354.858 266.042 351.127 263.287 347.67C261.641 356.387 260.784 364.864 261.584 373.455C261.721 374.939 262.213 376.376 262.51 377.848C262.624 378.43 262.693 379.035 262.704 379.639C262.716 380.21 262.796 380.917 261.984 381.054C261.23 381.18 260.944 380.678 260.807 380.016C260.407 378.065 259.984 376.114 259.572 374.163C259.458 373.592 259.343 373.022 259.115 371.858C258.109 373.513 257.606 374.802 257.251 376.16C257.046 376.935 256.817 377.7 256.565 378.453C256.348 379.092 255.891 379.491 255.194 379.251C254.622 379.058 254.565 378.476 254.656 377.996C254.851 377.027 255.091 376.045 255.422 375.11C258.212 367.215 259.732 359.125 259.652 350.728C259.618 347.739 259.926 344.749 260.109 341.76C260.155 341.053 260.292 340.357 259.938 339.706C258.417 336.888 257.686 333.751 256.188 330.351C254.679 333.967 253.456 337.219 253.113 340.745C252.473 347.408 252.187 354.094 252.267 360.791C252.29 362.788 252.244 364.773 251.993 366.77C251.741 368.823 251.673 370.934 252.267 373.022C252.622 374.254 252.702 375.589 252.702 376.878C252.713 381.168 253.662 385.401 253.547 389.703C253.525 390.672 253.902 391.665 254.062 392.646C254.233 393.753 255.434 395.054 253.262 395.681C252.564 395.886 252.999 396.936 253.056 397.598C253.376 401.648 252.77 405.527 251.261 409.304C250.278 411.78 248.472 413.674 246.94 415.75C245.328 417.941 243.945 420.223 242.767 422.642C242.55 423.087 242.527 423.623 241.967 423.828C241.441 424.022 240.847 423.874 240.584 423.543C240.218 423.064 240.31 422.413 240.641 421.843C242.173 419.139 243.911 416.583 245.728 414.062C246.254 413.331 246.768 412.59 247.26 411.837C247.603 411.312 247.843 410.468 247.397 410.171C245.911 409.178 246.551 407.992 246.597 406.657C246.677 404.386 246.254 402.093 245.968 399.811C245.842 398.807 245.82 397.849 245.923 396.833C247.111 385.915 248.678 375.03 248.22 363.986C248.083 360.7 248.209 357.402 248.209 354.105C248.209 353.614 248.232 353.101 247.797 352.599C246.54 353.626 246.974 355.166 246.677 356.421C245.042 363.415 243.43 370.421 241.99 377.46C240.915 382.743 239.909 388.014 238.652 393.262C237.086 399.846 236.103 406.577 235.039 413.263C234.651 415.693 234.262 418.26 235.908 420.508C236.148 420.839 236.274 421.284 236.011 421.615C235.668 422.071 235.085 422.025 234.628 421.866C232.89 421.272 232.662 419.744 232.559 418.238C232.353 415.419 232.97 412.658 233.382 409.909C234.525 402.207 236.171 394.597 238.183 387.067C238.949 384.192 238.675 381.134 239.326 378.179C240.835 371.345 242.927 364.659 244.173 357.768C244.974 353.352 245.705 348.948 245.877 344.418C246.083 339.01 245.682 333.682 245.157 328.343C245.077 327.555 244.791 326.791 244.631 326.015C243.842 322.535 241.578 319.592 240.801 315.986ZM251.684 295.426C252.336 295.894 252.496 296.111 252.644 296.111C254.153 296.054 255.571 296.02 254.851 298.279C254.679 298.826 255.228 299.18 255.685 299.363C256.897 299.876 258.154 300.298 259.481 299.945C260.955 299.534 262.441 299.534 263.95 299.591C265.048 299.636 266.088 299.226 267.151 299.009C271.004 298.21 274.479 296.419 278.149 295.164C280.046 294.514 281.852 293.692 283.647 292.814C284.768 292.266 285.385 291.547 285.282 290.258C285.213 289.459 285.305 288.649 285.225 287.862C284.733 283.298 284.265 278.734 283.67 274.182C282.401 264.575 281.155 254.991 276.914 246.058C274.879 241.768 272.147 238.242 268.237 235.63C264.488 233.131 260.464 232.207 256.028 233.69C254.336 234.26 252.564 234.603 250.815 234.979C247.786 235.63 245.5 237.261 244.162 240.045C243.259 241.939 242.584 243.936 242.196 246.012C242.081 246.651 241.761 247.336 242.653 247.826C243.831 248.477 243.51 249.184 242.596 249.869C242.333 250.074 241.247 250.12 242.093 250.747C243.613 251.865 242.71 252.162 241.658 252.641C241.236 252.835 241.007 253.371 241.304 253.907C242.276 254.444 244.082 252.881 244.299 254.729C244.448 255.995 242.882 256.418 241.704 256.691C241.613 256.714 241.498 256.623 241.418 256.634C241.075 256.714 240.915 256.999 241.053 257.262C241.167 257.49 241.476 257.752 241.693 257.752C242.07 257.764 242.447 257.513 242.836 257.479C244.471 257.365 244.997 258.175 244.208 259.658C243.991 260.057 243.419 260.24 243.43 260.959C244.162 261.232 245.248 261.232 245.282 262.453C245.305 263.24 244.391 263.765 244.391 264.142C244.379 264.883 245.797 264.45 246.117 265.351C246.357 266.024 246.117 266.492 245.648 266.937C245.328 267.245 244.551 267.667 244.894 267.975C246.906 269.789 244.196 270.44 244.059 271.797C245.317 272.026 246.78 272.163 246.345 274.091C246.243 274.57 246.54 274.741 246.894 274.981C249.078 276.441 249.055 276.453 247.066 278.073C246.803 278.289 246.323 278.404 246.608 279.031C247.614 279.419 248.94 277.867 249.832 279.316C250.507 280.412 249.569 281.165 248.86 281.815C249.501 282.226 249.901 282.112 250.244 281.929C250.952 281.541 251.616 281.507 252.073 282.226C252.541 282.956 252.096 283.538 251.581 284.074C250.792 284.907 250.015 285.751 249.272 286.561C247.889 285.398 246.917 284.348 246.883 282.751C246.563 282.876 246.254 282.899 246.22 283.013C245.488 285.124 247.134 287.508 249.203 287.417C249.901 287.383 250.587 287.406 251.215 286.961C251.696 286.618 252.29 286.253 252.804 286.881C253.227 287.394 253.033 287.976 252.816 288.569C252.073 290.566 250.209 290.349 248.598 290.532C249.249 292.951 249.238 292.836 251.273 292.7C252.324 292.62 253.147 292.038 254.108 291.855C254.725 291.73 255.331 291.798 255.685 292.414C256.005 292.985 255.502 293.304 255.205 293.681C254.393 294.673 253.307 295.13 251.684 295.426ZM291.455 330.168C289.306 342.673 288.414 355.292 286.265 367.739C285.442 367.648 285.488 366.484 284.436 366.564C283.727 368.23 283.396 370.067 283.03 371.892C282.858 372.737 283.041 373.49 283.864 373.946C284.699 374.402 285.396 374.049 286.059 373.547C286.379 373.307 286.642 372.999 286.951 372.748C287.786 372.075 288.677 371.984 289.82 372.497C289.1 374.072 287.866 374.984 286.814 375.966C284.882 377.768 284.825 377.666 286.002 379.97C286.54 381.02 287.1 381.921 288.483 381.568C289.672 381.271 290.621 380.917 290.849 379.354C291.352 375.897 291.787 372.417 291.832 368.949C291.901 363.255 292.438 357.596 292.541 351.903C292.587 349.108 292.713 346.312 292.896 343.529C293.181 339.022 292.667 334.595 291.455 330.168ZM278.4 366.53C278.995 365.594 278.903 364.693 278.743 363.803C278.274 361.236 278.332 358.635 278.091 356.056C277.634 350.979 278.251 346.107 280.732 341.578C281.212 340.699 281.75 339.843 282.127 338.931C282.733 337.47 283.75 336.055 283.613 334.435C283.224 329.563 282.093 324.851 280.458 320.048C279.738 321.041 279.658 322.022 279.692 322.809C279.818 326.129 279.006 329.312 278.274 332.461C276.354 340.688 275.371 348.925 276.308 357.357C276.662 360.494 277.428 363.518 278.4 366.53ZM266.717 348.412C268.272 339.113 268.832 330.134 268.192 321.063C267.677 322.786 268.374 324.669 267.483 326.38C265.882 325.89 265.585 324.726 265.482 323.516C265.379 322.227 265.402 320.926 265.391 319.626C265.379 317.96 264.865 316.5 263.802 315.153C263.31 316.853 262.83 318.451 262.407 320.059C261.698 322.798 262.098 325.171 263.687 327.407C264.053 327.92 264.145 328.48 264.316 329.05C265.334 332.416 264.945 335.816 264.362 339.125C263.779 342.513 264.579 345.354 266.717 348.412ZM274.228 358.167C274.719 356.969 273.919 356.113 273.907 355.109C273.85 347.716 274.273 340.402 276.137 333.169C277.451 328.057 278.046 322.786 278.08 317.458C278.103 313.533 275.885 311.217 272.947 309.049C272.627 310.316 272.867 311.228 273.187 312.21C273.576 313.43 274.01 314.64 274.228 315.941C275.359 322.706 274.628 329.472 274.25 336.215C273.976 341.076 273.267 345.936 273.142 350.796C273.073 353.17 273.027 355.737 274.228 358.167ZM251.97 317.07C250.69 320.596 249.764 324.064 249.729 327.635C249.695 330.316 249.729 333.009 249.226 335.633C248.723 338.223 248.918 340.699 249.661 343.814C250.461 340.334 251.341 337.459 251.73 334.527C252.29 330.282 252.747 326.027 253.845 321.896C254.382 319.843 254.073 318.405 251.97 317.07ZM271.85 360.837C271.13 366.017 270.444 370.9 269.792 375.783C269.632 376.981 269.792 378.145 270.249 379.286C270.581 380.119 271.095 380.666 271.998 380.632C273.061 380.586 273.141 379.742 273.233 378.921C273.484 376.456 273.53 373.935 274.09 371.539C274.982 367.739 274.685 364.282 271.85 360.837ZM251.581 304.383C247.98 305.17 245.111 306.824 243.293 310.019C243.145 310.281 242.927 310.601 242.973 310.841C243.522 313.739 243.328 316.842 245.671 319.82C246.105 313.807 249.101 309.243 251.581 304.383ZM248.792 408.848C250.827 404.923 251.307 401.739 250.804 397.643C250.278 393.388 249.535 389.143 249.558 384.808C247.729 392.589 247.534 400.427 248.792 408.848ZM287.363 303.036C286.265 305.375 287.145 307.075 287.408 308.787C287.683 310.544 288.117 312.278 288.54 314.024C289.295 317.184 289.306 317.184 290.884 318.394C291.512 312.94 291.741 307.692 287.363 303.036ZM280.538 355.394C282.115 350.671 285.499 346.404 283.876 340.585C281.121 345.365 279.109 349.963 280.538 355.394ZM280.332 312.689C280.732 312.449 280.927 312.016 280.789 311.685C279.612 308.798 278.937 305.798 278.594 302.706C278.514 302.032 275.714 300.024 275.039 300.093C274.776 300.116 274.445 300.287 274.308 300.504C273.679 301.416 273.987 303.778 274.891 304.588C277.28 306.733 279.749 308.81 279.955 312.369C279.978 312.472 280.206 312.575 280.332 312.689ZM275.599 380.564C274.662 384.865 275.039 388.687 275.954 392.532C276.445 390.193 277.223 387.991 277.783 385.721C278.514 382.766 278.537 382.766 275.599 380.564ZM286.002 318.108C285.934 318.268 285.751 318.451 285.796 318.565C287.671 323.79 287.385 329.05 286.139 334.355C285.774 335.93 285.865 337.561 286.185 339.615C288.563 334.675 288.323 322.684 286.002 318.108ZM269.575 361.339C270.146 355.931 269.449 350.58 269.906 345.251C269.198 350.568 267.597 355.862 269.575 361.339ZM281.464 302.546C281.132 306.3 281.99 309.734 284.813 312.871C285.796 308.479 282.195 306.026 281.464 302.546ZM284.642 326.506C284.733 322.261 284.036 318.222 281.498 314.72C282.367 318.69 283.556 322.581 284.642 326.506ZM258.417 303.322C256.508 305.181 253.662 306.185 253.776 309.551C255.628 307.646 258.326 306.596 258.417 303.322ZM259.961 332.861C260.189 326.106 260.189 326.106 258.36 325.068C258.235 328.491 258.349 329.096 259.961 332.861ZM267.734 303.424C267.643 305.923 267.78 306.106 270.421 307.326C270.775 305.239 270.775 305.239 267.734 303.424ZM276.8 372.098C275.645 374.642 275.382 377.346 276.159 379.571C276.411 376.867 277.36 374.813 276.8 372.098ZM270.272 314.012C270.398 311.582 269.209 310.259 267.323 309.38C268.1 310.966 268.283 312.906 270.272 314.012ZM262.19 309.335C263.87 307.577 262.887 305.626 262.922 303.801C262.761 305.604 261.893 307.315 262.19 309.335ZM281.258 298.005C284.882 298.427 284.882 298.427 284.768 295.734C283.796 296.818 282.355 296.693 281.258 298.005ZM288.849 387.763C289.809 386.04 289.832 384.933 289.477 383.598C286.985 384.682 288.677 385.937 288.849 387.763ZM255.354 312.232C253.765 313.294 253.765 313.294 254.999 314.868C255.205 313.933 255.662 313.168 255.354 312.232ZM281.51 361.145C281.818 360.198 282.607 359.582 282.035 358.612C282.184 359.445 281.212 359.89 281.51 361.145ZM251.227 299.967C249.478 299.922 248.826 300.686 247.843 301.975C249.341 301.553 250.324 301.348 251.227 299.967ZM286.334 352.074C286.585 351.447 287.248 350.956 286.882 350.089C286.105 350.694 286.094 351.333 286.334 352.074ZM249.135 315.781C248.495 316.545 248.575 317.184 248.678 317.903C249.512 317.39 249.421 316.728 249.135 315.781ZM242.893 264.94C242.756 264.815 242.63 264.598 242.493 264.587C242.081 264.564 241.247 264.165 241.453 264.952C241.624 265.671 242.39 265.203 242.893 264.94Z" fill="#10100F"/>
<path d="M257.206 268.112C254.896 268.454 253.319 267.816 251.81 266.88C251.284 266.56 250.907 266.173 250.804 265.556C250.667 264.769 250.873 264.222 251.798 264.313C252.199 264.347 252.633 264.427 252.976 264.621C255.845 266.252 258.532 265.648 261.138 264.016C261.973 263.503 262.853 262.556 263.642 263.799C264.408 264.986 263.196 265.534 262.441 266.093C260.738 267.348 258.795 267.987 257.206 268.112Z" fill="#10100F"/>
<path d="M270.615 265.762C269.277 266.013 268.191 265.477 267.185 264.712C266.774 264.393 266.5 263.971 266.705 263.434C266.9 262.909 267.426 262.818 267.906 262.727C268.054 262.693 268.237 262.727 268.386 262.773C271.518 263.788 273.93 262.35 276.228 260.502C276.422 260.354 276.582 260.148 276.788 260.023C277.44 259.624 278.057 259.726 278.537 260.32C278.994 260.879 278.697 261.381 278.309 261.86C276.319 264.29 273.564 265.214 270.615 265.762Z" fill="#10100F"/>
<path d="M263.299 256.258C262.59 256.224 261.995 255.961 262.053 255.14C262.098 254.467 262.373 253.862 263.196 253.839C263.973 253.816 264.419 254.238 264.453 254.991C264.488 255.744 264.076 256.189 263.299 256.258Z" fill="#10100F"/>
<path d="M300.086 248.18C299.435 242.943 298.223 238.06 294.61 233.872C291.935 230.781 288.929 229.297 284.916 229.594C283.922 229.674 282.916 230.073 281.841 229.742C281.658 227.837 283.121 226.536 283.464 224.859C284.139 221.585 286.345 219.223 288.7 217.135C290.449 215.583 291.855 213.838 293.216 212.001C293.959 210.985 293.856 210.449 292.724 210.015C290.632 209.205 288.826 207.95 286.928 206.798C284.688 205.44 282.447 204.094 279.68 204.003C278.537 203.968 277.84 204.265 277.497 205.349C276.285 209.262 273.679 212.423 271.827 215.994C271.61 216.405 271.381 217.112 270.958 217.032C269.403 216.701 267.723 218.15 266.214 216.359C265.357 215.344 264.11 215.674 263.562 216.542C263.024 217.397 263.139 219.462 263.939 219.805C266.385 220.832 267.952 223.182 270.501 224.026C271.198 224.254 271.701 224.779 272.273 225.201C273.827 226.308 274.879 228.042 276.422 229.058C279.28 230.929 281.43 233.359 283.293 236.132C283.67 236.702 284.059 237.523 284.928 237.227C285.865 236.896 285.636 235.892 285.762 235.15C285.842 234.671 285.488 234.272 285.202 233.884C284.082 232.344 284.127 232.264 285.934 232.058C286.574 231.99 287.18 231.979 287.808 232.184C291.844 233.473 294.21 236.531 295.811 240.136C298.063 245.225 298.326 250.724 298.589 256.212C298.829 261.141 297.583 265.99 297.926 270.919C298.051 272.733 297.868 274.559 297.868 276.384C297.846 281.644 297.171 286.812 295.811 291.889C295.262 293.955 294.782 296.054 293.376 297.765C292.301 299.077 290.849 299.465 289.317 299.089C287.763 298.712 286.711 297.663 286.471 295.963C286.402 295.438 286.311 294.913 286.208 294.399C285.373 294.457 284.539 294.525 283.727 294.673C283.979 295.746 284.322 296.795 284.768 297.834C285.785 300.218 287.443 301.485 290.003 301.542C292.461 301.599 294.953 299.751 295.982 297.594C296.942 295.575 297.434 293.43 298.074 291.33C299.412 286.915 299.823 282.34 300.04 277.765C300.269 272.87 299.926 267.952 300.578 263.081C300.863 260.936 300.841 258.813 300.783 256.68C300.669 253.839 300.441 251.009 300.086 248.18ZM278.8 223.832C277.257 222.874 275.759 221.836 274.273 220.786C272.856 219.782 272.787 219.405 273.633 217.876C273.862 217.466 274.216 217.135 274.605 216.633C276.365 217.568 277.863 218.561 279.383 219.531C282.184 221.311 282.39 221.938 280.801 224.87C279.875 225.053 279.429 224.232 278.8 223.832Z" fill="#10100F"/>
<path d="M464.06 301.235C466.503 301.4 468.781 300.78 470.976 299.745C471.97 299.249 473.047 298.918 474 298.38C475.284 297.594 476.485 296.725 477.686 295.856C478.804 295.028 479.674 294.035 480.543 293.001C480.916 292.546 482 291.5 483 291.5C484 291.5 484.5 291.5 485 292C485.5 292.5 485 293.5 484.5 294C484 294.5 482.497 295.252 482 295.5C480.426 296.369 479.881 297.056 478.265 297.883C477.479 298.297 476.899 299.083 476.029 299.455C474.579 300.076 473.337 301.028 471.97 301.731C470.024 302.766 468.036 303.304 465.924 303.635C464.681 303.8 463.439 303.841 462.196 303.635C460.995 303.469 459.794 303.51 458.634 303.179C458.469 303.138 458.303 303.138 458.179 303.055C456.812 302.269 456.149 303.345 455.155 303.966C453.913 304.752 453.043 305.952 451.718 306.655C450.724 307.193 449.73 307.814 449.026 308.807C448.653 309.386 448.032 309.841 447.204 309.8C446.789 309.8 446.334 309.758 446.251 309.303C446.127 308.724 446.21 308.062 446.707 307.689C448.156 306.655 449.647 305.745 451.097 304.71C452.339 303.8 453.582 302.931 454.824 302.062C455.28 301.731 455.362 301.442 454.99 300.821C454.327 299.58 453.457 298.297 453.954 296.683C454.079 296.269 454.369 295.98 454.617 295.649C455.238 294.78 455.735 293.87 456.646 293.208C457.806 292.339 459.421 292.09 460.374 292.794C461.368 293.58 462.196 294.408 461.906 296.021C461.616 297.594 461.036 298.918 460.084 300.076C459.711 300.49 459.877 300.573 460.291 300.738C461.533 301.111 462.776 301.235 464.06 301.235ZM459.753 295.773C459.877 295.483 459.711 295.318 459.545 295.152C458.966 294.573 458.344 294.821 457.723 295.07C457.185 295.318 456.274 296.766 456.315 297.138C456.481 297.883 456.771 298.545 457.185 299.166C457.35 299.455 457.558 299.497 457.806 299.249C458.883 298.338 459.546 297.18 459.753 295.773Z" fill="#10100F"/>
<path d="M425.044 413.037C431.286 413.74 433.533 412.592 438.9 411.184C445.141 410.369 451.195 412.555 457.562 411.962C461.369 411.666 465.238 411.851 469.046 412.036C471.604 412.11 468.359 413.889 466.986 413.666C460.745 413.74 454.254 414.629 448.137 413.963C438.276 411.703 434.219 416.852 424.545 415.222C422.61 414.889 421.362 415.852 419.677 416C416.244 415.741 418.741 413.074 421.3 413.222C422.485 413.185 423.671 412.888 425.044 413.037Z" fill="#10100F"/>
<path d="M183.16 416.128C168.896 416.469 154.734 417.151 140.469 417.919C136.541 418.047 131.993 418.089 128.478 417.535C127.962 417.194 127.341 417.109 126.411 417.279C123.723 417.151 120.726 415.233 125.584 415.147C131.579 415.36 137.471 414.934 143.467 414.891C161.35 414.678 179.026 413.015 196.908 412.717C202.284 412.589 202.904 415.659 197.425 415.915C192.567 416.085 187.915 415.702 183.16 416.128Z" fill="#10100F"/>
<path d="M523.896 412.484C519.98 411.343 516.023 412.683 512.05 412.492C506.627 412.277 499.856 412.262 494.5 413C493.751 413.194 494.615 412.24 495.368 411.839C501.341 408.836 508.353 410.65 514.744 409.889C517.434 410.058 524.304 407.939 525.795 410.406C525.901 411.483 525.015 412.462 523.896 412.484Z" fill="#10100F"/>
<path d="M498.56 371.71C499.408 371.022 499.53 370.173 499.853 369.404C500.095 368.797 500.297 368.15 500.782 367.705C501.308 367.22 501.914 366.411 502.641 366.815C503.611 367.301 502.803 368.11 502.641 368.757C502.56 369.162 502.358 369.526 502.722 370.051C503.854 369.647 504.46 368.757 505.025 367.786C505.51 366.937 505.995 366.047 506.48 365.197C506.803 364.631 507.248 364.105 507.975 363.984C508.299 363.943 508.622 363.822 508.905 364.065C509.188 364.348 509.107 364.671 508.986 364.955C508.743 365.48 508.46 365.966 508.218 366.492C507.854 367.22 507.49 367.705 508.299 368.595C509.39 369.768 508.177 370.416 506.844 370.901C507.975 371.467 508.824 371.912 509.673 372.357C509.955 372.519 510.198 372.762 510.158 373.126C510.117 373.611 509.794 373.975 509.39 373.975C507.248 374.016 505.43 375.593 503.045 375.027C503.449 376.362 504.419 376.605 505.227 377.09C505.672 377.333 506.076 377.656 505.955 378.263C505.793 378.991 505.187 379.153 504.621 379.032C503.247 378.789 501.873 378.546 500.54 378.142C499.408 377.818 498.277 377.778 497.145 377.535C496.297 377.333 495.731 377.778 495.206 378.304C494.681 378.829 494.761 379.315 495.327 379.76C496.014 380.286 496.822 380.447 497.55 380.771C498.035 380.973 498.317 381.418 498.237 381.944C498.115 382.632 497.59 382.874 496.943 382.794C495.812 382.632 494.68 382.43 493.549 382.187C492.902 382.065 492.215 381.904 491.609 382.106C490.922 382.349 490.114 382.672 489.993 383.481C489.912 384.209 490.599 384.573 491.165 384.937C491.811 385.342 492.458 385.666 493.104 386.03C494.155 386.636 495.529 387 494.721 388.74C494.519 389.185 495.085 389.63 495.287 390.034C497.226 394.322 498.6 398.812 499.287 403.424C499.732 406.498 498.6 409.37 496.337 411.716C492.418 415.802 488.013 418.795 482.032 417.784C478.759 417.217 475.405 416.934 472.213 415.68C465.464 413.091 465.262 407.55 467.08 402.331C468.576 398.084 470.798 394.12 472.536 389.953C473.182 388.416 474.233 387.162 475.849 386.475C476.375 386.232 476.9 385.989 477.425 385.747C477.83 385.544 478.476 385.382 478.193 384.695C477.91 384.007 477.425 383.4 476.698 383.158C476.254 382.996 475.93 383.36 475.728 383.724C475.203 384.654 474.718 385.625 473.304 385.666C473.021 384.169 474.193 383.117 474.556 381.701C473.182 381.58 472.334 382.389 471.445 382.996C470.556 383.562 469.909 384.735 468.454 384.412C468.616 382.713 469.505 381.661 470.758 380.771C472.091 379.841 472.051 379.638 470.677 378.748C468.899 377.616 468.697 377.656 467.08 378.951C466.434 379.477 465.909 380.124 465.302 380.609C464.656 381.176 464.09 381.985 462.959 381.944C462.676 380.528 463.565 379.679 464.373 378.789C464.939 378.182 465.504 377.616 466.07 377.009C466.353 376.726 466.636 376.362 466.353 375.917C466.111 375.553 465.585 375.391 465.262 375.553C463.767 376.281 461.746 375.715 460.655 377.494C459.888 378.789 458.918 377.616 458.069 377.575C457.584 377.535 457.705 376.969 457.867 376.564C458.392 375.31 459.362 374.42 460.292 373.49C458.433 372.317 458.109 372.317 456.695 373.53C455.604 374.501 454.634 375.674 453.341 376.402C452.977 376.605 452.573 376.847 452.21 376.524C451.806 376.16 452.21 375.796 452.25 375.431C452.412 374.542 453.301 373.975 453.543 372.924C452.008 372.559 450.714 372.924 449.421 373.328C448.977 373.449 448.371 373.652 448.047 373.166C447.643 372.559 448.249 372.114 448.573 371.67C449.058 371.022 449.906 371.063 450.553 370.699C451.927 369.971 452.088 369.526 451.28 368.231C451.119 367.948 450.876 367.705 450.714 367.422C450.108 366.37 450.351 365.561 451.482 365.4C452.492 365.278 453.381 365.197 454.068 364.348C454.432 363.943 454.998 364.186 455.442 364.388C456.655 364.955 457.746 365.642 458.594 366.694C458.796 366.937 459.201 366.977 459.443 366.694C459.645 366.492 459.564 366.249 459.403 366.047C459.079 365.561 458.716 365.116 458.433 364.631C458.15 364.146 457.907 363.498 458.554 363.134C459.201 362.77 459.888 362.811 460.292 363.498C460.938 364.752 461.868 365.764 462.676 366.896C462.999 367.341 463.363 367.827 463.767 368.231C464.898 369.283 465.141 369.323 466.232 368.029C467.04 367.058 468.131 367.301 469.101 367.018C469.465 366.896 469.909 367.099 470.313 367.058C470.717 367.018 471.202 366.937 471.324 366.492C471.445 366.047 471.121 365.723 470.758 365.48C469.141 364.388 467.404 363.418 465.868 362.164C465.666 362.002 465.464 361.88 465.262 361.759C463.767 360.626 463.767 360.626 465.181 359.211C465.424 359.008 465.626 358.766 465.868 358.482C464.817 356.905 463.282 356.136 461.666 355.53C460.898 355.246 460.292 354.963 460.332 354.033C460.372 353.264 461.544 352.293 462.474 352.293C462.878 352.293 463.282 352.415 463.686 352.496C464.09 352.617 464.454 352.738 464.858 352.496C465.181 352.091 464.939 351.646 464.696 351.444C462.878 349.947 461.181 348.208 458.877 347.439C457.059 346.792 455.2 346.549 453.301 347.156C452.29 347.48 451.199 347.642 450.149 347.642C449.825 347.642 449.462 347.642 449.3 347.318C449.058 346.873 449.3 346.549 449.543 346.185C449.866 345.659 450.432 345.538 450.997 345.417C452.29 345.134 453.543 344.81 454.836 344.527C455.523 344.365 456.17 344.122 456.129 343.313C456.129 342.504 455.442 342.181 454.836 342.019C453.341 341.614 451.765 341.453 450.189 341.614C449.381 341.695 448.532 341.776 447.724 341.695C446.956 341.614 446.471 341.169 447.078 340.36C447.522 339.794 448.047 339.228 448.573 338.742C449.906 337.407 449.785 336.639 448.088 335.83C447.482 335.547 446.835 335.425 446.229 335.183C445.461 334.899 444.693 334.657 443.966 334.252C443.441 333.969 442.713 333.605 443.117 332.715C443.521 331.825 444.33 331.623 445.178 331.947C445.704 332.149 446.148 332.553 446.673 332.836C447.158 333.12 447.764 333.403 448.29 332.998C448.734 332.634 448.532 332.068 448.371 331.623C448.128 330.773 448.047 330.005 448.775 329.358C449.098 329.074 449.381 328.791 449.825 328.832C450.351 328.872 450.391 329.358 450.472 329.722C450.957 332.27 451.684 334.697 453.907 336.315C454.473 336.72 454.19 337.61 454.998 338.014C455.766 337.165 455.362 336.032 455.564 335.061C455.685 334.414 455.564 333.726 455.766 333.12C456.008 332.472 456.614 332.027 457.301 332.068C458.109 332.108 457.948 332.917 457.948 333.443C457.988 335.021 458.069 336.558 458.029 338.136C457.948 340.846 459.079 342.828 461.666 344.203C461.948 342.666 461.423 341.412 461.019 340.118C460.817 339.43 460.494 338.742 461.1 338.055C461.908 337.124 462.514 337.084 463.12 338.216C463.726 339.349 464.292 340.482 464.535 341.857C465.02 344.527 465.909 347.116 466.878 349.624C467.485 351.242 468.778 352.415 469.869 353.871C470.717 353.022 470.394 352.132 470.435 351.282C470.515 350.069 470.394 348.774 471.364 347.803C472.051 347.075 472.697 347.156 472.98 348.127C473.708 350.675 474.152 353.264 472.94 355.813C472.374 356.945 472.172 357.997 473.506 358.766C474.233 358.482 474.031 357.835 474.071 357.309C474.112 356.703 474.233 356.177 474.637 355.732C474.96 355.368 475.284 354.923 475.849 355.085C476.334 355.206 476.334 355.691 476.375 356.096C476.577 357.876 476.779 359.696 476.981 361.476C477.264 364.105 477.385 366.734 478.476 369.162C478.719 369.687 478.88 370.254 479.567 370.537C480.537 368.959 479.89 366.249 482.719 365.683C483.083 367.26 482.84 368.757 482.84 370.294C482.84 371.993 483.447 372.559 485.022 372.357C486.841 372.155 487.285 371.427 486.396 369.728C484.82 366.734 483.406 363.701 481.386 360.99C481.184 360.707 480.941 360.505 480.779 360.181C480.537 359.696 480.537 359.251 480.941 358.806C481.386 358.321 481.911 358.24 482.477 358.563C483.123 358.927 483.568 359.494 484.053 360.06C485.265 361.557 486.679 362.932 488.579 364.024C488.174 359.615 486.235 356.298 483.244 353.547C482.032 352.415 481.022 351.12 480.012 349.826C479.648 349.341 479.203 348.693 479.89 348.087C480.658 347.399 481.103 347.52 481.871 348.37C484.538 351.404 487.326 354.276 490.074 357.228C490.276 357.471 490.559 357.633 490.882 357.876C492.296 356.46 491.852 354.923 491.326 353.467C490.397 350.837 489.387 348.208 488.296 345.659C487.69 344.284 487.447 342.828 486.881 341.453C486.477 340.482 487.083 339.835 487.932 339.511C488.74 339.187 489.104 339.794 489.427 340.401C490.842 342.909 491.933 345.579 492.902 348.248C493.266 349.219 493.468 350.311 494.357 351.201C496.135 349.624 497.146 347.925 496.661 345.417C495.772 341.008 494.963 336.558 493.347 332.311C493.185 331.947 493.145 331.502 493.064 331.097C492.902 330.126 493.387 329.479 494.236 329.196C495.246 328.872 495.448 329.762 495.731 330.409C497.226 334.05 498.641 337.731 499.489 341.614C499.57 341.978 499.53 342.464 500.095 342.707C501.752 341.695 502.358 340.158 502.399 338.216C502.48 333.848 502.682 329.519 502.803 325.151C502.843 324.342 502.803 323.492 503.409 322.845C503.732 322.481 504.096 322.076 504.662 322.279C505.106 322.441 505.106 322.885 505.187 323.29C505.672 326.283 505.955 329.317 506.157 332.351C506.197 332.756 506.197 333.16 506.238 333.565C506.278 333.969 506.278 334.414 506.763 334.576C507.369 334.778 507.692 334.252 507.895 333.848C509.228 331.259 509.955 328.468 510.238 325.596C510.36 324.544 510.4 323.452 510.481 322.4C510.521 321.996 510.602 321.551 510.764 321.227C511.006 320.822 511.451 320.458 511.976 320.539C512.663 320.62 512.623 321.267 512.582 321.712C512.501 323.088 512.34 324.504 512.218 325.879C512.178 326.283 512.097 326.688 512.623 327.052C513.431 326.122 513.431 324.989 513.592 323.856C513.754 322.724 513.835 321.551 513.996 320.418C514.037 319.933 514.158 319.407 514.522 319.043C514.966 318.598 515.249 317.748 516.017 318.072C516.623 318.315 516.461 319.043 516.502 319.609C516.542 320.863 516.542 322.076 516.098 323.25C515.896 323.775 515.734 324.342 515.774 324.908C515.896 326.283 517.027 326.769 518.199 326C518.603 325.717 518.967 325.353 519.331 325.029C519.815 324.625 520.381 324.382 520.907 324.827C521.553 325.353 521.068 325.879 520.705 326.283C519.573 327.456 518.805 328.953 517.229 329.722C516.866 329.884 516.542 330.167 516.381 330.773C517.108 331.259 517.876 330.935 518.603 330.733C519.977 330.328 521.351 330.369 522.765 330.248C523.372 330.207 523.937 330.328 524.139 331.016C524.301 331.582 523.776 331.785 523.493 332.189C521.513 335.183 518.401 335.021 515.411 335.223C514.441 335.304 513.431 335.223 512.461 335.223C511.047 335.223 509.996 335.911 509.349 337.124C509.915 337.812 510.602 337.731 511.249 337.691C513.956 337.65 516.664 338.014 519.371 337.771C519.533 337.771 519.694 337.731 519.856 337.771C520.543 337.771 520.987 338.136 520.987 338.823C520.987 339.39 520.502 339.632 519.977 339.673C518.078 339.834 516.219 340.037 514.32 339.956C512.097 339.834 509.875 339.915 507.692 339.713C505.672 339.511 503.732 341.291 503.369 343.92C503.247 344.891 504.056 344.931 504.702 344.972C507.167 345.174 509.632 345.134 512.097 344.972C512.744 344.931 513.39 344.85 514.037 345.093C514.441 345.255 514.805 345.417 514.764 345.943C514.724 346.388 514.441 346.711 514.037 346.833C513.754 346.954 513.39 346.873 513.067 346.913C509.39 347.601 505.712 347.116 502.035 347.035C500.984 346.994 499.651 346.549 499.408 348.046C499.126 349.624 500.661 349.502 501.591 349.785C502.762 350.109 504.015 350.23 505.227 350.028C505.793 349.947 506.359 349.826 506.925 349.866C507.45 349.907 508.218 349.745 508.299 350.554C508.379 351.282 507.935 351.768 507.167 351.929C504.581 352.455 501.995 352.779 499.368 353.062C498.721 353.143 498.075 353.224 497.388 353.264C495.852 353.386 495.044 354.397 494.478 355.61C493.67 357.269 494.276 358.038 496.135 358.321C498.075 358.604 499.893 357.997 501.752 357.835C502.52 357.795 503.611 357.35 503.773 358.482C503.934 359.575 502.762 359.656 502.035 359.817C500.055 360.303 498.035 360.667 496.014 361.031C494.883 361.233 493.791 361.638 492.781 362.204C492.256 362.487 491.852 362.851 491.609 363.417C491.165 364.469 491.529 364.995 492.62 364.874C493.589 364.752 494.559 364.591 495.448 364.105C495.812 363.903 496.135 363.62 496.539 363.539C497.388 363.296 498.641 362.932 499.004 363.741C499.489 364.793 498.156 365.197 497.388 365.521C494.923 366.451 492.66 367.786 490.518 369.283C489.912 369.687 489.468 370.092 489.67 370.861C489.912 371.75 490.68 371.508 491.326 371.548C492.215 371.589 492.862 371.022 493.549 370.577C494.034 370.254 494.438 369.849 495.004 369.687C496.984 369.04 497.832 369.485 498.56 371.71ZM496.297 407.833C495.287 408.359 494.196 408.642 493.347 409.451C492.862 409.896 492.256 410.219 491.569 410.058C491.165 409.977 490.801 409.734 490.761 409.249C490.761 408.885 491.044 408.561 491.326 408.561C493.67 408.723 494.64 406.619 496.216 405.608C496.661 405.325 497.105 404.88 496.741 404.233C496.014 404.273 495.61 404.718 495.125 405.042C494.357 405.527 493.589 406.013 492.741 406.336C492.175 406.538 491.367 406.862 491.084 405.972C490.882 405.284 491.528 405.001 492.094 404.799C493.024 404.435 493.953 404.111 494.842 403.747C495.61 403.424 496.256 402.938 496.499 402.048C496.62 401.644 496.58 401.199 496.176 400.956C495.893 400.794 495.57 400.956 495.287 401.158C494.398 401.765 493.549 402.372 492.62 402.938C492.175 403.181 491.569 403.221 491.286 402.776C490.963 402.251 491.448 401.806 491.892 401.603C493.145 401.118 494.196 400.39 495.287 399.621C495.933 399.136 496.054 398.57 495.691 397.922C495.327 397.235 494.761 397.437 494.196 397.68C493.226 398.125 492.215 398.367 491.367 399.095C490.801 399.621 490.074 400.228 488.983 399.985C489.629 398.853 491.003 398.57 491.246 397.316C490.478 396.871 489.71 398.165 488.861 397.235C489.508 396.183 490.882 395.455 490.761 393.837C489.953 393.715 489.387 394.201 488.7 394.484C486.801 395.212 484.861 396.021 482.8 396.021C480.173 396.062 477.627 395.738 475.284 394.282C473.263 393.068 473.021 393.149 472.051 395.374C470.839 398.044 469.707 400.794 468.697 403.545C466.838 408.48 468.697 412.323 473.667 414.103C476.011 414.952 478.395 415.438 480.82 415.923C485.144 416.813 489.144 415.883 492.62 413.132C494.317 411.757 495.852 410.179 496.297 407.833ZM482.153 391.288C481.951 388.416 480.497 386.191 477.223 387.971C476.779 388.214 476.334 388.335 475.849 388.538C474.193 389.306 474.031 390.884 475.567 391.936C476.738 392.704 477.991 393.351 479.365 393.634C481.871 394.16 482.234 393.877 482.153 391.288ZM487.407 388.376C487.003 388.376 486.558 388.214 486.316 388.659C485.709 389.711 485.063 390.762 484.538 391.855C484.295 392.34 484.134 393.028 484.497 393.513C485.023 394.201 485.709 393.756 486.316 393.554C487.083 393.311 487.851 393.028 488.579 392.664C490.155 391.855 491.286 390.56 490.842 389.832C490.074 388.538 488.74 388.376 487.407 388.376ZM474.152 373.045C473.789 374.097 474.354 374.542 474.718 375.067C475.647 376.443 477.021 377.333 478.112 378.546C478.395 378.829 478.638 379.234 479.123 378.91C479.486 378.668 479.608 378.223 479.486 377.818C479.365 377.373 479.244 376.847 478.921 376.524C477.547 375.067 476.173 373.733 474.152 373.045ZM494.963 372.276C493.064 372.843 491.892 373.894 490.761 374.906C490.155 375.431 490.518 376.726 491.367 377.454C492.135 378.101 492.62 377.454 492.943 376.969C493.872 375.634 494.761 374.299 494.963 372.276ZM473.506 364.631C473.182 360.829 470.596 360.829 467.929 360.06C469.343 362.447 471.445 363.215 473.506 364.631ZM472.697 372.236C472.374 371.71 471.93 371.265 471.364 371.346C470.596 371.467 470.839 372.195 470.839 372.721C470.839 373.126 471.081 373.571 471.606 373.368C472.132 373.126 472.657 372.924 472.697 372.236ZM466.474 355.206C467.121 355.853 467.646 356.743 468.859 356.217C468.333 355.165 467.727 354.518 466.474 355.206ZM483.568 381.459C484.336 380.043 484.376 380.043 483.851 378.142C483.81 379.436 482.881 380.164 483.568 381.459ZM491.973 394.969C493.145 394.929 493.872 394.888 494.115 393.877C494.155 393.796 493.953 393.554 493.872 393.513C493.024 393.392 492.62 393.999 491.973 394.969ZM469.586 370.294C469.465 369.93 469.222 369.768 468.859 369.809C468.454 369.849 468.374 370.173 468.414 370.537C468.414 370.941 468.697 371.103 469.061 370.982C469.384 370.901 469.586 370.699 469.586 370.294ZM474.152 369.364C474.031 368.838 473.748 368.474 473.182 368.514C472.94 368.555 472.738 368.717 472.9 369.04C473.061 369.404 473.384 369.687 473.789 369.809C474.112 369.89 474.112 369.607 474.152 369.364Z" fill="#10100F"/>
<path d="M378.276 360.403C375.749 367.024 371.773 384.485 373.927 390.981C374.714 392.139 373.057 393.132 371.939 392.801C367.963 392.636 372.022 373.685 372.395 370.499C374.59 362.969 375.666 354.238 381.05 348.239C381.547 347.908 381.547 347.246 381.672 346.708C383.453 340.956 386.227 335.66 388.837 330.281C391.032 326.268 391.819 321.716 393.848 317.62C401.551 303.221 395.587 296.973 400.392 287.291C403.125 282.863 406.066 284.394 405.03 277.857C404.906 276.822 405.444 275.25 406.645 275.25C408.758 275.622 410.911 275.457 413.023 275.416C416.047 275.333 414.1 278.643 414.225 280.381C414.1 282.574 417.455 282.077 418.408 283.649C421.1 285.718 423.088 288.408 424.371 291.511C424.786 292.173 425.448 294.242 426.401 296.187C432.406 308.807 436.258 322.42 438.08 336.239C439.737 345.673 436.341 354.859 436.755 364.169C436.465 374.265 436.382 384.692 433.317 394.415C432.655 395.574 432.033 396.774 431.702 398.139C431.661 398.76 430.584 399.298 430.004 399.091C429.88 398.098 427.809 397.477 428.886 396.236C434.104 390.236 434.643 374.182 434.104 366.527C431.412 372.113 427.56 377.864 422.88 382.168C402.794 399.38 408.84 382.25 409.213 411.09C409.545 412.455 409.213 415.972 407.101 414.855C405.03 413.324 406.894 411.007 406.48 408.897C406.438 404.139 406.19 399.422 405.362 394.746C405.072 394.332 405.279 392.843 404.533 393.174C401.386 393.96 398.155 394.208 394.883 393.96C393.434 393.422 394.593 403.435 394.221 405.173C394.221 407.325 393.931 409.435 394.138 411.587C394.138 412.828 394.842 414.069 394.096 415.186C389.458 419.076 391.694 408.732 391.404 406.621C391.239 402.897 391.86 399.008 390.907 395.367C390.7 392.47 391.694 393.836 388.837 392.346C377.489 386.429 377.157 371.492 378.276 360.403ZM418.697 291.428C417.993 291.511 417.289 291.552 417.828 292.421C418.78 295.938 419.484 301.524 415.757 303.593C413.438 304.669 410.621 304.297 409.089 303.593C407.557 302.89 405.941 301.773 406.024 300.283C406.148 297.676 407.267 297.924 408.136 299.124C408.716 299.745 409.959 299.166 409.462 298.338C409.255 296.807 407.06 292.918 404.947 293.87C403.539 294.49 402.918 294.987 402.462 296.063C400.64 300.573 401.593 305.662 399.77 310.172C397.782 315.717 395.546 321.22 393.475 326.723C387.387 340.336 380.015 354.156 381.175 369.548C380.512 381.175 388.298 393.298 401.179 390.733C402.628 390.319 407.101 390.319 407.225 388.374C407.225 388.291 407.391 388.25 407.432 388.167C407.888 387.588 414.1 386.719 412.568 385.23C411.201 383.947 413.603 382.457 413.81 382.954C413.976 383.243 414.597 383.574 414.846 383.492C415.301 383.202 417.414 382.333 416.13 381.63C415.964 381.547 416.337 380.347 417.206 380.223C418.076 380.099 421.555 379.892 422.218 379.354C422.591 379.064 419.774 378.568 419.94 377.782C420.313 376.251 420.975 375.796 422.383 375.589C423.585 375.216 425.158 374.761 426.028 374.016C425.655 373.396 423.833 374.554 423.626 373.23C423.46 370.955 428.472 370.789 428.927 370.251C429.051 369.92 430.46 368.224 429.466 368.348C428.389 368.555 427.105 368.927 426.111 368.389C425.324 368.141 426.277 366.569 426.898 366.403C428.14 366.444 429.176 365.12 430.377 365.493C431.288 365.658 431.536 365.576 431.826 364.748C432.323 363.383 430.128 365.162 428.72 363.962C427.519 363.217 428.472 362.059 429.176 361.769C429.88 361.479 432.075 360.817 433.11 360.776C433.566 360.693 433.483 360.238 433.524 359.948C433.566 359.369 432.158 359.741 431.743 359.535C430.998 359.41 430.542 358.872 430.874 358.5C431.371 357.962 431.164 357.466 431.081 356.928C430.377 354.114 432.986 355.645 431.371 351.756C430.501 350.307 430.957 348.611 431.785 347.287C432.696 344.97 436.009 345.839 435.719 344.142C435.968 341.577 431.785 342.529 431.785 342.032C431.578 339.508 436.258 341.618 435.761 339.053C435.637 337.067 435.388 337.439 433.69 337.563C433.4 337.481 431.578 337.936 431.578 336.488C431.578 335.039 433.441 334.998 434.56 334.833C435.429 334.626 434.932 333.922 434.932 333.509C435.057 332.929 432.199 333.633 431.661 333.426C430.584 333.302 430.377 332.971 430.584 331.895C430.708 331.357 432.944 330.447 433.856 330.488C434.311 330.529 434.477 330.323 434.353 329.867C434.228 329.495 434.394 328.957 433.649 328.998C432.406 329.081 429.963 329.288 429.507 327.799C429.424 326.309 431.868 326.392 432.944 326.268C434.435 326.35 433.152 324.488 433.193 323.702C433.11 323.206 433.027 323.123 432.406 323.247C431.205 323.495 429.88 324.281 428.679 323.082C428.14 322.544 428.14 321.964 428.761 321.592C429.673 320.764 431.371 321.178 432.24 320.723C432.572 320.268 431.868 319.647 431.826 319.027C431.785 318.282 431.371 318.24 430.915 318.53C430.17 318.985 429.341 319.109 428.554 318.985C427.768 318.861 426.566 317.827 427.643 316.999C428.554 316.172 431.039 316.503 431.122 316.213C431.288 315.675 430.418 314.186 429.88 314.227C429.176 314.31 428.347 314.806 427.312 314.723C426.277 314.641 426.235 314.02 425.945 313.441C425.738 312.448 427.975 311.868 428.761 311.703C429.217 311.662 429.631 311.662 429.507 311.041C429.383 310.503 429.051 310.296 428.513 310.462C426.152 311.248 423.999 308.186 427.353 307.814C428.803 308.02 428.347 306.034 427.188 306.076C426.235 305.952 424.537 306.489 424.413 305.165C424.123 304.09 425.614 303.841 426.277 303.262C427.56 301.317 422.508 303.428 421.928 302.352C421.679 302.104 421.638 301.359 421.845 301.069C422.673 299.455 424.827 300.159 424.91 299.455C424.164 298.711 422.839 299.497 421.886 299.455C420.975 299.455 420.354 299.662 420.603 298.462C420.851 297.262 422.963 296.394 422.88 296.187C422.011 295.897 420.644 296.352 420.188 295.4C419.733 294.407 421.721 293.621 421.928 293.373C422.301 293.042 421.845 292.545 421.431 292.794C421.265 292.835 419.526 294.283 419.277 294.159C418.697 293.704 418.283 292.173 418.697 291.428ZM401.427 292.628C402.38 291.883 402.752 291.552 404.036 291.221C409.627 289.856 410.166 291.552 410.746 292.628C411.325 293.704 413.189 298.214 410.828 300.779C409.627 302.062 410.911 302.062 413.396 301.235C416.875 299.952 415.715 295.069 414.639 292.794C412.361 288.863 416.047 289.153 418.615 288.532C412.734 281.374 410.497 288.656 411.574 279.015C411.657 278.56 411.615 278.312 411.077 278.395C410.29 278.519 409.462 278.808 408.633 278.643C408.261 278.56 408.095 278.891 408.095 279.222C408.219 280.463 407.474 281.581 407.971 282.781C408.468 283.981 406.935 284.684 405.693 285.677C403.374 287.539 402.007 289.566 401.427 292.628ZM433.98 350.266C435.057 350.39 435.305 349.521 435.305 348.694C435.305 348.446 435.512 348.115 435.222 347.99C433.607 347.535 433.11 350.059 433.98 350.266Z" fill="#10100F"/>
<path d="M393.997 336.911C393.624 334.387 396.606 331.821 398.138 334.759C399.754 338.317 394.121 342.662 393.997 336.911Z" fill="#10100F"/>
<path d="M407.159 336.58C407.159 336.051 406.464 334.541 404.972 334.345C403.398 334.138 402.57 336.704 402.777 337.862C403.108 339.435 404.061 341.007 405.717 340.635C407.102 340.495 407.432 337.697 407.159 336.58Z" fill="#10100F"/>
<path d="M489.297 277.59C489.185 277.535 489.073 277.535 489.018 277.535C487.621 277.423 487.398 277.702 487.789 279.098C488.012 279.824 488.236 280.605 488.291 281.387C488.347 282.336 488.068 282.727 487.286 282.895C486.225 283.118 485.722 282.839 485.666 281.722C485.61 280.717 485.61 279.712 485.387 278.651C485.275 278.26 485.163 278.093 484.884 277.87C483.99 277.311 483.935 276.865 484.549 275.971C484.884 275.525 484.94 275.134 484.884 274.631C484.717 273.459 484.549 272.23 484.158 271.114C484.046 270.723 483.935 270.388 484.046 269.997C484.102 269.885 485.945 269.048 486.001 269.16C486.392 269.885 487.118 270.555 486.895 271.505C486.672 272.454 487.007 273.403 487.118 274.296C487.23 274.91 487.509 275.301 488.236 275.245C488.291 275.245 488.347 275.245 488.347 275.245C489.129 275.19 490.023 275.301 490.637 274.966C491.364 274.52 490.749 273.626 490.693 272.956C490.582 270.89 490.302 268.88 490.135 266.815C490.023 265.586 490.526 264.972 491.531 264.916C492.201 264.86 492.648 265.195 492.592 265.865C492.369 268.21 492.648 270.611 492.872 272.9C493.207 276.474 493.207 280.103 493.989 283.676C494.156 284.514 493.654 285.296 492.872 285.407C492.09 285.519 491.587 284.961 491.475 284.067C491.308 282.28 491.196 280.494 491.028 278.707C490.917 277.535 490.861 277.535 489.688 277.59C489.52 277.59 489.353 277.59 489.297 277.59Z" fill="#10100F"/>
<path d="M508.624 281.89C508.679 278.763 508.456 276.083 508.177 273.403C507.953 271.17 508.065 268.936 507.73 266.703C507.618 266.033 507.562 265.307 507.506 264.637C507.451 264.134 507.562 263.688 508.009 263.409C508.344 263.185 508.735 262.85 509.182 263.074C509.685 263.297 509.741 263.744 509.797 264.246C510.02 266.926 510.02 269.55 510.132 272.23C510.243 275.301 510.634 278.372 510.858 281.443C510.914 281.834 510.746 282.336 511.361 282.504C511.416 282.504 511.528 282.615 511.528 282.671C511.807 283.621 511.137 284.179 510.746 284.849C510.467 285.351 509.852 285.407 509.35 285.351C508.959 285.296 508.735 285.016 508.624 284.57C508.456 283.565 508.679 282.504 508.624 281.89Z" fill="#10100F"/>
<path d="M495.385 279.88C495.162 276.976 496.67 275.078 499.63 274.631C500.189 274.575 500.692 274.24 501.25 274.687C501.92 275.19 501.92 275.971 501.92 276.641C501.865 277.311 501.529 277.981 500.915 278.372C500.077 278.875 499.407 279.656 498.513 280.103C498.234 280.215 498.01 280.438 497.843 280.717C497.619 280.996 497.675 281.387 497.843 281.722C498.01 282.057 498.346 281.946 498.625 281.89C499.407 281.722 500.077 281.387 500.636 280.829C501.027 280.494 501.362 280.103 501.753 279.768C502.032 279.545 502.2 278.93 502.591 279.377C502.87 279.712 503.149 280.326 502.758 280.773C501.529 282.336 500.189 283.788 498.066 284.123C497.619 284.179 497.117 284.291 496.67 284.235C496.167 284.235 495.944 283.9 495.832 283.397C495.497 282.225 495.385 280.941 495.385 279.88ZM497.508 278.316C498.848 277.59 498.848 277.59 499.072 276.865C498.401 277.144 497.619 277.255 497.508 278.316Z" fill="#10100F"/>
<path d="M506.668 278.875C506.613 280.773 507.059 282.336 506.78 283.844C506.724 284.123 506.78 284.346 506.668 284.625C506.501 285.128 505.942 285.519 505.384 285.463C504.769 285.463 504.546 285.072 504.49 284.57C504.434 284.346 504.434 284.123 504.434 283.955C504.769 280.438 504.267 276.92 504.267 273.403C504.267 270.723 504.322 268.099 504.378 265.419C504.378 265.084 504.434 264.804 504.602 264.581C504.937 264.079 505.384 263.688 505.998 263.799C506.557 263.911 506.668 264.525 506.78 265.028C506.836 265.195 506.78 265.363 506.78 265.53C506.389 268.154 506.501 270.835 506.333 273.515C506.277 274.575 506.445 275.58 506.501 276.585C506.501 277.479 506.78 278.372 506.668 278.875Z" fill="#10100F"/>
<path d="M512.087 280.885C512.198 280.047 512.254 279.154 512.422 278.316C512.924 276.362 514.042 274.966 515.941 274.185C516.946 273.794 517.952 274.017 518.957 274.408C519.348 274.576 519.46 275.022 519.515 275.357C519.962 277.2 519.962 279.042 518.957 280.661C518.063 282.169 516.946 283.341 515.382 283.118C515.215 283.118 514.935 283.118 514.879 283.062C514.433 282.113 513.595 282.392 512.813 282.336C512.142 282.281 512.087 282.113 512.087 280.885ZM515.773 281.276C517.449 280.326 518.119 278.819 517.784 276.753C517.672 275.86 517.002 275.525 516.22 276.027C515.829 276.251 515.494 276.641 515.159 276.921C514.433 277.479 514.321 278.261 514.097 279.098C513.986 279.545 514.209 279.936 514.656 279.991C515.606 279.991 515.829 280.494 515.773 281.276Z" fill="#10100F"/>
<path d="M540.444 281.928C539.886 282.431 538.992 282.487 538.266 282.04C537.707 281.705 537.261 281.258 537.372 280.533C537.484 279.918 537.987 279.639 538.657 279.639C539.83 279.695 541.059 281.37 540.444 281.928Z" fill="#10100F"/>
<path d="M529.05 282.04C529.05 282.766 527.933 283.548 527.095 283.101C526.369 282.71 526.76 281.928 526.704 281.314C526.648 280.868 527.151 280.365 527.542 280.086C528.1 279.695 528.826 280.03 528.938 280.7C528.994 281.091 528.994 281.482 529.05 282.04Z" fill="#10100F"/>
<path d="M532.122 281.984C532.122 281.538 532.122 281.314 532.122 281.091C532.122 280.477 532.401 279.974 533.071 279.918C533.742 279.863 534.188 280.253 534.412 280.812C534.803 281.649 533.742 283.157 532.848 283.101C532.01 283.045 531.954 282.431 532.122 281.984Z" fill="#10100F"/>
</svg>
