<svg width="664" height="460" viewBox="0 0 664 460" fill="none" xmlns="http://www.w3.org/2000/svg">
<path d="M173.937 187.498C173.801 188.586 174.209 189.539 174.345 190.627C174.481 191.171 174.753 191.715 174.753 192.259C174.889 193.347 174.617 194.435 173.393 194.707C172.169 194.979 171.353 194.163 171.081 193.211C170.673 191.851 170.401 190.355 170.265 188.858C170.129 187.906 169.857 187.362 168.769 187.362C166.456 187.362 164.144 186.818 161.832 187.77C160.744 188.178 159.656 187.906 159.248 186.818C158.704 185.73 159.656 184.914 160.608 184.506C161.56 184.098 162.512 183.962 163.6 183.962C165.232 184.098 166.728 183.962 168.361 184.098C169.313 184.098 169.585 183.69 169.721 182.738C169.857 179.746 169.313 179.066 166.32 179.066C164.688 179.066 162.92 179.338 161.288 179.474C160.744 179.474 160.2 179.746 159.656 179.61C158.704 179.474 157.48 179.338 157.208 178.114C157.072 176.889 158.568 175.529 159.792 175.529C161.696 175.529 163.736 175.665 165.64 175.665C168.905 175.665 169.177 175.257 168.225 172.129C168.089 171.449 167.953 170.905 167.681 170.225C167.272 169.273 167.681 168.457 168.361 167.641C169.177 166.825 170.129 167.369 170.945 167.505C171.897 167.641 172.033 168.593 171.897 169.545C171.761 170.769 172.169 171.993 172.305 173.081C172.713 175.801 172.713 175.801 175.433 175.529C177.745 175.529 177.745 175.529 177.609 173.217C177.473 171.857 176.929 170.497 176.657 169.137C176.521 168.321 176.521 167.505 176.929 166.689C177.473 165.872 178.289 166.009 179.106 166.009C180.058 166.009 180.33 166.689 180.33 167.505C180.466 169.545 180.874 171.585 181.146 173.625C181.418 175.257 182.234 175.529 183.73 175.257C184.954 174.985 186.314 175.121 187.674 175.121C188.354 175.121 189.034 174.985 189.578 175.529C189.986 175.937 190.531 176.481 190.394 177.161C190.258 177.842 189.714 178.25 189.034 178.25C187.402 178.25 185.906 178.386 184.274 178.386C183.05 178.386 182.506 178.794 182.778 180.018C182.778 180.29 182.778 180.562 182.778 180.834C183.05 183.554 183.322 183.69 186.042 183.69C186.994 183.69 187.946 183.69 188.762 183.554C189.17 183.554 189.578 183.418 189.85 183.418C190.803 183.69 192.027 183.962 192.027 185.186C192.027 186.41 190.939 186.818 189.85 186.818C188.354 186.818 186.858 186.954 185.362 186.818C184.274 186.682 184.002 187.226 184.274 188.178C184.546 189.267 184.682 190.355 184.954 191.443C185.09 192.123 185.362 192.939 185.362 193.619C185.362 194.707 184.954 195.387 183.866 195.659C182.778 195.931 182.098 195.251 181.826 194.163C181.418 192.395 181.146 190.763 180.874 188.994C180.738 188.042 180.466 187.498 179.378 187.498C177.473 187.634 175.705 186.818 173.937 187.498ZM179.65 183.826C179.378 182.33 179.242 181.242 178.969 180.018C178.833 179.474 178.697 178.93 178.017 178.794C176.657 178.658 175.297 178.658 173.937 178.658C173.665 178.658 173.257 178.93 173.257 179.066C172.849 180.562 173.121 181.922 173.665 183.418C174.073 184.642 175.161 184.098 175.977 184.234C177.201 184.506 178.289 183.962 179.65 183.826Z" fill="#10100F"/>
<path d="M195.835 218.645C195.971 218.509 196.107 218.509 196.243 218.373C196.379 218.237 196.515 218.237 196.651 218.101C198.555 216.741 200.187 215.245 201.82 213.749C203.044 212.661 204.268 211.437 205.492 210.485C206.036 210.077 206.444 209.397 206.444 208.58C206.444 207.9 206.172 207.356 205.628 206.948C205.22 206.54 204.676 206.404 204.132 206.404C203.724 206.404 203.044 206.54 202.364 207.22C202.228 207.356 202.092 207.492 201.956 207.628C201.683 207.764 201.547 208.036 201.275 208.308C200.187 209.533 198.963 210.621 197.059 211.981C195.427 213.205 193.931 214.429 192.435 215.653C191.755 216.197 191.075 216.741 190.531 217.285C189.986 217.829 189.034 218.509 189.306 219.869C189.306 220.958 189.714 221.774 190.531 222.59C192.571 224.494 195.019 225.718 197.331 226.942C198.963 227.894 200.731 228.71 202.228 229.934C202.636 230.206 203.044 230.342 203.452 230.342C204.132 230.342 204.812 229.934 205.356 229.254C206.172 228.302 206.036 227.214 205.22 226.262C204.676 225.718 204.132 225.31 203.452 224.902C202.908 224.63 202.228 224.222 201.547 223.95C199.507 222.998 197.467 221.91 195.699 220.55C194.747 219.733 194.747 219.597 194.747 219.461C194.883 219.597 194.883 219.325 195.835 218.645Z" fill="#10100F"/>
<path d="M241.535 212.524C240.447 211.98 239.495 211.3 238.407 210.62C235.822 208.988 233.102 207.356 230.246 206.132C229.838 205.996 229.43 205.86 229.022 205.86C228.478 205.86 228.07 205.996 227.662 206.404C226.846 207.22 227.118 208.308 227.254 208.988C227.526 209.94 228.342 210.212 228.886 210.484H229.022C231.198 211.3 233.374 212.524 236.094 214.429C236.366 214.701 236.638 214.837 236.774 214.973C236.774 215.109 236.638 215.245 236.366 215.517C235.958 215.925 235.55 216.197 235.142 216.605C234.19 217.421 233.238 218.373 232.286 219.053C231.062 220.005 229.974 221.093 228.75 222.045C228.07 222.725 227.39 223.269 226.71 223.949C225.621 224.902 225.213 226.126 224.941 227.35C224.805 228.166 225.077 228.574 225.213 228.846C225.349 229.118 225.757 229.39 226.437 229.39C226.71 229.39 226.846 229.39 227.118 229.254C228.07 228.982 228.614 228.302 229.022 227.622C229.702 226.67 230.382 225.854 231.198 225.174C233.646 223.133 236.094 221.093 238.543 219.053C239.631 218.237 240.583 217.285 241.671 216.333C242.215 215.925 242.895 215.381 242.759 214.429C242.759 213.613 242.351 212.932 241.535 212.524Z" fill="#10100F"/>
<path d="M222.901 205.724C222.629 205.452 222.221 205.452 221.813 205.452C221.269 205.452 220.589 205.724 220.181 206.268C219.637 206.812 219.229 207.492 218.821 208.036L218.413 208.58C216.781 210.893 215.421 213.341 214.061 215.653C212.836 217.693 211.612 219.869 210.252 221.91C209.164 223.406 208.212 225.174 208.348 227.214V227.486C208.348 227.758 208.348 227.894 208.348 228.166C208.484 228.71 208.62 230.07 210.252 230.206C212.02 230.206 212.156 228.71 212.156 228.166C212.292 227.35 212.564 226.398 213.244 225.31C216.237 220.141 219.229 214.973 222.629 210.213C222.765 210.077 222.765 210.077 222.901 209.941C223.173 209.669 223.445 209.26 223.581 208.716C224.261 207.22 223.853 206.268 222.901 205.724Z" fill="#10100F"/>
<path d="M444.192 181.241C449.905 181.513 455.753 182.194 461.602 181.922C464.458 181.786 467.178 181.105 470.035 180.969C476.427 180.561 482.684 181.105 489.076 181.241C491.66 181.241 494.245 181.377 496.965 181.377C498.189 181.377 499.005 181.786 499.277 183.146C500.501 188.042 501.861 193.074 502.405 198.107C502.541 199.875 502.813 201.507 503.629 203.139C504.174 204.227 504.174 205.18 503.357 206.132C502.813 206.812 501.997 207.492 501.181 207.22C500.229 207.084 499.821 206.132 499.685 205.18C499.005 199.467 496.965 194.027 495.877 188.314C495.469 186.546 494.789 185.866 492.885 185.73C484.452 185.458 476.019 184.37 467.722 185.322C459.018 186.274 450.313 185.866 441.608 185.322C440.248 185.186 438.752 185.186 437.392 185.458C431.271 186.682 425.015 186.274 418.758 187.09C415.63 187.498 412.502 187.906 409.373 188.314C405.021 188.994 400.805 189.674 396.452 189.674C394.684 189.674 394.14 190.49 394.14 191.986C394.14 192.394 394.14 192.802 394.14 193.347C395.364 203.819 395.908 214.428 396.452 224.901C396.996 234.83 398.492 244.623 399.989 254.416C400.533 258.224 401.893 262.032 402.437 265.841C402.573 267.065 403.661 267.337 404.613 267.337C407.741 267.473 411.005 267.881 414.134 267.473C419.846 266.793 425.559 267.201 431.135 267.337C438.208 267.609 445.144 267.065 452.081 266.385C460.514 265.433 468.946 264.209 477.515 264.345C478.739 264.345 479.963 264.209 481.052 264.209C483.092 264.073 483.772 264.481 483.908 265.841C484.044 267.473 482.684 268.833 481.052 268.697C480.099 268.561 479.147 268.561 478.195 268.425C469.899 267.745 461.874 269.377 453.713 270.193C444.328 271.281 434.944 271.281 425.559 271.145C420.39 271.009 415.358 270.873 410.189 271.689C407.061 272.233 403.661 271.281 400.397 272.233C399.036 272.641 397.948 271.417 397.812 269.513C397.54 264.753 396.18 260.128 395.364 255.368C394.548 249.927 393.732 244.623 392.916 239.182C391.828 231.566 391.692 223.949 391.148 216.332C390.74 210.62 390.196 204.771 390.196 199.059C390.196 196.339 389.516 193.619 389.108 191.034C388.7 187.09 389.652 185.866 393.596 185.594C399.852 185.186 405.973 184.642 412.094 183.418C413.862 183.01 415.766 182.874 417.67 182.738C424.607 182.194 431.679 181.922 438.616 180.969C440.384 181.105 442.288 181.241 444.192 181.241Z" fill="#10100F"/>
<path d="M409.917 195.931C413.59 196.067 417.398 195.795 421.07 195.251C426.103 194.435 431.135 195.387 436.168 195.115C437.528 194.979 438.752 195.115 440.112 194.979C442.288 194.843 443.784 196.203 445.416 197.291C446.368 197.971 445.824 199.059 445.688 200.011C444.6 204.5 442.832 208.716 441.2 212.933C438.072 221.093 436.304 229.662 433.855 237.959C432.631 242.039 432.359 246.527 431.815 250.88C431.407 254.416 430.863 254.824 427.191 254.552C424.607 254.28 422.158 254.824 419.71 254.96C416.174 255.096 415.086 254.416 414.814 250.88C414.542 246.527 412.91 242.583 411.277 238.639C409.645 234.422 408.693 230.07 407.197 225.99C404.341 218.373 402.981 210.348 401.349 202.324C401.213 201.78 401.077 201.235 400.941 200.827C399.988 197.563 401.213 195.931 404.749 196.067C405.565 196.067 406.517 196.203 407.333 196.203C408.149 195.931 408.965 195.931 409.917 195.931ZM440.792 200.011C436.984 200.827 433.583 200.419 430.047 200.419C422.838 200.283 415.63 201.235 408.421 201.372C405.973 201.372 405.837 201.644 406.245 204.092C406.789 207.9 407.605 211.844 408.693 215.517C409.101 216.741 409.645 217.013 410.733 216.877C418.486 215.789 426.375 215.109 434.263 215.245C435.079 215.245 435.76 215.109 436.168 214.293C437.8 210.076 439.296 205.724 440.928 201.508C440.928 201.099 440.792 200.827 440.792 200.011ZM433.991 219.597C430.047 220.005 426.239 220.413 422.43 220.821C418.622 221.229 414.678 221.365 410.733 222.317C411.821 225.99 412.91 229.526 413.862 233.062C414.27 234.422 415.086 234.694 416.31 234.694C420.254 234.558 424.199 234.422 428.143 234.422C429.775 234.422 430.727 233.606 431.135 231.974C432.087 228.438 433.175 224.902 434.127 221.365C434.263 220.821 434.399 220.277 433.991 219.597ZM416.582 240.135C417.262 242.991 417.534 245.439 419.03 247.752C419.438 248.432 419.846 249.384 420.934 249.384C422.974 249.248 425.015 249.112 427.055 248.84C427.327 248.84 427.735 248.432 427.735 248.296C427.735 245.303 429.367 242.583 429.231 239.319C424.879 239.455 420.934 239.863 416.582 240.135Z" fill="#10100F"/>
<path d="M465.546 212.252C464.05 212.524 462.69 211.708 461.33 211.028C459.29 209.94 457.385 209.804 455.481 211.028C455.345 211.164 455.073 211.164 454.937 211.3C453.985 211.572 452.897 212.116 452.353 211.028C451.809 209.804 452.353 208.716 453.441 208.308C456.705 207.084 459.834 205.18 463.37 207.764C464.866 208.852 466.634 208.716 468.402 208.172C470.987 207.356 473.571 206.54 476.291 206.268C477.651 206.132 478.875 206.404 479.691 207.628C480.507 208.716 480.099 209.668 478.739 210.076C478.195 210.212 477.651 210.212 477.107 210.212C474.251 210.076 471.395 210.62 468.81 211.844C467.858 212.116 466.906 212.388 465.546 212.252Z" fill="#10100F"/>
<path d="M459.562 233.062C458.61 232.926 457.658 232.79 456.705 232.518C455.073 231.974 453.713 231.43 452.217 232.79C451.673 233.334 450.721 233.062 450.177 232.518C449.361 231.838 449.633 231.022 450.041 230.206C451.401 227.894 453.849 226.805 456.433 227.758C459.698 228.982 462.69 229.254 465.818 227.349C466.906 226.669 468.266 226.533 469.627 226.261C471.123 225.989 472.211 226.805 472.755 228.03C473.163 228.846 473.027 230.07 471.803 229.934C468.538 229.662 465.682 231.294 462.826 232.382C461.738 232.654 460.786 233.198 459.562 233.062Z" fill="#10100F"/>
<path d="M467.722 249.656C465.274 249.928 463.506 249.928 461.738 250.2C459.154 250.608 456.705 250.744 454.393 249.656C453.033 248.976 451.809 249.656 450.857 250.472C449.905 251.288 448.817 251.56 448.001 250.608C447.185 249.792 447.729 248.704 448.273 247.888C449.633 245.711 453.441 244.215 455.481 245.303C457.521 246.527 459.698 246.391 461.874 246.255C463.234 246.255 464.458 246.119 465.818 245.983C466.498 245.983 467.042 245.847 467.722 246.255C468.81 246.935 469.763 247.888 469.49 249.112C469.218 250.472 467.858 249.656 467.722 249.656Z" fill="#10100F"/>
<path d="M488.668 238.094C489.348 232.926 488.668 227.621 489.62 222.589C489.892 220.821 490.164 219.189 490.98 217.556C491.388 216.74 491.66 215.788 492.885 216.332C493.837 216.74 494.653 217.556 494.109 218.645C493.157 220.685 493.157 222.861 492.749 225.037C491.932 228.573 492.068 232.11 492.477 235.782C492.613 237.142 492.885 238.366 491.932 239.454C491.388 240.134 490.708 240.815 489.756 240.406C488.804 239.862 488.532 239.046 488.668 238.094Z" fill="#10100F"/>
<path d="M493.021 248.84C493.021 250.336 491.933 251.832 490.708 251.832C489.892 251.832 488.26 249.656 488.124 248.432C487.988 247.344 489.212 246.12 490.3 246.12C491.796 246.256 493.021 247.48 493.021 248.84Z" fill="#10100F"/>
<path d="M500.909 285.563C499.005 285.291 497.645 285.835 496.285 286.107C492.341 286.787 489.62 284.883 488.668 280.939C487.852 277.538 488.26 274.274 488.804 270.874C489.212 268.289 489.484 265.705 489.212 263.121C489.076 261.489 491.252 259.585 492.749 259.857C493.837 260.129 494.109 260.945 493.973 262.169C493.293 266.113 492.749 270.058 492.069 274.138C491.797 276.042 492.205 277.81 492.613 279.578C493.021 281.211 494.381 282.299 496.013 282.027C499.005 281.347 502.133 280.53 503.358 277.266C504.446 274.274 506.35 271.826 507.574 268.833C508.39 266.793 508.798 265.297 507.438 262.985C504.582 257.817 502.677 252.24 501.725 246.392C500.773 240.815 500.365 235.239 501.317 229.526C501.861 225.99 503.63 222.998 506.35 220.685C510.022 217.421 514.238 214.837 519.271 214.021C523.623 213.341 527.704 213.749 531.376 216.469C535.048 219.053 538.449 221.909 540.353 226.262C542.529 231.43 542.937 236.871 541.849 242.311C541.033 246.392 539.265 250.064 537.496 253.872C535.184 258.769 532.328 263.393 530.424 268.561C529.88 269.922 530.152 270.602 530.968 271.418C532.192 272.642 533.416 274.002 534.368 275.362C537.904 279.986 540.217 284.883 541.033 290.731C541.713 295.628 542.937 300.524 543.753 305.557C544.161 307.869 544.025 310.317 544.025 312.629C544.025 314.125 542.529 315.349 541.169 315.077C539.945 314.941 539.265 313.717 539.673 312.085C540.761 307.869 539.265 303.924 538.857 299.98C538.177 299.572 537.904 299.844 537.904 300.116C537.224 303.924 534.504 305.693 531.376 307.325C529.88 308.141 528.248 308.957 526.616 309.365C524.711 309.909 524.303 310.997 524.439 312.765C524.711 318.342 524.847 323.918 524.983 329.359C524.983 330.311 525.391 330.991 526.616 330.991C530.016 330.719 532.736 332.895 535.864 333.711C536.952 333.983 537.088 334.799 536.952 335.751C536.68 336.839 536 337.927 534.776 337.791C530.424 337.111 526.071 336.839 521.991 335.071C520.631 334.527 520.767 333.167 520.767 331.943C521.311 325.686 520.767 319.294 520.631 313.037C520.631 310.453 520.631 310.453 517.911 310.317C517.503 310.317 517.095 310.181 516.551 310.181C514.102 310.181 514.102 310.181 513.966 312.765C513.694 319.022 514.374 325.142 514.238 331.399C514.238 331.807 514.374 332.215 514.374 332.623C514.783 335.071 514.646 335.207 512.606 336.567C509.614 338.471 506.078 339.696 502.949 341.464C502.405 341.736 501.725 342.008 501.181 342.144C500.501 342.28 499.821 342.144 499.413 341.6C498.869 340.92 499.141 340.376 499.549 339.832C500.365 338.88 501.045 338.063 502.269 337.519C504.446 336.431 506.486 335.207 508.526 333.983C509.75 333.303 510.43 332.215 510.294 330.719C509.75 324.054 510.566 317.254 509.614 310.453C509.342 308.821 508.934 307.733 507.302 306.917C503.63 305.285 501.453 302.156 499.821 298.62C499.141 297.26 499.141 295.9 499.277 294.404C499.685 291.547 499.685 288.691 500.909 285.563ZM525.799 275.362C525.119 275.226 524.711 275.226 524.303 275.226C523.351 275.226 522.127 275.226 521.855 274.002C521.719 272.914 522.399 272.098 523.351 271.69C524.847 271.146 525.527 269.922 525.663 268.425C525.799 267.337 526.343 266.385 526.888 265.433C530.424 259.449 533.416 253.328 536.136 247.072C538.313 242.039 539.129 236.871 537.904 231.43C536 222.998 528.112 218.645 522.671 218.101C518.319 217.693 514.919 219.461 511.382 221.637C507.302 224.222 505.126 228.03 504.99 232.79C504.718 240.135 504.038 240.407 511.79 241.359C513.694 241.631 514.374 242.311 514.374 243.671C514.374 245.031 513.422 245.439 511.654 245.711C509.886 245.983 508.254 245.031 506.486 245.439C507.166 251.968 509.75 257.681 513.286 262.985C514.646 265.161 514.647 266.113 513.014 268.289C512.47 268.969 511.79 269.514 511.382 270.33C508.254 277.402 505.126 284.475 503.766 292.091C503.221 295.356 504.31 298.076 506.486 300.116C512.198 305.421 518.999 307.597 526.752 305.013C527.976 304.605 529.744 304.197 530.152 303.244C530.696 301.204 531.648 299.3 532.736 297.532C532.872 297.396 532.736 296.988 532.736 296.852C530.968 294.404 532.736 293.18 534.504 291.955C535.048 291.547 535.592 291.275 535.048 290.323C534.64 290.595 534.368 290.731 533.96 291.003C532.328 291.819 530.424 291.819 529.744 290.867C529.2 289.915 529.88 288.827 531.784 287.739C533.008 287.059 534.368 286.379 535.456 284.611C533.28 284.883 532.328 286.515 530.696 286.923C528.384 287.603 528.248 287.603 527.024 285.427C526.752 284.883 526.207 284.747 525.799 284.339C524.983 283.795 525.255 283.115 525.663 282.299C526.207 281.347 527.024 280.939 527.976 280.53C528.928 280.122 529.744 279.578 530.016 278.49C529.472 278.218 529.064 278.49 528.656 278.626C527.432 279.034 526.344 280.394 525.119 279.034C523.759 277.81 525.527 276.858 525.799 275.362Z" fill="#10100F"/>
<path d="M521.039 246.936C520.631 246.936 520.223 246.8 519.679 246.8C517.367 246.528 516.551 245.848 516.823 244.215C517.095 242.311 518.319 241.359 520.359 241.631C522.671 241.903 524.847 242.175 527.16 241.495C528.52 241.087 529.88 241.223 530.424 242.719C530.968 244.079 529.88 245.712 527.976 245.984C525.799 246.392 523.487 247.208 521.039 246.936Z" fill="#10100F"/>
<path d="M518.727 233.607C518.727 234.831 517.095 236.463 515.871 236.191C514.783 236.055 514.239 235.239 514.239 234.151C514.239 232.791 515.735 231.431 517.095 231.567C518.319 231.839 518.591 232.791 518.727 233.607Z" fill="#10100F"/>
<path d="M125.109 250.744C124.565 250.744 124.021 250.744 123.477 250.608C122.253 250.2 119.94 249.656 119.94 249.656C114.636 248.023 110.42 244.759 107.019 239.047C104.979 235.918 104.435 232.246 105.115 227.758C105.659 223.677 107.699 220.141 109.603 216.605L109.739 216.469C110.828 214.565 112.052 212.796 113.412 211.164C113.82 210.62 114.092 210.212 114.5 209.668C115.588 208.308 116.948 207.492 118.308 206.676L118.852 206.404C125.381 202.596 131.909 200.691 138.982 200.691C141.974 200.691 145.103 202.052 147.279 204.228C149.591 206.54 150.815 209.532 150.815 212.796C150.815 218.645 148.775 223.269 144.83 226.67C141.838 229.254 138.982 231.702 135.854 234.014C132.317 236.599 130.957 240.135 131.501 244.759C131.773 246.663 131.365 248.16 130.413 249.248C129.461 250.336 127.965 250.88 126.197 250.88L125.109 250.744ZM138.166 205.18C138.03 205.18 137.758 205.18 137.622 205.18C137.214 205.18 136.942 205.18 136.534 205.18C135.99 205.18 135.582 205.18 135.174 205.316C130.413 205.996 126.333 207.356 122.525 209.396C119.396 211.028 116.948 213.34 115.044 216.061C114.092 217.557 113.276 219.189 112.46 220.685C112.052 221.501 111.508 222.453 111.1 223.269C109.739 225.854 109.603 228.574 109.467 231.43V231.974C109.467 233.198 109.739 234.286 110.284 235.51C112.732 240.543 116.676 243.807 122.389 245.711C123.205 246.119 124.429 246.255 126.197 246.391C126.741 246.391 126.877 246.255 127.149 245.303C127.285 244.895 127.149 244.079 127.013 243.399C126.741 242.719 126.605 242.175 126.605 241.631C126.469 240.135 127.013 238.639 127.421 237.959C127.693 237.415 127.965 237.007 128.101 236.462C128.917 234.558 129.597 233.198 131.909 231.566C133.678 230.342 135.31 228.846 136.806 227.35C138.574 225.718 140.478 223.949 142.654 222.589C143.334 222.045 143.878 221.365 144.422 220.413L144.694 220.005C145.783 218.237 145.919 216.333 146.055 214.157V213.613C146.191 211.436 145.375 209.124 143.742 207.492C142.382 205.996 140.342 205.18 138.166 205.18Z" fill="#10100F"/>
<path d="M116.404 238.367C116.268 236.735 116.268 235.103 117.9 234.015C119.532 232.926 120.484 232.654 121.981 233.879C124.429 235.783 125.653 238.503 124.157 241.631C123.341 243.127 122.389 243.671 120.892 242.991C119.668 242.447 118.58 241.767 117.492 240.951C116.404 240.271 116.404 238.367 116.404 238.367ZM121.437 239.999C122.933 239.047 121.164 235.511 119.532 236.327C117.764 237.143 119.94 240.951 121.437 239.999Z" fill="#10100F"/>
<path d="M118.036 222.998C117.764 222.998 117.492 222.998 117.22 222.862H117.084C116.132 222.318 115.588 221.366 115.588 220.414C115.724 219.053 117.356 217.965 118.58 217.965C118.716 217.965 118.988 217.965 119.124 218.101C120.212 218.509 121.028 220.006 120.62 221.366C120.348 222.182 119.26 222.998 118.036 222.998Z" fill="#10100F"/>
<path d="M140.75 217.013C140.478 217.013 140.206 217.013 139.934 216.877H139.798C138.846 216.333 138.302 215.381 138.302 214.429C138.438 213.069 140.07 211.98 141.294 211.98C141.43 211.98 141.702 211.98 141.838 212.116C142.926 212.525 143.742 214.021 143.334 215.381C143.062 216.333 141.974 217.013 140.75 217.013Z" fill="#10100F"/>
<path d="M114.228 230.614C113.956 230.614 113.548 230.614 113.276 230.478C112.596 230.206 111.644 229.526 111.916 227.758C112.052 226.534 113.412 225.718 114.636 225.718C114.772 225.718 115.044 225.718 115.18 225.718C115.724 225.854 116.268 226.262 116.54 226.67C116.812 227.214 116.948 227.894 116.676 228.574C116.404 229.798 115.316 230.614 114.228 230.614Z" fill="#10100F"/>
<path d="M124.837 216.061C124.565 216.061 124.293 216.061 124.021 215.925C123.477 215.789 123.069 215.381 122.797 214.837C122.525 214.157 122.525 213.477 122.797 212.797C123.205 211.845 124.157 211.165 125.245 211.165C125.517 211.165 125.789 211.165 125.925 211.301C126.469 211.437 126.877 211.981 127.149 212.525C127.421 213.205 127.421 213.885 127.149 214.565C126.605 215.517 125.789 216.061 124.837 216.061Z" fill="#10100F"/>
<path d="M132.59 213.341C132.454 213.341 132.318 213.341 132.182 213.341C131.637 213.205 131.093 212.797 130.821 212.253C130.549 211.709 130.413 210.893 130.685 210.212C131.093 209.26 132.046 208.444 132.998 208.444C133.27 208.444 133.542 208.58 133.814 208.716C134.766 209.26 135.31 210.212 135.174 211.301C134.902 212.525 133.814 213.341 132.59 213.341Z" fill="#10100F"/>
<path d="M554.498 336.295C555.45 336.567 559.258 337.519 559.258 338.607C559.258 340.104 557.898 341.464 556.538 341.464C554.77 341.464 552.866 341.464 551.098 341.192C549.329 340.92 527.568 339.832 525.391 339.832C523.079 339.832 507.438 339.015 506.894 339.015C505.262 338.743 499.413 339.152 498.597 339.152C496.285 339.152 493.973 339.152 491.796 339.288C489.348 339.424 486.764 339.56 484.316 339.832C479.283 340.376 474.115 340.92 469.082 341.464C465.138 341.872 461.33 342.688 457.385 343.096C453.033 343.64 448.545 344.32 444.192 345C440.384 345.544 436.44 345.816 432.495 346.224C430.319 346.36 428.143 346.632 425.831 346.904C422.294 347.448 418.758 347.448 415.222 347.72C409.509 347.992 403.933 348.944 398.22 349.488C396.452 349.624 394.82 349.896 393.052 349.896C390.468 349.896 387.883 350.576 385.435 350.576C381.219 350.576 377.139 351.393 372.922 351.393C370.474 351.393 367.89 351.801 365.442 351.937C362.313 352.209 359.185 352.073 356.057 352.345C355.105 352.481 354.697 352.753 354.833 353.705C354.969 354.929 354.969 356.017 354.697 357.241C354.561 357.921 354.833 358.193 355.513 358.329C357.825 358.601 359.729 359.689 361.905 360.369C362.313 360.505 362.585 360.913 362.721 361.321C363.265 362.546 363.945 363.77 364.081 364.994C364.489 367.17 363.673 368.938 362.041 370.434C360.409 371.93 358.777 373.562 356.737 374.515C356.601 374.515 356.465 374.651 356.465 374.787C355.921 375.331 354.697 374.923 354.561 375.875C354.561 376.555 354.833 377.371 355.105 378.051C355.513 379.139 355.377 380.091 355.105 381.179C354.833 382.131 355.105 382.675 356.057 382.675C358.369 382.947 360.681 382.675 362.857 382.403C365.169 382.131 367.618 381.859 369.93 381.723C371.154 381.587 372.242 381.859 372.242 383.491C372.242 383.899 372.378 384.443 372.922 384.715C374.418 385.532 374.69 386.756 374.554 388.252C374.418 390.292 374.146 392.06 372.378 393.42C370.338 395.188 368.026 396.14 365.442 396.82C363.809 397.229 362.041 397.093 360.273 396.684C359.457 396.548 358.641 396.14 357.961 396.276C356.873 396.684 357.689 397.637 357.825 398.317C358.233 400.221 357.961 402.125 358.097 404.165C358.233 405.797 356.873 406.613 356.193 407.701C355.377 408.79 354.289 409.47 352.792 409.334C351.568 409.334 350.344 409.606 350.344 411.238V411.374C350.344 411.918 348.984 412.19 349.8 413.006C350.208 413.414 351.024 413.142 351.568 413.142C352.792 413.006 353.881 413.55 354.969 413.55C358.233 413.686 361.361 413.55 364.625 413.006C365.85 412.87 367.074 412.054 368.434 411.782C371.018 411.102 373.466 410.558 376.186 410.966C377.955 411.238 379.179 412.19 380.811 412.734C381.899 413.006 382.307 413.142 382.579 411.918C382.851 410.15 383.667 408.654 384.483 407.021C385.299 405.389 385.707 403.621 386.115 401.853C386.251 401.309 386.523 400.765 386.659 400.357C386.795 399.949 386.931 399.405 387.611 399.405C388.291 399.541 388.428 400.085 388.564 400.629C388.836 402.125 388.291 403.485 387.883 404.845C386.931 408.109 386.387 411.374 385.843 414.638C385.707 415.182 385.707 415.862 386.115 415.998C386.795 416.27 387.203 415.59 387.339 415.182C388.019 413.55 389.38 412.054 388.972 410.15C388.972 410.014 388.972 409.742 388.972 409.606C390.876 407.837 390.74 405.253 391.42 403.077C392.508 399.677 393.324 396.14 394.276 392.74C394.548 391.652 395.092 390.564 395.772 389.612C396.316 388.932 396.86 388.796 397.54 388.932C398.22 389.068 398.22 389.748 398.356 390.292C398.356 391.108 398.492 391.924 398.084 392.74C397.268 394.372 397.132 396.004 397.132 397.773C397.132 398.045 397.268 398.317 397.132 398.453C395.364 401.037 395.092 404.301 394.14 407.157C393.868 408.109 393.596 409.062 393.324 410.15C394.412 409.742 395.092 409.47 395.5 408.381C396.452 406.341 397.948 404.437 398.764 402.261C399.716 399.813 400.261 397.229 400.941 394.644C401.485 392.604 402.165 390.564 402.845 388.524C403.117 387.572 404.069 387.572 405.021 387.572C405.701 387.572 406.109 387.572 406.517 386.756C406.925 385.804 408.285 385.804 409.101 385.259C409.645 384.987 409.917 385.532 410.053 386.212C410.189 387.98 409.237 389.476 408.557 390.836C407.877 392.332 407.333 393.828 407.061 395.324C406.653 397.501 405.701 399.405 404.749 401.445C403.933 403.213 403.389 404.981 402.845 406.749C402.301 408.245 401.757 409.742 401.077 411.238C400.669 412.19 400.533 413.278 399.716 414.094C399.444 414.502 399.308 415.046 399.852 415.318C400.397 415.726 400.941 415.59 401.485 415.318C401.893 415.046 402.165 414.774 402.573 414.366C403.389 413.686 404.477 413.55 405.157 414.502C405.701 415.318 406.109 415.182 406.517 414.638C407.469 413.414 408.557 413.142 409.917 414.23C410.461 414.638 410.869 414.366 411.413 414.094C412.23 413.822 413.046 413.55 413.862 414.23C414.134 414.502 414.542 414.502 414.95 414.366C417.262 413.142 419.166 411.51 420.118 409.198C421.342 406.341 422.566 403.349 423.655 400.357C424.743 397.365 425.831 394.236 427.327 391.38C427.871 390.292 428.823 389.748 430.047 390.156C430.999 390.428 431.679 390.564 431.951 389.34C431.951 389.204 432.087 389.068 432.359 388.932C433.175 388.524 433.855 387.436 434.808 388.116C435.76 388.796 435.488 390.156 435.08 390.972C433.447 393.964 432.903 397.229 431.679 400.357C430.047 404.573 429.503 409.198 427.327 413.142C426.783 414.23 427.327 415.182 428.415 415.454C428.687 415.454 429.095 415.59 429.231 415.726C430.319 417.086 431.407 416.134 432.223 415.454C433.583 414.366 434.808 414.638 435.216 416.406C435.352 416.95 435.352 417.494 435.488 418.038C435.624 418.446 435.76 418.854 436.304 418.854C436.848 418.854 437.12 418.718 437.392 418.174C438.208 416.542 439.432 415.046 440.792 413.822C441.336 413.278 442.016 412.734 442.968 413.142C443.648 413.55 443.784 414.366 443.648 415.046C443.648 415.182 443.648 415.318 443.784 415.59C444.6 415.046 445.416 414.502 445.96 413.822C446.505 413.278 446.913 412.87 447.593 413.142C448.273 413.414 448.817 413.958 448.953 414.774C449.089 415.318 448.953 415.862 448.817 416.27C448.681 416.678 448.545 417.086 448.953 417.358C449.361 417.63 449.769 417.222 450.041 416.95C450.313 416.678 450.721 416.406 450.857 415.998C451.537 415.046 452.489 415.046 453.305 415.046C454.257 415.182 454.393 415.998 454.529 416.678C454.665 416.95 454.665 417.358 454.665 417.63C454.801 418.174 454.393 418.99 455.209 419.126C455.889 419.262 456.161 418.446 456.297 418.038C456.841 417.086 457.93 416.542 458.61 415.59C459.018 415.046 459.562 415.318 460.106 415.59C461.194 416.134 461.874 416.95 462.554 417.902C463.234 418.718 463.914 418.854 464.73 418.31C465.682 417.63 466.634 417.766 467.586 417.494C468.538 417.222 469.218 418.174 469.491 418.99C469.763 419.942 468.946 420.895 468.266 421.167C466.634 421.711 465.138 422.663 463.506 423.071C461.874 423.479 460.514 422.663 459.562 421.303C459.154 420.895 458.746 419.942 458.474 420.215C457.793 420.895 456.569 420.623 456.433 421.847C456.297 422.935 455.345 423.343 454.665 423.887C453.577 424.567 452.081 423.615 452.081 422.391C452.081 422.119 452.081 421.711 452.081 421.439C452.081 420.759 451.945 420.079 451.265 419.943C450.585 419.806 450.313 420.487 450.177 421.031C449.633 422.391 448.273 423.071 447.049 423.479C446.097 423.887 445.96 422.799 445.688 422.255C445.416 421.847 445.416 421.439 445.28 421.031C445.28 420.351 445.688 419.398 444.872 419.126C444.328 418.99 443.512 419.67 442.832 420.215C441.608 421.303 440.656 421.439 439.296 420.487C438.48 419.943 437.8 420.623 437.528 421.167C436.576 423.343 434.399 423.887 432.495 424.703C431.407 425.111 430.863 424.431 430.455 423.615C430.047 422.663 429.775 422.527 428.823 423.207C428.007 423.887 427.191 424.703 426.375 425.383C425.967 425.655 425.559 425.927 425.015 425.927C422.566 426.199 421.886 425.247 422.43 422.527C422.566 421.983 422.702 421.439 422.838 420.895C423.11 419.534 422.838 419.398 421.614 419.943C420.526 420.351 419.166 420.895 418.35 421.711C417.534 422.527 416.99 422.255 416.31 421.711C415.766 421.303 415.494 421.303 415.086 421.983C414.542 422.935 413.454 423.615 412.91 424.703C412.502 425.383 411.822 425.383 411.005 424.975C410.325 424.431 410.189 423.887 410.597 423.207C410.869 422.663 411.277 422.255 411.686 421.711C411.958 421.303 412.23 421.031 411.822 420.623C411.549 420.215 411.141 419.806 410.461 419.943C410.053 420.079 409.645 420.079 409.237 420.351C408.149 421.167 407.333 421.031 406.517 420.079C406.109 419.67 405.837 419.67 405.429 420.079C404.749 421.031 403.797 420.759 402.845 420.487C400.533 419.806 400.125 419.806 398.764 421.983C397.948 423.343 396.86 424.431 395.364 425.111C393.46 425.927 392.644 425.655 391.828 423.887C391.556 423.343 391.148 423.343 390.74 423.343C389.924 423.343 389.244 423.071 388.564 422.391C387.475 421.575 386.387 422.255 385.571 422.935C385.027 423.479 384.619 423.343 384.211 422.935C383.803 422.663 383.667 421.711 382.987 421.847C382.171 422.119 381.355 422.527 380.811 422.935C379.587 424.023 378.227 424.295 376.73 424.839C375.642 425.247 374.826 426.199 373.602 426.335C373.33 426.335 373.194 426.607 372.786 426.471C367.89 425.791 362.993 425.927 358.233 425.655C354.425 425.519 350.616 425.791 346.808 425.383C343.408 424.975 339.871 424.567 336.471 424.431C334.567 424.295 332.663 424.431 330.759 424.295C328.174 424.159 325.454 424.159 322.87 423.343C321.374 422.935 319.878 422.799 318.381 422.799C314.437 422.527 310.629 422.119 306.684 422.119C305.188 422.119 303.828 421.439 302.876 420.487C302.332 419.943 301.788 419.534 300.972 420.079C300.156 420.623 299.204 419.806 298.252 419.943C296.484 420.079 295.667 420.351 295.259 422.119C295.123 422.663 294.987 423.207 294.579 423.343C293.899 423.615 293.083 424.295 292.403 423.615C291.587 422.935 291.859 421.983 292.131 421.303C292.811 419.398 293.355 417.494 293.627 415.59C294.307 411.51 295.123 407.565 295.803 403.485C296.212 400.765 295.667 398.045 296.076 395.324C296.076 395.052 295.939 394.644 295.939 394.372C295.939 394.1 295.803 393.828 295.395 393.828C295.123 393.828 294.987 394.1 294.987 394.372C294.579 398.045 292.811 401.445 292.675 405.253C292.403 410.286 291.043 415.046 289.955 419.807C289.547 421.303 288.595 422.663 288.459 424.159C288.323 425.111 286.555 425.111 285.875 424.159C285.467 423.479 285.059 423.343 284.515 424.023C283.698 424.703 282.746 424.975 281.794 424.159C281.114 423.751 280.706 424.023 280.434 424.567C279.89 425.383 279.21 426.063 278.122 425.655C276.898 425.247 276.626 424.295 276.49 423.207C276.082 418.446 277.034 413.958 277.986 409.334C278.394 407.293 278.938 405.117 278.666 402.669C277.85 403.757 277.306 404.709 276.898 405.797C275.81 408.926 274.722 411.918 273.634 414.91C272.409 418.446 271.865 421.983 270.505 425.519C269.689 427.559 268.193 428.511 266.833 427.151C266.153 426.471 266.969 425.383 266.153 425.247C265.609 425.111 264.793 425.927 264.113 425.383C263.161 424.567 262.481 424.839 261.529 425.655C260.032 427.015 259.352 426.879 258.4 425.111C257.992 424.295 257.584 424.567 257.04 425.247C256.224 426.335 255.68 427.695 253.912 427.559C253.096 427.559 252.688 427.287 252.552 426.335C252.144 424.431 252.008 424.703 250.104 424.567C248.607 424.567 247.111 424.703 245.751 424.567C245.071 424.567 244.799 424.839 244.391 425.247C242.895 427.287 241.263 427.151 240.175 425.111C239.631 424.023 238.815 424.159 238.135 424.839C237.318 425.655 236.638 425.383 235.686 424.839C234.734 424.295 234.734 423.615 235.006 422.799C235.686 421.031 236.094 418.99 236.91 417.222C235.414 417.902 234.598 419.262 233.918 420.487C233.238 421.847 232.558 423.207 232.15 424.567C231.606 426.199 230.518 427.695 229.566 429.055C229.158 429.735 228.614 430.551 227.662 430.279C226.846 430.007 226.165 429.191 226.301 428.375C226.438 426.607 225.621 426.471 224.261 426.607C223.037 426.743 221.813 426.743 220.589 426.063C220.317 425.927 219.909 425.927 219.637 425.927C219.229 425.927 218.685 426.063 218.413 425.927C216.509 424.703 214.196 425.247 212.156 424.839C211.34 424.703 210.796 424.295 210.524 423.479C210.116 422.663 210.796 422.255 211.204 421.711C212.836 419.67 215.285 419.806 217.461 418.854C218.277 418.446 218.821 419.398 219.229 419.943C219.773 420.895 220.181 421.439 221.269 420.215C222.629 418.582 223.853 418.718 225.213 420.351C225.893 421.167 226.438 421.167 227.118 420.351C229.022 418.31 230.246 415.862 231.878 413.686C233.374 411.374 234.462 408.926 235.822 406.477C236.774 404.845 237.318 403.077 238.135 401.445C238.815 399.949 240.175 399.269 241.807 399.677C242.487 399.813 242.759 399.405 243.031 398.997C243.575 397.909 244.255 396.82 244.663 395.596C244.935 394.78 245.479 394.372 245.887 393.828C246.295 393.42 246.975 393.148 247.655 393.42C248.335 393.828 248.743 394.508 248.607 395.324C248.335 396.548 248.063 397.773 247.519 398.997C247.111 399.813 247.519 400.085 248.199 400.221C250.648 400.901 250.784 401.581 249.968 403.893C249.015 406.613 247.791 409.198 247.247 412.054C246.975 413.278 246.023 414.23 246.023 415.59C246.023 416.406 246.159 416.814 246.703 417.086C247.655 417.494 248.199 418.038 248.743 418.854C249.287 419.534 249.832 419.942 250.784 419.262C251.328 418.854 252.144 418.854 252.824 418.854C253.504 418.854 254.184 418.99 254.864 418.582C255.816 418.174 256.496 418.31 257.176 419.126C257.584 419.67 258.128 419.67 258.4 418.99C258.672 418.582 258.944 418.31 259.216 417.902C260.168 416.95 261.12 416.814 261.937 417.766C262.617 418.582 263.433 418.854 264.385 418.582C264.657 418.582 265.201 418.446 265.337 418.718C266.697 419.806 267.921 418.854 269.281 418.582C269.825 418.446 270.097 418.038 270.233 417.494C270.369 415.046 271.729 412.87 272.409 410.422C273.226 407.157 274.722 404.165 275.946 401.173C277.17 398.317 278.394 395.46 279.754 392.74C280.162 391.788 280.842 390.972 281.93 390.7C283.154 390.292 283.97 390.836 284.106 392.06C284.106 392.74 284.242 393.556 283.97 394.1C283.426 396.412 283.834 398.725 283.154 400.901C282.338 403.621 282.746 406.477 281.794 409.062C281.114 410.966 281.114 413.278 281.25 415.454C281.25 416.95 281.658 417.086 283.018 416.27C283.97 415.726 284.787 414.638 286.147 414.91C286.691 415.046 286.827 414.366 286.963 413.958C287.643 411.238 288.187 408.382 288.731 405.525C289.275 402.941 289.955 400.221 290.635 397.637C290.771 397.229 291.043 396.821 291.315 396.684C292.811 396.14 292.811 394.78 293.219 393.556C293.763 391.788 293.763 389.748 294.715 388.116C294.987 387.572 295.259 387.028 295.531 386.484C296.076 385.668 296.892 385.259 297.844 385.396C298.796 385.668 298.932 386.484 299.068 387.3C299.884 391.924 299.612 396.548 299.476 401.173C299.476 403.621 299.612 406.069 299.204 408.654C299.068 409.606 299.34 410.558 299.748 411.238C300.972 413.142 300.836 415.046 300.564 416.95C300.564 417.222 300.564 417.494 300.564 417.766C300.7 418.31 300.972 418.446 301.516 418.446C302.06 418.31 301.924 417.902 301.924 417.494C301.788 416.814 301.38 416.27 301.652 415.59C302.06 414.23 304.372 412.326 305.868 412.19C308.861 411.918 311.853 411.646 314.709 411.238C316.477 410.966 318.381 411.238 320.15 411.102C322.734 410.966 325.454 410.694 328.038 410.422C328.446 410.422 328.99 410.422 328.854 409.742C328.854 409.198 328.31 409.198 327.902 409.198C327.222 409.198 326.542 409.198 325.862 409.198C323.958 408.926 323.006 407.565 322.054 405.933C320.422 403.213 321.646 400.493 321.782 397.773C321.918 396.684 321.646 396.14 320.558 396.004C317.837 395.596 315.253 395.052 312.669 394.236C311.445 393.828 310.493 393.148 309.677 392.196C308.725 391.108 308.045 389.884 307.228 388.66C306.684 387.844 307.092 387.028 307.364 386.348C308.317 383.899 311.445 381.859 314.029 381.859C315.389 381.859 316.749 381.859 318.245 381.859C318.925 381.859 319.47 381.587 318.925 380.771C317.973 379.003 318.789 377.507 319.334 375.875C319.47 375.331 320.014 374.923 320.15 374.243C320.83 372.202 320.694 371.658 318.653 370.842C317.157 370.298 316.205 369.21 315.389 367.986C314.709 367.034 314.981 364.858 315.933 364.314C316.477 363.906 316.885 363.362 317.157 362.818C318.381 360.913 320.15 360.097 322.326 360.097C324.366 360.097 324.638 359.689 324.23 357.649C324.094 356.833 324.23 356.017 324.23 355.201C324.366 354.249 324.094 353.977 323.142 354.113C318.109 354.521 312.941 354.385 307.909 354.793C304.916 355.065 301.788 354.929 298.66 355.201C294.307 355.609 289.955 355.745 285.603 355.881C280.978 356.153 276.354 356.289 271.729 356.561C268.193 356.697 264.793 356.969 261.257 357.105C259.08 357.241 257.04 357.241 254.864 357.241C252.28 357.105 249.696 357.513 247.111 357.649C243.303 357.785 239.495 357.921 235.686 358.057C231.47 358.329 227.254 358.465 223.173 358.601C220.589 358.601 218.005 359.145 215.421 359.281C214.332 359.417 213.244 359.417 212.156 359.417C206.852 359.417 201.411 359.689 196.107 359.825C194.475 359.825 192 359.825 192 359.825C192 359.825 189.364 359.456 189.5 360C189.5 360.408 190.802 361.457 190.938 361.729C191.618 362.682 192.027 363.634 191.618 364.722C191.346 365.266 188.218 364.994 187.402 364.178C186.45 363.09 184.954 362.682 184.002 361.593C183.322 360.777 182.37 360.505 181.146 360.777C179.649 361.049 178.153 360.505 176.657 361.049C174.617 361.593 173.529 363.09 172.849 364.994C172.305 366.762 171.489 368.394 170.673 370.026C169.857 371.522 168.496 372.202 167.408 371.93C165.64 371.386 164.96 369.346 165.912 367.714C166.864 365.946 167.544 363.906 168.905 362.41C169.449 361.729 169.041 361.457 168.36 361.321C166.048 361.185 163.736 361.321 161.424 361.865C160.336 362.137 159.112 362.001 158.024 362.682C157.344 363.09 156.663 362.137 156.255 361.593C155.575 360.641 155.439 359.553 155.983 358.601C156.663 357.377 157.888 356.561 159.928 356.561C162.648 356.561 169.313 356.289 169.993 356.289C171.353 356.289 171.761 355.745 171.625 354.385C171.489 351.393 171.625 348.264 172.033 345.272C172.305 344.048 172.033 342.824 172.033 341.464C172.169 338.199 172.169 334.935 171.897 331.671C171.761 330.039 171.353 328.407 169.585 327.454C167.68 326.366 166.048 324.87 164.96 322.83C164.96 322.694 164.824 322.694 164.824 322.558C164.416 321.878 163.872 320.79 163.192 320.926C162.24 321.062 162.648 322.286 162.512 322.966C162.104 325.822 161.832 328.543 162.648 331.399C162.92 332.079 162.784 332.895 162.784 333.575C162.648 335.071 160.744 336.295 159.384 336.023C158.296 335.751 157.616 335.071 157.48 333.847C157.344 332.487 157.888 331.127 157.888 329.903C157.752 327.318 158.296 324.87 158.16 322.286C158.024 318.886 158.704 315.485 159.112 312.085C159.656 307.733 160.744 303.652 161.288 299.3C161.424 298.484 161.696 297.668 162.24 296.852C162.92 295.764 163.464 294.676 163.464 293.316C163.464 292.091 164.144 291.139 164.824 290.323C167.136 287.195 167.136 284.203 165.368 280.938C164.416 279.034 162.376 274.138 162.24 273.594C161.152 270.874 160.2 268.153 159.656 265.297C159.112 262.713 158.976 260.129 158.976 257.544C158.976 256.048 158.84 254.416 159.248 252.92C159.928 250.2 160.336 247.344 162.376 245.167C163.464 243.943 164.144 242.311 165.64 241.359C166.456 240.815 167.408 240.271 168.36 240.135C168.36 240.135 169.177 239.727 169.721 239.455C170.265 239.183 172.305 238.231 173.665 238.095C177.473 237.959 180.738 239.183 184.002 240.951C186.858 242.583 188.232 244.052 190 246.5C191.904 249.356 192 254 192.027 256.864C192.053 259.729 190.5 266.5 190.5 266.5C190.5 266.5 189.578 269.922 188.898 271.826C188.082 273.866 187.538 275.906 186.042 277.674C185.09 278.762 184.546 280.394 183.458 281.619C183.05 282.027 183.05 282.843 183.458 283.523C184.002 284.339 184.274 285.291 184.818 286.107C186.042 288.147 187.266 290.323 188.082 292.635C188.218 292.908 188.218 293.044 188.354 293.316C189.986 294.812 190.122 296.852 190.666 298.892C191.074 300.66 191.482 302.428 192.027 304.196C192.707 306.781 193.115 309.365 193.795 311.949C194.203 313.853 195.019 315.621 195.699 317.526C196.787 320.382 196.923 323.374 198.011 326.23C198.827 328.543 199.779 330.719 200.323 333.167C200.459 333.983 200.867 334.935 200.323 335.479C199.371 336.431 198.011 336.975 196.651 337.111C195.699 337.111 194.883 336.295 195.019 335.207C195.427 330.447 193.115 326.366 192.163 322.014C192.027 321.606 191.891 321.062 191.482 321.062C191.074 321.062 190.938 321.47 190.802 321.878C189.986 323.238 189.034 324.598 188.354 325.958C187.674 327.046 187.13 328.135 185.906 328.679C185.09 329.087 184.954 329.767 184.954 330.583C185.226 334.935 185.09 339.288 185.634 343.64C186.042 347.176 186.178 350.713 186.722 354.249C186.858 355.201 187.538 355.473 188.354 355.337C190.394 355.201 192.571 355.065 194.611 354.929C203.179 354.657 211.884 354.521 220.453 353.977C225.213 353.705 229.974 353.569 234.87 353.297C240.039 352.889 245.071 352.889 250.24 352.753C255 352.617 259.624 352.617 264.385 352.209C270.777 351.665 277.306 351.393 283.698 350.985C292.131 350.44 300.428 350.304 308.861 349.76C315.525 349.352 322.326 349.216 328.99 348.808C332.663 348.536 336.335 348.264 339.735 346.496C341.095 345.816 342.728 345.816 343.952 346.768C344.768 347.312 345.72 347.584 346.536 347.448C350.344 347.04 354.289 347.04 358.097 346.904C361.905 346.768 365.85 346.224 369.658 346.088C377.683 345.952 385.571 344.728 393.46 344.32C398.764 344.048 404.069 343.368 409.373 342.824C414.95 342.144 420.39 341.736 425.967 341.6C430.727 341.328 435.488 340.376 440.248 340.104C445.688 339.696 450.993 338.879 456.297 338.199C459.698 337.791 462.826 336.975 466.226 336.567C470.987 336.023 475.747 334.935 480.643 334.935C482.684 334.935 484.86 334.527 486.9 334.255C489.756 333.983 492.476 333.711 495.333 333.575C496.693 333.439 502.405 333.303 503.357 333.303C506.622 333.439 509.886 333.167 513.15 333.031C513.558 333.031 520.087 333.575 520.767 333.575C525.255 333.575 535.048 334.663 535.728 334.663C534.64 335.343 552.866 335.887 554.498 336.295ZM188.5 253.5C188.372 251.28 185.368 247.564 184.002 246C182.636 244.436 175.161 241.767 169.313 244.759C167.136 245.983 164.688 247.752 164.008 250.064C163.328 252.376 162.92 253.192 162.784 254.552C162.24 258.633 162.376 262.713 163.736 266.657C164.688 269.377 165.912 272.234 166.864 274.954C167.68 277.13 168.36 279.578 170.129 281.347C170.401 281.619 170.265 281.891 170.401 282.163C170.673 283.931 171.625 285.699 170.401 287.603C167.952 288.283 170.129 289.643 170.129 289.779C171.081 291.955 167.136 291.139 168.496 293.18C168.496 293.18 170.265 293.86 170.401 294.812C170.673 295.764 168.224 296.716 166.864 297.94C166.456 298.348 167.68 300.252 167.816 300.66C168.36 302.428 167.816 303.244 165.912 303.38C165.64 303.38 165.096 303.108 164.96 303.652C164.96 304.06 165.504 304.06 165.776 304.196C166.048 304.196 166.32 304.332 166.592 304.332C167.952 304.605 169.041 306.373 168.36 307.597C167.816 308.413 168.088 308.821 168.496 309.501C169.041 310.453 169.177 311.541 168.224 312.221C167.544 312.765 167.68 313.173 168.088 313.717C168.905 314.533 168.769 315.621 168.088 316.438C166.864 317.662 168.088 317.662 168.769 317.662C170.265 317.662 170.945 318.342 171.081 319.838C171.217 320.79 171.761 321.334 172.849 321.606C174.073 321.878 174.889 322.558 175.161 323.782C175.433 324.87 175.977 325.142 177.065 325.278C178.833 325.55 180.356 325.5 181.356 325.278C182.356 325.057 182.61 325.044 183.5 324.5C184.39 323.956 187.138 320.742 187.818 319.246C188.634 317.342 189.994 315.574 189.858 313.125C189.722 310.677 189.306 309.312 188.898 307C188.626 305.504 187.682 303.196 187.41 301.836C187.138 300.068 186.458 298.436 186.186 296.804C185.778 294.492 184.282 292.724 183.194 290.683C182.105 288.643 181.153 286.467 179.385 284.835C178.705 284.155 178.705 283.339 179.249 282.251C180.337 280.074 181.969 278.17 183.33 275.994C185.098 273.274 185.914 270.282 186.866 267.425C187.41 265.657 187.546 263.481 187.954 261.577C188.362 258.857 188.628 255.72 188.5 253.5ZM330.078 392.196C332.527 392.332 334.975 391.924 337.423 392.196C338.783 392.332 340.143 392.196 341.503 392.06C344.496 391.924 347.488 392.196 350.344 392.196C352.112 392.196 353.881 392.196 355.785 392.06C356.601 392.06 357.553 391.788 358.369 392.196C359.457 392.74 360.681 392.876 361.905 392.876C364.217 392.876 366.666 393.012 368.298 390.972C368.842 390.428 369.658 389.884 369.25 388.932C368.706 387.708 367.89 386.348 366.53 386.348C364.489 386.212 362.449 386.62 360.273 386.892C357.825 387.164 355.377 387.572 352.928 387.572C351.976 387.572 351.024 386.892 349.936 386.892C345.856 387.164 341.911 387.436 337.831 387.572C335.519 387.708 333.071 387.844 330.759 388.252C328.174 388.66 325.454 387.98 322.734 387.708C319.198 387.3 315.797 386.892 312.261 387.3C310.629 387.572 310.357 387.844 311.037 389.34C311.445 390.156 312.125 390.836 313.077 391.244C316.341 392.604 319.878 392.876 323.414 392.74C325.726 392.74 327.902 391.924 330.078 392.196ZM350.48 371.522C353.608 371.658 355.513 370.978 358.097 368.802C360.001 367.306 359.865 365.266 357.553 364.314C354.561 363.09 351.568 362.001 348.304 361.729C348.032 361.729 347.624 361.729 347.352 361.865C344.088 362.682 340.823 363.226 337.423 363.498C331.983 363.906 326.406 363.362 321.102 364.858C320.15 365.13 319.606 365.81 319.198 366.626C318.789 367.306 319.606 367.85 320.286 368.258C321.374 369.074 322.598 369.618 323.822 369.754C325.998 369.89 328.31 370.162 330.486 369.754C334.023 369.074 337.287 369.482 340.687 369.89C341.367 370.026 342.32 369.754 342.864 370.026C345.448 371.386 348.304 370.978 350.48 371.522ZM373.738 420.759C375.778 420.895 377.411 419.806 377.819 418.038C377.955 417.63 377.683 417.494 377.275 417.358C376.05 416.95 374.962 416.406 373.738 415.998C373.33 415.862 372.922 415.862 372.786 416.27C372.106 417.766 370.474 417.766 369.386 417.63C365.85 417.086 362.721 418.446 359.321 418.582C357.689 418.582 356.057 419.67 354.425 418.718C353.064 417.902 351.568 418.038 350.072 418.174C349.12 418.31 348.168 418.31 347.216 418.31C342.32 418.174 337.423 417.358 332.391 416.95C330.486 416.814 328.446 416.406 326.406 416.542C324.638 416.678 322.87 415.726 321.238 416.542C319.334 417.358 317.293 417.358 315.661 417.086C312.805 416.678 310.221 417.766 307.501 417.63C307.228 417.63 306.956 417.63 306.956 418.038C306.956 418.31 307.228 418.446 307.501 418.446C309.269 418.31 310.901 419.126 312.805 418.99C315.797 418.854 318.653 419.262 321.51 419.67C323.686 419.943 325.862 420.215 328.038 420.351C332.663 420.487 337.423 420.623 342.047 421.167C348.984 421.983 355.921 421.983 362.857 422.119C363.945 422.119 365.033 422.255 366.122 422.391C368.162 422.663 370.338 423.343 371.97 421.303C372.514 420.759 373.058 420.623 373.738 420.759ZM350.48 404.981C351.16 404.845 352.112 405.253 352.792 404.573C353.745 403.485 353.609 402.125 353.472 400.901C353.336 399.949 352.656 399.269 351.568 399.133C351.024 399.133 350.616 398.725 350.344 398.317C349.936 397.909 349.392 397.637 348.712 397.501C346.944 397.229 345.176 396.821 343.272 396.957C341.639 396.957 340.007 396.684 338.511 397.365C337.695 397.773 336.607 397.637 335.655 397.365C335.247 397.229 334.975 397.229 334.567 397.365C332.527 397.909 330.35 398.453 328.174 398.861C326.406 399.133 324.91 399.949 324.638 401.989C324.366 403.621 325.454 405.797 326.95 405.933C328.582 406.069 330.214 406.341 331.847 405.933C335.111 405.253 338.375 404.845 341.639 404.709C344.36 404.709 347.352 404.845 350.48 404.981ZM343.272 382.131C344.904 382.403 346.536 382.131 348.168 381.859C349.12 381.723 350.208 381.451 350.208 380.227C350.208 379.139 349.664 378.323 348.304 378.051C347.08 377.779 345.856 377.371 344.632 377.235C343.68 377.235 343 376.827 342.456 376.147C342.047 375.603 341.503 374.515 341.095 374.515C339.735 374.515 338.375 373.835 336.879 374.379C334.431 375.195 331.847 376.283 329.126 375.739C327.222 375.331 325.454 376.419 323.55 376.147C323.278 376.147 323.006 376.283 322.87 376.555C320.966 378.051 321.102 379.411 323.142 380.771C324.774 381.723 326.542 381.995 328.31 382.403C331.303 383.083 334.295 383.491 337.423 382.947C339.327 382.403 341.231 381.587 343.272 382.131ZM339.327 359.145C342.728 358.873 345.584 358.193 348.44 357.513C349.8 357.105 350.208 355.745 349.256 354.929C348.032 353.977 346.808 353.161 345.04 353.297C339.735 353.705 334.431 353.977 329.126 354.385C328.31 354.385 327.902 355.337 327.494 355.881C327.222 356.425 327.494 357.105 328.038 357.513C328.582 358.057 329.262 358.329 329.942 358.601C333.207 359.689 336.471 358.329 339.327 359.145ZM183.221 354.385C183.221 354.249 183.221 351.257 183.221 350.849C182.541 346.224 182.813 341.6 182.405 337.111C182.269 334.935 182.269 332.895 181.997 330.719C181.861 329.495 177.065 330.583 176.113 330.447C175.569 330.311 175.161 330.583 175.161 331.263C175.161 333.303 175.161 335.479 175.161 337.519C175.161 339.288 175.297 340.92 175.161 342.688C174.889 345.408 174.753 348.128 174.753 350.849C174.753 352.209 175.297 353.569 174.889 355.065C174.753 355.609 175.025 355.881 175.569 356.017C178.289 356.561 183.085 357.377 183.221 354.385ZM339.871 411.918C340.959 411.782 342.184 412.19 343.272 411.646C343.816 411.374 344.36 410.966 344.36 410.286C344.224 409.606 343.544 409.742 343.136 409.606C341.367 409.062 339.599 409.742 337.831 409.878C337.151 409.878 336.471 409.878 335.791 410.422C335.519 410.558 335.111 410.558 335.111 410.966C335.247 411.374 335.519 411.51 335.927 411.51C337.151 412.054 338.511 411.782 339.871 411.918Z" fill="#10100F"/>
<path d="M170.313 257.353C170.041 257.353 169.769 257.353 169.497 257.217H169.361C168.408 256.673 167.864 255.721 167.864 254.769C168 253.408 169.633 252.32 170.857 252.32C170.993 252.32 171.265 252.32 171.401 252.456C172.489 252.864 173.305 254.36 172.897 255.721C172.625 256.537 171.537 257.353 170.313 257.353Z" fill="#10100F"/>
<path d="M179.289 257.353C179.017 257.353 178.745 257.353 178.473 257.217H178.337C177.385 256.673 176.841 255.721 176.841 254.769C176.977 253.408 178.609 252.32 179.833 252.32C179.969 252.32 180.241 252.32 180.377 252.456C181.465 252.864 182.282 254.36 181.874 255.721C181.601 256.537 180.513 257.353 179.289 257.353Z" fill="#10100F"/>
</svg>
