<svg width="664" height="460" viewBox="0 0 664 460" fill="none" xmlns="http://www.w3.org/2000/svg">
<path d="M272.31 257.533C272.742 258.236 273.554 257.966 274.149 258.128C276.368 258.561 276.422 258.561 275.177 260.779C274.799 261.483 274.853 261.699 275.664 261.807C277.179 262.078 276.909 262.998 276.043 263.593C274.961 264.35 273.716 264.891 272.418 265.595C273.392 266.19 274.312 265.973 275.231 266.028C275.664 266.028 276.476 265.973 276.476 266.352C276.53 268.084 277.342 269.166 278.857 269.869C278.911 269.869 278.802 270.572 278.586 270.735C277.774 271.546 276.963 272.358 275.61 272.196C274.69 272.087 273.771 272.087 272.851 272.087C270.254 272.087 270.199 272.087 269.875 269.544C268.739 260.346 268.198 251.148 269.117 241.842C269.821 234.7 277.396 226.367 286.486 228.099C288.109 228.423 289.461 229.019 290.706 230.155C295.684 234.537 297.902 239.84 297.523 246.603C297.361 249.363 297.848 252.284 298.118 255.098C298.605 259.805 298.443 264.513 298.497 269.166C298.497 270.951 298.66 272.574 300.391 273.657C301.527 274.36 301.527 275.55 301.473 276.741C301.311 281.556 300.391 286.263 298.876 290.862C296.062 299.574 293.519 308.339 290.922 316.888C292.275 318.403 294.06 316.725 295.521 318.294C293.682 319.322 291.842 319.485 289.948 319.322C289.083 319.214 288.866 318.619 288.866 317.862C288.866 316.834 289.083 315.806 289.407 314.832C292.491 306.337 294.493 297.518 296.441 288.698C297.036 285.885 297.631 283.125 297.848 280.258C297.956 278.58 297.199 278.472 295.846 278.364C294.223 278.201 293.79 278.797 293.844 280.258C294.277 290.213 290.111 299.195 288.109 308.663C286.864 314.507 284.105 319.864 283.347 325.761C283.293 326.086 283.185 326.465 282.969 326.735C282.211 327.547 282.59 329.603 281.345 329.386C279.83 329.116 281.129 327.438 280.858 326.41C280.696 325.761 280.75 325.058 280.696 324.3C279.019 325.815 278.261 330.198 278.64 335.446C280.371 335.987 282.049 335.176 283.618 334.851C295.521 332.687 307.641 331.388 319.22 327.655C327.39 325.004 335.56 322.407 342.81 317.591C345.191 316.022 349.898 313.317 349.898 313.317C349.898 313.317 355.255 310.287 356.012 308.718C357.149 306.337 357.852 303.794 358.664 301.305C360.774 294.596 364.94 289.185 369.539 284.045C371.379 281.989 372.731 279.608 374.733 277.66C379.332 273.17 385.068 271.005 391.128 269.544C398.27 267.813 405.466 268.029 412.446 270.356C418.776 272.412 422.618 277.011 424.457 283.342C425.485 286.75 426.08 290.159 425.431 293.784C423.429 304.119 417.748 311.152 407.738 314.453C402.328 316.238 396.051 313.533 393.021 310.124C391.398 308.339 390.911 305.85 390.749 303.415C390.641 301.954 391.29 300.98 392.697 300.602C393.887 300.277 395.294 301.467 395.618 302.928C395.727 303.469 395.781 304.064 395.781 304.66C395.781 307.04 396.701 308.718 398.973 309.8C402.057 311.261 405.033 312.072 408.442 310.557C411.201 309.313 413.744 308.014 416.071 306.066C421.806 301.359 424.295 290.538 421.536 283.991C419.155 278.472 415.8 274.089 409.199 272.737C403.951 271.655 398.757 271.168 393.616 272.304C387.448 273.657 381.28 275.388 376.898 280.366C372.785 285.073 368.186 289.51 364.886 294.92C363.912 296.49 363.154 298.113 362.505 299.844C359.962 306.662 357.419 313.533 354.66 320.242C352.874 324.517 352.333 329.17 349.953 333.282C347.085 338.26 343.514 342.696 339.889 347.133C338.211 349.189 337.995 350.001 335.181 353.464C332.314 357.955 323.981 366.179 322.142 368.668C318.733 373.158 314.296 375.647 308.777 377C306.776 377.487 304.449 377.595 302.934 378.461C299.796 380.246 296.387 380.409 293.087 381.112C287.73 382.248 282.59 382.411 274.907 382.898C273.5 382.735 273.825 382.302 272.418 382.789C271.173 383.222 269.875 383.439 268.035 383.222C272.526 380.571 277.179 380.192 281.724 379.759C286.161 379.327 290.544 378.677 294.926 377.758C301.148 376.459 307.046 374.349 312.944 372.239C314.026 371.86 315 371.265 315.865 370.453C318.787 367.748 321.817 365.151 323.981 361.688C328.797 355.844 331.881 353.41 335.452 348.973C340.754 342.372 346.219 335.987 348.979 327.655C350.439 323.272 352.279 318.944 353.686 314.02C348.167 319.16 341.404 321.379 335.506 325.004C334.099 325.869 332.206 326.573 330.637 327.222C319.761 331.551 307.1 333.931 303.908 334.743C300.77 335.554 288.92 337.556 285.62 337.34C283.347 337.178 280.534 336.42 278.694 338.584C278.315 339.017 277.774 339.017 277.504 338.693C276.314 337.34 274.907 337.989 273.662 338.368C267.548 340.099 261.272 341.56 254.941 341.56C252.885 341.56 239.683 342.534 223.506 343.67C217.337 344.103 211.223 343.779 205.109 343.346C203.161 343.238 202.566 344.049 202.566 345.618C202.458 348.486 202.242 351.354 202.837 354.167C202.945 354.708 203.161 355.303 203.107 355.844C202.999 356.818 202.566 357.63 201.43 357.63C200.294 357.63 200.294 356.764 200.24 355.898C200.186 352.706 199.645 349.514 199.753 346.268C199.807 343.941 199.536 343.779 197.264 343.508C196.723 343.454 196.128 343.508 195.587 343.508C189.31 343.616 182.98 343.887 176.703 343.725C170.319 343.562 163.88 343.129 157.496 342.696C151.977 342.318 146.674 341.073 141.209 340.37C137.638 339.883 134.392 338.422 131.146 337.015C130.55 336.799 130.118 336.041 129.252 336.528C129.685 337.502 130.334 338.476 131.254 338.638C134.067 339.125 136.448 340.695 139.099 341.56C141.372 342.264 141.751 342.642 141.913 345.077C141.967 345.618 142.183 346.213 142.075 346.754C141.913 347.837 142.346 348.161 143.374 348.161C144.672 348.161 146.35 347.566 145.863 350.055C145.7 350.921 146.62 350.65 147.107 350.65C148.514 350.596 150.353 349.893 149.866 352.598C149.758 353.139 150.245 353.355 150.732 353.355C150.84 353.355 150.949 353.355 151.057 353.41C152.247 353.626 153.924 352.544 154.628 353.788C155.494 355.357 154.736 357.089 153.6 358.712C155.007 359.199 157.225 358.387 157.387 360.93C157.387 361.039 158.524 361.363 158.956 361.201C162.419 359.794 165.99 360.443 169.453 360.768C173.511 361.147 177.407 360.227 181.465 360.281C184.873 360.281 185.956 360.822 186.551 364.285C186.767 365.692 187.254 366.016 188.444 365.962C196.019 365.529 203.594 365.638 211.115 365.529C217.175 365.421 223.235 365.097 229.295 364.772C230.81 364.664 232.92 365.367 232.974 362.554C232.974 361.796 233.948 361.742 234.651 361.742C235.355 361.742 235.788 362.229 235.788 362.77C235.788 364.826 237.032 364.772 238.547 364.718C245.906 364.664 253.156 363.852 260.514 363.419C269.117 362.932 277.612 361.742 286.161 361.039C289.57 360.768 292.978 360.119 296.333 359.415C298.01 359.037 299.742 358.928 301.419 358.766C302.285 358.712 303.421 358.604 303.583 359.902C303.746 361.039 302.772 361.417 301.906 361.742C300.932 362.121 299.958 362.445 298.93 362.554C292.654 363.149 286.431 364.014 280.155 364.664C273.771 365.313 267.386 366.071 261.001 366.449C255.753 366.774 250.505 366.936 245.256 367.802C243.471 368.072 241.631 367.802 239.792 367.748C238.439 367.694 237.627 368.018 236.924 369.425C235.788 371.698 234.922 371.644 233.948 369.425C233.353 368.018 232.433 367.964 231.243 367.964C226.103 368.127 220.962 368.181 215.822 368.397C210.412 368.668 205.055 368.668 199.699 368.451C195.749 368.289 191.691 368.83 187.741 369.046C186.334 369.1 185.793 369.858 185.739 371.265C185.739 373.645 185.901 376.134 184.278 378.136C183.521 379.056 184.441 379.597 184.711 380.301C185.09 381.329 185.793 380.571 186.388 380.463C187.687 380.301 188.823 379.814 189.797 381.599C190.555 382.898 192.665 382.789 194.288 382.789C197.156 382.844 200.023 382.844 202.891 382.789C208.193 382.681 213.442 383.276 218.636 383.98C219.772 384.142 220.908 384.304 222.045 384.088C229.565 382.627 237.14 383.98 244.661 383.601C247.853 383.439 275.448 380.409 278.64 380.084C279.235 380.03 280.155 379.759 280.372 380.679C280.534 381.491 279.722 381.707 279.073 381.978C275.827 383.276 248.07 386.577 244.607 386.523C237.411 386.36 230.215 386.956 223.019 387.118C217.5 387.226 188.336 387.118 177.082 381.761C173.403 380.246 169.453 379.489 165.72 378.028C163.285 377.108 161.175 375.701 159.497 373.862C156.197 370.237 152.842 366.612 150.029 362.554C149.055 361.147 147.919 359.848 146.674 358.658C144.564 356.764 142.779 354.762 139.749 353.951C137.043 353.193 134.825 350.812 133.256 348.54C129.739 343.454 125.41 338.909 122.218 333.661C118.431 327.493 114.427 321.541 110.369 315.535C107.447 311.315 105.229 306.607 101.982 302.549C99.4933 299.411 96.6256 296.922 93.271 294.92C88.672 292.161 83.8565 292.594 79.4739 295.732C76.8226 297.68 74.7125 300.006 72.8188 302.604C67.8951 309.15 69.8429 316.671 73.5762 322.136C76.0651 325.707 79.6903 327.871 84.4517 327.655C89.7541 327.438 92.6759 324.95 93.4334 319.701C93.6498 318.24 93.6498 316.725 93.6498 315.264C93.5957 312.884 92.243 311.206 90.2411 310.07C88.9966 309.367 87.698 309.042 86.5618 310.449C85.8043 311.423 84.6681 312.072 83.7483 310.828C82.9367 309.746 83.5319 308.609 84.5058 307.798C86.1831 306.499 87.9145 305.742 90.187 306.607C93.8121 307.96 96.4092 311.261 96.6798 315.102C96.9503 318.619 95.8682 321.92 94.786 325.166C93.9203 327.817 91.6478 329.332 88.9425 330.09C81.2594 332.2 72.7647 328.521 69.8429 321.27C69.3019 320.026 68.8149 318.727 68.3279 317.429C66.2719 311.802 66.7047 306.499 70.1676 301.413C71.7908 299.033 73.5763 296.814 75.6323 294.812C81.8546 288.806 89.2131 288.698 96.6798 293.514C102.415 297.193 106.365 302.549 109.665 308.339C111.884 312.234 114.427 315.86 116.97 319.539C118.701 322.082 120.811 324.408 122.272 327.114C122.813 328.034 123.354 329.224 124.923 328.683C125.519 328.466 126.114 328.683 126.222 329.386C126.384 331.064 127.791 331.551 128.927 332.254C135.474 336.312 142.724 338.206 150.353 338.963C155.115 339.45 159.93 339.558 164.638 340.803C167.83 341.668 171.293 341.181 174.593 340.965C181.357 340.586 188.12 341.127 194.883 341.019C196.236 341.019 197.643 340.965 198.995 341.073C200.131 341.127 200.673 340.64 200.889 339.612C201.43 337.178 201.917 334.689 202.566 332.254C203.703 327.817 205.001 323.435 206.191 318.998C206.462 317.97 206.841 317.05 207.382 316.184C209.871 312.072 211.386 307.473 213.279 303.036C213.983 301.359 213.225 300.169 212.468 298.924C209.871 294.542 207.923 289.943 207.057 284.911C205.542 276.416 207.76 269.22 214.74 263.809C220.151 259.589 227.185 258.831 232.325 267.542C234.976 272.087 235.95 277.011 234.922 282.422C234.056 286.804 233.136 291.133 231.73 295.353C231.459 296.219 231.189 297.085 230.81 297.95C228.592 303.036 229.187 304.984 232.812 309.15C235.95 312.721 239.359 315.751 243.741 317.699C246.609 318.998 249.098 319.431 251.479 316.888C252.398 315.914 253.751 315.319 254.833 314.507C257.863 312.235 259.162 309.042 259.649 305.363C260.839 296.489 262.625 287.778 266.033 279.5C266.412 278.526 266.791 277.606 267.278 276.686C269.496 272.412 270.091 272.304 274.69 274.143C280.696 276.578 286.81 277.282 293.087 274.847C295.251 273.981 296.333 272.737 296.387 270.248C296.441 260.941 296.008 251.689 294.872 242.491C294.331 238.163 291.95 234.7 288.271 232.481C284.754 230.371 281.183 231.453 277.883 233.401C276.151 234.375 275.069 236.107 273.77 237.513C273.338 238 272.688 238.92 273.067 239.353C274.474 240.922 273.013 242.653 273.608 244.168C273.987 245.142 273.121 245.521 272.688 246.17C271.498 247.848 271.714 248.551 273.716 249.579C274.907 250.174 274.907 250.824 273.933 251.581C273.554 251.852 273.121 252.014 272.743 252.23C272.31 252.501 272.039 252.826 272.201 253.367C272.364 253.908 272.797 254.016 273.284 254.016C273.716 254.016 274.257 253.962 274.636 254.07C275.61 254.395 275.935 255.044 275.069 255.855C274.636 256.234 274.149 256.559 273.716 256.883C273.013 257.046 272.472 256.992 272.31 257.533ZM213.279 341.56C217.013 341.723 220.259 341.56 223.56 341.127C225.345 340.857 226.427 340.153 227.401 338.747C231.351 333.228 232.271 327.006 231.73 320.459C231.297 315.048 230.431 309.8 226.373 305.633C224.912 304.173 224.966 302.225 225.832 300.493C228.105 296.003 229.782 291.295 231.026 286.372C232.379 280.961 232.541 275.821 230.323 270.627C229.187 267.921 227.293 266.082 224.804 264.837C222.694 263.809 220.53 263.647 218.257 264.783C213.388 267.218 209.167 274.089 209.438 280.041C209.762 287.508 212.738 293.946 217.554 299.574C219.015 301.305 219.123 301.251 217.5 303.199C215.822 305.201 215.173 307.311 216.526 309.746C217.013 310.611 216.796 311.261 215.822 311.639C213.766 312.397 212.847 314.399 211.44 315.86C210.736 316.617 210.195 317.645 211.764 318.294C212.738 318.673 212.468 319.377 211.981 319.918C211.386 320.621 210.736 321.216 209.817 321.595C209.438 321.757 209.384 322.028 209.654 322.515C210.358 323.11 211.764 322.082 212.251 323.435C211.764 324.517 211.115 325.545 210.195 326.356C212.197 327.979 212.197 327.98 210.249 329.278C209.708 329.603 208.897 329.657 208.789 330.577C209.762 331.172 211.548 329.765 211.927 331.496C212.251 332.903 210.358 332.524 209.817 333.336C209.708 333.498 209.654 333.715 209.546 333.931C210.52 334.31 212.63 333.661 212.36 335.013C211.981 336.799 213.009 336.799 213.82 337.556C215.119 338.638 215.011 340.153 213.279 341.56ZM230.593 340.37C234.597 340.045 238.385 339.829 242.064 339.396C246.717 338.801 251.37 338.26 256.078 338.314C262.408 338.422 268.63 337.773 274.744 336.095C275.285 335.933 275.989 335.879 275.989 335.176C275.989 334.472 275.34 334.364 274.744 334.31C272.742 333.985 271.823 332.849 271.66 330.793C271.552 329.278 270.741 328.25 268.901 328.466C268.36 328.521 267.819 328.25 267.278 328.034C266.141 327.547 265.384 327.979 264.572 328.791C263.003 330.306 261.434 331.821 260.785 333.985C260.623 334.526 260.298 335.122 259.54 334.797C258.999 334.526 258.783 333.931 259.054 333.336C259.324 332.741 259.649 332.092 260.027 331.496C260.406 330.901 260.731 330.36 260.244 329.657C258.783 327.276 259.162 324.841 260.136 322.407C261.326 319.539 261.218 316.671 260.569 313.371C257.755 317.375 259.378 322.731 255.104 326.681C255.428 322.677 257.863 319.755 257.052 315.914C254.833 318.078 251.803 318.673 250.505 321.487C250.018 322.569 249.152 322.461 248.178 322.298C245.473 321.811 242.876 320.946 240.441 319.593C238.385 318.457 236.275 317.321 233.84 315.968C234.056 320.405 234.273 324.354 234.11 328.304C234.056 332.524 231.351 335.825 230.593 340.37ZM163.285 363.528C162.906 366.557 164.367 368.776 164.313 371.157C164.313 372.888 165.287 373.321 166.694 373.321C171.293 373.267 175.838 373.591 180.383 374.078C181.843 374.241 182.439 373.7 182.493 372.185C182.547 370.183 182.385 368.127 183.467 366.179C184.116 364.934 182.926 363.582 181.302 363.582C175.405 363.527 169.453 363.528 163.285 363.528ZM276.53 330.36C276.963 326.519 278.153 323.597 279.398 320.675C280.804 317.375 278.478 314.236 278.802 310.936C278.911 309.908 278.857 308.88 278.857 307.852C278.857 307.527 278.694 306.878 278.694 306.878C276.259 307.311 277.233 305.796 277.774 304.984C280.696 300.602 281.237 295.353 283.131 290.646C283.726 289.185 283.564 287.724 282.644 286.317C283.023 289.239 281.832 291.728 280.426 294.055C277.342 299.249 275.881 304.984 274.582 310.774C274.312 312.018 273.879 313.046 274.636 314.291C275.015 314.94 274.744 315.86 274.474 316.617C273.825 318.565 273.716 320.675 273.446 322.677C273.121 325.437 273.987 327.817 276.53 330.36ZM281.67 316.022C283.888 312.289 285.079 308.826 286.161 305.363C286.269 304.93 287.243 303.253 285.133 303.902C284.484 304.119 284.592 303.361 284.808 302.928C285.187 302.062 285.512 301.197 285.944 300.439C288.163 296.544 287.784 292.486 286.918 288.265C286.107 288.698 285.89 289.293 285.836 289.78C285.133 293.892 283.239 297.572 281.886 301.467C280.263 305.958 280.155 310.665 281.67 316.022ZM277.071 281.989C277.179 282.584 276.963 283.179 276.53 283.558C274.528 285.235 274.041 287.616 273.608 289.997C273.067 292.918 272.31 295.786 271.282 298.6C270.632 300.439 269.767 302.333 269.929 305.038C273.175 298.978 275.772 293.243 277.774 287.345C279.073 283.558 279.398 279.716 275.123 277.282C274.853 277.119 274.744 276.741 274.312 276.849C273.987 280.799 274.257 281.34 277.071 281.989ZM276.422 295.84C275.935 296.003 275.772 296.435 275.556 296.814C273.392 300.602 271.985 304.714 270.686 308.826C269.388 312.992 267.115 317.05 268.306 321.649C268.414 322.028 268.089 322.244 267.927 322.515C266.52 325.382 266.845 325.923 270.254 326.14C270.524 325.599 270.362 325.058 270.199 324.517C268.847 321.216 269.442 317.97 270.849 314.94C273.446 309.205 274.041 302.82 276.584 297.085C276.746 296.652 276.746 296.219 276.422 295.84ZM262.408 311.315C263.49 311.531 263.382 310.665 263.598 310.07C265.276 305.417 265.492 300.439 267.007 295.732C267.927 292.81 268.468 289.834 269.334 286.263C263.544 292.486 262.029 301.413 262.408 311.315ZM267.711 306.932C267.386 307.094 267.061 307.148 267.007 307.257C265.113 310.611 264.789 314.399 263.815 318.024C263.653 318.727 264.031 319.485 264.735 319.647C265.6 319.918 265.871 319.052 266.087 318.457C267.224 314.723 267.224 310.828 267.711 306.932ZM205.326 331.713C205.055 331.713 204.839 331.713 204.568 331.659C204.406 334.418 203.486 337.015 202.891 339.667C202.62 340.803 203.161 341.019 204.081 341.236C205.813 341.614 206.137 340.37 206.083 339.342C206.029 336.799 205.65 334.256 205.326 331.713ZM265.925 285.452C267.927 283.071 269.334 280.258 270.037 277.119C268.089 279.554 266.304 282.097 265.925 285.452ZM263.653 322.515C263.22 324.084 262.57 325.437 261.651 326.681C261.272 327.222 261.488 328.034 262.192 328.412C262.841 328.737 263.166 328.088 263.49 327.709C264.735 326.14 264.572 324.408 263.653 322.515ZM291.463 286.913C292.383 284.424 292.708 282.746 291.409 280.42C290.814 282.692 291.031 284.424 291.463 286.913ZM268.793 297.463C267.927 298.546 267.656 299.465 268.035 300.71C269.009 299.736 269.226 298.816 268.793 297.463ZM282.482 320.837C283.185 319.593 283.672 318.565 283.456 316.942C282.265 318.24 282.049 319.322 282.482 320.837ZM177.569 377.92C178.489 377.974 179.463 378.786 180.437 377.758C179.409 377.433 178.489 377.271 177.569 377.92Z" fill="#10100F"/>
<path d="M244.715 207.322C243.038 207.971 242.118 208.458 241.144 208.729C238.926 209.27 237.248 207.647 237.573 205.482C237.952 202.723 242.064 198.448 244.823 197.853C247.042 197.366 248.503 198.394 249.422 200.288C255.645 195.581 256.564 188.168 259.703 182C260.352 185.03 259.108 192.388 253.859 198.989C253.426 199.693 247.691 206.889 246.717 210.893C245.905 214.193 243.849 216.845 242.713 219.929C242.389 220.794 241.469 221.281 240.441 221.065C239.25 220.794 238.872 219.929 238.763 218.792C238.655 217.656 239.25 216.845 239.9 216.033C241.793 213.598 243.038 210.785 244.715 207.322ZM240.82 205.374C242.497 205.32 243.849 204.779 245.094 204.021C246.176 203.318 246.068 202.182 245.527 201.37C245.04 200.613 244.012 200.937 243.417 201.424C242.28 202.344 241.036 203.372 240.82 205.374Z" fill="#ED5454"/>
<path d="M402.003 291.187C401.949 293.027 401.029 294.055 399.244 294.163C397.35 294.271 395.781 292.648 395.889 290.7C395.997 288.86 397.079 287.995 398.865 287.995C400.705 288.049 402.057 289.401 402.003 291.187Z" fill="#10100F"/>
<path d="M293.195 254.99C293.249 256.234 292.383 256.559 291.463 256.613C290.598 256.667 289.84 256.342 289.786 255.314C289.678 254.07 290.435 253.312 291.572 253.258C292.546 253.15 293.141 253.908 293.195 254.99Z" fill="#10100F"/>
<path d="M284.267 253.475C285.241 253.421 285.728 253.908 285.728 254.882C285.782 256.072 285.349 256.883 284.05 256.938C283.077 256.992 282.536 256.288 282.481 255.477C282.427 254.34 282.968 253.529 284.267 253.475Z" fill="#10100F"/>
<path d="M225.399 280.961C226.698 280.907 227.618 281.664 227.672 282.8C227.726 284.153 227.077 285.127 225.94 285.235C224.858 285.343 223.668 284.261 223.56 283.017C223.506 281.989 224.317 281.015 225.399 280.961Z" fill="#10100F"/>
<path d="M220.422 283.558C220.422 284.532 219.718 285.344 218.366 285.452C217.121 285.56 216.255 284.64 216.255 283.288C216.255 281.881 217.283 280.961 218.69 281.069C219.826 281.177 220.422 281.881 220.422 283.558Z" fill="#10100F"/>
<path d="M148.947 341.29C150.245 339.126 146.836 338.693 149.109 337.286C150.137 336.637 149.704 335.663 149.975 334.797C149.109 334.635 148.622 335.122 148.189 335.5C147.594 336.041 146.891 336.474 146.133 336.745C145.159 337.069 144.564 336.637 144.51 335.609C144.51 334.743 144.672 333.823 145.376 333.228C145.863 332.795 146.349 332.47 146.999 331.983C146.241 331.28 145.43 330.955 144.51 330.901C143.644 330.847 143.211 330.36 143.103 329.549C142.995 328.629 143.536 328.034 144.348 327.763C144.889 327.601 145.43 327.547 145.971 327.438C146.728 327.276 147.648 327.33 147.594 326.14C147.54 325.112 146.728 325.166 146.025 325.058C144.943 324.895 143.806 324.733 142.724 324.571C142.346 324.517 141.913 324.517 141.534 324.354C140.885 324.138 140.506 323.597 140.56 322.894C140.614 322.244 141.155 322.028 141.75 321.92C142.778 321.757 143.806 321.595 144.835 321.433C145.159 321.379 145.484 321.324 145.484 320.892C145.484 320.513 145.213 320.351 144.889 320.242C144.402 320.134 143.969 320.026 143.482 319.972C142.183 319.755 141.101 318.89 140.885 317.808C140.56 316.293 139.694 315.697 138.396 315.264C137.855 315.048 137.476 314.669 137.206 314.128C136.286 312.343 136.935 310.99 139.045 310.503C138.883 309.15 138.504 307.96 137.422 306.986C137.097 306.716 136.827 306.229 136.719 305.742C136.286 304.227 136.881 303.632 138.396 303.956C139.045 304.119 139.64 304.768 140.452 304.443C140.885 303.74 140.614 302.928 140.668 302.171C140.722 301.684 140.722 301.197 140.831 300.764C140.993 300.169 141.48 299.844 142.075 299.844C142.778 299.898 142.941 300.493 142.941 301.034C142.941 302.063 142.887 303.091 142.887 304.119C142.887 304.497 142.941 304.93 143.59 305.201C144.023 304.443 144.51 303.686 144.943 302.874C145.321 302.225 145.754 301.576 146.566 301.846C147.486 302.171 147.323 302.928 147.107 303.632C147.053 303.794 147.107 304.01 147.107 304.389C147.648 303.848 148.081 303.361 148.568 302.982C148.947 302.658 149.488 302.658 149.866 303.036C150.191 303.361 150.191 303.74 150.083 304.119C150.029 304.173 150.029 304.281 149.975 304.335C149.812 304.876 148.838 305.255 149.488 305.958C150.137 306.662 150.732 306.229 151.381 305.796C151.706 305.579 152.139 305.634 152.518 305.525C152.734 305.471 153.005 305.471 153.221 305.363C153.383 305.255 153.546 304.93 153.492 304.768C152.896 303.415 154.682 302.333 153.979 301.034C153.329 299.844 152.68 298.816 154.357 297.842C154.952 297.518 154.303 296.652 154.195 296.057C154.087 295.462 153.979 294.866 154.628 294.596C155.277 294.271 155.656 294.758 155.98 295.245C157.279 297.031 158.848 298.546 160.471 300.006C161.012 299.411 160.796 298.978 160.525 298.6C159.173 296.706 158.686 294.379 157.387 292.432C157.171 292.107 157.008 291.728 156.9 291.349C156.413 289.618 156.9 288.861 158.848 288.265C158.469 287.346 158.091 286.372 157.658 285.452C157.441 284.965 157.225 284.424 157.225 283.883C157.279 283.45 157.495 283.125 157.928 283.017C158.253 282.963 158.523 283.179 158.686 283.504C159.768 285.181 160.85 286.859 161.932 288.482C162.149 288.806 162.203 289.239 162.852 289.293C162.96 288.319 162.69 287.454 162.419 286.588C161.553 283.774 160.742 280.961 159.822 278.147C159.66 277.606 159.443 277.065 160.147 276.741C160.796 276.47 161.175 276.849 161.553 277.336C162.581 278.58 162.96 280.203 164.042 281.394C164.8 281.177 164.637 280.528 164.692 280.041C164.908 278.202 165.016 276.416 165.179 274.576C165.233 274.089 165.179 273.494 165.828 273.548C166.369 273.548 166.585 274.089 166.585 274.576C166.639 275.063 166.639 275.55 166.585 275.983C166.585 276.741 166.531 277.228 167.613 277.282C168.533 277.282 168.371 278.634 169.02 279.5C169.615 278.634 170.102 277.823 170.643 277.119C171.022 276.632 171.509 276.416 172.104 276.632C172.808 276.903 172.699 277.498 172.483 278.039C172.158 278.688 171.996 279.284 172.321 280.095C172.699 281.069 171.888 281.718 171.401 282.422C170.102 284.099 169.128 285.939 168.046 288.428C169.615 287.724 170.319 286.804 171.13 286.047C171.509 285.722 171.78 285.344 172.104 285.019C172.483 284.64 172.97 284.532 173.403 284.911C173.836 285.289 173.782 285.776 173.565 286.209C173.349 286.804 172.754 287.183 172.375 287.67C171.347 288.806 169.832 289.618 170.102 291.566C170.156 291.999 169.399 292.161 169.399 292.973C170.102 292.54 170.752 292.161 171.347 291.782C171.834 291.512 172.267 291.566 172.645 291.945C173.024 292.377 172.916 292.864 172.483 293.189C171.293 294.163 170.481 295.462 169.237 296.327C167.613 297.463 166.423 299.087 164.908 300.439C164.475 300.872 164.151 301.413 164.096 302.279C166.152 301.034 167.505 299.249 169.128 297.788C169.345 297.572 169.507 297.301 169.724 297.031C170.102 296.598 170.589 296.219 171.184 296.598C171.834 297.031 171.617 297.68 171.293 298.275C170.86 299.033 170.427 299.79 170.048 300.602C168.587 301.359 168.587 301.359 169.399 302.982C168.1 304.119 167.559 305.688 166.91 307.203C166.802 307.473 166.91 307.635 167.072 307.798C167.289 308.014 167.613 307.906 167.667 307.744C168.209 306.175 169.669 304.876 169.345 303.036C169.994 302.333 169.994 301.467 169.994 300.548C171.239 300.493 171.671 299.465 171.942 298.491C172.483 296.652 173.619 295.353 174.918 294.001C176.974 291.782 179.192 289.726 181.356 287.67C183.088 286.047 184.062 283.991 185.414 282.097C185.955 281.34 185.577 280.582 185.414 279.825C184.819 276.849 186.28 275.388 189.202 275.875C190.609 276.091 191.745 277.011 191.961 278.147C192.178 279.338 191.041 281.664 189.797 281.773C187.741 281.989 186.767 283.342 185.955 284.857C184.062 288.265 181.032 290.646 178.218 293.189C176.974 294.325 176.324 295.245 176.866 297.031C177.353 298.6 177.082 300.331 176.811 302.008C176.595 303.307 176.757 304.497 176.757 305.742C177.569 305.85 177.515 305.255 177.623 304.822C178.272 302.225 178.759 299.519 179.084 296.868C179.192 296.057 179.03 294.812 180.274 294.92C181.573 295.029 181.086 296.219 181.032 297.031C180.707 300.602 179.95 304.119 178.922 307.852C180.545 307.203 181.789 306.499 182.439 305.092C183.142 303.577 184.062 302.171 184.386 300.493C184.44 300.331 184.44 300.169 184.495 300.061C184.873 299.303 185.144 298.221 186.28 298.546C187.525 298.924 186.929 299.898 186.659 300.71C186.334 301.738 186.388 302.874 185.739 303.794C186.605 304.335 187.146 303.794 187.741 303.686C188.607 303.469 189.418 303.253 190.338 303.361C190.933 303.415 191.474 303.632 191.528 304.281C191.637 305.038 191.312 305.525 190.609 305.742C189.364 306.012 188.228 306.445 187.2 307.257C187.741 308.014 188.553 308.068 189.094 308.447C189.797 308.934 190.068 309.529 189.743 310.287C189.364 311.098 188.661 310.774 188.12 310.449C186.929 309.692 185.685 309.529 184.008 310.124C185.469 311.044 186.767 311.207 188.066 311.477C188.715 311.585 189.31 311.748 189.635 312.397C190.068 313.317 189.581 314.399 188.661 314.345C187.092 314.236 185.739 315.697 184.116 314.94C183.683 314.778 183.467 315.156 183.412 315.643C183.304 316.779 182.493 316.942 181.519 316.942C178.543 316.942 175.783 318.078 172.862 318.619C172.537 318.673 172.267 318.836 172.267 319.431C175.188 319.106 178.002 318.727 180.815 317.916C181.519 317.699 182.439 316.996 182.926 317.97C183.467 318.944 182.601 319.701 181.789 319.972C180.545 320.351 180.491 321.433 180.058 322.244C179.03 324.03 178.002 325.761 177.136 327.655C178.705 327.222 179.787 326.086 180.924 325.058C182.06 324.03 183.142 323.056 184.332 322.082C184.711 321.757 185.198 321.487 185.631 321.866C186.172 322.298 186.01 322.839 185.685 323.38C184.927 324.517 183.845 325.491 183.412 327.168C185.252 325.923 186.875 324.841 188.553 323.759C189.094 323.38 189.743 322.677 190.446 323.38C191.15 324.03 190.609 324.679 190.176 325.274C190.013 325.545 189.797 325.815 189.905 326.14C190.879 325.869 191.799 325.328 192.881 325.437C193.422 325.491 194.071 325.382 194.234 326.14C194.342 326.735 194.071 327.222 193.53 327.547C192.719 327.98 191.853 328.412 190.933 328.845C193.043 330.252 193.747 330.631 191.204 332.362C192.07 333.011 192.881 333.607 193.693 334.202C194.396 334.689 195.424 335.176 194.613 336.204C193.855 337.178 193.043 336.42 192.34 335.933C191.474 335.338 190.609 334.797 189.635 334.202C189.148 334.851 189.851 335.717 189.04 336.15C188.282 336.528 187.633 336.15 186.984 335.987C185.252 335.5 183.521 334.959 181.843 334.472C182.06 334.689 182.384 334.959 182.547 335.284C182.763 335.717 182.817 336.204 182.384 336.582C182.006 336.907 181.627 336.745 181.248 336.582C178.867 335.392 176.325 334.797 173.836 333.877C172.97 333.553 172.158 333.336 171.455 334.364C172.808 335.067 174.323 335.338 175.621 336.096C176.325 336.528 176.974 336.961 177.569 337.448C178.326 337.989 178.976 338.693 178.435 339.667C177.839 340.803 176.757 340.316 175.892 339.991C174.81 339.558 173.727 339.017 172.645 338.476C172.212 338.26 171.834 337.989 171.076 338.206C171.455 338.909 172.104 339.558 172.104 340.316C172.104 340.965 171.996 341.614 171.238 341.831C170.427 342.047 170.427 341.398 170.21 340.911C169.669 339.721 167.505 338.693 166.207 338.909C165.72 339.017 165.611 339.342 165.666 339.775C165.72 340.37 167.235 341.29 167.667 341.614C168.858 342.697 164.962 342.967 161.121 342.967L152.788 342.264L148.947 341.29ZM172.05 312.559C172.97 310.72 174.972 298.816 174.701 297.139C173.565 298.221 173.619 299.79 172.862 300.926C171.78 302.549 171.725 304.281 171.942 306.175C172.158 308.285 172.321 310.395 172.05 312.559ZM165.828 330.901C169.128 329.603 172.429 328.358 175.134 325.978C171.617 326.843 168.425 328.304 165.828 330.901ZM149.866 317.212C151.544 316.184 150.516 313.1 153.383 313.858C153.329 312.992 153.329 312.18 153.275 311.423C153.221 310.882 152.788 310.611 152.355 310.503C151.922 310.395 151.544 310.72 151.435 311.098C150.786 312.992 150.029 314.886 149.866 317.212ZM150.678 339.071C152.572 339.829 153.978 340.154 155.493 339.991C156.467 339.883 156.63 339.18 156.576 338.476C156.576 337.665 155.818 337.827 155.331 337.827C153.816 337.719 152.409 338.152 150.678 339.071ZM188.174 333.877C187.47 332.254 186.172 332.038 185.09 331.442C183.304 330.468 183.304 330.523 181.789 331.334C183.467 333.12 185.739 333.336 188.174 333.877ZM161.77 296.976C162.311 294.758 161.608 293.405 159.389 292.215C160.093 293.838 160.742 295.299 161.77 296.976ZM155.493 311.964C155.71 313.046 156.359 313.641 156.954 314.236C157.225 314.453 157.495 314.561 157.82 314.399C158.253 314.182 158.307 313.75 158.145 313.371C157.766 312.18 157.008 311.477 155.493 311.964ZM169.345 314.615C169.561 312.884 169.561 311.423 169.399 309.692C167.722 311.91 167.722 311.91 169.345 314.615ZM160.634 315.048C161.77 313.587 163.664 312.776 164.583 310.882C162.365 311.693 161.121 313.1 160.634 315.048ZM189.905 279.067C190.176 278.634 190.122 278.256 189.689 278.039C188.985 277.606 187.633 277.823 187.308 278.418C187.092 278.797 187.146 279.175 187.525 279.446C188.228 279.825 189.581 279.608 189.905 279.067ZM155.493 335.122C153.492 334.526 153.492 334.526 152.572 335.987C153.546 335.554 154.628 335.933 155.493 335.122ZM153.005 307.96C153.546 309.259 154.465 309.475 155.493 309.583C154.898 308.772 154.303 308.014 153.005 307.96ZM163.826 324.679C163.068 325.653 162.96 326.627 163.555 327.817C164.637 326.735 163.988 325.707 163.826 324.679ZM149.055 311.044C148.351 311.585 147.919 312.235 147.864 313.046C148.568 312.505 149.217 312.018 149.055 311.044ZM149.163 320.08C148.838 320.134 148.406 320.242 148.297 320.621C148.189 321 148.406 321.433 148.838 321.541C149.379 321.649 149.434 321.162 149.542 320.837C149.65 320.513 149.596 320.242 149.163 320.08ZM155.764 318.89C155.223 318.294 154.628 317.753 153.492 317.753C154.249 318.565 154.79 319.16 155.764 318.89ZM146.512 316.617C146.458 316.888 146.566 317.05 146.782 317.158C147.215 317.375 147.486 317.266 147.702 316.834C147.864 316.509 147.756 316.184 147.432 316.13C147.107 316.076 146.728 316.293 146.512 316.617ZM161.662 318.998C161.77 318.727 161.716 318.349 161.391 318.24C161.012 318.132 160.688 318.457 160.417 318.781C160.147 319.16 160.417 319.431 160.688 319.485C161.121 319.647 161.499 319.485 161.662 318.998ZM149.758 309.259C150.516 309.15 150.786 308.826 150.84 308.339C150.84 308.231 150.678 308.014 150.624 308.014C149.975 308.122 149.812 308.609 149.758 309.259ZM153.492 325.815C153.87 326.41 154.357 326.573 155.007 326.194C155.169 326.086 155.223 325.978 155.061 325.815C154.574 325.274 154.033 325.274 153.492 325.815ZM167.667 336.474C168.209 337.124 168.75 337.178 169.561 337.34C168.966 336.745 168.533 336.528 167.667 336.474Z" fill="#10100F"/>
<path d="M83.9006 151.895C84.4973 152.521 85.4812 152.048 86.0444 152.698C86.3711 153.087 86.6771 153.875 86.4084 153.926C84.8748 154.268 84.7832 156.355 83.798 156.54C82.1523 156.867 82.6716 157.741 82.5633 158.59C82.3493 160.862 81.6901 161.292 79.8692 160.014C78.9588 159.375 78.7145 159.889 78.2686 160.404C77.7447 161.025 77.1635 161.35 76.5114 160.86C75.8594 160.371 76.3388 159.831 76.5605 159.285C76.9929 158.25 77.9401 157.082 76.0999 156.491C75.8531 156.43 75.8621 155.942 76.0741 155.74C77.2121 154.627 76.5375 154.105 75.6161 153.522C75.0091 153.096 74.2784 152.567 74.812 151.603C75.379 150.615 76.2419 150.615 77.1066 151.046C79.0493 151.996 80.8155 151.052 82.458 150.005C82.9161 149.721 83.1481 148.976 83.8666 149.273C84.585 149.57 84.3414 150.228 84.1758 150.781C84.1552 151.181 84.0224 151.566 83.9006 151.895Z" fill="#10100F"/>
<path d="M49.7405 143.591C49.2106 144.084 49.548 144.825 49.0181 145.319C48.7116 145.596 48.0534 145.909 48.018 145.77C47.7757 144.632 46.1514 144.824 46.0571 144.071C45.8722 142.836 45.1664 143.348 44.4373 143.384C42.6016 143.455 42.2937 143.022 43.4131 141.498C43.9807 140.704 43.5935 140.601 43.1452 140.324C42.6712 140.01 42.4304 139.583 42.8418 139.011C43.2532 138.439 43.6857 138.782 44.1144 138.855C44.956 139.066 45.8111 139.65 46.3614 138.211C46.409 138.012 46.8279 137.982 46.9721 138.097C47.8212 138.85 48.2741 138.248 48.8002 137.483C49.1286 136.972 49.623 136.339 50.3657 136.677C51.1499 136.984 51.0842 137.689 50.7083 138.4C49.8418 140.013 50.5799 141.23 51.3339 142.381C51.5649 142.706 52.1279 142.791 51.8509 143.375C51.5739 143.959 51.0523 143.844 50.6236 143.772C50.262 143.705 50.0092 143.615 49.7405 143.591Z" fill="#10100F"/>
<path d="M83.1488 115.187C82.9704 115.735 83.5424 116.097 83.336 116.605C83.2399 116.914 82.8663 117.364 82.7823 117.246C82.167 116.556 81.0011 117.222 80.6235 116.779C79.9522 116.011 79.6625 116.58 79.1488 116.833C77.8438 117.48 77.4117 117.315 77.6142 115.914C77.6806 115.208 77.347 115.271 76.9293 115.215C76.442 115.15 76.1212 114.965 76.1884 114.438C76.2557 113.911 76.7013 114.006 77.0766 113.914C77.7855 113.758 78.6905 113.879 78.4625 112.67C78.4201 112.521 78.6977 112.38 78.8786 112.368C79.7979 112.598 79.9068 112.041 79.9732 111.336C80.0268 110.879 80.1077 110.282 80.7614 110.227C81.4847 110.18 81.6815 110.635 81.7399 111.25C81.7879 112.649 82.82 113.215 83.8242 113.742C84.117 113.888 84.5755 113.735 84.6195 114.241C84.6635 114.747 84.2186 114.83 83.9129 114.932C83.6353 115.074 83.4129 115.116 83.1488 115.187Z" fill="#10100F"/>
<path d="M49.0552 107.999C49.5982 108.142 49.9988 107.553 50.4722 107.688C50.7784 107.764 51.183 108.068 51.0862 108.198C50.3802 108.889 51.0246 109.974 50.5536 110.375C49.7364 111.087 50.3633 111.349 50.5879 111.843C51.2052 113.068 51.0125 113.506 49.594 113.459C48.8847 113.436 48.9279 113.763 48.8463 114.181C48.7927 114.637 48.572 115.036 48.0434 115.002C47.5149 114.967 47.5965 114.549 47.5253 114.183C47.411 113.49 47.5462 112.615 46.31 112.915C46.1572 112.966 45.9893 112.729 46.0301 112.52C46.2484 111.586 45.7199 111.551 45.0386 111.567C44.5381 111.572 43.9816 111.498 43.9648 110.853C43.92 110.169 44.4054 109.877 45.0307 109.782C46.4204 109.61 47.0554 108.553 47.6207 107.486C47.7863 107.187 47.6592 106.742 48.1453 106.628C48.6595 106.554 48.689 106.95 48.8434 107.257C48.9977 107.563 49.0264 107.781 49.0552 107.999Z" fill="#10100F"/>
<path d="M531.688 77.2928C531.915 75.9318 531.612 74.9488 531.537 73.8147C531.385 72.6049 531.537 72.4537 532.671 72.1512C532.973 72.0756 533.351 72 533.654 72C537.359 72.0756 540.988 72.0756 544.693 72.6049C545.071 72.6805 545.449 72.7561 545.827 72.9073C548.7 74.1171 551.573 75.2513 554.22 76.8391C554.976 77.2928 555.656 77.8977 556.337 78.5025C557.093 79.183 558 79.6367 558.908 80.0904C559.966 80.544 560.117 80.9221 559.664 81.905C558.983 83.3416 558.303 84.7782 557.471 86.1392C556.034 88.4832 555.354 91.1296 554.295 93.6247C554.22 93.8516 554.144 94.154 554.069 94.4564C551.725 99.2955 551.422 104.513 550.817 109.654C550.515 112.452 550.515 115.174 550.817 117.971C550.969 119.484 551.573 120.92 552.556 122.054C553.086 122.659 553.237 123.491 553.615 124.172C554.673 126.062 556.186 127.65 557.32 129.54C557.925 129.313 558.53 128.859 559.059 128.633C561.63 127.574 564.427 127.272 566.922 128.557C568.888 129.54 570.022 131.355 570.098 133.623C570.174 135.891 569.493 137.933 567.981 139.672C567.074 140.655 566.242 141.562 565.183 142.394C562.764 144.284 559.966 144.813 557.017 144.284C554.749 143.83 553.993 141.864 553.312 139.974C552.934 138.84 552.934 137.63 553.312 136.421C553.539 135.74 553.615 135.06 553.842 134.455C554.371 132.867 553.842 131.733 552.632 130.75C552.027 130.22 551.725 129.616 551.573 128.859C551.271 127.574 550.742 126.515 549.759 125.684C549.078 125.154 548.7 124.398 548.473 123.567C548.247 122.659 547.793 121.903 547.037 121.298C546.054 120.467 545.449 119.257 544.617 118.198C542.878 116.006 540.685 114.871 537.888 114.72C533.2 114.418 528.588 114.418 523.9 114.72C522.312 114.796 520.8 115.325 519.288 115.703C517.624 116.157 515.885 116.459 514.222 117.064C511.802 117.971 509.761 119.181 508.626 121.676C508.475 121.979 508.324 122.281 508.097 122.584C507.492 123.264 506.812 123.264 506.509 122.432C505.526 119.786 504.014 117.367 503.636 114.493C503.485 113.208 503.863 111.998 503.636 110.788C503.56 110.335 504.014 109.957 504.392 109.73C504.921 109.352 505.451 109.049 505.98 108.671C506.887 107.991 506.887 107.991 506.131 106.932C505.602 106.101 505.375 105.118 505.451 104.059C505.602 101.337 506.585 98.8419 507.492 96.3467C508.4 93.7759 509.307 91.2052 510.517 88.7856C511.575 86.5929 513.163 84.8539 514.6 82.9636C516.188 80.9221 518.078 79.2586 520.119 77.7464C521.783 76.5367 523.371 75.3269 525.185 74.4196C525.714 74.1927 526.244 73.9659 526.773 73.8147C527.983 73.5122 528.966 73.8147 529.722 74.8732C530.327 75.7049 530.629 76.6879 531.688 77.2928ZM553.312 85.6856C553.237 85.1563 553.539 84.7782 554.069 84.8539C554.447 84.8539 554.447 85.3831 554.447 85.6856C554.598 86.6685 554.371 87.7271 554.371 89.0881C555.581 86.7441 556.564 84.7782 557.622 82.8124C557.849 82.3587 558 81.905 557.471 81.6026C555.354 80.166 553.539 78.3513 551.195 77.2928C549.532 76.5367 547.793 76.0074 546.129 75.2513C544.995 74.722 543.786 74.4195 542.5 74.3439C539.929 74.1927 537.283 74.1171 534.712 73.9659C534.258 73.9659 533.956 74.1171 533.578 74.1927C533.124 74.2683 532.973 74.5708 533.124 74.9488C533.654 76.2342 533.049 77.5196 533.276 78.805C533.351 79.3343 533.351 79.8635 532.822 80.166C532.293 80.4684 531.839 80.0904 531.461 79.7123C530.402 78.805 529.571 77.7464 528.815 76.6123C528.134 75.5537 527.832 75.5537 526.697 75.9318C526.319 76.083 525.941 76.2342 525.639 76.461C520.573 79.1074 516.566 82.888 513.39 87.5759C512.936 88.2563 512.483 89.0125 512.105 89.7686C510.365 93.0198 509.458 96.4979 508.173 99.9004C507.568 101.488 507.265 103.076 507.19 104.74C507.19 105.874 507.114 107.008 508.551 107.462C509.08 107.613 509.08 108.142 508.626 108.52C507.643 109.276 507.039 110.41 505.753 110.864C505.451 110.94 505.224 111.318 505.224 111.696C505.375 113.813 505.148 116.081 506.131 118.047C506.585 119.03 506.585 120.24 507.719 120.996C508.022 120.542 508.324 120.24 508.551 119.786C509.458 118.198 510.744 117.14 512.483 116.535C517.397 114.796 522.463 113.662 527.756 113.435C529.495 113.359 531.234 113.359 532.898 113.284C530.932 112.149 528.739 111.545 526.622 111.696C523.749 111.847 520.875 111.469 518.002 111.847C517.927 111.847 517.775 111.923 517.7 111.847C517.019 111.696 516.944 111.166 517.019 110.637C517.095 110.108 517.246 109.73 517.927 109.957C519.288 110.41 520.649 110.108 522.01 110.108C524.429 110.184 526.849 110.184 529.193 110.184C529.268 109.957 529.193 109.881 529.117 109.805C526.017 108.747 522.841 107.84 519.514 107.84C518.834 107.84 518.38 107.84 518.38 107.008C518.38 106.252 518.909 106.176 519.59 106.252C520.951 106.403 522.236 106.554 523.597 106.857C526.622 107.537 529.646 108.369 532.519 109.654C533.276 110.032 534.107 110.41 535.015 110.335C535.015 109.73 534.561 109.654 534.259 109.427C532.293 108.293 530.327 107.235 528.285 106.176C526.697 105.344 525.185 104.513 523.371 104.286C522.766 104.21 522.539 103.681 522.69 103.152C522.841 102.622 523.295 102.547 523.749 102.622C523.975 102.622 524.202 102.774 524.353 102.849C526.622 103.454 528.663 104.588 530.705 105.647C531.158 105.874 531.612 106.327 532.293 106.252C532.217 106.025 532.217 105.798 532.066 105.722C531.763 105.42 531.461 105.193 531.234 104.891C528.663 102.547 525.866 100.581 522.766 98.9931C522.085 98.6907 522.161 98.237 522.388 97.7833C522.614 97.2541 523.144 97.5565 523.446 97.7833C524.883 98.9175 526.697 99.4468 528.134 100.581C529.344 101.564 530.478 102.547 531.688 103.53C532.519 104.135 533.276 104.815 533.805 105.722C534.183 106.252 534.561 106.781 535.544 106.932C534.032 104.815 532.822 102.774 531.234 100.883C529.646 98.9931 527.68 97.4053 525.714 95.8931C525.11 95.4394 524.429 94.9857 523.824 94.4564C523.597 94.2296 523.295 94.0028 523.522 93.6247C523.749 93.2467 524.127 93.3223 524.429 93.4735C525.034 93.7759 525.563 94.154 526.168 94.6077C529.344 96.9516 532.293 99.598 534.485 103C535.922 105.193 537.737 107.083 539.022 109.352C539.476 110.108 540.005 110.864 540.761 111.469C540.61 110.108 540.61 110.108 540.156 109.579C539.778 109.201 539.551 108.747 539.4 108.293C538.946 107.008 538.19 105.949 537.207 105.042C535.695 103.605 534.561 101.791 533.351 100.127C531.99 98.237 530.705 96.2711 528.89 94.6077C528.21 94.0028 527.756 93.2467 526.849 92.9442C526.319 92.793 525.714 92.415 525.563 91.7345C525.488 91.432 525.412 91.054 525.714 90.8271C526.017 90.6759 526.244 90.8271 526.471 90.9783C526.924 91.2808 527.302 91.7345 527.756 92.1125C530.327 94.0784 532.444 96.5736 534.183 99.2955C535.166 100.808 536.3 102.093 537.207 103.605C537.661 104.286 538.417 104.815 539.022 105.42C538.946 104.891 538.795 104.513 538.493 104.135C537.132 102.32 535.695 100.581 534.485 98.615C532.973 96.1955 531.234 94.0028 529.193 91.9613C528.815 91.5832 528.663 91.1296 528.361 90.6759C528.134 90.4491 528.285 90.1466 528.436 89.9198C528.739 89.5417 529.041 89.693 529.344 89.9198C529.571 89.9954 529.722 90.1466 529.873 90.3735C531.688 92.793 533.805 95.0613 535.393 97.7077C536.527 99.598 537.888 101.413 539.476 103.076C539.098 101.791 538.342 100.808 537.585 99.7492C535.695 97.0272 534.637 93.8516 532.368 91.432C532.066 91.1296 532.066 90.7515 532.141 90.2978C532.217 89.7686 532.519 89.6173 532.973 89.9198C533.578 90.3735 534.032 90.9783 534.41 91.5832C536.376 94.9857 538.417 98.3126 540.383 101.639C540.761 102.244 541.063 102.849 541.82 103.379C541.82 102.32 541.442 101.564 541.139 100.808C539.173 96.876 537.359 92.9442 534.637 89.4661C534.41 89.1637 534.258 88.9368 534.334 88.5588C534.41 88.2563 534.41 87.8027 534.863 87.7271C535.166 87.6515 535.393 87.8783 535.544 88.1807C536.073 89.0125 536.678 89.8442 537.207 90.7515C538.19 92.4149 539.098 94.0028 540.005 95.6662C539.854 93.0954 539.098 90.7515 537.812 88.6344C537.661 88.4076 537.434 88.1807 537.359 87.9539C537.132 87.5002 537.359 87.1222 537.661 86.8954C538.039 86.5929 538.341 86.8954 538.644 87.1978C538.871 87.5759 539.249 87.8783 539.4 88.2563C540.156 90.4491 541.139 92.5662 541.593 94.8345C541.971 96.8004 542.273 98.6907 543.029 100.581C544.012 103 545.071 105.496 545.676 108.066C545.751 108.444 545.827 108.974 546.281 109.276C546.583 108.898 546.432 108.52 546.281 108.142C545.298 105.496 545.222 102.547 543.634 100.052C543.407 99.7492 543.407 99.2955 543.332 98.9175C542.122 95.2126 541.895 91.2052 539.778 87.8027C539.4 87.2734 539.778 86.7441 540.156 86.5173C540.685 86.2149 541.063 86.6685 541.139 87.1222C541.971 89.693 543.256 92.1125 543.483 94.8345C543.559 95.9687 544.088 97.1028 544.466 98.3882C544.844 97.9345 544.844 97.5565 544.768 97.254C544.315 95.1369 544.315 92.8686 543.105 90.9027C542.803 90.3735 542.651 89.8442 542.651 89.3149C542.651 88.7856 542.576 88.1807 543.256 88.1051C543.937 87.9539 544.012 88.6344 544.088 89.0881C544.239 90.5247 545.071 91.8101 545.525 93.1711C545.6 92.1125 545.676 91.054 545.222 89.9954C544.92 89.3905 545.373 88.7856 545.903 88.6344C546.659 88.4832 546.583 89.1637 546.659 89.693C546.734 90.5247 546.734 91.3564 547.037 92.1125C547.415 90.6759 547.717 89.2393 547.944 87.8783C548.02 87.349 548.095 86.7441 548.398 86.2149C548.549 85.988 548.776 85.7612 549.078 85.8368C549.381 85.9124 549.532 86.1392 549.608 86.4417C549.608 86.8954 549.608 87.349 549.532 87.8027C549.305 88.8612 549.078 89.9198 548.776 90.9783C548.322 92.6418 548.7 94.154 549.078 95.7418C549.381 95.6662 549.456 95.515 549.456 95.3638C550.288 92.6418 550.742 89.8442 551.8 87.1978C551.8 85.5344 551.725 85.4587 553.312 85.6856C552.783 86.2149 552.556 86.971 552.33 87.6515C551.573 89.9954 550.969 92.2637 550.439 94.6833C549.91 97.0272 549.532 99.2955 549.532 101.715C549.532 102.32 549.532 102.925 549.91 103.681C550.061 103.152 550.137 102.774 550.212 102.396C551.12 99.0687 551.12 95.5906 552.254 92.2637C552.934 90.071 553.01 87.8027 553.312 85.6856ZM564.352 130.069C563.369 129.616 562.386 130.296 561.403 130.674C560.193 131.128 558.908 131.657 558 132.791C556.639 134.53 555.959 136.496 555.656 138.689C555.581 139.218 555.656 139.823 555.808 140.352C556.034 141.184 556.488 141.713 557.395 141.94C558.303 142.167 559.21 142.167 560.042 142.469C561.252 142.847 562.386 142.545 563.293 141.864C565.864 139.899 567.83 137.479 567.981 134.001C568.057 131.43 566.998 130.296 564.352 130.069ZM547.49 108.218C547.944 105.344 547.339 96.1955 546.507 94.3808C547.037 99.2199 546.129 103.681 547.49 108.218ZM544.239 114.418C542.878 111.469 541.517 108.52 539.4 106.025C540.912 108.898 542.046 111.998 544.239 114.418ZM539.854 103.681C540.307 104.815 540.912 105.874 541.895 106.63C541.442 105.42 540.837 104.437 539.854 103.681Z" fill="#10100F"/>
<path d="M546.356 134.984C545.373 134.984 544.542 134.681 543.71 134.379L543.407 134.303C542.198 133.85 540.988 133.32 539.778 132.791C539.4 132.64 538.946 132.413 538.568 132.262C538.039 132.035 537.661 131.657 537.585 131.128L537.51 130.75L537.737 130.447C538.039 130.069 538.417 129.918 538.795 129.918C539.022 129.918 539.249 129.994 539.4 129.994H539.476C541.139 130.296 542.651 130.901 544.164 131.506C545.146 131.884 546.205 132.262 547.188 132.64C547.868 132.867 548.247 133.396 548.095 134.001C547.944 134.53 547.566 134.833 546.961 134.908C546.734 134.908 546.583 134.984 546.356 134.984Z" fill="#10100F"/>
<path d="M577.508 128.33C576.903 128.33 576.374 127.952 576.147 127.347C575.92 126.591 576.223 125.911 576.979 125.608C578.718 124.852 580.533 124.172 582.347 123.491C582.498 123.416 582.65 123.416 582.801 123.416C582.877 123.416 582.952 123.416 582.952 123.416H583.103H583.255C583.708 123.567 584.011 123.794 584.162 124.096C584.238 124.323 584.313 124.701 584.086 125.155C584.011 125.23 583.935 125.457 583.784 125.533C581.667 126.969 579.852 127.877 577.962 128.33C577.811 128.33 577.659 128.33 577.508 128.33Z" fill="#10100F"/>
<path d="M560.117 118.576C559.815 118.576 559.588 118.5 559.361 118.274C558.907 117.895 558.605 117.366 558.529 116.686C558.378 114.947 557.924 113.283 557.395 111.771C557.244 111.317 557.244 110.864 557.244 110.486C557.244 109.578 557.849 109.2 558.454 109.2C559.134 109.2 559.588 109.654 559.739 110.259C559.815 111.015 560.117 111.771 560.42 112.603C560.873 113.888 561.327 115.173 561.1 116.61C561.1 116.686 561.1 116.761 561.1 116.913C561.1 117.139 561.176 117.366 561.1 117.593C561.024 118.274 560.571 118.576 560.117 118.576Z" fill="#10100F"/>
<path d="M570.703 116.761C570.552 116.761 570.401 116.761 570.249 116.686C569.645 116.459 569.115 115.778 569.569 114.72C570.174 113.056 570.552 111.62 570.703 110.334C570.779 109.578 571.308 109.049 571.988 109.049C572.064 109.049 572.064 109.049 572.14 109.049C572.669 109.124 573.198 109.502 573.198 110.485C573.198 110.863 573.198 111.166 573.123 111.62V112.3L573.047 112.905C572.896 113.51 572.82 114.19 572.669 114.946C572.593 115.4 572.367 115.854 571.988 116.232C571.686 116.383 571.308 116.761 570.703 116.761Z" fill="#10100F"/>
<path d="M536.3 146.401C535.544 146.401 534.939 145.947 534.863 145.191C534.788 144.511 535.166 143.83 535.846 143.679C536.224 143.603 536.602 143.452 537.056 143.377C537.888 143.15 538.719 142.923 539.627 142.923C540.156 142.923 540.685 142.998 541.215 143.225L541.366 143.301L541.517 143.452C541.895 143.83 541.82 144.208 541.82 144.359C541.744 144.889 541.29 145.04 541.139 145.116C539.854 145.872 538.266 146.325 536.3 146.477C536.451 146.401 536.376 146.401 536.3 146.401Z" fill="#10100F"/>
<path d="M548.322 154.265C548.096 154.265 547.869 154.189 547.718 154.114C547.113 153.811 546.886 153.055 547.188 152.375C547.718 151.241 548.322 150.106 548.852 149.123C549.003 148.745 549.457 148.519 549.835 148.519H549.986L550.137 148.594C550.666 148.745 551.044 149.048 551.271 149.426C551.423 149.804 551.423 150.182 551.271 150.56C550.742 151.694 550.062 152.828 549.532 153.66C549.23 154.038 548.776 154.265 548.322 154.265Z" fill="#10100F"/>
<path d="M564.956 152.072C565.864 153.811 565.41 155.701 565.032 156.911L564.956 157.289C564.805 157.894 564.2 158.272 563.52 158.121C563.066 158.045 562.612 157.743 562.461 157.365C562.31 157.062 562.31 156.684 562.385 156.382C562.537 155.928 562.612 155.474 562.764 154.945C562.915 154.189 563.671 151.089 564.049 151.089C564.578 151.164 564.956 152.072 564.956 152.072Z" fill="#10100F"/>
<path d="M577.054 143.981C575.617 143.981 573.576 141.713 573.803 141.184C574.03 140.655 575.466 141.033 575.844 141.033C577.508 141.033 579.095 141.486 579.473 142.394C579.852 143.225 579.171 143.603 579.171 143.603C578.491 143.83 577.734 143.981 577.054 143.981Z" fill="#10100F"/>
<path d="M564.654 135.892C565.183 134.001 564.352 133.245 562.764 133.321C562.083 133.397 561.403 133.321 560.722 133.548C560.344 133.699 559.966 133.397 559.891 132.943C559.815 132.565 559.891 132.262 560.269 132.111C561.554 131.28 565.183 130.599 566.393 132.036C567.376 133.17 566.696 136.27 566.242 137.177C566.091 137.48 565.864 137.858 565.486 137.706C565.108 137.555 564.503 137.404 564.503 136.723C564.578 136.421 564.654 136.119 564.654 135.892Z" fill="#10100F"/>
<path d="M497.891 167.118C499.856 167.42 501.293 168.252 502.654 169.008C504.62 170.142 506.737 170.596 508.93 170.823C509.232 170.823 509.459 170.823 509.761 170.672C510.366 170.445 510.971 170.142 510.896 169.386C510.82 168.706 510.064 168.706 509.535 168.706C509.383 168.706 509.232 168.781 509.081 168.781C508.325 168.933 507.947 168.479 507.796 167.799C507.644 167.194 507.947 166.664 508.476 166.438C509.157 166.135 509.837 165.908 510.593 166.211C511.349 166.513 512.03 166.74 512.71 167.194C513.542 167.723 513.844 168.479 513.542 169.462C513.164 170.747 512.408 171.806 511.274 172.638C510.896 172.864 510.518 173.016 510.064 173.091C507.039 173.394 504.317 172.638 501.671 171.201C500.537 170.596 499.403 170.067 498.193 169.613C496.53 169.008 495.093 169.764 493.656 170.445C493.429 170.521 493.354 170.747 493.127 170.899C492.598 171.352 491.993 171.579 491.388 170.974C490.859 170.521 490.859 169.538 491.464 169.008C492.068 168.403 492.749 167.874 493.656 167.647C495.017 167.496 496.53 166.816 497.891 167.118Z" fill="#10100F"/>
<path d="M653.044 102.774C651.986 102.774 650.927 102.396 650.096 101.564C649.264 100.808 648.281 100.43 647.222 100.052C646.239 99.674 645.257 99.674 644.425 100.355C644.122 100.581 643.669 100.808 643.291 100.959C642.837 101.186 642.383 101.262 642.005 100.884C641.627 100.506 641.703 99.7496 642.156 99.2959C643.442 97.8593 646.542 97.2545 648.357 98.0862C649.491 98.6154 650.625 99.2959 651.683 100.052C653.044 100.959 654.557 100.959 656.069 100.506C656.371 100.43 656.825 100.355 656.749 99.9008C656.674 99.4472 656.447 99.0691 655.993 98.9935C655.918 98.9935 655.842 98.9935 655.691 98.9935C655.086 98.9935 654.632 98.7667 654.632 98.1618C654.632 97.5569 655.086 97.1032 655.691 96.952C656.749 96.6496 657.732 97.1032 658.262 98.0862C658.337 98.313 658.488 98.5398 658.64 98.6911C659.774 100.203 658.64 101.791 657.127 102.32C655.01 103.001 655.01 103.001 653.044 102.774Z" fill="#10100F"/>
</svg>
