<svg width="664" height="460" viewBox="0 0 664 460" fill="none" xmlns="http://www.w3.org/2000/svg">
<path d="M292.082 427.801C291.668 427.801 291.115 427.571 290.747 426.513C290.563 426.008 290.287 425.272 290.149 425.18C289.964 425.18 289.412 425.548 288.906 425.87C288.491 426.146 288.077 426.467 287.663 426.789C287.478 426.927 287.294 427.065 287.11 427.203L286.926 427.341L286.696 427.249C285.637 426.835 285.913 426.008 286.051 425.64C286.097 425.548 286.143 425.364 286.143 425.318C286.143 425.318 286.143 425.318 286.097 425.272L280.757 424.858L280.711 424.445C280.619 422.79 281.54 421.732 282.368 420.859C282.645 420.583 282.875 420.307 283.105 420.032C283.611 419.388 284.256 418.974 284.9 418.974C285.177 418.974 285.407 419.02 285.683 419.158C286.005 419.296 286.189 419.526 286.281 419.756C286.42 420.17 286.235 420.491 286.097 420.813C286.051 420.951 286.005 420.997 285.959 421.089C286.742 420.951 287.432 420.491 288.123 419.986C288.814 419.526 289.55 419.02 290.379 418.836L290.563 418.79L290.747 418.882C291.668 419.48 291.3 420.215 291.115 420.583C291.069 420.675 291.023 420.813 290.977 420.905C290.977 420.905 291.023 420.905 291.069 420.951C291.438 420.721 291.806 420.445 292.174 420.169C292.589 419.894 293.003 419.572 293.417 419.296C294.154 418.836 294.568 418.515 294.983 418.515C295.719 418.515 295.903 419.158 296.318 420.353C296.456 420.813 296.594 420.813 296.686 420.813C297.607 420.767 298.251 420.261 298.481 419.388C298.527 419.25 298.527 419.112 298.481 419.02C298.389 418.79 297.929 418.652 297.561 418.561L297.33 418.515C296.962 418.377 296.594 418.285 296.226 418.147C295.075 417.733 293.97 417.365 292.819 417.365C292.082 417.365 291.438 417.549 290.747 417.871L289.964 418.285L290.103 417.411C290.333 415.664 290.701 414.193 292.22 414.193C292.635 414.193 293.187 414.285 293.924 414.561C294.706 414.837 295.489 415.159 296.272 415.481C296.824 415.71 297.376 415.94 297.929 416.17C298.804 416.492 299.448 416.676 300.047 416.768H300.185C300.415 416.814 300.691 416.86 300.875 416.86C301.244 416.86 301.428 416.768 301.566 416.446C301.658 416.216 301.612 416.124 301.198 415.71C301.059 415.573 300.921 415.435 300.829 415.297C298.343 411.895 295.029 409.275 291.806 406.746C291.023 406.149 290.287 405.551 289.504 404.954C283.243 399.897 276.522 395.438 270.122 391.392C269.017 390.703 267.82 390.381 266.531 390.013C265.38 389.692 264.183 389.37 263.079 388.726C263.033 388.68 262.987 388.68 262.94 388.68C262.756 388.68 262.526 388.864 262.296 389.002C262.204 389.048 262.158 389.094 262.066 389.186C261.605 389.508 261.099 389.646 260.5 389.646C260.086 389.646 259.672 389.6 259.165 389.416C257.324 388.91 256.357 388.267 256.035 387.347C255.713 386.428 256.081 385.324 257.232 383.853C258.705 381.877 259.718 380.957 261.191 380.957C261.697 380.957 262.296 381.049 263.171 381.325C264.506 381.739 266.209 382.566 265.795 384.865C265.611 385.876 265.979 386.29 267.084 386.841C272.977 389.875 278.409 393.783 283.657 397.552L284.808 398.38C285.637 398.978 286.512 399.575 287.34 400.127C288.491 400.908 289.642 401.69 290.747 402.517C293.187 404.402 295.489 406.562 297.699 408.677C298.343 409.275 298.942 409.872 299.586 410.47C300.231 411.068 300.875 411.665 301.474 412.309C302.625 413.458 303.822 414.607 305.111 415.71C304.789 414.515 304.098 413.412 303.499 412.309C303.223 411.895 302.993 411.435 302.763 411.022C300.737 407.298 299.218 403.391 298.159 400.403C295.995 394.426 293.233 388.772 289.964 383.67C287.571 379.946 285.591 376.314 283.98 372.591C282.276 368.637 279.882 364.73 276.66 360.639C274.542 357.927 272.424 355.122 270.399 352.456C267.176 348.181 263.815 343.722 260.362 339.539C258.199 336.918 256.081 333.884 255.574 329.655C255.206 326.713 253.135 324.69 249.221 323.495C248.807 323.357 248.347 323.311 247.932 323.311C246.045 323.311 244.71 324.782 244.664 326.943C244.572 330.712 247.242 333.884 251.109 334.436C251.707 334.528 252.352 334.574 252.95 334.666C253.503 334.712 254.101 334.758 254.7 334.85H254.746C255.252 334.896 256.265 335.08 256.265 336.137C256.265 336.597 256.127 336.964 255.851 337.24C255.574 337.516 255.16 337.7 254.7 337.7C254.608 337.7 254.516 337.7 254.378 337.7C252.95 337.516 251.017 337.194 249.175 336.734C246.367 336.045 244.019 334.16 242.822 331.494C241.671 328.966 241.671 326.07 242.868 323.725C243.927 321.656 245.446 320.691 247.702 320.645C247.84 320.645 247.978 320.645 248.07 320.645C253.871 320.645 258.061 324.185 258.981 329.885C259.35 332.092 260.086 333.976 261.329 335.723C263.539 338.895 265.933 342.021 268.281 345.055C269.892 347.17 271.596 349.376 273.207 351.537C273.943 352.548 274.68 353.559 275.463 354.571C279.882 360.501 284.486 366.661 287.156 373.878C288.307 377.05 290.241 379.854 292.082 382.612C292.635 383.44 293.233 384.267 293.74 385.141C296.18 388.956 297.791 393.185 299.356 397.277L299.402 397.46C302.026 404.402 305.663 411.068 308.932 416.814C308.932 416.538 308.886 416.262 308.794 415.94C308.748 415.71 308.656 415.527 308.656 415.297C308.564 414.515 308.472 413.78 308.287 413.09C307.781 410.976 307.229 408.815 306.722 406.7C305.801 403.069 304.881 399.253 304.006 395.53C302.947 390.933 301.013 386.566 299.172 382.29L299.08 382.061C296.962 377.188 295.305 372.085 293.693 367.166C293.233 365.787 292.819 364.454 292.358 363.075C288.767 352.18 284.394 341.377 280.205 330.942L280.158 330.804C279.422 328.92 278.731 326.989 278.087 325.104C277.304 322.806 276.522 320.415 275.509 318.163C274.956 316.922 274.45 315.726 273.897 314.485C270.122 305.705 266.209 296.649 260.5 288.696C259.442 287.225 258.475 285.616 257.508 284.099C256.035 281.709 254.47 279.226 252.582 277.066C252.398 276.836 252.214 276.652 252.03 276.422C251.293 275.549 250.556 274.721 249.728 273.986C249.59 273.848 249.405 273.71 249.267 273.618C248.301 272.791 247.288 271.917 246.505 270.584C245.953 271.228 245.308 271.504 244.526 271.504C244.019 271.504 243.421 271.366 242.592 271.09C236.469 268.837 231.083 265.068 226.295 261.712C225.65 261.252 225.236 260.655 224.868 260.057L224.729 259.827C224.407 259.322 224.085 258.77 223.763 258.264C223.072 257.115 222.335 255.92 221.507 254.908C218.468 251.185 217.594 246.818 217.225 243.416C216.765 239.187 216.995 234.682 218.054 229.165C218.699 225.948 220.494 223.235 222.197 220.569L222.289 220.431C222.98 219.374 223.763 218.868 224.683 218.868C225.098 218.868 225.512 219.006 225.972 219.236C227.492 220.017 229.149 220.477 230.76 220.937C231.635 221.167 232.51 221.397 233.384 221.718C238.218 223.327 241.763 226.637 243.927 231.556C246.459 237.256 247.886 243.6 248.439 251.553C248.715 255.322 248.577 259.276 248.07 264.47C247.794 267.136 248.439 269.067 250.096 270.676C254.424 274.767 257.6 279.778 260.685 284.651C261.099 285.294 261.513 285.938 261.928 286.582C268.695 297.109 274.404 308.509 278.823 320.461C280.205 324.185 281.678 327.908 283.105 331.54C285.315 337.148 287.571 342.986 289.55 348.779L290.01 350.158C293.325 359.949 296.778 370.017 300.461 379.854L300.737 380.59C301.29 382.015 301.796 383.486 302.625 384.819C302.395 382.199 302.072 379.624 301.658 377.142C300.001 367.12 298.113 356.961 296.318 347.17L295.351 341.837C294.614 337.93 293.74 333.976 292.865 330.161C292.22 327.357 291.576 324.461 290.977 321.61C290.425 318.944 289.826 316.186 289.228 313.566C287.893 307.544 286.512 301.338 285.683 295.132C285.131 291.179 284.67 287.133 284.164 283.272C283.841 280.789 283.565 278.353 283.243 275.871C282.967 273.618 282.645 271.412 282.368 269.159C281.908 265.711 281.448 262.126 281.033 258.586C280.711 255.782 280.481 252.886 280.389 249.99C280.297 247.094 279.652 244.243 279.1 241.439C278.685 239.463 278.271 237.44 277.995 235.417C277.396 230.774 277.074 226.039 276.752 221.443C276.614 219.742 276.522 218.041 276.383 216.34C276.245 214.685 276.199 212.938 276.107 211.329C276.015 208.663 275.877 205.905 275.509 203.239C275.186 201.032 275.094 198.779 275.232 196.573C275.417 193.079 275.417 189.54 275.371 186.092C275.325 182.276 275.325 178.323 275.601 174.461C276.383 163.153 277.949 154.649 280.665 146.926C284.164 136.95 289.09 129.641 295.673 124.584C299.955 121.275 304.881 118.93 308.656 117.229C312.707 115.436 317.034 113.644 321.96 113.138C323.019 113.046 324.124 113 325.183 113C329.695 113 334.206 113.919 338.902 115.758C341.296 116.678 343.736 117.551 346.13 118.424L347.143 118.792C350.734 120.079 353.588 121.826 355.936 124.171C358.79 127.021 360.632 130.652 361.921 135.939C362.796 139.57 363.164 143.386 363.486 147.018V147.064C363.901 151.752 364.223 157.912 362.796 164.21C361 172.393 357.041 178.737 350.78 183.655C345.348 187.885 339.915 190.781 334.114 192.482C329.419 193.861 324.769 194.55 320.349 194.55C313.398 194.55 306.63 192.803 300.231 189.356C299.724 189.08 299.218 188.804 298.712 188.574C297.008 187.701 295.213 186.781 293.601 185.54C289.458 182.414 286.88 178.277 285.913 173.266C285.084 168.991 284.394 164.762 284.486 160.395C284.578 157.407 285.131 154.832 286.281 152.534C290.425 144.213 295.535 138.145 301.98 133.962C302.763 133.457 303.546 132.905 304.282 132.399C306.63 130.744 309.07 129.043 312.016 128.17C316.068 126.975 319.935 126.331 323.572 126.331C330.938 126.331 337.613 128.814 343.46 133.778C346.959 136.72 349.077 140.812 350.872 144.811C351.655 146.558 351.701 148.672 351.747 150.557V150.833C351.885 156.12 351.563 162.325 348.432 167.98C345.716 172.853 341.388 175.887 337.889 178.047L337.291 178.415C334.575 180.07 331.766 181.817 328.682 182.69C325.69 183.518 322.191 184.391 318.6 184.391C315.469 184.391 312.661 183.747 310.083 182.414C300.415 177.404 296.041 166.049 299.909 155.982C300.691 153.913 301.428 152.304 302.256 150.833C304.374 146.972 307.551 144.581 311.786 143.754C314.134 143.294 316.896 142.788 319.751 142.788C321.178 142.788 322.467 142.926 323.756 143.156C328.82 144.121 334.483 147.339 335.357 153.637C335.68 156.074 335.219 158.464 333.976 160.854C331.306 166.003 327.255 169.635 321.96 171.519C320.625 172.025 319.613 172.209 318.784 172.209C317.081 172.209 315.838 171.336 314.41 169.175C312.523 166.371 310.405 163.153 311.602 159.016C312.569 155.66 314.318 154.143 317.265 154.143C317.587 154.143 317.955 154.143 318.324 154.189C318.508 154.189 318.692 154.235 318.83 154.235C319.567 154.235 320.211 154.051 320.994 153.867C321.73 153.683 322.329 153.591 322.881 153.591C325.413 153.591 326.15 155.752 326.426 157.361C326.933 159.935 326.886 161.544 325.091 162.188C324.677 162.371 324.17 162.417 323.664 162.417C321.868 162.417 319.981 161.406 319.06 159.981C318.876 159.659 318.692 159.337 318.554 158.97C318.416 158.602 318.231 158.234 318.047 157.958C317.633 157.453 317.127 157.177 316.574 157.177C315.93 157.177 315.377 157.545 315.009 158.188C314.318 159.337 314.088 160.625 314.318 162.05C314.641 164.21 315.699 166.187 317.541 168.118C318.231 168.807 318.968 169.175 319.889 169.175C320.395 169.175 320.994 169.083 321.592 168.853C325.966 167.244 329.419 164.118 331.859 159.521C334.16 155.2 332.641 150.373 328.222 147.707C324.953 145.776 321.408 145.593 318.277 145.547H318.231C316.114 145.547 313.904 146.006 311.878 146.466C306.814 147.477 304.512 151.661 302.809 156.028C300.691 161.406 301.059 166.876 303.96 172.163C306.078 176.07 309.668 178.921 314.272 180.346C316.206 180.943 318.277 181.265 320.349 181.265C322.789 181.265 325.275 180.851 327.623 179.978C332.871 178.093 337.705 175.335 341.941 171.703C346.13 168.164 348.524 163.613 349.123 158.096C349.215 157.131 349.261 156.12 349.307 155.154C349.353 154.511 349.353 153.821 349.399 153.178C350.043 144.03 344.243 135.019 335.219 131.296C331.03 129.549 326.886 128.676 322.835 128.676C318.462 128.676 314.134 129.733 310.037 131.802C303.684 135.019 298.804 138.743 295.121 143.248C292.589 146.282 290.517 149.638 288.952 153.178C286.88 157.82 287.386 162.601 288.123 167.52C288.169 167.888 288.261 168.302 288.307 168.669C288.445 169.589 288.583 170.508 288.767 171.382C289.964 177.22 293.095 181.633 298.205 184.575C303.868 187.839 310.175 190.091 317.541 191.47C318.6 191.654 319.659 191.746 320.764 191.746C323.388 191.746 326.012 191.194 328.59 190.689L329.419 190.505C339.132 188.574 347.603 183.747 354.555 176.254C357.547 172.99 359.021 168.945 360.079 165.038C363.21 153.959 361.23 142.972 358.836 133.732C357.686 129.319 355.2 125.917 351.378 123.711L351.056 123.527C350.55 123.205 349.997 122.883 349.445 122.746C346.821 122.102 344.335 120.999 341.665 119.252C337.245 116.402 331.951 114.931 325.92 114.839C325.736 114.839 325.551 114.839 325.367 114.839C320.856 114.839 316.712 115.712 313.029 117.459C309.991 118.884 306.998 120.447 304.052 121.964L301.842 123.067C294.614 126.745 290.149 133.089 286.696 138.789C283.105 144.811 281.586 151.523 280.112 158.05C279.928 158.832 279.744 159.613 279.56 160.395C278.501 165.084 277.857 170.186 277.719 175.978C277.626 178.507 277.765 181.081 277.857 183.609C277.903 184.897 277.949 186.184 277.995 187.517V187.885C278.041 190.275 278.087 192.711 277.626 195.148C277.396 196.205 277.488 197.354 277.626 198.596C278.225 204.296 278.639 210.088 278.869 216.386C279.146 224.752 279.606 233.624 281.77 242.405C282.506 245.393 282.737 248.473 283.013 251.461C283.105 252.564 283.197 253.759 283.335 254.862C284.486 265.573 285.637 276.009 287.202 286.536C287.432 288.145 287.663 289.753 287.847 291.316C288.307 294.764 288.767 298.35 289.504 301.798C290.149 304.832 290.747 307.957 291.346 310.946C292.589 317.243 293.878 323.771 295.489 330.069C296.87 335.539 297.837 341.194 298.804 346.664C299.172 348.87 299.586 351.123 300.001 353.376C301.106 359.306 302.072 365.374 302.993 371.258C303.499 374.43 304.052 377.739 304.558 380.957C305.433 386.06 306.63 391.163 307.781 396.127C308.011 397.185 308.287 398.196 308.518 399.253C308.61 399.713 308.702 400.219 308.748 400.678C308.84 401.46 308.932 402.195 309.254 402.885C309.3 402.839 309.346 402.839 309.346 402.839C309.392 402.793 309.346 402.563 309.346 402.425C309.346 402.333 309.346 402.287 309.346 402.195C309.208 400.357 309.392 398.472 309.53 396.679C309.668 394.84 309.807 392.909 309.668 391.025C309.392 387.715 309.254 384.313 309.116 381.003C308.978 378.153 308.84 375.211 308.656 372.269C308.195 365.741 307.827 358.754 307.551 350.893C307.321 345.239 307.044 340.872 306.584 336.826C306.124 332.781 306.17 328.69 306.216 324.736C306.216 322.852 306.262 320.875 306.216 318.944C305.985 307.222 305.387 295.316 304.835 285.019C304.696 282.031 304.789 278.997 304.927 276.055C305.019 274.124 305.111 272.101 305.111 270.17V270.078C305.111 267.274 305.111 264.332 302.947 262.172C302.809 262.034 302.625 261.85 302.487 261.666C302.118 261.252 301.796 260.885 301.382 260.701C296.778 258.54 295.443 254.219 294.476 249.99C293.97 247.737 293.74 245.439 293.555 243.186C293.463 242.175 293.371 241.164 293.233 240.152C292.635 235.325 294.706 231.05 296.548 227.281C296.732 226.959 296.87 226.591 297.054 226.269C298.666 222.914 300.323 219.466 303.453 217.075C306.4 214.777 307.873 213.72 309.438 213.72C311.096 213.72 312.523 214.961 315.101 217.719C317.725 220.477 319.06 223.465 319.29 227.051C319.613 231.924 319.797 237.21 318.922 242.589C317.725 249.852 314.502 255.368 309.07 259.459C307.597 260.563 306.998 261.804 307.136 263.551C307.413 268.056 307.367 272.607 307.321 277.02C307.275 282.122 307.229 287.363 307.689 292.512C308.564 302.395 308.61 312.508 308.656 322.254C308.656 323.633 308.656 325.058 308.656 326.437C308.702 334.022 309.024 340.274 309.715 346.112C309.899 347.767 309.899 349.468 309.899 351.077C309.899 352.18 309.899 353.284 309.945 354.387L309.991 355.398C310.451 365.006 310.911 374.889 311.74 384.635C311.924 386.566 311.878 388.588 311.832 390.519C311.832 391.255 311.786 391.944 311.786 392.68C312.339 392.542 312.339 392.174 312.431 391.668C312.431 391.576 312.431 391.53 312.477 391.438C312.707 389.646 312.891 387.853 313.075 386.06C313.49 382.474 313.904 378.751 314.41 375.073C314.641 373.372 314.733 371.626 314.871 369.925C315.009 367.718 315.147 365.466 315.561 363.259C316.344 359.444 316.758 355.536 317.173 351.721C317.587 348.135 317.955 344.411 318.646 340.78C319.751 334.988 320.902 328.966 321.454 322.99C322.053 317.014 323.342 311.267 324.585 306.44C324.907 305.107 324.677 304.418 323.756 303.774C321.454 302.257 320.81 299.867 320.487 297.522C319.613 291.362 323.019 285.019 328.636 282.444C329.188 282.168 329.695 282.077 330.109 282.077C331.214 282.077 331.766 282.95 332.089 283.594C334.252 287.823 335.864 292.42 333.102 297.476C332.917 297.844 332.733 298.212 332.549 298.58C331.951 299.775 331.352 301.062 330.201 301.981C326.702 304.832 325.782 309.015 325.137 313.428C323.986 320.875 322.835 328.506 321.776 335.861C321.362 338.803 320.902 341.745 320.487 344.687C318.876 355.49 317.541 366.063 316.528 376.039C315.699 384.037 314.548 392.266 312.937 401.184C312.477 403.666 312.108 406.562 312.385 409.78C313.259 408.769 313.628 407.62 313.996 406.517C314.088 406.241 314.18 406.011 314.226 405.735C315.745 401.322 317.863 397.139 319.889 393.093C320.441 391.99 320.994 390.933 321.5 389.829C322.237 388.312 323.019 386.796 323.802 385.279C325.782 381.371 327.807 377.326 329.511 373.234C329.649 372.959 329.741 372.637 329.833 372.361C330.339 371.074 330.846 369.695 332.089 368.775C333.24 365.466 334.943 362.386 336.6 359.398C337.153 358.34 337.751 357.283 338.304 356.226C338.764 355.306 339.317 354.433 339.823 353.605C340.053 353.238 340.283 352.87 340.468 352.502C341.665 350.433 342.631 348.825 341.02 346.434C339.777 344.595 340.145 341.883 341.941 340.044C342.631 339.355 342.908 338.619 342.861 337.746C342.677 333.884 343.322 330.253 344.151 326.207C344.565 324.185 344.887 322.07 345.163 320.048C345.578 317.243 346.038 314.347 346.729 311.589C347.051 310.256 347.373 308.923 347.649 307.59C348.708 302.717 349.859 297.66 353.082 293.523C355.015 291.087 356.212 288.236 357.363 285.432C358.238 283.272 359.205 281.019 360.448 278.997C362.013 276.514 363.762 274.17 365.42 271.917C366.571 270.4 367.768 268.791 368.873 267.182C369.241 266.677 369.839 266.355 370.438 266.355C370.53 266.355 370.668 266.355 370.76 266.401L370.944 266.447L371.036 266.585C371.865 267.596 371.174 268.332 370.806 268.791C370.714 268.883 370.622 268.975 370.53 269.113C369.701 270.262 368.827 271.412 367.952 272.561C366.248 274.767 364.499 277.02 363.118 279.548C357.732 289.57 354.877 299.131 354.417 308.785C354.095 315.221 354.049 321.748 353.956 328.092C353.956 329.885 353.91 331.678 353.91 333.471C353.864 336.643 353.726 339.86 353.634 342.986C353.45 347.308 353.312 351.813 353.358 356.226C353.45 365.879 358.514 371.809 368.32 373.878C371.128 374.476 373.937 374.751 376.653 374.751C380.106 374.751 383.605 374.246 387.011 373.326C389.313 372.683 391.799 372.407 394.147 372.177L395.206 372.085C397.922 371.763 400.316 370.706 402.802 369.511L403.124 369.373C403.263 369.327 403.263 369.281 403.263 369.281C401.605 369.235 399.395 369.189 396.679 369.189C394.055 369.189 391.891 369.235 391.891 369.235H391.707L391.569 369.097C391.339 368.867 390.694 368.132 390.971 367.488C391.063 367.258 391.339 366.937 391.983 366.891C392.95 366.845 394.147 366.799 395.851 366.799C396.679 366.799 397.6 366.799 398.475 366.799C399.349 366.799 400.27 366.799 401.145 366.799C403.217 366.799 404.598 366.753 405.703 366.707C406.946 366.615 407.958 366.017 408.971 364.822C409.155 364.592 409.294 364.408 409.478 364.178C408.971 364.132 408.373 364.132 407.728 364.086C402.158 363.765 400.27 363.489 400.27 362.478C400.27 362.34 400.316 362.156 400.5 361.972C401.191 361.282 404.091 361.19 405.749 361.19C407.498 361.19 409.846 361.328 411.365 361.696C412.01 360.823 412.608 359.903 413.253 359.03C413.667 358.432 414.081 357.835 414.496 357.237C414.496 357.191 414.496 357.145 414.496 357.099C412.194 357.605 408.787 357.881 405.657 357.881C400.777 357.881 400.684 357.191 400.592 356.823L400.546 356.639L400.684 356.501C401.329 355.628 403.723 355.444 407.82 355.26C410.076 355.168 412.424 355.03 414.173 354.709C415.877 354.387 416.521 353.743 416.383 352.41C415.831 352.318 415.232 352.272 414.634 352.272C413.391 352.272 412.056 352.456 410.813 352.64C409.524 352.824 408.189 353.008 406.854 353.008C406.025 353.008 405.288 352.916 404.598 352.778L404.229 352.686V352.318C404.229 351.905 404.321 351.583 404.552 351.307C404.874 350.939 405.426 350.939 405.795 350.939C405.887 350.939 405.979 350.939 406.025 350.939C407.406 350.801 408.787 350.571 410.122 350.296C412.01 349.928 413.989 349.606 416.015 349.606H416.199C417.304 349.606 417.718 349.238 417.949 348.089C418.087 347.308 418.271 346.572 418.455 345.791C417.718 345.928 416.89 345.974 415.923 345.974C413.345 345.974 410.444 345.469 408.603 344.641L408.281 344.503L408.327 344.182C408.373 343.722 408.649 342.894 409.432 342.803C409.8 342.757 410.214 342.757 410.675 342.757C411.964 342.757 413.299 342.894 414.634 343.078C415.969 343.216 417.212 343.354 418.317 343.354C418.547 343.354 418.731 343.354 418.915 343.354C418.915 343.354 419.606 340.366 419.744 339.585L410.214 340.09L410.444 339.447C410.951 338.114 411.918 337.93 412.654 337.838C412.746 337.838 412.838 337.792 412.93 337.792C413.759 337.654 414.634 337.562 415.416 337.424C416.015 337.332 416.567 337.286 417.166 337.194C418.823 336.964 419.744 336.826 420.158 336.367C420.527 335.953 420.665 335.034 420.803 333.425C420.435 333.287 419.974 333.241 419.376 333.241C418.593 333.241 417.718 333.333 416.844 333.425C415.923 333.517 415.002 333.655 414.173 333.655C413.667 333.655 413.207 333.609 412.838 333.517C412.47 333.425 412.286 333.195 412.194 333.057C411.964 332.597 412.194 332.046 412.286 331.954L412.378 331.724L415.278 331.448C417.074 331.264 418.593 331.126 420.158 330.988C421.632 330.85 421.816 329.517 421.77 328.46C421.724 327.724 421.493 327.678 420.941 327.678C420.803 327.678 420.665 327.678 420.527 327.678C420.389 327.678 420.204 327.678 420.066 327.678H419.928C419.606 327.678 419.284 327.724 418.915 327.724C418.547 327.77 418.133 327.816 417.718 327.816C416.844 327.816 416.061 327.633 415.37 327.219L414.772 326.897L415.324 326.483C416.429 325.564 417.534 325.518 418.547 325.472C418.869 325.472 419.146 325.426 419.422 325.38C419.652 325.334 419.882 325.288 420.112 325.288C422.368 324.966 422.368 324.966 422.552 322.576C422.598 322.254 422.644 322.07 422.644 321.886C422.69 321.61 422.736 321.473 422.506 321.105C421.493 321.151 420.619 321.335 419.652 321.564C418.593 321.794 417.488 322.024 416.291 322.024H416.107L415.969 321.886C415.923 321.84 415.509 321.427 415.555 320.875C415.555 320.645 415.693 320.323 416.107 320.048C417.166 319.312 420.158 318.668 421.493 318.668H421.539H421.585C421.862 318.668 422.644 317.473 422.644 316.462C422.644 316.186 422.598 315.956 422.506 315.864C422.46 315.818 422.322 315.772 422.092 315.772C421.908 315.772 421.724 315.818 421.539 315.818L421.309 315.864C420.296 315.956 419.33 316.094 418.317 316.232L417.718 316.324L417.764 316.37C417.58 316.416 417.396 316.416 417.166 316.416C416.475 316.416 415.969 316.048 415.601 315.313L415.463 314.991L415.785 314.761C416.752 314.025 417.856 313.888 418.915 313.796C419.468 313.75 419.974 313.704 420.435 313.566L420.619 313.52C421.632 313.244 422.276 313.06 422.414 312.784C422.598 312.508 422.46 311.819 422.276 310.808C422.138 310.026 422 309.199 421.862 308.371L421.724 307.544C421.309 307.682 420.895 307.82 420.435 308.003C419.468 308.371 418.455 308.785 417.304 308.785C416.659 308.785 416.061 308.693 415.463 308.417L414.726 308.141L415.324 307.636C416.383 306.716 417.534 306.44 418.501 306.165C418.869 306.073 419.238 305.981 419.56 305.843C420.895 305.383 421.171 304.694 420.711 303.406C420.435 302.579 420.204 301.844 420.02 301.154C419.79 300.235 419.33 300.143 418.961 300.143C418.777 300.143 418.593 300.189 418.363 300.235C418.087 300.327 417.764 300.418 417.396 300.51C416.199 300.878 414.726 301.292 413.529 301.338C412.884 301.338 412.516 300.878 412.378 300.602L412.194 300.235L412.516 300.005C413.943 299.039 415.232 298.626 416.337 298.258C416.613 298.166 416.89 298.074 417.166 297.982C417.856 297.706 418.501 297.522 418.593 297.338C418.685 297.155 418.455 296.557 418.179 295.776C418.133 295.592 418.041 295.454 417.995 295.27C417.902 295.04 417.764 294.764 417.718 294.534C417.35 293.339 416.659 292.833 415.555 292.833C415.278 292.833 415.002 292.879 414.634 292.925C414.404 292.971 414.127 293.063 413.805 293.155C413.207 293.339 412.516 293.523 412.01 293.523C411.365 293.523 411.135 293.247 410.997 293.017L410.951 292.971V292.925C410.767 291.822 412.286 291.408 413.483 291.041C413.759 290.949 414.035 290.903 414.219 290.811C414.91 290.581 415.324 290.305 415.463 289.983C415.555 289.708 415.463 289.294 415.14 288.834C414.956 288.558 414.818 288.236 414.68 287.915C414.588 287.731 414.496 287.501 414.404 287.317C413.667 285.984 413.023 285.432 412.148 285.432C411.826 285.432 411.411 285.524 410.997 285.708C410.721 285.846 410.444 285.892 410.168 285.892C409.754 285.892 409.34 285.754 408.971 285.478L408.741 285.34L408.787 285.065C408.879 284.145 409.57 283.915 410.076 283.731L410.352 283.639C411.273 283.318 411.595 283.088 411.503 282.444C411.365 281.525 410.214 280.514 409.201 280.468C409.155 280.468 409.155 280.468 409.109 280.468C408.879 280.468 408.603 280.56 408.327 280.606C408.004 280.697 407.636 280.789 407.222 280.789C406.761 280.789 406.393 280.651 405.979 280.422L405.611 280.192L405.795 279.824C406.163 279.134 406.715 278.813 407.268 278.491C407.636 278.261 408.004 278.077 408.281 277.755C408.189 277.572 408.097 277.434 408.05 277.25C407.452 276.009 406.946 274.951 405.242 274.951H405.15C404.736 274.951 404.137 274.538 403.999 274.354L403.861 274.17L403.953 273.94C404.183 273.25 403.953 272.515 403.677 271.733C403.309 270.722 402.894 269.573 403.631 268.286C404.137 267.458 404.552 266.539 404.966 265.619C405.288 264.93 405.61 264.24 405.933 263.597C412.286 251.645 414.726 238.681 413.253 224.982C412.884 221.58 412.056 217.213 408.787 213.812C405.795 210.64 402.572 209.123 398.935 209.123C398.337 209.123 397.738 209.169 397.094 209.261C391.431 209.996 385.86 212.019 379.968 215.375C376.837 217.167 374.397 220.155 372.832 224.201C371.635 227.189 370.346 230.774 369.655 234.498C369.057 237.624 369.333 240.704 369.701 243.876C370.438 250.495 371.727 257.253 373.522 263.827C373.568 263.919 373.568 264.01 373.614 264.148C373.845 264.884 374.121 265.803 373.43 266.769L373.292 266.952H373.062C373.016 266.952 372.97 266.952 372.924 266.952C371.727 266.952 371.497 265.987 371.313 265.39C371.313 265.298 371.267 265.252 371.267 265.16C369.149 258.034 368.09 250.449 367.123 243.784C366.11 236.658 367.814 230.361 370.668 223.051C372.187 219.19 374.811 216.018 378.725 213.352C383.973 209.766 390.234 207.652 398.475 206.778C398.843 206.732 399.211 206.732 399.58 206.732C405.611 206.732 412.332 212.111 414.266 218.5C417.488 229.119 416.061 239.463 414.081 249.024C412.746 255.322 410.859 260.241 408.143 264.424C407.774 264.976 407.498 265.527 407.222 266.125C407.038 266.493 406.854 266.907 406.623 267.274C405.61 269.113 405.795 270.4 407.36 271.963C408.557 273.204 409.432 274.767 410.306 276.238C410.629 276.836 410.997 277.48 411.365 278.031C416.199 285.754 420.527 294.075 424.624 303.498C428.077 311.405 430.655 320.139 432.266 329.425C433.555 336.78 434.66 343.998 434.062 351.491C433.877 353.789 433.739 356.088 433.601 358.34C433.325 363.213 433.003 368.27 432.266 373.188C432.22 373.326 432.22 373.51 432.22 373.648C432.174 374.338 432.128 375.349 430.977 375.717L430.287 375.947L430.379 375.211C430.517 373.924 430.701 372.637 430.839 371.396C431.207 368.592 431.576 365.741 431.806 362.891C433.279 347.078 432.036 332.735 427.985 318.99C427.064 315.864 425.959 312.692 424.9 309.658C424.624 308.923 424.394 308.187 424.118 307.452C424.072 307.314 424.025 307.222 423.979 307.084C423.795 306.532 423.611 305.981 423.197 305.567C423.151 305.613 423.151 305.613 423.151 305.613C423.105 305.705 423.243 305.935 423.289 306.119C423.335 306.257 423.427 306.395 423.427 306.532C426.419 318.485 424.302 330.069 421.401 342.894C420.757 345.791 419.974 349.192 418.915 352.502C416.199 361.282 410.905 367.948 403.171 372.361C401.237 373.464 399.672 374.016 398.06 374.154C396.495 374.292 395.666 375.073 395.16 376.912C394.608 379.073 394.423 381.371 394.239 383.532C394.147 384.865 394.055 386.244 393.825 387.623C393.088 392.864 392.812 398.656 392.95 405.275C392.996 407.114 392.858 408.999 392.72 410.792C392.628 411.987 392.536 413.274 392.49 414.515C392.444 415.527 392.674 416.308 393.18 416.814C393.549 417.181 394.009 417.365 394.608 417.365C395.16 417.365 395.805 417.181 396.495 416.86C396.679 416.768 396.909 416.63 397.094 416.538C397.278 416.446 397.462 416.308 397.646 416.216C397.784 416.124 397.922 416.032 398.106 415.894C398.475 415.618 398.889 415.297 399.395 415.297C399.672 415.297 399.902 415.389 400.178 415.527C401.053 416.078 400.869 416.86 400.731 417.457C400.684 417.641 400.638 417.825 400.638 418.009C405.104 417.135 408.695 416.17 411.78 414.883L412.056 414.791L412.286 414.975C413.069 415.71 412.746 416.4 412.516 416.814C412.47 416.952 412.424 417.044 412.378 417.136C412.838 417.044 413.299 416.952 413.759 416.86C416.245 416.354 418.547 415.848 420.527 414.331L420.803 414.102L421.079 414.285C421.908 414.883 421.632 415.573 421.493 415.94C421.493 415.94 421.493 415.986 421.447 416.032C422.046 415.618 422.69 415.389 423.473 415.389C424.164 415.389 424.854 415.527 425.499 415.664C426.143 415.802 426.788 415.94 427.34 415.94C428.169 415.94 428.767 415.664 429.32 415.067C429.55 414.791 430.194 414.193 431.023 414.193C431.391 414.193 431.714 414.331 431.99 414.561C432.588 415.067 432.404 415.71 432.266 416.124C432.22 416.308 432.174 416.446 432.174 416.584C433.601 415.94 435.12 415.756 436.548 415.573C438.205 415.389 439.724 415.205 441.151 414.423C441.29 414.331 441.52 414.285 441.796 414.285C442.625 414.285 442.717 414.607 442.763 414.745C442.947 415.481 443.223 415.481 443.315 415.481C443.591 415.481 444.006 415.297 444.374 415.113C444.696 414.929 444.973 414.837 445.295 414.837C445.801 414.837 446.262 415.113 446.63 415.664C447.274 416.63 447.228 417.457 446.446 418.285C444.65 420.215 442.394 421.457 440.046 422.606C439.862 422.698 439.678 422.744 439.448 422.744C439.034 422.744 438.619 422.56 438.251 422.376C437.883 422.192 437.56 422.054 437.192 422.054C437.008 422.054 436.824 422.1 436.64 422.238C436.271 422.468 435.811 422.606 435.351 422.606C434.752 422.606 434.154 422.376 433.555 422.008C433.279 421.824 433.049 421.687 432.865 421.595C432.266 421.273 431.99 421.043 431.806 420.215C431.207 420.537 430.701 421.043 430.194 421.549C429.458 422.284 428.675 423.066 427.57 423.387L427.202 423.479L427.018 423.158C426.512 422.146 426.926 421.319 427.248 420.629C427.386 420.399 427.478 420.169 427.57 419.94C427.202 420.353 426.788 420.767 426.419 421.181C425.499 422.192 424.578 423.204 423.473 424.031L423.289 424.169L423.059 424.077C422.138 423.755 422.046 423.02 422.046 422.606C422.046 422.422 422 422.284 421.954 422.192C421.816 421.916 421.678 421.732 421.539 421.686C421.493 421.641 421.447 421.641 421.401 421.641C421.171 421.641 420.849 421.87 420.573 422.1C420.204 422.376 419.79 422.698 419.376 422.698C418.961 422.698 418.593 422.468 418.317 421.962C418.041 421.457 417.764 421.181 417.534 421.181C417.304 421.181 416.982 421.457 416.752 421.732C416.521 421.916 416.337 422.146 416.107 422.238C415.37 422.606 414.542 422.698 413.759 422.79C412.424 422.928 411.273 423.066 410.536 424.491L410.122 425.318L409.708 424.491C408.879 422.79 409.754 422.008 410.398 421.457C410.583 421.319 410.675 421.181 410.813 421.089C410.536 421.181 410.306 421.319 410.03 421.503C409.708 421.732 409.34 421.916 408.925 422.054C408.787 422.1 408.557 422.192 408.373 422.284C408.05 422.468 407.728 422.606 407.452 422.606C407.314 422.606 407.176 422.56 407.038 422.468C406.577 422.146 406.163 422.008 405.795 422.008C405.15 422.008 404.506 422.422 403.861 422.836C403.401 423.112 402.94 423.433 402.434 423.617C402.112 423.755 401.743 423.939 401.375 424.169C400.684 424.583 399.948 424.996 399.119 424.996C398.337 424.996 397.646 424.629 396.955 423.801C396.909 423.801 396.679 423.893 396.541 423.985C396.449 424.031 396.357 424.077 396.265 424.123C395.528 424.445 394.838 424.721 394.101 424.996L392.904 425.456L392.674 425.226C391.891 424.261 392.306 423.433 392.674 422.79C392.766 422.56 392.904 422.376 392.95 422.192C391.937 422.606 391.109 423.158 390.234 423.755C389.866 424.031 389.451 424.261 389.083 424.537C388.715 424.766 388.254 424.904 387.794 424.904C387.334 424.904 386.919 424.812 386.505 424.721C386.137 424.629 385.814 424.537 385.492 424.537C385.078 424.537 384.756 424.675 384.479 425.042L384.111 425.456L383.743 425.042C383.006 424.123 383.42 423.433 383.697 422.974C383.743 422.928 383.743 422.882 383.789 422.836C383.651 422.882 383.559 422.928 383.42 423.02C383.144 423.204 382.822 423.433 382.5 423.663C381.809 424.215 381.073 424.766 380.244 424.766C379.876 424.766 379.507 424.629 379.185 424.399C378.679 424.031 378.218 423.893 377.666 423.893C377.251 423.893 376.791 423.985 376.377 424.077C375.916 424.169 375.456 424.307 374.95 424.307C374.857 424.307 374.765 424.307 374.673 424.307C374.213 424.261 373.799 424.215 373.338 424.169C372.556 424.077 371.865 423.985 371.128 423.985C370.714 423.985 370.346 424.031 369.978 424.077C369.839 424.123 369.655 424.123 369.517 424.169C368.688 424.307 367.952 424.399 367.307 424.812C366.847 425.134 366.295 425.272 365.742 425.272C365.236 425.272 364.729 425.18 364.269 425.042C363.809 424.95 363.394 424.858 363.026 424.858H362.888C362.565 424.858 362.243 424.721 362.059 424.491C361.783 424.169 361.691 423.617 361.829 423.066C361.875 422.928 361.921 422.79 361.967 422.652C362.059 422.376 362.151 422.1 362.151 421.824C361.921 421.962 361.691 422.1 361.461 422.284C360.494 422.882 359.619 423.479 358.698 424.031C357.916 424.491 357.179 424.812 356.489 425.042C356.074 425.18 355.798 425.226 355.522 425.226C355.153 425.226 354.831 425.088 354.647 424.858C354.325 424.491 354.325 423.893 354.555 422.836C354.601 422.652 354.601 422.514 354.647 422.284C354.003 422.422 353.404 422.698 352.806 423.02C352.437 423.204 352.069 423.387 351.655 423.571C350.55 423.985 349.583 424.353 348.432 424.353C347.834 424.353 347.281 424.261 346.683 424.077C346.222 423.939 345.67 423.847 345.117 423.847C344.058 423.847 342.815 424.077 341.204 424.583C340.422 424.812 339.639 425.042 338.902 425.318C337.797 425.64 336.692 426.008 335.588 426.329C335.357 426.421 335.081 426.467 334.851 426.467C334.529 426.467 334.252 426.375 334.068 426.192C333.93 426.008 333.884 425.824 333.93 425.594C334.114 424.812 333.976 424.629 333.93 424.583C333.884 424.537 333.746 424.537 333.654 424.537C333.47 424.537 333.24 424.583 332.963 424.629C332.779 424.675 332.549 424.675 332.365 424.721C332.319 424.721 332.273 424.721 332.227 424.721C331.582 424.721 331.168 424.215 330.8 423.801C330.523 423.433 330.293 423.204 330.063 423.204C329.925 423.204 329.741 423.295 329.557 423.433C329.28 423.663 328.958 423.939 328.682 424.261C328.083 424.858 327.485 425.502 326.794 425.502H326.702C325.92 425.502 325.091 425.64 324.216 425.824C323.342 426.008 322.467 426.146 321.546 426.146C320.165 426.146 319.106 425.778 318.093 424.95C317.817 424.721 317.495 424.491 317.219 424.307C317.127 424.261 317.081 424.215 316.988 424.123C316.666 424.261 316.436 424.537 316.206 424.858C315.976 425.18 315.699 425.456 315.377 425.686C315.193 425.824 315.009 426.008 314.779 426.192C314.364 426.605 313.858 427.111 313.213 427.111C312.385 427.111 311.832 426.283 311.464 425.686C311.418 425.64 311.142 425.548 310.451 425.548C309.807 425.548 309.024 425.64 308.425 425.778C308.057 425.87 307.689 425.916 307.367 425.916C306.814 425.916 306.262 425.778 305.755 425.64C305.341 425.502 304.881 425.456 304.42 425.456C302.809 425.456 301.244 426.238 299.816 427.019C299.632 427.111 299.448 427.249 299.264 427.387C298.804 427.709 298.297 428.076 297.699 428.076C297.469 428.076 297.238 428.03 297.008 427.892C296.133 427.433 295.397 427.249 294.752 427.249C294.016 427.249 293.371 427.479 292.681 428.03C292.589 427.709 292.312 427.801 292.082 427.801ZM367.768 419.388C367.814 419.388 367.86 419.388 367.906 419.388C368.044 419.388 368.136 419.342 368.32 419.25C370.254 417.963 372.325 417.457 374.305 417.09C375.318 416.906 376.331 416.86 377.251 416.86C377.482 416.86 378.402 416.86 378.587 416.86C379.139 416.86 379.783 416.86 380.428 416.768C380.75 416.722 381.027 416.722 381.257 416.722C382.085 416.722 382.684 416.906 383.052 417.319C383.374 417.687 383.559 418.193 383.559 418.928C384.065 418.744 384.525 418.423 384.94 418.147C385.446 417.779 385.999 417.365 386.643 417.273C390.096 416.768 390.234 414.423 390.372 411.757L390.418 411.159C390.464 410.47 390.51 409.826 390.51 409.183C390.556 399.805 391.109 392.588 392.306 385.83C392.72 383.532 392.904 381.095 393.042 378.797C393.088 378.107 393.134 377.418 393.18 376.728C393.226 376.36 393.272 375.717 393.042 375.441C392.996 375.395 392.904 375.303 392.582 375.303C392.49 375.303 392.398 375.303 392.26 375.349C391.569 375.441 390.879 375.533 390.188 375.625C388.531 375.855 386.781 376.039 385.17 376.498C382.408 377.326 379.323 377.694 375.824 377.694C374.305 377.694 372.694 377.648 370.714 377.464C370.622 377.464 370.484 377.464 370.392 377.464C369.655 377.464 369.517 377.602 369.379 378.659C369.057 380.773 369.103 382.888 369.195 385.003V385.462C369.333 389.324 368.919 393.139 368.504 396.679C367.63 403.804 367.215 409.642 367.169 415.021C367.169 415.251 367.169 416.032 367.399 416.262C367.399 416.262 367.492 416.354 367.676 416.354C367.86 416.354 368.136 416.308 368.412 416.17C368.55 416.124 368.735 416.078 368.965 416.078C369.563 416.078 369.931 416.492 369.931 417.136V417.227L369.885 417.319C369.655 418.009 369.057 418.377 368.596 418.698C368.274 418.882 367.952 419.112 367.768 419.388ZM335.726 417.319C337.061 417.319 338.488 417.549 339.501 419.204C339.961 418.974 340.329 418.607 340.744 418.285C341.434 417.687 342.171 417.044 343.138 417.044C343.23 417.044 343.368 417.044 343.506 417.09C343.92 417.135 344.381 417.181 344.795 417.181C346.13 417.181 347.373 416.906 348.708 416.584C349.261 416.446 349.813 416.308 350.412 416.216C350.642 416.17 350.826 416.124 351.01 416.124C351.563 416.124 351.977 416.446 352.207 416.998C352.667 418.101 353.036 418.653 353.358 418.653C353.496 418.653 353.68 418.607 354.095 418.239C355.752 416.814 357.593 416.814 359.389 416.814C360.218 416.814 361 416.814 361.737 416.676C364.315 416.216 364.637 416.17 364.729 413.78C364.775 412.998 364.775 412.171 364.821 411.389C364.867 409.688 364.913 407.942 365.098 406.195C365.236 404.908 365.374 403.62 365.512 402.333C366.295 394.932 367.169 387.255 366.893 379.624V379.532C366.801 376.82 366.801 376.544 364.269 375.947C361.369 375.303 358.744 373.832 356.857 371.901C353.358 368.27 351.332 363.673 351.01 358.616C350.826 355.996 350.872 353.422 350.918 350.663C350.918 349.79 350.964 348.87 350.964 347.997C349.905 348.825 348.754 349.422 347.603 349.974C347.143 350.204 346.729 350.433 346.314 350.663C345.301 351.215 344.933 351.767 344.841 352.824V352.962C344.289 358.294 343.736 363.811 344.058 369.189C344.197 371.35 344.151 373.51 344.104 375.625C344.012 378.981 343.966 382.474 344.657 385.876C344.749 386.29 344.657 386.75 344.427 387.071C344.197 387.393 343.874 387.577 343.46 387.623C343.414 387.623 343.322 387.623 343.276 387.623C342.263 387.623 342.079 386.52 342.033 386.106C341.895 385.187 341.849 384.267 341.803 383.44C341.572 374.981 341.388 365.098 342.033 355.398C342.033 355.214 342.033 355.076 341.803 354.984C340.145 356.915 338.902 359.214 337.705 361.42C337.383 362.018 337.061 362.615 336.738 363.213C336.416 363.765 336.14 364.362 335.864 364.914C335.127 366.431 334.391 367.994 333.009 369.235C331.859 372.867 330.155 376.314 328.498 379.624C327.899 380.865 327.255 382.199 326.656 383.486L325.367 386.29C321.454 394.656 317.403 403.299 314.364 412.171C314.272 412.401 314.18 412.676 314.088 412.952C313.766 413.826 313.398 414.699 313.536 415.71C315.699 413.642 317.587 411.297 319.382 408.999C322.329 405.275 325.413 401.414 329.695 398.931L330.477 398.472L330.385 399.345C330.385 399.575 330.385 399.851 330.431 400.173C330.477 400.862 330.523 401.552 330.109 402.011C329.833 402.287 329.465 402.425 328.958 402.425C328.728 402.425 328.406 402.379 328.083 402.333C328.037 402.333 327.991 402.333 327.945 402.333C327.669 402.333 327.485 402.517 327.209 402.793L327.117 402.885C326.84 403.161 326.564 403.437 326.288 403.712C325.505 404.494 324.677 405.321 323.986 406.195C323.065 407.39 322.145 408.631 321.27 409.826C319.751 411.941 318.139 414.147 316.344 416.17L316.298 416.262C316.114 416.492 316.022 416.584 315.976 416.722C317.771 415.435 319.705 415.251 321.178 415.251C322.099 415.251 323.019 415.343 323.94 415.389C324.493 415.435 324.999 415.481 325.551 415.527C326.104 415.573 327.577 415.618 327.945 416.814C328.176 417.549 328.498 417.641 328.774 417.641C329.004 417.641 329.28 417.595 329.603 417.503C329.741 417.457 329.879 417.457 330.017 417.411L330.247 417.365C330.892 417.227 331.582 417.09 332.227 417.09C332.411 417.09 332.595 417.09 332.733 417.136C332.963 417.181 333.194 417.181 333.47 417.181C333.838 417.181 334.206 417.181 334.575 417.136C334.943 417.319 335.357 417.319 335.726 417.319ZM261.007 383.762C260.454 383.762 259.764 383.945 259.488 385.508C259.442 385.784 259.488 386.014 259.58 386.152C259.764 386.336 260.086 386.474 260.593 386.52C260.961 386.336 261.421 386.336 261.79 386.336C262.526 386.336 262.756 386.29 262.894 385.692C262.94 385.416 262.802 385.003 262.526 384.681C262.158 384.221 261.559 383.853 261.099 383.853L261.007 383.762ZM344.703 348.043C344.749 348.043 344.795 348.043 344.795 348.043C344.933 348.089 345.117 348.089 345.255 348.089C346.821 348.089 348.846 346.388 348.846 344.457C348.892 343.86 348.616 342.848 347.741 341.883C347.143 341.194 346.591 340.872 345.992 340.872C345.762 340.872 345.578 340.918 345.348 341.01C344.058 341.469 343.368 342.435 343.322 343.86C343.23 345.423 343.966 346.802 344.703 348.043ZM344.933 337.976C347.787 337.976 348.248 338.16 351.056 340.826C351.332 335.769 351.378 330.575 351.378 325.61C351.424 317.795 351.517 309.75 352.391 301.798C349.261 310.9 344.795 332.965 344.933 337.976ZM329.004 285.432C328.636 285.432 328.083 285.662 327.393 286.168C325.505 287.501 324.354 289.156 323.802 291.133C322.421 296.097 323.111 299.545 326.058 302.257C326.886 301.981 327.393 301.476 327.899 300.878C332.043 296.097 332.963 291.408 330.616 286.995C329.833 285.616 329.373 285.432 329.004 285.432ZM225.328 222.546C223.532 222.546 222.612 223.557 221.369 227.051C220.724 228.798 220.356 230.315 220.172 231.74C219.849 234.13 219.711 236.658 219.665 239.233C219.619 244.152 220.77 248.381 223.256 252.104C223.486 252.472 223.763 252.84 223.993 253.208C226.249 256.655 228.412 259.873 232.049 261.896C232.326 262.034 232.602 262.264 232.924 262.585C235.64 265.298 239.093 266.493 242.776 267.734L243.513 267.964C243.835 268.056 244.111 268.148 244.295 268.148C244.526 268.148 244.986 268.148 245.078 266.952C245.492 263.229 245.676 259.873 245.769 255.598C246.045 250.817 244.94 244.841 243.743 239.601C241.809 230.912 237.021 225.58 229.057 223.281C227.308 222.776 226.203 222.546 225.328 222.546ZM308.978 217.259C308.287 217.259 307.413 217.719 306.124 218.638C303.315 220.523 301.612 223.327 300.139 226.085C297.837 230.453 295.259 235.417 296.041 241.807V241.853V241.899C295.903 244.06 296.364 246.956 297.376 250.771C298.527 255.092 300.415 257.667 303.453 259.184C304.052 259.459 304.42 259.597 304.789 259.597C305.157 259.597 305.479 259.459 305.939 259.138C307.781 257.759 309.438 256.471 310.773 254.862C315.699 248.886 317.633 241.623 316.896 232.016C316.85 231.602 316.804 231.188 316.712 230.774C316.574 230.085 316.482 229.395 316.528 228.706C316.85 224.385 314.226 221.443 311.556 218.868C310.313 217.719 309.622 217.259 308.978 217.259Z" fill="#10100F"/>
<path d="M446.4 415.849C445.94 415.159 445.479 415.021 444.743 415.389C443.822 415.895 442.901 416.262 442.487 414.745C442.441 414.653 441.842 414.561 441.566 414.699C438.528 416.354 434.937 415.481 431.99 417.136C431.53 416.17 432.589 415.343 431.852 414.745C431.116 414.194 430.287 414.699 429.781 415.251C427.341 417.963 423.934 414.148 421.448 416.538C421.402 416.584 421.264 416.446 421.171 416.446C420.573 415.895 421.862 415.251 420.849 414.561C418.271 416.584 415.049 416.86 412.01 417.595C411.596 416.63 412.977 416.124 412.01 415.205C408.235 416.722 404.276 417.687 400.271 418.423C399.994 417.412 400.961 416.4 399.948 415.757C399.12 415.251 398.567 416.078 397.923 416.446C397.554 416.676 397.186 416.906 396.772 417.09C394.101 418.469 392.03 417.274 392.122 414.332C392.214 411.252 392.674 408.172 392.628 405.138C392.49 399.208 392.674 393.277 393.503 387.439C394.009 383.854 393.871 380.222 394.792 376.682C395.252 374.844 396.173 373.74 398.061 373.556C399.856 373.419 401.467 372.729 402.987 371.856C410.767 367.396 415.877 360.731 418.501 352.226C419.468 349.101 420.251 345.883 420.987 342.665C423.658 330.713 426.051 318.761 423.013 306.533C422.875 306.073 422.23 305.291 423.289 304.924C424.118 305.475 424.256 306.395 424.532 307.176C425.867 310.992 427.248 314.807 428.399 318.715C432.681 333.149 433.602 347.859 432.22 362.8C431.852 366.937 431.254 371.028 430.747 375.165C431.852 374.798 431.622 373.786 431.76 372.959C432.865 365.788 433.003 358.524 433.556 351.307C434.154 343.906 433.049 336.643 431.76 329.38C430.195 320.461 427.709 311.819 424.118 303.545C420.297 294.81 415.969 286.26 410.905 278.123C409.616 276.101 408.603 273.802 406.946 272.101C405.243 270.354 405.058 268.837 406.163 266.861C406.716 265.895 407.13 264.884 407.729 263.965C410.767 259.322 412.47 254.127 413.621 248.749C415.739 238.681 416.89 228.614 413.806 218.455C411.918 212.203 404.92 206.365 398.521 207.054C391.615 207.79 384.848 209.537 379.001 213.536C375.502 215.926 372.694 219.006 371.129 223.052C368.551 229.625 366.525 236.245 367.584 243.554C368.597 250.725 369.656 257.897 371.727 264.884C371.911 265.574 372.004 266.447 373.108 266.355C373.707 265.482 373.339 264.654 373.108 263.827C371.313 257.253 370.024 250.588 369.287 243.784C368.919 240.612 368.643 237.44 369.241 234.268C369.932 230.683 371.129 227.281 372.464 223.925C373.937 220.202 376.285 216.892 379.83 214.869C385.216 211.789 390.925 209.491 397.094 208.663C401.928 208.02 405.841 209.858 409.156 213.352C412.24 216.57 413.253 220.615 413.713 224.753C415.233 238.451 412.839 251.461 406.347 263.643C405.519 265.206 404.92 266.861 404 268.378C402.803 270.354 405.012 272.009 404.368 273.94C404.368 273.986 404.874 274.354 405.15 274.354C407.59 274.308 408.005 276.193 408.833 277.664C408.005 278.721 406.716 278.813 406.163 279.916C407.268 280.652 408.189 279.824 409.11 279.87C410.261 279.962 411.688 281.065 411.872 282.261C412.056 283.456 411.135 283.732 410.307 284.007C409.8 284.191 409.248 284.329 409.202 285.019C409.708 285.387 410.261 285.433 410.767 285.203C412.793 284.329 413.852 285.433 414.726 286.996C415.002 287.455 415.187 288.007 415.463 288.467C416.384 289.938 415.739 290.673 414.312 291.133C413.299 291.501 411.181 291.822 411.319 292.696C411.596 293.339 413.529 292.558 414.45 292.374C416.199 292.052 417.489 292.466 418.041 294.305C418.179 294.718 418.363 295.132 418.547 295.546C419.33 297.615 419.33 297.615 417.304 298.35C415.923 298.856 414.496 299.177 412.747 300.327C412.747 300.327 412.977 300.832 413.483 300.832C415.002 300.786 417.028 300.051 418.225 299.775C419.33 299.499 420.159 299.775 420.481 301.062C420.665 301.798 420.895 302.533 421.125 303.269C421.632 304.786 421.31 305.751 419.698 306.303C418.409 306.762 416.936 306.808 415.601 308.004C418.133 308.969 419.975 307.452 422.092 306.992C422.322 308.371 422.553 309.567 422.737 310.716C423.197 313.29 423.151 313.244 420.573 313.98C419.1 314.393 417.396 314.118 416.107 315.129C416.66 316.186 417.304 315.956 417.949 315.864C419.146 315.681 420.343 315.497 421.54 315.405C422.368 315.313 423.427 315.037 423.381 316.508C423.335 317.565 422.507 319.312 421.77 319.174C420.435 319.174 417.581 319.818 416.66 320.461C415.923 320.967 416.568 321.611 416.568 321.611C418.87 321.611 420.757 320.691 423.059 320.691C423.704 321.703 423.335 321.703 423.289 322.668C423.059 325.656 422.737 325.426 419.79 325.886C418.593 326.07 417.258 325.84 415.923 326.897C417.581 327.817 419.008 327.265 420.343 327.265C421.31 327.265 422.415 326.897 422.553 328.46C422.691 330.253 422 331.356 420.527 331.494C418.271 331.724 416.015 331.908 413.023 332.23C413.023 332.23 412.609 333.057 413.253 333.195C415.693 333.701 419.698 332.276 421.678 333.241C421.31 337.194 421.31 337.194 417.627 337.746C416.199 337.976 414.772 338.114 413.391 338.344C412.609 338.482 411.734 338.436 411.273 339.677C414.312 339.493 417.396 339.355 420.711 339.171C420.343 340.826 419.975 342.389 419.652 343.86C416.752 344.136 412.839 343.033 409.8 343.354C409.156 343.4 409.11 344.274 409.11 344.274C411.964 345.515 416.89 345.929 419.376 345.193C419.146 346.204 418.962 347.216 418.732 348.227C418.455 349.468 417.903 350.112 416.522 350.112C413.069 350.066 409.8 351.169 406.393 351.445C405.841 351.491 404.966 351.307 405.012 352.364C409.064 353.192 413.069 351.261 417.12 352.043C417.489 354.157 416.292 354.893 414.588 355.169C410.215 355.95 402.342 355.49 401.375 356.778C401.514 357.743 410.583 357.651 415.187 356.548C415.233 357.007 415.325 357.283 415.279 357.421C414.174 359.03 413.069 360.639 411.918 362.248C409.018 361.42 401.099 361.512 401.099 362.524C401.099 363.535 408.281 363.581 410.721 363.857C410.399 364.317 410.03 364.73 409.708 365.19C408.88 366.201 407.729 367.167 406.117 367.259C402.388 367.488 396.081 367.213 392.352 367.396C390.971 367.488 392.26 368.822 392.26 368.822C392.26 368.822 399.672 368.73 403.954 368.868C404.23 369.511 403.907 369.741 403.631 369.833C401.053 371.028 398.475 372.223 395.575 372.591C392.858 372.913 390.096 373.143 387.472 373.878C381.165 375.625 374.904 375.763 368.551 374.43C358.929 372.407 353.358 366.661 353.266 356.318C353.174 348.733 353.773 341.148 353.865 333.609C353.957 325.38 353.957 317.152 354.371 308.923C354.878 298.396 358.146 288.742 363.118 279.502C365.19 275.687 368.09 272.515 370.576 269.021C370.991 268.47 371.819 267.964 371.083 267.091C370.438 266.999 369.932 267.275 369.656 267.688C366.939 271.688 363.809 275.365 361.231 279.502C358.33 284.145 357.318 289.662 353.819 294.075C349.767 299.177 349.123 305.843 347.512 311.957C346.269 316.738 345.9 321.703 344.934 326.529C344.151 330.299 343.46 334.068 343.644 337.93C343.69 338.987 343.322 339.815 342.586 340.596C340.928 342.297 340.652 344.733 341.757 346.388C343.506 349.009 342.447 350.847 341.204 352.962C340.468 354.203 339.685 355.398 339.041 356.64C336.877 360.823 334.345 364.822 332.826 369.281C331.352 370.385 330.938 372.131 330.294 373.648C327.9 379.349 324.999 384.727 322.283 390.243C319.705 395.484 316.897 400.541 315.009 406.103C314.457 407.666 314.134 409.505 312.385 410.976C311.925 407.528 312.247 404.356 312.799 401.322C314.273 393.002 315.516 384.635 316.344 376.223C317.403 365.742 318.738 355.261 320.303 344.871C321.869 334.482 323.388 324.047 324.999 313.658C325.644 309.383 326.519 304.97 330.248 301.89C331.629 300.74 332.227 299.04 333.056 297.523C335.634 292.788 334.253 288.421 332.043 284.099C331.399 282.858 330.662 282.536 329.143 283.18C323.802 285.616 320.396 291.684 321.27 297.752C321.593 300.097 322.237 302.303 324.355 303.683C325.552 304.464 325.69 305.475 325.368 306.808C323.986 312.233 322.79 317.657 322.237 323.266C321.639 329.242 320.534 335.172 319.383 341.102C317.956 348.503 317.771 356.134 316.298 363.581C315.516 367.442 315.7 371.442 315.147 375.395C314.365 380.82 313.812 386.29 313.168 391.76C313.076 392.496 313.168 393.369 311.602 393.507C311.602 390.611 311.787 387.761 311.556 384.957C310.728 374.89 310.221 364.776 309.761 354.709C309.623 351.951 309.853 349.193 309.577 346.48C308.84 339.907 308.564 333.333 308.518 326.759C308.472 315.451 308.564 304.096 307.551 292.834C306.676 283.18 307.597 273.48 306.999 263.827C306.861 261.896 307.597 260.517 309.116 259.322C314.641 255.139 317.679 249.622 318.83 242.727C319.705 237.532 319.567 232.475 319.199 227.327C318.968 223.695 317.587 220.891 315.101 218.271C310.221 213.076 309.577 213.444 304.052 217.719C300.738 220.293 299.08 224.155 297.331 227.787C295.397 231.694 293.51 235.739 294.062 240.382C294.476 243.646 294.569 247.002 295.305 250.174C296.272 254.357 297.515 258.494 301.935 260.609C302.579 260.931 303.085 261.62 303.592 262.172C305.94 264.516 305.894 267.55 305.894 270.492C305.894 275.411 305.341 280.376 305.618 285.295C306.216 296.603 306.768 307.912 306.999 319.22C307.091 325.15 306.722 331.08 307.367 337.011C307.873 341.699 308.15 346.434 308.334 351.123C308.61 358.249 308.932 365.374 309.439 372.453C309.899 378.705 309.991 384.957 310.498 391.163C310.82 394.932 309.945 398.61 310.175 402.379C310.221 402.885 310.405 403.529 309.393 403.621C308.656 402.425 308.748 400.954 308.472 399.621C307.045 393.553 305.525 387.439 304.513 381.325C302.993 372.131 301.612 362.937 299.909 353.743C298.482 345.975 297.377 338.114 295.443 330.483C293.049 321.105 291.438 311.635 289.458 302.166C288.4 297.109 287.893 291.96 287.11 286.858C285.545 276.331 284.394 265.758 283.243 255.139C282.783 251.001 282.691 246.772 281.678 242.727C279.56 234.13 279.054 225.35 278.732 216.57C278.501 210.64 278.133 204.71 277.489 198.826C277.351 197.63 277.258 196.389 277.489 195.24C277.995 192.712 277.903 190.229 277.857 187.701C277.765 183.84 277.489 180.024 277.581 176.163C277.719 170.876 278.271 165.636 279.422 160.487C281.126 152.994 282.553 145.501 286.604 138.697C290.517 132.17 295.029 126.331 301.935 122.838C305.664 120.953 309.347 119.022 313.122 117.229C317.357 115.207 321.823 114.471 326.242 114.563C331.813 114.655 337.383 115.942 342.263 119.068C344.657 120.631 347.143 121.826 349.906 122.516C350.642 122.7 351.287 123.16 351.977 123.527C355.982 125.872 358.515 129.411 359.665 133.824C362.336 144.214 363.901 154.741 360.908 165.36C359.758 169.497 358.284 173.496 355.246 176.76C348.294 184.253 339.869 189.126 329.833 191.149C325.828 191.93 321.915 192.896 317.725 192.068C310.866 190.735 304.328 188.574 298.252 185.081C293.049 182.093 289.781 177.496 288.584 171.612C288.307 170.324 288.169 169.037 287.985 167.704C287.203 162.785 286.696 157.867 288.814 153.086C290.425 149.454 292.543 146.052 295.075 143.064C299.172 138.1 304.467 134.422 310.175 131.526C318.508 127.297 327.163 127.435 335.726 131.02C344.657 134.698 350.872 143.754 350.182 153.362C350.044 155.017 350.09 156.671 349.906 158.28C349.307 163.889 346.867 168.532 342.54 172.209C338.212 175.887 333.332 178.691 328.038 180.576C323.618 182.139 318.876 182.323 314.411 180.943C309.945 179.518 306.078 176.714 303.822 172.531C300.968 167.29 300.415 161.636 302.625 155.982C304.421 151.385 306.861 147.156 312.201 145.914C314.319 145.409 316.528 144.949 318.692 144.949C322.191 144.949 325.644 145.225 328.866 147.156C333.378 149.868 335.174 154.879 332.688 159.568C330.34 163.981 326.979 167.336 322.191 169.083C320.442 169.727 318.876 169.589 317.633 168.256C315.93 166.509 314.687 164.44 314.319 161.958C314.088 160.487 314.365 159.062 315.101 157.821C316.022 156.258 317.817 156.166 318.922 157.545C319.383 158.142 319.567 158.924 319.935 159.568C321.086 161.314 323.664 162.28 325.414 161.59C326.749 161.085 327.025 159.981 326.472 157.269C325.874 154.235 324.493 153.362 321.593 154.143C320.672 154.419 319.797 154.603 318.738 154.511C315.239 154.143 313.49 155.614 312.523 159.016C311.418 162.877 313.306 165.865 315.239 168.807C317.265 171.841 318.83 172.163 322.283 170.922C327.623 168.991 331.491 165.406 334.069 160.441C335.174 158.326 335.726 156.028 335.404 153.5C334.621 147.615 329.281 144.398 324.171 143.432C320.211 142.697 316.298 143.248 312.385 144.03C308.242 144.857 305.203 147.248 303.178 150.879C302.303 152.534 301.52 154.235 300.876 155.982C297.101 165.727 301.29 176.898 310.82 181.817C316.805 184.897 323.02 183.794 329.097 182.093C332.365 181.173 335.312 179.288 338.212 177.496C342.355 174.967 346.13 171.979 348.57 167.612C351.517 162.326 351.977 156.579 351.839 150.695C351.793 148.719 351.793 146.604 351.01 144.857C348.939 140.766 346.867 136.767 343.46 133.87C334.207 126.102 323.71 124.952 312.431 128.354C308.656 129.503 305.756 132.032 302.533 134.1C295.443 138.697 290.655 145.087 287.018 152.488C285.821 154.879 285.361 157.453 285.269 160.119C285.177 164.44 285.914 168.67 286.696 172.853C287.617 177.726 290.149 181.817 294.2 184.851C296.226 186.368 298.528 187.425 300.738 188.62C311.51 194.413 322.651 195.102 334.253 191.7C340.376 189.908 345.762 186.828 350.734 182.92C357.041 178.001 360.862 171.658 362.612 163.751C363.901 158.05 363.809 152.442 363.256 146.742C362.934 143.018 362.566 139.295 361.691 135.663C360.632 131.342 359.067 127.343 355.798 124.079C353.312 121.597 350.412 119.942 347.143 118.792C344.381 117.827 341.619 116.816 338.903 115.758C333.608 113.69 328.038 112.632 322.145 113.184C317.403 113.644 313.168 115.345 308.978 117.229C304.467 119.252 300.001 121.505 296.088 124.539C288.722 130.193 284.256 138.1 281.218 146.65C278.133 155.476 276.798 164.716 276.154 174.094C275.647 181.449 276.2 188.804 275.831 196.205C275.693 198.412 275.785 200.618 276.108 202.779C276.706 207.146 276.614 211.559 276.936 215.926C277.397 222.27 277.719 228.614 278.501 234.958C279.1 239.877 280.711 244.565 280.895 249.576C280.988 252.426 281.218 255.276 281.54 258.127C282.231 263.873 283.059 269.619 283.75 275.411C284.578 281.847 285.315 288.283 286.144 294.672C287.341 303.591 289.643 312.325 291.438 321.151C292.819 327.909 294.523 334.62 295.812 341.378C297.975 353.146 300.231 364.868 302.165 376.682C302.671 379.762 303.039 382.888 303.27 386.014C301.658 384.129 300.922 381.831 300.093 379.624C296.226 369.373 292.681 358.938 289.136 348.549C285.867 338.987 281.908 329.701 278.409 320.232C274.036 308.371 268.419 297.063 261.56 286.444C258.015 280.928 254.608 275.227 249.774 270.63C247.933 268.883 247.334 266.723 247.61 264.057C248.025 259.827 248.301 255.506 247.979 251.231C247.472 244.382 246.275 237.716 243.513 231.418C241.487 226.775 238.127 223.511 233.247 221.856C230.761 221.029 228.09 220.615 225.743 219.374C224.361 218.639 223.395 219.374 222.658 220.431C220.909 223.098 219.113 225.764 218.469 228.982C217.594 233.625 217.088 238.36 217.64 243.094C218.1 247.186 219.113 251.047 221.829 254.357C223.072 255.874 223.993 257.667 225.098 259.322C225.512 259.965 225.881 260.609 226.525 261.115C231.635 264.7 236.792 268.194 242.73 270.446C244.342 271.044 245.493 271.182 246.505 269.527C247.38 271.412 248.715 272.377 249.958 273.434C251.063 274.4 251.938 275.457 252.859 276.56C255.989 280.146 258.061 284.421 260.777 288.237C267.314 297.339 271.366 307.636 275.831 317.795C277.627 321.932 278.778 326.3 280.481 330.437C284.763 341.102 289.09 351.813 292.727 362.754C294.845 369.097 296.732 375.533 299.402 381.693C301.336 386.06 303.27 390.519 304.375 395.254C305.756 401.092 307.229 406.93 308.656 412.769C308.84 413.504 308.978 414.286 309.024 415.067C309.116 415.803 309.669 416.584 308.886 417.687C305.019 410.93 301.52 404.402 298.85 397.415C297.239 393.231 295.673 389.048 293.187 385.187C290.84 381.509 288.077 378.016 286.558 373.832C283.474 365.466 277.857 358.616 272.701 351.583C268.788 346.296 264.644 341.194 260.869 335.769C259.58 333.885 258.797 331.908 258.475 329.747C257.554 324.139 253.365 320.737 247.656 320.875C245.539 320.921 244.204 321.887 243.237 323.725C240.981 328.368 243.605 334.758 249.314 336.137C251.017 336.551 252.767 336.827 254.47 337.057C255.161 337.148 255.805 336.873 255.805 335.999C255.805 335.264 255.114 335.218 254.608 335.126C253.411 334.942 252.214 334.896 251.017 334.712C246.966 334.114 244.065 330.759 244.204 326.759C244.296 323.817 246.505 322.024 249.36 322.944C252.628 323.955 255.575 325.794 256.035 329.472C256.496 333.333 258.291 336.183 260.731 339.125C266.394 345.975 271.55 353.238 277.028 360.271C279.975 363.995 282.507 367.948 284.394 372.315C286.052 376.131 288.077 379.762 290.333 383.302C293.74 388.589 296.456 394.197 298.574 400.127C299.863 403.759 301.29 407.298 303.132 410.7C304.19 412.585 305.618 414.423 305.756 416.768C303.454 414.837 301.382 412.723 299.264 410.7C296.41 407.988 293.602 405.138 290.471 402.747C288.584 401.322 286.512 400.035 284.532 398.61C278.824 394.519 273.161 390.335 266.9 387.072C265.749 386.474 265.105 385.968 265.335 384.589C265.657 382.796 264.552 382.015 263.033 381.555C260.547 380.774 259.718 381.141 257.6 383.946C255.575 386.612 256.035 387.899 259.258 388.818C260.133 389.048 260.961 389.186 261.79 388.634C262.25 388.359 262.757 387.853 263.309 388.175C265.519 389.462 268.189 389.462 270.353 390.841C277.028 395.116 283.612 399.483 289.781 404.448C293.786 407.666 298.067 410.654 301.152 414.883C301.52 415.389 302.303 415.803 301.981 416.538C301.566 417.412 300.692 417.228 299.955 417.09C299.218 416.952 298.436 416.722 297.745 416.446C296.41 415.94 295.121 415.297 293.74 414.883C291.438 414.102 290.932 414.515 290.517 417.366C292.957 416.124 295.167 417.32 297.423 418.009C298.067 418.239 299.172 418.423 298.85 419.48C298.574 420.446 297.791 421.135 296.64 421.227C296.134 421.273 295.904 420.951 295.766 420.491C295.121 418.607 295.121 418.607 293.51 419.618C292.681 420.17 291.898 420.767 291.07 421.319C290.932 421.411 290.701 421.273 290.517 421.273C289.873 420.675 291.346 419.894 290.333 419.25C288.584 419.664 287.387 421.457 285.453 421.549C284.809 420.905 286.374 420.078 285.315 419.572C284.486 419.204 283.75 419.71 283.289 420.308C282.369 421.549 280.849 422.514 280.988 424.445C282.921 424.583 284.624 424.721 286.052 424.859C287.11 425.41 285.453 426.33 286.742 426.835C287.341 426.422 287.893 425.916 288.538 425.502C290.241 424.399 290.333 424.399 291.07 426.376C291.346 427.157 291.806 427.663 292.451 427.203C294.108 425.962 295.581 426.192 297.285 427.065C298.159 427.525 298.896 426.605 299.633 426.192C301.612 425.134 303.638 424.169 305.894 424.767C306.768 424.997 307.413 425.134 308.334 424.905C309.485 424.629 311.556 424.445 311.879 424.997C313.306 427.433 314.134 425.502 315.147 424.859C315.884 424.399 316.16 423.388 317.127 423.158C317.587 423.48 318.002 423.801 318.462 424.123C321.132 426.33 324.079 424.537 326.887 424.583C327.716 424.583 328.544 423.25 329.419 422.606C330.984 421.457 331.26 423.893 332.411 423.755C333.562 423.663 334.897 422.974 334.437 425.18C334.345 425.594 335.035 425.594 335.496 425.41C337.383 424.813 339.225 424.261 341.112 423.663C343 423.066 345.118 422.606 346.821 423.158C348.663 423.709 349.998 423.25 351.517 422.652C352.668 422.192 353.727 421.319 355.2 421.273C355.108 421.825 355.062 422.146 354.97 422.422C354.601 424.077 354.924 424.537 356.351 424.077C357.087 423.847 357.778 423.526 358.422 423.112C359.758 422.33 361.001 421.503 362.428 420.583C362.796 421.503 362.428 422.1 362.29 422.698C362.152 423.296 362.244 423.985 362.934 423.939C364.315 423.893 365.696 424.859 367.124 423.985C367.952 423.48 368.965 423.388 369.978 423.204C371.635 422.928 373.201 423.296 374.812 423.48C376.331 423.617 377.804 422.376 379.6 423.663C380.843 424.583 382.132 422.882 383.375 422.238C383.743 422.008 384.111 421.825 384.572 422.1C384.618 422.79 383.467 423.296 384.296 424.353C385.677 422.744 387.426 424.767 389.037 423.801C390.511 422.882 391.846 421.733 393.641 421.227C393.917 422.514 392.168 423.388 393.227 424.629C394.24 424.215 395.252 423.847 396.265 423.434C396.68 423.25 397.186 422.882 397.462 423.25C399.258 425.41 400.823 423.525 402.388 422.928C404 422.33 405.289 420.354 407.406 421.825C407.683 422.009 408.373 421.457 408.88 421.319C409.8 421.043 410.445 420.124 411.55 420.262C411.596 421.641 409.11 421.733 410.215 424.031C411.55 421.411 414.082 422.514 415.969 421.549C416.706 421.181 417.581 419.296 418.778 421.457C419.652 423.02 420.711 420.4 421.862 421.043C422.138 421.181 422.322 421.503 422.461 421.779C422.737 422.33 422.322 423.112 423.289 423.48C425.085 422.192 426.374 420.262 428.123 418.653C428.63 420.216 426.742 421.273 427.525 422.79C429.504 422.238 430.333 420.078 432.22 419.388C432.451 421.043 432.727 420.629 433.924 421.457C434.983 422.146 435.903 422.1 436.502 421.687C437.883 420.813 438.942 422.56 439.909 422.054C442.165 420.905 444.42 419.71 446.17 417.825C446.86 417.182 446.906 416.584 446.4 415.849ZM323.342 290.995C323.94 288.788 325.322 287.087 327.117 285.8C329.005 284.467 329.833 284.743 330.938 286.766C333.608 291.73 332.135 296.603 328.176 301.154C327.623 301.798 326.979 302.441 325.874 302.763C322.191 299.407 322.145 295.362 323.342 290.995ZM306.216 259.46C305.203 260.195 304.467 260.149 303.27 259.552C299.587 257.713 297.929 254.495 296.916 250.817C296.042 247.645 295.443 244.428 295.581 241.807C294.799 235.418 297.239 230.591 299.725 225.856C301.244 222.96 302.993 220.156 305.848 218.225C308.656 216.34 309.439 216.202 311.833 218.501C314.687 221.259 317.265 224.247 316.943 228.706C316.851 229.763 317.219 230.867 317.311 231.97C317.956 240.428 316.667 248.335 311.096 255.139C309.715 256.839 307.965 258.173 306.216 259.46ZM246.229 255.598C246.137 260.195 245.907 263.597 245.539 266.999C245.401 268.47 244.71 268.883 243.329 268.424C239.462 267.091 235.595 265.895 232.602 262.907C232.372 262.678 232.096 262.448 231.82 262.31C227.676 260.057 225.374 256.15 222.888 252.38C220.218 248.427 219.159 243.968 219.205 239.279C219.251 236.751 219.389 234.222 219.712 231.74C219.896 230.131 220.356 228.522 220.955 226.959C222.796 221.856 224.085 221.397 229.195 222.914C237.712 225.396 242.316 231.096 244.204 239.555C245.447 245.209 246.505 250.909 246.229 255.598ZM263.355 385.692C263.033 387.301 261.514 386.336 260.731 386.934C259.672 386.888 258.844 386.474 259.074 385.417C259.258 384.359 259.764 383.256 261.145 383.302C262.25 383.348 263.539 384.727 263.355 385.692ZM353.312 298.396C351.149 312.785 352.253 327.357 351.425 341.791C347.88 338.39 347.88 338.39 344.473 338.39C343.967 333.379 350.32 303.591 353.312 298.396ZM345.21 340.596C346.407 340.182 347.374 340.734 348.11 341.607C348.939 342.573 349.353 343.676 349.307 344.504C349.307 346.94 346.591 349.009 344.657 348.549C344.565 348.503 344.381 348.549 344.335 348.457C343.46 347.032 342.678 345.607 342.816 343.86C342.954 342.251 343.737 341.102 345.21 340.596ZM365.558 406.287C365.282 408.815 365.282 411.344 365.19 413.872C365.052 416.538 364.499 416.722 361.829 417.182C359.389 417.595 356.673 416.722 354.417 418.607C353.266 419.572 352.622 419.158 351.839 417.182C351.563 416.446 351.103 416.538 350.55 416.63C348.202 417.09 345.992 417.917 343.46 417.503C341.895 417.274 340.974 419.158 339.363 419.756C337.89 416.86 335.081 418.055 332.734 417.779C331.859 417.687 330.984 417.871 330.109 418.055C329.051 418.239 328.038 418.699 327.531 417.136C327.255 416.354 326.288 416.216 325.552 416.17C322.237 415.986 318.784 415.205 315.884 417.595C315.193 416.906 315.7 416.446 316.022 416.078C318.784 412.952 321.04 409.413 323.618 406.103C324.539 404.908 325.736 403.85 326.795 402.747C327.163 402.379 327.531 401.92 328.176 402.058C330.708 402.563 329.833 400.679 329.971 399.483C322.928 403.621 319.383 411.206 313.306 416.768C312.707 414.883 313.536 413.504 313.996 412.217C317.357 402.333 321.915 392.91 326.288 383.486C328.498 378.751 331.076 374.154 332.688 369.143C334.575 367.58 335.266 365.236 336.371 363.167C338.028 360.225 339.455 357.145 341.665 354.617C342.355 354.755 342.54 355.123 342.494 355.582C341.895 364.914 342.033 374.246 342.263 383.578C342.263 384.451 342.355 385.325 342.494 386.198C342.586 386.704 342.678 387.393 343.414 387.301C344.013 387.209 344.335 386.612 344.243 386.06C343.092 380.498 344.013 374.89 343.598 369.281C343.23 363.811 343.829 358.294 344.381 352.824C344.519 351.629 344.98 350.939 346.13 350.296C347.926 349.33 349.86 348.549 351.471 347.032C351.471 351.031 351.287 354.847 351.517 358.616C351.839 363.581 353.773 368.04 357.272 371.626C359.205 373.602 361.783 374.936 364.453 375.533C367.354 376.177 367.308 376.82 367.446 379.67C367.63 388.634 366.479 397.461 365.558 406.287ZM390.879 411.206C390.741 414.148 390.879 417.182 386.736 417.779C385.539 417.963 384.71 419.388 383.099 419.526C383.237 417.595 382.592 417.044 380.474 417.274C378.495 417.457 376.469 417.182 374.397 417.549C372.28 417.917 370.346 418.423 368.597 419.618C368.228 419.848 367.768 419.986 367.216 419.572C367.538 418.331 369.103 418.239 369.518 417.136C369.518 416.446 368.965 416.492 368.597 416.63C366.985 417.228 366.755 416.446 366.755 415.021C366.755 408.861 367.308 402.747 368.09 396.633C368.551 392.956 368.919 389.232 368.781 385.463C368.689 383.164 368.551 380.866 368.919 378.567C369.103 377.372 369.333 376.866 370.714 377.004C375.502 377.372 380.29 377.418 385.032 376.039C387.334 375.395 389.774 375.211 392.168 374.844C393.733 374.614 393.733 375.763 393.641 376.728C393.411 379.808 393.273 382.888 392.72 385.876C391.385 393.599 390.971 401.368 390.925 409.183C390.925 409.918 390.925 410.562 390.879 411.206ZM437.561 419.572C438.436 418.561 439.356 417.549 440.507 416.216C439.955 418.653 439.955 418.653 437.561 419.572Z" fill="#10100F"/>
<path d="M426.65 399.345C426.005 399.069 425.775 398.61 425.683 398.288C425.545 397.828 425.591 397.276 425.867 396.771C427.479 393.829 428.123 390.565 428.676 387.347C428.906 386.014 429.182 384.635 429.504 383.302C430.103 380.911 430.195 378.383 430.333 375.946L430.379 375.303L431.3 375.257C431.99 378.934 431.346 382.52 430.701 386.014C430.609 386.428 430.563 386.887 430.471 387.301C430.057 389.645 429.458 392.036 428.86 394.334C428.63 395.3 428.353 396.311 428.123 397.276L428.077 397.506C427.939 398.104 427.801 398.747 427.156 399.253L426.926 399.437L426.65 399.345Z" fill="#10100F"/>
<path d="M426.235 397.001C425.867 397.644 425.913 398.518 426.834 398.931C427.432 398.472 427.478 397.828 427.663 397.185C428.445 393.875 429.412 390.611 430.01 387.255C430.701 383.348 431.576 379.394 430.839 375.395C430.701 378.107 430.609 380.819 429.964 383.44C428.859 387.991 428.583 392.772 426.235 397.001Z" fill="#10100F"/>
<path d="M430.333 375.257L430.241 374.843L431.346 374.521L431.3 375.165V375.257V375.395L430.379 375.441L430.333 375.257Z" fill="#10100F"/>
<path d="M430.839 375.395C430.839 375.349 430.839 375.303 430.839 375.257V375.211H430.793C430.793 375.257 430.793 375.303 430.839 375.395Z" fill="#10100F"/>
<path d="M390.971 228.2C390.695 228.2 390.28 228.108 389.912 227.602C389.267 226.729 388.715 225.81 388.899 224.614C388.991 223.419 389.406 222.546 390.096 221.948C390.557 221.58 391.109 221.351 391.661 221.351C392.628 221.351 393.457 221.948 393.779 222.868C394.24 224.201 392.858 227.465 391.615 228.016C391.431 228.108 391.201 228.2 390.971 228.2Z" fill="#10100F"/>
<path d="M391.431 227.602C392.49 227.097 393.733 224.109 393.365 223.005C392.95 221.764 391.431 221.396 390.418 222.27C389.728 222.868 389.452 223.695 389.359 224.706C389.175 225.718 389.682 226.545 390.28 227.327C390.602 227.74 391.017 227.832 391.431 227.602Z" fill="#10100F"/>
<path d="M381.257 227.051C381.119 227.051 381.027 227.051 380.888 227.005C379.093 226.637 379.093 225.074 379.139 224.063V223.971C379.185 222.132 380.106 221.029 381.579 221.029C382.131 221.029 382.592 221.213 382.96 221.626C383.467 222.132 383.697 222.914 383.605 223.925C383.559 225.718 382.546 227.051 381.257 227.051Z" fill="#10100F"/>
<path d="M381.625 221.488C380.428 221.488 379.645 222.408 379.599 224.017C379.599 225.12 379.507 226.315 380.98 226.591C382.131 226.821 383.098 225.58 383.19 223.879C383.282 222.408 382.684 221.488 381.625 221.488Z" fill="#10100F"/>
<path d="M383.421 243.554C383.237 243.554 383.052 243.554 382.776 243.554H382.73C382.408 243.554 382.086 243.508 381.809 243.508C381.073 243.416 380.612 242.91 380.612 242.221C380.658 241.531 380.981 241.026 381.579 240.796C381.994 240.658 382.454 240.566 382.914 240.566C383.375 240.566 383.881 240.658 384.434 240.796H384.48C385.032 240.934 386.183 241.255 385.907 242.589C385.677 243.508 384.848 243.554 384.341 243.6H384.203C384.065 243.6 383.927 243.6 383.789 243.6L383.421 243.554Z" fill="#10100F"/>
<path d="M381.119 242.221C381.119 242.726 381.395 243.002 381.902 243.048C382.316 243.094 382.776 243.094 382.776 243.094C383.513 243.094 383.835 243.094 384.157 243.094C384.664 243.048 385.308 243.094 385.492 242.45C385.723 241.577 384.94 241.393 384.342 241.209C383.513 240.979 382.638 240.887 381.763 241.209C381.349 241.347 381.119 241.761 381.119 242.221Z" fill="#10100F"/>
<path d="M442.118 152.718C442.118 152.81 442.118 152.856 442.118 152.948C442.118 152.856 442.118 152.764 442.118 152.718C442.165 152.672 442.118 152.718 442.118 152.718Z" fill="#10100F"/>
<path d="M442.118 152.718C442.118 152.81 442.118 152.856 442.118 152.948C442.118 152.856 442.118 152.764 442.118 152.718C442.165 152.672 442.118 152.718 442.118 152.718Z" fill="#10100F"/>
<path d="M375.901 309.071C377.539 307.69 379.589 307.453 381.545 307.325C388.75 306.899 392.909 300.543 391.48 292.685C390.551 287.668 383.98 285.228 379.293 288.097C373.754 291.498 375.359 295.815 378.959 299.433C379.75 300.245 381.952 299.875 382.638 299.032C383.383 298.165 383.271 296.167 382.396 295.321C382.071 295.042 381.593 294.895 381.268 294.616C380.692 294.234 380.108 293.752 380.374 292.981C380.656 292.169 381.348 291.671 382.162 291.71C382.792 291.723 383.495 291.913 384.106 292.211C387.058 293.71 387.375 299.747 384.733 301.792C381.23 304.511 376.403 303.418 374.241 299.508C370.878 293.399 372.987 287.279 379.378 284.422C382.712 282.952 385.69 283.192 388.779 284.356C391.014 285.22 392.897 287.064 393.781 289.085C396.728 295.854 395.105 303.295 389.481 307.979C387.04 310.009 384.078 309.97 381.271 310.386C380.33 310.539 379.298 310.556 378.299 310.49C377.25 310.55 376.21 310.467 375.901 309.071Z" fill="#6A437E"/>
</svg>
