<svg width="892" height="622" viewBox="0 0 892 622" fill="none" xmlns="http://www.w3.org/2000/svg">
<g clip-path="url(#clip0_1263_2141)">
<path d="M557.51 523.05C550.37 495.05 541.91 467.38 529.67 441.05C523.55 427.89 516.29 415.43 506.35 404.69C504.837 403.091 503.588 401.261 502.65 399.27C498.879 390.489 494.229 382.113 488.77 374.27C487.06 371.87 487.18 370.01 488.86 367.68C491.436 364.101 493.823 360.389 496.01 356.56C516.01 321.22 524.91 282.94 526.2 242.65C526.392 234.554 525.819 226.458 524.49 218.47C519.67 189.22 505.92 165.47 481.15 148.77C461.58 135.58 439.98 131.44 417.31 138.3C383.22 148.61 361.82 172.3 351.25 205.71C344.25 227.94 343.65 251.06 345.84 274.17C348.74 304.81 359.99 332.54 375.92 358.57C378.09 362.12 380.32 365.64 382.57 369.15C383.69 370.9 384.36 372.7 383.28 374.66C378.52 383.37 376.99 393.75 369.17 400.96C366.37 403.54 364.53 407.26 362.59 410.65C355.851 422.629 350.953 435.554 348.06 448.99C343.118 471.986 339.333 495.215 336.72 518.59C335.57 528.21 332.84 537.93 336.14 547.71C336.64 549.21 335.49 550.48 334.89 551.81C329.25 564.24 333.22 573.88 345.98 578.73C351.732 580.879 357.771 582.163 363.9 582.54C368.23 582.82 370.48 584.46 371.45 588.8C372.585 594.352 375.13 599.517 378.84 603.8C380.38 605.54 382.28 606.65 384.7 605.8C386.83 604.99 387.46 603.07 387.54 601.05C387.69 597.14 387.87 593.21 387.64 589.31C387.41 585.6 388.64 584 392.51 583.88C404.05 583.51 415.37 581.24 426.67 579.05C430.268 578.336 433.972 578.336 437.57 579.05C447.673 581.074 458 581.747 468.28 581.05C484.9 579.88 501.52 578.58 517.74 574.5C521.39 573.58 523.74 573.87 525.49 577.5C527.4 581.232 530.207 584.432 533.66 586.81C536.1 588.55 538.74 589.81 541.88 589.23C546.06 588.43 547.39 585.61 545.45 581.85C544.492 580.154 543.624 578.408 542.85 576.62C539.17 567.07 539.21 567.07 547.18 560.99C553.33 556.29 557.83 550.8 556.04 542.29C555.883 541.334 556.06 540.352 556.54 539.51C559.69 534.13 558.91 528.54 557.51 523.05ZM515.15 446.12C527.74 470.42 535.38 496.17 541.55 522.84C530.27 515.36 518.8 509.05 505.01 505.66C514.99 486.58 516.52 466.68 515.15 446.11V446.12ZM378.48 466.75C378.55 464.31 379.65 463.3 382.03 463.09C385.69 462.78 389.33 462.3 392.97 461.77C394.45 461.55 395.89 460.91 395.87 459.08C395.814 458.462 395.557 457.88 395.137 457.423C394.718 456.966 394.16 456.659 393.55 456.55C389.8 455.41 386.02 454.38 382.23 453.41C380.14 452.87 378.63 452.01 378.7 449.51C378.78 446.81 379.34 444.69 382.7 444.51C385.891 444.421 389.051 443.847 392.07 442.81C392.549 442.694 392.986 442.445 393.329 442.091C393.673 441.737 393.909 441.293 394.01 440.81C394.054 440.505 394.037 440.194 393.96 439.895C393.883 439.596 393.747 439.315 393.561 439.069C393.375 438.823 393.143 438.616 392.876 438.46C392.61 438.304 392.316 438.202 392.01 438.16C389.65 437.51 387.24 437.07 384.89 436.38C382.83 435.78 380.25 435.44 380.82 432.28C381.29 429.72 381.18 426.72 384.65 425.9C387.03 425.34 389.42 424.82 391.75 424.1C392.48 423.954 393.142 423.577 393.64 423.023C394.137 422.47 394.442 421.771 394.51 421.03C394.58 419.14 392.87 418.85 391.51 418.39C390.82 418.15 390.07 418.08 389.36 417.9C387.56 417.44 384.94 417.62 385.43 414.74C385.87 412.19 386.28 409.2 389.92 408.94C392.375 408.813 394.768 408.129 396.92 406.94C398.2 406.2 399.43 405.23 399.15 403.51C398.92 402.06 397.66 401.77 396.42 401.51C394.61 401.12 391.92 401.51 391.73 399.04C391.51 396.11 393.88 394.98 396.5 394.43C397.928 394.091 399.324 393.626 400.67 393.04C402.28 392.4 403.97 391.66 403.98 389.58C403.98 387.81 402.57 387.13 401.11 386.73C398.05 385.89 398.02 384.11 399.47 381.73C399.98 380.9 400.47 380.03 400.88 379.15C405.61 369.9 405.31 367.8 398.17 360.54C392.381 354.533 387.414 347.784 383.4 340.47C369.54 315.95 359.83 290.05 359.63 261.23C359.53 244.53 360.16 227.93 364.29 211.64C369.87 189.57 382.29 172.07 400.47 158.77C424.88 140.95 455.72 141.71 479.7 160.1C502.58 177.64 512.89 201.84 514.08 229.57C515.97 273.69 504.42 314.92 483.28 353.51C480.96 357.76 477.6 361.51 474.5 365.25C471.4 368.99 470.8 373.02 473.08 377.49C475.96 383.16 478.71 388.91 481.45 394.65C493.189 419.068 498.464 446.09 496.77 473.13C495.64 492.74 487.14 509.13 472.55 521.83C456.86 535.45 438.06 538.29 418.02 533.88C417.67 533.8 417.44 533.25 417.12 532.88C417.58 530.74 419.87 531.21 421.12 530.17C422.12 529.34 423.04 528.53 422.84 527.17C422.709 526.565 422.387 526.018 421.923 525.608C421.459 525.198 420.877 524.946 420.26 524.89C413.836 523.297 407.248 522.461 400.63 522.4C397.55 522.4 394.63 522.35 393.63 518.57C395.69 516.29 398.63 517.08 401.12 516.64C403.61 516.2 406.02 516.26 408.12 514.79C408.551 514.557 408.919 514.222 409.191 513.814C409.463 513.406 409.631 512.938 409.68 512.45C409.68 510.97 408.58 510.39 407.31 510.16C401.53 509.1 395.76 507.98 389.96 507.09C387.66 506.73 385.73 506.35 384.79 503.82C383.85 501.29 384.21 499.59 387.33 499.36C390.99 499.08 394.67 498.84 398.33 498.36C400.015 498.066 401.656 497.555 403.21 496.84C403.809 496.677 404.327 496.298 404.661 495.774C404.996 495.251 405.124 494.622 405.02 494.01C404.904 493.534 404.642 493.105 404.271 492.784C403.9 492.464 403.438 492.266 402.95 492.22C401.27 491.9 399.56 491.79 397.86 491.55C393.5 490.93 389.13 490.34 384.78 489.66C382.78 489.34 381.08 488.66 380.48 486.33C379.61 482.94 380.37 481.47 383.96 480.71C387.79 479.9 391.78 479.95 395.48 478.49C397.03 477.87 399.06 477.44 398.72 475.21C398.43 473.35 396.53 473.51 395.15 473.37C391.25 472.98 387.33 472.84 383.44 472.37C379.34 471.92 378.37 470.59 378.48 466.75ZM346.97 532.75C347.05 515.06 349.97 497.68 353.07 480.34C355.15 468.79 356.75 457.14 360.07 445.85C360.89 443.12 361.39 440.21 364.14 436.35C363.33 469.83 365.25 501.24 386.14 529.56C372.36 531.08 359.72 532.56 348.74 539.24C346.07 537.16 346.97 534.8 346.97 532.77V532.75ZM387.33 570.31C386.33 570.31 385.33 569.97 385.57 568.73C385.72 567.99 386.63 567.87 387.35 567.98C388.07 568.09 388.73 568.31 388.78 569.4C388.68 570.05 388.05 570.35 387.33 570.33V570.31ZM515.23 563.7C507.761 565.881 500.093 567.308 492.34 567.96C488.43 569.53 484.41 569.71 479.14 569.24C481.134 567.39 483.782 566.409 486.5 566.51C495.66 563.98 504.42 560.39 513.18 556.77C514.99 556.02 517.24 554.12 518.69 557.35C520.14 560.58 519.12 562.53 515.23 563.72V563.7ZM535.71 552.9C533.9 550.74 534.03 547.9 533.18 545.41C530.76 538.35 526.02 535.94 518.87 538.17C518.398 538.291 517.937 538.448 517.49 538.64C492.49 550.64 465.32 554.95 438.77 561.64C425.001 565.207 410.468 564.457 397.14 559.49C391.182 557.236 384.911 555.917 378.55 555.58C371.4 555.32 368.8 556.73 367.99 563.58C367.46 567.98 365.8 568.85 361.89 568.25C357.54 567.59 353.08 567.36 349 565.57C343.63 563.22 342.61 558.94 346.27 554.37C349.4 550.46 353.64 547.97 358.08 545.83C370.86 539.66 384.52 539.21 398.31 539.95C399.996 540.223 401.621 540.792 403.11 541.63C430.5 554.01 470.46 550.74 494.48 521.06C496.48 518.55 498.38 517.06 501.9 518.4C515.72 523.86 528.4 531.09 538.68 541.99C543.86 547.51 543.18 549.57 535.71 552.92V552.9Z" fill="#10100F"/>
<path d="M458.42 332.65C452.2 332.58 447.26 331.01 443.79 326.27C442.79 324.89 441.86 323.27 443.17 321.61C444.48 319.95 446.23 320.61 447.84 321.31C448.5 321.6 449.12 322 449.78 322.31C458.25 326.19 463.53 325.31 470 318.48C472 316.33 473.83 314.48 476.73 316.58C478.95 318.17 479 321.7 476.63 324.42C471.71 330.05 465.17 332.35 458.42 332.65Z" fill="#10100F"/>
<path d="M415.82 334.13C409.05 334.2 405.18 332.31 401.95 329.07C401.025 328.258 400.302 327.241 399.839 326.101C399.375 324.96 399.184 323.727 399.28 322.5C399.54 320.02 400.91 318.95 403.28 320.08C404.338 320.685 405.316 321.421 406.19 322.27C412.87 327.81 417.58 327.77 424.19 322.08C425.3 321.13 426.27 320 427.43 319.08C429.17 317.75 431.07 317.56 432.75 319.15C433.491 319.819 433.955 320.741 434.052 321.734C434.148 322.728 433.869 323.721 433.27 324.52C432.211 326.155 430.894 327.607 429.37 328.82C425.48 331.895 420.763 333.743 415.82 334.13V334.13Z" fill="#10100F"/>
<path d="M432.63 191.45C439.15 191.11 445.3 191.36 451.21 193.1C471.59 199.1 482.45 217.32 472.52 237.69C470.668 241.721 467.876 245.248 464.379 247.976C460.881 250.705 456.78 252.554 452.42 253.37C439.829 255.997 426.718 254.233 415.27 248.37C400.43 241.04 398.56 224.45 411.55 214.29C420.39 207.38 431.01 205.44 442.1 207.29C447.46 208.16 450.89 211.57 452 216.88C453.21 222.64 451.68 227.57 446.63 231.05C444.01 232.86 441.44 234.81 438.12 235.12C436.12 235.32 434.05 235.01 433.12 232.9C432.19 230.79 433.37 229.09 435.12 227.9C437.54 226.25 440.35 225.18 442.28 222.85C444.97 219.61 444.28 216.92 440.36 215.53C433.55 213.11 421.49 216.53 416.74 222.32C412.91 226.96 413.74 233.53 419.42 235.94C430.87 240.83 442.88 243.54 455.11 238.94C465.49 235.04 472.55 219.51 461.65 208.61C458.27 205.23 454.35 202.61 449.75 201.66C433.89 198.49 418.58 199.66 404.56 208.66C392.43 216.48 392.02 231.17 394.97 241.51C396.41 246.51 400.76 250.13 405.19 252.72C420.49 261.63 436.94 265.83 454.52 261.85C464.42 259.61 473.38 254.85 479.58 246.33C487.94 234.92 488.65 222.56 481.64 210.46C473.64 196.6 461.41 187.3 446.19 182.32C439.55 180.14 432.63 180.78 425.81 181.9C422.67 182.41 419.55 183.05 416.4 183.47C415.67 183.642 414.903 183.541 414.243 183.186C413.583 182.83 413.077 182.244 412.82 181.54C412.29 179.95 413.21 178.65 414.47 177.79C420.752 173.403 428.318 171.235 435.97 171.63C462.61 172.81 481.08 186.89 492.46 210C501.77 228.89 497.27 251.79 477.67 265C461.32 276 444.24 279.3 425.33 273.95C415.61 271.2 406.19 267.95 397.96 261.86C388.68 254.97 383.81 245.86 383.44 234.32C383.35 231.63 383.38 228.93 383.44 226.24C383.67 215.97 388.02 207.86 396.36 201.91C407.32 194.05 419.51 190.42 432.63 191.45Z" fill="#ACDCDD"/>
<path d="M226.11 547.32C224.77 544.67 223.62 542.15 223.63 539.03C223.849 518.102 218.566 497.483 208.31 479.24C203.369 470.202 197.91 461.457 191.96 453.05C179.22 435.4 166.03 418.05 156.13 398.51C154.136 394.57 151.739 390.847 148.98 387.4C146.17 383.91 146.66 381.4 149.06 377.78C162.9 356.89 172.29 334.24 175.61 309.2C177.319 296.08 178.32 282.877 178.61 269.65C179.066 258.136 178.345 246.607 176.46 235.24C169.24 194.05 147.35 164.05 108.04 148.37C79.43 136.98 53.38 141.79 30.86 163.68C18.74 175.46 10.3 189.29 6.07001 205.5C-3.75999 243.15 -1.68999 280.22 12.63 316.5C21.25 338.34 33.8 357.9 48 376.43C50.83 380.11 51.12 382.9 48.6 386.78C40.87 398.69 33.53 410.85 25.88 422.78C21.659 429.379 17.8807 436.25 14.57 443.35C3.76001 466.54 1.02001 491.24 0.240012 516.35C-0.119988 527.9 1.54001 539.35 2.73001 550.76C3.18001 555.09 4.63001 559.57 9.08001 560.66C13.84 561.83 16.47 564.86 19.36 568.15C21.97 571.15 25.42 573.04 28.86 574.98C32.71 577.15 38.33 576.65 40.71 580.17C43.09 583.69 43.38 588.96 44.82 593.36C46.12 597.3 47.42 601.3 50.08 604.62C51.38 606.23 53.08 607.39 55.2 606.62C57.03 605.92 57.26 604.04 57.2 602.26C57.14 597.61 57.13 592.96 56.97 588.26C56.76 581.73 56.72 581.69 63.1 582.08C79.04 583.08 94.93 583.01 110.66 579.79C114.29 579.133 118.021 579.297 121.58 580.27C142.72 585.44 164.09 587.27 185.73 584.39C188.96 583.96 190.73 584.98 192.07 587.86C193.025 589.844 194.276 591.672 195.78 593.28C197.71 595.38 200.2 596.6 202.99 594.89C205.41 593.41 204.59 591.09 204.04 588.89C203.85 588.18 203.74 587.45 203.54 586.74C202.54 583.07 203.49 580.74 207.44 579.56C211.656 578.238 215.638 576.26 219.24 573.7C229.85 566.52 231.91 558.73 226.11 547.32ZM185.2 500.63C186.25 493.63 187.03 486.63 186.29 479.5C186.05 477.2 185.99 474.89 185.84 472.58L187.37 472.21C196.72 488.41 206.37 504.5 207.62 525.21C202.12 521.97 197.54 519.33 193.02 516.6C189.71 514.6 184.83 514.36 183.07 510.99C181.41 507.86 184.63 504.22 185.2 500.63V500.63ZM63.12 449.71C62.99 447.6 60.86 447.42 59.18 447.19C55.06 446.62 50.9 446.28 46.8 445.57C44.46 445.17 40.86 446.57 40.63 442.32C40.35 437.2 42.72 434.26 47.29 433.69C50.45 433.3 53.62 433.03 56.78 432.69C58.2432 432.572 59.6926 432.321 61.11 431.94C62.7 431.46 64.72 430.94 64.48 428.76C64.29 426.97 62.48 426.86 61.05 426.64C57.66 426.13 54.27 425.64 50.87 425.15C48.1 424.78 47.6 423.36 48.93 421.15C52.55 415.08 55.59 408.24 64.52 408.89C65.0136 408.914 65.5062 408.825 65.96 408.63C67.66 407.92 70.26 408 70.11 405.35C70 403.29 67.84 403.04 66.26 402.48C65.12 402.07 63.95 401.78 62.31 401.3C63.17 396.94 65.91 393.75 67.82 390.23C72.25 382.04 71.7 381.94 66.36 374.82C43.85 344.76 21.61 314.48 15.57 275.9C11.64 250.83 12.37 226.11 20.8 201.9C25.4194 188.596 33.696 176.864 44.68 168.05C58.31 156.91 73.79 152.46 91.36 155.87C108.111 158.986 123.464 167.275 135.26 179.57C154.85 199.74 163.89 224.23 164.63 252.05C165.095 272.157 163.52 292.26 159.93 312.05C156.36 332.31 148.13 350.9 138.01 368.66C129.01 384.44 130.57 382.2 137.53 396.04C144.03 408.94 151.23 421.49 156.72 434.89C163.66 451.82 168.25 469.24 167.9 487.71C167.803 491.626 167.395 495.528 166.68 499.38C166.053 503.243 164.638 506.937 162.524 510.231C160.41 513.525 157.641 516.35 154.39 518.53C132.16 534.34 108.22 535.76 82.98 527.93C82.0798 527.44 81.2407 526.846 80.48 526.16C84.48 524.88 87.79 523.98 90.95 522.74C92.75 522.03 94.78 520.8 94.4 518.51C93.94 515.71 91.4 516.6 89.61 516.65C81.53 516.9 73.48 515.45 65.38 516.3C61.25 516.73 59.48 513.78 57.78 510.8C59.3 508.49 61.45 509.26 63.25 509.05C68.35 508.46 73.48 508.05 78.58 507.45C80.48 507.21 82.87 506.78 82.73 504.22C82.61 502.14 80.42 502 78.73 501.72C71.251 500.373 63.6693 499.677 56.07 499.64C49.5 499.64 49.5 499.71 47.4 492.16C51.29 490.81 55.46 491.16 59.4 490.5C62.79 489.92 66.19 489.5 69.28 487.84C70.77 487.05 72.73 486.27 72.28 484.21C71.81 481.83 69.62 482.53 68.03 482.68C61.15 483.35 54.33 482.59 47.5 481.91C45.29 481.7 43.18 481.45 42.5 478.59C41.71 475.28 42.24 474.11 45.65 473.75C50.52 473.23 55.4 472.88 60.28 472.45C62.2475 472.43 64.184 471.957 65.94 471.07C66.3894 470.876 66.7695 470.551 67.0302 470.136C67.2908 469.722 67.4198 469.239 67.4 468.75C67.3296 468.263 67.1036 467.812 66.7557 467.464C66.4079 467.116 65.9569 466.89 65.47 466.82C63.07 466.35 60.65 465.94 58.22 465.64C53.85 465.09 49.47 464.52 45.08 464.19C41.63 463.94 39.72 462.77 39.67 458.88C39.61 454.71 42.29 454.99 45.02 454.72C49.65 454.26 54.28 453.72 58.87 453.03C60.86 452.69 63.29 452.31 63.12 449.71ZM18.51 541.78C15.7 539.59 15.63 536.78 15.2 534.32C10.53 507.44 13.82 481.19 21.67 455.32C21.7393 454.874 21.975 454.472 22.3295 454.193C22.684 453.915 23.1309 453.782 23.58 453.82C23.47 481.48 32.87 505.57 52.8 526.99C38.76 528.23 27.39 532.19 18.51 541.78ZM53.89 564.46C55.3457 564.497 56.7965 564.644 58.23 564.9C59.59 565.31 60.88 565.96 62.5 566.63C57.88 567.99 57.88 567.99 53.89 564.46ZM188.07 566.72C188.07 574.39 188.01 574.41 180.71 575.13C168.57 576.475 156.32 576.475 144.18 575.13C142.3 574.9 140.25 575.21 138.68 573.69C141.68 571.47 175.17 560.88 187.68 558.23C188.76 561.37 188.07 564.05 188.07 566.72ZM207.51 568.05C205.83 568.97 204.19 570.22 201.77 569.31C200.51 564.39 200.77 559.19 201.51 554.2C202.78 545.71 197.3 540.34 188.51 544.08C168.36 552.66 146.74 556.3 126 562.9C111.52 567.5 97.48 568.2 82.91 563.21C72.04 559.49 60.91 556.6 50.49 551.57C43.49 548.2 39.76 550.39 39.02 558.01C38.86 559.67 39.55 561.45 38.02 563.26C33.62 562.79 30.02 560.38 26.87 557.26C23.72 554.14 23.71 551.65 26.46 548.18C29.8531 543.927 34.4717 540.82 39.69 539.28C51.69 535.61 63.79 535.04 75.69 539.37C96.56 546.96 117.69 548.46 139.18 542.69C150.44 539.69 160.76 534.61 169.37 526.69C172.43 523.86 174.94 523.69 178.46 525.53C191.13 532.27 202.85 540.12 211.31 552.01C217.14 560.12 216.38 563.16 207.51 568.05Z" fill="#10100F"/>
<path d="M147.27 457.23C147.186 463.113 146.298 468.958 144.63 474.6C141.77 484.48 135.02 490.42 125.08 492.36C115.14 494.3 107.08 490.77 100.38 482.98C89.77 470.58 93.54 450.16 103.91 440.98C112.39 433.46 125.11 435.91 129.64 446.23C132.18 452.01 132.92 457.98 130.79 464.11C129.857 467.184 127.833 469.812 125.1 471.5C120.55 474.22 115.31 473.68 112.37 470.2C109.71 467.06 109.56 458.65 112.11 455.62C112.46 455.116 112.957 454.732 113.533 454.519C114.109 454.306 114.736 454.275 115.33 454.43C115.928 454.606 116.451 454.978 116.813 455.485C117.176 455.993 117.358 456.607 117.33 457.23C117.38 458.68 117.12 460.15 117.06 461.61C117 463.07 117.34 464.66 119.06 465.07C120.78 465.48 121.82 464.43 122.77 463.22C126.63 458.32 125.12 448.09 119.98 444.62C116.78 442.46 113.48 442.62 110.3 444.62C101.49 450.08 97.63 468.94 107.02 476.98C118.2 486.56 133.88 482.45 138.02 468.28C144.02 447.65 134.62 430.69 113.83 424.52C112.66 424.17 111.48 423.86 110.34 423.43C109.98 423.335 109.669 423.107 109.472 422.791C109.275 422.475 109.207 422.095 109.28 421.73C109.5 421.056 109.968 420.491 110.59 420.15C112.95 419.09 115.39 419.58 117.8 420.04C134.07 423.16 147.68 440.29 147.27 457.23Z" fill="#FBB189"/>
<path d="M86.83 332.57C84.9435 332.654 83.0751 332.171 81.4647 331.185C79.8543 330.199 78.5755 328.754 77.7925 327.036C77.0096 325.317 76.7583 323.404 77.0708 321.542C77.3834 319.679 78.2455 317.953 79.5466 316.584C80.8477 315.216 82.5282 314.267 84.3723 313.861C86.2164 313.455 88.1399 313.609 89.8957 314.304C91.6515 314.999 93.1594 316.203 94.2257 317.761C95.2921 319.32 95.8682 321.162 95.88 323.05C95.9213 324.272 95.7189 325.49 95.2846 326.633C94.8503 327.776 94.1928 328.821 93.3504 329.707C92.508 330.593 91.4976 331.302 90.3781 331.794C89.2586 332.286 88.0525 332.549 86.83 332.57V332.57Z" fill="#10100F"/>
<path d="M121.19 329.98C119.372 329.917 117.614 329.317 116.136 328.256C114.658 327.195 113.527 325.721 112.886 324.019C112.244 322.318 112.12 320.464 112.529 318.691C112.938 316.919 113.862 315.308 115.186 314.059C116.509 312.811 118.171 311.982 119.964 311.677C121.758 311.371 123.601 311.603 125.263 312.343C126.924 313.083 128.33 314.298 129.303 315.835C130.276 317.371 130.772 319.162 130.73 320.98C130.641 323.433 129.591 325.752 127.805 327.436C126.02 329.121 123.644 330.034 121.19 329.98V329.98Z" fill="#10100F"/>
<path d="M889.18 537.29C888.43 535.48 887.25 533.86 887.66 531.75C888.74 526.2 886.84 521.11 885.23 515.97C878.5 494.48 867.8 474.97 855.23 456.48C847.897 445.74 840.853 434.837 834.1 423.77C830.1 417.27 824.62 411.86 820.95 405.23C816.31 396.87 811.5 388.64 806.27 380.63C803.16 375.87 803.13 375.71 807.61 371.63C814.975 364.773 821.173 356.761 825.96 347.91C832.06 336.99 837.28 325.64 842.5 314.29C851.62 294.43 856.66 273.63 856.5 252.96C857.387 231.382 852.356 209.973 841.95 191.05C830.44 169.61 812.46 156.05 790.31 147.58C780.396 143.869 769.798 142.344 759.24 143.11C720.44 145.5 689.95 168.79 677.87 205.85C666.4 241.03 665.99 276.25 679.97 310.85C690.2 336.16 703.17 360.01 721.11 380.85C723.04 383.1 723.22 384.7 721.94 387.29C719.67 391.89 717.94 396.73 715.94 401.46C714.12 405.73 712.94 410.36 710.02 414.05C704.77 420.55 700.47 427.69 695.93 434.67C688.667 445.768 683.514 458.112 680.73 471.08C675.73 494.16 673.73 517.56 673.64 541.14C673.687 543.583 673.523 546.025 673.15 548.44C671.26 559.12 674.49 565.78 684.22 570.53C689.121 572.779 694.28 574.418 699.58 575.41C705.3 576.62 705.33 576.69 705.95 582.35C706.426 588.219 707.823 593.976 710.09 599.41C712.61 605.05 715.02 607.52 717.34 606.25C721.05 604.25 720.34 600.36 720.17 597.07C719.95 592.43 719.17 587.83 718.69 583.2C718.16 578.02 718.21 578 723.69 578.1C724.91 578.1 726.14 578.1 727.36 578.27C739.059 579.618 750.89 579.302 762.5 577.33C769.277 576.285 776.173 576.285 782.95 577.33C809.11 580.93 835.2 582.01 860.76 573.57C864.33 572.4 866.14 573.32 867.76 576.41C869.459 579.702 872.056 582.444 875.25 584.32C877.25 585.47 879.4 585.96 881.49 584.55C882.305 583.985 882.927 583.183 883.27 582.253C883.614 581.322 883.663 580.309 883.41 579.35C883.017 576.681 882.347 574.06 881.41 571.53C879.85 567.82 880.63 565.53 883.73 562.73C891.19 556.05 892.98 546.43 889.18 537.29ZM843.04 462.16C850.97 468.48 871.4 511.63 872.04 524.34C863.997 522.282 855.694 521.426 847.4 521.8C844.79 521.88 842.95 521.26 844.02 518C849.51 501.27 847.02 484.58 843.73 467.9C843.33 466.05 842.29 464.2 843.04 462.16ZM707.04 480.56C709.483 480.391 711.914 480.077 714.32 479.62C718.45 479.045 722.449 477.759 726.14 475.82C727.37 475.11 728.81 474.21 727.95 472.4C727.32 471.06 725.95 471.08 724.75 471.28C720.654 472.046 716.482 472.332 712.32 472.13C710.53 472 707.77 472.74 707.55 470.04C707.33 467.34 708.36 464.64 711.76 464.11C713.7 463.81 715.66 463.68 717.58 463.33C722.58 462.41 727.79 461.85 732.48 459.56C733.76 458.93 735.22 458.08 734.6 456.25C734.14 454.9 732.79 454.76 731.54 454.75C726.89 454.69 722.23 454.75 717.54 454.57C716.03 454.51 713.68 455.02 713.86 452.31C714.01 450.16 715.16 448.64 717.65 448.77C722.311 448.925 726.965 448.317 731.43 446.97C733.829 446.456 736.09 445.433 738.06 443.97C739.06 443.16 739.79 442.2 739.14 440.81C738.64 439.75 737.58 439.68 736.66 439.69C732.74 439.76 728.82 440.07 724.91 439.97C723.18 439.97 720.33 440.97 720 438.35C719.62 435.35 722.09 434.49 724.79 434.02C729.61 433.19 734.38 432.07 739.14 430.93C740.54 430.6 742.14 429.88 742.01 428.11C741.88 426.11 740.01 426.25 738.64 426.11C735.72 425.88 732.78 425.88 729.84 425.72C728.43 425.64 726.69 425.72 726.56 423.72C726.489 422.98 726.655 422.236 727.035 421.596C727.414 420.956 727.986 420.453 728.67 420.16C730.048 419.677 731.458 419.293 732.89 419.01C734.56 418.625 736.209 418.155 737.83 417.6C739.83 416.83 742.83 416.31 742.45 413.67C742.07 410.67 738.98 411.92 736.98 411.61C735.37 411.36 733.51 411.86 732.55 410.02C732.85 408.47 734 408.09 735.17 407.66C737.93 406.66 740.71 405.66 743.38 404.46C745.29 403.58 748.06 402.84 747.51 400.1C746.99 397.52 744.32 398.59 742.51 398.4C740.7 398.21 738.68 398.7 736.97 397.4C737.79 394.25 740.41 394.75 742.27 394.04C745.01 393.04 747.91 392.31 750.16 390.27C750.564 389.997 750.876 389.609 751.054 389.155C751.233 388.702 751.27 388.205 751.16 387.73C750.83 386.58 749.76 386.36 748.82 386.34C745.92 386.28 743.03 387.34 739.47 386.45C741.85 381.68 739.59 378.34 736.47 374.91C720.347 357.075 706.768 337.096 696.12 315.54C687.43 298.16 681.12 279.79 681.39 259.94C681.562 243.008 684.259 226.197 689.39 210.06C700.39 175.72 729.84 154.26 765.89 154.83C793.13 155.26 813.4 168.76 827.89 191.03C841.79 212.42 845.62 236.34 843.39 261.46C841.85 278.73 836.15 294.81 830.03 310.88C821.65 332.88 810.29 352.96 794.65 370.55C791.89 373.65 792.04 376.68 793.65 380.01C796.26 385.54 798.87 391.09 801.65 396.55C812.9 418.94 822.25 442.07 828.47 466.37C831.365 477.279 832.738 488.535 832.55 499.82C832.529 502.268 832.362 504.712 832.05 507.14C829.7 523.68 821.41 533.2 805.14 537.22C784.02 542.43 763.32 540.42 743.14 532.38C738.83 530.66 734.65 528.6 730.45 526.6C728.3 525.6 726.83 524.51 728.63 521.6C730.43 518.69 728.2 517.8 725.63 517.75C722.08 517.68 718.3 519.24 715.27 515.87C713.73 514.16 712.78 512.79 715.27 511.19C715.89 510.798 716.476 510.353 717.02 509.86C718.31 508.66 719.65 507.32 718.58 505.45C717.75 503.98 716.08 504.23 714.58 504.26C712.58 504.31 710.67 504.44 708.72 504.38C705.52 504.29 704.63 502.01 704.54 499.38C704.45 496.75 706.66 497.24 708.24 496.88C711.09 496.24 714.1 496.12 716.68 494.55C717.75 493.91 718.6 492.99 718.25 491.55C718.114 491.073 717.833 490.65 717.446 490.341C717.059 490.031 716.585 489.849 716.09 489.82C713.18 489.44 710.25 489.15 707.33 488.92C705.43 488.77 703.14 489.39 703.12 486.31C703.1 483.51 703.17 480.8 707.06 480.56H707.04ZM688.9 491.33C691.5 499.19 692.84 506.83 697.24 513.33C701.64 519.83 707.82 524.43 713.71 530.76C703.18 532.18 694.1 533.9 685.37 537.01C683.39 530.84 685.57 502.57 688.92 491.33H688.9ZM857.9 565.07C841.61 570.07 825 571.52 806.47 569.29C810.47 566.95 813.14 566.67 815.73 566.09C828.84 563.14 841.98 560.32 854.37 554.88C856.61 553.88 859.28 552.02 860.66 556.47C862.42 562.24 862.31 563.7 857.87 565.05L857.9 565.07ZM879.58 553.46C878.95 554.46 878.28 555.71 876.95 555.73C875.46 555.73 875.09 554.37 874.69 553.23C873.82 550.68 873.12 548.07 872.13 545.56C869.67 539.34 865.87 537.37 859.37 538.94C857.47 539.414 855.608 540.029 853.8 540.78C825.22 552.44 794.66 556.27 764.9 563.26C762.004 563.86 759.016 563.86 756.12 563.26C746 561.46 735.88 559.6 725.75 557.79C722.373 557.21 719.121 556.05 716.14 554.36C710.32 551.05 706.82 552.82 705.74 559.24C704.66 565.66 704.61 565.69 698.49 564.24C694.43 563.24 690.35 562.3 686.67 560.24C680.49 556.86 680.03 552.1 685.31 547.36C687.156 545.737 689.298 544.487 691.62 543.68C700.41 540.47 709.33 537.9 719.47 538.18C723.84 537.65 728.4 538.92 733.01 540.96C754.07 550.3 775.91 554.58 798.92 550.29C811.63 548.05 823.63 544.05 833.39 535.2C834.768 533.793 836.641 532.982 838.61 532.94C847.43 532.94 856.27 532.64 865 534.22C868.634 534.843 872.141 536.059 875.38 537.82C881.4 541.18 883.08 547.55 879.55 553.46H879.58Z" fill="#10100F"/>
<path d="M765.92 322.73C757.089 322.958 748.275 321.842 739.78 319.42C736.63 318.59 733.78 317.18 731.9 314.42C730.02 311.66 731.29 309.06 734.72 308.89C736.929 308.881 739.119 309.298 741.17 310.12C760.53 316.83 779.3 314.12 797.74 306.47C799.54 305.72 801.16 304.47 803.21 304.47C805.02 304.47 806.59 304.9 807.5 306.67C807.912 307.432 808.082 308.301 807.988 309.163C807.893 310.024 807.538 310.836 806.97 311.49C805.12 313.94 802.32 315.03 799.63 316.18C794.847 318.088 789.914 319.594 784.88 320.68C778.63 322.14 772.29 322.48 765.92 322.73Z" fill="#10100F"/>
<path d="M801.38 3.96011C801.21 2.25011 801.1 0.320118 798.9 0.0301178C796.7 -0.259882 795.9 1.44012 795.17 3.03012C794.31 4.79012 793.62 6.6301 792.9 8.4501C789.37 17.3101 786.72 26.5701 781.72 34.7901C779.72 38.0901 778.52 42.1701 774.99 44.2501C771.63 46.2501 768.37 43.6201 765.05 43.2501C753.65 41.9301 743.79 49.2501 742.63 59.4801C741.34 70.8701 752.63 82.2501 764.75 79.3001C770.3 77.9501 771.04 78.8601 769.18 84.2101C765.82 93.8801 762.77 103.73 754.18 110.64C750.64 113.5 751.42 117.93 755.24 120.56C758.75 122.97 762.24 122.3 765.55 120.14C769.058 117.846 771.933 114.706 773.91 111.01C780.91 97.8801 785.71 84.0101 785.21 68.9401C784.989 62.8249 786.287 56.7502 788.99 51.2601C795.67 37.2601 800.28 22.5601 801.36 8.05011C801.4 5.92011 801.48 4.93011 801.38 3.96011ZM765.63 56.4401C765.49 58.5501 761.31 61.5801 758.91 61.3801C758.498 61.3454 758.098 61.2221 757.738 61.0186C757.378 60.815 757.066 60.536 756.824 60.2008C756.582 59.8656 756.415 59.482 756.335 59.0762C756.255 58.6705 756.263 58.2522 756.36 57.8501C756.87 54.6001 759.29 53.6101 762.2 53.6701C763.97 53.7001 765.81 54.1301 765.63 56.4401Z" fill="#97ABE7"/>
</g>
<defs>
<clipPath id="clip0_1263_2141">
<rect width="891.11" height="622" fill="white"/>
</clipPath>
</defs>
</svg>
