<svg width="664" height="460" viewBox="0 0 664 460" fill="none" xmlns="http://www.w3.org/2000/svg">
<g clip-path="url(#clip0)">
<path d="M341.749 101.724C337.572 101.059 334.336 100.473 331.094 99.9913C329.901 99.7863 328.799 99.4837 328.905 97.598C329.072 96.1384 330.141 95.4912 331.75 95.9414C340.236 98.0188 348.718 98.6222 357.279 96.2853C360.596 95.4048 363.903 94.7339 367.152 93.532C368.38 93.1083 369.511 92.887 369.834 94.8085C370.094 96.3038 369.277 97.0776 368.141 97.4037C361.242 99.248 354.382 101.937 347.173 101.65C345.124 101.374 343.022 102.04 341.749 101.724Z" fill="#10100F"/>
<path d="M298.853 101.711C303.03 101.039 306.265 100.447 309.507 99.9606C310.699 99.7537 311.8 99.4492 311.693 97.5638C311.524 96.1046 310.455 95.4591 308.846 95.912C300.362 98.0036 291.881 98.6212 283.318 96.2987C279.999 95.4238 276.692 94.7585 273.441 93.562C272.212 93.1404 271.081 92.9211 270.761 94.8431C270.502 96.3387 271.32 97.1111 272.457 97.4353C279.357 99.2679 286.22 101.946 293.429 101.647C295.478 101.367 297.581 102.03 298.853 101.711Z" fill="#10100F"/>
<path d="M321.347 59.9244C323.75 59.7144 325.466 61.3947 325.552 63.8098C325.638 66.6449 323.75 68.8501 321.003 69.1652C318.772 69.3752 316.334 66.6258 316.7 64.1945C317.066 61.7631 317.868 60.2284 321.347 59.9244Z" fill="#10100F"/>
<path d="M244.492 792.652L244.58 791.868C244.667 790.997 244.841 790.04 245.625 789.256C249.547 784.902 252.772 779.939 255.909 775.063C257.478 772.713 259.047 770.187 260.702 767.836C262.271 765.573 264.014 763.222 265.67 761.045C267.5 758.607 269.33 756.169 271.073 753.644C274.821 748.246 278.481 742.76 282.141 737.362C283.71 735.098 286.935 730.309 286.935 730.309C287.283 729.787 287.632 729.351 287.545 728.829C287.458 727.174 287.458 725.433 287.458 723.779C287.458 721.08 287.37 718.206 287.109 715.507C286.935 714.288 286.586 713.94 285.453 713.853C284.843 713.766 284.146 713.679 283.623 713.591C283.1 713.504 282.577 713.417 282.054 713.33C279.788 713.156 278.22 711.763 277.348 709.238C276.477 706.626 278.655 704.71 279.44 703.927C281.27 702.359 283.361 701.402 285.715 701.053C286.935 700.879 287.283 700.444 287.109 699.312C286.935 698.093 286.935 696.961 286.935 695.742V695.394C286.847 692.782 286.847 690.169 286.76 687.557C286.586 681.201 286.412 674.671 286.412 668.228C286.412 663.874 286.586 659.433 286.673 655.167C286.847 649.769 287.022 644.109 286.935 638.624C286.935 636.36 286.935 634.009 286.847 631.745C286.847 625.128 286.76 618.162 286.237 611.458C285.889 606.843 285.802 602.054 285.715 597.526C285.627 594.74 285.627 591.867 285.54 589.08L285.366 584.292C285.104 576.281 284.756 567.922 284.146 559.738C283.972 557.735 283.797 555.732 283.536 553.817C283.187 550.595 282.839 547.199 282.751 543.891C282.751 541.975 282.577 539.973 282.403 538.057C282.229 536.228 282.054 534.4 282.054 532.572C281.967 527.957 281.183 523.342 280.398 518.901C280.05 516.725 279.614 514.461 279.353 512.197C279.178 511.152 278.743 510.804 277.784 510.194C275.431 508.801 272.729 507.93 270.115 507.06C268.807 506.624 267.413 506.189 266.019 505.667C261.225 503.838 257.826 501.139 255.473 497.482C253.818 494.957 251.639 492.867 249.547 491.039C245.277 487.208 241.617 482.854 238.653 477.978C237.52 476.15 236.736 474.234 235.952 472.319C235.516 471.274 235.08 470.229 234.644 469.184C232.117 463.699 229.328 457.952 226.54 452.031C225.407 449.593 224.709 447.242 224.622 444.804C224.535 442.54 223.925 440.451 223.315 438.187C222.443 434.878 222.182 431.482 222.008 428.087C221.921 427.303 221.921 426.606 221.833 425.823C221.485 421.818 221.31 417.812 221.049 413.72C220.788 410.15 220.613 406.58 220.352 403.01C220.178 400.746 219.829 398.483 219.393 396.219C219.132 394.651 218.87 393.084 218.609 391.43C218.522 392.823 218.347 394.303 218.26 395.696C217.999 398.57 217.737 401.53 217.824 404.49C217.999 409.541 217.912 411.979 217.824 413.981C217.737 416.767 217.65 418.77 218.173 425.562C218.435 428.87 218.26 432.179 218.086 435.401L217.999 436.62C217.737 440.886 217.912 441.496 218.086 442.192C218.26 442.976 218.435 443.672 218.26 448.026C218.173 451.16 218.173 452.292 218.173 453.424C218.173 454.643 218.26 455.775 218.086 459.345C217.912 462.131 218.086 464.918 218.173 467.704C218.26 470.055 218.435 472.493 218.347 474.844C218.347 476.15 218.26 477.456 218.26 478.762C218.086 483.551 217.999 488.514 218.26 493.39C218.609 498.353 218.609 503.49 218.696 508.366V510.891C218.783 515.331 219.132 519.859 219.393 524.213C219.829 529.611 220.265 535.271 220.09 540.843C220.003 543.63 220.003 543.63 222.792 543.891C225.145 544.152 227.324 545.11 229.328 546.068C230.2 546.503 231.071 546.851 231.943 547.199C233.163 547.722 234.122 548.68 234.47 549.986C234.993 551.64 234.644 553.556 233.599 555.123C231.594 557.996 228.457 558.954 225.929 559.651C224.884 559.999 223.751 560.086 222.531 560.347C222.182 560.434 221.833 560.434 221.398 560.521C221.398 560.87 221.398 561.131 221.398 561.479C221.31 563.046 221.31 564.439 221.921 565.92C222.095 566.268 222.269 566.964 222.182 567.661L222.095 568.009C221.921 569.054 221.746 570.708 219.742 570.796C217.65 570.796 217.389 568.793 217.302 567.922C217.127 566.703 217.127 565.484 217.127 564.352C217.127 563.569 217.04 562.785 217.04 562.001C216.866 559.999 216.866 559.999 214.949 559.912C214.251 559.912 213.554 559.825 212.857 559.738C211.985 559.651 200.743 555.123 201.004 553.643C201.789 548.593 207.192 543.368 212.16 543.02C212.421 543.02 212.595 543.02 212.857 543.02C213.293 543.02 213.728 543.02 214.077 542.933C215.907 542.41 216.169 541.975 216.256 539.885C216.343 535.88 216.081 531.788 215.82 527.87C215.646 525.432 215.471 522.82 215.384 520.294C215.21 515.593 215.123 510.717 215.036 506.102C215.036 504.012 214.949 502.01 214.949 499.92C214.949 498.353 214.861 496.785 214.861 495.305C214.774 491.822 214.687 488.252 214.687 484.77C214.687 482.419 214.774 480.068 214.774 477.804C214.861 474.06 214.949 470.229 214.774 466.485C214.513 461.261 214.513 458.648 214.6 455.862C214.6 453.511 214.687 451.073 214.6 446.807C214.513 443.063 214.426 441.147 214.338 439.754C214.164 437.316 214.164 436.445 214.338 429.741C214.426 427.477 214.338 425.126 214.338 422.775C214.338 421.382 214.251 420.076 214.251 418.683C214.251 414.678 214.251 412.501 214.164 410.934C214.077 407.973 214.077 406.754 214.338 399.615C214.426 397.612 214.426 395.522 214.513 393.52C214.6 389.514 214.687 385.422 214.949 381.417C215.123 379.153 215.297 376.802 215.559 374.538C215.907 371.316 216.169 367.921 216.256 364.612C216.343 358.517 216.953 352.335 217.563 346.327C218.086 341.538 218.522 336.488 218.783 331.612C218.783 331.438 220.265 312.021 223.751 301.225C225.232 296.784 226.365 292.256 227.411 288.338C228.457 284.333 230.2 280.502 231.681 277.28C232.204 276.148 240.396 258.908 242.837 255.338C243.708 254.119 244.405 252.639 245.103 251.333C245.451 250.636 245.8 250.027 246.148 249.33C248.85 244.367 252.946 240.71 256.955 237.14L258.349 235.922C261.923 232.7 266.019 228.956 270.725 226.257C272.381 225.299 273.862 224.515 275.431 223.906C279.353 222.513 282.316 219.726 285.104 216.853C284.32 216.156 283.623 215.373 283.274 214.241C282.054 210.41 280.398 206.666 278.655 203.009C278.22 202.138 277.871 201.267 277.435 200.397C274.821 194.563 272.381 188.294 270.202 181.676C269.417 179.326 268.372 176.975 267.326 174.798C266.629 173.405 265.931 171.924 265.321 170.357C263.143 165.133 260.702 159.212 258.872 153.204C258.001 150.331 257.129 147.458 256.345 144.584C255.125 140.492 253.905 136.225 252.597 132.046C249.721 123.339 248.24 114.197 248.066 105.054C247.978 101.397 247.804 97.5661 247.543 93.9962C247.368 91.4711 247.194 89.0332 247.107 86.5081C246.671 76.4079 246.933 64.5663 251.639 53.3342C253.033 50.0255 254.95 46.978 256.868 44.0176L257.478 42.9727C263.23 33.7432 271.248 25.6457 281.793 18.3317C287.283 14.5006 293.209 11.5402 298.787 8.84101C300.094 8.23151 305.41 4.66161 307.153 3.96505C310.814 2.57191 314.3 1.61414 317.873 1.00464C321.098 0.482216 324.322 0.221004 327.459 0.0468624C329.813 -0.127279 332.715 0.164528 335.334 1.25139C337.468 2.13724 338.838 2.12748 340.882 2.41951C342.926 2.71154 346.711 3.91048 349.935 4.17169C354.118 4.51997 356.688 4.80641 361.395 6.89611C362.44 7.33146 367.408 8.37631 368.628 8.89873C372.201 10.3789 375.426 12.2074 378.825 14.21C383.356 16.9092 387.017 20.9145 390.59 27.0965C395.645 35.8907 398.259 45.7297 398.433 56.4394C398.433 58.1808 398.608 59.9222 398.695 61.5765C398.956 65.1464 399.131 68.8905 398.608 72.5474C398.085 75.7691 397.736 79.0778 397.388 82.2123C397.213 84.2149 396.952 88.5682 396.952 88.5682C396.952 88.5682 396.69 97.9132 396.134 102.268C395.577 106.623 394.129 110.017 393.607 113.5C393.345 115.154 393.171 116.809 392.909 118.463C392.038 125.255 391.079 132.307 388.465 138.925C387.942 140.405 387.419 141.885 386.983 143.365C386.112 146.239 385.153 149.112 383.584 151.811C382.713 153.378 382.364 155.207 382.016 156.948L381.928 157.471C381.493 159.822 380.795 162.086 379.837 164.523C378.791 166.961 377.832 169.399 376.874 171.924C374.956 176.888 365.37 198.481 363.627 203.967C363.365 204.924 363.017 205.969 363.104 206.23C363.278 206.492 364.324 206.753 365.108 206.927C374.956 209.191 383.584 214.415 390.731 219.204C392.386 220.336 393.694 221.729 395.001 223.122C395.785 223.993 396.657 224.864 397.528 225.647C399.794 227.65 401.886 229.914 403.89 232.09L404.587 232.874C406.766 235.225 408.422 238.011 409.991 240.71L410.688 241.842C411.385 243.061 411.298 244.367 411.298 245.412C411.211 246.109 411.211 246.805 411.385 247.415C411.472 247.763 411.385 248.111 411.211 248.373C410.862 248.895 409.991 249.156 409.468 249.243H409.294C408.422 249.243 407.638 248.808 407.115 248.024C406.069 246.457 405.808 246.196 405.372 246.196C405.023 246.196 404.5 246.37 403.629 246.544L403.193 246.631C401.363 247.154 399.533 247.589 397.79 248.286C396.744 248.721 395.698 248.721 395.001 248.721C394.478 248.721 394.042 248.721 393.519 248.634C393.258 248.634 392.996 248.634 392.648 248.547C390.731 248.46 390.469 247.328 390.382 246.892C390.382 246.457 390.469 246.022 390.731 245.673C391.079 245.238 391.689 245.064 392.474 244.977C395.001 244.803 397.528 244.019 399.968 243.148C401.363 242.626 402.757 242.104 404.152 241.581L404.5 241.494C404.762 241.407 404.849 241.32 404.849 241.32C404.849 241.32 404.849 241.233 404.762 241.146C404.675 240.972 404.587 240.797 404.5 240.797C404.5 240.797 404.326 240.797 404.152 240.885C401.973 242.104 399.62 242.539 397.354 242.974C396.134 243.235 394.914 243.497 393.781 243.758C393.519 243.845 393.258 243.845 393.084 243.845C392.299 243.845 391.689 243.41 391.515 242.626C391.166 241.233 392.474 240.71 392.909 240.623C393.955 240.275 395.088 239.927 396.134 239.578C397.093 239.23 398.138 238.969 399.097 238.621L399.707 238.447C400.491 238.185 401.189 238.011 401.799 237.489C402.06 237.315 402.06 237.14 402.147 237.14C402.06 236.966 401.799 236.792 401.624 236.705C401.363 236.618 401.101 236.531 400.753 236.531C400.23 236.531 399.62 236.705 399.097 236.792C398.836 236.879 398.574 236.879 398.313 236.966C396.221 237.402 394.042 237.837 391.951 238.359L389.249 238.969C388.988 239.056 388.726 239.056 388.465 239.056H388.29C388.203 239.056 388.116 239.056 388.029 239.056H387.419C386.983 239.056 385.589 239.056 385.327 237.489C385.066 235.834 386.46 235.486 387.157 235.399C387.332 235.399 387.506 235.312 387.68 235.225C389.859 234.441 392.038 233.919 394.217 233.483C395.437 233.222 396.657 232.961 397.877 232.613C397.441 231.829 396.918 231.655 396.221 231.655C395.785 231.655 395.35 231.742 395.001 231.829C394.391 231.916 393.781 232.09 393.171 232.177C391.079 232.613 388.813 233.048 386.635 233.048C386.373 233.048 386.024 233.048 385.763 233.048C385.589 233.048 385.414 233.048 385.327 233.135C385.066 233.222 384.891 233.222 384.63 233.222C384.194 233.222 383.41 233.048 383.148 231.916C382.713 230.001 384.543 229.565 385.327 229.391C386.024 229.217 386.634 229.217 387.157 229.13C387.593 229.13 388.029 229.043 388.465 228.956C388.813 228.869 389.249 228.782 389.598 228.782C390.731 228.608 391.864 228.433 392.909 227.911C392.212 226.779 391.428 226.344 390.295 226.344C389.946 226.344 389.51 226.431 389.075 226.518L388.639 226.605C387.68 226.866 386.722 227.127 385.676 227.127C384.891 227.127 384.194 226.953 383.584 226.692C383.148 226.518 381.841 225.908 381.841 224.515C381.928 223.035 383.323 222.948 383.933 222.948H384.107C384.456 222.948 384.717 222.948 385.066 222.948C386.024 222.948 386.896 222.948 387.593 222.513C387.419 222.338 387.245 222.251 386.896 222.077C386.547 221.903 386.112 221.729 385.763 221.381C385.327 221.032 385.153 221.032 385.066 221.032C384.804 221.032 384.543 221.119 384.281 221.381C382.887 222.426 381.405 222.6 379.837 222.774C379.227 222.861 378.617 222.948 378.007 223.035C377.745 223.122 377.484 223.122 377.222 223.122C376.089 223.122 375.392 222.513 375.305 221.381C375.218 220.684 375.392 219.465 377.309 218.943C377.658 218.856 378.007 218.769 378.442 218.681C379.14 218.507 379.75 218.42 380.36 218.072C379.924 217.637 379.488 217.462 378.878 217.462C378.53 217.462 378.181 217.55 377.745 217.637C376.874 217.898 375.915 218.333 375.044 218.681L374.608 218.856C374.346 218.943 374.085 219.117 373.823 219.204C373.475 219.378 373.126 219.552 372.69 219.726C372.08 219.9 371.035 220.336 369.989 220.336C368.507 220.336 367.984 219.552 367.723 219.117C367.461 218.594 367.461 218.072 367.723 217.637C368.071 216.853 369.03 216.505 369.902 216.244C370.25 216.156 370.512 216.069 370.773 215.895C371.122 215.721 371.558 215.547 371.993 215.46C372.603 215.286 373.126 215.112 373.562 214.676C372.603 213.98 372.08 213.631 371.645 213.631C371.209 213.631 370.773 213.893 369.902 214.676C369.03 215.46 368.072 215.808 366.851 215.808C366.241 215.808 365.718 215.721 365.196 215.634C364.673 215.547 364.237 215.46 363.714 215.46C363.54 215.46 363.365 215.46 363.278 215.46H363.104C362.668 215.46 362.32 215.199 362.058 214.85C361.797 214.328 361.971 213.544 362.407 212.935C363.017 212.238 363.714 211.977 364.411 211.716C364.847 211.542 365.196 211.542 365.544 211.542H365.631C364.063 211.019 362.407 210.932 360.925 210.932C359.356 210.932 358.311 210.584 357.701 209.713C357.178 208.93 357.178 207.885 357.613 206.492C358.049 205.36 358.398 204.228 358.834 203.183C359.967 199.874 361.187 196.478 362.668 193.257C363.627 190.993 364.673 188.729 365.718 186.465C367.81 181.938 369.989 177.236 371.732 172.447C372.08 171.576 372.342 170.706 372.69 169.835C373.475 167.484 374.346 165.046 375.566 162.782C376.874 160.344 377.571 157.906 377.832 155.555C378.007 153.727 378.617 151.898 379.575 150.07C380.36 148.59 380.97 146.848 381.493 145.194C381.928 143.975 382.277 142.669 382.887 141.45C385.937 134.658 387.157 127.257 388.378 120.117C388.378 120.117 388.988 116.635 389.162 115.241C389.946 110.54 390.643 105.664 392.125 101.049L392.909 92.6566C392.909 92.6566 393.204 84.0408 393.989 75.682C394.25 73.157 394.512 70.6319 394.773 68.1068C395.209 64.8852 394.773 61.4895 394.424 58.1808C394.424 58.1808 393.204 46.6874 392.159 42.3339C390.851 37.2838 388.585 32.4949 386.494 28.4897C381.875 19.5214 373.77 15.2549 366.449 12.3816C361.395 10.9014 351.808 8.89873 351.111 8.81166C348.758 8.46338 344.517 7.52903 342.634 7.38402C340.752 7.23901 332.791 5.22899 330.369 5.04778C327.947 4.86657 323.102 5.00989 320.052 5.35818C315.433 5.96767 310.988 6.75131 307.241 9.18929C303.929 11.3661 300.356 13.1075 296.957 14.8489C293.819 16.4162 290.595 17.9834 287.545 19.899C278.132 25.9069 270.725 32.4372 264.973 39.9253C257.826 49.3289 253.818 57.6006 252.336 66.0465C251.464 70.7483 251.203 75.9726 251.464 82.7641C251.552 84.5926 251.639 86.5081 251.639 88.3366C251.9 95.7376 252.162 103.4 252.772 110.975C253.382 118.028 254.863 124.993 257.216 131.611C258.959 136.574 260.354 141.624 261.661 146.5C263.143 151.811 264.886 156.861 266.454 161.128C267.762 164.785 269.33 168.442 270.899 171.924C272.903 176.452 274.908 181.154 276.389 186.03C278.917 194.04 282.664 201.616 286.237 208.842C286.586 209.452 286.76 210.149 287.022 210.758L287.37 211.629C287.893 213.196 288.416 214.763 289.636 215.982C290.159 216.505 290.944 217.375 290.682 218.333C290.421 219.291 289.288 219.726 288.155 220.075C287.022 220.423 286.237 221.207 285.453 222.077L285.279 222.251C282.664 224.951 280.311 226.605 277.697 227.476C274.734 228.52 271.858 230.088 268.982 232.526L266.977 234.18C262.097 238.185 257.042 242.365 252.772 247.241C252.075 248.024 251.552 248.808 251.029 249.592C250.07 251.246 249.111 252.813 248.066 254.468C246.148 257.515 244.231 260.562 242.662 263.784C238.566 272.317 234.906 281.808 231.246 293.911C230.2 297.393 229.415 301.05 228.631 304.533C227.76 308.626 226.801 312.805 225.407 316.897C223.664 322.122 223.402 327.781 223.228 333.267C223.141 334.573 222.879 345.805 222.966 349.984C223.053 353.554 223.053 357.298 222.966 360.955C222.705 367.311 222.531 373.493 222.705 379.849C222.879 388.121 223.489 394.826 224.797 401.008C225.581 404.752 225.668 408.757 225.668 412.588V413.894C225.755 416.68 226.017 419.467 226.278 422.166C226.54 425.039 226.888 428.087 226.888 431.047C226.888 433.659 227.498 436.358 228.108 438.883C228.631 441.06 229.067 443.237 229.241 445.501C229.503 448.461 230.81 451.247 232.117 453.598C235.342 459.693 238.305 466.137 241.006 472.667C241.878 474.844 243.185 477.63 245.364 479.72C246.497 480.764 247.456 481.983 248.414 483.115C249.983 484.944 251.464 486.685 253.382 488.078C254.515 488.949 256.171 490.342 257.391 492.258C260.354 496.96 264.276 500.007 269.505 501.574C272.293 502.445 274.995 503.577 277.522 504.622C279.265 505.405 281.183 506.189 283.013 506.886C288.329 508.801 293.819 509.846 299.31 509.846H299.571C301.14 509.846 302.709 509.846 304.278 509.759C305.846 509.759 307.415 509.672 309.071 509.672C310.291 509.672 311.511 509.672 312.818 509.759C313.341 509.759 313.951 509.759 314.474 509.759C319.529 509.759 324.671 508.714 329.638 507.756L331.12 507.495C333.909 506.973 336.697 506.102 339.835 504.796C339.922 504.796 340.009 504.709 340.009 504.709C338.963 504.796 337.83 504.883 336.785 504.883C335.739 504.883 332.601 504.883 332.253 502.706C332.166 502.271 332.253 501.836 332.601 501.487C333.211 500.791 334.257 500.704 334.78 500.704H335.39C339.225 500.704 341.839 500.007 344.192 499.485C346.022 499.049 347.678 498.614 349.596 498.614C350.206 498.614 350.903 498.44 351.513 498.091C351.251 498.179 350.99 498.179 350.729 498.179C349.508 498.179 348.376 498.091 347.243 498.091C346.11 498.004 344.977 498.004 343.844 498.004C342.449 498.004 341.316 498.091 340.183 498.266C340.096 498.266 340.009 498.266 339.922 498.266C338.876 498.266 338.092 497.482 338.005 496.35C338.005 495.392 338.615 494.783 339.661 494.522C340.619 494.26 341.491 494.26 342.449 494.26C342.798 494.26 343.234 494.26 343.582 494.26C344.367 494.26 345.151 494.26 345.935 494.26H347.94C350.119 494.26 352.646 494.173 355.086 493.564L356.045 493.303C359.182 492.519 360.054 492.345 362.32 490.603C361.448 490.429 360.664 490.342 359.879 490.342C359.531 490.342 358.224 490.342 357.962 490.342C357.788 490.342 357.526 490.342 357.352 490.342C357.091 490.342 356.742 490.342 356.481 490.342C355.783 490.342 355.086 490.342 354.302 490.429C353.605 490.429 352.907 490.516 352.21 490.516C351.513 490.516 349.77 490.516 349.683 488.775C349.596 487.991 349.857 486.685 352.036 486.25C352.384 486.163 352.733 486.163 352.995 486.163C353.082 486.163 353.169 486.163 353.256 486.163C354.04 486.25 354.999 486.25 356.045 486.25C357.091 486.25 358.224 486.25 359.269 486.163C360.402 486.163 361.448 486.076 362.581 486.076C364.237 486.076 365.544 486.163 366.764 486.337C367.026 486.337 367.2 486.424 367.461 486.424C369.03 486.424 370.163 485.466 371.47 484.334C370.425 484.16 369.292 484.073 368.246 483.986C366.154 483.812 364.237 483.638 362.232 483.028C361.274 482.767 360.489 482.332 359.618 481.896L358.921 481.548C357.962 481.113 357.613 480.242 357.962 479.284C358.136 478.675 358.659 477.978 360.054 477.978C360.577 477.978 361.012 478.065 361.361 478.152C364.585 479.458 367.984 479.545 371.47 479.72C372.778 479.807 374.172 479.807 375.479 479.981C375.654 479.981 375.828 479.981 376.002 479.981C377.397 479.981 378.442 479.458 379.314 478.152H378.965C375.741 478.065 372.778 477.891 369.727 477.456C367.374 477.107 366.59 475.888 366.154 474.147L365.98 473.45L366.59 473.276C367.374 473.015 368.159 472.928 369.03 472.928C370.163 472.928 371.296 473.102 372.168 473.363C373.475 473.625 374.869 473.799 376.612 473.799C377.571 473.799 378.617 473.799 379.575 473.712C380.621 473.712 381.58 473.625 382.626 473.625C382.974 473.625 383.323 473.625 383.759 473.625C385.24 473.625 385.937 472.841 387.07 471.361C387.245 471.187 387.332 471.012 387.506 470.838C386.983 470.751 386.46 470.751 385.937 470.664C385.066 470.577 384.281 470.403 383.497 470.403C383.148 470.403 382.887 470.403 382.538 470.49C382.103 470.577 381.667 470.577 381.318 470.577C380.185 470.577 379.052 470.403 377.919 470.142C377.309 470.055 376.787 469.968 376.176 469.881C374.956 469.706 374.259 468.923 374.259 467.791C374.259 466.92 374.695 465.875 376.525 465.875H376.699C377.919 465.875 379.227 465.962 380.447 465.962C383.061 465.962 385.763 466.049 388.465 466.311C388.813 466.311 389.075 466.398 389.423 466.398C391.689 466.398 393.258 465.527 394.391 463.524C394.478 463.35 394.652 463.176 394.827 463.002C394.914 462.915 394.914 462.828 395.001 462.741C393.607 462.48 392.212 462.392 390.731 462.392C390.033 462.392 389.249 462.392 388.552 462.305C387.942 462.305 387.245 462.218 386.635 462.218C385.589 462.131 384.456 462.131 383.41 462.044C381.928 461.87 381.057 461.086 381.144 459.78C381.231 458.91 381.667 457.952 383.671 457.952H384.369C385.327 457.952 386.373 457.952 387.332 457.952C388.29 457.952 389.336 457.952 390.295 457.952C392.648 457.952 394.478 458.039 396.221 458.126C396.57 458.126 396.918 458.213 397.18 458.213C399.446 458.213 401.101 457.429 402.322 455.514H399.446C398.574 455.514 397.703 455.514 396.831 455.514C394.827 455.514 392.909 455.427 390.905 455.34C389.772 455.34 388.726 455.079 387.942 454.556C387.506 454.295 386.286 453.598 386.46 452.205C386.634 451.16 387.419 450.464 388.552 450.464C388.726 450.464 388.9 450.464 389.162 450.551C391.253 450.899 393.432 450.986 395.524 451.073C396.57 451.16 397.703 451.16 398.748 451.247C398.923 451.247 399.097 451.247 399.271 451.247C400.143 451.247 400.927 451.073 401.799 450.986C402.67 450.812 403.629 450.725 404.587 450.725C405.372 450.725 406.069 450.812 406.679 450.986C406.941 450.986 407.115 450.725 407.289 450.464C407.725 449.854 407.812 449.68 407.899 449.506C407.986 449.332 408.073 449.158 408.248 448.809C407.202 448.635 406.243 448.461 405.372 448.461C404.936 448.461 404.5 448.461 404.152 448.548C403.803 448.635 403.367 448.635 403.019 448.635C401.973 448.635 401.014 448.374 400.056 448.2C399.62 448.113 399.271 448.026 398.836 447.939C396.831 447.59 396.918 446.197 397.005 445.762C397.18 444.717 397.964 444.108 399.184 444.021H399.446C399.707 444.021 400.056 444.021 400.317 444.108C400.579 444.108 400.753 444.108 401.014 444.108C402.757 444.108 409.294 444.195 409.294 444.195C409.642 444.195 410.949 443.237 411.647 442.279C411.211 442.279 410.775 442.279 410.339 442.279C409.555 442.279 408.771 442.279 407.986 442.279C406.941 442.279 405.982 442.279 404.936 442.366C404.675 442.366 404.5 442.366 404.239 442.366C402.322 442.366 400.317 442.105 397.877 441.408C397.441 441.321 396.221 440.973 396.221 439.667C396.221 437.926 397.79 437.926 398.4 437.926C399.01 437.926 399.707 437.926 400.317 437.926C401.014 437.926 401.624 437.926 402.322 438.013C403.454 438.1 404.587 438.1 405.808 438.1C407.638 438.1 409.555 438.013 411.908 437.839C414.087 437.664 414.348 437.664 414.697 435.052L412.344 434.878C409.642 434.617 406.853 434.356 404.152 434.094C403.977 434.094 403.716 434.094 403.542 434.094C402.757 434.094 401.886 434.094 401.276 433.485C400.927 433.137 400.753 432.614 400.84 432.092C400.927 431.134 401.363 430.002 403.28 430.002C403.542 430.002 403.803 430.002 404.152 430.002C404.326 430.002 404.5 430.002 404.587 430.002C405.808 430.002 407.028 430.089 408.248 430.176C409.642 430.263 411.037 430.35 412.518 430.35C413.128 430.35 413.651 430.35 414.087 430.35C416.266 430.35 416.353 430.35 416.963 426.955C416.876 426.955 416.788 426.955 416.701 426.955C416.44 426.955 416.178 427.042 415.917 427.129L415.656 427.216C414.61 427.477 413.477 427.564 412.17 427.564C411.037 427.564 409.904 427.477 408.771 427.39C407.725 427.303 406.592 427.216 405.459 427.216C405.285 427.216 404.936 427.216 404.936 427.216C404.065 427.216 403.454 426.955 403.019 426.519C402.757 426.258 402.496 425.823 402.583 425.039C402.67 424.255 403.106 423.211 405.023 423.124C405.546 423.124 406.156 423.036 406.679 422.949C407.725 422.862 408.684 422.775 409.729 422.775C409.991 422.775 410.252 422.775 410.514 422.775C410.688 422.775 410.949 422.775 411.124 422.775C412.605 422.775 414 422.514 415.481 422.253C415.917 422.166 416.353 422.079 416.876 421.992C418.009 421.818 418.619 421.382 418.967 420.511C418.357 420.511 417.747 420.511 417.137 420.511C416.266 420.511 415.307 420.511 414.435 420.511C413.215 420.511 411.995 420.511 410.862 420.599C410.688 420.599 410.601 420.599 410.426 420.599C408.858 420.599 407.289 420.25 405.808 419.989C405.285 419.902 404.762 419.815 404.239 419.641C403.542 419.554 403.019 419.205 402.67 418.683C402.322 418.248 402.234 417.638 402.409 417.029C402.757 415.723 403.977 415.723 404.326 415.723H404.762C406.069 415.723 407.376 415.81 408.684 415.897C410.078 415.984 411.472 416.071 412.867 416.071C414 416.071 415.045 415.984 416.004 415.897C416.527 415.81 417.137 415.81 417.66 415.723C417.921 415.723 418.183 415.723 418.444 415.635C419.926 415.548 420.623 414.939 420.885 413.633C421.059 412.762 421.059 411.891 420.972 411.369C418.27 411.717 415.394 411.979 411.995 411.979C409.991 411.979 408.073 411.891 406.243 411.891C405.982 411.891 405.808 411.804 405.546 411.804C403.716 411.456 403.542 410.324 403.542 409.628C403.629 408.322 405.11 407.277 406.33 407.277C406.505 407.277 406.679 407.277 406.853 407.364C407.289 407.451 407.899 407.538 408.858 407.538C410.688 407.538 413.128 407.277 414.871 407.103C415.917 407.015 416.701 406.928 417.224 406.928C417.921 406.928 418.444 406.928 418.967 406.928C420.187 406.928 421.146 406.928 421.93 406.754V403.271C420.536 403.707 419.142 403.707 417.834 403.794C416.788 403.881 415.83 403.881 414.871 404.142C414.348 404.229 413.738 404.316 413.128 404.316C411.995 404.316 410.949 404.142 409.904 403.968C408.248 403.707 407.376 402.662 407.551 401.356C407.638 400.921 407.899 399.789 409.381 399.789C409.642 399.789 409.991 399.789 410.252 399.876C410.949 399.963 411.559 400.05 412.17 400.05C414 400.05 415.743 399.702 417.573 399.44C418.444 399.266 419.229 399.179 420.1 399.005C422.017 398.744 422.192 398.744 422.628 396.654C422.453 396.654 422.192 396.654 422.018 396.654C421.233 396.654 420.274 396.741 419.229 396.828C417.921 396.915 416.44 397.089 414.958 397.089C412.954 397.089 411.298 396.828 409.904 396.393C409.729 396.306 409.468 396.306 409.119 396.306C408.858 396.306 408.509 396.306 408.248 396.219C407.202 396.045 406.592 395.348 406.592 394.39C406.592 393.432 407.202 392.562 408.161 392.475C408.335 392.475 408.771 392.388 409.206 392.388C410.252 392.388 411.908 392.475 413.128 392.475C413.825 392.475 414.435 392.562 414.697 392.562C415.394 392.562 415.917 392.562 416.44 392.562C418.88 392.562 419.142 392.475 421.669 391.691C422.976 391.256 423.325 390.994 423.499 389.863C423.499 389.775 423.499 389.775 423.499 389.688C422.192 389.863 419.403 390.298 416.701 390.298C413.651 390.298 411.472 389.776 410.252 388.731C410.165 388.644 409.991 388.556 409.904 388.469C409.381 388.121 408.422 387.425 408.771 386.206C409.032 385.335 409.642 384.812 410.601 384.812C410.949 384.812 411.211 384.9 411.647 384.987C413.564 385.509 415.83 385.77 418.009 385.77C419.926 385.77 421.756 385.509 423.238 385.161C423.412 385.074 423.499 385.074 423.673 385.074C423.586 383.942 423.412 382.897 423.15 381.939C421.669 382.462 420.274 382.549 418.88 382.723C417.66 382.81 416.527 382.897 415.394 383.245C414.958 383.332 414.523 383.419 414.087 383.419C413.041 383.419 412.082 383.158 411.124 382.897L410.601 382.723C409.294 382.374 408.684 381.504 408.858 380.459C409.119 379.327 409.904 378.63 411.037 378.63C411.211 378.63 411.298 378.63 411.472 378.63C412.082 378.717 412.692 378.805 413.39 378.805C415.83 378.805 418.27 378.195 420.623 377.586L421.059 377.498C422.192 377.237 422.628 376.802 422.54 375.931C422.453 374.625 422.105 374.625 422.018 374.625C421.843 374.625 421.582 374.625 421.146 374.886C420.1 375.409 419.054 375.583 418.009 375.757C417.311 375.844 416.701 376.018 416.091 376.192C415.568 376.367 415.045 376.454 414.435 376.454C413.477 376.454 412.692 376.28 411.821 376.018C411.211 375.844 410.601 375.757 410.078 375.67C409.381 375.583 408.771 375.061 408.509 374.712C408.161 374.364 407.202 373.319 407.899 372.013C408.248 371.316 408.858 370.968 409.555 370.968C409.904 370.968 410.252 371.055 410.601 371.229C411.385 371.578 412.344 371.752 413.39 371.752C414.348 371.752 415.394 371.578 416.353 371.404C417.137 371.229 417.921 370.968 418.706 370.707C419.054 370.533 419.49 370.446 419.839 370.359C421.059 370.01 421.407 369.401 421.146 368.095C420.797 366.179 420.71 366.179 420.275 366.179C419.839 366.179 419.229 366.266 418.619 366.441C416.091 366.963 413.564 367.224 411.037 367.485L409.991 367.572C409.642 367.572 409.381 367.66 409.032 367.66C407.551 367.66 406.156 367.311 404.849 366.528C403.977 366.005 403.542 365.134 403.803 364.264C404.065 363.393 404.762 362.871 405.633 362.871C405.72 362.871 405.808 362.871 405.982 362.871C406.766 362.958 407.638 363.045 408.509 363.045C410.426 363.045 412.431 362.784 414.348 362.435C415.83 362.174 417.399 362 418.88 361.913C419.664 361.826 419.839 361.739 419.839 361.652C419.839 361.565 419.926 361.39 419.752 360.955C419.664 360.694 419.664 360.433 419.577 360.084C419.403 359.127 419.403 359.127 419.054 359.127C418.88 359.127 418.706 359.127 418.444 359.214C417.399 359.475 416.353 359.736 415.307 359.91C414.523 360.084 413.825 360.171 413.128 360.346C411.995 360.607 410.862 360.868 409.642 360.868C409.032 360.868 408.509 360.781 407.986 360.694L407.725 360.607C406.94 360.433 405.459 360.171 405.633 358.343C405.808 357.124 406.592 356.427 407.986 356.427C407.986 356.427 408.422 356.427 408.596 356.427C410.165 356.427 411.647 355.992 413.302 355.644C414.435 355.296 415.656 355.034 416.963 354.86H417.224C417.486 354.86 418.009 354.773 418.096 354.686C418.096 354.686 418.183 354.512 418.096 354.251C418.009 353.467 417.747 353.38 417.137 353.38C416.963 353.38 416.876 353.38 416.701 353.38C414.697 353.641 412.605 353.728 410.688 353.728C410.078 353.728 409.381 353.728 408.771 353.815C408.596 353.815 408.422 353.815 408.248 353.815C407.638 353.815 406.941 353.815 406.33 353.728C405.459 353.641 404.849 353.119 404.675 352.335C404.5 351.551 404.936 350.768 405.72 350.42L405.982 350.332C406.592 350.071 407.202 349.723 407.899 349.723C408.858 349.636 409.904 349.549 410.862 349.375C412.257 349.201 413.651 349.026 415.045 349.026C415.307 349.026 415.656 349.026 415.917 349.026H416.091C416.614 349.026 417.05 348.852 417.399 348.591C417.747 348.243 417.834 347.807 417.834 347.111C417.834 347.024 417.834 346.937 417.747 346.85C417.747 346.763 417.66 346.588 417.66 346.501C417.311 344.063 417.311 344.063 416.44 344.063C416.004 344.063 415.481 344.15 414.784 344.15C409.816 344.673 404.762 344.847 399.881 345.108C396.482 345.282 392.996 345.369 389.598 345.631C387.07 345.805 384.456 346.24 382.016 346.675C380.708 346.937 379.401 347.111 378.094 347.285C377.397 347.372 376.612 347.459 375.828 347.459C375.654 347.459 375.392 347.459 375.218 347.459C374.521 347.372 372.603 347.285 372.516 345.282C372.516 344.586 372.778 343.976 373.213 343.541C373.649 343.106 374.259 342.844 374.956 342.844C375.305 342.844 375.392 342.844 375.566 342.844C377.048 342.844 378.442 342.583 379.924 342.235C380.883 342.061 381.841 341.799 382.8 341.712C391.341 340.668 399.881 340.232 409.381 339.884C417.311 339.536 426.288 339.187 435.003 337.185C435.787 337.011 436.572 336.924 437.356 336.924H437.617C437.966 336.924 438.315 336.924 438.663 336.924C441.888 336.924 445.199 336.401 448.337 335.966C450.864 335.617 453.479 335.182 456.093 335.008C456.355 335.008 456.529 334.921 456.79 334.921C456.965 334.834 457.226 334.834 457.4 334.834C458.795 334.66 459.318 334.05 459.231 332.57C459.056 330.045 458.969 327.433 458.882 324.908C458.795 322.731 458.708 320.554 458.621 318.377C458.533 316.114 458.446 313.763 458.359 311.499C458.272 307.407 458.185 303.227 457.662 299.135C457.139 295.217 457.139 291.211 457.226 287.38C457.226 284.246 457.226 280.937 456.965 277.715C456.703 274.929 456.616 272.056 456.442 269.27C456.355 267.267 456.268 265.264 456.093 263.175C455.919 260.998 456.18 258.821 456.355 256.731C456.442 255.948 456.529 255.164 456.616 254.293C455.832 254.119 454.96 254.119 454.002 254.119C453.13 254.119 452.259 254.206 451.387 254.206C450.603 254.293 449.818 254.293 449.121 254.293C448.86 254.293 448.685 254.293 448.424 254.38C448.075 254.38 447.814 254.468 447.553 254.468H447.378C446.245 254.38 445.199 254.38 444.067 254.38C438.925 254.38 433.696 254.903 428.554 255.512C424.371 255.948 420.1 256.383 415.83 256.557C408.509 256.818 401.014 257.95 393.781 258.995C392.212 259.256 390.731 259.431 389.162 259.692C386.634 260.04 383.236 260.475 379.75 260.475C379.14 260.475 378.617 260.475 378.007 260.475H377.745C376.787 260.475 375.828 260.737 374.782 260.911C374.172 261.085 373.562 261.172 372.952 261.259C372.69 261.259 372.429 261.346 372.168 261.346C371.035 261.346 370.337 260.737 370.163 259.779C369.989 258.908 370.163 258.125 370.599 257.602C370.86 257.254 371.383 256.818 372.255 256.644L373.039 256.557C374.346 256.383 375.741 256.122 377.135 256.122C384.194 256.035 391.253 254.99 398.138 254.032C399.62 253.858 401.014 253.597 402.496 253.423C407.899 252.726 413.39 252.378 418.793 252.117L422.192 251.943C425.678 251.768 429.164 251.42 432.563 251.072C435.264 250.811 437.966 250.549 440.755 250.375C443.369 250.201 445.984 250.201 448.511 250.114C450.777 250.114 453.043 250.114 455.309 249.94H455.57C456.878 249.94 457.662 250.724 458.272 251.333C458.621 251.681 458.969 252.03 459.318 252.204C461.584 252.987 461.148 254.903 460.887 256.035C460.799 256.296 460.712 256.557 460.712 256.818C460.364 258.821 460.276 260.998 460.364 263.175C460.625 268.921 460.887 274.668 461.148 280.415C461.322 283.636 461.497 287.293 461.061 290.863C460.887 292.605 461.148 294.346 461.322 296C461.409 296.349 461.409 296.784 461.497 297.132C461.932 300.354 461.932 303.575 462.019 306.71C462.019 308.974 462.107 311.325 462.281 313.589C462.542 316.549 462.629 319.596 462.629 322.47C462.717 326.214 462.804 330.045 463.24 333.876C463.675 337.794 462.978 338.752 459.143 339.187C457.575 339.362 456.006 339.623 454.437 339.797C449.034 340.493 443.369 341.277 437.792 341.451C435.264 341.538 432.737 342.061 430.21 342.496C428.902 342.757 427.595 343.018 426.288 343.193C425.329 343.367 425.242 343.541 425.329 344.412C425.765 347.546 426.114 350.768 426.462 353.902C426.985 358.169 427.421 362.609 428.118 366.963C428.379 368.704 428.641 370.533 428.99 372.274C429.861 377.499 430.733 382.984 431.343 388.295C431.953 392.91 432.04 397.612 432.127 402.14C432.214 405.535 432.301 409.018 432.563 412.414C432.737 414.417 432.824 416.419 432.998 418.422C433.26 421.556 433.434 424.691 433.783 427.825C434.219 432.614 434.393 437.577 434.567 442.279C434.654 444.108 434.741 445.936 434.741 447.852L434.829 450.29C435.003 454.295 435.177 458.474 435.264 462.654C435.264 464.134 435.177 465.614 435.09 467.094C435.003 468.313 434.916 469.619 434.916 470.925C434.916 472.493 435.003 474.06 435.09 475.627C435.177 477.369 435.264 479.11 435.264 480.852C435.264 483.551 435.264 486.25 435.351 488.949C435.439 495.218 435.526 501.661 435.003 508.105C434.654 512.371 434.654 516.725 434.567 520.904C434.567 523.516 434.567 526.128 434.48 528.827C434.393 530.83 434.219 532.833 433.957 534.748C433.87 535.88 433.696 537.012 433.608 538.144L433.521 538.666C433.434 539.363 433.347 539.973 433.608 540.495C433.696 540.495 433.696 540.495 433.783 540.495C434.044 540.495 434.306 540.408 434.567 540.321C434.654 540.321 434.829 540.234 434.916 540.234C435.874 539.973 436.833 539.798 437.879 539.798C439.796 539.798 441.713 540.321 444.067 541.279C446.507 542.323 450.167 548.418 449.383 550.856C448.86 552.337 448.86 553.991 448.773 555.645C448.685 557.735 448.598 559.912 447.553 561.914C448.86 564.004 448.337 566.181 447.901 568.096C447.553 569.577 447.204 570.97 447.64 572.276C448.075 573.582 447.727 574.888 447.465 576.02C447.378 576.368 447.291 576.716 447.204 577.065C447.03 578.022 446.332 578.632 445.461 578.632H445.287C444.415 578.545 443.718 577.935 443.456 576.978C443.369 576.455 443.369 576.02 443.369 575.584C443.369 575.323 443.369 575.149 443.369 574.975V575.062C443.282 575.323 443.195 575.672 442.934 575.933L442.759 576.194C442.324 576.803 441.801 577.587 440.755 577.587C440.493 577.587 440.232 577.5 439.883 577.413C438.663 576.978 438.053 575.933 438.14 574.54C438.227 573.146 438.576 571.753 439.273 570.273C439.36 570.099 439.448 569.925 439.535 569.664C439.796 569.228 439.97 568.793 439.97 568.358C439.796 565.31 440.145 562.176 440.493 559.215C440.668 557.909 440.842 556.516 440.929 555.21C440.929 555.036 440.929 554.949 440.842 554.687C439.97 554.949 439.099 555.123 437.966 555.123C437.356 555.123 436.746 555.123 436.223 555.036C435.613 555.036 435.09 554.949 434.48 554.949C434.131 554.949 433.87 554.949 433.521 554.949C432.214 555.036 431.865 555.384 431.865 556.516C431.778 557.996 431.691 559.476 431.517 560.957C431.43 561.914 431.343 562.785 431.255 563.743C431.081 565.833 430.035 566.355 429.077 566.355C427.857 566.355 427.421 565.397 427.072 564.788C426.985 564.614 426.898 564.439 426.898 564.352C426.026 562.872 426.549 561.479 426.985 560.347L427.072 560.086C427.595 558.693 427.769 557.3 427.769 555.297C427.421 555.297 427.072 555.297 426.811 555.21C426.114 555.21 425.329 555.123 424.632 555.123C423.673 555.123 422.889 555.21 422.192 555.384C421.669 555.471 421.233 555.558 420.797 555.558C420.013 555.558 419.316 555.384 418.706 555.123C417.224 554.426 416.266 553.381 415.917 552.162C415.568 550.943 415.83 549.55 416.701 548.157C419.142 544.239 422.279 541.888 426.288 541.104C429.512 540.408 429.512 540.408 429.861 537.012V536.838C430.384 531.614 430.558 526.302 430.645 521.165C430.733 517.769 430.82 514.2 431.081 510.717C431.604 501.748 431.778 491.909 431.604 479.72C431.517 475.976 431.43 472.231 431.255 468.749C431.168 467.268 431.343 465.875 431.43 464.482C431.517 463.263 431.604 462.044 431.604 460.825C431.517 455.253 430.994 449.506 430.558 444.021C430.122 438.97 429.687 433.659 429.6 428.435C429.512 425.3 429.251 422.166 428.99 419.118C428.815 417.377 428.728 415.723 428.641 413.981L428.379 410.411C428.118 406.493 427.857 402.488 427.682 398.483C427.595 396.48 427.334 394.477 427.072 392.562C427.072 392.649 427.072 392.649 427.072 392.736C426.462 396.393 425.852 400.224 426.114 403.881C426.375 408.67 425.329 413.198 424.371 417.551C423.848 419.641 423.412 421.905 423.063 424.081C422.715 426.258 421.93 428.261 420.71 430.089C419.926 431.221 419.664 432.614 419.403 434.094C419.142 435.313 418.967 436.62 418.357 437.839C417.747 439.145 417.224 440.538 416.701 441.844C415.307 445.152 413.913 448.635 411.559 451.596C409.642 454.034 407.463 456.21 405.285 458.3C404.675 458.91 404.065 459.519 403.454 460.129C403.019 460.564 402.583 460.999 402.147 461.522C400.84 462.915 399.533 464.395 397.703 465.353C397.093 465.701 396.831 466.224 396.395 466.92C396.134 467.355 395.872 467.791 395.611 468.139C394.565 469.358 393.519 470.49 392.474 471.535C390.818 473.276 389.075 475.018 387.767 477.02C387.157 477.978 386.286 478.413 385.414 478.849C384.891 479.11 384.369 479.371 384.02 479.72C379.401 483.899 374.346 487.556 369.379 491.039C368.246 491.822 367.113 492.693 365.893 493.477C365.806 493.564 365.196 493.999 364.411 494.609C362.581 496.002 359.879 498.004 359.182 498.44C358.398 498.962 357.701 499.485 357.003 500.094C355.086 501.574 353.169 503.055 350.729 503.838C350.031 504.012 349.857 504.361 350.206 505.492C350.816 507.582 351.077 509.672 351.339 511.675C351.513 512.893 351.687 514.2 351.862 515.331C352.907 520.904 353.169 526.651 353.43 532.136C353.517 533.878 353.605 535.619 353.692 537.36C353.779 538.579 353.779 539.711 353.779 540.93C353.779 542.672 353.866 544.5 354.04 546.242C354.302 548.505 354.215 550.856 354.127 553.12C354.04 554.949 354.04 556.864 354.127 558.693C354.476 563.395 354.476 568.183 354.476 572.798C354.476 574.191 354.476 575.584 354.476 576.978C354.476 579.067 354.476 581.07 354.389 583.16C354.302 586.991 354.215 590.996 354.563 594.827C354.825 598.31 354.912 601.967 354.999 605.363C355.086 608.584 355.173 611.893 355.348 615.115C355.435 616.421 355.348 617.727 355.26 619.033C355.173 619.903 355.173 620.774 355.173 621.732C355.173 629.481 354.999 637.927 354.476 648.288C354.215 653.251 354.302 658.302 354.302 663.178V665.877C354.302 670.317 353.953 675.193 353.343 680.766C352.559 686.774 352.21 692.956 351.862 698.877C351.774 700.879 351.6 702.795 351.513 704.797C351.426 706.103 351.513 706.974 351.774 707.235C351.774 707.235 351.862 707.322 352.21 707.322C352.646 707.322 353.256 707.148 354.127 706.887C354.912 706.626 355.696 706.539 356.568 706.539C357.701 706.539 358.834 706.8 359.967 706.974C360.402 707.061 360.838 707.148 361.361 707.235C362.668 707.409 363.714 708.28 364.324 709.673C365.196 711.415 365.108 713.591 364.237 715.159C362.494 718.293 359.531 720.296 355.348 720.992C353.343 721.341 352.036 721.689 351.6 722.299C351.164 722.995 351.339 724.388 351.862 726.391C352.559 729.438 354.127 732.138 355.783 734.924C356.568 736.23 357.265 737.536 357.962 738.929C359.531 742.064 361.274 745.285 362.93 748.333C366.154 754.254 369.553 760.436 372.08 766.966C373.213 769.926 374.172 773.061 375.044 776.108C375.479 777.588 375.915 779.069 376.351 780.462C376.525 780.897 376.612 781.333 376.699 781.855C377.048 783.074 377.309 784.206 378.007 785.077C378.53 785.773 378.704 786.644 378.53 787.602C378.268 788.821 377.484 789.604 376.351 789.778C376.264 789.778 376.176 789.778 376.089 789.778C375.218 789.778 374.433 789.256 373.998 788.211C373.649 787.34 373.301 786.383 373.126 785.512C371.209 777.153 368.333 768.881 364.585 760.958C363.453 758.52 362.145 755.995 360.838 753.644C357.265 747.114 353.43 740.148 349.421 733.182C347.504 729.787 346.633 726.565 346.72 723.256C346.72 722.821 346.72 722.473 346.633 722.124C346.545 721.95 346.458 721.95 345.935 721.863C345.935 721.95 345.935 721.95 345.935 722.037C345.848 723.692 344.89 724.824 344.018 725.781C343.495 726.304 343.234 726.826 343.147 727.523C342.885 729.003 342.362 732.138 338.876 732.486H338.789C338.615 735.446 336.436 735.882 334.78 736.23C334.344 736.317 333.909 736.404 333.56 736.491C333.299 736.578 332.95 736.665 332.689 736.665C331.817 736.839 331.643 736.839 331.643 737.536C331.643 737.971 331.294 738.407 330.945 738.581C330.597 738.842 330.074 739.016 329.29 739.016C327.285 739.016 323.189 737.971 322.666 736.404C322.405 735.533 322.23 735.446 321.62 735.446H321.359C320.139 735.446 319.355 734.663 318.744 733.966C318.483 733.705 318.222 733.444 317.96 733.269C316.914 732.573 316.74 731.267 317.437 729.874C318.309 728.132 319.877 727.087 321.62 727.087C322.928 727.087 324.148 727.697 325.106 728.742C325.978 729.7 326.937 729.961 328.157 730.135C328.157 730.135 328.418 730.222 328.505 730.222C329.377 729.09 330.597 728.481 331.817 727.871C333.821 726.826 335.477 726.043 335.303 723.343C335.216 721.776 336.175 720.818 336.959 720.035C337.395 719.512 337.918 719.077 338.005 718.642C338.092 718.206 338.092 717.597 338.092 717.074C338.005 715.942 337.918 714.723 338.789 713.591C340.532 711.328 342.449 708.803 345.587 707.758C346.633 707.409 346.72 707.061 346.981 705.842C347.504 703.056 347.591 700.27 347.678 697.483C347.678 696.264 347.765 695.133 347.765 693.914C347.94 690.431 348.288 686.861 348.637 683.465C348.986 680.243 349.247 676.935 349.508 673.713C349.77 670.143 349.77 666.486 349.857 663.003C349.944 659.085 350.031 654.993 350.293 650.988C350.99 641.41 350.903 631.745 350.903 622.341C350.903 617.465 350.903 612.502 350.99 607.539C351.077 603.969 350.816 600.313 350.641 596.83C350.467 594.392 350.293 591.78 350.293 589.342C350.206 586.033 350.206 582.637 350.206 579.328C350.206 576.455 350.206 573.582 350.206 570.708C350.119 566.964 350.031 563.22 349.944 559.476C349.77 553.207 349.596 546.764 349.596 540.321C349.683 530.133 348.201 520.12 346.72 510.63C346.545 509.759 346.371 508.888 346.11 507.93C346.022 507.669 345.935 507.408 345.935 507.147C345.238 507.234 344.715 507.582 344.105 508.018C343.669 508.366 343.147 508.627 342.624 508.888C339.05 510.281 335.39 511.674 331.381 512.458C326.065 513.503 320.052 514.722 314.038 514.722C313.515 514.722 312.993 514.722 312.47 514.722C310.901 514.635 309.332 514.635 307.764 514.635C305.759 514.635 303.755 514.635 301.837 514.722C299.92 514.722 297.916 514.809 295.998 514.809C292.599 514.809 289.288 514.025 286.063 513.329C285.366 513.155 284.756 512.981 284.059 512.893C283.972 515.419 284.407 517.944 284.93 520.382C285.192 521.949 285.54 523.603 285.715 525.258C285.976 528.218 286.15 531.178 286.325 534.139C286.499 536.751 286.586 539.45 286.847 542.149C287.022 544.587 287.196 546.938 287.37 549.376C287.719 554.513 288.155 559.825 288.939 565.049C289.462 568.445 289.462 571.84 289.375 575.149C289.375 577.152 289.375 579.241 289.462 581.244C289.985 591.605 290.421 602.489 290.856 614.679C291.031 618.859 291.031 623.038 291.031 627.13C291.031 629.22 291.031 631.31 291.031 633.399C291.031 637.318 291.118 641.236 291.205 645.154C291.292 649.072 291.031 652.555 290.421 655.864C290.333 656.212 290.333 656.56 290.421 656.995C291.118 663.874 291.031 670.84 290.944 677.544C290.856 680.94 290.856 684.51 290.944 687.993C290.944 688.95 290.944 689.908 290.944 690.866C290.944 693.391 290.944 696.003 291.292 698.528C291.641 700.444 291.641 700.444 292.251 700.444C292.512 700.444 292.861 700.444 293.297 700.357C293.732 700.357 294.081 700.27 294.43 700.27C298.438 700.27 301.227 702.272 302.883 706.452C303.057 706.887 303.406 707.148 303.842 707.409L304.103 707.584C306.805 709.586 307.153 711.154 305.672 714.027C305.062 715.246 304.888 715.942 305.672 717.336C306.543 718.816 306.631 720.383 306.021 721.863C305.41 723.43 304.103 724.562 302.36 724.998C301.924 725.172 301.489 725.172 301.14 725.172C299.92 725.172 299.049 724.388 298.613 722.995C298.438 722.299 298.351 721.515 298.264 720.818L298.177 720.122C298.177 719.686 298.09 719.338 298.09 718.903C298.09 718.38 298.003 717.858 297.916 717.423C297.48 714.549 296.434 714.114 295.475 714.114C294.517 714.114 293.297 714.549 292.164 714.898C291.641 715.072 291.554 715.333 291.554 716.378C291.554 716.378 291.554 717.771 291.554 718.38C291.554 721.167 291.466 724.04 291.989 726.739C292.512 729.787 291.989 732.225 290.159 734.663C287.022 738.929 283.884 743.37 280.921 747.636C279.178 750.161 277.435 752.686 275.692 755.124C271.683 760.784 267.5 766.531 263.23 772.364C261.487 774.802 259.744 777.24 258.088 779.678C255.648 783.161 253.12 786.818 250.419 790.301C250.07 790.736 249.896 791.259 249.634 791.781C249.547 792.042 249.373 792.303 249.286 792.565L249.111 793H244.492V792.652ZM346.981 712.285C345.935 712.372 345.412 712.895 344.802 713.766C344.541 714.114 344.192 714.462 343.844 714.723C343.059 715.42 342.885 715.681 343.147 716.117C343.321 716.639 343.844 716.726 344.802 716.813C345.238 716.813 345.674 716.9 346.022 716.987C346.197 717.074 346.371 717.074 346.545 717.074C346.807 717.074 346.894 716.987 346.894 716.987C346.981 716.9 347.155 716.639 347.155 715.855C347.155 714.898 347.068 714.027 346.981 713.069V712.285ZM356.045 710.631C354.912 710.631 353.692 710.892 352.297 711.415C351.687 711.676 351.687 712.024 351.862 713.417C351.949 714.027 352.036 714.636 351.949 715.246C351.862 715.507 351.949 715.855 351.949 716.291C351.949 716.378 351.949 716.378 351.949 716.465C352.297 716.378 352.646 716.378 352.907 716.291C354.127 716.117 355.26 715.942 356.306 715.594C357.701 715.159 358.834 714.375 359.618 713.33C359.879 712.982 360.054 712.634 359.967 712.373C359.879 712.024 359.531 711.763 359.182 711.502C358.311 710.979 357.265 710.631 356.045 710.631ZM291.641 707.497C291.641 709.586 291.815 709.586 292.512 709.586C292.774 709.586 293.209 709.586 293.819 709.499C294.255 709.412 294.865 709.325 295.301 709.151C295.475 709.064 295.737 708.977 295.911 708.89C296.957 708.541 297.567 708.28 297.654 707.497C297.741 707.061 297.567 706.887 296.87 706.452C296.521 706.278 296.085 706.016 295.737 705.668C295.127 704.971 294.517 704.623 293.645 704.623C293.209 704.623 292.687 704.71 292.164 704.971C291.641 705.146 291.554 705.494 291.554 706.539C291.728 706.8 291.728 707.235 291.641 707.497ZM286.325 705.494C285.976 705.494 285.54 705.581 284.93 705.842L284.843 705.929C284.494 706.103 284.233 706.278 283.884 706.452C282.839 706.974 282.229 707.322 282.229 707.932C282.229 708.541 282.577 708.716 284.059 708.803C284.407 708.803 284.669 708.89 285.017 708.89C285.715 709.064 286.412 709.151 286.76 709.151C286.935 709.151 286.935 709.151 286.935 709.151C287.022 708.977 287.022 708.106 287.022 707.322C287.022 706.19 286.847 705.755 286.76 705.668C286.673 705.581 286.586 705.494 286.325 705.494ZM220.613 549.899C220.613 551.466 220.613 552.946 220.613 554.513C220.613 555.297 220.962 555.384 221.485 555.384H221.659C224.448 555.21 226.975 554.339 229.067 552.946C229.677 552.511 229.851 552.162 229.851 551.988C229.851 551.814 229.59 551.553 229.154 551.292C228.718 551.118 228.283 550.943 227.934 550.682C225.668 549.637 223.576 548.593 221.049 548.593C220.875 548.593 220.788 548.593 220.613 548.593V549.899ZM215.733 547.461C215.297 547.548 214.861 547.635 214.426 547.635C211.898 548.07 209.545 548.418 207.977 550.595C207.454 551.379 207.192 551.901 207.279 552.25C207.366 552.598 207.715 552.946 208.412 553.381C209.72 554.165 211.288 554.6 213.031 554.775C213.903 554.862 214.687 554.949 215.21 554.949C216.343 554.949 216.43 554.949 216.517 551.64L216.43 550.595C216.343 549.724 216.256 548.854 216.169 547.983C216.169 547.722 215.994 547.374 215.733 547.461ZM429.164 545.458C425.939 545.806 423.15 547.286 421.407 549.55C421.146 549.899 421.059 550.16 421.146 550.247C421.233 550.334 421.407 550.421 421.756 550.508C422.628 550.595 423.499 550.595 424.283 550.595C424.893 550.595 427.508 550.595 427.508 550.595C428.467 550.595 428.467 550.16 428.554 549.899C428.641 549.376 428.728 548.941 428.902 548.505C429.077 547.461 429.338 546.503 429.164 545.458ZM437.705 544.413C435.962 544.413 434.219 544.848 433.521 545.371C433.347 545.545 433.173 545.719 433.173 545.719C433.086 545.98 433.086 546.242 432.998 546.59C432.737 547.722 432.476 548.854 432.911 549.724C432.998 549.986 433.173 550.073 433.608 550.073C433.87 550.073 434.044 550.073 434.306 549.986C434.567 549.986 434.916 549.899 435.177 549.899C435.439 549.899 435.7 549.899 435.962 549.986C436.049 549.986 436.136 549.986 436.136 549.986H436.92C440.145 549.986 441.191 548.941 441.713 547.461C442.149 546.155 441.975 545.545 440.755 544.935C440.058 544.674 438.925 544.413 437.705 544.413Z" fill="#10100F"/>
<path d="M301.053 282.243C302.186 282.417 303.058 281.895 303.842 281.111C306.805 278.151 310.552 276.235 313.951 273.971C319.878 270.053 326.414 270.314 332.776 273.013C334.432 273.71 335.565 275.364 336.698 276.845C338.266 278.673 338.266 278.673 340.271 277.193C342.362 275.713 343.931 273.623 345.325 271.62C346.284 270.14 347.068 269.618 348.55 270.924C349.77 272.056 351.339 272.491 352.82 273.1C357.352 274.842 358.485 277.976 357.091 282.591C355.958 286.335 353.779 289.121 350.816 291.385C348.986 292.778 347.678 294.172 348.637 296.871C349.16 298.264 348.986 299.831 348.637 301.311C348.027 304.968 347.766 308.625 346.894 312.195C345.413 318.116 343.408 323.863 339.051 328.477C337.482 330.132 337.395 332.047 338.266 335.791C339.399 335.791 340.358 335.182 341.404 334.747C349.596 331.177 357.875 327.694 365.893 323.601C370.338 321.338 374.957 319.683 379.488 317.681C382.626 316.288 385.763 314.807 388.901 313.414C389.772 313.066 390.644 312.456 391.254 313.675C391.864 314.981 391.341 315.852 390.034 316.375C389.859 316.462 389.598 316.549 389.423 316.636C385.763 317.594 382.451 319.422 378.965 321.076C371.819 324.385 364.498 327.52 357.439 331.09C352.123 333.876 346.458 335.617 341.142 338.404C339.312 339.361 338.266 340.406 338.179 342.757C338.092 347.807 337.569 352.857 337.308 357.82C337.046 362.348 336.175 366.876 335.565 371.49C335.303 373.667 334.867 375.757 334.519 377.934C333.647 383.506 332.079 388.817 329.115 393.781C327.372 396.567 325.455 399.005 322.492 400.572C321.011 401.356 320.226 402.313 320.662 404.142C320.836 405.013 320.749 406.057 320.488 406.841C319.006 410.933 319.006 415.461 317.524 419.553C317.35 419.989 317.35 420.424 317.263 420.947C316.914 424.691 317.176 425.126 321.011 425.213C324.409 425.3 327.372 426.258 329.726 428.783C330.161 429.305 330.597 429.828 330.946 430.437C331.469 431.308 331.207 432.005 330.423 432.527C329.638 433.049 328.767 433.049 328.331 432.179C326.065 427.738 321.969 428.086 318.135 428.348C313.428 428.696 313.254 428.783 313.951 424.168C314.823 418.596 315.956 413.11 317.002 407.538C317.176 406.667 317.524 405.796 317.612 404.839C317.786 403.358 317.35 402.313 315.607 402.401C310.552 402.662 307.241 400.224 304.713 395.957C303.929 394.564 302.273 393.606 301.227 392.213C300.443 391.168 299.572 391.691 299.049 392.562C298.7 393.258 298.526 394.042 298.439 394.912C297.654 402.575 296.783 410.237 296.173 417.899C295.998 419.902 296.608 422.079 297.393 423.907C298.09 425.735 297.48 426.519 296.086 427.129C294.517 427.912 293.035 428.87 291.379 429.305C288.155 430.263 285.192 431.743 282.403 433.572C281.27 434.268 280.224 434.53 279.44 433.398C278.568 432.179 279.44 431.047 280.486 430.524C283.187 429.044 285.976 427.825 288.852 426.519C289.462 426.258 290.159 426.171 290.857 425.91C293.994 424.778 293.82 424.778 293.384 421.295C292.774 416.68 293.122 412.065 293.645 407.538C294.168 402.749 294.691 397.96 295.301 393.171C295.475 391.691 294.255 391.168 293.471 390.472C289.985 387.337 286.673 383.942 284.233 379.849C279.876 372.361 276.041 364.699 274.559 355.992C274.385 354.947 274.211 353.989 273.514 352.77C272.816 356.166 271.596 359.039 270.463 362C269.505 364.612 268.023 366.963 265.757 368.704C262.184 371.403 259.308 370.446 257.739 366.353C256.171 362.174 255.822 357.994 256.258 353.554C256.868 346.414 258.088 339.448 258.611 332.309C258.611 331.873 258.611 331.351 258.785 330.915C259.221 330.045 260.005 329.348 260.964 329.522C261.835 329.696 262.184 330.567 262.097 331.438C261.923 333.702 261.923 336.053 261.487 338.229C260.267 343.715 260.005 349.374 259.395 354.947C258.96 358.43 259.482 361.826 260.877 365.047C261.574 366.702 262.097 366.876 263.753 365.831C265.322 364.786 266.454 363.393 267.065 361.564C268.546 357.559 270.115 353.641 271.073 349.462C271.509 347.459 272.032 345.456 272.991 343.628C273.949 341.799 273.688 339.797 273.426 337.881C272.991 335.269 273.165 332.57 273.252 329.958C273.252 329.087 273.339 327.868 273.862 327.346C276.128 324.908 274.385 323.427 272.729 321.86C270.551 319.683 269.243 316.984 268.808 313.937C268.11 308.974 266.977 303.924 268.982 298.96C268.982 298.873 268.982 298.699 269.069 298.612C271.335 295.739 269.679 293.475 267.587 291.647C265.583 289.905 264.799 287.467 263.491 285.377C262.794 284.246 262.881 282.852 263.666 281.808C266.106 278.412 268.895 275.364 273.252 274.407C274.734 274.058 275.867 273.884 277 275.19C278.133 276.409 279.876 276.932 280.747 278.673C281.444 280.153 282.577 280.327 284.146 279.37C289.462 276.061 294.953 277.193 300.443 279.195C302.448 279.979 302.535 280.763 301.315 282.678C300.53 283.375 299.92 282.765 299.136 282.504C297.218 281.808 295.388 280.85 293.21 280.763C289.724 280.589 286.673 281.198 283.885 283.549C281.88 285.203 281.009 284.942 279.44 282.765C279.178 282.417 278.917 281.982 278.655 281.633C278.045 280.85 277.435 280.676 276.651 281.372C273.949 283.375 271.335 285.29 268.023 286.771C269.853 288.86 271.335 290.776 273.078 292.517C274.995 294.52 275.169 295.129 273.514 297.393C272.119 299.309 271.509 301.486 271.161 303.749C270.812 306.1 271.596 308.277 271.771 310.628C272.294 316.2 274.647 320.467 279.963 322.818C281.444 323.427 282.839 324.385 283.71 325.778C284.407 326.823 284.233 327.781 283.1 328.39C282.142 328.913 281.357 329.261 280.573 327.868C279.614 326.039 278.481 326.127 277.435 327.868C277 328.565 276.738 329.348 276.651 330.132C276.39 333.353 275.867 336.488 277.348 339.623C277.697 340.232 277.784 340.929 277.61 341.625C275.78 348.068 277.435 354.337 278.917 360.519C279.876 364.351 281.793 367.746 283.187 371.403C285.628 377.585 289.724 382.374 294.168 386.989C294.865 387.686 295.65 388.208 296.608 387.598C297.48 387.076 297.131 386.205 296.957 385.422C296.434 382.026 295.301 378.717 294.081 375.496C293.122 372.884 293.907 370.271 293.645 367.659C293.558 366.614 294.517 366.005 295.475 366.005C296.434 366.092 296.696 366.963 296.696 367.833C296.696 369.14 296.696 370.358 296.696 371.665C296.696 372.361 296.608 373.145 296.87 373.667C298.439 377.15 299.31 380.807 300.182 384.551C300.356 385.248 300.705 385.77 301.053 386.38C303.232 390.211 306.718 392.997 309.158 396.567C310.117 397.96 311.86 398.918 313.951 399.092C313.603 397.786 312.993 396.567 314.126 395.783C314.91 395.174 315.869 393.868 316.74 394.39C318.919 395.783 321.272 394.39 323.451 395.348C324.148 395.609 324.497 395.348 324.584 394.477C323.451 394.39 322.318 394.303 321.272 394.216C320.4 394.129 319.703 393.781 319.529 392.823C319.442 392.039 319.965 391.604 320.575 391.168C321.185 390.82 322.056 390.994 321.795 389.601C321.359 387.076 321.621 386.989 323.886 387.424C325.019 387.686 326.152 387.86 327.285 387.598C328.854 387.25 329.638 386.467 329.551 384.899C328.941 384.464 328.505 384.812 328.07 384.899C326.937 385.248 325.804 385.509 324.671 385.248C323.799 385.073 323.102 384.638 323.102 383.68C323.102 382.635 323.886 382.287 324.758 382.287C326.065 382.287 327.285 382.2 328.505 381.852C331.294 380.981 331.294 380.981 331.12 377.498C329.464 377.498 327.721 377.759 325.978 377.498C325.107 377.324 324.322 377.15 324.235 376.192C324.235 374.973 325.194 374.799 326.152 374.799C328.07 374.886 329.813 374.277 331.469 373.667C331.991 373.493 332.34 372.884 332.166 372.274C331.904 371.49 331.381 371.752 330.771 371.926C330.336 372.1 329.9 372.274 329.464 372.361C328.244 372.448 327.024 372.1 326.762 370.794C326.501 369.314 327.808 369.314 328.767 369.14C330.248 368.878 331.73 368.617 332.95 366.702C330.858 366.963 329.464 367.659 327.983 367.485C327.024 367.398 325.978 367.137 325.804 366.179C325.629 365.047 326.675 364.699 327.634 364.612C329.377 364.438 331.033 363.915 332.601 363.132C333.299 362.783 333.909 362.348 333.56 361.564C333.212 360.868 332.601 361.39 332.079 361.477C330.858 361.826 329.638 362.348 328.331 361.913C327.634 361.738 327.111 361.216 327.024 360.519C326.937 359.736 327.547 359.301 328.244 359.126C329.9 358.865 331.381 358.343 332.863 357.646C333.56 357.298 334.344 356.863 333.822 355.818C332.427 355.731 331.469 356.688 330.336 357.037C329.203 357.298 328.157 357.124 327.808 355.905C327.46 354.773 328.157 354.163 329.203 353.902C330.946 353.467 332.427 352.422 334.17 351.551C333.299 351.116 332.776 351.464 332.253 351.464C331.12 351.638 329.813 351.899 329.551 350.245C329.29 348.678 330.336 348.33 331.643 348.155C332.776 347.981 333.996 347.72 334.606 346.153C333.734 346.24 333.212 346.414 332.689 346.414C331.73 346.501 330.771 346.153 330.423 345.195C329.987 344.063 331.033 343.628 331.817 343.105C332.601 342.67 333.56 342.409 333.56 341.451C333.124 340.841 332.601 340.842 332.166 340.842C331.73 340.842 331.207 340.842 330.771 340.754C330.074 340.58 329.464 340.232 329.377 339.448C329.29 338.665 329.9 338.229 330.597 337.968C331.381 337.707 332.166 337.62 332.95 337.272C334.78 336.488 334.955 335.269 333.212 334.224C332.427 333.702 332.079 333.179 332.166 332.309C332.253 331.699 332.079 331.264 331.469 330.915C330.684 330.48 329.726 329.958 330.336 328.826C330.858 327.781 331.904 328.042 332.776 328.042C334.432 327.955 335.913 327.607 336.785 325.778C335.826 325.691 335.042 325.604 334.257 325.517C333.386 325.343 332.776 324.82 332.863 323.863C332.95 323.079 333.56 322.731 334.344 322.644C335.565 322.382 336.872 322.208 338.092 321.947C340.445 321.425 341.491 319.857 341.404 317.245C339.922 317.245 338.615 317.332 337.22 317.245C336.523 317.158 336 316.549 336.088 315.765C336.175 315.156 336.698 314.807 337.22 314.633C338.876 314.198 340.532 313.763 342.188 313.327C343.582 312.979 344.018 312.108 343.582 310.802C342.362 310.541 341.665 311.499 340.619 311.586C339.661 311.673 338.615 311.499 338.266 310.541C337.743 309.409 338.789 308.974 339.661 308.538C340.794 308.016 342.014 307.58 343.147 306.971C343.67 306.71 344.541 306.536 344.105 305.491C342.885 305.317 341.665 306.013 340.445 305.491C339.922 305.23 339.486 304.881 339.486 304.272C339.486 303.749 339.748 303.314 340.184 303.14C340.794 302.879 341.578 302.879 342.188 302.53C343.234 302.008 344.803 302.356 345.413 300.963C344.541 300.092 343.67 301.05 342.798 300.876C342.101 300.702 341.491 300.441 341.317 299.657C341.142 299.048 341.578 298.612 342.014 298.177C342.624 297.654 343.844 297.916 344.105 296.697C341.927 295.391 342.188 295.652 343.757 293.649C345.238 291.734 347.156 290.689 348.899 289.296C350.032 288.425 350.903 287.467 351.862 286.422C352.82 285.29 353.082 284.246 351.6 283.375C349.073 281.895 347.33 279.631 345.413 277.28C343.408 280.153 339.922 281.285 338.441 284.507C338.005 285.377 336.959 285.987 335.913 286.248C334.606 286.596 333.473 286.422 333.822 284.681C333.996 283.897 334.083 283.81 333.124 283.897C331.556 284.071 328.07 282.243 328.07 281.285C328.07 279.457 329.726 279.021 330.858 278.064C330.946 277.976 331.033 277.889 331.12 277.802C331.469 277.367 332.079 277.019 331.643 276.409C331.294 275.887 330.684 275.8 330.074 276.148C328.941 276.932 327.634 277.541 326.24 277.628C325.194 277.715 324.409 277.193 324.932 275.974C325.107 275.538 325.542 275.19 325.019 274.581C321.621 274.145 318.309 275.016 315.607 276.845C311.685 279.544 307.328 281.895 304.016 285.465C303.668 285.9 303.145 286.161 302.622 286.422C301.925 286.771 301.315 286.683 300.705 286.074C300.269 285.639 300.182 285.029 300.53 284.507C300.705 283.723 301.402 283.114 301.053 282.243ZM348.724 275.19C349.77 278.063 350.903 279.457 352.907 280.589C353.43 280.85 353.953 281.285 354.476 280.85C354.912 280.501 354.912 279.805 354.825 279.195C354.651 277.802 353.953 276.845 352.646 276.235C351.513 275.887 350.467 275.19 348.724 275.19ZM267.152 282.765C270.463 281.372 272.642 279.892 274.385 276.932C271.073 277.976 268.72 279.195 267.152 282.765Z" fill="#10100F"/>
<path d="M422.366 299.134C420.1 303.488 418.444 307.754 416.963 312.108C416.44 313.588 415.394 314.894 414.435 316.113C413.303 317.506 411.821 317.593 410.252 316.113C408.945 314.981 407.551 313.936 406.069 313.153C403.716 311.847 402.67 312.195 401.189 314.459C399.794 316.549 398.487 318.725 397.18 320.815C396.395 322.121 395.35 323.166 394.129 324.124C393.258 324.733 392.386 324.82 391.689 323.95C391.079 323.253 391.079 322.382 391.776 321.773C394.827 318.986 396.483 315.242 398.748 312.021C400.753 309.148 403.367 308.538 406.592 309.757C407.986 310.279 409.206 311.15 410.427 312.021C412.257 313.24 412.605 313.24 413.39 311.15C415.046 306.622 417.747 302.53 418.967 297.828C419.054 297.393 419.316 296.958 419.577 296.609C420.71 294.607 421.407 294.346 423.412 295.564C424.109 296 424.719 296.522 425.416 296.871C428.118 298.438 428.205 298.351 429.251 295.564C430.123 293.214 430.994 290.863 431.866 288.512C433.086 285.551 434.393 282.678 436.049 279.892C437.182 277.976 438.315 275.887 438.75 273.623C438.925 272.839 439.099 272.055 439.709 271.446C440.406 270.836 441.191 270.749 441.975 271.185C442.672 271.62 442.846 272.317 442.585 273.013C441.975 274.58 441.278 276.148 440.493 277.715C439.36 279.979 438.227 282.243 436.92 284.419C434.044 289.208 433.26 294.694 430.907 299.657C429.687 302.269 429.251 302.617 426.549 301.224C425.329 300.528 423.935 299.918 422.366 299.134Z" fill="#F26A25"/>
<path d="M388.813 331.787C387.768 331.787 386.896 331.612 386.809 330.393C386.722 329.261 387.419 328.565 388.378 328.391C390.295 328.13 392.212 327.346 394.129 327.52C398.226 328.042 402.147 326.998 406.156 326.562C413.825 325.517 421.495 324.908 429.164 324.647C431.343 324.56 433.521 324.298 435.613 323.689C436.31 323.515 436.92 323.341 437.617 323.254C438.489 323.167 439.186 323.689 439.448 324.473C439.709 325.43 439.186 326.127 438.402 326.388C437.182 326.824 435.962 327.172 434.741 327.259C426.985 327.868 419.142 328.304 411.385 329C408.335 329.261 405.198 329.61 402.147 330.306C397.79 331.351 393.171 330.48 388.813 331.787Z" fill="#10100F"/>
<path d="M367.026 303.401C366.154 298.438 367.2 293.997 367.374 289.557C367.636 282.591 367.81 275.626 368.159 268.573C368.246 266.657 368.595 264.742 368.856 262.739C368.943 262.13 369.292 261.607 369.902 261.52C370.686 261.346 371.209 261.868 371.47 262.565C371.645 263.174 371.906 263.958 371.819 264.568C370.86 268.747 371.122 273.013 371.122 277.28C371.122 283.027 370.686 288.773 370.163 294.433C369.64 299.396 370.425 304.272 370.512 309.235C370.512 309.844 370.773 310.367 370.599 310.976C370.338 312.021 369.553 312.369 368.507 312.369C367.549 312.369 367.026 311.76 367.026 310.889C367.026 308.19 367.026 305.578 367.026 303.401Z" fill="#10100F"/>
<path d="M384.369 301.051C385.327 294.956 384.805 288.687 386.112 282.592C386.373 281.46 386.635 280.328 387.245 279.37C387.68 278.76 388.203 278.412 388.988 278.586C389.772 278.848 390.034 279.457 389.946 280.154C389.772 281.373 389.511 282.679 389.249 283.898C388.116 289.557 388.552 295.304 387.68 300.963C387.593 301.486 387.768 302.095 387.593 302.705C387.419 303.576 386.809 304.098 385.85 304.011C385.066 304.011 384.543 303.489 384.369 302.792C384.369 302.27 384.369 301.66 384.369 301.051Z" fill="#10100F"/>
<path d="M310.204 320.031C309.507 320.031 308.809 320.031 308.112 320.031C306.979 319.944 305.933 319.683 306.108 318.29C306.282 316.984 307.241 316.026 308.461 316.287C312.993 317.506 316.74 315.678 320.4 313.414C320.749 313.153 321.185 312.979 321.62 312.892C322.231 312.718 322.753 312.892 323.102 313.501C323.451 314.024 323.363 314.546 322.928 315.068C321.098 316.81 319.093 318.377 316.566 318.987C314.474 319.509 312.383 320.119 310.204 320.031Z" fill="#10100F"/>
<path d="M293.732 321.164C291.902 320.989 290.595 321.164 289.462 320.641C288.503 320.206 287.283 319.945 287.632 318.551C287.98 317.245 288.939 316.723 290.246 317.158C292.076 317.768 293.819 317.855 295.737 317.681C296.87 317.594 298.003 317.245 299.136 317.071C300.181 316.897 301.314 316.897 301.489 318.29C301.663 319.596 300.704 320.119 299.659 320.293C297.48 320.641 295.301 320.902 293.732 321.164Z" fill="#10100F"/>
<path d="M305.759 306.275C305.411 308.277 304.365 309.67 302.186 309.845C300.182 310.019 299.223 308.8 299.136 307.058C299.049 304.969 300.095 303.488 302.448 303.488C304.278 303.401 305.411 304.359 305.759 306.275Z" fill="#10100F"/>
</g>
<defs>
<clipPath id="clip0">
<rect width="664" height="460" fill="white"/>
</clipPath>
</defs>
</svg>
