<svg width="664" height="460" viewBox="0 0 664 460" fill="none" xmlns="http://www.w3.org/2000/svg">
<g clip-path="url(#clip0)">
<path d="M546.121 101.122C542.981 101.292 539.895 101.122 536.81 100.67C530.86 99.8227 525.626 97.4497 521.109 93.3253C520.282 92.5908 519.456 91.7998 518.464 91.1783C513.01 87.9014 509.319 82.873 506.84 77.1665C503.809 70.1606 501.661 62.8157 503.975 54.9623C504.195 54.2278 504.36 53.4933 504.415 52.7024C504.856 41.9675 510.2 33.4361 516.316 25.3002C521.935 17.7858 529.262 12.3619 537.471 8.12446C541.438 6.09049 545.901 6.14698 550.143 5.2995C554.495 4.39551 558.627 5.69499 562.539 7.10747C570.968 10.1019 579.012 14.0569 585.953 20.1023C587.937 21.7973 589.92 23.5487 591.903 25.1872C594.162 27.0517 594.382 29.9897 595.76 32.3626C598.955 37.8431 599.341 44.058 599.782 50.2164C600.277 57.1093 598.68 63.5502 596.035 69.8216C591.738 79.822 584.906 87.6189 575.871 93.1558C566.781 98.6927 556.809 101.348 546.121 101.122ZM587.882 76.7145C588.377 76.1495 588.983 75.641 589.369 75.0196C597.302 61.5162 599.231 47.5609 592.509 32.9841C591.022 29.8202 590.746 29.7637 587.496 31.4586C586.835 31.7976 586.119 31.9671 585.457 32.3061C584.245 32.8711 583.144 32.8711 582.813 31.3456C582.537 30.1027 582.593 28.7467 584.19 28.2947C585.402 27.9557 586.614 27.5602 588.102 27.1082C586.504 25.3567 585.568 23.3792 583.419 22.6448C582.923 23.5487 582.868 24.2832 583.364 24.9612C583.86 25.6957 583.97 26.3737 583.309 26.9952C582.537 27.6732 582.042 26.8257 581.436 26.7127C579.122 26.2607 578.35 23.5487 576.257 22.9838C574.99 22.6448 574.163 22.1363 574.108 20.8368C574.053 19.0288 575.596 19.5373 576.532 19.1983C576.698 19.1418 576.753 18.8028 576.918 18.6333C574.274 15.8084 574.274 15.8084 571.243 17.2773C571.409 17.7858 571.519 18.2378 571.684 18.7463C572.07 19.8763 573.502 20.8933 572.731 22.1363C571.684 23.7747 570.582 21.7973 569.48 21.7408C566.45 21.5148 566.45 21.3453 567.497 18.4073C567.662 17.9553 567.993 17.5033 567.222 16.8818C565.238 19.0853 563.2 18.9158 561.161 16.7123C560.721 16.2603 559.784 16.2038 559.068 16.0908C557.856 15.9214 556.974 15.3564 556.203 14.5089C555.322 13.4919 554.385 12.8139 553.008 12.9834C552.236 13.0964 551.52 12.8139 550.914 12.3054C547.829 9.64994 544.193 10.1584 541.107 11.4014C534.882 13.9439 529.042 17.3338 524.139 22.2493C517.307 29.0857 512.239 37.2216 508.713 46.3179C508.327 47.2784 508.052 48.2954 507.997 49.2559C507.997 51.6854 507.556 54.0583 507.17 56.4313C505.297 67.9571 509.374 77.562 516.977 85.5849C520.282 89.0879 524.249 92.0823 528.491 94.5683C534.331 98.0712 540.667 97.9582 547.223 98.0147C546.892 96.7153 546.617 95.9243 546.507 95.0203C546.341 94.1728 546.837 93.5513 547.553 93.1558C548.49 92.5908 548.821 93.4948 549.371 93.9468C550.198 94.6248 550.198 95.8113 550.859 96.5458C551.079 96.8283 551.355 97.1672 551.74 96.8283C552.016 96.6023 552.291 96.0373 552.071 95.9243C550.363 95.1333 550.694 94.1163 552.071 93.6643C553.393 93.2123 553.669 94.3988 553.669 95.5288C553.669 96.3198 553.999 97.0543 554.715 97.3932C556.093 97.9582 558.737 96.7718 559.178 95.3028C559.619 93.9468 560.776 92.7603 560.17 91.0653C560.004 90.6133 560.5 89.8788 560.831 89.3704C561.216 88.8054 561.823 88.6359 562.484 88.8619C563.035 89.0879 562.869 89.6529 562.979 90.1613C563.365 91.4608 562.318 92.6473 562.704 93.9468C562.924 94.7378 562.869 95.9808 564.192 95.5288C565.018 95.1898 566.726 95.1333 565.348 93.3253C564.412 92.0823 565.238 91.1218 566.34 90.6133C567.001 90.2743 567.828 90.3873 567.993 89.1444C565.679 89.0879 564.577 87.6189 563.971 85.1329C566.836 86.4324 566.175 82.308 568.544 82.2515C568.489 83.4944 570.086 84.5114 568.599 85.6414C567.993 86.0934 567.111 86.2064 567.773 87.2234C568.434 88.2404 569.04 87.3364 569.591 86.9974C570.086 86.6584 570.858 86.8844 571.243 86.1499C571.133 85.8674 571.023 85.4719 570.858 85.1894C570.362 84.3419 570.142 83.4944 571.299 82.9859C572.125 82.6469 572.676 83.2684 573.117 83.8899C574.053 85.1894 573.833 87.5624 572.676 88.9184C571.684 90.0483 570.748 91.2348 569.756 92.3648C573.006 91.5173 575.651 89.9353 577.965 87.8449C578.516 87.3364 578.846 86.9409 578.461 85.9804C577.579 83.6074 577.744 83.5509 580.003 83.0989C580.995 82.8729 581.931 82.8164 582.923 82.9859C583.529 83.0424 584.356 82.7035 584.245 81.969C583.915 79.257 585.513 78.5225 587.661 78.127C588.102 78.0705 588.212 77.336 588.157 76.8275C587.992 76.6015 587.882 76.7145 587.882 76.7145ZM565.348 12.4749C563.696 11.5144 562.484 10.4409 560.776 11.7404C560.28 12.0794 559.619 12.3054 559.949 13.1529C560.225 13.8874 560.61 14.7349 561.437 14.3959C562.704 13.9439 564.247 14.1699 565.348 12.4749ZM559.398 11.1754C558.517 9.64994 557.195 9.25444 555.928 9.70644C555.101 9.98893 555.211 11.1754 555.817 12.1359C556.919 11.7969 558.076 11.5144 559.398 11.1754Z" fill="#10100F"/>
<path d="M588.598 59.3128C588.102 58.9173 587.771 58.6913 587.496 58.5218C586.89 58.1263 586.559 57.1093 585.678 57.6743C584.962 58.1263 585.017 58.9173 585.347 59.7083C585.843 60.7253 585.292 61.1208 584.411 61.2338C583.364 61.4033 582.758 60.8383 582.813 59.7083C582.868 56.0923 582.868 56.0923 579.618 55.1884C578.956 55.0189 578.35 54.8494 578.405 54.0584C578.461 53.3239 579.012 52.9284 579.673 52.9284C581.381 52.9284 583.143 52.8719 584.741 54.2279C584.906 52.9284 585.402 51.7419 585.017 51.1769C583.309 48.6909 584.796 45.979 584.411 43.4365C584.3 42.815 584.466 42.137 585.237 41.911C585.788 41.7415 586.174 42.024 586.559 42.363C587.606 43.3235 588.873 44.284 587.882 45.866C586.284 48.5214 587.165 50.3859 589.369 52.0244C589.644 52.2504 589.755 52.6459 589.975 53.0414C589.094 54.5669 587.275 53.9454 586.063 54.8494C587.551 54.8494 588.708 55.5838 590.03 55.9228C592.124 56.4878 593.005 57.8438 592.069 59.6518C590.967 61.7423 588.818 63.0417 587.661 65.1887C587.331 65.8102 586.008 65.8667 585.292 65.1322C584.521 64.3412 584.631 63.3243 585.512 62.8723C587 62.0813 587.386 60.5558 588.598 59.3128Z" fill="#10100F"/>
<path d="M587.992 76.6015C586.229 76.432 584.135 74.9065 583.254 78.014C583.033 78.7485 582.317 78.692 581.766 78.1835C581.215 77.675 580.774 76.9405 580.113 76.7145C579.397 76.4885 578.516 75.528 577.799 76.2625C577.028 77.11 577.91 77.675 578.571 78.353C579.507 79.3135 579.562 80.3305 578.02 80.952C577.248 81.291 576.698 82.0819 575.981 82.4774C575.32 82.8729 574.494 83.0989 573.888 82.4774C573.061 81.6864 573.888 81.1779 574.329 80.613C574.549 80.3305 575.1 79.935 575.045 79.822C572.621 75.3585 577.193 74.6805 579.012 72.1946C577.028 71.9121 577.304 69.5391 575.596 68.6916C574.769 68.2961 575.541 67.0531 576.367 66.6576C577.083 66.3186 578.02 65.7537 578.571 66.9966C578.956 67.9006 579.342 68.8611 579.673 69.8216C580.224 71.6296 582.262 72.0251 583.088 71.6296C584.741 70.8386 585.237 71.8556 586.229 72.5336C587.771 73.607 588.432 74.85 588.047 76.7145C587.881 76.7145 587.992 76.6015 587.992 76.6015Z" fill="#10100F"/>
<path d="M592.785 44.2841C590.857 43.9451 588.212 44.5666 588.818 41.0636C588.873 40.8941 588.653 40.5551 588.432 40.4421C585.237 38.8601 587.551 36.2611 587.331 34.1142C587.22 32.9842 588.377 32.4192 589.479 32.8147C590.526 33.2102 591.132 34.5097 590.526 35.1877C589.204 36.6566 589.644 37.7866 590.361 39.1991C590.967 40.5551 591.573 41.5156 593.336 41.2896C594.382 41.1766 594.327 42.6456 594.382 43.3801C594.438 44.4536 593.556 44.4536 592.785 44.2841Z" fill="#10100F"/>
<path d="M594.603 47.5609C592.454 49.0864 595.76 50.3859 594.989 52.0809C594.768 52.5894 594.989 53.3803 594.272 53.6063C593.611 53.8323 593.06 53.4933 592.73 52.9283C592.399 52.4199 592.234 51.7419 591.793 51.3464C591.077 50.6684 590.085 50.2164 590.306 48.9734C590.526 47.5609 591.738 46.9394 592.619 46.2049C593.391 45.4704 594.548 46.2614 594.603 47.5609Z" fill="#10100F"/>
<path d="M588.432 70.3866C587.441 70.2736 586.669 69.6522 587.165 68.6352C587.992 66.8837 589.038 65.2452 590.195 63.7198C590.691 63.0983 591.573 63.2678 591.793 64.3412C592.069 65.8667 590.416 69.6522 589.149 70.2736C588.928 70.3866 588.653 70.3866 588.432 70.3866Z" fill="#10100F"/>
<path d="M573.172 26.8823C573.172 26.4868 573.172 26.0913 573.172 25.7523C573.227 25.2438 573.392 24.7353 573.943 24.6223C574.494 24.5093 574.88 24.9048 575.1 25.3568C575.265 25.8088 575.32 26.3173 575.486 26.8258C575.816 27.9557 576.202 28.3512 577.193 27.3342C577.965 26.5433 578.626 27.2213 578.901 27.9557C579.342 29.0292 578.516 29.1987 577.744 29.2552C577.359 29.2552 576.973 29.1987 576.643 29.3117C573.392 30.3287 573.061 30.1592 573.172 26.8823Z" fill="#10100F"/>
<path d="M584.19 67.2792C584.135 67.9007 583.915 68.2962 583.419 68.4657C582.648 68.7481 581.601 68.5787 581.436 67.9572C581.105 66.6012 580.664 65.6407 579.342 65.0192C578.791 64.7932 579.012 63.8327 579.452 63.3242C579.893 62.8157 580.664 62.3637 581.05 62.8157C582.207 64.2282 583.199 65.8102 584.19 67.2792Z" fill="#10100F"/>
<path d="M581.436 34.0577C582.868 33.9447 583.86 34.4532 583.805 35.8092C583.749 37.3912 582.427 37.7302 581.16 37.7867C579.893 37.8432 579.067 37.1652 579.011 35.8092C579.011 33.9447 580.389 34.0012 581.436 34.0577Z" fill="#10100F"/>
<path d="M561.657 37.3346C561.382 38.7471 560.39 39.2556 559.233 39.1991C558.572 39.1991 558.131 38.6341 558.241 37.8996C558.407 36.6566 558.903 35.6961 560.335 35.8656C561.161 35.9786 561.657 36.4871 561.657 37.3346Z" fill="#10100F"/>
<path d="M577.083 63.2676C576.202 63.1546 575.596 62.7591 575.651 61.8551C575.706 60.8947 576.202 60.1037 577.249 60.0472C578.185 59.9907 579.012 60.4427 579.067 61.5161C579.177 62.9286 577.855 62.8721 577.083 63.2676Z" fill="#10100F"/>
<path d="M559.013 92.4778C558.792 93.4948 558.296 94.5118 557.084 94.6813C556.423 94.7378 556.093 94.0598 556.148 93.3818C556.203 92.1953 556.534 91.1218 557.966 91.1218C558.627 91.1218 559.013 91.5738 559.013 92.4778Z" fill="#10100F"/>
<path d="M526.177 60.1037C526.012 61.1207 525.461 61.3467 524.745 61.4597C523.698 61.6291 523.037 61.2902 523.147 60.0472C523.257 58.9172 524.029 58.5782 524.965 58.6912C526.067 58.8607 526.287 59.3692 526.177 60.1037Z" fill="#10100F"/>
<path d="M531.136 90.9524C530.97 91.9129 530.419 92.4779 529.373 92.5344C528.491 92.5344 527.94 92.0259 527.94 91.1784C527.995 90.1614 528.601 89.5964 529.648 89.5964C530.585 89.5399 531.025 89.9919 531.136 90.9524Z" fill="#10100F"/>
<path d="M542.926 75.9801C543.146 75.1326 543.366 74.1721 544.413 74.1156C545.184 74.1156 545.79 74.7371 545.956 75.5281C546.121 76.6016 545.405 77.1101 544.468 77.2231C543.587 77.3361 543.091 76.8276 542.926 75.9801Z" fill="#10100F"/>
<path d="M534.661 28.2946C534.661 29.2551 534.055 29.5376 533.229 29.6506C532.568 29.7071 531.962 29.4246 531.907 28.6336C531.852 27.7296 532.072 26.7127 533.229 26.7127C534 26.6562 534.441 27.3906 534.661 28.2946Z" fill="#10100F"/>
<path d="M555.927 55.1884C555.101 55.1319 554.44 54.8494 554.495 53.8889C554.495 52.9849 554.826 52.0809 555.872 52.0244C556.864 51.9679 557.415 52.5894 557.525 53.6064C557.58 54.7364 556.864 55.0754 555.927 55.1884Z" fill="#10100F"/>
<path d="M545.625 22.0797C545.515 22.0797 544.689 21.9102 544.854 20.6672C544.964 19.8762 545.35 19.1417 546.231 19.3112C547.168 19.4807 547.608 20.3282 547.719 21.1757C547.774 21.9667 547.057 22.0797 545.625 22.0797Z" fill="#10100F"/>
<path d="M526.783 80.2176C526.838 81.1781 526.067 81.4606 525.406 81.5735C524.524 81.743 523.974 81.3476 523.974 80.3871C523.974 79.5961 524.359 78.9181 525.241 78.8616C526.122 78.8616 526.508 79.4831 526.783 80.2176Z" fill="#10100F"/>
<path d="M580.995 41.572C580.94 42.1935 580.719 42.589 580.169 42.6455C579.177 42.7585 578.13 42.7585 577.965 41.4025C577.91 40.781 578.24 40.0465 578.846 39.9335C580.058 39.764 580.499 40.781 580.995 41.572Z" fill="#10100F"/>
<path d="M555.762 68.5786C555.652 69.5391 554.991 69.8216 554.22 69.8216C553.503 69.8216 553.173 69.3696 553.118 68.6351C553.118 67.7876 553.393 67.1096 554.33 67.1661C555.101 67.2791 555.652 67.7311 555.762 68.5786Z" fill="#10100F"/>
<path d="M548.655 29.8202C548.765 30.6676 548.049 31.0066 547.333 31.1196C546.286 31.2891 546.231 30.4416 546.176 29.7072C546.121 28.9162 546.341 28.1817 547.333 28.1817C548.325 28.1252 548.435 28.9162 548.655 29.8202Z" fill="#10100F"/>
<path d="M581.932 30.8936C582.042 31.9106 581.436 32.1931 580.83 32.1931C580.003 32.2496 579.287 31.8541 579.397 30.8936C579.507 30.1591 579.838 29.2551 580.719 29.3116C581.601 29.3681 581.601 30.3851 581.932 30.8936Z" fill="#10100F"/>
<path d="M524.745 34.5096C524.69 35.3571 524.139 35.4701 523.478 35.5266C522.761 35.5831 522.266 35.2441 522.266 34.4531C522.266 33.7751 522.596 33.1536 523.257 33.0406C524.194 32.9276 524.524 33.7186 524.745 34.5096Z" fill="#10100F"/>
<path d="M571.188 77.1666C571.299 78.014 570.858 78.466 570.197 78.466C569.425 78.466 569.26 77.8445 569.315 77.1666C569.37 76.4321 569.536 75.5846 570.527 75.7541C571.354 75.8671 570.913 76.7711 571.188 77.1666Z" fill="#10100F"/>
<path d="M579.893 48.9169C579.893 49.7644 579.562 50.2164 578.846 50.2729C578.13 50.3859 577.634 49.9904 577.579 49.2559C577.469 48.4649 577.965 48.0694 578.626 48.0129C579.287 47.9564 579.783 48.2389 579.893 48.9169Z" fill="#10100F"/>
<path d="M537.306 48.2389C537.306 49.0299 536.81 49.3689 536.149 49.3689C535.543 49.3689 534.992 48.9169 535.157 48.1824C535.267 47.5045 535.708 46.9395 536.314 46.9395C536.975 46.883 537.251 47.561 537.306 48.2389Z" fill="#10100F"/>
<path d="M555.872 90.3875C555.597 91.0655 555.156 91.009 554.66 90.896C553.999 90.783 553.613 90.331 553.834 89.5965C553.944 89.0315 554.33 88.749 554.881 89.0315C555.377 89.3705 555.817 89.8225 555.872 90.3875Z" fill="#10100F"/>
<path d="M513.946 49.3689C514.773 49.4819 515.379 49.8774 515.379 50.6119C515.379 51.2334 514.718 51.2899 514.222 51.2334C513.671 51.1769 513.175 50.9509 513.12 50.3294C512.955 49.5384 513.616 49.5949 513.946 49.3689Z" fill="#10100F"/>
<path d="M668.887 122.387C669.016 123.35 670.176 123.574 670.273 124.505C670.337 125.051 670.112 125.982 669.854 125.853C668.308 125.179 666.987 126.977 665.988 126.495C664.377 125.725 664.28 126.816 663.668 127.555C662.057 129.449 661.252 129.416 660.478 127.105C660.092 125.918 659.576 126.239 658.867 126.431C658.062 126.656 657.353 126.592 657.063 125.661C656.773 124.794 657.546 124.602 658.062 124.281C659.093 123.607 660.607 123.189 659.383 121.456C659.222 121.231 659.512 120.782 659.834 120.75C661.477 120.493 661.219 119.562 660.801 118.439C660.511 117.668 660.253 116.705 661.284 116.192C662.379 115.678 663.12 116.256 663.604 117.219C664.731 119.369 666.793 119.658 668.855 119.819C669.435 119.851 670.08 119.337 670.531 120.076C670.982 120.846 670.337 121.231 669.886 121.648C669.532 121.905 669.21 122.162 668.887 122.387Z" fill="#10100F"/>
<path d="M491.697 413.769C490.633 414.346 489.828 413.737 488.99 413.769C488.636 413.961 488.7 414.25 488.732 414.571C488.797 415.181 489.119 415.919 488.475 416.304C487.701 416.754 487.057 416.176 486.509 415.662C486.219 415.374 485.929 415.021 485.704 414.667C484.48 412.517 484.48 412.517 482.192 413.223C481.999 413.287 481.773 413.255 481.548 413.255C481.451 413.255 481.354 413.191 481 413.03C482.128 411.939 481.516 410.174 482.965 409.114C483.61 408.633 482.836 407.991 482.45 407.541C481.87 406.835 481.419 405.969 482.192 405.262C483.03 404.492 483.739 405.23 484.383 405.84C484.77 406.193 485.06 406.643 485.704 406.579C486.638 405.969 486.348 404.845 486.832 404.011C487.283 403.272 487.798 402.919 488.636 403.016C489.441 403.112 489.635 403.658 489.602 404.396C489.57 405.262 489.602 406.097 490.569 406.546C490.73 406.611 490.859 407.22 490.73 407.381C489.022 409.788 491.181 411.586 491.697 413.769Z" fill="#10100F"/>
<path d="M157.127 455.492C153.544 455.795 150.63 453.913 147.472 452.699C144.437 451.545 141.401 450.27 138.122 449.845C134.964 449.42 132.414 450.391 130.411 452.941C129.864 453.609 129.257 454.216 128.711 454.824C128.043 455.552 127.193 455.674 126.403 455.249C125.614 454.824 125.371 453.913 125.432 453.063C125.432 452.759 125.553 452.395 125.735 452.152C128.711 448.813 131.929 445.594 136.786 445.534C138.79 445.534 140.915 445.837 142.919 446.505C145.955 447.477 148.93 448.509 151.844 449.905C153.484 450.695 155.366 451.241 157.309 451.363C159.07 451.423 160.709 451.12 161.863 449.541C162.591 448.57 162.531 447.537 161.681 446.93C161.195 446.566 160.709 446.262 160.163 446.93C159.495 447.78 158.523 447.477 157.612 447.295C157.187 447.234 156.945 446.566 156.277 446.809C155.852 446.991 155.912 446.445 155.912 446.141C155.973 444.927 156.337 443.834 156.823 442.741C157.187 441.83 158.098 441.709 159.07 441.648C161.438 441.526 165.141 443.53 166.234 446.141C166.781 447.416 166.417 448.509 166.113 449.48C165.263 452.395 163.077 454.156 160.284 455.127C159.252 455.552 158.159 455.431 157.127 455.492Z" fill="#10100F"/>
<path d="M432.282 291.907C432.95 290.874 432.525 289.781 432.707 288.749C432.768 288.446 432.525 287.899 432.828 287.838C434.043 287.535 434.65 286.078 435.986 286.078C437.139 286.078 438.293 285.713 439.386 286.563C440.054 287.049 440.904 286.988 441.632 287.596C443.879 289.478 444.608 292.635 443.09 295.125C442.725 295.732 442.3 296.339 441.936 296.946C441.693 297.371 441.329 297.857 440.843 298.039C438.232 298.828 435.621 299.861 432.828 299.678C431.432 299.557 430.157 299.011 428.942 298.403C426.21 297.068 423.538 295.489 420.806 294.153C418.499 293 416.07 292.271 413.459 292.332C411.03 292.392 409.148 293.182 408.237 295.671C407.934 296.4 407.63 297.25 406.841 297.796C405.991 298.403 405.384 298.039 404.716 297.553C404.048 297.068 403.805 296.4 404.169 295.671C404.837 294.335 405.505 292.999 406.173 291.664C406.294 291.36 406.537 291.117 406.78 290.935C409.391 288.931 412.427 288.081 415.645 288.263C417.041 288.324 418.438 288.871 419.774 289.417C423.174 290.935 426.453 292.574 429.671 294.335C431.675 295.428 433.982 296.035 436.411 295.61C437.504 295.428 438.414 294.882 439.264 294.335C440.114 293.789 440.175 291.785 439.507 291.056C438.961 290.51 437.079 290.449 436.532 291.117C435.378 292.392 433.982 292.271 432.282 291.907Z" fill="#10100F"/>
<path d="M21.735 292.706C22.4636 292.767 23.0101 292.767 23.5566 292.645C26.1675 292.281 29.1426 294.77 29.2034 297.442C29.2034 299.021 28.5962 300.478 27.1389 301.267C26.4103 301.632 26.046 302.36 25.1352 302.603C23.678 302.907 22.2815 302.664 20.9457 302.482C18.3348 302.057 15.7846 301.085 13.5988 299.81C12.0808 298.899 10.5629 298.413 8.98418 297.928C8.377 297.685 7.64838 297.624 7.10192 297.867C5.34109 298.596 3.45882 298.96 2.00158 300.296C1.57655 300.66 1.15153 301.146 0.483626 300.903C-0.123557 300.66 -0.852176 300.539 -0.973613 299.81C-1.09505 299.021 -0.791458 298.292 -0.184275 297.867C0.605062 297.26 1.45512 296.653 2.30517 296.228C4.066 295.378 5.94827 294.892 7.83054 294.406C8.68059 294.224 9.53065 294.406 10.32 294.77C11.5344 295.317 12.8094 295.62 14.0238 296.106C15.2382 296.531 16.5132 296.956 17.5455 297.806C19.4277 299.446 21.7957 299.385 24.103 299.446C25.0745 299.446 25.9246 298.596 25.8639 297.746C25.8639 297.017 25.0138 296.47 23.9816 296.531C23.7994 296.531 23.678 296.592 23.4958 296.592C21.7957 296.713 21.4314 296.41 21.6136 294.71C21.735 294.042 22.0993 293.495 21.735 292.706Z" fill="#10100F"/>
<path d="M233.001 321.267C231.608 321.213 230.644 320.838 229.573 320.892C228.984 320.945 228.341 320.838 227.805 320.356C227.323 319.927 226.68 319.82 226.037 319.659C224.644 319.338 223.841 318.481 224.055 317.088C224.216 316.017 224.162 314.999 223.894 314.035C223.091 310.767 223.198 307.392 222.127 304.124C221.002 300.803 219.716 297.535 218.163 294.375C217.091 292.071 215.966 289.821 214.841 287.518C214.52 286.821 214.091 286.178 213.609 285.643C211.734 283.5 210.395 280.982 208.466 278.893C205.949 276.161 203.538 273.215 200.752 270.75C199.467 269.572 198.449 268.179 197.431 266.786C194.753 263.144 192.021 259.608 189.021 256.18C186.824 253.662 184.735 251.037 182.967 248.251C181.682 246.216 180.182 244.341 179.11 242.091C178.575 240.966 177.825 239.894 177.128 238.823C175.521 236.412 174.503 233.734 173.111 231.27C172.736 230.573 172.414 229.823 171.986 229.127C171.611 228.43 171.075 227.734 170.807 226.984C169.361 222.538 166.736 218.681 164.754 214.502C162.986 210.699 160.843 207.056 159.236 203.092C158.379 200.949 157.093 199.021 156.075 196.985C155.111 195.057 154.415 192.967 153.343 191.093C152.593 189.7 152.058 188.253 151.468 186.861C150.772 185.253 150.183 183.539 149.594 181.825C148.361 178.343 147.772 174.647 146.594 171.165C144.879 166.022 144.504 160.611 142.951 155.469C142.469 153.862 142.308 152.094 142.522 150.326C142.951 147.326 142.737 144.326 142.844 141.326C142.951 137.523 142.897 133.72 143.326 129.97C143.701 126.648 144.076 123.327 145.04 120.113C145.844 117.542 146.326 114.863 146.861 112.185C147.129 110.792 147.611 109.506 147.986 108.167C148.897 104.524 150.558 101.203 152.272 97.9887C153.611 95.5245 155.165 93.1674 157.415 91.346C158.165 90.7032 158.807 89.9532 159.45 89.2568C161.647 86.8998 164.432 85.2927 166.843 83.3106C168.825 81.7035 170.753 80.0964 172.896 78.6501C174.985 77.2572 177.182 76.1323 179.271 74.7931C182.378 72.811 185.86 71.7396 189.181 70.2396C192.717 68.6861 196.253 67.1326 199.467 64.9363C200.11 64.4541 200.86 64.1327 201.61 63.8113C202.895 63.3292 204.074 62.5256 205.306 61.9899C208.306 60.7043 211.198 59.0436 214.466 58.4008C215.645 58.1329 216.77 57.7044 217.895 57.2758C220.895 56.2044 223.948 55.4009 227.109 55.0259C231.019 54.5438 234.93 54.4366 238.894 54.0616C240.18 53.9545 241.465 53.9545 242.697 54.3295C243.769 54.5973 244.733 54.1688 245.804 54.2759C246.983 54.3831 248.215 54.2223 249.447 54.1688C252.929 54.0616 256.358 54.5438 259.786 55.2402C264.018 56.1509 268.196 57.383 272.428 58.1865C277.143 59.0436 281.535 60.7578 285.982 62.4721C291.017 64.4006 295.999 66.3826 300.713 69.0611C302.267 69.9718 303.874 70.7218 305.481 71.5253C310.088 73.7752 314.213 76.7216 318.445 79.5607C319.623 80.3643 320.802 81.2214 321.98 82.0785C324.98 84.2213 327.498 86.7926 329.694 89.739C332.319 93.221 334.891 96.6494 337.033 100.453C339.658 105.221 342.23 109.988 344.587 114.917C347.694 121.399 349.461 128.255 351.069 135.219C352.193 139.987 353.051 144.862 353.479 149.79C353.908 154.183 354.068 158.629 353.426 163.129C353.051 165.754 352.89 168.433 352.301 171.004C351.336 175.075 350.694 179.254 349.354 183.271C348.229 186.593 346.89 189.807 345.551 193.021C343.73 197.307 341.908 201.592 340.408 206.038C339.765 207.913 339.23 209.788 338.694 211.663C338.212 213.27 337.569 214.824 336.819 216.324C336.337 217.288 336.123 218.413 335.801 219.431C335.051 221.627 333.926 223.663 333.176 225.806C332.426 227.948 331.569 229.984 330.819 232.127C329.534 235.93 327.819 239.519 326.052 243.109C325.569 244.019 325.194 244.983 324.819 245.948C323.427 249.537 321.23 252.59 318.82 255.59C317.213 257.572 315.445 259.394 313.623 261.161C312.123 262.661 310.731 264.322 309.445 265.983C308.32 267.483 307.034 268.768 305.802 270.161C304.463 271.715 302.91 273.161 301.41 274.554C297.928 277.875 294.606 281.304 291.446 284.946C289.999 286.661 288.339 288.214 286.839 289.875C285.446 291.428 284.214 293.142 282.714 294.589C280.839 296.357 279.875 298.767 277.946 300.428C277.678 300.642 277.571 301.017 277.41 301.339C276.285 303.589 275 305.785 273.286 307.66C272.375 308.678 272.053 310.178 271.036 311.142C269.054 313.07 267.554 315.374 265.947 317.677C265.679 318.052 265.357 318.427 265.304 318.856C265.036 320.999 263.697 322.659 262.84 324.481C262.304 325.713 261.661 326.195 260.857 325.927C259.679 325.552 259.09 324.374 259.411 323.141C259.572 322.445 260 321.909 260.268 321.267C261.179 319.392 262.197 317.57 263.054 315.695C263.857 313.927 265.143 312.535 266.322 311.088C267.554 309.588 268.839 308.035 269.964 306.481C271.464 304.446 273.018 302.41 274.196 300.214C275.535 297.642 277.25 295.339 279.285 293.25C281.107 291.375 282.767 289.393 284.428 287.357C285.285 286.286 286.249 285.268 287.267 284.304C289.089 282.589 290.589 280.661 292.249 278.839C293.428 277.554 294.713 276.375 295.945 275.197C298.303 272.84 300.767 270.536 303.07 268.126C304.409 266.733 305.642 265.126 306.927 263.679C309.82 260.465 312.766 257.304 315.659 254.09C317.802 251.68 319.677 249.001 321.016 246.055C322.141 243.537 323.534 241.126 324.444 238.555C325.409 238.073 325.141 237.002 325.462 236.252C325.837 235.395 326.266 234.591 326.534 233.68C326.909 232.502 327.766 231.484 328.141 230.252C329.051 227.413 330.069 224.573 331.087 221.788C331.676 220.181 332.48 218.627 333.069 216.967C334.355 213.538 335.748 210.11 336.712 206.574C337.998 202.074 339.765 197.735 341.587 193.45C341.801 192.914 341.962 192.325 342.069 191.789C342.497 189.914 343.89 188.628 344.587 186.861C346.087 183.111 347.319 179.254 348.069 175.29C348.444 173.361 348.979 171.486 349.354 169.558C350.158 165.701 350.801 161.736 350.747 157.719C350.64 153.326 350.158 148.987 349.676 144.648C349.086 139.559 347.801 134.684 346.462 129.755C345.819 127.345 344.854 125.041 344.533 122.577C344.479 122.202 344.319 121.774 344.158 121.452C342.069 117.22 340.355 112.774 338.051 108.649C336.98 106.72 335.908 104.846 334.73 102.971C334.033 101.846 333.498 100.614 332.801 99.4886C331.301 96.8101 329.266 94.5066 327.498 91.9889C326.212 90.1675 324.712 88.614 323.159 87.0069C322.034 85.8819 320.695 84.8641 319.355 84.007C317.105 82.6142 315.07 80.9 312.82 79.4536C308.963 76.9358 304.945 74.6323 300.82 72.5431C298.517 71.3646 296.213 70.1325 293.91 68.954C293.535 68.7397 293.213 68.5254 292.838 68.4183C290.428 67.7754 288.285 66.3826 285.928 65.5791C282.553 64.4006 279.232 63.0613 275.696 62.2042C272.75 61.5078 269.857 60.5971 266.911 60.115C263.107 59.4722 259.411 58.1865 255.608 57.4901C253.518 57.1151 251.429 57.008 249.394 57.1151C245.215 57.383 241.037 57.1151 236.912 57.1151C235.626 57.1151 234.394 57.383 233.108 57.4365C227.859 57.7579 222.769 58.5615 217.788 60.2757C213.448 61.7757 208.949 63.1149 204.877 65.3648C201.931 67.0255 198.824 68.4718 196.038 70.4003C194.485 71.4717 192.824 72.2217 191.056 72.811C184.949 74.8466 179.325 77.9001 173.968 81.4357C171.45 83.0963 169.307 85.2391 166.95 87.0605C165.182 88.4533 163.254 89.5782 161.647 91.2389C159.182 93.7567 156.665 96.2744 155.004 99.435C153.397 102.435 152.165 105.596 150.986 108.756C149.808 111.917 149.219 115.238 148.361 118.452C147.397 122.202 146.754 126.006 146.433 129.863C145.951 136.077 145.576 142.344 145.844 148.558C145.897 149.63 145.79 150.755 145.736 151.88C145.683 153.487 145.683 155.094 146.379 156.647C146.808 157.612 146.754 158.79 146.915 159.861C147.611 164.04 148.79 168.058 150.022 172.075C150.504 173.629 150.772 175.182 151.254 176.736C152.218 180.004 153.451 183.164 154.736 186.271C155.968 189.325 157.522 192.217 158.915 195.217C159.557 196.664 160.361 198.057 161.111 199.503C162.45 202.128 163.414 204.913 164.807 207.485C166.361 210.324 167.807 213.217 169.307 216.109C170.593 218.574 171.932 220.984 173.218 223.449C173.807 224.573 173.807 225.913 174.45 227.038C175.95 229.555 176.646 232.555 178.628 234.805C180.878 240.269 184.467 244.876 187.735 249.698C189.664 252.59 191.913 255.215 194.324 257.733C195.824 259.34 196.949 261.269 198.288 262.983C200.431 265.661 202.627 268.233 205.038 270.643C206.377 271.983 207.609 273.536 208.841 275.036C210.234 276.697 211.734 278.197 213.02 279.911C215.377 283.125 217.627 286.393 219.287 290.035C220.145 291.91 221.162 293.732 221.912 295.66C222.716 297.696 223.412 299.732 224.323 301.714C225.769 304.821 225.984 308.142 226.359 311.517C226.519 312.963 227.001 314.41 227.269 315.91C227.376 316.606 228.126 316.82 228.716 317.035C229.466 317.302 230.323 317.463 231.073 317.517C233.805 317.784 236.376 318.749 239.055 318.963C239.483 319.017 239.805 319.177 240.18 319.338C243.072 320.463 246.019 320.999 249.072 320.302C249.501 320.195 249.929 320.142 250.411 320.195C251.965 320.302 252.983 319.606 253.572 318.106C254.376 316.177 254.804 314.142 255.715 312.267C256.358 310.928 257.108 309.642 257.75 308.303C259.036 305.463 260.643 302.785 262.09 300.053C262.572 299.196 263.214 298.446 263.804 297.642C265.786 294.857 267.875 292.125 269.643 289.232C270.018 288.589 270.554 288 271.089 287.518C273.875 285 276.018 281.946 278.535 279.107C281.428 275.84 284.428 272.786 288.017 270.268C288.928 269.625 289.571 268.768 290.428 268.072C292.196 266.626 293.963 265.126 295.678 263.626C297.66 261.965 299.16 259.769 300.713 257.679C301.892 256.126 303.177 254.626 304.409 253.072C304.999 252.323 305.749 251.626 306.07 250.662C306.124 250.501 306.284 250.394 306.338 250.233C306.927 249.215 308.374 249.055 308.641 247.555C308.802 246.376 309.766 245.305 310.409 244.234C310.784 243.591 310.731 242.466 311.909 242.519C311.963 242.519 311.963 242.466 312.016 242.412C312.391 241.876 311.32 241.341 311.963 240.859C312.338 240.537 312.873 240.537 312.552 239.787C312.284 239.091 312.82 238.287 313.141 237.698C314.32 235.609 314.856 233.252 315.445 231.002C316.248 228.109 317.48 225.377 318.338 222.484C318.82 220.984 319.248 219.484 319.784 218.038C319.945 217.556 319.891 216.806 320.802 216.913C321.07 216.967 321.23 216.645 321.07 216.431C320.266 215.467 320.962 214.556 321.337 213.86C323.212 210.431 323.962 206.681 325.141 202.985C326.212 199.61 327.391 196.235 328.73 192.967C330.123 189.7 331.569 186.378 332.319 182.843C332.587 181.611 333.176 180.486 333.605 179.307C334.355 177.379 334.944 175.343 335.319 173.361C335.908 170.04 336.765 166.718 336.98 163.343C337.087 161.844 337.73 160.344 337.837 158.79C337.998 156.058 338.212 153.326 337.837 150.648C337.569 148.665 337.408 146.683 336.926 144.701C336.551 143.148 336.605 141.487 336.444 139.88C335.962 136.023 335.426 132.22 334.998 128.363C334.944 127.827 334.676 127.398 334.462 126.916C333.444 123.916 332.319 120.916 330.551 118.238C328.676 115.345 327.23 112.185 324.766 109.613C324.016 108.81 323.534 107.685 322.945 106.667C322.195 105.435 321.445 104.203 320.534 103.131C319.784 102.274 319.516 101.256 318.82 100.346C317.159 98.2029 315.338 96.2209 313.141 94.5602C311.481 93.3281 309.82 92.0424 308.266 90.7032C305.909 88.614 303.177 87.114 300.445 85.6141C297.767 84.1141 295.035 82.7213 292.088 81.8107C290.964 81.4892 289.892 81.0607 288.767 80.8464C285.767 80.2571 282.928 79.0786 279.982 78.1679C275.589 76.8823 271.464 74.9538 267.179 73.4538C264.554 72.5431 261.982 71.4717 259.357 70.6146C256.947 69.8647 254.59 68.954 252.018 68.579C248.59 68.0969 245.215 68.4718 241.787 68.8468C237.769 69.2218 233.751 69.9182 229.734 70.2396C227.376 70.4539 225.019 70.5611 222.662 70.8825C219.502 71.311 216.448 72.2753 213.448 73.2931C209.806 74.5252 206.377 76.3466 202.895 78.0608C200.592 79.2393 198.288 80.4714 195.878 81.3821C193.735 82.1856 191.699 83.3642 189.985 84.9713C189.717 85.2391 189.449 85.3998 189.181 85.5605C186.985 86.8462 184.896 88.239 183.289 90.3282C182.592 91.2389 181.521 91.8282 180.557 92.4174C177.664 94.1317 174.932 96.0066 172.414 98.2565C169.95 100.453 168.129 103.185 165.986 105.703C164.325 107.685 163.736 109.988 162.825 112.185C161.54 115.131 159.879 117.97 158.54 120.863C157.79 122.524 157.308 124.238 156.879 126.006C156.45 127.934 156.665 130.077 155.54 131.845C155.433 132.005 155.433 132.273 155.433 132.541C155.379 136.827 155.272 141.112 155.486 145.398C155.647 148.558 155.54 151.719 156.129 154.826C156.504 156.915 156.933 159.004 157.361 161.04C157.79 163.236 158.861 165.218 159.022 167.468C159.129 169.022 159.825 170.575 160.897 171.861C162.664 173.95 163.575 176.522 164.218 179.039C165.718 184.932 167.914 190.557 170.593 196.021C171.343 197.574 171.878 199.235 172.468 200.896C173.646 204.11 175.2 207.11 176.807 210.056C178.253 212.735 179.967 215.252 181.467 217.877C182.967 220.449 184.199 223.234 186.235 225.431C187.199 226.448 187.949 227.627 188.646 228.698C189.396 229.877 189.985 231.216 190.681 232.502C191.378 233.787 192.235 235.073 193.038 236.359C194.378 238.448 195.128 240.805 196.842 242.734C198.235 244.287 199.52 245.894 200.485 247.716C200.967 248.573 201.931 249.162 202.627 249.912C204.449 251.894 206.056 254.09 207.395 256.447C208.413 258.215 209.913 259.608 211.145 261.161C212.484 262.876 213.716 264.697 215.055 266.411C217.145 269.143 218.912 272.143 221.537 274.447C222.502 275.304 223.037 276.59 223.894 277.607C225.769 279.857 227.859 281.946 229.466 284.464C231.18 287.196 232.787 289.928 234.233 292.768C234.983 294.16 235.358 295.821 235.733 297.374C236.323 299.571 236.858 301.767 236.751 304.071C236.698 305.624 237.662 306.321 238.787 306.749C240.93 307.553 243.126 308.41 245.376 308.731C246.447 308.892 247.197 308.035 247.84 307.392C248.429 306.803 248.804 305.999 249.126 305.142C250.036 302.946 250.893 300.749 252.018 298.66C252.715 297.374 253.84 296.303 254.536 294.964C256.465 291.482 259.09 288.428 260.75 284.839C261.286 283.768 261.982 282.75 262.197 281.518C262.304 280.982 262.786 280.393 263.268 280.018C263.857 279.536 264.286 278.893 264.714 278.304C266.429 276.054 268.25 273.911 269.857 271.554C270.554 270.536 271.25 269.518 272.321 268.768C272.536 268.608 272.803 268.393 272.964 268.179C274.678 265.768 276.768 263.733 279.178 262.019C279.5 261.804 279.767 261.483 280.035 261.161C280.41 260.679 280.892 260.251 281.321 259.769C282.125 258.965 283.517 259.019 284.053 257.679C284.482 256.662 285.714 256.126 286.41 255.215C287.642 253.715 288.981 252.322 290.16 250.769C290.696 250.073 291.499 249.644 292.249 249.215C293.481 248.519 294.446 247.555 295.142 246.323C296.32 244.341 297.767 242.519 298.785 240.484C300.392 237.269 302.535 234.27 303.392 230.68C303.606 229.877 304.034 229.073 304.356 228.27C305.106 226.341 305.802 224.359 306.552 222.431C306.767 221.949 306.767 221.091 307.731 221.252C308.106 221.306 307.945 221.038 307.891 220.824C307.516 220.02 307.731 219.27 308.106 218.52C309.338 216.163 310.141 213.645 310.945 211.128C312.016 207.699 312.659 204.217 313.516 200.789C313.623 200.306 313.731 199.878 313.731 199.396C313.623 196.824 314.534 194.414 315.231 192.003C316.409 187.932 318.873 184.557 320.909 180.968C321.391 180.164 321.766 179.307 321.98 178.45C322.891 174.593 323.534 170.629 323.802 166.665C324.016 163.986 324.284 161.254 324.766 158.576C325.034 156.969 324.873 155.255 324.927 153.594C325.087 150.701 324.873 147.862 324.873 144.969C324.873 140.041 324.337 135.112 322.73 130.452C321.927 128.202 320.909 126.006 320.052 123.702C319.302 121.559 318.552 119.47 317.963 117.274C317.534 115.827 317.159 114.381 316.463 113.042C316.248 112.613 315.98 112.238 315.927 111.756C315.498 109.56 314.373 107.738 312.82 106.292C310.141 103.828 307.356 101.471 303.927 100.024C302.535 99.435 301.035 99.1136 299.535 99.1672C298.356 99.2208 298.035 99.5422 298.035 100.774C297.981 102.489 298.356 103.828 300.017 104.846C303.07 106.667 305.588 109.131 307.517 112.131C308.266 113.256 308.534 114.542 309.231 115.72C310.088 117.22 310.999 118.72 311.695 120.274C313.088 123.381 314.106 126.648 314.909 129.916C315.98 134.255 316.034 138.702 316.141 143.201C316.195 146.63 316.195 150.005 316.195 153.433C316.195 157.719 316.409 162.111 315.123 166.343C314.588 168.111 314.748 170.04 314.748 171.861C314.748 174.647 313.838 177.164 312.766 179.682C312.231 180.968 311.802 182.254 311.374 183.593C310.516 186.7 309.82 189.86 308.588 192.86C307.999 194.36 307.57 195.914 306.927 197.36C305.856 199.717 305.32 202.289 304.838 204.806C304.302 207.378 303.552 209.949 302.642 212.413C301.624 215.038 300.66 217.717 299.802 220.395C298.785 223.502 297.392 226.502 296.588 229.716C296.267 231.055 295.249 232.18 294.446 233.252C292.678 235.609 290.964 238.019 288.767 240.001C288.66 240.109 288.553 240.269 288.446 240.43C287.107 242.251 285.767 244.019 284.16 245.626C282.392 247.341 281.107 249.59 279.393 251.358C277.41 253.34 275.643 255.537 273.446 257.358C272.321 258.269 271.411 259.554 270.5 260.786C268.304 263.84 266.482 267.108 264.018 269.947C260.804 273.643 258.072 277.714 255.875 282.107C255.447 282.964 254.59 283.607 254.75 284.732C254.75 284.839 254.697 285 254.643 285.053C252.661 286.232 252.233 288.428 251.268 290.25C251.001 290.678 250.733 291.16 250.679 291.696C250.304 294 248.644 295.071 246.769 295.982C246.019 296.357 245.322 296.464 244.465 296.089C243.072 295.5 241.787 294.803 240.447 294.107C239.805 293.785 239.322 293.303 238.894 292.768C235.573 288.696 232.733 284.304 230.43 279.589C229.573 277.875 228.662 276.215 227.216 274.875C226.519 274.179 225.984 273.375 225.448 272.518C224.43 270.858 223.091 269.358 222.02 267.751C221.162 266.465 220.091 265.34 219.448 263.894C219.287 263.572 219.18 263.197 218.912 262.983C217.198 261.376 216.073 259.34 214.68 257.465C212.591 254.68 210.395 251.948 208.145 249.269C206.913 247.823 206.163 246.055 204.824 244.662C202.627 242.305 200.592 239.787 198.663 237.216C197.056 235.127 195.717 232.877 194.324 230.627C193.199 228.859 192.128 227.038 191.056 225.163C189.449 222.431 187.574 219.859 185.807 217.234C185.699 217.074 185.646 216.913 185.539 216.806C185.057 216.27 184.842 215.735 184.574 215.038C184.253 214.074 184.039 213.002 183.557 212.145C182.646 210.485 182.807 208.663 182.432 206.949C182.271 206.199 182.86 205.503 183.235 205.128C184.574 203.842 185.807 202.289 187.842 201.967C189.503 201.699 190.949 201.86 192.396 202.771C194.592 204.217 195.824 206.306 196.842 208.61C197.699 210.538 198.288 212.574 199.145 214.502C200.752 218.038 202.413 221.574 204.502 224.841C205.359 226.181 205.949 227.681 206.752 229.073C207.288 229.984 207.931 230.788 208.574 231.591C211.573 235.18 214.091 239.144 216.877 242.894C218.109 244.555 219.502 246.055 220.895 247.608C222.502 249.376 223.948 251.198 225.555 252.965C228.555 256.287 231.341 259.822 234.394 263.144C236.055 264.965 237.448 266.84 238.787 268.875C239.697 270.161 240.769 271.447 241.894 272.572C243.179 273.911 244.733 274.072 246.126 272.84C247.679 271.5 249.179 270.161 250.036 268.126C251.001 265.876 252.447 263.786 254.376 262.126C254.751 261.804 254.965 261.429 255.179 261.001C255.393 260.465 255.768 260.037 256.197 259.662C258.554 257.519 260.375 254.894 262.304 252.376C262.947 251.573 263.482 250.662 264.179 249.912C265.947 248.144 267.393 246.162 268.786 244.073C270.125 242.091 271.946 240.591 273.5 238.823C274.464 237.752 275.482 236.734 276.071 235.395C276.446 234.645 277.25 234.323 277.678 233.627C279.285 230.948 281.267 228.538 282.767 225.806C283.785 223.931 285.017 222.216 285.66 220.127C285.982 219.109 286.196 217.984 286.464 216.913C287.053 214.342 287.856 211.824 289.089 209.467C290.053 207.645 290.267 205.503 290.964 203.521C292.463 199.128 292.892 194.521 294.124 190.075C294.446 188.896 294.713 187.718 295.088 186.593C295.517 185.307 295.838 183.968 295.838 182.521C295.838 181.075 296.374 179.682 296.856 178.343C297.231 177.272 297.553 176.147 297.606 174.968C297.767 172.504 298.517 170.147 299.428 167.95C300.927 164.201 301.41 160.397 301.302 156.379C301.249 153.38 301.838 150.38 301.731 147.38C301.624 145.076 301.731 142.719 301.57 140.416C301.463 138.969 301.57 137.523 301.41 136.077C301.142 132.97 300.177 130.077 299.32 127.13C298.999 126.059 298.356 125.148 297.606 124.345C294.928 121.613 292.999 118.292 291.017 115.024C289.839 113.095 289.035 111.006 288.285 108.917C287.535 106.935 286.999 104.846 286.303 102.863C286.142 102.489 285.982 102.114 285.982 101.685C285.767 98.7922 284.964 96.0066 283.785 93.3281C283.624 92.8996 283.571 92.4174 283.624 91.9353C284.053 89.3104 282.875 87.7569 280.41 86.6855C277.893 85.6141 275.321 84.5427 272.696 83.632C269 82.3464 265.25 81.1678 261.34 80.6857C260.107 80.525 258.822 80.2036 257.59 80.0429C256.679 79.9357 255.715 79.7214 254.804 79.8286C252.876 80.0429 250.947 79.775 249.072 79.5072C245.108 78.9715 241.251 79.4536 237.448 80.4714C234.394 81.275 231.448 82.3999 228.394 83.2035C226.466 83.7392 224.484 84.1677 222.609 84.8641C219.984 85.7748 217.305 85.9891 214.627 86.3641C212.216 86.6855 209.806 87.1676 207.502 87.864C206.27 88.239 205.252 89.2033 204.127 89.9532C201.02 91.9889 197.967 94.2388 195.074 96.4887C192.663 98.3636 189.931 99.8636 187.735 102.006C187.146 102.596 186.396 102.863 185.699 103.292C182.699 105.274 179.967 107.578 177.985 110.631C176.807 112.452 175.682 114.22 174.45 115.988C173.164 117.863 172.843 120.059 172.307 122.202C171.932 123.809 171.611 125.47 171.236 127.13C171.128 127.505 170.968 127.88 170.753 128.255C168.932 131.523 167.379 134.952 166.629 138.648C166.254 140.576 166.521 142.451 166.736 144.326C167.004 146.898 167.379 149.469 167.646 152.04C167.646 152.094 167.646 152.147 167.646 152.201C169.039 155.254 168.289 158.576 169.2 161.736C169.629 163.183 169.521 164.79 169.896 166.29C170.164 167.415 170.646 168.486 170.914 169.558C171.611 172.236 172.039 174.968 173.003 177.539C173.539 178.932 174.235 180.218 174.771 181.611C175.414 183.325 176.164 184.986 177.182 186.593C178.36 188.414 179.646 190.128 181.467 191.414C181.842 191.682 182.271 191.842 182.699 192.003C183.342 192.164 183.771 191.95 184.039 191.307C184.949 188.95 185.003 186.539 184.199 184.182C182.646 179.521 180.985 174.915 179.217 170.361C178.2 167.736 177.235 165.058 176.218 162.433C175.628 160.879 175.146 159.272 175.2 157.558C175.2 157.29 175.146 156.969 175.093 156.701C174.343 154.237 174.075 151.719 173.807 149.201C173.593 147.273 173.7 145.291 173.914 143.362C173.914 143.148 174.021 142.88 174.021 142.666C174.075 141.541 173.914 140.362 174.128 139.237C174.343 138.166 174.985 137.202 175.307 136.077C176.378 132.327 177.825 128.738 179.7 125.363C180.985 123.113 181.949 120.702 183.235 118.452C184.253 116.738 185.485 115.184 186.878 113.845C188.806 111.97 190.896 110.256 192.931 108.435C194.431 107.095 195.61 105.435 197.003 103.988C198.449 102.542 200.056 101.149 201.61 99.81C204.234 97.5601 207.395 96.5959 210.502 95.2566C211.038 95.0423 211.627 94.9888 212.216 94.9888C213.609 94.8816 214.895 94.5066 216.234 94.0245C218.698 93.221 220.895 91.721 223.359 90.9711C225.394 90.3282 227.43 89.7389 229.519 89.3104C230.537 89.0961 231.555 88.8818 232.519 88.5069C233.376 88.1854 234.287 88.0783 235.251 88.0783C238.573 87.9712 241.947 87.8104 245.269 87.6497C246.394 87.5962 247.465 87.5962 248.536 87.7569C252.501 88.239 256.518 87.864 260.536 88.0783C263.589 88.239 266.643 88.5069 269.643 89.2568C272.321 89.9532 274.678 91.2389 276.5 93.3817C277.357 94.3459 277.518 95.4709 277.357 96.5959C277.035 99.1136 275.696 101.096 274.036 102.971C273.553 103.506 272.911 103.774 272.214 103.988C270.339 104.471 268.518 104.792 266.536 104.792C262.518 104.792 258.554 104.685 254.643 103.774C251.268 103.024 247.733 103.238 244.304 102.917C240.715 102.596 237.18 103.024 233.644 103.238C229.734 103.506 226.144 104.792 222.555 106.238C221.912 106.506 221.27 106.72 220.627 106.935C217.038 108.006 213.984 110.149 210.77 111.917C208.145 113.363 205.627 114.97 203.431 116.952C201.556 118.613 199.681 120.274 198.288 122.524C197.485 123.863 196.306 125.041 195.342 126.327C193.038 129.488 190.949 132.862 189.664 136.559C188.753 139.184 188.324 141.916 188.378 144.755C188.431 147.487 188.86 150.112 189.128 152.79C189.556 156.808 190.306 160.772 191.538 164.576C192.663 168.058 193.842 171.486 195.074 174.915C195.503 176.147 195.61 177.379 195.931 178.611C196.628 181.343 197.967 183.753 198.985 186.325C199.627 187.985 200.11 189.7 201.074 191.253C201.449 191.842 201.181 192.7 201.449 193.45C202.252 195.807 203.27 198.11 204.342 200.36C205.52 202.878 206.377 205.503 207.127 208.181C207.716 210.27 208.359 212.36 209.163 214.449C209.699 215.842 210.609 216.913 211.306 218.199C213.288 222.056 215.538 225.752 217.895 229.395C218.109 229.716 218.377 229.877 218.698 230.038C219.02 230.198 219.341 230.359 219.448 230.68C220.412 232.984 222.609 234.162 224.162 235.93C224.698 236.573 225.341 237.162 225.93 237.805C227.698 239.734 229.412 241.662 231.287 243.484C232.251 244.448 233.108 245.466 233.912 246.483C235.358 248.251 237.126 249.376 238.894 250.662C240.447 251.787 242.269 252.376 244.037 253.072C247.358 254.412 250.09 253.394 252.286 250.876C253.679 249.323 255.233 247.876 256.036 245.948C256.304 245.251 256.947 244.823 257.375 244.126C258.34 242.519 259.036 240.805 259.84 239.198C261.822 235.341 263.964 231.591 266.268 227.948C267.232 226.395 268.518 225.056 269.536 223.556C271.036 221.413 272.053 219.056 273.286 216.806C274.143 215.252 275.107 213.699 275.75 212.038C276.446 210.378 277.625 208.985 278.428 207.431C279.607 205.021 280.517 202.556 280.517 199.824C280.517 198.753 280.839 197.735 281.16 196.771C281.964 194.467 282.339 192.003 283.249 189.7C284.267 187.075 284.535 184.182 285.339 181.504C286.624 177.004 287.856 172.504 288.66 167.897C289.41 163.933 290.589 160.022 290.589 155.951C290.589 151.451 291.178 146.951 291.071 142.505C290.964 138.112 289.839 133.827 288.017 129.809C287.374 128.309 286.732 126.863 286.142 125.309C285.232 122.738 283.571 120.649 282.017 118.506C280.464 116.363 278.375 114.863 276.285 113.31C274.571 112.077 272.536 111.863 270.554 111.435C267.125 110.738 263.697 110.577 260.215 110.845C257.75 111.006 255.286 111.381 252.822 111.649C250.304 111.917 247.84 112.399 245.269 112.56C243.394 112.667 241.519 113.149 239.644 113.524C237.019 114.006 234.394 114.167 231.716 114.327C229.359 114.488 226.948 114.488 224.698 115.292C222.555 116.042 220.305 116.577 218.109 117.381C215.109 118.559 212.216 120.059 209.324 121.399C207.288 122.363 205.252 123.327 203.699 124.988C202.413 126.381 200.699 127.291 199.681 128.952C198.556 130.827 196.842 132.38 196.038 134.577C195.663 135.594 195.503 136.559 196.199 137.523C196.949 138.594 197.645 138.916 198.824 138.38C200.86 137.469 202.788 136.291 204.342 134.63C206.163 132.702 207.609 130.452 209.538 128.577C211.359 126.809 213.395 125.577 215.752 124.559C219.18 123.113 222.662 121.881 226.198 120.97C229.359 120.166 232.573 119.256 235.733 118.506C236.912 118.238 238.144 118.238 239.322 118.024C243.072 117.434 246.876 117.059 250.679 117.22C254.376 117.327 258.072 116.952 261.768 117.167C263.857 117.274 265.893 117.113 267.929 117.595C268.732 117.809 269.429 118.131 270.179 118.452C271.678 119.041 273.286 119.47 274.625 120.381C278.321 122.791 280.196 126.273 280.517 130.666C280.839 135.541 280.892 140.362 280.946 145.237C280.946 147.969 281.321 150.648 281.375 153.38C281.482 157.183 281.75 160.986 281.053 164.79C279.767 171.915 278 178.879 275.428 185.682C274.25 188.843 272.964 192.057 271.946 195.271C271.036 198.164 270.071 201.11 269.321 204.056C268.304 208.02 267.393 212.092 265.947 215.949C265.839 216.27 265.679 216.592 265.464 216.859C263.214 219.806 261.768 223.234 259.572 226.288C258.179 228.27 257.108 230.466 255.822 232.555C254.643 234.537 253.09 236.305 251.322 237.805C247.894 240.698 244.144 241.555 239.965 239.305C238.198 238.341 236.376 237.484 234.555 236.627C232.841 235.823 231.608 234.323 230.323 233.091C225.93 228.752 221.591 224.306 218.377 218.949C216.288 215.52 214.52 211.878 213.127 208.074C211.359 203.199 209.859 198.217 208.252 193.235C207.288 190.182 206.484 187.075 205.467 184.021C204.931 182.307 204.181 180.7 203.431 179.093C202.895 177.968 202.52 176.629 202.145 175.343C201.235 172.343 200.11 169.45 199.788 166.343C199.467 163.451 199.574 160.558 200.163 157.665C200.913 154.022 202.627 150.915 204.609 147.808C206.324 145.183 208.199 142.773 210.395 140.576C210.663 140.309 210.877 140.094 211.198 139.934C213.448 138.809 215.538 137.309 217.68 136.023C219.341 135.059 221.055 134.255 222.823 133.559C227.001 131.952 231.287 130.827 235.519 129.488C236.912 129.059 238.305 128.738 239.751 128.523C242.055 128.148 244.304 127.613 246.554 127.238C248.697 126.916 250.893 126.648 253.09 126.541C256.625 126.434 260.161 126.273 263.697 126.595C265.732 126.809 267.179 127.666 268.196 129.38C270.018 132.595 271.196 135.969 271.357 139.719C271.357 140.362 271.732 140.898 271.786 141.541C272.053 144.862 272.375 148.183 272 151.558C271.625 155.147 270.714 158.629 270.232 162.165C269.911 164.522 269.161 166.772 268.946 169.129C268.679 171.968 267.714 174.54 266.589 177.164C265.464 179.682 265.304 182.521 264.714 185.2C264.072 188.2 263.804 191.253 262.893 194.2C262.786 194.575 262.84 195.003 262.786 195.378C262.465 197.092 262.09 198.699 261.179 200.306C260.322 201.806 259.947 203.521 259.357 205.181C258.393 208.074 257 210.806 255.447 213.431C254.108 215.735 253.197 218.252 251.697 220.449C249.929 223.074 248.161 225.752 245.644 227.734C243.929 229.073 242.055 229.288 240.126 228.377C239.644 228.163 239.108 228.055 238.68 227.788C237.715 227.252 236.751 226.823 236.055 225.913C234.394 223.716 234.448 221.466 235.519 219.056C236.055 217.931 236.698 216.859 237.501 215.895C238.733 214.395 239.697 212.627 240.769 211.02C241.84 209.467 242.965 207.913 244.09 206.36C245.644 204.163 247.304 202.021 248.215 199.396C248.376 198.914 248.59 198.432 248.858 197.949C250.679 194.842 251.108 191.414 251.268 187.932C251.322 187.021 251.483 186.218 251.751 185.414C252.34 183.7 253.09 182.093 253.036 180.218C253.036 179.843 253.197 179.521 253.358 179.254C254.643 177.057 255.125 174.54 255.447 172.129C255.875 168.861 256.358 165.647 256.947 162.433C257.965 156.594 258.072 150.701 258.768 144.862C258.875 144.005 258.608 143.148 258.875 142.291C259.036 141.755 258.608 141.273 258.125 141.059C256.786 140.576 255.447 139.934 253.947 140.255C252.661 140.523 251.322 140.309 249.983 140.469C248.001 140.684 246.233 141.487 244.251 141.701C243.876 141.755 243.447 141.969 243.072 141.969C240.608 142.13 238.412 142.987 236.162 144.005C234.341 144.862 232.198 145.076 230.269 145.719C227.269 146.683 224.377 148.023 221.591 149.576C219.877 150.54 218.377 151.558 217.252 153.165C216.341 154.397 215.805 155.79 215.163 157.129C214.359 158.897 213.663 160.772 212.859 162.54C212.431 163.397 212.752 164.576 211.734 165.165C211.681 165.218 211.788 165.486 211.841 165.647C212.377 169.504 213.341 173.254 214.359 176.95C214.788 178.397 215.538 179.682 216.18 181.021C217.252 183.379 218.163 185.843 219.234 188.2C219.287 188.307 219.395 188.414 219.395 188.521C219.77 191.842 221.912 194.414 223.144 197.36C223.573 198.378 224.055 199.342 224.323 200.414C224.644 201.967 225.394 203.306 226.091 204.753C226.573 205.824 227.162 206.788 227.484 207.913C228.073 209.735 228.662 209.895 230.483 209.306C232.787 208.556 233.751 206.628 234.501 204.699C235.573 201.806 236.805 198.967 237.555 195.967C237.823 194.896 238.573 194.039 239.162 193.075C240.394 190.985 240.983 188.735 241.787 186.486C242.644 184.021 244.09 181.825 244.626 179.254C245.001 177.379 245.483 175.557 245.858 173.682C246.072 172.718 246.179 171.7 246.608 170.843C247.626 168.808 248.108 166.611 248.376 164.415C248.644 162.165 248.483 159.915 248.483 157.665C248.483 157.29 248.269 157.022 248.001 156.808C246.715 155.951 245.429 155.094 243.769 154.987C241.251 154.826 239.001 155.522 236.805 156.594C234.126 157.826 231.716 159.486 229.144 160.879C228.823 161.04 228.448 161.254 228.234 161.683C227.912 162.486 227.323 163.022 226.787 163.611C226.519 163.933 226.198 164.201 226.091 164.629C225.555 166.558 224.752 168.486 224.537 170.468C224.323 173.2 224.216 175.986 224.859 178.664C225.341 180.646 225.877 182.575 226.359 184.503C226.734 186.003 227.698 187.128 228.501 188.414C228.876 189.003 229.251 188.843 229.68 188.575C230.216 188.2 230.591 187.664 230.858 187.075C231.93 185.039 233.108 183.004 233.537 180.807C233.966 178.664 234.769 176.629 234.876 174.432C234.93 173.575 235.305 172.772 235.573 171.968C235.948 170.79 236.269 169.611 236.001 168.379C235.948 168.004 236.215 167.361 235.573 167.201C235.037 167.04 234.769 167.468 234.394 167.79C233.269 168.808 232.841 170.147 232.466 171.54C232.091 173.04 230.591 173.468 229.359 172.557C228.876 172.182 228.394 170.843 228.662 170.361C229.412 168.915 230.055 167.361 231.073 166.022C232.412 164.254 234.341 163.451 236.483 163.183C237.287 163.076 238.733 164.201 238.947 165.058C239.269 166.343 239.59 167.575 239.483 168.968C239.215 171.379 238.519 173.682 237.93 175.986C237.501 177.807 237.34 179.736 236.698 181.557C235.465 184.986 234.233 188.414 231.769 191.2C230.751 192.378 229.359 192.592 228.019 192.86C227.698 192.914 227.537 192.7 227.323 192.485C226.305 191.414 225.502 190.289 224.752 189.057C223.091 186.271 222.555 183.111 221.591 180.111C221.002 178.289 220.948 176.361 220.895 174.486C220.841 173.04 220.895 171.593 221.055 170.2C221.216 168.968 221.377 167.683 221.859 166.504C222.502 165.004 222.769 163.343 223.627 162.004C224.966 159.969 226.519 158.147 228.93 156.969C231.073 155.951 233.055 154.505 235.198 153.38C237.126 152.362 239.215 151.88 241.197 151.183C241.733 150.969 242.43 151.183 243.072 151.183C246.287 151.237 248.965 152.415 251.108 154.826C251.483 155.255 251.643 155.576 251.643 156.165C251.483 159.058 251.643 161.951 251.376 164.79C251.161 167.201 250.572 169.611 249.447 171.754C248.804 173.04 248.536 174.432 248.376 175.772C248.054 178.504 247.358 181.129 246.233 183.593C244.787 186.753 243.929 190.128 242.322 193.235C241.197 195.378 240.18 197.574 239.43 199.878C238.733 201.86 238.09 203.788 237.394 205.717C236.376 208.717 234.555 211.074 231.608 212.52C229.037 213.752 226.466 213.056 225.127 210.485C223.894 208.181 222.823 205.824 221.966 203.36C221.43 201.914 220.787 200.467 220.145 199.074C218.645 195.592 216.555 192.378 215.698 188.575C215.323 186.968 214.359 185.628 213.823 184.075C213.181 182.307 212.591 180.486 211.788 178.772C210.877 176.843 210.395 174.861 209.806 172.879C208.199 167.79 208.413 162.861 211.145 158.147C211.681 157.183 212.109 156.165 212.484 155.147C213.234 153.005 214.305 150.969 215.913 149.362C216.93 148.29 218.27 147.487 219.502 146.737C222.287 145.023 225.073 143.416 228.287 142.666C230.376 142.184 232.412 141.594 234.501 141.112C235.358 140.898 236.162 140.63 236.912 140.148C238.412 139.184 240.019 138.648 241.787 138.594C243.126 138.541 244.412 138.166 245.697 137.844C248.376 137.041 251.108 136.827 253.893 136.719C256.304 136.666 258.286 137.523 260.375 138.327C261.607 138.809 261.982 139.987 262.09 141.112C262.197 142.719 262.197 144.38 261.875 145.987C261.5 147.808 261.5 149.63 261.34 151.505C261.179 154.13 260.643 156.701 260.643 159.326C260.643 160.772 260.054 162.219 259.786 163.718C259.304 166.826 258.875 169.879 258.393 172.986C258.179 174.54 257.697 175.986 257.161 177.432C256.358 179.682 255.661 181.986 255.179 184.343C254.804 186.271 254.054 188.093 253.947 190.075C253.893 191.521 253.733 192.967 253.304 194.36C252.608 196.557 251.804 198.699 250.733 200.789C249.447 203.306 248.322 205.878 246.554 208.181C246.019 208.931 245.429 209.681 245.054 210.485C244.358 211.985 242.965 212.895 242.162 214.342C241.037 216.431 239.43 218.199 238.358 220.341C237.34 222.377 237.823 223.824 239.965 224.788C240.126 224.841 240.287 224.948 240.447 225.002C242.644 225.966 243.287 225.913 245.001 224.145C245.965 223.127 246.929 222.056 247.572 220.716C248.376 219.217 249.554 217.877 250.411 216.377C251.161 214.985 251.858 213.645 252.554 212.252C252.822 211.717 253.09 211.235 253.411 210.753C253.626 210.378 253.733 210.592 254.054 210.699C254.697 210.913 254.965 210.431 254.536 210.003C254.161 209.628 254.161 209.36 254.376 208.985C256.09 205.931 256.947 202.449 258.393 199.289C259.947 195.914 260.375 192.378 260.965 188.789C261.34 186.646 261.607 184.45 262.304 182.361C262.893 180.593 262.786 178.718 263.375 176.95C263.589 176.307 263.697 175.611 264.072 175.022C265.357 172.879 265.839 170.522 266.214 168.111C267.179 162.594 267.714 156.969 268.893 151.505C269.161 150.165 269.054 148.719 269.054 147.326C269.107 143.844 268.625 140.416 267.768 137.041C267.286 135.273 266.643 133.505 265.572 131.952C264.768 130.773 263.75 130.077 262.25 130.023C259.09 129.97 255.875 129.97 252.715 130.13C248.483 130.398 244.358 131.095 240.18 131.684C239.858 131.737 239.483 131.737 239.162 131.845C235.09 133.398 230.751 133.88 226.68 135.487C224.002 136.559 221.323 137.63 218.859 139.184C217.788 139.826 216.663 140.469 215.538 141.005C212.752 142.291 210.77 144.433 209.056 146.898C207.931 148.505 206.806 150.112 205.734 151.772C204.02 154.397 203.484 157.397 203.109 160.451C202.949 161.736 202.734 163.076 202.788 164.415C202.788 165.272 202.842 166.129 203.056 166.986C203.645 169.343 204.449 171.7 205.359 174.004C206.591 177.164 207.449 180.486 208.627 183.593C209.966 186.968 210.234 190.557 211.734 193.825C212.431 195.432 212.966 197.146 213.448 198.914C214.413 202.449 215.43 206.092 216.984 209.413C218.752 213.163 220.734 216.806 223.144 220.234C225.18 223.074 227.484 225.645 229.787 228.27C231.501 230.252 233.43 232.18 235.626 233.573C237.823 235.02 240.233 236.305 242.697 237.162C244.787 237.912 246.661 237.162 248.483 235.93C250.572 234.484 252.072 232.555 253.465 230.52C254.322 229.234 255.018 227.841 255.768 226.502C256.947 224.306 258.5 222.324 259.893 220.234C262.197 216.699 264.072 213.002 265.036 208.931C265.625 206.467 266.429 204.11 266.804 201.592C267.071 199.771 268.196 198.057 268.625 196.235C269.429 192.807 271.089 189.7 271.946 186.271C272.214 185.146 272.803 183.968 273.286 182.896C274.411 180.539 274.839 177.968 275.589 175.45C276.5 172.611 277.303 169.718 277.839 166.826C278.375 163.879 278.428 160.879 278.535 157.879C278.643 154.29 278 150.755 277.893 147.165C277.785 144.701 277.839 142.184 277.785 139.719C277.678 136.773 277.785 133.827 277.464 130.88C277.035 127.238 275.321 124.666 271.893 123.166C270.286 122.47 268.732 121.774 267.071 121.291C266.214 121.024 265.357 120.863 264.5 120.97C262.25 121.184 260 120.863 257.75 120.756C257.322 120.756 256.947 120.649 256.518 120.702C253.251 121.238 249.929 120.809 246.608 121.077C241.626 121.506 236.59 121.881 231.716 123.113C228.662 123.863 225.609 124.559 222.662 125.523C219.877 126.434 217.198 127.666 214.466 128.791C213.877 129.059 213.288 129.541 212.859 130.077C211.52 131.684 209.538 132.809 208.574 134.791C207.984 136.023 206.806 136.773 205.895 137.684C205.038 138.594 203.913 139.291 203.109 140.255C202.788 140.63 202.306 140.684 201.877 140.844C201.181 141.112 200.485 141.38 199.788 141.755C198.074 142.666 196.467 142.451 194.753 141.38C193.092 140.362 192.556 138.862 192.181 137.094C191.86 135.434 192.235 133.88 193.038 132.434C195.395 128.041 198.717 124.559 202.681 121.559C206.752 118.452 211.359 116.417 216.073 114.595C219.341 113.31 222.662 112.185 226.091 111.274C227.912 110.792 229.787 110.631 231.608 110.952C232.358 111.06 232.948 110.631 233.644 110.631C236.751 110.524 239.805 109.72 242.912 109.345C245.054 109.078 247.197 109.238 249.286 108.81C253.197 108.06 257.215 107.792 261.125 107.203C261.875 107.095 262.625 106.988 263.375 107.149C265.464 107.631 267.661 107.363 269.75 107.792C271.411 108.113 273.071 108.381 274.678 108.863C276.178 109.345 277.464 110.524 278.803 111.381C281.428 113.149 283.517 115.399 285.178 118.077C286.089 119.524 287.107 120.863 287.91 122.416C289.41 125.47 290.589 128.63 291.767 131.845C292.946 135.112 293.481 138.541 293.856 141.969C294.017 143.576 293.91 145.291 293.696 146.898C293.321 149.898 293.321 152.897 293.267 155.897C293.213 159.486 292.303 162.861 291.66 166.343C290.964 170.093 290.16 173.843 289.089 177.486C288.231 180.379 287.481 183.271 286.999 186.218C286.464 189.271 285.339 192.11 284.321 194.95C283.732 196.61 283.624 198.324 283.303 199.985C282.982 201.753 282.875 203.574 282.285 205.235C281.428 207.646 280.517 210.003 279.071 212.092C278.321 213.163 277.678 214.342 277.25 215.627C276.982 216.431 276.446 217.181 276.071 217.931C275.107 219.913 273.768 221.681 273.018 223.77C272.643 224.788 271.946 225.698 271.196 226.502C268.571 229.395 266.536 232.662 264.875 236.198C264.768 236.466 264.714 236.787 264.5 237.002C262.679 239.305 261.822 242.091 260.536 244.662C259.893 245.948 259.09 247.126 258.179 248.305C256.625 250.34 254.965 252.215 253.465 254.305C252.393 255.805 250.893 256.287 249.34 256.876C246.126 258.108 243.072 257.144 240.18 255.805C237.126 254.358 234.501 252.43 232.091 249.965C229.948 247.716 228.073 245.251 225.877 243.055C223.466 240.591 221.162 237.966 218.591 235.609C216.341 233.52 214.68 230.948 212.913 228.484C210.127 224.681 208.252 220.288 205.681 216.377C204.984 215.36 204.609 214.074 204.395 212.842C203.806 209.842 203.002 206.896 201.77 204.056C201.02 202.342 200.217 200.735 199.574 198.967C199.038 197.521 198.449 196.074 198.074 194.575C197.324 191.628 196.038 188.843 194.86 186.003C193.574 182.896 192.288 179.843 191.431 176.575C190.306 172.343 188.753 168.272 187.521 164.093C186.449 160.451 185.807 156.701 185.324 152.897C185.003 150.433 185.003 147.915 184.628 145.451C184.521 144.808 184.628 144.166 184.682 143.523C184.842 141.112 185.324 138.702 185.914 136.344C186.771 132.809 188.753 129.809 190.681 126.809C193.092 123.059 195.717 119.47 198.824 116.256C200.538 114.488 202.574 112.988 204.556 111.488C207.234 109.506 210.288 108.113 213.073 106.292C214.252 105.542 215.591 104.953 217.038 104.631C218.752 104.203 220.466 103.56 222.02 102.756C225.609 100.935 229.359 99.7565 233.43 99.6493C234.448 99.6493 235.519 99.435 236.537 99.3279C239.001 99.1136 241.465 99.5957 243.929 99.06C244.465 98.9529 245.054 99.2743 245.644 99.3279C249.072 99.5957 252.554 99.435 255.929 100.399C258.608 101.149 261.447 101.042 264.179 101.256C266.054 101.364 267.875 101.364 269.75 101.096C272.321 100.721 273.286 99.3279 273.875 97.2387C274.143 96.3816 273.875 95.6852 273.071 95.1495C271.036 93.8638 269 92.9531 266.536 92.5781C263.322 92.096 260.107 91.721 256.84 91.7746C254.643 91.8282 252.447 91.9353 250.304 91.6675C245.644 91.1318 241.037 91.721 236.43 91.8817C233.162 91.9889 230.216 93.0603 227.162 93.9709C225.073 94.6138 222.877 94.8816 220.895 95.953C219.555 96.6494 218.163 97.1851 216.77 97.7744C215.538 98.2565 214.306 98.8458 212.913 98.6851C212.002 98.5779 211.413 99.2208 210.609 99.3815C207.984 99.9707 205.681 101.203 203.538 102.863C201.288 104.631 199.306 106.56 197.324 108.595C195.878 110.149 194.217 111.488 192.663 112.935C190.896 114.595 188.967 116.202 187.414 118.131C185.86 120.006 184.789 122.095 183.878 124.291C183.289 125.684 182.485 126.916 181.735 128.202C180.664 129.916 179.967 131.791 179.271 133.666C178.682 135.219 178.253 136.88 177.718 138.434C177.396 139.398 177.075 140.416 177.343 141.487C177.45 141.916 177.289 142.398 177.235 142.88C176.432 147.219 177.235 151.451 178.039 155.737C178.467 157.987 178.842 160.29 179.7 162.433C180.825 165.272 181.735 168.165 182.967 170.95C183.664 172.504 184.039 174.165 184.467 175.825C185.003 178.022 185.967 180.057 187.039 181.986C187.253 182.414 187.306 182.736 187.414 183.164C187.789 184.878 187.628 186.593 187.842 188.307C187.949 188.95 187.896 189.593 187.735 190.182C187.146 191.95 186.396 193.61 185.485 195.271C185.057 196.021 184.36 196.235 183.557 196.021C182.753 195.807 182.003 195.646 181.146 195.7C180.717 195.753 180.396 195.539 180.021 195.325C177.771 194.092 176.164 192.217 174.878 190.128C172.521 186.164 170.218 182.146 168.986 177.647C168.718 176.682 168.343 175.772 168.236 174.807C167.861 172.343 166.896 170.093 166.307 167.683C165.879 166.022 165.557 164.361 165.129 162.647C165.129 162.594 165.075 162.54 165.075 162.486C165.557 158.844 164.218 155.415 163.897 151.88C163.522 148.13 162.825 144.433 162.664 140.684C162.557 137.844 163.361 135.219 164.539 132.648C165.504 130.505 166.575 128.363 167.432 126.166C168.182 124.238 168.611 122.202 168.879 120.113C169.146 118.238 169.843 116.417 170.914 114.809C173.057 111.488 175.2 108.113 177.825 105.06C178.414 104.363 179.057 103.828 179.646 103.238C182.432 100.614 185.914 98.8993 188.914 96.5959C191.324 94.7209 193.896 93.0603 196.36 91.2925C198.235 89.9532 199.842 88.2926 201.717 86.9533C204.77 84.7034 208.091 83.4177 211.788 82.9892C216.341 82.4535 220.787 81.5964 225.18 80.3643C229.305 79.2393 233.269 77.5787 237.555 76.9358C239.322 76.668 240.93 75.7573 242.804 75.918C245.697 76.1859 248.59 75.7037 251.429 76.4001C252.608 76.668 253.733 76.2394 254.858 76.2394C255.393 76.2394 255.875 76.0252 256.411 76.1859C259.518 77.1501 262.732 77.5787 265.893 78.3286C268.143 78.8643 270.232 79.775 272.536 80.15C273.553 80.3107 274.518 80.8464 275.375 81.3821C277.196 82.5606 279.285 83.0963 281.267 83.8463C283.517 84.7034 284.964 86.2569 285.982 88.2926C286.464 89.2033 286.41 90.3282 286.41 91.2925C286.41 92.2031 286.517 93.0067 286.839 93.8102C287.374 95.0423 287.535 96.3816 287.803 97.6672C288.66 102.167 290.267 106.453 291.714 110.738C292.41 112.72 293.803 114.327 294.767 116.149C296.106 118.72 298.088 120.809 300.07 122.898C301.356 124.291 301.624 126.113 302.32 127.72C302.588 128.416 302.695 129.166 302.91 129.863C303.767 132.38 303.874 134.952 303.927 137.523C304.034 141.38 304.034 145.237 303.981 149.148C303.927 153.005 303.499 156.862 303.499 160.719C303.499 163.236 302.91 165.701 301.945 167.95C300.82 170.575 300.177 173.254 299.749 176.093C299.535 177.486 299.32 178.932 298.731 180.271C298.41 180.968 298.249 181.718 298.195 182.468C298.035 184.503 297.338 186.432 296.749 188.36C296.16 190.343 295.838 192.378 295.356 194.414C294.821 196.61 294.338 198.807 294.285 201.056C294.285 201.217 294.285 201.431 294.178 201.539C293.106 203.306 292.678 205.288 292.196 207.217C291.553 209.895 289.999 212.199 289.356 214.877C288.821 217.02 288.231 219.163 287.589 221.306C286.464 225.056 284.16 228.216 282.071 231.43C281.589 232.18 281 232.877 280.517 233.68C279.875 234.752 278.91 235.609 278.214 236.627C276.071 239.627 273.768 242.519 271.357 245.251C269.214 247.716 267.446 250.501 265.036 252.697C264.072 253.555 263.482 254.787 262.732 255.858C260.965 258.322 258.661 260.358 256.786 262.715C254.911 265.126 252.983 267.429 251.643 270.268C250.358 272.947 248.215 274.982 245.322 276.107C244.894 276.268 244.412 276.429 244.09 276.697C242.804 277.661 241.733 277.232 240.662 276.375C239.43 275.411 238.519 274.125 237.608 272.84C235.68 269.947 233.376 267.376 231.019 264.858C230.109 263.894 229.091 262.983 228.555 261.751C228.394 261.429 228.234 261.108 227.966 260.894C225.877 258.804 224.216 256.34 222.127 254.251C220.573 252.697 219.234 250.983 217.734 249.376C215.43 246.966 213.556 244.126 211.359 241.609C209.913 239.948 208.788 237.912 207.395 236.145C206.431 234.912 205.574 233.52 204.449 232.395C204.234 232.18 204.074 231.913 203.967 231.698C202.574 228.966 200.485 226.663 199.306 223.877C198.449 221.949 196.949 220.341 196.467 218.252C195.985 216.217 194.592 214.556 193.842 212.627C193.628 212.145 193.467 211.663 193.413 211.181C193.038 209.145 191.913 207.592 190.467 206.199C189.664 205.449 187.628 205.235 186.878 205.663C185.914 206.253 185.485 207.485 185.86 209.038C186.61 212.145 188.056 214.931 189.985 217.502C191.11 219.002 192.288 220.502 193.038 222.27C193.628 223.609 194.485 224.895 195.342 226.127C195.717 226.663 196.038 227.198 196.306 227.734C197.699 230.627 199.735 233.037 201.502 235.662C203.163 238.127 205.199 240.216 207.02 242.573C208.52 244.555 209.913 246.591 211.413 248.573C212.806 250.394 214.198 252.269 215.645 254.037C218.377 257.304 220.627 261.001 223.359 264.269C224.484 265.608 225.234 267.161 226.144 268.661C227.323 270.59 228.876 272.197 230.269 273.911C231.501 275.465 232.358 277.179 233.323 278.893C233.912 279.964 234.394 281.036 234.93 282.161C235.412 283.286 236.269 284.143 236.965 285.053C237.769 286.071 238.519 287.196 239.215 288.321C240.447 290.303 242.43 291.428 244.572 292.285C245.483 292.66 246.608 291.91 246.983 290.785C248.108 287.411 249.822 284.411 251.751 281.464C252.501 280.339 253.197 279.214 253.626 277.982C253.679 277.768 253.786 277.554 253.947 277.339C256.572 273.59 258.929 269.679 262.09 266.304C262.84 265.501 263.482 264.483 264.072 263.572C265.464 261.483 266.75 259.34 268.304 257.358C269.321 256.072 270.5 254.947 271.678 253.876C273.286 252.483 274.571 250.769 276.018 249.269C278.214 246.912 280.196 244.394 282.339 242.037C284.749 239.359 287.481 236.894 289.142 233.627C289.196 233.466 289.303 233.305 289.41 233.198C292.303 230.734 293.16 227.306 294.553 223.984C295.945 220.556 297.017 217.074 298.356 213.645C299.642 210.485 300.606 207.163 301.195 203.789C301.41 202.342 302.106 200.949 302.481 199.503C303.124 196.771 304.356 194.307 305.267 191.682C305.802 190.075 306.231 188.414 306.659 186.753C307.57 183.057 308.856 179.468 310.141 175.879C310.784 174.111 311.052 172.343 311.159 170.468C311.266 168.058 311.641 165.647 312.177 163.29C312.338 162.486 312.445 161.683 312.445 160.879C312.391 155.308 312.498 149.683 312.391 144.112C312.284 139.88 312.07 135.702 311.374 131.523C310.677 127.077 309.016 122.952 306.874 119.041C306.07 117.595 305.32 116.095 304.57 114.595C303.499 112.345 301.785 110.685 299.802 109.238C298.57 108.381 297.392 107.47 296.16 106.613C295.838 106.399 295.356 106.185 295.303 105.756C295.035 104.149 294.231 102.703 294.017 101.096C293.803 99.435 294.392 98.0422 295.142 96.6494C295.463 96.1137 295.892 95.7923 296.588 95.6316C298.249 95.203 299.856 95.3638 301.41 95.8459C303.874 96.6494 306.392 97.3458 308.534 98.8458C311.749 101.096 314.427 103.828 316.73 106.935C317.266 107.631 317.373 108.542 317.748 109.345C319.248 112.56 320.159 115.934 321.123 119.309C322.034 122.524 323.052 125.738 324.873 128.577C325.302 129.273 325.302 130.023 325.462 130.72C326.802 135.648 327.123 140.737 327.23 145.826C327.284 148.826 327.284 151.826 327.444 154.826C327.552 157.344 327.123 159.754 326.587 162.219C326.427 162.915 326.212 163.558 326.427 164.254C326.48 164.576 326.48 164.951 326.427 165.272C325.837 168.111 325.891 171.058 325.462 173.897C324.98 177.057 324.23 180.164 322.73 183.111C321.23 186.003 319.248 188.575 318.123 191.628C317.052 194.575 315.98 197.467 315.927 200.628C315.873 202.61 315.231 204.431 314.641 206.306C314.213 207.646 314.106 208.985 313.784 210.324C312.873 213.645 311.534 216.859 310.463 220.127C310.249 220.77 309.927 221.413 309.606 222.002C307.677 225.698 306.445 229.663 305.159 233.627C304.892 234.537 304.195 235.18 303.874 236.091C302.588 239.359 300.552 242.251 299.053 245.412C297.713 248.198 295.517 250.073 293.428 252.108C292.785 252.751 291.874 252.965 291.231 253.662C289.571 255.43 288.285 257.465 286.464 259.126C285.928 259.608 285.446 260.09 284.91 260.519C282.553 262.554 280.142 264.483 277.839 266.572C275.75 268.501 274.036 270.697 272.268 272.893C270.875 274.661 269.589 276.59 268.089 278.25C265.679 280.929 263.804 283.982 262.357 287.25C261.822 288.428 261.232 289.553 260.429 290.571C259.09 292.285 257.965 294.16 256.893 296.089C255.983 297.696 254.697 299.035 253.84 300.696C253.304 301.714 252.929 302.785 252.501 303.803C251.215 306.963 250.036 310.231 246.608 311.892C245.912 312.213 245.269 312.16 244.572 312.106C241.626 311.999 239.001 310.767 236.323 309.749C235.573 309.481 234.769 309.32 234.18 308.731C232.68 307.178 232.198 305.303 232.358 303.214C232.519 301.499 232.358 299.839 231.769 298.285C230.805 295.821 229.734 293.357 228.716 290.946C228.234 289.821 227.591 288.75 226.734 287.946C226.091 287.357 226.091 286.5 225.555 285.857C222.769 282.429 220.198 278.893 217.145 275.625C215.43 273.857 213.823 271.929 212.752 269.625C212.645 269.358 212.484 269.09 212.27 268.875C210.341 266.786 209.002 264.269 207.181 262.126C204.984 259.608 203.324 256.769 201.288 254.197C200.967 253.769 200.699 253.34 200.324 252.965C197.163 250.073 195.235 246.269 192.449 243.109C191.86 242.412 191.592 241.501 191.11 240.698C189.396 237.698 187.842 234.591 185.86 231.752C184.682 230.091 183.557 228.43 182.324 226.877C181.36 225.698 180.985 224.198 180.128 222.966C178.307 220.181 176.432 217.395 174.825 214.502C173.271 211.717 171.503 209.038 170.325 205.985C168.557 201.324 166.521 196.824 164.7 192.217C163.682 189.7 162.289 187.289 161.379 184.718C160.843 183.218 160.307 181.664 160.2 180.111C160.093 178.611 159.45 177.325 158.754 176.147C158.165 175.075 157.629 173.897 156.772 172.932C156.29 172.343 156.343 171.647 156.075 171.004C154.79 168.272 154.2 165.379 153.665 162.433C153.343 160.826 152.754 159.326 152.593 157.719C152.433 156.326 152.326 154.933 152.004 153.54C151.308 150.755 151.683 147.915 151.576 145.13C151.468 143.094 151.415 141.112 151.361 139.076C151.201 134.63 151.522 130.238 152.808 125.952C153.022 125.202 152.915 124.452 153.129 123.702C153.611 121.934 154.254 120.274 155.272 118.667C156.183 117.167 156.825 115.452 157.522 113.845C158.593 111.381 160.04 109.185 160.79 106.56C161.004 105.863 161.54 105.274 161.968 104.631C163.522 102.221 165.022 99.7029 167.111 97.7208C169.254 95.6852 171.343 93.596 173.807 91.9353C175.468 90.8103 177.021 89.5247 178.842 88.7211C179.646 88.3461 180.289 87.5426 180.878 86.8462C182.164 85.4534 183.503 84.2213 185.11 83.3106C185.86 82.8821 186.556 82.3464 187.199 81.8107C189.396 80.0429 191.913 78.7572 194.431 77.3644C196.895 76.0252 199.467 75.0073 201.931 73.7217C204.877 72.1681 207.984 70.8825 211.091 69.6504C213.02 68.9004 214.948 68.1504 216.93 67.6147C219.662 66.9183 222.502 66.5969 225.287 66.2755C228.18 65.9005 231.126 65.5791 234.019 65.3648C238.894 64.9363 243.769 64.0256 248.697 64.1327C249.876 64.1327 251.001 64.347 252.126 64.5613C255.661 65.1505 259.09 66.1148 262.411 67.5612C264.339 68.4183 266.375 69.0611 268.411 69.7039C270.125 70.2396 271.678 71.1503 273.339 71.8467C274.357 72.2753 275.375 72.7574 276.446 72.9717C278.482 73.3467 280.25 74.3109 282.071 75.168C282.5 75.3823 282.928 75.543 283.357 75.6502C285.553 76.0787 287.696 76.8823 289.946 77.2572C291.071 77.4715 292.196 77.7929 293.213 78.4358C294.928 79.5072 297.017 79.775 298.785 80.7928C300.017 81.4892 301.249 82.2928 302.535 82.9892C304.677 84.1677 306.82 85.4534 308.802 86.9533C309.124 87.2212 309.445 87.489 309.606 87.864C309.927 88.4533 310.463 88.8283 310.999 89.1497C313.302 90.4354 315.231 92.1496 317.159 93.9174C318.873 95.4709 320.373 97.3458 321.605 99.3279C324.123 103.399 326.855 107.31 329.48 111.327C330.926 113.524 332.266 115.827 333.337 118.238C334.141 120.006 335.212 121.666 336.015 123.488C336.444 124.452 336.819 125.416 336.98 126.434C337.355 129.059 337.837 131.684 338.212 134.309C338.855 138.809 339.23 143.416 339.98 147.915C340.73 152.469 340.355 156.862 339.765 161.361C339.283 165.111 338.373 168.808 337.998 172.611C337.837 174.004 337.248 175.29 336.926 176.629C336.176 179.682 334.891 182.629 333.926 185.628C332.426 190.235 330.444 194.628 328.784 199.128C327.712 202.021 326.802 205.021 326.159 208.074C325.891 209.467 325.302 210.86 324.712 212.145C323.641 214.395 322.73 216.645 321.927 219.002C320.695 222.484 319.463 225.966 318.338 229.502C317.266 232.77 316.248 236.091 315.123 239.359C314.588 240.912 313.838 242.412 313.141 243.912C311.802 246.912 309.981 249.644 308.159 252.43C306.124 255.537 303.231 257.947 301.142 260.947C299.267 263.679 297.017 266.09 294.392 268.126C291.231 270.59 288.339 273.322 285.071 275.625C283.946 276.375 283.089 277.554 282.178 278.625C281 279.964 279.928 281.411 278.803 282.75C276.393 285.536 273.821 288.214 271.571 291.107C269.107 294.267 266.911 297.535 264.714 300.856C263.482 302.731 262.411 304.714 261.232 306.642C260.643 307.553 260.375 308.624 259.893 309.588C259.143 311.035 258.286 312.535 257.697 314.088C257.054 315.695 256.84 317.409 256.25 319.07C255.608 320.892 254.643 322.231 252.608 322.606C252.447 322.659 252.286 322.659 252.126 322.713C251.001 323.141 249.876 323.57 250.197 325.177C250.251 325.445 250.144 325.766 250.09 326.034C249.769 327.802 249.179 328.391 247.411 328.123C244.733 327.695 242.001 327.695 239.322 327.266C237.501 326.998 235.68 326.731 233.912 326.409C232.519 326.141 232.144 325.82 231.983 324.374C232.787 323.57 231.93 322.606 233.001 321.267ZM305.267 253.555C305.32 253.662 305.374 253.769 305.481 253.769C305.856 253.822 305.963 253.555 306.07 253.287C306.124 253.18 306.124 252.912 305.856 252.965C305.588 253.126 305.32 253.233 305.267 253.555ZM313.891 257.251C314.159 257.251 314.266 257.037 314.373 256.876C314.427 256.822 314.32 256.608 314.32 256.608C314.106 256.662 313.891 256.769 313.838 256.983C313.784 257.09 313.891 257.197 313.891 257.251Z" fill="#10100F"/>
<path d="M216.448 363.372C216.287 364.765 216.608 366.158 216.287 367.497C216.18 368.033 216.394 368.354 216.93 368.515C217.466 368.729 218.055 368.676 218.644 368.783C219.073 368.836 219.287 368.622 219.448 368.301C219.608 367.872 219.93 367.497 219.983 367.015C220.251 365.194 221.43 363.908 222.555 362.569C223.037 361.979 227.43 357.801 228.447 356.247C228.822 355.658 229.787 352.98 229.787 352.337C229.679 349.819 229.733 347.248 229.733 344.73C229.733 341.248 231.179 338.462 233.965 336.427C236.322 334.873 242.804 335.034 244.09 337.659C245.375 340.284 244.84 347.462 242.643 351.962C241.733 353.783 240.875 355.712 239.536 357.319C239.322 357.64 239.161 357.962 239.376 358.283C239.751 358.979 241.036 362.247 241.679 363.854C242.483 366.319 243.768 368.676 243.983 371.354C243.983 371.408 243.929 371.461 243.983 371.515C244.197 373.229 244.518 373.55 246.232 373.336C246.982 373.229 248 373.872 248.482 373.068C248.857 372.479 248.697 371.622 248.75 370.872C248.965 368.247 249.875 365.783 251.161 363.533C252.072 361.926 253.464 360.64 255.286 359.944C260.107 358.283 263.16 361.283 263.589 362.247C264.5 364.39 265.25 366.64 264.928 369.104C264.393 372.425 260.803 376.175 257.536 374.14C257.107 373.765 254.536 372.318 255.071 370.926C255.661 369.908 257.054 369.479 258.018 370.068C258.286 370.229 258.5 370.443 258.714 370.551C259.678 371.14 260.75 370.872 261.178 369.854C261.982 368.033 261.768 366.265 260.75 364.551C260.643 364.39 260.536 364.283 260.375 364.176C258.232 362.408 255.232 363.211 253.893 365.622C252.822 367.658 252.018 369.747 251.911 371.997C251.804 374.836 251.804 377.675 251.911 380.461C251.964 382.604 251.697 384.746 251.857 386.836C252.018 388.764 251.697 390.693 251.214 392.46C250.304 395.835 248.643 398.889 245.697 401.085C244.893 401.674 243.875 401.835 242.911 401.996C241.25 402.264 239.59 402.692 237.929 402.746C235.304 402.853 232.679 403.228 230.054 402.799C228.34 402.532 226.626 402.424 224.912 402.103C222.18 401.567 219.501 400.924 216.983 399.799C214.412 398.675 212.644 396.692 211.519 394.068C209.859 390.211 209.966 386.193 210.662 382.175C211.359 378.265 211.787 374.3 212.377 370.39C212.644 368.676 212.912 366.961 213.18 365.247C213.501 362.997 213.287 360.747 212.751 358.551C212.055 355.819 208.68 354.051 206.216 355.176C203.913 356.247 203.698 357.48 204.662 359.622C204.877 360.051 205.145 360.426 205.412 360.801C205.573 361.122 205.734 361.39 205.734 361.765C205.734 362.462 205.037 363.533 204.448 363.694C203.698 363.961 203.163 363.372 202.788 362.944C201.555 361.444 200.805 359.783 200.698 357.747C200.591 355.122 202.145 353.89 204.127 352.712C207.073 350.944 209.912 351.373 212.644 352.819C214.251 353.676 215.162 355.23 215.751 357.051C216.394 359.301 216.501 361.283 216.448 363.372ZM216.983 395.675C217.733 396.532 218.537 396.96 219.501 397.228C223.144 398.353 226.84 399.05 230.644 399.425C232.358 399.585 234.126 399.853 235.786 399.639C238.143 399.371 240.608 399.21 242.911 398.514C244.25 398.085 245.215 397.389 245.857 396.371C247.143 394.389 248 392.246 248.161 389.889C248.482 386.032 248.536 382.175 248.322 378.265C248.268 376.979 247.679 376.336 246.447 376.657C245.215 376.979 243.929 376.604 242.697 376.925C241.733 377.193 240.608 377.193 239.59 377.086C235.358 376.657 231.126 376.336 227.001 375.157C223.84 374.247 220.68 373.283 217.573 372.318C215.537 371.675 215.376 371.783 215.055 373.765C215.001 373.925 214.948 374.086 214.948 374.247C214.841 374.89 215.109 375.211 215.698 374.943C216.983 374.3 218.055 375.104 219.18 375.479C219.823 375.693 220.091 376.657 219.823 377.247C219.501 377.836 219.019 378.372 218.323 378.104C217.251 377.782 216.019 377.943 215.109 377.032C214.198 378.747 214.305 379.014 216.019 379.175C216.341 379.229 216.716 379.175 217.037 379.229C217.573 379.282 218.43 380.139 218.376 380.568C218.323 381.264 217.841 381.693 217.198 381.907C216.983 381.961 216.769 381.907 216.501 381.907C215.966 381.854 215.484 381.8 214.948 381.8C214.091 381.8 213.769 382.175 213.662 383.086C213.555 383.996 214.198 383.836 214.68 383.836C215.43 383.889 215.966 384.264 216.662 384.479C217.251 384.693 217.733 384.961 217.626 385.711C217.519 386.461 216.983 386.782 216.287 386.836C215.698 386.836 215.109 386.836 214.573 386.836C214.198 386.836 213.662 386.675 213.555 387.211C213.448 387.853 214.091 387.693 214.412 387.746C215.269 387.907 216.126 387.961 216.93 388.336C218.108 388.871 218.216 389.782 217.198 390.586C216.823 390.907 216.394 391.068 215.912 391.068C215.591 391.068 215.216 391.068 214.894 391.068C214.573 391.068 214.144 391.014 214.198 391.55C214.251 391.978 214.359 392.353 214.894 392.407C215.216 392.407 215.591 392.407 215.912 392.3C216.394 392.193 216.823 392.3 217.198 392.675C218.376 393.8 218.376 394.282 216.983 395.675ZM242.161 344.623C242.215 343.391 242.375 342.212 242.161 340.98C242.054 340.284 241.465 339.427 240.447 339.159C239.376 338.891 236.269 338.462 235.251 339.48C234.233 340.498 233.376 341.623 233.108 343.123C232.84 344.784 233.054 346.444 232.947 348.105C232.786 350.033 233.215 351.855 233.483 353.73C233.804 355.551 233.697 356.033 232.144 356.997C231.769 357.212 231.233 357.587 231.287 357.801C230.001 358.872 231.287 359.569 231.662 360.265C232.09 361.015 231.662 361.39 231.233 361.712C230.644 362.033 229.679 362.14 229.412 362.462C229.144 362.783 229.251 363.158 229.358 363.265C230.054 363.694 230.269 364.015 230.162 364.658C230.108 365.247 228.394 365.247 228.287 365.944C228.126 366.64 228.983 366.265 229.412 366.372C230.376 366.64 230.644 367.068 230.269 367.926C230.162 368.247 229.894 368.515 229.679 368.783C229.519 368.997 229.465 369.265 229.679 369.372C230.751 369.908 230.537 370.872 230.59 371.783C230.59 372.265 230.804 372.586 231.287 372.586C232.679 372.533 234.019 373.068 235.358 373.229C236.536 373.39 236.59 373.39 236.751 372.158C237.018 370.443 237.286 368.729 237.34 366.908C237.34 364.229 237.715 362.033 236.751 359.569C236.429 358.819 236.269 358.069 236.536 357.372C237.018 356.355 237.286 355.23 238.143 354.426C238.679 353.944 239.108 353.248 239.429 352.551C239.911 351.265 240.554 350.087 241.25 348.908C241.893 348.105 242.161 344.623 242.161 344.623ZM224.697 364.444C222.876 365.14 222.394 366.64 222.019 367.979C221.537 369.586 222.18 370.176 223.948 370.176C224.055 370.176 224.108 370.068 224.269 369.961C224.376 368.247 224.537 366.426 224.697 364.444ZM240.715 369.051C240.501 370.283 240.554 371.461 240.126 372.64C239.965 373.015 239.751 373.443 240.34 373.658C240.875 373.818 241.143 373.443 241.25 373.068C241.679 371.675 241.465 370.336 240.715 369.051Z" fill="#10100F"/>
<path d="M215.591 350.623C215.591 349.498 216.341 348.855 217.626 348.855C218.323 348.855 219.501 350.14 219.501 350.783C219.448 351.319 217.894 352.444 217.251 352.444C216.127 352.39 215.591 351.801 215.591 350.623Z" fill="#0C978B"/>
<path d="M256.839 333.159C256.786 332.623 257.589 331.659 258.232 331.659C258.768 331.659 259.893 331.712 260.321 332.57C260.75 333.427 260.053 334.82 258.982 334.98C257.75 335.141 256.893 334.498 256.839 333.159Z" fill="#0C978B"/>
<path d="M218.269 343.712C217.251 343.712 216.983 343.391 217.037 342.052C217.037 341.194 218.108 340.23 219.073 340.23C219.662 340.177 220.465 341.248 220.519 342.052C220.519 343.23 219.876 343.712 218.269 343.712Z" fill="#0C978B"/>
<path d="M218.537 333.855C218.537 332.784 218.912 331.873 219.984 331.873C221.055 331.873 221.912 332.891 221.912 333.534C221.912 334.338 220.841 335.195 219.877 335.248C219.234 335.302 218.537 334.605 218.537 333.855Z" fill="#0C978B"/>
<path d="M257.322 343.873C256.572 344.676 255.233 343.926 255.179 342.748C255.125 341.248 255.233 340.98 256.143 340.712C257.375 340.337 258.125 340.444 258.608 341.73C258.822 342.212 257.804 343.391 257.322 343.873Z" fill="#0C978B"/>
<path d="M257.322 352.498C257.322 353.462 256.358 354.48 255.501 354.533C254.751 354.533 253.572 353.515 253.572 352.926C253.572 351.748 254.751 350.141 255.661 350.087C256.411 350.033 257.322 351.426 257.322 352.498Z" fill="#0C978B"/>
<path d="M223.091 326.784C222.555 326.784 220.895 325.82 220.895 325.445C220.895 324.534 221.859 323.516 222.77 323.463C223.68 323.409 224.377 324.052 224.43 324.909C224.43 325.927 223.841 326.784 223.091 326.784Z" fill="#0C978B"/>
<path d="M237.93 347.248C237.769 347.837 237.287 348.105 236.644 348.158C235.894 348.212 235.144 347.516 235.251 346.819C235.358 346.069 235.894 345.694 236.644 345.641C237.287 345.587 237.983 346.391 237.93 347.248Z" fill="#10100F"/>
<path d="M238.572 347.623C238.519 347.034 239.162 346.391 239.858 346.337C240.394 346.284 241.09 346.926 241.037 347.462C240.983 348.105 240.662 348.641 239.965 348.748C239.322 348.801 238.626 348.266 238.572 347.623Z" fill="#10100F"/>
<path d="M5.68947 56.5706C6.42083 55.9143 7.05925 55.4504 7.56216 54.8504C8.00403 54.3277 8.17056 53.5665 8.88893 53.0105C9.58537 53.6761 9.33731 54.4101 8.97856 55.0792C8.58792 55.8634 8.07202 56.5638 7.72944 57.3709C7.02969 58.9664 7.30389 59.477 8.99202 59.3149C10.3513 59.1965 11.6743 59.2266 13.0395 59.194C13.431 59.1921 13.8414 59.1757 14.2199 59.2742C14.6654 59.3811 15.207 59.5342 15.1058 60.1846C15.022 60.7012 14.5344 60.657 14.1823 60.7488C12.736 61.1453 11.2014 60.6465 9.6941 61.1204C9.7576 61.9446 10.3823 62.2441 10.8774 62.4933C11.4498 62.8032 11.9697 63.1235 12.3633 63.6321C12.6402 63.9899 12.9943 64.4085 12.6092 64.8872C12.2894 65.2551 11.8758 65.0332 11.5205 64.8865C10.0513 64.2769 8.77818 63.3349 7.29987 62.4011C6.55366 64.0928 7.24664 65.5741 7.63831 67.0176C7.81957 67.7205 8.18554 68.3106 7.71496 69.1867C5.11291 68.1288 5.948 65.224 4.52553 63.464C3.60513 64.2667 3.31104 65.488 2.58286 66.3828C2.33869 66.6922 2.11501 67.1062 1.65495 66.9804C1.14684 66.8316 1.32246 66.3945 1.37441 65.993C1.58105 64.6586 2.01339 63.4206 2.7573 62.2728C3.63627 60.8698 3.52718 60.9241 2.22492 59.9444C0.782826 58.8621 -1.09522 58.3882 -2.18563 56.823C-2.31681 56.6535 -2.64728 56.578 -2.72608 56.3981C-2.88526 55.919 -3.5029 55.4333 -2.96059 54.9233C-2.57385 54.5638 -2.05981 54.7984 -1.65055 55.0538C-0.316402 55.9185 0.899989 56.9044 2.38378 57.5328C2.73908 57.6795 3.05815 57.9746 3.61229 57.6361C3.34314 56.429 2.64468 55.2531 2.76545 53.925C2.80716 53.4711 2.8985 53.1595 3.35538 53.0468C3.84575 52.9384 4.07895 53.2397 4.21331 53.6477C4.49818 54.6016 4.83111 55.5787 5.68947 56.5706Z" fill="#10100F"/>
</g>
<defs>
<clipPath id="clip0">
<rect width="664" height="460" fill="white"/>
</clipPath>
</defs>
</svg>
