<svg width="664" height="460" viewBox="0 0 664 460" fill="none" xmlns="http://www.w3.org/2000/svg">
<path d="M526.795 416.89C524.779 417.741 521.679 417.954 518.501 417.954C506.719 417.997 494.938 418.167 483.078 417.401C474.164 416.847 464.786 417.103 455.562 417.23C432.463 417.571 409.442 417.571 386.421 416.89C374.33 416.549 362.16 416.847 350.069 417.273C347.976 417.358 345.961 417.401 343.868 417.401C341.93 417.401 339.14 417.741 338.829 416.72C338.519 415.698 340.302 414.847 343.325 414.676C347.743 414.464 352.161 414.421 356.58 414.251C377.353 413.57 397.971 414.464 418.666 414.719C435.564 414.932 452.384 414.591 469.204 414.591C476.645 414.591 483.931 414.506 491.217 415.272C501.836 416.422 512.765 416.507 523.772 416.039C525.012 416.039 526.175 416.081 526.795 416.89Z" fill="#10100F"/>
<path d="M297.665 346.942C296.669 354.009 295.72 360.364 294.866 366.72C294.629 368.569 294.013 370.324 294.107 372.221C294.107 372.648 293.965 373.17 293.775 373.549C293.491 374.213 293.017 374.83 292.21 374.735C291.404 374.64 291.119 373.976 291.072 373.217C291.025 372.648 290.977 372.032 291.167 371.51C293.017 365.249 292.495 358.657 294.06 352.349C294.439 350.878 294.202 349.171 294.866 347.938C296.526 344.76 295.625 341.819 295.009 338.594C293.017 328.587 293.111 318.579 295.53 308.619C296.906 302.975 299.23 297.663 300.51 292.019C301.032 289.6 300.653 287.087 301.174 284.857C302.36 279.64 301.506 274.85 300.036 269.965C298.945 266.218 298.044 262.376 297.475 258.487C295.957 248.622 296.147 238.946 300.083 229.508C301.649 225.761 302.977 221.967 305.727 218.884C306.676 217.793 307.719 216.845 309.095 216.513C314.881 215.185 320.762 214.094 326.549 216.181C331.766 218.078 334.659 222.346 335.513 227.658C336.129 231.5 336.224 235.437 336.177 239.373C336.129 245.254 335.37 251.136 334.469 256.969C333.663 262.187 331.766 266.977 329.347 271.53C327.545 274.945 327.023 278.028 328.541 281.68C329.869 285 331.529 288.177 332.857 291.498C334.849 296.572 336.366 301.742 336.793 307.196C337.268 313.315 338.501 319.338 338.453 325.504C338.453 335.986 338.406 346.515 337.647 356.949C337.268 362.309 335.94 367.621 334.991 372.933C334.754 374.308 334.185 375.589 334.754 377.012C335.038 377.723 334.706 378.387 334.28 378.956C333.995 379.336 333.663 379.668 333.141 379.62C332.477 379.573 332.05 379.051 332.098 378.482C332.193 376.632 332.003 374.782 332.43 372.98C335.038 362.356 336.177 351.542 335.655 340.586C335.655 340.302 335.513 339.97 335.418 339.685C334.28 340.017 333.995 341.013 333.71 341.772C331.813 346.847 328.351 350.309 323.324 352.254C322.138 352.681 322.043 353.155 321.996 354.483C321.853 360.506 322.612 366.435 322.897 372.411C323.181 378.055 322.66 383.746 322.802 389.39C322.992 397.453 322.849 405.516 323.75 413.532C323.893 414.717 324.367 415.761 324.889 416.757C325.695 418.417 326.644 420.029 327.402 421.689C328.019 422.923 328.636 424.251 328.304 425.673C328.114 426.48 328.446 427.808 327.118 427.855C325.695 427.903 326.074 426.622 325.932 425.816C325.505 423.349 324.32 421.263 323.039 419.176C321.853 417.279 320.905 415.381 320.952 413.01C321.189 404.757 320.336 396.552 320.336 388.347C320.336 384.553 320.525 380.711 320.383 376.917C320.098 370.087 319.624 363.305 319.292 356.475C319.245 355.147 318.581 354.862 317.49 355.099C316.826 355.242 316.114 355.384 315.498 355.669C311.609 357.471 311.561 357.518 307.577 357.139C308.336 362.925 306.771 368.522 307.34 374.356C307.672 377.486 307.293 380.806 307.198 384.031C307.008 389.533 307.53 395.035 307.577 400.536C307.625 404.236 307.008 407.935 307.293 411.587C307.625 415.524 306.676 418.369 303.024 420.267C301.411 421.073 300.273 422.733 298.85 423.871C298.091 424.488 297.19 424.867 296.431 423.824C295.767 422.923 296.384 422.259 297.001 421.737C298.945 419.935 300.842 418.037 302.929 416.377C304.352 415.239 304.731 414.006 304.921 412.251C305.822 403.003 304.969 393.754 304.969 384.505C304.969 375.257 304.874 365.961 304.921 356.712C304.921 355.526 304.542 355.005 303.735 354.151C301.743 351.969 299.467 350.072 297.665 346.942ZM326.359 347.511C324.936 346.847 323.513 345.377 324.604 344.76C326.833 343.432 326.549 341.582 326.644 339.827C326.738 338.167 327.45 337.693 328.873 337.266C329.821 337.029 330.675 337.124 331.576 337.029C332.335 336.934 333.236 336.745 333.473 335.796C333.521 335.511 333.616 334.515 333.141 334.942C331.718 336.365 330.248 334.658 328.873 335.322C328.398 335.559 327.687 335.749 327.497 334.895C327.308 334.136 327.592 333.472 328.304 333.14C329.347 332.571 330.533 332.618 331.671 332.523C332.714 332.429 333.805 332.334 334.659 330.863C333.616 331.006 333.094 331.101 332.525 331.101C331.813 331.101 331.102 331.148 330.485 330.911C329.679 330.626 328.446 330.342 328.588 329.203C328.73 327.828 329.916 328.35 330.817 328.302C331.956 328.302 333.189 328.35 334.28 328.065C335.465 327.733 335.702 326.642 335.465 325.504C335.228 324.461 334.374 324.935 333.758 324.935C332.952 324.982 332.145 325.172 331.339 325.03C330.628 324.935 330.153 324.271 330.201 323.512C330.248 322.753 330.817 322.516 331.386 322.563C332.477 322.706 333.426 322.184 334.422 321.947C335.086 321.804 335.323 321.283 335.323 320.666C335.276 319.812 334.659 319.812 334.09 319.955C333.189 320.144 332.24 319.955 331.386 320.476C330.011 321.33 329.869 320.05 329.537 319.338C329.062 318.247 329.964 318.105 330.675 317.678C331.766 317.014 332.952 317.915 334.042 317.251C334.564 316.919 334.991 316.682 334.944 315.971C334.896 315.259 334.469 315.022 333.805 315.022C332.667 315.07 331.481 315.117 330.343 315.07C329.869 315.07 329.537 314.69 329.489 314.168C329.489 313.694 329.679 313.22 330.153 313.078C330.675 312.935 331.292 312.935 331.861 312.888C334.612 312.651 334.754 312.414 333.9 309.52C332.857 309.141 332.382 310.659 331.386 310.374C330.296 310.042 328.493 310.706 328.351 308.809C328.209 306.912 329.869 307.576 330.912 307.434C333.71 307.007 334.042 306.532 333.236 303.639C332.24 303.544 331.481 304.208 330.58 304.398C329.584 304.588 328.636 304.398 328.398 303.26C328.161 302.122 328.92 301.552 329.869 301.268C330.39 301.126 331.007 301.22 331.576 301.126C332.335 300.983 332.904 300.604 332.667 299.75C332.477 299.039 331.861 299.039 331.244 299.134C330.201 299.323 329.347 299.987 328.256 299.892C327.545 299.798 326.833 299.703 326.738 298.802C326.644 298.043 326.928 297.426 327.687 297.189C328.446 296.952 329.252 296.762 330.011 296.43C331.102 295.956 331.102 295.055 330.77 294.059C330.485 293.205 329.821 293.252 329.062 293.395C328.019 293.584 327.023 293.727 325.98 293.774C325.221 293.822 324.652 293.347 324.462 292.588C324.177 291.64 324.936 291.45 325.6 291.213C326.454 290.928 327.355 290.644 328.256 290.312C328.778 290.122 328.92 289.695 328.73 289.174C328.493 288.557 327.829 288.604 327.687 289.031C327.213 290.217 326.027 289.268 325.221 289.98C324.699 290.407 322.992 290.217 322.517 288.794C322.185 287.703 323.086 287.466 323.798 287.087C324.604 286.66 325.363 286.138 326.169 285.616C326.928 285.142 326.928 284.573 326.406 283.909C325.41 284.193 324.794 285.189 323.608 285.189C322.375 285.189 320.668 284.051 320.762 283.909C321.948 282.486 320.004 280.209 322.138 279.119C323.75 278.312 324.32 276.842 324.414 275.135C324.462 274.518 324.557 273.949 325.031 273.569C327.07 271.72 328.209 269.301 328.968 266.787C329.964 263.515 332.525 260.574 332.098 257.064C331.718 254.124 332.477 251.42 332.667 248.669C332.952 244.069 333.189 239.421 332.952 234.82C332.714 230.931 332.667 226.9 330.39 223.437C328.825 221.066 327.118 219.216 324.035 218.6C320.525 217.888 317.253 218.362 313.79 218.505C309 218.789 306.771 221.445 305.111 225.24C303.119 229.793 301.079 234.346 300.653 239.326C300.131 244.733 299.751 250.187 300.89 255.547C302.55 263.04 303.688 270.676 306.913 277.791C307.387 278.834 307.245 279.783 306.249 280.115C303.83 280.921 304.02 283.055 304.115 284.715C304.399 289.98 302.929 294.77 301.079 299.513C298.803 305.252 297.143 311.228 296.431 317.251C295.815 322.706 296.005 328.302 296.763 333.851C297.712 340.823 299.894 347.084 305.443 351.685C307.34 353.25 309.332 355.005 312.225 354.198C317.11 352.918 321.426 349.93 326.359 347.511Z" fill="#10100F"/>
<path d="M313.791 239.279C315.688 239.421 316.636 240.654 316.352 242.409C316.115 243.974 314.312 245.776 313.174 245.539C312.889 245.492 312.557 245.255 312.368 245.017C311.467 243.879 311.893 240.369 313.032 239.516C313.269 239.326 313.648 239.326 313.791 239.279Z" fill="#10100F"/>
<path d="M304.352 242.504C304.399 242.266 304.399 241.697 304.589 241.128C304.874 240.322 304.874 239.184 306.202 239.326C307.293 239.421 308.573 241.033 308.336 242.077C308.051 243.357 307.15 244.496 305.965 244.828C304.589 245.254 304.399 243.974 304.352 242.504Z" fill="#10100F"/>
<path d="M319.15 300.13C319.292 297.474 317.68 295.766 315.83 294.296C314.834 293.537 313.553 293.49 312.32 293.774C310.091 294.343 308.336 295.671 306.961 297.426C306.249 298.327 305.348 299.181 305.064 300.414C304.827 301.41 304.542 302.406 304.447 303.402C304.305 305.062 304.779 306.627 305.491 308.098C305.775 308.667 306.155 309.188 306.534 309.758C307.53 311.181 309.143 311.56 310.66 311.892C311.846 312.177 313.174 312.414 314.407 311.845C314.834 311.655 315.213 311.607 315.403 312.177C315.593 312.698 315.308 313.125 314.739 313.267C313.743 313.505 312.7 313.552 311.704 313.41C309.807 313.078 307.815 312.746 306.487 311.275C305.064 309.71 304.02 307.86 303.736 305.726C303.024 300.177 305.633 295.434 310.803 292.92C311.941 292.351 313.269 292.256 314.502 292.304C315.783 292.351 316.731 293.11 317.537 294.011C317.964 294.533 318.391 295.055 318.865 295.576C320.241 297.236 320.336 299.134 320.099 301.126C319.861 303.212 318.818 304.778 317.016 305.868C316.067 306.438 315.119 306.959 313.98 307.149C312.178 307.434 310.66 306.675 309.095 306.153C308.479 305.963 308.147 305.299 307.957 304.635C307.53 302.88 307.909 301.268 308.763 299.655C309.854 297.568 311.656 297.047 313.791 297.189C314.312 297.236 314.739 297.426 314.976 297.9C315.688 299.181 315.356 301.078 314.265 302.074C313.791 302.501 313.316 302.454 312.795 302.169C312.368 301.932 311.704 301.884 311.704 301.173C311.704 300.983 311.704 300.746 311.893 300.604C312.131 300.462 312.273 300.604 312.415 300.746C312.463 300.794 312.463 300.794 312.51 300.841C312.889 300.983 313.174 301.505 313.696 301.22C314.075 300.983 314.407 299.655 314.217 299.134C313.98 298.517 313.506 298.47 312.937 298.47C309.712 298.327 308.431 301.552 308.621 303.592C308.716 304.446 309.143 305.015 309.996 305.299C310.945 305.631 311.893 305.868 312.842 306.058C313.459 306.2 313.98 305.963 314.502 305.774C316.304 305.157 317.917 304.256 318.771 302.406C319.15 301.647 319.055 300.888 319.15 300.13Z" fill="#7ACB76"/>
<g opacity="0.36">
<path opacity="0.36" d="M242.505 354.056C241.699 354.862 241.319 355.432 241.319 356.617C241.367 365.866 241.272 375.162 241.272 384.411C241.272 393.659 240.418 402.908 241.319 412.156C241.509 413.911 241.889 415.192 243.311 416.283C245.398 417.943 247.295 419.792 249.24 421.642C249.809 422.164 250.473 422.828 249.809 423.729C249.05 424.772 248.149 424.346 247.39 423.776C245.967 422.591 244.782 420.978 243.217 420.172C239.517 418.275 238.616 415.429 238.948 411.492C239.233 407.84 238.663 404.141 238.663 400.442C238.711 394.94 239.233 389.438 239.043 383.936C238.948 380.711 238.569 377.391 238.901 374.261C239.517 368.475 237.904 362.831 238.663 357.044C234.679 357.424 234.584 357.376 230.743 355.574C230.126 355.289 229.415 355.147 228.751 355.005C227.66 354.768 227.043 355.052 226.948 356.38C226.616 363.21 226.142 369.992 225.858 376.822C225.715 380.616 225.905 384.458 225.905 388.252C225.905 396.458 225.051 404.663 225.288 412.915C225.336 415.239 224.387 417.184 223.202 419.081C221.921 421.168 220.688 423.255 220.308 425.721C220.166 426.575 220.546 427.855 219.123 427.76C217.795 427.713 218.127 426.385 217.937 425.579C217.605 424.156 218.222 422.828 218.838 421.595C219.644 419.935 220.546 418.322 221.352 416.662C221.874 415.619 222.348 414.623 222.49 413.437C223.391 405.422 223.249 397.359 223.439 389.296C223.581 383.652 223.059 377.96 223.344 372.316C223.628 366.34 224.387 360.364 224.245 354.388C224.198 353.108 224.103 352.633 222.917 352.159C217.89 350.262 214.427 346.752 212.53 341.677C212.246 340.918 211.961 339.922 210.823 339.59C210.728 339.922 210.586 340.207 210.586 340.492C210.111 351.448 211.202 362.214 213.811 372.885C214.238 374.688 214.048 376.537 214.143 378.387C214.19 379.004 213.763 379.478 213.099 379.525C212.578 379.573 212.246 379.241 211.961 378.861C211.534 378.292 211.202 377.628 211.487 376.917C212.103 375.494 211.534 374.213 211.25 372.838C210.301 367.526 208.973 362.214 208.594 356.854C207.835 346.373 207.787 335.891 207.787 325.409C207.787 319.243 208.973 313.22 209.447 307.102C209.874 301.647 211.392 296.478 213.384 291.403C214.712 288.083 216.324 284.905 217.7 281.585C219.17 277.886 218.696 274.85 216.894 271.435C214.475 266.882 212.578 262.092 211.771 256.875C210.87 251.041 210.111 245.207 210.064 239.279C210.016 235.389 210.111 231.405 210.728 227.564C211.582 222.252 214.475 217.983 219.692 216.086C225.478 213.999 231.359 215.09 237.146 216.418C238.521 216.75 239.517 217.698 240.513 218.789C243.264 221.92 244.592 225.667 246.157 229.413C250.141 238.852 250.283 248.527 248.766 258.392C248.149 262.282 247.295 266.123 246.205 269.87C244.782 274.803 243.881 279.593 245.066 284.763C245.588 286.992 245.209 289.506 245.73 291.925C247.011 297.569 249.335 302.928 250.71 308.525C253.177 318.485 253.224 328.54 251.232 338.5C250.615 341.725 249.667 344.665 251.374 347.843C252.038 349.124 251.849 350.784 252.181 352.254C253.746 358.562 253.271 365.155 255.074 371.415C255.216 371.937 255.169 372.553 255.169 373.123C255.121 373.881 254.837 374.545 254.03 374.64C253.271 374.735 252.75 374.119 252.465 373.455C252.275 373.028 252.133 372.553 252.133 372.127C252.228 370.229 251.611 368.475 251.374 366.625C250.521 360.269 249.572 353.914 248.576 346.847C246.821 350.072 244.545 351.969 242.505 354.056ZM234.252 354.293C237.146 355.052 239.138 353.345 241.035 351.78C246.584 347.179 248.718 340.918 249.714 333.946C250.473 328.397 250.663 322.801 250.046 317.346C249.335 311.323 247.675 305.347 245.398 299.608C243.549 294.865 242.078 290.075 242.363 284.81C242.458 283.15 242.6 281.063 240.229 280.21C239.233 279.878 239.09 278.882 239.565 277.886C242.79 270.819 243.975 263.183 245.588 255.642C246.774 250.282 246.347 244.78 245.825 239.421C245.351 234.441 243.311 229.888 241.367 225.335C239.707 221.54 237.478 218.884 232.687 218.6C229.225 218.41 225.952 217.983 222.443 218.694C219.312 219.311 217.652 221.161 216.087 223.532C213.811 226.995 213.763 231.026 213.526 234.915C213.289 239.516 213.526 244.116 213.811 248.764C213.953 251.563 214.712 254.266 214.38 257.159C213.953 260.622 216.514 263.562 217.51 266.882C218.269 269.396 219.36 271.862 221.447 273.664C221.921 274.044 222.016 274.66 222.063 275.23C222.158 276.937 222.727 278.407 224.34 279.214C226.474 280.304 224.53 282.581 225.715 284.004C225.81 284.146 224.103 285.284 222.87 285.284C221.684 285.284 221.067 284.288 220.071 284.004C219.502 284.668 219.55 285.237 220.308 285.711C221.067 286.186 221.874 286.707 222.68 287.182C223.391 287.561 224.292 287.846 223.96 288.889C223.534 290.312 221.779 290.502 221.257 290.075C220.451 289.411 219.312 290.312 218.791 289.126C218.648 288.747 217.984 288.699 217.747 289.269C217.558 289.743 217.7 290.217 218.222 290.407C219.075 290.739 219.976 290.976 220.878 291.308C221.542 291.545 222.3 291.735 222.016 292.683C221.826 293.395 221.257 293.869 220.498 293.869C219.455 293.822 218.411 293.679 217.415 293.49C216.656 293.347 216.04 293.3 215.708 294.154C215.376 295.102 215.376 296.051 216.467 296.525C217.226 296.857 217.984 296.999 218.791 297.284C219.597 297.521 219.834 298.138 219.739 298.897C219.644 299.798 218.933 299.893 218.222 299.987C217.131 300.13 216.23 299.418 215.234 299.229C214.664 299.134 214 299.134 213.811 299.845C213.574 300.746 214.143 301.126 214.902 301.221C215.471 301.315 216.087 301.221 216.609 301.363C217.558 301.647 218.316 302.217 218.079 303.355C217.842 304.493 216.941 304.683 215.898 304.493C214.996 304.303 214.238 303.639 213.242 303.734C212.435 306.627 212.72 307.102 215.566 307.529C216.609 307.671 218.222 307.007 218.127 308.904C217.984 310.754 216.182 310.137 215.091 310.469C214.143 310.754 213.668 309.283 212.578 309.615C211.724 312.509 211.866 312.746 214.617 312.983C215.186 313.03 215.803 312.983 216.324 313.173C216.799 313.315 216.988 313.789 216.988 314.263C216.988 314.785 216.656 315.165 216.135 315.165C214.996 315.212 213.811 315.165 212.672 315.117C212.008 315.117 211.582 315.307 211.534 316.066C211.487 316.777 211.914 317.014 212.435 317.346C213.526 318.01 214.712 317.062 215.803 317.773C216.514 318.2 217.415 318.342 216.941 319.433C216.609 320.192 216.467 321.425 215.091 320.571C214.238 320.05 213.289 320.239 212.388 320.05C211.819 319.907 211.155 319.955 211.155 320.761C211.155 321.378 211.392 321.899 212.056 322.042C213.052 322.231 214 322.753 215.091 322.658C215.66 322.611 216.277 322.848 216.277 323.607C216.324 324.413 215.85 325.03 215.139 325.125C214.38 325.267 213.526 325.03 212.72 325.03C212.103 325.03 211.25 324.555 211.012 325.599C210.775 326.737 211.012 327.828 212.198 328.16C213.289 328.445 214.475 328.397 215.66 328.397C216.562 328.397 217.747 327.923 217.89 329.298C218.032 330.437 216.799 330.721 215.992 331.006C215.376 331.243 214.617 331.196 213.953 331.196C213.384 331.196 212.862 331.053 211.819 330.958C212.672 332.429 213.763 332.524 214.807 332.618C215.945 332.713 217.131 332.666 218.174 333.235C218.838 333.614 219.123 334.231 218.98 334.99C218.791 335.844 218.032 335.654 217.605 335.417C216.23 334.753 214.759 336.46 213.336 335.037C212.91 334.61 212.957 335.606 213.004 335.891C213.194 336.887 214.095 337.029 214.902 337.124C215.803 337.266 216.704 337.124 217.605 337.361C218.98 337.741 219.739 338.262 219.834 339.922C219.929 341.677 219.644 343.574 221.874 344.855C222.964 345.519 221.494 346.989 220.119 347.606C224.862 349.93 229.178 352.918 234.252 354.293Z" fill="#10100F"/>
<path opacity="0.36" d="M232.545 239.279C230.648 239.421 229.699 240.654 229.984 242.409C230.221 243.974 232.023 245.776 233.162 245.539C233.446 245.492 233.778 245.255 233.968 245.017C234.869 243.879 234.442 240.369 233.304 239.516C233.067 239.326 232.687 239.326 232.545 239.279Z" fill="#10100F"/>
<path opacity="0.36" d="M241.936 242.504C241.888 242.266 241.888 241.697 241.699 241.128C241.414 240.322 241.414 239.184 240.086 239.326C238.995 239.421 237.715 241.033 237.952 242.077C238.236 243.357 239.138 244.496 240.323 244.828C241.746 245.254 241.936 243.974 241.936 242.504Z" fill="#10100F"/>
<path opacity="0.36" d="M227.186 300.13C227.043 297.474 228.656 295.766 230.506 294.296C231.502 293.537 232.782 293.49 234.015 293.774C236.244 294.343 237.999 295.671 239.375 297.426C240.086 298.327 240.987 299.181 241.272 300.414C241.509 301.41 241.794 302.406 241.888 303.402C242.031 305.062 241.556 306.627 240.845 308.098C240.56 308.667 240.181 309.188 239.802 309.758C238.806 311.181 237.193 311.56 235.675 311.892C234.49 312.177 233.162 312.414 231.928 311.845C231.502 311.655 231.122 311.607 230.932 312.177C230.743 312.698 231.027 313.125 231.596 313.267C232.592 313.505 233.636 313.552 234.632 313.41C236.529 313.078 238.521 312.746 239.849 311.275C241.272 309.71 242.315 307.86 242.6 305.726C243.311 300.177 240.703 295.434 235.533 292.92C234.395 292.351 233.067 292.256 231.834 292.304C230.553 292.351 229.604 293.11 228.798 294.011C228.371 294.533 227.944 295.055 227.47 295.576C226.095 297.236 226 299.134 226.237 301.126C226.474 303.212 227.518 304.778 229.32 305.868C230.268 306.438 231.217 306.959 232.355 307.149C234.158 307.434 235.675 306.675 237.24 306.153C237.857 305.963 238.189 305.299 238.379 304.635C238.806 302.88 238.426 301.268 237.572 299.655C236.482 297.568 234.679 297.047 232.545 297.189C232.023 297.236 231.596 297.426 231.359 297.9C230.648 299.181 230.98 301.078 232.071 302.074C232.545 302.501 233.019 302.454 233.541 302.169C233.968 301.932 234.632 301.884 234.632 301.173C234.632 300.983 234.632 300.746 234.442 300.604C234.205 300.462 234.063 300.604 233.92 300.746C233.873 300.794 233.873 300.794 233.826 300.841C233.446 300.983 233.162 301.505 232.64 301.22C232.26 300.983 231.928 299.655 232.118 299.134C232.355 298.517 232.83 298.47 233.399 298.47C236.624 298.327 237.904 301.552 237.715 303.592C237.62 304.446 237.193 305.015 236.339 305.299C235.391 305.631 234.442 305.868 233.494 306.058C232.877 306.2 232.355 305.963 231.834 305.774C230.031 305.157 228.419 304.256 227.565 302.406C227.186 301.647 227.233 300.888 227.186 300.13Z" fill="#7ACB76"/>
</g>
<path d="M243.122 425.152C241.746 425.152 240.418 424.82 239.09 424.251C237.335 423.444 235.77 422.923 234.253 422.686C231.976 422.306 229.842 420.646 227.85 418.986C227.138 418.417 226.427 417.706 225.763 417.089C225.051 416.425 224.34 415.761 223.676 415.192L223.629 415.144C222.87 414.528 222.063 413.816 221.257 412.583C220.973 412.156 220.688 411.967 220.356 411.682C220.024 411.445 219.597 411.113 219.218 410.639C218.743 410.022 218.269 409.5 217.747 408.979C216.941 408.125 216.087 407.271 215.281 405.896C214.854 405.232 214.427 404.71 213.906 404.236C213.669 403.951 213.384 403.667 213.099 403.382C211.297 401.2 209.542 398.07 207.787 393.754C207.361 392.663 206.934 391.43 206.507 390.292C206.08 389.106 205.653 387.873 205.226 386.782C204.467 384.932 203.756 382.893 203.092 380.901C202.475 379.098 201.811 377.201 201.147 375.494C200.531 373.929 200.009 371.889 199.535 369.897L199.345 369.091C198.396 365.107 197.258 361.55 196.404 358.846C195.598 356.428 195.029 353.866 194.555 351.021C193.701 345.661 193.084 341.487 192.61 337.456C192.088 333.425 191.756 329.346 191.424 325.362L191.235 323.227C190.428 313.694 190.476 304.493 190.713 293.679C190.76 292.256 190.76 290.834 190.808 289.411C190.903 285.759 190.95 281.964 191.187 278.36C191.614 271.245 192.088 265.886 192.658 261.048C193.227 256.353 194.128 251.847 195.456 246.82C196.262 243.879 196.879 240.464 197.448 237.192L197.638 236.243C198.728 230.314 200.151 225.429 201.574 221.018C201.811 220.26 202.048 219.453 202.238 218.694C202.38 218.173 202.523 217.698 202.665 217.177L203.044 215.896C203.946 212.718 204.894 209.398 206.127 206.932C207.455 204.229 209.021 201.288 211.06 199.628C211.629 199.154 212.246 198.395 212.815 197.636C213.099 197.304 213.337 196.972 213.621 196.64C215.139 194.79 216.799 193.699 218.364 192.609C218.696 192.371 219.028 192.134 219.36 191.897C220.498 191.091 221.731 190.711 223.344 190.664C224.008 190.474 224.719 190.379 225.431 190.285C225.621 190.237 225.858 190.237 226.047 190.19C226.854 190.047 227.755 190 228.751 190C229.462 190 230.221 190.047 231.17 190.095C231.691 190.142 232.213 190.237 232.687 190.379C233.162 190.522 233.589 190.617 233.968 190.617C234.063 190.617 234.158 190.617 234.253 190.617C234.442 190.569 234.632 190.569 234.869 190.569C236.292 190.569 237.667 191.423 238.853 192.182C239.517 192.609 240.181 193.083 240.798 193.557C241.746 194.269 242.742 195.027 243.691 195.454C245.066 196.071 246.347 197.446 247.533 198.774C247.865 199.154 248.197 199.486 248.529 199.818C249.193 200.529 249.857 201.573 250.426 202.948C251.042 204.371 251.706 205.557 252.418 206.79C252.608 207.074 252.75 207.406 252.94 207.691C253.414 208.545 253.556 209.493 253.366 210.347C253.224 210.964 253.272 211.201 253.461 211.675C254.315 213.714 255.074 216.086 255.833 218.362C256.402 220.117 257.018 221.967 257.635 223.58C258.299 225.334 258.916 227.374 259.485 229.318C260.006 231.073 260.528 232.876 261.097 234.441C261.192 234.725 261.334 235.057 261.429 235.342C261.572 235.816 261.714 236.243 261.904 236.622C263.232 239.895 264.322 243.832 265.318 247.673C265.556 248.575 265.793 249.523 266.077 250.424C266.884 253.317 267.405 256.495 267.974 259.625C268.164 260.669 268.306 261.665 268.496 262.708C269.302 267.119 269.824 271.72 270.346 276.178C270.583 278.36 270.868 280.589 271.152 282.771C271.626 286.423 271.911 290.17 272.196 293.869C272.29 295.007 272.385 296.146 272.48 297.284C272.48 297.568 272.528 297.806 272.528 298.09C272.575 298.564 272.575 299.039 272.67 299.466C273.002 302.169 273.144 304.92 273.239 307.576C273.286 308.856 273.334 310.232 273.429 311.512L273.571 313.504C273.808 317.109 274.045 320.903 274.282 324.555C274.567 328.729 274.567 332.855 274.567 336.839C274.567 337.598 274.567 338.357 274.567 339.116C274.567 340.065 274.567 341.061 274.567 342.009C274.567 351.827 273.95 359.937 272.67 366.862C272.433 368.19 272.101 369.281 271.769 370.324C271.626 370.846 271.437 371.368 271.294 371.889C271.057 372.648 270.868 373.454 270.678 374.261C270.204 376.11 269.682 378.055 269.113 379.668C268.591 381.09 268.117 382.608 267.595 384.126C267.263 385.169 266.931 386.165 266.599 387.161C266.267 388.11 265.935 389.011 265.65 389.912C264.892 391.999 264.133 394.181 263.469 396.505C262.947 398.355 262.236 399.92 261.619 401.39C261.334 402.054 261.05 402.765 260.765 403.429C259.295 407.176 257.682 410.496 256.307 413.295C255.264 415.429 254.125 417.136 253.129 418.512C252.94 418.749 252.75 419.081 252.56 419.365C252.133 420.077 251.659 420.788 251.09 421.263C250.758 421.547 250.426 421.832 250.094 422.164C249.382 422.828 248.671 423.492 247.865 423.919C246.205 424.772 244.64 425.152 243.122 425.152ZM230.695 193.984C230.601 193.984 230.553 193.984 230.506 194.031C229.415 194.458 228.277 194.458 227.423 194.506C226.901 194.506 226.379 194.553 226.047 194.648H226H225.905C225.478 194.695 225.099 194.743 224.719 194.79C222.585 195.075 221.067 195.265 219.645 196.498C219.36 196.735 219.028 196.925 218.791 197.114C218.459 197.304 218.174 197.494 217.937 197.778C216.04 199.818 214.095 201.762 212.246 203.659L211.677 204.276C209.732 206.268 208.119 210.157 206.934 213.288C206.127 215.422 205.463 217.983 204.799 220.449C204.278 222.441 203.708 224.528 203.092 226.425C201.716 230.552 200.578 235.626 199.25 242.978C198.776 245.587 198.254 247.958 197.685 250.282C197.495 251.183 197.258 252.037 197.068 252.938C196.167 257.017 195.503 260.716 195.029 264.558C194.412 269.633 194.08 275.087 193.796 280.21L193.748 281.111C193.654 282.534 193.559 284.004 193.559 285.474C193.511 289.268 193.464 292.778 193.369 296.24C193.369 296.715 193.322 297.142 193.274 297.616C193.227 298.422 193.179 299.181 193.227 299.987C193.322 301.837 193.274 303.687 193.274 305.442C193.274 306.343 193.274 307.244 193.274 308.145C193.322 312.983 193.464 317.536 193.796 321.757C194.27 327.733 194.65 332.713 195.361 337.788C195.598 339.306 195.788 340.776 195.978 342.294C196.452 345.898 196.974 349.645 197.685 353.155C197.922 354.293 198.112 355.147 198.349 355.858C199.392 358.989 200.294 361.882 201.195 365.107L201.479 366.103C202.57 370.087 203.661 374.213 205.084 377.486C206.554 380.996 207.93 385.075 209.258 388.964L209.447 389.533C211.439 395.461 213.858 398.639 215.945 401.011C216.657 401.817 217.368 402.718 218.079 403.572C218.601 404.188 219.075 404.805 219.597 405.421C220.403 406.37 221.162 407.129 222.016 407.983C222.87 408.836 223.771 409.737 224.625 410.781C226.095 412.583 227.707 413.816 229.225 415.002C229.557 415.239 229.842 415.524 230.174 415.761C231.027 416.472 231.929 417.231 232.735 417.516C233.209 417.705 233.731 417.8 234.253 417.943C235.011 418.085 235.77 418.275 236.577 418.654C237.288 418.986 237.999 419.223 238.758 419.46C239.233 419.603 239.707 419.745 240.181 419.935C241.13 420.314 242.126 420.456 243.169 420.456C243.786 420.456 244.402 420.409 245.066 420.267C247.343 419.887 249.667 417.8 252.276 413.769C254.22 410.781 256.165 406.749 258.394 401.105C258.773 400.204 259.105 399.303 259.485 398.402C260.67 395.509 261.904 392.473 262.9 388.916C262.947 388.679 263.042 388.537 263.089 388.395C263.089 388.347 263.137 388.3 263.137 388.252C263.896 386.26 264.607 384.031 265.271 381.849C265.793 380.237 266.314 378.529 266.884 376.964C267.31 375.778 267.69 374.356 268.022 372.98C268.401 371.605 268.733 370.182 269.208 368.949C269.634 367.716 270.061 366.388 270.346 364.822C271.342 359.368 271.911 352.965 272.101 345.851C272.148 343.954 272.148 341.962 272.148 340.065C272.148 339.116 272.148 338.215 272.148 337.266C272.148 332.855 272.006 328.255 271.721 323.607C271.674 322.563 271.579 321.52 271.532 320.429C271.342 317.346 271.105 314.169 270.962 311.038L270.915 309.71C270.773 306.722 270.63 303.592 270.251 300.604C270.109 299.608 270.014 298.564 269.966 297.568C269.35 288.225 268.306 278.692 266.978 269.111C266.172 263.277 265.081 256.543 263.374 250.567C263.232 250.045 263.089 249.523 262.9 249.001C262.473 247.531 262.046 246.061 261.666 244.496C261.334 243.12 260.908 241.84 260.386 240.464C260.196 239.99 260.006 239.563 259.864 239.089C259.437 238.093 259.058 237.097 258.678 235.864C256.165 227.421 253.319 219.358 250.094 211.201C249.999 210.916 249.857 210.632 249.714 210.347C249.24 209.351 248.671 208.213 248.624 206.078C248.624 206.031 248.529 205.841 248.434 205.651C246.442 202.521 244.829 200.577 243.264 199.533C242.648 199.106 242.031 198.774 241.367 198.442C240.134 197.778 238.853 197.114 237.62 195.929C237.525 195.929 237.43 195.881 237.288 195.786C236.529 195.407 235.77 195.265 234.964 195.075C234.158 194.885 233.257 194.743 232.403 194.316H232.355C231.502 194.221 231.027 193.984 230.695 193.984Z" fill="#10100F"/>
<path d="M206.886 423.966C205.463 423.966 204.088 423.634 202.807 422.923C201.195 422.021 200.199 420.978 199.63 419.508C199.44 419.033 199.392 418.559 199.392 418.085C199.392 417.943 199.345 417.753 199.345 417.611C199.203 416.52 199.108 415.144 199.392 413.721C199.535 412.963 199.867 412.393 200.483 411.967C202.238 410.686 204.23 410.022 206.317 410.022C206.886 410.022 207.503 410.069 208.072 410.164C210.064 410.496 211.392 411.445 211.961 412.963C212.483 414.385 212.483 415.903 212.008 417.611C211.914 417.943 211.724 418.275 211.439 418.464C210.159 419.413 208.878 419.84 207.645 419.84C206.981 419.84 206.317 419.697 205.606 419.46C203.898 418.796 203.234 417.563 203.519 415.761C203.566 415.476 203.708 415.192 203.898 414.955C204.325 414.385 205.274 414.006 206.317 414.006C207.455 414.006 208.404 414.385 208.878 415.002C209.163 415.429 209.02 415.666 208.878 415.808C208.736 415.951 208.594 415.998 208.404 415.998C208.262 415.998 208.119 415.951 208.024 415.856C207.692 415.571 207.266 415.429 206.839 415.429C206.649 415.429 206.459 415.429 206.27 415.476C205.7 415.571 205.179 415.666 205.084 416.188C204.989 416.662 205.274 417.041 205.795 417.373C206.222 417.705 206.886 417.895 207.645 417.895C208.831 417.895 210.016 417.421 210.586 416.662C210.918 416.235 210.87 415.808 210.823 415.287V415.192C210.68 413.057 210.064 412.299 208.214 411.919C207.598 411.777 206.981 411.729 206.364 411.729C204.894 411.729 203.471 412.109 202.143 412.82C201.574 413.152 201.242 413.532 201.1 414.148C200.673 415.998 200.863 417.8 201.622 419.46C202.191 420.693 203.329 421.168 204.61 421.642C204.752 421.689 204.894 421.737 205.084 421.737C205.179 421.737 205.321 421.784 205.416 421.784C205.938 421.927 206.507 421.974 207.028 421.974C209.447 421.974 211.866 420.599 213.384 418.322C214.617 416.472 214.664 414.575 213.668 412.061C212.625 409.548 211.107 407.603 208.973 406.228C206.934 404.852 205.7 402.813 205.416 400.347C205.368 400.015 205.321 399.683 205.226 399.303C204.61 397.216 205.938 396.268 207.171 395.556C207.408 395.414 207.692 395.319 207.977 395.224C208.167 395.129 208.404 395.082 208.594 394.987C208.878 394.845 209.163 394.797 209.447 394.797C209.779 394.797 210.159 394.892 210.633 395.035C211.534 395.367 212.293 395.983 212.767 396.789C212.957 397.121 213.194 397.453 213.431 397.738C213.668 398.07 213.906 398.402 214.095 398.734C214.522 399.445 214.664 400.062 214.522 400.584C214.38 401.105 213.953 401.532 213.194 401.912C212.53 402.244 211.676 402.433 210.918 402.433C210.064 402.433 209.4 402.196 208.878 401.769C208.262 401.2 207.93 400.489 207.93 399.73C207.93 399.066 208.214 398.497 208.688 398.07C209.02 397.785 209.447 397.596 209.922 397.596C210.68 397.596 211.392 398.023 211.819 398.781C212.198 399.398 211.676 399.872 211.439 400.109C211.297 400.204 211.202 400.299 211.06 400.299C210.823 400.299 210.68 400.157 210.491 400.015L210.443 399.967C210.396 399.92 210.348 399.872 210.301 399.825C210.254 399.777 210.206 399.683 210.111 399.683C210.064 399.635 209.969 399.635 209.922 399.635C209.827 399.635 209.732 399.683 209.637 399.73C209.447 399.872 209.495 400.062 209.59 400.204C209.922 400.679 210.254 400.916 210.68 400.963C210.728 400.963 210.775 400.963 210.775 400.963C211.439 400.963 212.008 400.726 212.625 400.441C212.767 400.347 212.91 400.252 212.91 400.157C212.957 400.015 212.862 399.825 212.767 399.683L212.388 399.161C211.914 398.544 211.392 397.88 210.87 397.264C210.538 396.884 210.159 396.742 209.684 396.742C209.4 396.742 209.02 396.837 208.736 396.979C208.546 397.074 208.404 397.121 208.262 397.216C206.696 397.975 206.459 398.07 206.981 400.299C207.55 402.671 208.641 404.283 210.301 405.279C212.672 406.655 213.858 408.836 214.854 410.971C215.898 413.2 216.04 415.429 215.376 417.516C214.427 420.504 212.578 422.496 209.922 423.349C208.878 423.776 207.882 423.966 206.886 423.966Z" fill="#10100F"/>
<path d="M432.399 385.899C432.1 384.525 430.965 383.927 430.189 382.912C428.277 380.403 426.545 377.655 424.036 375.624C422.184 374.131 420.273 372.697 418.301 371.383C417.047 370.547 415.793 369.77 414.478 368.934C410.894 366.664 406.832 366.366 402.83 366.485C399.425 366.545 396.14 367.501 392.974 368.934C391.72 369.532 390.346 369.83 389.091 370.428C386.403 371.682 384.014 373.474 381.326 374.848C379.653 375.684 378.1 376.759 376.547 377.835C374.397 379.328 372.007 380.463 369.26 380.762C367.647 380.941 366.213 380.642 365.078 379.447C364.54 378.91 363.824 378.551 363.226 378.193C361.255 376.939 360.001 375.027 358.507 373.355C358.388 373.175 358.268 372.996 358.268 372.757C357.791 370.905 356.954 369.233 355.819 367.739C354.804 366.366 354.027 364.753 353.49 363.14C352.594 360.153 351.996 357.047 352.116 353.881C352.176 352.686 352.952 352.029 353.609 351.313C354.864 349.939 354.923 349.939 353.968 348.505C353.251 347.37 353.131 346.355 353.549 345.04C354.505 342.113 355.64 339.306 357.074 336.558C357.91 334.945 357.791 333.273 357.85 331.54C357.85 329.45 357.791 327.359 358.806 325.388C359.284 324.432 359.344 323.178 359.463 322.043C359.702 320.31 360.479 318.817 361.255 317.264C362.211 315.472 363.465 313.859 364.481 312.067C365.735 309.857 367.587 308.125 370.156 307.408C370.932 307.169 371.589 306.751 372.127 306.094C373.381 304.541 373.979 304.481 375.771 305.257C377.085 305.855 378.1 306.87 379.175 307.707C380.37 308.662 381.326 309.917 382.341 311.171C383.655 312.784 385.089 314.038 387.06 314.994C387.419 314.576 387.12 314.218 386.881 314.038C385.925 313.142 385.328 311.948 384.193 311.231C383.835 310.992 383.655 310.693 383.476 310.395C382.879 309.319 382.102 308.304 381.206 307.468C380.49 306.751 379.952 305.855 379.474 304.959C378.698 303.406 379.534 301.016 381.087 300.18C381.744 299.822 382.401 299.523 383.058 299.523C385.029 299.463 386.881 298.985 388.613 298.149C389.748 297.611 390.883 297.611 392.078 297.731C393.213 297.85 394.348 298.03 395.423 298.328C398.649 299.165 401.994 299.344 405.279 300.24C406.593 300.598 408.087 300.479 409.461 300.18C411.432 299.762 413.403 299.822 415.374 300.359C417.644 301.016 419.974 301.494 422.244 302.151C423.857 302.629 424.932 303.943 425.708 305.377C425.947 305.855 426.127 306.333 426.485 306.751C427.919 308.722 428.576 310.992 428.934 313.381C429.233 315.114 428.576 316.846 427.68 318.339C426.246 320.729 425.231 323.237 424.753 325.985C424.753 326.105 424.753 326.224 424.693 326.284C423.558 328.434 423.08 330.883 421.945 332.974C421.169 334.408 420.452 335.961 419.436 337.335C419.197 337.693 419.138 338.111 419.018 338.529C418.72 339.963 418.421 341.397 418.003 342.771C417.823 343.487 417.704 344.085 417.883 344.802C418.122 346.056 418.242 347.31 418.242 348.625C418.301 351.014 419.078 353.284 419.616 355.554C420.332 358.54 421.348 361.467 422.124 364.394C422.662 366.664 423.857 368.635 424.633 370.846C424.992 371.921 425.888 372.578 426.545 373.414C427.859 375.206 428.874 377.178 430.368 378.79C432.219 380.821 434.011 382.912 435.804 384.943C436.52 385.719 436.998 385.6 437.416 384.525C438.253 382.434 438.731 380.284 439.149 378.133C439.865 374.251 440.761 370.428 441.06 366.485C441.359 362.901 441.478 359.257 441.18 355.673C441 354.001 440.881 352.328 441 350.655C441.06 349.7 441 348.744 440.881 347.728C440.523 344.742 439.985 341.755 439.746 338.768C439.627 336.797 439.746 334.766 439.567 332.795C439.447 331.361 439.746 330.167 440.284 328.912C440.463 328.434 440.642 328.255 441.239 328.375C442.912 328.793 444.584 329.091 446.317 329.51C447.75 329.868 448.826 330.644 449.841 331.66C452.529 334.348 453.664 337.693 454.441 341.277C455.396 345.459 453.963 348.983 451.932 352.507C451.334 353.582 450.737 354.717 450.199 355.793C448.885 358.242 447.213 360.512 445.779 362.901C443.808 366.067 442.434 369.532 442.255 373.355C442.135 375.983 441.598 378.611 441.06 381.18C440.821 382.195 440.642 383.211 440.582 384.226C440.523 385.361 441.18 385.779 442.255 385.421C442.494 385.361 442.733 385.182 442.972 385.062C445.54 383.33 448.228 381.837 450.558 379.806C450.857 379.567 451.155 379.328 451.514 379.208C453.007 378.671 453.903 377.536 454.68 376.341C456.531 373.414 458.98 371.085 461.489 368.815C462.206 368.158 462.744 367.321 463.401 366.605C463.998 365.888 464.536 365.171 465.253 364.574C465.551 364.335 465.85 363.916 465.969 363.498C466.626 361.228 467.522 359.018 467.821 356.629C468.299 353.164 467.941 349.819 466.985 346.534C466.746 345.638 466.686 344.563 465.85 343.906C465.671 343.786 465.611 343.547 465.551 343.308C464.356 340.023 462.266 337.215 460.832 334.109C458.622 329.45 456.472 324.731 454.68 319.892C454.022 318.1 453.724 316.129 453.545 314.218C453.306 311.828 454.5 309.797 455.396 307.766C456.472 305.437 458.144 303.704 460.295 302.33C462.027 301.195 463.699 299.822 465.312 298.567C466.925 297.313 468.777 296.656 470.808 296.536C471.465 296.476 472.122 296.417 472.719 296.238C474.332 295.819 475.826 296.058 477.259 296.835C478.872 297.731 480.604 298.328 481.978 299.583C482.814 300.299 483.949 300.001 484.905 299.583C486.936 298.627 489.087 298.209 491.297 297.791C492.79 297.552 494.283 297.492 495.836 297.791C497.449 298.089 498.823 298.746 500.137 299.881C501.392 301.016 502.646 302.271 504.259 302.928C504.677 303.107 505.036 303.346 505.454 303.346C507.126 303.525 508.142 304.541 508.918 305.914C510.591 308.782 510.531 311.589 508.918 314.516C508.082 315.95 507.365 317.443 506.29 319.056C507.485 318.937 508.201 318.399 508.799 317.742C509.814 316.786 510.77 315.771 511.606 314.636C513.04 312.784 516.027 312.664 517.819 314.158C519.491 315.651 520.865 317.383 521.881 319.295C522.597 320.669 523.971 321.386 524.808 322.64C525.584 323.775 526.6 324.791 527.496 325.866C528.272 326.821 528.989 327.837 529.288 329.091C529.646 330.406 530.602 331.421 531.378 332.496C531.737 332.974 532.035 333.452 532.215 334.049C532.812 336.558 533.17 339.127 532.155 341.636C531.856 342.412 531.438 343.009 530.781 343.547C529.646 344.443 528.87 345.698 528.033 347.012C528.929 347.31 529.825 347.609 530.602 348.027C531.139 348.326 531.319 348.684 531.498 349.222C532.394 352.686 531.617 355.972 530.363 359.197C529.706 360.81 528.87 362.423 528.093 363.976C527.914 364.394 527.555 364.812 527.735 365.171C528.153 366.306 527.436 367.023 526.839 367.739C526.361 368.397 525.943 369.054 525.524 369.77C524.628 371.443 523.135 372.518 521.522 373.474C519.969 374.43 518.297 375.266 516.803 376.281C515.609 377.058 514.474 377.178 513.159 377.058C510.113 376.759 507.963 374.967 505.812 372.996C502.348 369.77 498.704 366.843 494.463 364.693C489.385 362.124 484.069 360.81 478.334 361.826C477.558 361.945 476.781 362.184 476.005 362.543C473.974 363.498 471.943 364.454 469.912 365.47C469.076 365.947 468.418 366.724 467.702 367.381C467.522 367.56 467.403 367.739 467.702 367.919C468.359 368.217 468.06 368.635 467.821 368.934C467.582 369.352 467.104 369.472 466.686 369.293C466.089 368.994 465.611 369.054 465.312 369.591C464.476 371.085 463.042 372.04 461.907 373.235C459.757 375.505 457.965 378.074 455.576 380.164C453.664 381.897 451.573 383.45 449.602 385.122C449.184 385.481 448.706 385.779 448.348 386.377C451.514 387.75 451.573 390.797 452.171 393.485C452.529 395.038 453.007 396.472 453.604 397.905C454.441 400.056 454.978 402.266 454.799 404.715C454.62 407.224 453.784 409.553 453.186 411.943C453.126 412.062 453.067 412.242 452.947 412.361C450.558 415.527 447.571 417.438 443.449 417.08C442.553 417.02 441.657 416.901 440.761 416.722C439.328 416.423 437.894 416.303 436.461 416.244C434.25 416.184 432.1 415.766 430.069 414.75C428.815 414.093 427.62 413.556 426.545 412.54C424.932 410.987 424.096 409.195 423.737 407.045C423.02 402.624 423.797 398.503 425.708 394.5C426.246 393.365 426.724 392.231 427.082 391.036C427.62 389.304 428.755 388.049 429.95 386.795C430.547 386.317 431.622 386.436 432.399 385.899ZM403.009 347.37C402.233 345.638 401.337 343.965 399.903 342.412C399.784 342.771 399.724 343.009 399.724 343.069C400.739 344.503 401.815 345.877 402.83 347.31C402.95 347.37 403.009 347.31 403.009 347.37C403.428 348.684 403.726 349.102 404.981 349.401C404.085 348.744 404.025 347.609 403.009 347.37ZM389.151 342.711C389.33 342.233 389.45 341.695 388.912 341.456C387.419 340.68 386.284 339.366 384.671 338.828C382.7 338.171 380.908 336.976 378.996 336.2C378.757 336.08 378.339 336.021 378.638 335.423C383.596 337.036 388.255 339.127 392.436 342.89C392.317 341.875 391.839 341.636 391.421 341.337C390.883 340.979 390.346 340.56 390.047 340.023C388.972 338.171 387.299 336.976 385.388 336.26C383.894 335.662 382.461 334.826 380.908 334.348C380.49 334.229 380.191 333.93 379.832 333.691C379.534 333.512 379.295 333.213 379.534 332.855C379.832 332.437 380.191 332.556 380.49 332.855C381.386 333.691 382.521 334.049 383.596 334.527C384.611 335.005 385.686 335.125 386.642 335.602C388.613 336.558 390.286 337.872 391.421 339.784C391.66 340.262 392.138 340.381 392.675 340.381C392.616 339.844 392.257 339.605 391.959 339.306C390.405 337.514 388.434 336.14 387.001 334.169C386.344 333.273 385.627 332.377 384.611 331.779C384.074 331.481 383.835 330.943 383.596 330.346C383.536 330.167 383.536 329.928 383.715 329.748C383.954 329.629 384.133 329.689 384.253 329.928C384.432 330.346 384.671 330.644 385.089 330.883C386.224 331.66 387.299 332.556 388.136 333.751C388.554 334.348 389.032 335.005 389.689 335.423C391.54 336.558 392.556 338.47 394.169 339.784C395.483 340.919 396.439 342.412 397.753 343.487C398.29 343.905 398.768 344.443 399.127 345.04C399.485 345.638 399.963 346.175 400.441 346.653C400.919 347.131 401.158 347.967 401.874 348.266C401.994 347.908 401.874 347.728 401.755 347.549C400.501 345.996 399.605 344.204 398.35 342.651C397.633 341.815 396.857 340.979 396.2 340.142C395.304 338.948 394.169 337.932 393.213 336.797C392.197 335.662 391.003 334.647 390.286 333.153C389.748 331.959 388.912 330.883 387.777 329.987C387.12 329.45 386.523 328.793 385.925 328.195C385.746 328.016 385.627 327.718 385.866 327.479C386.105 327.24 386.403 327.359 386.582 327.538C387.18 328.136 387.777 328.793 388.374 329.39C389.211 330.226 390.167 331.003 390.824 331.959C392.197 334.169 393.99 335.901 395.602 337.813C395.841 338.111 396.2 338.29 396.2 338.709C396.2 339.425 396.678 339.724 397.215 340.023C397.633 340.262 397.992 340.56 398.231 341.038C398.47 341.456 398.768 341.815 399.545 342.173C397.872 339.545 396.379 337.156 394.945 334.826C394.945 334.766 394.886 334.766 394.826 334.706C393.213 333.213 391.839 331.421 390.346 329.808C389.987 329.39 389.509 328.972 389.569 328.255C390.346 327.897 390.764 328.315 391.182 328.912C392.496 330.704 393.87 332.556 395.543 334.109C396.02 334.587 396.498 335.184 396.857 335.782C397.693 337.096 398.41 338.47 399.186 339.844C399.664 340.68 399.664 340.68 400.799 341.397C400.321 339.784 399.724 338.35 398.47 337.215C398.29 337.036 398.111 336.797 398.051 336.558C397.992 336.439 398.051 336.26 398.171 336.14C398.29 336.021 398.47 336.021 398.589 336.14C399.186 336.498 399.545 337.096 400.381 337.394C400.441 336.857 400.321 336.259 400.978 336.2C401.456 336.14 401.755 336.439 401.994 336.857C402.113 337.036 402.233 337.215 402.412 337.335C403.248 338.052 403.607 339.306 404.682 339.724C404.921 339.545 404.801 339.425 404.801 339.246C404.742 338.111 403.846 337.454 403.308 336.618C401.038 332.855 399.127 328.852 397.096 324.91C396.08 322.939 394.766 321.147 393.512 319.295C393.034 318.578 392.377 317.443 391.54 317.503C390.107 317.563 388.972 316.726 387.658 316.547C386.702 316.428 385.866 316.01 385.149 315.412C383.835 314.218 382.222 313.322 381.326 311.709C381.147 311.35 380.788 311.052 380.49 310.693C379.056 309.08 377.383 307.647 375.591 306.452C374.456 305.676 373.202 306.213 372.784 307.468C372.664 307.766 372.724 308.005 373.023 308.184C373.321 308.364 373.68 308.543 374.038 308.722C375.591 309.618 376.846 310.813 378.04 312.127C378.22 312.306 378.339 312.605 378.16 312.844C377.921 313.202 377.622 313.142 377.324 312.963C376.846 312.664 376.428 312.366 376.069 311.948C375.054 310.574 373.68 309.797 372.186 309.14C371.35 308.782 370.335 308.483 369.558 309.021C368.005 310.156 366.392 311.291 365.616 313.202C365.317 314.038 364.899 314.815 364.302 315.412C363.286 316.428 362.748 317.742 362.091 318.937C361.136 320.788 361.136 322.879 360.479 324.85C359.941 326.583 359.164 328.255 359.463 330.167C359.642 331.421 359.523 331.481 360.777 331.779C363.764 332.437 366.512 333.691 369.26 334.945C372.127 336.319 375.173 337.335 378.22 338.29C381.684 339.366 385.209 340.501 388.613 341.815C388.852 342.233 389.211 342.293 389.151 342.711C389.808 342.711 390.107 343.368 390.525 343.726C391.361 344.383 392.197 345.16 393.571 345.459C392.556 344.204 391.54 343.428 390.346 342.771C389.928 342.532 389.569 342.651 389.151 342.711ZM493.567 345.459C493.089 345.339 492.611 345.339 492.491 346.056C493.029 345.996 493.387 345.817 493.567 345.459C495 345.757 496.255 344.861 497.629 344.682C499.241 344.443 500.735 343.786 502.288 343.487C502.825 343.368 503.124 343.607 503.303 344.085C503.423 344.503 503.124 344.802 502.766 344.981C502.586 345.1 502.348 345.04 502.168 345.1C499.898 345.638 497.628 346.056 495.418 346.832C493.865 347.37 492.312 348.147 490.699 348.386C489.624 348.565 488.668 349.102 487.713 349.64C486.518 350.297 485.383 351.014 484.129 351.492C482.874 351.97 481.978 352.806 481.142 353.821C483.77 352.925 486.518 352.328 489.027 351.133C489.863 350.715 490.64 350.297 491.595 350.178C492.969 350.058 494.343 349.7 495.657 349.102C496.255 348.863 496.852 348.386 497.509 348.565C499.002 348.923 500.257 348.266 501.571 347.908C502.109 347.728 502.586 347.609 503.124 347.549C505.454 347.31 507.724 347.31 509.994 346.534C510.471 346.414 510.949 346.414 511.427 346.414C511.905 346.414 512.263 346.653 512.323 347.191C512.383 347.788 512.024 348.147 511.427 348.147C509.695 348.087 508.022 348.565 506.29 348.804C504.259 349.102 502.109 348.804 500.197 349.939C499.6 350.297 498.704 350.655 497.867 350.118C497.509 349.879 497.151 350.118 496.792 350.297C495.538 350.835 494.283 351.372 492.969 351.611C491.416 351.97 489.863 352.029 488.429 352.985C486.339 354.359 483.77 354.598 481.5 355.613C480.126 356.211 478.932 357.167 477.498 357.525C477.259 357.585 477.08 358.003 477.319 358.54C478.932 357.346 481.082 357.346 482.814 356.39C483.471 356.032 484.188 355.852 484.965 355.673C488.668 354.956 492.372 354.18 496.075 353.463C499.182 352.866 502.348 352.388 505.454 351.85C508.5 351.372 511.606 351.731 514.593 351.372C515.011 351.313 515.37 351.551 515.37 352.029C515.37 352.447 515.37 352.925 514.832 353.105C514.414 353.224 513.996 353.224 513.578 353.224C511.248 353.224 508.918 352.985 506.648 353.284C501.332 354.06 496.016 354.837 490.759 356.091C490.221 356.211 489.564 356.151 488.848 356.868C490.879 356.569 492.551 356.868 494.283 356.748C497.449 356.509 500.496 355.613 503.721 355.733C506.409 355.852 509.217 355.733 511.905 355.434C512.144 355.434 512.323 355.554 512.443 355.733C512.562 355.972 512.502 356.151 512.383 356.33C511.786 357.047 510.949 357.346 510.053 357.167C508.022 356.808 505.991 357.167 503.901 357.226C503.303 357.226 502.706 357.286 502.109 357.226C500.675 357.047 499.361 357.226 497.987 357.644C496.912 357.943 495.777 358.122 494.642 358.122C492.312 358.122 489.983 358.182 487.713 358.242C487.056 358.242 486.458 358.301 485.562 358.72C486.518 358.899 487.175 359.197 487.713 359.078C489.564 358.779 491.476 358.959 493.387 358.779C495.239 358.6 497.031 358.6 498.883 359.078C501.75 359.795 504.677 360.452 507.664 359.556C508.022 359.436 508.381 359.436 508.799 359.377C509.097 359.377 509.456 359.377 509.755 359.436C510.053 359.496 510.352 359.735 510.292 360.153C510.232 360.452 509.994 360.571 509.695 360.631C508.799 360.81 507.903 360.99 507.007 361.109C505.275 361.348 503.542 361.527 501.87 361.228C500.257 360.99 498.704 360.571 497.151 360.273C496.314 360.093 495.598 360.093 494.761 360.452C495.717 360.631 496.553 360.93 497.39 361.169C500.018 362.124 502.646 363.02 505.454 363.14C505.872 363.14 506.23 363.259 506.23 363.737C506.23 364.155 505.872 364.394 505.513 364.454C504.737 364.574 504.02 364.394 503.244 364.275C501.511 363.916 499.779 363.439 497.927 363.259C498.106 363.797 498.525 364.036 498.943 363.976C500.018 363.916 500.675 364.454 501.272 365.171C502.168 366.186 503.303 366.963 504.677 367.142C505.036 367.202 505.394 367.381 505.693 367.56C505.991 367.739 506.171 367.978 506.051 368.337C505.932 368.635 505.633 368.635 505.334 368.576C504.558 368.397 503.781 368.337 502.706 368.576C505.095 370.129 506.648 372.22 508.679 373.653C512.024 376.043 514.653 376.043 517.878 373.593C518.655 372.996 519.432 372.458 520.387 372.16C520.865 371.981 521.462 371.861 521.403 371.324C521.283 370.786 520.626 370.846 520.148 370.846C519.133 370.905 518.117 371.025 517.102 371.204C516.385 371.324 516.206 370.965 516.206 370.428C516.206 369.89 516.266 369.233 517.042 369.293C518.476 369.472 519.909 368.934 521.403 369.233C523.613 369.711 524.569 368.695 525.106 366.784C524.867 366.605 524.569 366.605 524.33 366.724C523.016 367.321 521.701 367.082 520.387 366.843C519.909 366.724 519.432 366.664 518.954 366.664C517.699 366.784 516.505 366.366 515.25 366.306C514.832 366.306 514.533 366.067 514.235 365.828C513.757 365.47 513.518 364.992 513.757 364.394C514.055 363.737 514.593 364.036 515.011 364.215C516.923 364.932 519.013 364.932 520.985 365.35C521.701 365.529 522.478 365.529 523.255 365.47C524.27 365.41 525.285 365.231 525.943 364.275C527.257 362.363 528.392 360.332 529.108 358.122C529.766 356.151 530.482 354.12 530.243 351.97C530.005 349.7 528.989 348.863 526.659 349.043C525.763 349.102 524.808 349.162 523.912 349.222C522.359 349.341 520.925 348.804 519.67 347.908C519.073 347.49 518.954 346.952 519.013 346.355C519.073 345.638 519.73 345.877 520.148 345.757C521.94 345.279 523.792 345.16 525.584 345.279C526.54 345.339 527.376 345.16 527.914 344.204C528.272 343.607 528.69 343.069 529.288 342.651C529.527 342.472 529.825 342.233 529.586 341.815C529.108 341.576 528.571 341.755 528.033 341.755C526.241 341.875 524.389 342.054 522.657 341.277C522.478 341.217 522.179 341.217 522.179 340.919C522.179 340.62 522.358 340.381 522.597 340.321C523.255 340.142 523.971 340.142 524.688 340.202C526.361 340.381 528.033 340.083 529.646 340.023C530.482 339.963 530.9 339.485 530.96 338.649C531.08 337.156 530.96 335.662 530.184 334.288C528.989 332.257 527.615 330.406 526.241 328.554C525.823 328.016 525.465 327.956 524.867 328.255C524.27 328.614 523.553 328.852 522.956 329.151C522.478 329.45 522.12 329.45 521.821 329.032C521.462 328.494 521.761 328.076 522.299 327.837C522.896 327.538 523.493 327.299 524.091 327.06C524.509 326.881 524.808 326.702 524.569 326.224C524.33 325.806 524.091 325.448 523.434 325.866C522.239 326.583 521.104 327.419 520.089 328.375C518.655 329.689 517.042 330.764 515.37 331.779C513.876 332.616 512.323 333.452 510.89 334.288C509.157 335.304 507.365 336.08 505.573 336.976C503.96 337.813 502.228 338.589 500.794 339.664C499.182 340.919 497.449 341.934 495.538 342.711C494.642 343.189 493.387 343.786 493.567 345.459ZM409.759 360.87C409.162 359.377 408.147 358.182 407.012 357.107C404.682 355.016 402.113 353.224 399.545 351.492C397.335 349.998 395.304 348.147 392.974 346.832C391.421 345.996 389.987 344.981 388.554 343.846C387.777 343.189 386.821 342.711 385.866 342.412C383.357 341.576 380.908 340.62 378.339 339.903C374.397 338.768 370.514 337.514 366.81 335.602C364.959 334.647 362.928 334.049 360.837 333.751C360.18 333.691 359.821 333.81 359.583 334.408C358.925 336.021 358.089 337.514 357.432 339.127C356.536 341.337 355.58 343.487 355.222 345.877C354.983 347.43 355.7 348.565 357.253 348.744C358.388 348.863 359.523 348.983 360.658 349.043C362.569 349.102 364.421 349.401 366.213 350.118C367.527 350.655 368.722 351.492 370.215 351.731C370.633 351.79 370.693 352.328 370.275 352.627C369.857 352.925 369.379 352.985 368.901 352.746C368.304 352.507 367.706 352.268 367.109 351.97C364.302 350.417 361.255 350.237 358.149 350.237C356.357 350.237 356.178 350.476 355.521 352.268C355.939 352.627 356.476 352.686 357.014 352.746C358.388 352.866 359.642 353.344 360.956 353.702C361.255 353.762 361.673 353.821 361.673 354.24C361.673 354.717 361.255 354.658 360.956 354.658C360.24 354.598 359.583 354.538 358.866 354.478C357.85 354.359 356.835 354.18 355.819 354.06C354.087 353.881 353.669 354.24 353.848 356.032C353.968 357.226 354.266 358.361 354.445 359.556C354.804 362.423 355.819 365.051 357.432 367.501C357.85 368.098 358.209 368.217 358.746 367.799C359.284 367.381 359.762 366.963 360.24 366.545C361.076 365.888 361.852 365.111 362.987 364.872C363.286 364.812 363.644 364.574 363.883 364.932C364.122 365.35 363.764 365.589 363.465 365.888C363.346 366.007 363.226 366.127 363.047 366.127C361.793 366.545 360.837 367.441 359.821 368.217C358.567 369.233 358.567 369.293 359.642 370.786C360.24 370.666 360.299 369.95 360.777 369.711C362.211 369.054 363.406 368.038 364.959 367.62C365.795 367.381 366.571 366.963 367.229 366.425C368.244 365.529 369.618 365.47 370.753 364.872C371.052 364.753 371.41 364.753 371.589 365.111C371.768 365.47 371.589 365.768 371.29 365.947C370.992 366.186 370.633 366.425 370.335 366.485C369.737 366.605 369.319 366.903 368.961 367.262C368.304 367.919 367.467 368.337 366.571 368.635C364.839 369.233 363.226 370.129 361.673 371.085C360.538 371.801 360.359 372.936 361.076 374.012C362.629 376.341 365.018 377.655 367.169 379.208C367.527 379.447 367.945 379.567 368.423 379.507C369.379 379.328 370.394 379.388 371.29 378.91C373.321 377.775 375.591 377.177 377.443 375.744C379.414 374.251 381.804 373.355 383.835 371.981C386.523 370.129 389.39 368.695 392.436 367.56C393.81 367.023 395.244 366.485 396.737 366.186C397.932 365.947 399.246 365.768 400.441 365.29C400.142 364.872 399.784 364.932 399.485 364.932C398.171 364.872 396.916 364.932 395.602 364.872C393.81 364.753 392.018 364.155 390.167 364.514C390.047 364.514 389.808 364.454 389.748 364.335C389.629 364.096 389.748 363.916 389.928 363.797C390.704 363.319 391.481 363.08 392.377 363.379C393.81 363.797 395.244 363.678 396.678 363.857C397.036 363.916 397.394 363.857 397.633 363.319C397.036 363.14 396.319 363.08 395.901 362.543C395.722 362.304 395.363 362.065 395.602 361.706C395.782 361.408 396.14 361.408 396.439 361.467C398.947 361.766 401.456 362.124 403.846 362.961C404.264 363.14 404.742 363.14 405.16 362.901C403.607 362.184 402.054 361.408 400.321 361.169C396.737 360.631 393.153 359.735 389.509 359.556C389.211 359.556 388.793 359.556 388.733 359.138C388.733 358.6 389.211 358.66 389.569 358.6C391.063 358.421 392.496 358.66 393.87 359.018C395.005 359.317 396.14 359.436 397.275 359.317C397.275 358.839 397.036 358.72 396.797 358.6C395.184 357.704 393.452 357.167 391.66 356.748C389.569 356.271 387.478 355.673 385.388 355.136C384.97 355.016 384.372 354.956 384.492 354.419C384.611 353.821 385.209 354.24 385.567 354.18C385.746 354.18 385.866 354.24 386.045 354.299C388.195 354.837 390.346 355.434 392.436 355.912C394.049 356.33 395.782 356.45 397.155 357.465C399.784 359.317 402.83 360.332 405.697 361.706C406.235 361.945 406.773 362.244 407.489 362.065C407.37 361.647 407.131 361.587 406.892 361.467C406.056 360.99 405.04 360.87 404.204 360.392C402.173 359.377 400.202 358.242 398.231 357.107C395.961 355.852 393.81 354.359 391.361 353.582C391.122 353.523 390.824 353.403 390.644 353.224C390.465 353.045 390.226 352.866 390.405 352.567C390.525 352.328 390.824 352.268 391.122 352.268C391.301 352.268 391.421 352.328 391.6 352.447C394.169 353.582 396.618 354.956 399.067 356.33C400.56 357.226 402.113 358.003 403.666 358.779C403.726 358.66 403.786 358.54 403.846 358.421C403.368 357.824 402.651 357.465 401.934 357.167C401.158 356.868 400.501 356.39 399.903 355.912C398.589 354.837 397.096 353.881 395.602 353.045C392.556 351.372 389.33 349.998 385.985 348.804C385.686 348.684 385.388 348.565 385.089 348.386C384.91 348.266 384.731 348.087 384.91 347.848C384.97 347.728 385.149 347.609 385.268 347.549C385.627 347.43 385.866 347.609 386.224 347.728C387.359 347.967 388.315 348.684 389.39 348.983C393.273 350.118 396.737 352.029 399.903 354.478C400.68 355.136 401.576 355.673 402.531 356.032C402.95 356.151 403.308 356.45 403.607 356.748C405.518 358.242 407.728 359.377 409.759 360.87ZM483.352 330.644C484.129 330.167 484.129 329.629 484.188 329.091C484.248 328.554 484.248 328.016 484.308 327.479C484.905 323.596 485.443 319.713 485.443 315.711C485.443 314.815 485.502 313.859 485.741 312.963C486.279 310.813 486.578 308.603 486.637 306.392C486.697 304.959 486.458 303.465 486.339 302.032C486.279 301.673 486.219 301.255 485.682 301.255C484.845 301.255 484.009 302.091 484.129 302.868C484.248 303.704 484.009 304.481 484.069 305.257C484.129 305.855 483.77 306.153 483.412 306.452C483.173 306.631 482.934 306.691 482.695 306.572C482.456 306.452 482.456 306.213 482.516 305.974C482.575 305.198 482.695 304.481 482.695 303.704C482.755 302.988 482.695 302.151 481.978 301.853C481.142 301.554 480.664 300.897 480.067 300.419C478.454 298.985 476.483 297.97 474.392 297.85C472.182 297.731 469.912 298.328 467.821 299.045C467.343 299.224 466.925 299.463 466.507 299.702C465.611 300.299 465.432 300.777 465.79 301.733C466.507 303.824 466.387 306.034 466.985 308.065C467.104 308.423 467.045 308.841 466.567 309.021C465.969 309.2 465.85 308.782 465.73 308.304C465.133 306.631 464.775 304.899 464.595 303.107C464.536 302.091 463.998 301.853 463.162 302.33C459.757 304.182 457.069 306.631 455.695 310.454C455.038 312.306 454.919 314.098 455.277 316.01C455.635 317.861 456.531 319.474 457.069 321.206C458.025 324.133 459.399 326.881 460.534 329.748C461.31 331.66 462.445 333.333 463.281 335.244C463.759 336.26 464.177 337.394 465.133 338.171C466.029 337.215 466.089 337.215 466.567 337.932C467.104 338.709 467.642 339.545 467.821 340.56C468.239 342.591 468.717 344.622 469.613 346.534C470.629 348.804 470.449 351.253 469.852 353.642C469.553 354.837 469.374 356.091 469.553 357.585C470.39 356.27 470.27 355.076 470.629 353.941C471.704 350.297 471.345 346.773 469.852 343.368C468.657 340.62 468.299 337.514 466.149 335.184C465.969 334.945 466.089 334.647 466.268 334.467C466.507 334.229 466.746 334.288 466.925 334.527C467.284 334.945 467.821 335.005 468.18 335.543C469.076 337.156 469.912 338.768 470.449 340.501C470.987 342.173 471.943 343.726 472.122 345.518C472.182 345.936 472.48 346.295 472.66 346.713C473.197 344.981 473.018 343.368 472.48 341.755C471.764 339.844 471.286 337.813 470.748 335.841C470.151 333.392 469.314 331.063 467.881 329.032C466.507 327.06 465.85 324.731 464.595 322.76C464.476 322.58 464.476 322.341 464.715 322.162C464.894 322.043 465.133 322.043 465.312 322.162C465.79 322.461 466.149 322.879 466.387 323.357C467.283 324.91 468.179 326.403 469.135 327.897C470.748 330.406 471.823 333.153 472.54 336.08C472.779 337.096 472.66 338.29 473.675 339.485C473.317 337.096 473.556 334.945 473.018 332.914C472.122 329.629 472.48 326.164 471.644 322.819C471.525 322.401 471.644 321.923 472.182 321.804C472.6 321.744 472.839 322.102 473.018 322.461C473.137 322.64 473.137 322.879 473.197 323.058C473.376 324.91 473.556 326.702 473.735 328.554C473.854 329.689 473.974 330.824 474.631 331.839C475.228 329.808 475.228 327.718 474.989 325.627C474.929 324.85 474.87 324.133 474.87 323.357C474.87 322.879 474.87 322.222 475.527 322.282C476.124 322.341 476.064 322.939 476.124 323.417C476.124 324.253 476.244 325.029 476.303 325.806C476.542 327.598 476.542 329.45 476.303 331.302C476.124 332.556 476.124 333.751 476.483 334.945C477.02 334.348 477.02 333.571 477.199 332.855C477.976 329.987 478.752 327.12 478.095 324.074C477.976 323.417 478.215 322.7 478.334 321.983C478.394 321.684 478.633 321.565 478.932 321.565C479.23 321.565 479.41 321.804 479.41 322.102C479.41 322.401 479.35 322.76 479.35 323.058C479.469 324.133 479.648 325.149 479.768 326.224C480.246 324.85 480.425 323.476 480.664 322.102C480.724 321.565 480.425 320.609 481.261 320.669C481.859 320.729 482.038 321.625 482.038 322.282C482.038 322.64 481.978 323.058 481.978 323.417C481.859 324.313 481.739 325.209 481.679 326.164C481.679 326.403 481.62 326.702 481.679 326.941C481.679 327.18 481.62 327.419 482.038 327.598C482.337 325.746 482.456 323.895 482.456 322.102C482.516 318.877 482.934 315.651 482.874 312.426C482.874 311.768 482.874 311.052 483.471 310.454C484.248 311.231 484.248 312.127 484.188 312.963C484.069 315.353 483.949 317.802 483.83 320.191C483.77 320.968 483.651 321.804 483.83 322.64C484.009 323.775 483.949 324.91 483.71 326.045C483.412 327.658 483.651 329.032 483.352 330.644ZM408.744 343.965C408.684 343.726 408.684 343.428 408.624 343.189C407.908 339.246 406.534 335.483 405.04 331.779C404.264 329.808 403.368 327.956 401.874 326.344C401.277 325.687 400.799 324.91 400.321 324.074C399.306 322.222 398.29 320.37 396.916 318.757C395.782 317.383 394.706 315.95 393.93 314.337C393.093 312.664 392.377 311.052 390.824 309.917C390.465 309.678 390.226 309.26 390.286 308.782C390.346 308.543 390.346 308.244 390.704 308.184C390.943 308.125 391.122 308.304 391.242 308.483C391.779 309.379 392.436 310.156 393.213 310.813C393.452 311.052 393.571 311.35 393.691 311.649C394.766 313.501 395.602 315.472 397.036 317.145C398.35 318.698 399.605 320.31 400.56 322.162C401.337 323.715 402.233 325.268 403.368 326.642C404.264 327.717 405.22 328.912 405.518 330.406C405.638 331.003 405.817 331.54 406.056 332.078C406.832 333.751 407.669 335.363 408.147 337.156C408.923 340.381 409.998 343.547 410.954 346.713C411.133 347.31 411.193 348.027 411.432 348.565C412.328 350.536 413.403 352.388 414.06 354.478C414.12 354.717 414.239 355.016 414.598 355.016C414.837 354.837 414.837 354.538 414.777 354.299C414.12 352.089 414.06 349.759 413.343 347.549C412.507 344.921 412.029 342.173 411.074 339.664C409.759 336.319 408.624 332.914 407.131 329.569C405.638 326.224 404.144 322.879 401.516 320.191C401.277 319.952 401.217 319.594 401.217 319.295C401.217 319.056 401.217 318.877 401.456 318.757C401.695 318.638 401.874 318.817 401.994 318.996C403.965 321.027 405.458 323.357 406.474 325.985C406.773 326.762 407.131 327.479 408.027 328.195C407.848 326.702 407.549 325.627 407.071 324.492C406.832 323.954 406.653 323.357 406.593 322.76C406.593 322.461 406.593 321.983 407.012 322.043C408.147 322.222 407.848 321.445 407.728 320.968C406.952 318.16 406.355 315.353 405.697 312.485C405.339 310.992 404.981 309.558 404.383 308.125C403.905 306.99 403.547 305.914 403.368 304.72C403.189 303.645 402.77 302.569 402.412 301.494C402.233 300.897 401.815 300.479 401.098 300.419C400.859 300.419 400.56 300.24 400.381 300.538C400.262 300.777 400.321 301.136 400.56 301.255C401.456 301.793 401.635 302.749 401.934 303.585C402.412 304.959 402.711 306.392 403.069 307.766C403.129 307.945 403.129 308.125 403.129 308.244C403.009 308.543 402.77 308.782 402.412 308.543C402.113 308.364 401.934 308.125 401.874 307.766C401.755 306.213 401.038 304.899 400.56 303.406C400.082 301.793 399.067 300.479 397.454 299.941C396.14 299.463 394.766 299.284 393.332 298.985C391.54 298.627 389.928 298.866 388.255 299.523C387.06 300.001 385.806 300.479 384.492 300.419C383.715 300.359 382.998 300.598 382.282 300.837C381.505 301.076 381.087 301.614 380.908 302.45C380.669 303.585 380.908 304.541 381.565 305.496C383.954 308.901 386.821 311.888 389.569 315.054C389.928 315.412 390.346 315.89 390.943 315.353C391.242 315.054 391.54 315.352 391.779 315.591C394.169 317.563 395.722 320.251 397.514 322.7C397.633 322.879 397.693 323.118 397.753 323.297C398.051 324.731 398.709 326.045 399.485 327.299C400.68 329.271 401.576 331.421 402.77 333.392C403.786 335.065 404.981 336.737 405.697 338.589C406.414 340.68 407.848 342.173 408.744 343.965ZM485.861 339.127C487.175 338.111 488.011 337.036 488.668 335.782C489.564 333.99 490.64 332.317 492.252 331.063C493.148 330.406 494.044 329.689 495 329.032C497.33 327.419 499.6 325.806 501.213 323.476C502.706 321.326 504.319 319.176 505.752 316.965C506.887 315.233 508.022 313.381 508.44 311.291C508.859 309.499 507.843 306.751 506.409 305.795C505.752 305.317 505.274 305.377 504.976 306.034C504.259 307.348 503.602 308.722 502.885 310.036C502.646 310.514 502.586 311.111 502.168 311.47C501.989 311.589 501.87 311.828 501.631 311.709C501.392 311.589 501.392 311.35 501.452 311.171C501.69 310.156 501.989 309.2 502.467 308.304C502.885 307.527 503.244 306.751 503.602 305.974C503.841 305.496 503.841 305.018 503.303 304.72C501.631 303.824 500.317 302.39 498.823 301.255C497.33 300.12 495.657 299.583 493.865 299.583C492.252 299.583 490.64 300.001 489.087 300.299C488.37 300.419 488.071 300.837 488.131 301.554C488.25 302.868 487.952 304.122 488.071 305.437C488.19 306.751 488.25 308.065 487.952 309.439C487.474 311.53 487.056 313.68 486.936 315.83C486.757 318.817 486.518 321.804 486.219 324.791C485.741 329.271 485.204 333.81 483.531 338.052C483.412 338.29 483.173 338.649 483.531 338.888C483.949 338.828 484.129 338.529 484.248 338.231C485.204 336.26 486.458 334.408 486.936 332.198C487.713 328.554 489.027 325.029 489.146 321.266C489.146 320.37 489.564 319.594 489.863 318.817C490.042 318.399 490.042 317.682 490.64 317.802C491.237 317.921 490.879 318.638 490.879 319.056C490.879 319.355 490.759 319.653 490.64 320.012C490.341 320.908 490.102 321.864 490.042 322.879C489.863 325.687 489.266 328.375 488.489 331.063C488.37 331.6 488.011 332.138 488.37 332.974C488.668 332.317 488.788 331.839 489.027 331.481C490.759 328.375 493.089 325.687 494.881 322.58C495.12 322.162 495.538 322.043 496.016 322.102C496.553 322.162 496.732 322.58 496.434 322.999C496.075 323.476 495.598 323.895 495.299 324.372C494.044 326.284 492.79 328.255 491.416 330.107C490.759 331.003 490.042 331.899 489.624 332.974C489.385 333.571 489.146 334.229 488.728 334.647C487.952 335.423 487.533 336.379 486.757 337.096C486.219 337.514 485.98 338.171 485.861 339.127ZM403.666 301.375C404.503 303.047 404.324 304.899 404.801 306.452C405.459 308.423 406.116 310.335 406.474 312.366C407.012 314.815 407.848 317.204 408.266 319.713C408.624 321.625 409.102 323.476 409.819 325.268C410.715 327.598 411.074 330.047 411.85 332.377C412.507 334.288 413.463 336.08 414.18 337.932C414.239 334.109 413.045 330.525 412.447 326.821C412.089 324.432 411.133 322.162 410.894 319.713C410.596 316.726 410.118 313.74 409.819 310.693C409.64 309.021 409.52 307.348 409.282 305.676C409.222 305.317 409.281 304.839 409.759 304.78C410.178 304.72 410.476 305.078 410.536 305.437C410.596 305.616 410.596 305.855 410.596 306.094C410.476 307.527 410.715 308.901 410.715 310.275C410.715 311.291 411.253 312.246 411.193 313.262C411.133 316.01 411.79 318.638 412.268 321.266C412.746 323.775 413.224 326.224 413.762 328.733C413.881 329.271 413.941 329.808 414.419 330.406C414.777 328.733 414.299 327.24 414.359 325.746C414.419 323.596 414.239 321.445 413.881 319.295C413.702 318.1 413.642 316.965 413.523 315.771C413.523 315.412 413.403 314.934 413.941 314.875C414.419 314.815 414.598 315.173 414.717 315.591C414.897 316.189 415.016 316.846 415.135 317.503C415.554 320.131 415.374 322.76 415.554 325.388C415.733 328.076 416.211 330.764 415.733 333.452C415.613 334.109 415.733 334.706 415.972 335.363C416.39 334.945 416.27 334.467 416.39 334.109C417.346 330.883 418.421 327.658 419.018 324.313C419.138 323.536 419.377 322.76 419.556 321.983C419.675 321.505 420.153 321.326 420.571 321.445C421.049 321.565 420.989 322.043 420.87 322.401C420.81 322.7 420.631 322.999 420.512 323.297C420.034 324.97 419.436 326.583 419.138 328.255C418.899 329.748 418.481 331.182 418.062 332.616C417.585 334.169 416.987 335.722 417.644 337.633C418.481 335.782 419.675 334.348 420.512 332.616C421.348 330.883 421.587 329.032 422.542 327.359C423.2 326.105 423.677 324.791 423.737 323.357C423.737 322.879 423.916 322.401 424.096 321.983C424.753 320.49 425.469 319.056 426.186 317.622C427.5 314.994 427.799 312.366 426.246 309.737C425.828 309.021 425.529 308.184 425.111 307.408C424.693 306.631 424.394 305.795 423.558 305.257C423.259 305.795 423.319 306.333 423.319 306.811C423.319 307.288 423.439 307.826 422.781 307.945C422.363 306.93 422.363 306.93 422.483 305.437C422.602 303.943 422.483 303.764 421.109 303.346C419.436 302.808 417.704 302.39 415.972 301.912C413.881 301.315 411.85 301.076 409.759 301.494C408.445 301.733 407.191 301.673 405.877 301.554C405.279 301.494 404.622 301.136 403.666 301.375ZM447.81 397.726C447.093 397.129 446.018 397.666 445.839 396.83C445.6 395.874 445.003 396.113 444.525 396.292C442.972 396.77 441.299 396.711 439.746 396.651C437.894 396.591 435.983 396.472 434.131 396.173C431.921 395.815 429.77 395.516 428.098 393.784C426.186 397.248 425.231 400.892 425.111 404.655C425.051 406.507 425.35 408.419 426.545 410.031C428.874 413.257 432.339 414.213 435.983 414.691C437.655 414.87 439.328 414.81 440.941 415.288C442.315 415.706 443.748 415.646 445.122 415.527C445.66 415.467 446.197 415.467 446.496 414.87C445.899 414.571 445.242 414.691 444.704 414.332C444.226 414.034 443.688 413.854 443.868 413.138C444.107 412.361 444.704 412.54 445.182 412.719C446.317 413.018 447.452 412.958 448.527 413.018C449.483 413.078 450.319 412.779 450.797 411.823C450.319 411.644 449.961 412.003 449.542 412.122C448.049 412.48 446.675 412.361 445.301 411.764C444.764 411.525 444.405 411.166 444.704 410.509C445.003 409.912 445.421 409.972 445.958 410.211C446.138 410.33 446.317 410.45 446.556 410.45C447.87 410.748 449.124 410.748 450.438 409.972C449.901 409.613 449.483 409.673 449.065 409.673C448.587 409.673 448.109 409.673 447.631 409.613C446.854 409.553 446.197 409.135 446.078 408.419C445.899 407.702 446.854 407.821 447.213 407.523C447.273 407.463 447.272 407.463 447.332 407.343C446.914 407.045 446.556 406.567 446.556 406.029C446.556 405.014 447.511 405.85 447.87 405.432C447.631 405.073 447.034 405.073 446.974 404.536C446.914 404.177 446.496 403.938 446.854 403.52C447.153 403.222 447.511 403.162 447.87 403.341C449.722 404.118 451.275 403.222 452.888 402.326C452.23 402.027 451.812 402.445 451.394 402.565C450.319 402.863 449.184 403.222 448.049 402.923C446.974 402.684 446.854 402.505 447.153 401.43C447.272 400.952 446.974 400.713 446.974 400.354C446.795 399.339 446.317 398.204 447.81 397.726ZM487.892 344.742C488.549 344.383 488.907 344.204 489.266 343.965C490.58 343.248 491.894 342.173 493.268 341.934C495.06 341.695 496.434 340.74 497.927 340.082C499.182 339.485 500.137 338.529 501.272 337.813C503.482 336.439 505.812 335.363 508.082 334.169C512.383 331.839 516.743 329.569 520.387 326.164C520.925 325.627 521.582 325.268 522.179 324.791C522.478 324.552 522.597 324.313 522.359 323.954C522.06 323.596 521.761 323.775 521.522 324.014C521.283 324.193 521.104 324.492 520.925 324.791C520.626 325.209 520.268 325.507 519.79 325.687C519.491 325.806 519.133 325.806 518.954 325.448C518.834 325.149 518.894 324.91 519.133 324.731C519.73 324.313 520.089 323.715 520.566 323.178C521.044 322.58 521.044 322.043 520.626 321.445C519.611 319.952 518.655 318.339 517.58 316.846C516.086 314.815 514.055 314.755 512.263 316.607C510.89 318.041 509.814 319.773 507.903 320.609C506.29 321.326 505.275 322.58 504.259 323.954C503.542 324.97 502.586 325.806 501.631 326.583C500.197 327.718 498.525 328.434 497.091 329.569C496.314 330.226 495.418 330.764 494.522 331.302C492.969 332.257 491.416 333.333 490.64 335.065C489.983 336.498 489.027 337.753 488.131 339.007C487.952 339.246 487.593 339.425 487.952 339.784C488.429 339.844 488.728 339.425 489.027 339.127C491.356 337.156 493.626 335.244 495.896 333.273C496.374 332.855 496.912 332.437 497.629 332.437C497.867 332.437 498.047 332.496 498.166 332.735C498.226 332.855 498.166 333.094 498.106 333.213C497.987 333.392 497.808 333.512 497.629 333.631C495.179 335.722 492.671 337.753 490.281 339.903C489.325 340.74 488.131 341.456 487.533 342.711C488.788 341.994 490.042 341.277 490.998 340.262C492.312 338.888 493.865 337.813 495.418 336.737C495.717 336.498 496.075 336.558 496.255 336.917C496.434 337.156 496.374 337.454 496.135 337.633C495.836 337.932 495.478 338.171 495.179 338.47C494.224 339.306 493.208 340.023 492.372 340.919C491.476 341.934 490.401 342.711 489.325 343.428C488.907 343.547 488.31 343.726 487.892 344.742ZM443.39 347.908C443.688 346.713 443.868 345.518 443.808 344.324C443.569 341.576 443.688 338.828 443.629 336.08C443.629 335.543 443.748 335.125 443.987 334.706C444.047 334.527 444.226 334.348 444.465 334.348C444.764 334.348 444.943 334.587 445.003 334.886C445.062 335.065 445.003 335.304 445.003 335.543C445.003 336.857 445.003 338.231 445.003 339.545C445.122 342.412 445.361 345.339 444.883 348.206C444.883 348.386 444.883 348.505 445.062 348.565C445.361 348.505 445.48 348.266 445.54 348.027C445.958 346.355 446.496 344.682 446.556 342.95C446.556 341.217 446.974 339.545 446.735 337.813C446.675 337.454 446.735 336.976 447.213 336.917C447.691 336.857 447.989 337.156 448.228 337.574C448.288 337.753 448.348 337.992 448.348 338.171C448.348 339.186 448.348 340.202 448.288 341.217C448.228 342.173 448.169 343.129 448.109 344.025C448.766 343.308 449.244 342.591 449.662 341.815C449.961 341.337 450.319 340.799 450.916 341.098C451.633 341.456 451.215 341.994 450.976 342.472C450.916 342.591 450.737 342.711 450.737 342.89C450.319 344.204 449.244 345.22 449.124 346.713C448.945 348.684 448.646 350.655 448.049 352.567C447.989 352.746 447.87 353.045 448.169 353.224C448.646 352.746 448.646 352.149 448.766 351.611C449.423 348.863 449.841 345.996 451.334 343.487C451.812 342.711 452.35 342.532 453.246 343.009C452.947 340.62 452.469 338.529 451.215 336.678C450.677 336.857 450.558 337.156 450.379 337.394C450.199 337.633 449.961 337.932 449.602 337.693C449.303 337.514 449.244 337.156 449.303 336.857C449.363 336.439 449.423 335.961 449.662 335.602C450.379 334.527 449.542 334.049 448.945 333.452C448.407 332.914 447.93 332.317 447.034 333.034C446.556 333.452 446.078 333.213 446.078 332.556C446.078 331.6 445.48 331.421 444.704 331.302C444.107 331.182 443.569 331.122 442.972 331.003C442.494 330.943 442.076 331.003 442.076 331.6C442.076 332.795 441.777 333.93 441.956 335.125C442.374 338.171 442.733 341.217 442.733 344.264C442.733 345.518 442.792 346.773 443.39 347.908ZM439.328 394.859C441.717 394.919 444.644 394.56 447.511 393.604C448.766 393.186 449.244 392.35 449.423 391.096C449.542 390.08 449.184 389.363 448.407 388.945C447.511 388.467 446.615 388.049 445.54 388.885C443.868 390.2 442.076 391.394 440.343 392.708C439.985 393.007 439.567 393.127 439.149 392.947C438.312 392.589 437.416 392.35 436.819 391.514C436.341 390.797 435.744 390.2 435.206 389.483C435.027 389.244 434.848 388.945 434.43 389.065C433.713 389.244 432.877 389.124 432.279 389.602C431.742 390.02 431.323 390.14 430.666 390.02C429.83 389.841 429.711 390.677 429.352 391.215C429.054 391.693 429.292 392.051 429.651 392.35C430.368 392.947 431.025 393.545 431.981 393.724C434.191 394.023 436.401 394.62 439.328 394.859ZM415.733 362.184C416.031 361.826 415.852 361.587 415.673 361.348C414.658 359.795 413.941 358.122 413.224 356.45C412.627 355.076 412.029 353.702 411.133 352.507C409.401 350.237 407.549 348.087 406.295 345.459C405.638 344.085 404.801 342.83 404.025 341.516C403.248 340.262 402.352 339.127 401.098 338.29C401.337 339.425 401.397 340.62 402.173 341.456C403.726 343.129 404.622 345.1 405.697 347.012C406.235 347.967 406.773 348.983 407.37 349.939C408.505 351.79 409.998 353.463 411.014 355.434C411.85 356.987 412.866 358.361 413.702 359.855C414.18 360.81 414.717 361.766 415.733 362.184ZM480.067 327.718C479.469 329.211 479.648 330.644 479.111 331.899C478.633 333.153 478.155 334.527 478.215 335.782C478.275 337.215 477.618 338.529 477.618 339.903C477.618 341.158 476.602 342.293 476.901 343.846C478.454 342.054 478.872 340.023 479.648 338.171C479.768 337.932 479.768 337.633 479.708 337.394C479.29 335.961 479.648 334.587 480.007 333.273C480.365 332.198 480.425 331.063 480.604 329.928C480.783 329.151 480.664 328.494 480.067 327.718ZM453.007 343.786C451.454 345.757 449.961 350.596 450.558 351.79C452.947 347.43 453.485 345.518 453.007 343.786ZM480.783 351.372C484.248 349.819 487.354 347.728 490.221 345.339C486.817 346.952 483.352 348.505 480.783 351.372ZM415.195 349.7C414.956 346.175 413.582 341.815 412.567 341.098C413.582 343.965 414.06 346.892 415.195 349.7ZM482.038 330.525C481.978 331.839 481.679 333.034 481.202 334.229C480.724 335.363 480.963 336.558 481.202 337.693C482.217 335.363 482.157 332.914 482.038 330.525ZM445.958 353.463C447.093 350.715 447.332 349.759 447.272 348.445C445.839 349.7 445.301 351.551 445.958 353.463ZM478.095 345.16C479.051 343.726 480.365 342.472 480.365 340.56C479.947 342.293 478.095 343.248 478.095 345.16ZM448.049 407.642C448.945 407.881 449.901 407.941 450.857 407.761C451.394 407.642 451.932 407.523 452.41 407.403C452.649 407.343 452.768 407.104 452.708 406.865C452.649 406.627 452.35 406.626 452.171 406.686C450.857 407.224 449.483 407.284 448.049 407.642ZM411.014 364.036C412.029 364.753 412.985 365.768 414.239 366.186C413.582 364.872 412.388 364.335 411.014 364.036ZM497.091 362.782C495.896 362.005 495 361.886 493.806 362.124C494.821 363.02 495.777 362.901 497.091 362.782ZM395.782 343.428C395.722 343.487 395.662 343.607 395.602 343.667C396.379 344.443 397.215 345.279 397.992 346.056C397.633 344.742 396.558 344.204 395.782 343.428ZM449.124 399.04C450.08 399.1 450.618 399.1 451.155 398.742C451.394 398.562 451.514 398.323 451.394 398.084C451.275 397.786 450.976 397.786 450.737 397.905C450.259 398.204 449.841 398.503 449.124 399.04ZM409.461 348.565C409.281 346.952 408.863 346.295 407.908 345.936C408.445 346.832 408.863 347.549 409.461 348.565ZM411.492 337.753C411.432 337.096 411.372 336.498 410.835 335.901C410.715 336.737 411.253 337.215 411.492 337.753ZM416.211 338.589C416.27 337.992 416.45 337.335 415.852 336.558C415.912 337.394 415.554 338.052 416.211 338.589ZM416.031 357.585C416.091 357.824 416.151 358.122 416.509 358.182C416.689 358.182 416.808 358.063 416.808 357.883C416.808 357.585 416.808 357.226 416.39 357.226C416.211 357.167 416.091 357.286 416.031 357.585ZM485.861 341.875C485.264 342.173 484.965 342.472 484.905 343.069C485.502 342.83 485.682 342.532 485.861 341.875Z" fill="#10100F"/>
<path d="M442.793 277.242C444.286 276.824 445.72 277.839 446.914 278.974C448.408 280.408 450.08 280.946 452.051 280.647C453.963 280.408 455.635 281.244 457.308 281.961C458.503 282.499 459.04 283.813 459.219 285.187C459.339 286.142 458.981 286.799 458.144 287.337C455.934 288.771 453.485 289.547 450.916 289.846C450.02 289.965 449.423 290.264 448.766 291.041C447.213 293.012 444.943 293.848 442.494 293.49C441 293.251 439.388 293.37 437.954 292.594C437.655 292.415 437.177 292.355 436.998 292.056C436.162 291.041 435.087 291.041 433.892 291.1C431.264 291.22 429.054 290.204 427.082 288.651C425.888 287.696 425.768 287.218 426.425 285.903C426.963 284.769 427.859 283.873 428.994 283.335C430.428 282.678 431.861 281.842 433.593 282.021C434.191 282.08 434.609 281.782 434.848 281.184C435.087 280.707 435.385 280.288 435.684 279.811C436.939 277.72 438.79 277.003 441.18 277.302C441.598 277.242 442.016 277.242 442.793 277.242ZM448.467 286.501C448.766 284.948 448.408 283.693 447.75 282.558C447.034 281.244 445.6 280.647 444.585 279.631C444.465 279.512 444.166 279.512 443.987 279.512C443.151 279.691 442.255 279.452 441.419 279.512C440.045 279.631 438.551 279.811 437.536 280.826C435.624 282.917 434.728 285.246 436.102 288.054C436.52 288.95 437.058 289.368 438.074 289.368C441 289.488 443.868 289.368 446.675 288.412C448.228 287.994 448.348 287.994 448.467 286.501ZM450.319 287.755C452.529 287.397 454.56 287.098 456.412 285.963C457.427 285.306 457.607 284.47 456.531 283.873C454.68 282.917 452.768 282.319 450.677 282.977C450.319 283.096 450.08 283.275 450.2 283.693C450.379 285.007 450.438 286.381 450.319 287.755ZM434.31 288.95C433.952 287.516 433.355 286.202 433.355 284.709C433.355 284.231 432.877 284.291 432.638 284.35C431.144 284.47 429.83 284.948 428.695 285.963C428.158 286.441 428.277 286.799 428.755 287.277C429.293 287.815 430.129 287.875 430.726 288.353C431.742 289.189 432.936 289.249 434.31 288.95Z" fill="#10100F"/>
<path d="M428.635 403.46C428.994 405.91 428.695 408.598 431.264 410.21C432.04 410.688 432.817 410.987 433.653 410.868C433.892 410.868 434.131 410.688 434.429 410.808C434.967 410.987 435.445 411.286 435.325 411.943C435.266 412.6 434.788 412.779 434.191 412.839C430.666 412.958 427.978 410.808 427.261 407.343C427.082 406.507 426.963 405.671 426.903 404.775C426.783 403.938 427.082 403.162 427.381 402.445C427.56 402.087 427.799 401.609 428.337 401.788C428.755 401.967 428.695 402.385 428.695 402.744C428.635 403.042 428.635 403.222 428.635 403.46Z" fill="#10100F"/>
<path d="M446.078 284.171C445.959 285.545 445.6 285.963 444.525 285.844C443.33 285.724 442.375 284.828 442.494 283.813C442.673 282.26 443.33 282.14 444.883 282.14C445.779 282.2 446.198 282.917 446.078 284.171Z" fill="#10100F"/>
<path d="M131 417.516C131.759 418.464 132.897 418.701 134.083 418.701C138.446 418.749 142.81 418.939 147.221 418.085C150.541 417.468 154.003 417.753 157.418 417.895C165.955 418.275 174.492 418.275 183.029 417.516C187.488 417.136 191.993 417.468 196.499 417.943C197.258 418.037 198.017 418.085 198.823 418.085C199.535 418.085 200.578 418.464 200.72 417.326C200.863 416.188 200.151 415.239 199.06 415.049C197.448 414.812 195.788 414.765 194.128 414.575C186.444 413.816 178.808 414.812 171.125 415.097C164.864 415.334 158.651 414.955 152.39 414.955C149.64 414.955 146.936 414.86 144.233 415.713C140.296 416.994 136.265 417.089 132.186 416.567C131.664 416.567 131.237 416.615 131 417.516Z" fill="#10100F"/>
<path d="M280.306 417.99C279.974 420.124 269.397 417.611 259.342 418.037C257.54 417.611 253.272 418.654 252.987 418.654C252.702 418.654 252.276 419.033 252.228 417.8C252.181 416.52 252.465 415.476 252.892 415.334C253.556 415.097 261.05 415.097 264.133 415.381C266.647 415.619 271.247 416.14 272.86 416.52C274.472 416.947 277.223 417.848 278.883 417.279C279.073 417.231 280.211 417.041 280.306 417.99Z" fill="#10100F"/>
</svg>
