<svg width="664" height="460" viewBox="0 0 664 460" fill="none" xmlns="http://www.w3.org/2000/svg">
<path d="M137.844 388.152C137.844 388.152 57.7251 308.97 64.2851 222.352C68.0509 172.629 92.3963 128.587 96.1445 113.125C113.196 74.2858 129.35 51.748 135.032 51.748C140.654 51.748 189.382 84.5451 199.689 219.013C204.843 353.012 137.844 388.152 137.844 388.152Z" fill="#E9EDD8"/>
<path d="M67.2832 187.494C70.6566 171.189 76.3727 155.634 83.4006 140.547C86.5866 133.613 90.9908 127.335 93.3334 120.026C96.7068 109.812 100.736 99.8788 105.703 90.3208C112.262 77.6706 118.072 64.6455 126.505 53.0259C128.192 50.6833 129.316 46.2791 133.814 49.5588C134.002 49.7462 134.845 49.2777 135.314 48.9029C137.75 46.9351 139.156 48.5281 140.467 50.4022C143.841 55.2749 147.87 59.4916 152.181 63.4273C159.49 70.2678 163.988 78.8887 168.485 87.416C173.546 96.8802 177.294 106.813 180.386 117.214C184.322 130.427 190.413 142.984 193.318 156.571C195.473 166.878 198.097 177.092 199.221 187.587C200.439 198.738 201.095 209.983 201.845 221.134C202.032 223.196 202.032 225.257 201.938 227.319C201.376 241.749 200.908 256.18 200.158 270.611C199.689 279.419 198.752 288.134 196.035 296.567C188.913 318.963 180.386 340.703 166.705 360.006C159.771 369.752 152.93 379.591 143.372 387.181C142.435 387.93 141.873 388.961 140.655 389.242C138.593 389.805 136.719 388.68 137.281 386.712C137.469 385.963 140.374 383.714 141.311 382.777C143.372 380.528 147.777 376.686 148.526 371.813C149.932 362.442 149.932 351.104 149.651 350.073C149.088 349.886 148.714 349.698 148.432 349.698C144.872 350.167 135.782 350.167 134.47 350.073C132.409 349.98 132.409 351.479 132.502 352.884C132.502 358.413 133.252 371.719 133.065 373.968C133.065 373.968 132.877 378.185 133.533 379.778C134.189 381.465 139.624 389.711 136.813 390.367C134.002 391.023 128.661 384.932 128.473 382.027C128.379 379.122 126.786 377.435 125.193 375.374C118.072 366.284 110.575 357.57 104.391 347.824C93.7082 331.051 84.8062 313.247 74.4048 296.192C72.6244 293.194 71.1252 289.914 70.5629 286.447C67.1895 268.456 64.0972 250.37 64.0972 231.91C64.0972 216.917 64.2846 202.112 67.2832 187.494ZM112.168 85.9167C118.54 81.7936 126.505 67.1755 127.068 57.8049C121.164 66.5196 117.041 76.0776 112.168 85.9167ZM155.835 74.2034C154.242 71.7671 152.462 69.5182 149.744 68.1126C151.993 74.1097 154.898 78.2328 158.927 81.7936C159.209 79.451 159.302 79.3573 155.835 74.2034ZM154.149 368.44C159.021 364.317 161.645 359.444 165.112 355.415C170.172 349.511 172.609 342.202 176.263 335.643C181.417 326.459 185.353 316.714 189.194 306.969C190.6 303.314 190.131 300.784 187.32 297.785C180.199 290.195 171.484 285.323 161.739 282.324C160.52 281.949 159.209 281.2 157.709 282.23C157.709 282.699 157.616 283.449 157.897 283.823C167.361 297.223 169.235 312.497 169.235 328.334C169.235 341.64 161.739 344.732 157.522 349.324C153.305 353.822 154.149 362.349 154.149 368.44ZM133.158 339.953C133.158 340.515 129.785 342.296 129.879 342.858C130.16 344.545 134.47 345.482 136.438 345.388C138.5 345.294 142.248 345.388 144.497 345.294C150.775 344.919 155.086 343.42 160.239 339.953C162.02 338.735 163.613 336.111 163.894 334.143C166.237 316.433 163.144 299.847 153.118 284.948C150.213 280.637 149.932 276.983 152.837 272.766C159.677 262.927 158.74 253.182 152.93 243.155C148.432 235.471 141.686 232.847 133.346 232.754C128.754 232.66 125.756 235.003 123.226 238.563C119.852 243.342 119.852 248.777 119.29 254.212C117.884 266.019 122.101 276.327 126.88 286.635C127.349 287.665 128.473 287.665 129.223 288.227C130.535 289.071 133.252 289.446 132.128 291.695C131.003 293.944 129.035 291.976 127.442 291.695C125.381 291.226 123.319 290.289 121.164 290.383C120.414 290.383 119.571 290.476 119.384 291.507C119.29 292.538 120.133 292.819 120.883 292.913C123.038 293.1 125.193 293.381 127.068 294.412C127.817 294.787 128.286 295.443 128.286 296.286C128.192 297.504 127.255 297.785 126.224 297.879C123.226 298.16 120.414 297.036 117.603 296.192C116.198 295.818 115.261 295.911 114.886 297.317C114.417 299.004 115.729 299.285 116.854 299.566C119.29 300.128 121.82 300.503 124.35 301.065C125.849 301.346 127.911 301.534 127.63 303.595C127.161 306.219 125.006 305.001 123.413 304.907C120.227 304.626 117.041 303.127 113.574 304.345C116.01 306.688 119.196 306.313 122.101 307.156C123.882 307.718 126.88 307.156 126.412 309.874C125.943 313.06 123.038 311.373 121.164 311.185C119.196 310.998 117.322 310.342 115.448 309.967C112.168 309.405 111.981 309.686 111.512 313.06C111.138 315.59 111.981 316.714 114.605 316.62C118.54 316.433 122.382 316.995 126.224 318.026C127.349 318.307 128.661 318.776 128.379 320.275C128.098 321.774 126.693 321.68 125.568 321.587C121.82 321.399 118.165 321.118 114.417 320.931C113.48 320.931 112.356 320.931 112.356 322.336C112.356 323.555 112.731 324.679 114.324 324.773C116.666 324.866 119.009 324.866 121.351 324.96C122.57 324.96 123.694 324.96 124.912 324.96C126.318 325.054 127.817 325.241 127.817 327.022C127.817 328.521 126.412 328.708 125.287 328.896C123.507 329.083 121.82 329.083 120.04 329.177C118.54 329.271 116.947 328.896 115.542 329.552C115.635 330.957 116.385 331.52 117.416 331.613C119.384 331.801 121.258 331.988 123.226 331.988C125.475 331.988 128.661 331.145 128.661 334.518C128.661 337.61 125.193 335.83 123.038 337.048C125.381 337.892 127.349 337.423 129.223 337.142C131.565 336.767 133.065 337.329 133.158 339.953ZM74.3111 283.261C75.2482 286.635 75.7167 290.195 77.6845 293.194C82.5572 300.784 86.8677 308.562 90.3348 316.901C93.6145 324.866 99.2369 331.52 103.454 339.016C110.294 351.198 119.009 362.161 128.661 373.5C129.785 362.63 128.286 353.259 122.57 344.638C121.82 343.514 120.789 342.483 119.665 341.827C108.514 334.706 105.703 323.929 107.108 311.841C108.139 303.408 109.638 294.787 115.542 287.103C107.577 283.542 100.174 281.387 92.5838 279.607C87.1488 278.295 81.7139 279.794 76.279 279.981C74.2174 280.075 73.8426 281.387 74.3111 283.261ZM72.0622 270.986C72.9993 275.952 73.093 275.952 78.0594 275.577C88.5544 274.734 98.6747 276.046 108.514 279.981C111.044 281.012 113.761 281.481 116.479 281.949C118.447 282.324 119.665 281.481 118.821 279.325C117.135 275.109 116.104 270.705 115.635 266.3C114.605 256.086 114.605 245.966 120.227 236.783C124.069 230.505 132.971 227.319 140.186 229.287C147.683 231.348 153.211 235.19 156.96 242.499C160.146 248.871 162.207 254.868 161.551 261.99C161.083 267.331 159.209 271.735 155.273 276.139C169.704 278.951 181.885 285.041 192.099 295.818C194.817 288.977 195.285 282.98 195.848 277.077C196.785 266.769 197.815 256.461 198.096 246.06C198.471 234.159 198.471 222.165 198.003 210.264C197.253 193.866 194.629 177.655 191.069 161.537C188.632 150.667 185.259 140.079 180.948 129.771C178.606 124.149 176.732 118.433 175.139 112.529C173.077 104.564 169.048 97.3488 165.206 90.0397C164.456 88.6341 163.8 87.9782 162.113 89.1027C160.614 90.1334 159.771 88.4467 158.834 87.5097C154.711 83.0118 151.15 78.2328 147.87 73.079C144.778 68.1126 140.561 64.1769 136.157 59.8665C136.157 64.8329 135.97 69.7993 136.251 74.7657C136.625 81.2314 136.813 87.6034 136.719 94.0691C136.625 98.6607 136.813 99.2229 141.311 99.9725C145.246 100.628 148.245 102.409 150.869 105.126C152.087 106.438 153.399 107.844 153.399 109.624C153.399 113.091 155.367 115.434 157.897 117.402C158.365 117.777 158.834 118.151 159.209 118.526C165.018 124.523 165.112 124.617 159.958 131.645C159.115 132.863 158.553 133.707 159.302 135.3C161.926 140.735 161.926 140.735 158.178 146.263C159.209 147.669 160.708 148.231 162.395 148.793C170.734 151.604 171.671 154.041 167.267 161.537C167.642 162.662 168.767 162.474 169.61 162.849C175.795 165.379 177.013 168.94 173.733 174.843C173.546 175.218 173.264 175.499 173.077 175.874C172.421 177.467 170.172 178.498 170.547 180.278C170.922 181.59 172.421 182.621 173.452 183.746C176.544 187.213 175.982 190.867 173.733 194.428C175.232 196.396 177.388 196.958 179.074 198.176C182.635 200.613 183.104 205.204 180.199 208.39C179.449 209.234 177.762 209.702 177.575 210.545C176.638 216.074 173.171 215.043 169.423 214.2C159.49 211.951 149.651 212.045 139.811 214.575C133.814 216.074 127.723 214.856 121.726 214.575C112.824 214.106 103.922 212.794 94.9264 211.857C93.146 211.67 91.4593 211.201 89.7726 210.827C88.5544 210.545 87.3363 210.171 87.1489 208.859C86.8677 207.359 87.6174 206.048 88.8355 205.392C91.1782 204.08 93.6145 202.955 96.4257 202.393C101.298 201.456 106.171 201.643 111.044 201.269C126.037 200.238 140.655 202.58 154.992 206.891C161.739 208.952 168.485 208.296 175.139 206.422C178.043 205.579 178.325 203.892 176.076 201.831C172.515 198.645 168.017 197.801 163.519 197.989C149.651 198.551 135.782 197.239 121.914 197.708C114.605 197.895 107.014 197.801 100.08 194.428C99.518 194.147 98.9558 194.053 98.4872 193.772C96.5194 192.741 94.4579 191.523 94.9264 188.993C95.4887 186.088 97.925 185.807 100.455 185.901C108.233 186.276 115.823 188.337 123.694 188.337C131.847 188.337 139.999 189.93 148.245 189.555C153.399 189.274 158.272 191.148 163.144 192.46C165.674 193.116 167.736 192.741 169.704 191.148C171.297 189.93 171.484 188.431 169.891 187.306C166.611 184.87 163.519 182.808 158.834 182.715C148.995 182.527 139.343 184.027 129.598 184.12C121.258 184.214 112.824 183.09 104.766 180.747C101.954 179.904 98.862 180.278 96.2383 178.873C95.0201 178.217 93.5209 177.936 93.2397 176.343C92.9586 174.656 94.4579 174 95.4886 173.25C102.329 168.378 110.013 168.846 117.509 170.346C123.413 171.564 129.223 172.595 135.314 172.969C142.81 173.344 150.494 173.906 157.709 176.811C162.02 178.498 166.049 178.311 169.048 174C171.484 170.627 171.39 168.659 167.455 167.441C161.364 165.473 155.179 163.599 148.526 165.004C133.158 168.19 117.884 167.066 102.517 164.723C100.361 164.348 97.5502 164.536 96.8942 161.444C96.5194 159.663 99.4243 157.414 102.798 156.665C105.89 156.009 109.076 156.009 112.168 156.383C116.854 156.946 121.539 156.852 126.224 156.758C132.596 156.571 138.687 157.695 144.778 159.007C150.025 160.132 155.273 160.038 160.52 159.288C161.27 159.195 162.02 158.913 162.769 158.632C163.8 158.07 164.737 157.32 164.644 155.915C164.55 154.79 163.613 154.228 162.769 153.853C159.302 152.354 155.648 151.792 151.9 151.792C146.652 151.792 141.311 151.792 136.063 152.635C126.037 154.228 116.198 152.26 106.265 151.979C105.89 151.979 105.515 151.886 105.14 151.792C103.547 151.511 102.048 150.761 101.861 148.981C101.673 147.2 103.173 146.076 104.578 145.607C109.732 143.827 114.979 142.14 120.602 144.014C125.662 145.701 130.816 146.544 136.063 147.013C139.156 147.294 142.342 147.388 145.434 147.2C148.432 147.013 151.15 145.795 153.493 144.108C154.992 142.984 155.835 141.484 155.273 139.516C154.711 137.549 153.118 136.986 151.15 136.893C146.839 136.705 142.623 137.923 138.406 138.673C129.691 140.266 121.726 138.673 114.417 133.707C113.293 132.957 111.793 132.488 111.793 130.895C111.793 128.834 113.668 128.553 115.073 128.084C117.416 127.147 119.946 126.866 122.57 127.147C128.192 127.709 133.814 128.272 139.53 128.365C142.997 128.459 146.371 129.771 149.744 130.895C152.181 131.739 154.336 131.458 156.304 129.771C159.583 127.054 159.583 125.835 156.21 122.93C154.898 121.806 153.493 120.682 152.087 119.557C150.962 118.714 149.744 118.151 148.339 118.901C141.405 122.462 134.189 120.494 127.068 120.026C125.1 119.932 123.319 119.089 121.258 119.463C119.009 119.838 117.416 118.807 117.041 116.465C116.666 114.31 118.353 111.592 120.602 111.03C124.256 110.186 128.005 110.561 131.565 111.686C136.907 113.372 142.435 111.405 147.87 112.623C149.182 112.904 149.651 111.498 149.088 110.093C147.589 106.813 142.81 104.377 139.343 105.033C138.5 105.22 137.844 105.595 137.563 106.345C136.438 109.999 133.908 109.624 131.003 108.781C129.879 108.5 128.661 108.593 127.536 108.593C125.381 108.687 123.507 108.031 123.038 105.782C122.57 103.44 123.788 101.566 125.662 100.254C126.224 99.7851 127.067 99.6914 127.817 99.504C133.627 98.0984 133.627 98.0984 133.908 91.9138C134.283 83.4803 133.627 75.1405 132.877 66.707C132.784 65.3014 132.971 63.521 131.284 62.3965C129.504 63.0525 128.661 64.5517 128.192 66.3322C126.037 75.1405 120.133 81.7936 115.354 89.1964C114.23 90.9768 112.824 92.6635 111.512 94.3502C110.95 95.0998 110.107 96.4117 109.545 96.318C104.391 95.8495 104.391 100.066 103.173 103.065C99.518 112.154 96.1446 121.244 92.49 130.333C91.3656 133.051 89.8663 135.581 88.5544 138.205C82.4636 149.824 77.9657 162.006 74.4048 174.656C69.0636 193.116 68.2203 211.857 68.0329 230.88C68.4077 244.467 69.5321 257.773 72.0622 270.986ZM145.153 209.702C129.129 204.267 112.824 205.11 95.9572 206.516C99.9865 210.733 133.346 212.888 145.153 209.702ZM132.596 193.304C122.57 192.366 112.637 191.429 102.61 190.399C105.796 194.334 121.539 196.208 132.596 193.304ZM143.279 178.311C140.186 177.842 137.563 176.999 134.939 177.186C129.598 177.561 124.537 176.343 119.477 174.843C113.386 173.157 107.389 172.126 101.392 175.593C107.577 180.466 134.658 182.34 143.279 178.311ZM137.656 162.006C127.161 159.663 116.479 161.256 104.953 159.663C109.732 163.599 118.447 164.161 137.656 162.006ZM122.195 148.793C118.634 147.013 114.886 146.076 110.2 147.95C114.605 150.199 118.447 149.074 122.195 148.793ZM141.779 133.238C134.189 131.739 126.599 130.708 118.915 131.364C126.224 135.956 133.908 136.518 141.779 133.238Z" fill="#10100F"/>
<path d="M144 256.5C145.942 256.338 146.865 258.183 147.682 260.092C148.5 262 148.083 266.099 147.566 267.091C147.05 268.082 145.676 270.369 143.131 269.938C140.484 269.506 140.315 267.368 140.759 265.239C141.091 263.692 141.056 261.143 141.137 260.606C141.219 260.069 141.649 256.655 144 256.5Z" fill="#10100F"/>
<path d="M128.043 262.537C127.821 263.896 128.501 266.221 128.954 267.081C129.521 268.323 130.54 269.088 132.126 268.992C133.712 268.896 134.505 268.037 134.959 266.794C135.978 264.119 136.054 259.206 135.978 258.578C135.902 257.949 135.752 256.667 134.505 256.189C133.033 255.712 131.786 256.189 130.767 257.049C128.274 259.056 128.266 261.179 128.043 262.537Z" fill="#10100F"/>
<path d="M138.406 250.277C138.593 251.87 138.874 253.275 140.655 253.088C142.248 252.994 142.81 251.682 142.904 250.277C142.997 248.871 142.154 248.121 140.936 248.028C139.249 247.84 138.5 248.777 138.406 250.277Z" fill="#10BAAD"/>
</svg>
