<svg width="270" height="252" viewBox="0 0 270 252" fill="none" xmlns="http://www.w3.org/2000/svg">
<path d="M259.425 82.5478C252.6 66.4739 242.925 51.9773 230.475 39.5839C218.1 27.1905 203.625 17.4259 187.575 10.5908C170.925 3.60537 153.225 0 135 0C116.775 0 99.075 3.60537 82.425 10.5908C66.375 17.4259 51.9 27.1153 39.525 39.5839C27.15 52.0525 17.4 66.4739 10.575 82.5478C3.6 99.2226 0 116.949 0 135.201C0 178.991 35.55 214.594 79.275 214.594C82.05 214.594 84.3 212.341 84.3 209.562C84.3 206.783 82.05 204.529 79.275 204.529C41.1 204.529 9.975 173.433 9.975 135.126C9.975 101.701 22.95 70.2295 46.575 46.6444C70.2 23.0593 101.625 10.065 135 10.065C168.375 10.065 199.8 23.0593 223.35 46.7195C246.975 70.3797 259.95 101.776 259.95 135.201C259.95 159.613 254.4 180.343 243.525 196.868C234.825 210.013 222.675 220.603 207.375 228.34C180.9 241.71 153.9 241.935 153.6 241.935C135.9 241.935 121.5 227.514 121.5 209.787V209.261L121.425 209.036V177.414H153.525C176.775 177.414 195.675 158.486 195.675 135.201C195.675 101.701 168.45 74.3607 134.925 74.3607C101.4 74.3607 74.175 101.626 74.175 135.201C74.175 137.98 76.425 140.234 79.2 140.234C81.975 140.234 84.225 137.98 84.225 135.201C84.225 107.184 106.95 84.4256 134.925 84.4256C162.9 84.4256 185.625 107.184 185.625 135.201C185.625 152.928 171.225 167.349 153.525 167.349H121.425V135.201C121.425 127.69 127.5 121.606 135 121.606C142.5 121.606 148.575 127.69 148.575 135.201C148.575 137.98 150.825 140.234 153.6 140.234C156.375 140.234 158.625 137.98 158.625 135.201C158.625 122.207 148.05 111.616 135.075 111.616C122.025 111.616 111.45 122.207 111.45 135.201V167.349H79.35C61.65 167.349 47.25 152.928 47.25 135.201C47.25 111.691 56.4 89.6083 72.975 73.0086C89.55 56.4089 111.6 47.2453 135.075 47.2453C158.55 47.2453 180.6 56.4089 197.175 73.0086C213.75 89.6083 222.9 111.691 222.9 135.201C222.9 163.969 211.425 184.324 188.85 195.741C171.525 204.454 153.825 204.604 153.675 204.604C150.9 204.604 148.65 206.858 148.65 209.637C148.65 212.416 150.9 214.669 153.675 214.669C155.55 214.669 189.075 214.294 212.175 191.31C225.975 177.564 232.95 158.711 232.95 135.276C232.95 109.062 222.75 84.5007 204.3 65.9481C185.85 47.4706 161.25 37.2554 135.075 37.2554C108.9 37.2554 84.375 47.4706 65.85 65.9481C47.325 84.4256 37.125 108.987 37.125 135.201C37.125 158.486 56.025 177.414 79.275 177.414H111.375V210.088L111.45 210.313C111.75 233.372 130.5 252 153.6 252C154.875 252 183 251.85 211.575 237.503C228.525 229.016 242.1 217.298 251.775 202.652C263.85 184.399 270 161.716 270 135.276C270 116.949 266.4 99.2226 259.425 82.5478Z" fill="#10100F"/>
</svg>
