<svg width="270" height="252" viewBox="0 0 270 252" fill="none" xmlns="http://www.w3.org/2000/svg">
<g clip-path="url(#clip0)">
<path d="M10.575 169.452C17.4 185.526 27.075 200.023 39.525 212.416C51.9 224.81 66.375 234.574 82.425 241.409C99.075 248.395 116.775 252 135 252C153.225 252 170.925 248.395 187.575 241.409C203.625 234.574 218.1 224.885 230.475 212.416C242.85 199.948 252.6 185.526 259.425 169.452C266.4 152.777 270 135.051 270 116.799C270 73.0087 234.45 37.4057 190.725 37.4057C187.95 37.4057 185.7 39.659 185.7 42.4382C185.7 45.2173 187.95 47.4707 190.725 47.4707C228.9 47.4707 260.025 78.5669 260.025 116.874C260.025 150.299 247.05 181.771 223.425 205.356C199.8 228.941 168.375 241.935 135 241.935C101.625 241.935 70.2 228.941 46.65 205.28C23.025 181.62 10.05 150.224 10.05 116.799C10.05 92.3875 15.6 71.6566 26.475 55.132C35.175 41.9875 47.325 31.3967 62.625 23.6602C89.1 10.2903 116.1 10.065 116.4 10.065C134.1 10.065 148.5 24.4865 148.5 42.2128L148.5 42.7386L148.575 42.964L148.575 74.586L116.475 74.586C93.225 74.586 74.325 93.5142 74.325 116.799C74.325 150.299 101.55 177.639 135.075 177.639C168.6 177.639 195.825 150.374 195.825 116.799C195.825 114.02 193.575 111.766 190.8 111.766C188.025 111.766 185.775 114.02 185.775 116.799C185.775 144.816 163.05 167.574 135.075 167.574C107.1 167.574 84.375 144.816 84.375 116.799C84.375 99.0724 98.775 84.651 116.475 84.651L148.575 84.651L148.575 116.799C148.575 124.31 142.5 130.394 135 130.394C127.5 130.394 121.425 124.31 121.425 116.799C121.425 114.02 119.175 111.766 116.4 111.766C113.625 111.766 111.375 114.02 111.375 116.799C111.375 129.793 121.95 140.384 134.925 140.384C147.975 140.384 158.55 129.793 158.55 116.799L158.55 84.651L190.65 84.651C208.35 84.651 222.75 99.0724 222.75 116.799C222.75 140.309 213.6 162.392 197.025 178.991C180.45 195.591 158.4 204.755 134.925 204.755C111.45 204.755 89.4 195.591 72.825 178.991C56.25 162.392 47.1 140.309 47.1 116.799C47.1 88.031 58.575 67.6757 81.15 56.2587C98.475 47.5458 116.175 47.3955 116.325 47.3955C119.1 47.3955 121.35 45.1422 121.35 42.363C121.35 39.5839 119.1 37.3306 116.325 37.3306C114.45 37.3306 80.925 37.7061 57.825 60.6903C44.025 74.4358 37.05 93.2888 37.05 116.724C37.05 142.938 47.25 167.499 65.7 186.052C84.15 204.529 108.75 214.745 134.925 214.745C161.1 214.745 185.625 204.529 204.15 186.052C222.675 167.574 232.875 143.013 232.875 116.799C232.875 93.5142 213.975 74.586 190.725 74.586L158.625 74.586L158.625 41.9124L158.55 41.687C158.25 18.6277 139.5 1.91089e-05 116.4 1.70894e-05C115.125 1.6978e-05 87 0.150222 58.425 14.4966C41.475 22.9842 27.9 34.7017 18.225 49.3484C6.15001 67.6006 1.41376e-05 90.2843 1.18262e-05 116.724C1.0224e-05 135.051 3.60001 152.777 10.575 169.452Z" fill="#10100F"/>
</g>
<defs>
<clipPath id="clip0">
<rect width="270" height="252" fill="white"/>
</clipPath>
</defs>
</svg>
