<svg xmlns="http://www.w3.org/2000/svg" viewBox="0 0 650.66 466.07">
    <defs><style>.a{fill:#24baad;}</style></defs>
    <path d="M463,163.33c.78-15.64,3.79-31,6.7-46.27,2.71-14.24,7.82-27.26,19.12-37.28,10.69-9.47,19.85-6.2,26.2,3.7,7.72,12,13.13,24.91,15.08,39.4a466.48,466.48,0,0,1,4.14,66c-.11,14.65-.29,29.58-3.11,43.86-3.24,16.38-7.08,32.93-15.08,48-4.23,8-7.15,16.52-11.53,24.46a160.11,160.11,0,0,1-33.71,41.64c-3.38,3-4.17,5.8-3.82,9.71a236.15,236.15,0,0,0,5.66,34.3,55.52,55.52,0,0,0,11.63,22.48c4.74,5.79,11.62,6.26,18.1,6.25,14.21,0,25.32-7,34.63-17.26,2.28-2.52,2.53-5.32,2.07-8.58-3-21.42-5.06-42.91-5-64.57,0-14.25.61-28.48,1.34-42.71,1.09-21.34,1.54-42.72,2.78-64.05,1-17.33,1-34.65.55-52-.67-24.43.07-48.85.67-73.26.32-13.08-.65-26.1-.58-39.15.08-13.93,3.13-27.29,7.35-40.45a23.08,23.08,0,0,1,4.76-7.88c3.74-4.36,7.35-4.57,12.42-2.08,6.39,3.14,10.07,8.59,13.33,14.3a123.66,123.66,0,0,1,14.58,38.24c3,15.65,5.46,31.34,7.18,47.12,1.53,14.13,1.57,28.43,2.35,42.65.94,17.34-.58,34.64-.67,51.95-.1,17.84-2,35.45-3.79,53.15a368,368,0,0,1-10.76,58.66c-3.17,11.67-6.14,23.43-10,34.86-4.61,13.49-10.68,26.39-20.4,37.13-3.19,3.53-4.93,8.06-8.5,11.33-1.48,1.36-1.88,3.48-1.48,5.9a153.22,153.22,0,0,0,17.65,50.73c2.44,4.34,4.3,9.45,11.09,7.15a2,2,0,0,1,2.71,1.6c.15,1-.75,1.56-1.63,2-5.43,3-10,1.9-13.17-3.41-9.66-16-16-33.28-20-51.46-.2-.88-.07-1.9-1.37-2.72a32.91,32.91,0,0,0-6.95,5.42c-12.72,11.89-27.71,14.61-44.18,10.44-4.55-1.16-7.55-4.71-10.38-8.32-6.94-8.83-10.31-19.1-12.61-29.9a160.09,160.09,0,0,1-2.95-20.43c-.23-2.79-.08-5.72-1.89-8.37-5.63,3.44-11.32,6.75-16.83,10.34-11.45,7.45-24.14,10.77-37.6,11.57-5.64.33-9.43-3.26-12.56-7.09-8.21-10-14.6-21-15.52-34.42a27.08,27.08,0,0,0-.38-2.83c-1-5.64-1.14-5.43-6.71-6-10.65-1.06-20.63-3.44-29.4-10.69-5.11-4.22-9.65-9-14.86-13.13a22,22,0,0,1-6.73-9.91c-.8-2.18-.95-4.66-2.63-6.58-2.19-.44-3.45,1.26-5,2.24a32.69,32.69,0,0,1-22.58,4.54c-6.51-.93-13.21-3.89-17.33-10.12-1.57-2.38-3.52-4.54-4.83-7.05-1.55-3-3.65-3.61-6.41-2.21-6.8,3.44-13.81,4.75-21.95,1.56a175.64,175.64,0,0,1,.76,20c-.07,9.27-.36,18.48-3.06,27.47-2.94,9.78-7.8,18.24-15.95,24.67-4,3.16-3.91,3.29-1.46,7.93.33.63.75,1.22,1.07,1.85a2.08,2.08,0,0,1-.32,2.6,1.9,1.9,0,0,1-2.57.31,36.26,36.26,0,0,1-4.46-3.51c-2-2-3.86-1.16-5.82-.09-2.33,1.29-1.58,3.18-.87,4.95,1.06,2.63,4.88,16.87,5.67,19.91,4.48,17.36,10.85,33.87,22.17,48.1,3.4,4.27,6.66,8.64,9.87,13,2.17,3,4.55,2.86,7.34,1,3.46-2.28,5.54-5.81,8.19-8.82,1.45-1.66,3-3.65,5.29-1.85,2.49,1.95,1.46,4.33-.39,6.14-3.57,3.48-7.18,6.93-11,10.14-4.38,3.69-6.86,3.69-11.19-.11a71.16,71.16,0,0,1-10.25-11.79,138.87,138.87,0,0,1-8.17-11.67,171,171,0,0,1-14.35-30.82c-3.62-10.55-5.42-21.58-9.16-32.12-2-5.54-5.89-4.51-9.5-5.26s-5.23,1.19-7,4.4c-8.44,15.62-15.65,32-26.34,46.31-3.53,4.73-6.65,9.74-10.63,14.17-2.52,2.8-4.26,6.28-6.52,9.32s-1.15,4.43,2,5.61c4,1.49,7.35,4.35,11.53,5.51a5.11,5.11,0,0,1,2.36,1.51,3.3,3.3,0,0,1,.55,4,2.72,2.72,0,0,1-3.11,1.18,25.88,25.88,0,0,1-4-1.43c-5.45-2.27-10.18-5.94-16-7.57-3.6-1-4.16-3.3-2.08-6.68,2.85-4.64,5.35-9.51,8.92-13.71a210.54,210.54,0,0,0,30.6-47.69c2.3-4.95,4.93-9.75,7.62-14.51,1.26-2.23,1.44-3.61-1-5.23-9.56-6.29-15.16-15.39-17.91-26.36-.35-1.37-.28-3.12-1.9-3.49s-2.24,1.36-3.11,2.45c-5.2,6.5-12.24,11.14-17.64,17.45-1,1.18-2.47,1.74-3.77.8s-1-2.66-.22-3.87c2.39-3.9,6.33-6.37,9.32-9.74,1.57-1.76,3.45-3.26,5.14-4.92,1-1,5.37-7.34,8.68-9,2.35-1.16,1.13-5.59,1-8.23-.53-15.51,2.48-30.71,4.16-46,1.15-10.45,4.09-20.46,7.61-30.35a264.36,264.36,0,0,1,16.81-37.57c1.18-2.19,2.05-5.85,5.21-4.48,3.46,1.51.57,4.51,0,6.83a18.83,18.83,0,0,1-1.22,3.08c.45.61.63,1.12,1,1.28,1.52.72,4.36-.48,4.3,2.43-.05,2.34-2.56,2.35-4.17,3.23s-3.91-.62-5.2,1.49c.47,2.85,3.06,1.41,4.54,2.19,1.08.57,2.17,1.08,2.1,2.51a2.66,2.66,0,0,1-2.22,2.46,20.43,20.43,0,0,1-4.93.55c-2.62-.05-3.89,1.33-4.47,3.67,1.8,1.36,5.54-.38,5.85,2.82.25,2.65-3.14,2.74-4.81,3.35-5.25,1.91-7.51,5.45-7.63,10.76.34.3.64.75,1,.88,6.49,2.14,6.43,2.09,10.4-3.68,3-4.33,6.38-8.29,11.34-10.52a16.21,16.21,0,0,1,21.16,7.29c.74,1.36,1,3.19,3.18,3.8,2.13-2.29,1-4.67.32-7.16-2.41-8.45-4.64-16.94-7-25.39a4.78,4.78,0,0,1,.44-4c10.34-18.43,18.94-37.58,23.11-58.45.79-4,2.37-7.66,3.08-11.68,2.32-13.08-.85-25.07-7.22-36.25-3.16-5.53-8.75-8.06-15.22-7.08-13.44,2-23.32,9.36-28.81,21.72-4.56,10.28-6.71,21.1-5.33,32.64,1.28,10.83,2.36,21.65,5,32.28a27.36,27.36,0,0,1,.51,11.33,2.17,2.17,0,0,1-1.25,1.53c-1,.19-1.69-.48-2-1.52-5.3-18.58-9.26-37.49-7.95-56.82.94-13.94,5.81-26.89,16.74-36.68a46.63,46.63,0,0,1,16.49-9.54c10.28-3.42,22.57-1.94,29.76,14.57,5,11.38,7.22,23.42,4.73,35.48-2.67,12.93-5.26,26.06-10.87,38.16-4.59,9.89-8.05,20.3-13.55,29.77a5.27,5.27,0,0,0-.84,4.06c1.85,7.29,1.82,15.09,5.91,22.3,2-1.27,3.81-2.55,5.72-3.73,4.57-2.83,7.64-2.2,9.75,2.64,2.8,6.4,4.5,13,1,19.87-1.79,3.57-2.44,7.62-5.21,10.81-1.65,1.92-1.11,13.56.22,15.18,2.06,2.52,9.66,4.27,13.39,3.09.45-.15.88-.34,1.32-.53,9.53-4.22,9.21-4.17,7.63-14.59-2.19-14.39-.07-28.34,5.51-41.8,1.15-2.78,3.31-4.6,5.38-6.52,8.75-8.11,16.66-6,20.25,5.25a29.15,29.15,0,0,1-1,21.49c-2.68,6.07-5.65,12-7.85,18.31-1.89,5.41-6,9.65-10.23,13.49-2,1.84-2.93,3.61-2,6.2,3.67,10.13,15.94,17.09,26.59,15.11,1.86-.35,3.89-.2,5.61-.86,3.75-1.45,7.69-2.79,10.94-5.05,4.13-2.88.11-6.95.38-10.51s-.79-7.51-1.29-11.26c-1.53-11.68,0-23.25,2-34.67,2.31-13,3.35-26.45,9.35-38.58,4-8.07,9.43-14.69,18.4-17.72,6.32-2.13,9.9-.8,12.57,5.14,3.8,8.44,4.69,17.31,4,26.44-.45,5.89-.9,11.79-1.22,17.69-.68,12.47-5.56,23.41-12.1,33.77-1.26,2-2.76,3.89-3.83,6-4.11,8.09-8.9,15.7-15.9,21.58-3.37,2.83-3.45,5.77-2,9.48a31.22,31.22,0,0,0,7.46,11.14c5.23,5.15,10.42,10.44,16.21,14.92,6.78,5.24,15.05,6.68,23.51,6.78,2.35,0,3.33-1.31,3.1-3.69-.48-5-.67-10-1.3-14.89-4.18-32.79-.34-64.86,8.2-96.57,2.41-8.93,4.08-18.06,6.36-27,3.69-14.46,7.4-29,15.43-41.8,4.26-6.79,9.37-13.16,17.38-16.19a41.09,41.09,0,0,0,3.84-1.86c8.09-4.1,16.69-2,21.7,5.61a51.27,51.27,0,0,1,6.8,14.81c2.08,7.73,4.51,15.35,6.79,23Zm80.2,228.95a12.88,12.88,0,0,0,2.28-1,8.93,8.93,0,0,0,1.48-1.53c12.26-15.88,22.18-32.75,27.51-52.51,7.54-28,14.7-55.9,18.1-84.81,3.19-27.19,3.73-54.43,4.07-81.71.2-15.91-.78-31.79-1.93-47.68-1.2-16.6-2.89-33.09-5.6-49.51-2.6-15.79-6.31-31.21-14.42-45.18-3.28-5.66-6-11.88-12.31-15.25-3-1.6-5.13-1.31-7.65.88-3.14,2.72-3.85,6.38-4.87,10-3.58,12.79-6.8,25.53-6,39.1.66,10.63.16,21.33-.08,32-.18,8.29-1,16.6-.89,24.84.1,12.07.49,24.13,0,36.21-.11,2.58-.31,5.19-.18,7.77a541.7,541.7,0,0,1-.08,59.77c-1.24,21.29-1.44,42.64-2.84,63.91-1,15.38-1.89,30.73-1.41,46.14.16,5.21.8,10.43.59,15.62C538.39,363.73,542,377.58,543.18,392.28Zm-76.49-47.64c5.84-6.14,10.5-11.17,15.3-16.05a100.35,100.35,0,0,0,8.87-11.08c10.26-13.86,16.3-29.91,24-45.11,1.38-2.75,2.95-5.53,3.66-8.48,4-16.79,8.81-33.32,9.75-50.88,1.13-21.39,1.48-42.64-.34-64-.85-9.94-2.53-19.76-3.5-29.68-1.28-13.08-7.71-24.26-15.22-34.81C505,78.77,499.4,79.44,494.7,82a22.93,22.93,0,0,0-6.4,5.56c-7.08,8.38-11,18.22-13.06,28.8q-3.67,18.77-6.68,37.66c-.92,5.82-1.84,11.85-1.28,17.65a141,141,0,0,1,.05,19.71c-.81,19.18-1.09,38.37-2.16,57.55-1.47,26.21.38,52.49.31,78.74C465.47,332.82,466.19,338,466.69,344.64Zm-9-161.84c2.23-14.74-4.76-29-9.06-43.67-1.5-5.16-4.11-10.12-8.86-13.45-2.71-1.89-5.39-2.57-8.67-1.43a39.85,39.85,0,0,0-24.56,23.2c-5.76,14.14-11.36,28.43-14.22,43.61a240.3,240.3,0,0,1-5.55,23.4c-4.77,16.24-6.6,33-8.29,49.67-1.47,14.56,0,29.32,2.11,43.88.47,3.28.77,6.59,1.27,9.86.26,1.71.85,3.44,3.19,2.65,9.39-3.2,19-5.62,27.23-11.83,11.58-8.72,19.13-20.2,25.12-33.05,7.25-15.57,11.27-32.21,15.64-48.68C456.77,213,459.59,198.74,457.72,182.8Zm4.35,28.73c-3,4.85-2.68,10.43-4.2,15.59-5.05,17.26-9.21,34.77-16.73,51.27C436.49,288.62,430.81,298,422.9,306a62.31,62.31,0,0,1-33.19,17.85,11.11,11.11,0,0,0-4,1.28c-1.53,1-2.89,2.26-2.66,4.61,1.39,14.31,6.37,27,16,37.89,2.58,2.91,5.72,4.5,9.39,4.09,5.87-.65,11.77-1.28,17.49-3,12-3.56,22.15-10.55,32.3-17.57,2.91-2,4-4.16,3.79-7.62-.41-7.57-1.22-15.11-1.2-22.72,0-14.46-.48-28.92-.64-43.38-.1-9.69-.22-19.39.09-29.08C460.63,236.08,461.44,223.81,462.07,211.53ZM181.49,253.65c-2.15,9.21-.25,17.1.24,25a53.32,53.32,0,0,0,3.35,14.49c4,11.18,8,22.14,14.27,32.44,4,6.55,8.76,12.32,13.06,18.52,1.58,2.29,3.3,2.35,5.27.5,5.42-5.05,10.19-10.46,13-17.58,5.37-13.7,5-27.92,4.29-42.16-.15-3.29-.7-6.6-.86-9.92a11.32,11.32,0,0,0-5.3-8.85c-2.23-1.45-3.92,2-6,3-1.87.93-3.92,1.7-5.32,3.46A12.59,12.59,0,0,1,206,277.11c-4.72-.5-10.43.56-13.87-3.68C187.62,267.86,182.64,262.37,181.49,253.65ZM324,277.14c2.69-4.51,7.08-6.86,9.53-11.4,2.9-5.4,6.66-10.34,9.82-15.61,5.25-8.76,10.36-17.74,11.46-28.06a206,206,0,0,0,1.38-29.81,38.72,38.72,0,0,0-3.79-15.07c-1.31-2.78-3.11-3.74-6.28-2.62-7.74,2.73-12.43,8.48-15.38,15.64-3.55,8.61-5.37,17.64-7,26.9-3.1,17.85-5.13,35.53-2.79,53.57A10.87,10.87,0,0,0,324,277.14ZM173.24,339.6c4,.72,8.42.32,8.3,4.83s1.9,5.38,5.48,5.38a6.78,6.78,0,0,1,3.23,1.23c6.36,3.39,12.5,2.44,19-.77-1-1.82-1.48-3.24-2.41-4.23-6.45-6.78-10.33-15.27-15.45-22.93-8.38-12.51-12.62-26.39-15.05-41-.82-4.92-1.33-9.88-2-14.82-.19-1.32.08-3.1-2-3.07-1.94,0-4,.23-4.13,2.83-.09,2.09-1.81,4-.74,6.25,2.09-.2,4.73-2.77,6,.87.84,2.46-1.12,3.83-3.06,4.91-.41.23-.85.42-1.28.61-4.06,1.76-3.26,5.51-3.21,8.65,0,3.68,3.18,1.59,4.94,2a3,3,0,0,1,2.56,2.1c.45,1.7-.62,2.69-2,3.32a6.76,6.76,0,0,1-2.72.72c-3.22,0-4,1.89-3.91,4.66.1,3.07,1.81,3.31,4.32,2.87a2.4,2.4,0,0,1,3,2.31,3.28,3.28,0,0,1-2.21,3.33,11,11,0,0,1-2.77.58c-1.81.26-2.33,1.42-2.16,3a3.11,3.11,0,0,0,1.67,2.85c5.08,2.6,5.2,2.78,1.66,6.73-1.91,2.14-.74,3.9-.27,5.9.65,2.74,2.21,1.14,3.71,1.06,3.88-.2,5.56,2.36,4.09,5.94A30,30,0,0,1,173.24,339.6Zm97.14-77.46c5.29-3.33,8-8.74,10.37-14.42a123,123,0,0,1,6.13-13.55c3.17-5.66,3.47-11.73,1.78-17.88-.73-2.66-1-6.35-4.09-6.93-3.29-.62-6.18,1.75-8.7,3.89a10.29,10.29,0,0,0-1.54,2.37c-2.71,4.22-5.07,9.18-5.37,13.69C268.24,240.15,264.24,251.32,270.38,262.14Zm-48.79-12.31c-1.27,4.72-4.42,7.22-7.43,9.69-7.49,6.14-15.81,3.73-20.18-4.78-2.19-4.28-2.71-8.64-3.15-13.81-3.45,7.15-3,16.77.67,22.27,4.85,7.27,13.09,9.33,20.9,5.15,2.3-1.23,4.52-2.59,6.71-4C226.45,259.72,226.6,259,221.59,249.83Zm-29.38-15.45,1.52,1.8c2-1.57,3.75-3.57,6.26-4.36,3-.94,6.1-1.37,8.6,1.22,3.69,3.83,3.52,13.28-.12,17.18-1.26,1.35-2.65,2.2-4.37,1.46-2.7-1.15-3.49-3.73-3.93-6.33-.37-2.24,0-4.31,2.68-5,1.06-.26,2.72-.2,1.63-2-.75-1.22-2.07-.93-3.15-.25-3.9,2.45-4.79,7.49-2.34,13.07,3,6.74,5.52,7.35,11.81,3.53,6.67-4,7.64-13.69,3.41-21.64a10.38,10.38,0,0,0-15.73-3.41C196.4,231.26,194.3,232.82,192.21,234.38ZM237,245.29c4.52-7.67,5.11-12.18,2.69-18.22-.37-.93-.74-1.8-1.77-1.92-2.74-.31-8.17,6.47-7,9.08C232.63,238,234.23,241.85,237,245.29Zm-67.26,9.39c-.21,1.5-.53,3,.81,3.36a2.79,2.79,0,0,0,3.39-1.85c.94-3.12,1.41-6.38,2.17-9.55.24-1,.34-1.84-.74-2.28a2.12,2.12,0,0,0-2.5.81C170.65,248.07,170.61,251.71,169.71,254.68Zm61-1.59c0-3,.72-6.09-2-8.69C227.28,248.13,228.67,250.76,230.76,253.09Z"/>
    <path d="M318.84,442.14c8.71,1.34,17.43,1.21,26.23.64,6.36-.4,12.82.25,19.21.74a70.74,70.74,0,0,0,12.77,0c10.45-1.08,20.84.24,31.23,1.22,1.81.17,3.27.91,3.18,3-.08,1.82-1.61,2.36-3,2.47a61.85,61.85,0,0,1-6.38-.12c-9.89-.27-19.66-1.75-29.72-.27-7.11,1-14.64-.58-22-1.24a32.17,32.17,0,0,0-8.5.21c-9.06,1.62-17.91-.22-26.83-1.24-7.82-.88-15.63,0-23.44.4-2.35.11-4.76.71-7-.54-1.33-.74-2.23-1.8-1.83-3.46a2.45,2.45,0,0,1,2.71-1.81C296.62,442.24,307.72,439.66,318.84,442.14Z"/>
    <path d="M5.08,447.32a16.35,16.35,0,0,1-2.77-.92c-1.52-.82-2.8-1.94-2.12-3.94.59-1.76,2.16-1.68,3.54-1.46a54.23,54.23,0,0,0,15.58.05c14.89-2,29.71-.35,44.6.08,15.59.45,31.19,1.23,46.81,1.16,2.35,0,4.76-.43,6.93.9a2.82,2.82,0,0,1,1.68,2.84c-.22,1.56-1.43,1.61-2.65,1.64-5.86.16-11.73.72-17.57.43-19.83-1-39.69-1.17-59.51-2.64-6.73-.51-13.61,1.22-20.43,1.66C14.46,447.42,9.73,447.27,5.08,447.32Z"/>
    <path d="M207.08,132.74A20.47,20.47,0,0,1,209.15,122c1.95-3.65,4.64-3.83,7-.57,3.23,4.39,2.92,18.76-.51,23.11-3,3.84-6.07,3.48-7.77-1.05a18.51,18.51,0,0,1-.82-4.84C207,137.2,207.08,135.78,207.08,132.74Z"/>
    <path d="M223.63,131.86a43.41,43.41,0,0,1,1.42-10.24c.87-2.77,2.53-4.69,5.53-4.63,3.16.06,3.4,2.62,3.84,5,1.34,7.3.79,14.19-4,20.24-2.23,2.81-4.69,2.49-5.58-1C224,138.11,224,134.74,223.63,131.86Z"/>
    <path d="M224.94,110.89c.43,3.64-1.83,4-3.92,4.23-2.29.22-5-2.4-5.16-4.69-.16-1.94,1.84-4,4-4.12A4.79,4.79,0,0,1,224.94,110.89Z"/><path class="a" d="M172.87,123.66c-.36,2.2-1,4.2-3.53,4.62-1.7.28-4.79-2.85-4.88-5.08a3.51,3.51,0,0,1,3.86-4C171.09,119.25,172.27,121.26,172.87,123.66Z"/><path class="a" d="M153.11,339.24c1.66.1,4,3.35,3.71,5.33a4.15,4.15,0,0,1-4.57,3.57c-2.2-.1-3.14-1.95-3.24-4C148.88,341.56,151,339.12,153.11,339.24Z"/><path class="a" d="M192.24,381.06c-3.32-.17-5.5-2.19-5.16-4.27.44-2.64,2.81-3.39,4.66-3.29a4,4,0,0,1,3.7,4.35C195.35,380.08,193.59,380.82,192.24,381.06Z"/><path class="a" d="M143.47,312.57c-2.48-.53-4.4-1.72-4.25-4.67.13-2.5,1.91-3,4-2.91,2.37.1,4.36.94,4.34,3.61C147.55,311,146.2,312.57,143.47,312.57Z"/><path class="a" d="M175,183.63c0,2.5-2.18,5-4.35,4.73-2.46-.29-3.55-2.14-3.59-4.42,0-2.53,1.67-3.78,4-4C173.6,179.74,174.75,181.34,175,183.63Z"/><path class="a" d="M181.74,81.21c1.83.26,3.77.64,3.81,3.72,0,2.65-2.35,4.92-4.19,4.6-2.1-.38-4.57-3-4.14-5.56C177.75,80.85,179.8,81.2,181.74,81.21Z"/><path class="a" d="M255.17,81.82a3.29,3.29,0,0,1-3.94,2.87,4,4,0,0,1-3.51-4.47c.13-1.87,1.17-3.58,3.57-3.43C254.39,77,254.69,79.42,255.17,81.82Z"/><path class="a" d="M170.65,142.59c2.79.32,4.28,1.6,4.23,4.11,0,2-3,4.11-5.15,3.76-2.32-.39-2.89-2.13-2.81-4.14C167,143.76,168.53,142.61,170.65,142.59Z"/><path class="a" d="M173,101.36c2.78.33,4.28,1.61,4.22,4.12,0,2-3,4.1-5.15,3.75-2.32-.38-2.89-2.13-2.81-4.14C169.32,102.53,170.82,101.39,173,101.36Z"/><path class="a" d="M236.68,207.87c-.27,2-.92,3.84-3.19,4-2.5.15-4-1.37-4-3.84,0-2.28.83-4.38,3.48-4.4S236.45,205.53,236.68,207.87Z"/><path class="a" d="M243.27,192.11c-.67,2.12-1.37,4.41-4,4.12a4.1,4.1,0,0,1-3.68-4.34c0-2.29,1.6-3.41,3.52-3.55C241.63,188.16,242.79,189.91,243.27,192.11Z"/><path class="a" d="M249.29,175.8c-.67,2.12-1.37,4.41-4,4.12a4.12,4.12,0,0,1-3.68-4.34c0-2.29,1.61-3.41,3.53-3.55C247.65,171.85,248.8,173.6,249.29,175.8Z"/><path class="a" d="M248.77,308.79c2.54-.12,4.91,1.78,4.74,3.93a4,4,0,0,1-8-.29A3.22,3.22,0,0,1,248.77,308.79Z"/><path class="a" d="M154,234.66c-2.18-.71-3.71-2.14-3.4-4.49a3.76,3.76,0,0,1,4.34-3.56,3.94,3.94,0,0,1,3.14,4.1C158.1,233.28,156.29,234.24,154,234.66Z"/><path class="a" d="M241.92,334.14c.1-2.41.83-4.28,3.74-3.94,2.11.25,3.65,1.37,3.39,3.7a4.65,4.65,0,0,1-4.76,4.39C241.53,338.34,241.82,336.05,241.92,334.14Z"/><path class="a" d="M228.34,364.7c-2.6.3-4,1.63-4.05,3.62a4,4,0,0,0,3.72,4.27c2.36.19,3.88-1.67,4-4C232,366.08,230.05,365.2,228.34,364.7Z"/><path class="a" d="M239.38,350.76c-2.6.3-4,1.64-4,3.63a4,4,0,0,0,3.72,4.27c2.36.18,3.88-1.67,3.95-4C243.07,352.15,241.1,351.27,239.38,350.76Z"/><path class="a" d="M149.29,266.78a3.57,3.57,0,0,1-3.35,3.84,3.8,3.8,0,0,1-4.4-3.59,3.34,3.34,0,0,1,3.26-3.84C147.35,262.93,148.63,264.53,149.29,266.78Z"/><path class="a" d="M263.27,128.33c-.56,2-1.9,3.43-3.94,3.25s-4.21-1.42-3.69-4c.34-1.71,1.17-3.77,3.66-3.41A4.34,4.34,0,0,1,263.27,128.33Z"/><path class="a" d="M176.63,164.17c.07,2.7-1.87,3.81-4.31,4s-3.62-1.63-3.74-3.79c-.14-2.5,1-4.66,3.73-4.77S176.35,161.3,176.63,164.17Z"/><path class="a" d="M254.05,148.58c2.5.39,3.54,2,3.46,4.41-.07,2.26-1.38,3.62-3.5,3.51-2.48-.13-3.79-2-3.54-4.34C250.67,150.29,251.6,148.54,254.05,148.58Z"/><path class="a" d="M163.15,213.76c-.24,2.27-1.41,3.49-3.63,3.46s-3.35-1.56-3.28-3.62c.06-2.27,1.15-4.27,3.66-4.27C162.68,209.33,162.83,211.78,163.15,213.76Z"/><path class="a" d="M168.56,198.34c-.13,2.25-.87,3.82-3.28,3.86-2.06,0-3.8-.53-4-2.95s1.09-4.28,3.53-4.29A3.67,3.67,0,0,1,168.56,198.34Z"/><path class="a" d="M161.16,356c2.47.32,4,1.5,3.7,4.18-.21,2.14-1.29,3.61-3.58,3.52-2.54-.11-3.81-1.67-3.7-4.19A3.36,3.36,0,0,1,161.16,356Z"/><path class="a" d="M263.2,102.09c-.58,2.4-1.91,4-4.37,3.72a3.53,3.53,0,0,1-3.2-3.93c.13-2.21,1.84-3.13,3.9-3.17C261.82,98.67,262.76,100.18,263.2,102.09Z"/><path class="a" d="M143.9,291.54c-2.32-.54-3.82-2.13-3.7-4.45.12-2.17,1.93-3.25,4.06-3a3.75,3.75,0,0,1,3.37,4C147.61,290.18,146.27,291.51,143.9,291.54Z"/><path class="a" d="M154.24,247.66a3.65,3.65,0,0,1-4,3c-2.28-.08-3.42-1.53-3.58-3.61s2.39-4,4.39-3.58S154.21,245.37,154.24,247.66Z"/><path class="a" d="M253.74,292.39c-.53,2.49-2.74,3.07-4.72,2.94-1.74-.12-2.44-2-2.33-3.72.15-2.25,1.47-3.35,3.7-3.06A3.52,3.52,0,0,1,253.74,292.39Z"/><path class="a" d="M240.29,67.82a3.55,3.55,0,0,1-3.76,3.49,3.21,3.21,0,0,1-3.45-3.54c0-1.8.83-3.33,2.74-3.42C238.2,64.22,239.6,65.72,240.29,67.82Z"/><path class="a" d="M196.53,75.69c-2.16-.2-4.37-.68-4.76-3.36-.33-2.26,1.06-3.58,3.23-3.85,2.47-.3,4.3.66,4.69,3.31C200,74.05,199,75.41,196.53,75.69Z"/><path class="a" d="M217.49,67.67c-2-.18-4-.62-4.38-3.09-.3-2.07,1-3.28,3-3.53,2.27-.28,4,.6,4.31,3C220.7,66.17,219.74,67.42,217.49,67.67Z"/><path d="M635.17,305.42c-.25,2.33-1,4.36-3.81,4.53-2.48.15-4.72-1-4.75-3.5,0-2.9,2.42-4.35,5.08-4.67C634.06,301.5,634.93,303.26,635.17,305.42Z"/><path d="M643.63,252.57c-.25,2.32-1,4.35-3.82,4.52-2.47.15-4.71-1-4.74-3.5,0-2.9,2.42-4.34,5.07-4.66C642.52,248.64,643.39,250.4,643.63,252.57Z"/><path d="M643.31,3.1c-.57,3-2,4.88-4.82,4.78a3.46,3.46,0,0,1-3.63-4C635,1.44,636.74.25,639,0,641.33-.21,642.65,1.23,643.31,3.1Z"/><path d="M598.74,439.12c-.55,2.43-1.1,5.1-4.33,5.14-2.58,0-3.82-1.76-3.67-4.23.15-2.27,1.22-4.26,3.66-4.62S598.31,436.6,598.74,439.12Z"/><path d="M646.76,38c-.56,2.43-1.1,5.1-4.33,5.14-2.58,0-3.82-1.76-3.67-4.22.15-2.28,1.22-4.27,3.66-4.63S646.33,35.45,646.76,38Z"/><path d="M610.12,407.39c-2.92-.29-4.1-1.88-4-4.15.1-2.52,1.8-3.48,4.21-3.12s4,1.68,3.8,3.94A3.65,3.65,0,0,1,610.12,407.39Z"/><path d="M646.65,128.88c-2.92-.29-4.1-1.89-4-4.15.1-2.53,1.8-3.49,4.21-3.13s4,1.68,3.8,3.94A3.67,3.67,0,0,1,646.65,128.88Z"/><path d="M620.06,360.13c-1.3-.32-2.57-1.81-2.4-4.13.19-2.49,2-3.46,4.24-3.38,2.54.1,3.61,1.83,3.2,4.14C624.74,358.85,623.74,360.69,620.06,360.13Z"/><path d="M644.76,85.59c-1.3-.32-2.57-1.81-2.4-4.13.18-2.49,2-3.46,4.24-3.38,2.54.1,3.6,1.83,3.2,4.14C649.43,84.31,648.44,86.15,644.76,85.59Z"/><path d="M643.63,171.38c-1.3-.33-2.56-1.82-2.39-4.14.18-2.49,2-3.46,4.23-3.37,2.55.09,3.61,1.82,3.2,4.13C648.31,170.09,647.31,171.93,643.63,171.38Z"/><path d="M641.91,210.78c-1.31-.32-2.57-1.81-2.4-4.13.18-2.49,2-3.46,4.24-3.38,2.54.1,3.6,1.82,3.2,4.14C646.58,209.49,645.59,211.34,641.91,210.78Z"/></svg>