<svg width="219" height="218" viewBox="0 0 219 218" fill="none" xmlns="http://www.w3.org/2000/svg">
<path fill-rule="evenodd" clip-rule="evenodd" d="M118 9C118 4.02944 113.971 0 109 0C104.029 0 100 4.02944 100 9V100H9C4.02944 100 0 104.029 0 109C0 113.971 4.02944 118 9 118H100V209C100 213.971 104.029 218 109 218C113.971 218 118 213.971 118 209V118H209C213.971 118 218 113.971 218 109C218 104.029 213.971 100 209 100H118V9Z" fill="#10100F"/>
<path d="M9 18C13.9706 18 18 13.9706 18 9C18 4.02944 13.9706 0 9 0C4.02944 0 0 4.02944 0 9C0 13.9706 4.02944 18 9 18Z" fill="#10100F"/>
<path d="M209.1 18C214.071 18 218.1 13.9706 218.1 9C218.1 4.02944 214.071 0 209.1 0C204.129 0 200.1 4.02944 200.1 9C200.1 13.9706 204.129 18 209.1 18Z" fill="#10100F"/>
<path d="M9 218C13.9706 218 18 213.971 18 209C18 204.029 13.9706 200 9 200C4.02944 200 0 204.029 0 209C0 213.971 4.02944 218 9 218Z" fill="#10100F"/>
<path d="M209.1 218C214.071 218 218.1 213.971 218.1 209C218.1 204.029 214.071 200 209.1 200C204.129 200 200.1 204.029 200.1 209C200.1 213.971 204.129 218 209.1 218Z" fill="#10100F"/>
</svg>
