<svg width="735" height="664" viewBox="0 0 735 664" fill="none" xmlns="http://www.w3.org/2000/svg">
<path d="M379.5 424.1C380.3 425.4 381.8 424.9 382.9 425.2C387 426 387.1 426 384.8 430.1C384.1 431.4 384.2 431.8 385.7 432C388.5 432.5 388 434.2 386.4 435.3C384.4 436.7 382.1 437.7 379.7 439C381.5 440.1 383.2 439.7 384.9 439.8C385.7 439.8 387.2 439.7 387.2 440.4C387.3 443.6 388.8 445.6 391.6 446.9C391.7 446.9 391.5 448.2 391.1 448.5C389.6 450 388.1 451.5 385.6 451.2C383.9 451 382.2 451 380.5 451C375.7 451 375.6 451 375 446.3C372.9 429.3 371.9 412.3 373.6 395.1C374.9 381.9 388.9 366.5 405.7 369.7C408.7 370.3 411.2 371.4 413.5 373.5C422.7 381.6 426.8 391.4 426.1 403.9C425.8 409 426.7 414.4 427.2 419.6C428.1 428.3 427.8 437 427.9 445.6C427.9 448.9 428.2 451.9 431.4 453.9C433.5 455.2 433.5 457.4 433.4 459.6C433.1 468.5 431.4 477.2 428.6 485.7C423.4 501.8 418.7 518 413.9 533.8C416.4 536.6 419.7 533.5 422.4 536.4C419 538.3 415.6 538.6 412.1 538.3C410.5 538.1 410.1 537 410.1 535.6C410.1 533.7 410.5 531.8 411.1 530C416.8 514.3 420.5 498 424.1 481.7C425.2 476.5 426.3 471.4 426.7 466.1C426.9 463 425.5 462.8 423 462.6C420 462.3 419.2 463.4 419.3 466.1C420.1 484.5 412.4 501.1 408.7 518.6C406.4 529.4 401.3 539.3 399.9 550.2C399.8 550.8 399.6 551.5 399.2 552C397.8 553.5 398.5 557.3 396.2 556.9C393.4 556.4 395.8 553.3 395.3 551.4C395 550.2 395.1 548.9 395 547.5C391.9 550.3 390.5 558.4 391.2 568.1C394.4 569.1 397.5 567.6 400.4 567C422.4 563 444.8 560.6 466.2 553.7C481.3 548.8 496.4 544 509.8 535.1C514.2 532.2 522.9 527.2 522.9 527.2C522.9 527.2 532.8 521.6 534.2 518.7C536.3 514.3 537.6 509.6 539.1 505C543 492.6 550.7 482.6 559.2 473.1C562.6 469.3 565.1 464.9 568.8 461.3C577.3 453 587.9 449 599.1 446.3C612.3 443.1 625.6 443.5 638.5 447.8C650.2 451.6 657.3 460.1 660.7 471.8C662.6 478.1 663.7 484.4 662.5 491.1C658.8 510.2 648.3 523.2 629.8 529.3C619.8 532.6 608.2 527.6 602.6 521.3C599.6 518 598.7 513.4 598.4 508.9C598.2 506.2 599.4 504.4 602 503.7C604.2 503.1 606.8 505.3 607.4 508C607.6 509 607.7 510.1 607.7 511.2C607.7 515.6 609.4 518.7 613.6 520.7C619.3 523.4 624.8 524.9 631.1 522.1C636.2 519.8 640.9 517.4 645.2 513.8C655.8 505.1 660.4 485.1 655.3 473C650.9 462.8 644.7 454.7 632.5 452.2C622.8 450.2 613.2 449.3 603.7 451.4C592.3 453.9 580.9 457.1 572.8 466.3C565.2 475 556.7 483.2 550.6 493.2C548.8 496.1 547.4 499.1 546.2 502.3C541.5 514.9 536.8 527.6 531.7 540C528.4 547.9 527.4 556.5 523 564.1C517.7 573.3 511.1 581.5 504.4 589.7C501.3 593.5 500.9 595 495.7 601.4C490.4 609.7 475 624.9 471.6 629.5C465.3 637.8 457.1 642.4 446.9 644.9C443.2 645.8 438.9 646 436.1 647.6C430.3 650.9 424 651.2 417.9 652.5C408 654.6 398.5 654.9 384.3 655.8C381.7 655.5 382.3 654.7 379.7 655.6C377.4 656.4 375 656.8 371.6 656.4C379.9 651.5 388.5 650.8 396.9 650C405.1 649.2 413.2 648 421.3 646.3C432.8 643.9 443.7 640 454.6 636.1C456.6 635.4 458.4 634.3 460 632.8C465.4 627.8 471 623 475 616.6C483.9 605.8 489.6 601.3 496.2 593.1C506 580.9 516.1 569.1 521.2 553.7C523.9 545.6 527.3 537.6 529.9 528.5C519.7 538 507.2 542.1 496.3 548.8C493.7 550.4 490.2 551.7 487.3 552.9C467.2 560.9 443.8 565.3 437.9 566.8C432.1 568.3 410.2 572 404.1 571.6C399.9 571.3 394.7 569.9 391.3 573.9C390.6 574.7 389.6 574.7 389.1 574.1C386.9 571.6 384.3 572.8 382 573.5C370.7 576.7 359.1 579.4 347.4 579.4C343.6 579.4 319.2 581.2 289.3 583.3C277.9 584.1 266.6 583.5 255.3 582.7C251.7 582.5 250.6 584 250.6 586.9C250.4 592.2 250 597.5 251.1 602.7C251.3 603.7 251.7 604.8 251.6 605.8C251.4 607.6 250.6 609.1 248.5 609.1C246.4 609.1 246.4 607.5 246.3 605.9C246.2 600 245.2 594.1 245.4 588.1C245.5 583.8 245 583.5 240.8 583C239.8 582.9 238.7 583 237.7 583C226.1 583.2 214.4 583.7 202.8 583.4C191 583.1 179.1 582.3 167.3 581.5C157.1 580.8 147.3 578.5 137.2 577.2C130.6 576.3 124.6 573.6 118.6 571C117.5 570.6 116.7 569.2 115.1 570.1C115.9 571.9 117.1 573.7 118.8 574C124 574.9 128.4 577.8 133.3 579.4C137.5 580.7 138.2 581.4 138.5 585.9C138.6 586.9 139 588 138.8 589C138.5 591 139.3 591.6 141.2 591.6C143.6 591.6 146.7 590.5 145.8 595.1C145.5 596.7 147.2 596.2 148.1 596.2C150.7 596.1 154.1 594.8 153.2 599.8C153 600.8 153.9 601.2 154.8 601.2C155 601.2 155.2 601.2 155.4 601.3C157.6 601.7 160.7 599.7 162 602C163.6 604.9 162.2 608.1 160.1 611.1C162.7 612 166.8 610.5 167.1 615.2C167.1 615.4 169.2 616 170 615.7C176.4 613.1 183 614.3 189.4 614.9C196.9 615.6 204.1 613.9 211.6 614C217.9 614 219.9 615 221 621.4C221.4 624 222.3 624.6 224.5 624.5C238.5 623.7 252.5 623.9 266.4 623.7C277.6 623.5 288.8 622.9 300 622.3C302.8 622.1 306.7 623.4 306.8 618.2C306.8 616.8 308.6 616.7 309.9 616.7C311.2 616.7 312 617.6 312 618.6C312 622.4 314.3 622.3 317.1 622.2C330.7 622.1 344.1 620.6 357.7 619.8C373.6 618.9 389.3 616.7 405.1 615.4C411.4 614.9 417.7 613.7 423.9 612.4C427 611.7 430.2 611.5 433.3 611.2C434.9 611.1 437 610.9 437.3 613.3C437.6 615.4 435.8 616.1 434.2 616.7C432.4 617.4 430.6 618 428.7 618.2C417.1 619.3 405.6 620.9 394 622.1C382.2 623.3 370.4 624.7 358.6 625.4C348.9 626 339.2 626.3 329.5 627.9C326.2 628.4 322.8 627.9 319.4 627.8C316.9 627.7 315.4 628.3 314.1 630.9C312 635.1 310.4 635 308.6 630.9C307.5 628.3 305.8 628.2 303.6 628.2C294.1 628.5 284.6 628.6 275.1 629C265.1 629.5 255.2 629.5 245.3 629.1C238 628.8 230.5 629.8 223.2 630.2C220.6 630.3 219.6 631.7 219.5 634.3C219.5 638.7 219.8 643.3 216.8 647C215.4 648.7 217.1 649.7 217.6 651C218.3 652.9 219.6 651.5 220.7 651.3C223.1 651 225.2 650.1 227 653.4C228.4 655.8 232.3 655.6 235.3 655.6C240.6 655.7 245.9 655.7 251.2 655.6C261 655.4 270.7 656.5 280.3 657.8C282.4 658.1 284.5 658.4 286.6 658C300.5 655.3 314.5 657.8 328.4 657.1C334.3 656.8 385.3 651.2 391.2 650.6C392.3 650.5 394 650 394.4 651.7C394.7 653.2 393.2 653.6 392 654.1C386 656.5 334.7 662.6 328.3 662.5C315 662.2 301.7 663.3 288.4 663.6C278.2 663.8 224.3 663.6 203.5 653.7C196.7 650.9 189.4 649.5 182.5 646.8C178 645.1 174.1 642.5 171 639.1C164.9 632.4 158.7 625.7 153.5 618.2C151.7 615.6 149.6 613.2 147.3 611C143.4 607.5 140.1 603.8 134.5 602.3C129.5 600.9 125.4 596.5 122.5 592.3C116 582.9 108 574.5 102.1 564.8C95.1 553.4 87.7 542.4 80.2 531.3C74.8 523.5 70.7 514.8 64.7 507.3C60.1 501.5 54.8 496.9 48.6 493.2C40.1 488.1 31.2 488.9 23.1 494.7C18.2 498.3 14.3001 502.6 10.8001 507.4C1.70007 519.5 5.29997 533.4 12.2 543.5C16.8 550.1 23.5001 554.1 32.3001 553.7C42.1001 553.3 47.5 548.7 48.9 539C49.3 536.3 49.3001 533.5 49.3001 530.8C49.2001 526.4 46.7 523.3 43 521.2C40.7 519.9 38.3 519.3 36.2 521.9C34.8 523.7 32.7 524.9 31 522.6C29.5 520.6 30.6 518.5 32.4 517C35.5 514.6 38.7 513.2 42.9 514.8C49.6 517.3 54.4 523.4 54.9 530.5C55.4 537 53.4 543.1 51.4 549.1C49.8 554 45.6 556.8 40.6 558.2C26.4 562.1 10.7001 555.3 5.30007 541.9C4.30007 539.6 3.40002 537.2 2.50002 534.8C-1.29998 524.4 -0.499952 514.6 5.90005 505.2C8.90005 500.8 12.2 496.7 16 493C27.5 481.9 41.1 481.7 54.9 490.6C65.5 497.4 72.8 507.3 78.9 518C83 525.2 87.7001 531.9 92.4 538.7C95.6 543.4 99.5 547.7 102.2 552.7C103.2 554.4 104.2 556.6 107.1 555.6C108.2 555.2 109.3 555.6 109.5 556.9C109.8 560 112.4 560.9 114.5 562.2C126.6 569.7 140 573.2 154.1 574.6C162.9 575.5 171.8 575.7 180.5 578C186.4 579.6 192.8 578.7 198.9 578.3C211.4 577.6 223.9 578.6 236.4 578.4C238.9 578.4 241.5 578.3 244 578.5C246.1 578.6 247.1 577.7 247.5 575.8C248.5 571.3 249.4 566.7 250.6 562.2C252.7 554 255.1 545.9 257.3 537.7C257.8 535.8 258.5 534.1 259.5 532.5C264.1 524.9 266.9 516.4 270.4 508.2C271.7 505.1 270.3 502.9 268.9 500.6C264.1 492.5 260.5 484 258.9 474.7C256.1 459 260.2 445.7 273.1 435.7C283.1 427.9 296.1 426.5 305.6 442.6C310.5 451 312.3 460.1 310.4 470.1C308.8 478.2 307.1 486.2 304.5 494C304 495.6 303.5 497.2 302.8 498.8C298.7 508.2 299.8 511.8 306.5 519.5C312.3 526.1 318.6 531.7 326.7 535.3C332 537.7 336.6 538.5 341 533.8C342.7 532 345.2 530.9 347.2 529.4C352.8 525.2 355.2 519.3 356.1 512.5C358.3 496.1 361.6 480 367.9 464.7C368.6 462.9 369.3 461.2 370.2 459.5C374.3 451.6 375.4 451.4 383.9 454.8C395 459.3 406.3 460.6 417.9 456.1C421.9 454.5 423.9 452.2 424 447.6C424.1 430.4 423.3 413.3 421.2 396.3C420.2 388.3 415.8 381.9 409 377.8C402.5 373.9 395.9 375.9 389.8 379.5C386.6 381.3 384.6 384.5 382.2 387.1C381.4 388 380.2 389.7 380.9 390.5C383.5 393.4 380.8 396.6 381.9 399.4C382.6 401.2 381 401.9 380.2 403.1C378 406.2 378.4 407.5 382.1 409.4C384.3 410.5 384.3 411.7 382.5 413.1C381.8 413.6 381 413.9 380.3 414.3C379.5 414.8 379 415.4 379.3 416.4C379.6 417.4 380.4 417.6 381.3 417.6C382.1 417.6 383.1 417.5 383.8 417.7C385.6 418.3 386.2 419.5 384.6 421C383.8 421.7 382.9 422.3 382.1 422.9C380.8 423.2 379.8 423.1 379.5 424.1ZM270.4 579.4C277.3 579.7 283.3 579.4 289.4 578.6C292.7 578.1 294.7 576.8 296.5 574.2C303.8 564 305.5 552.5 304.5 540.4C303.7 530.4 302.1 520.7 294.6 513C291.9 510.3 292 506.7 293.6 503.5C297.8 495.2 300.9 486.5 303.2 477.4C305.7 467.4 306 457.9 301.9 448.3C299.8 443.3 296.3 439.9 291.7 437.6C287.8 435.7 283.8 435.4 279.6 437.5C270.6 442 262.8 454.7 263.3 465.7C263.9 479.5 269.4 491.4 278.3 501.8C281 505 281.2 504.9 278.2 508.5C275.1 512.2 273.9 516.1 276.4 520.6C277.3 522.2 276.9 523.4 275.1 524.1C271.3 525.5 269.6 529.2 267 531.9C265.7 533.3 264.7 535.2 267.6 536.4C269.4 537.1 268.9 538.4 268 539.4C266.9 540.7 265.7 541.8 264 542.5C263.3 542.8 263.2 543.3 263.7 544.2C265 545.3 267.6 543.4 268.5 545.9C267.6 547.9 266.4 549.8 264.7 551.3C268.4 554.3 268.4 554.3 264.8 556.7C263.8 557.3 262.3 557.4 262.1 559.1C263.9 560.2 267.2 557.6 267.9 560.8C268.5 563.4 265 562.7 264 564.2C263.8 564.5 263.7 564.9 263.5 565.3C265.3 566 269.2 564.8 268.7 567.3C268 570.6 269.9 570.6 271.4 572C273.8 574 273.6 576.8 270.4 579.4ZM302.4 577.2C309.8 576.6 316.8 576.2 323.6 575.4C332.2 574.3 340.8 573.3 349.5 573.4C361.2 573.6 372.7 572.4 384 569.3C385 569 386.3 568.9 386.3 567.6C386.3 566.3 385.1 566.1 384 566C380.3 565.4 378.6 563.3 378.3 559.5C378.1 556.7 376.6 554.8 373.2 555.2C372.2 555.3 371.2 554.8 370.2 554.4C368.1 553.5 366.7 554.3 365.2 555.8C362.3 558.6 359.4 561.4 358.2 565.4C357.9 566.4 357.3 567.5 355.9 566.9C354.9 566.4 354.5 565.3 355 564.2C355.5 563.1 356.1 561.9 356.8 560.8C357.5 559.7 358.1 558.7 357.2 557.4C354.5 553 355.2 548.5 357 544C359.2 538.7 359 533.4 357.8 527.3C352.6 534.7 355.6 544.6 347.7 551.9C348.3 544.5 352.8 539.1 351.3 532C347.2 536 341.6 537.1 339.2 542.3C338.3 544.3 336.7 544.1 334.9 543.8C329.9 542.9 325.1 541.3 320.6 538.8C316.8 536.7 312.9 534.6 308.4 532.1C308.8 540.3 309.2 547.6 308.9 554.9C308.8 562.7 303.8 568.8 302.4 577.2ZM178 620C177.3 625.6 180 629.7 179.9 634.1C179.9 637.3 181.7 638.1 184.3 638.1C192.8 638 201.2 638.6 209.6 639.5C212.3 639.8 213.4 638.8 213.5 636C213.6 632.3 213.3 628.5 215.3 624.9C216.5 622.6 214.3 620.1 211.3 620.1C200.4 620 189.4 620 178 620ZM387.3 558.7C388.1 551.6 390.3 546.2 392.6 540.8C395.2 534.7 390.9 528.9 391.5 522.8C391.7 520.9 391.6 519 391.6 517.1C391.6 516.5 391.3 515.3 391.3 515.3C386.8 516.1 388.6 513.3 389.6 511.8C395 503.7 396 494 399.5 485.3C400.6 482.6 400.3 479.9 398.6 477.3C399.3 482.7 397.1 487.3 394.5 491.6C388.8 501.2 386.1 511.8 383.7 522.5C383.2 524.8 382.4 526.7 383.8 529C384.5 530.2 384 531.9 383.5 533.3C382.3 536.9 382.1 540.8 381.6 544.5C381 549.6 382.6 554 387.3 558.7ZM396.8 532.2C400.9 525.3 403.1 518.9 405.1 512.5C405.3 511.7 407.1 508.6 403.2 509.8C402 510.2 402.2 508.8 402.6 508C403.3 506.4 403.9 504.8 404.7 503.4C408.8 496.2 408.1 488.7 406.5 480.9C405 481.7 404.6 482.8 404.5 483.7C403.2 491.3 399.7 498.1 397.2 505.3C394.2 513.6 394 522.3 396.8 532.2ZM388.3 469.3C388.5 470.4 388.1 471.5 387.3 472.2C383.6 475.3 382.7 479.7 381.9 484.1C380.9 489.5 379.5 494.8 377.6 500C376.4 503.4 374.8 506.9 375.1 511.9C381.1 500.7 385.9 490.1 389.6 479.2C392 472.2 392.6 465.1 384.7 460.6C384.2 460.3 384 459.6 383.2 459.8C382.6 467.1 383.1 468.1 388.3 469.3ZM387.1 494.9C386.2 495.2 385.9 496 385.5 496.7C381.5 503.7 378.9 511.3 376.5 518.9C374.1 526.6 369.9 534.1 372.1 542.6C372.3 543.3 371.7 543.7 371.4 544.2C368.8 549.5 369.4 550.5 375.7 550.9C376.2 549.9 375.9 548.9 375.6 547.9C373.1 541.8 374.2 535.8 376.8 530.2C381.6 519.6 382.7 507.8 387.4 497.2C387.7 496.4 387.7 495.6 387.1 494.9ZM361.2 523.5C363.2 523.9 363 522.3 363.4 521.2C366.5 512.6 366.9 503.4 369.7 494.7C371.4 489.3 372.4 483.8 374 477.2C363.3 488.7 360.5 505.2 361.2 523.5ZM371 515.4C370.4 515.7 369.8 515.8 369.7 516C366.2 522.2 365.6 529.2 363.8 535.9C363.5 537.2 364.2 538.6 365.5 538.9C367.1 539.4 367.6 537.8 368 536.7C370.1 529.8 370.1 522.6 371 515.4ZM255.7 561.2C255.2 561.2 254.8 561.2 254.3 561.1C254 566.2 252.3 571 251.2 575.9C250.7 578 251.7 578.4 253.4 578.8C256.6 579.5 257.2 577.2 257.1 575.3C257 570.6 256.3 565.9 255.7 561.2ZM367.7 475.7C371.4 471.3 374 466.1 375.3 460.3C371.7 464.8 368.4 469.5 367.7 475.7ZM363.5 544.2C362.7 547.1 361.5 549.6 359.8 551.9C359.1 552.9 359.5 554.4 360.8 555.1C362 555.7 362.6 554.5 363.2 553.8C365.5 550.9 365.2 547.7 363.5 544.2ZM414.9 478.4C416.6 473.8 417.2 470.7 414.8 466.4C413.7 470.6 414.1 473.8 414.9 478.4ZM373 497.9C371.4 499.9 370.9 501.6 371.6 503.9C373.4 502.1 373.8 500.4 373 497.9ZM398.3 541.1C399.6 538.8 400.5 536.9 400.1 533.9C397.9 536.3 397.5 538.3 398.3 541.1ZM204.4 646.6C206.1 646.7 207.9 648.2 209.7 646.3C207.8 645.7 206.1 645.4 204.4 646.6Z" fill="#10100F"/>
<path d="M328.5 331.3C325.4 332.5 323.7 333.4 321.9 333.9C317.8 334.9 314.7 331.9 315.3 327.9C316 322.8 323.6 314.9 328.7 313.8C332.8 312.9 335.5 314.8 337.2 318.3C348.7 309.6 350.4 295.9 356.2 284.5C357.4 290.1 355.1 303.7 345.4 315.9C344.6 317.2 334 330.5 332.2 337.9C330.7 344 326.9 348.9 324.8 354.6C324.2 356.2 322.5 357.1 320.6 356.7C318.4 356.2 317.7 354.6 317.5 352.5C317.3 350.4 318.4 348.9 319.6 347.4C323.1 342.9 325.4 337.7 328.5 331.3ZM321.3 327.7C324.4 327.6 326.9 326.6 329.2 325.2C331.2 323.9 331 321.8 330 320.3C329.1 318.9 327.2 319.5 326.1 320.4C324 322.1 321.7 324 321.3 327.7Z" fill="#F26A25"/>
<path d="M619.2 486.3C619.1 489.7 617.4 491.6 614.1 491.8C610.6 492 607.7 489 607.9 485.4C608.1 482 610.1 480.4 613.4 480.4C616.8 480.5 619.3 483 619.2 486.3Z" fill="#10100F"/>
<path d="M418.1 419.4C418.2 421.7 416.6 422.3 414.9 422.4C413.3 422.5 411.9 421.9 411.8 420C411.6 417.7 413 416.3 415.1 416.2C416.9 416 418 417.4 418.1 419.4Z" fill="#10100F"/>
<path d="M401.6 416.6C403.4 416.5 404.3 417.4 404.3 419.2C404.4 421.4 403.6 422.9 401.2 423C399.4 423.1 398.4 421.8 398.3 420.3C398.2 418.2 399.2 416.7 401.6 416.6Z" fill="#10100F"/>
<path d="M292.8 467.4C295.2 467.3 296.9 468.7 297 470.8C297.1 473.3 295.9 475.1 293.8 475.3C291.8 475.5 289.6 473.5 289.4 471.2C289.3 469.3 290.8 467.5 292.8 467.4Z" fill="#10100F"/>
<path d="M283.6 472.2C283.6 474 282.3 475.5 279.8 475.7C277.5 475.9 275.9 474.2 275.9 471.7C275.9 469.1 277.8 467.4 280.4 467.6C282.5 467.8 283.6 469.1 283.6 472.2Z" fill="#10100F"/>
<path d="M151.5 578.9C153.9 574.9 147.6 574.1 151.8 571.5C153.7 570.3 152.9 568.5 153.4 566.9C151.8 566.6 150.9 567.5 150.1 568.2C149 569.2 147.7 570 146.3 570.5C144.5 571.1 143.4 570.3 143.3 568.4C143.3 566.8 143.6 565.1 144.9 564C145.8 563.2 146.7 562.6 147.9 561.7C146.5 560.4 145 559.8 143.3 559.7C141.7 559.6 140.9 558.7 140.7 557.2C140.5 555.5 141.5 554.4 143 553.9C144 553.6 145 553.5 146 553.3C147.4 553 149.1 553.1 149 550.9C148.9 549 147.4 549.1 146.1 548.9C144.1 548.6 142 548.3 140 548C139.3 547.9 138.5 547.9 137.8 547.6C136.6 547.2 135.9 546.2 136 544.9C136.1 543.7 137.1 543.3 138.2 543.1C140.1 542.8 142 542.5 143.9 542.2C144.5 542.1 145.1 542 145.1 541.2C145.1 540.5 144.6 540.2 144 540C143.1 539.8 142.3 539.6 141.4 539.5C139 539.1 137 537.5 136.6 535.5C136 532.7 134.4 531.6 132 530.8C131 530.4 130.3 529.7 129.8 528.7C128.1 525.4 129.3 522.9 133.2 522C132.9 519.5 132.2 517.3 130.2 515.5C129.6 515 129.1 514.1 128.9 513.2C128.1 510.4 129.2 509.3 132 509.9C133.2 510.2 134.3 511.4 135.8 510.8C136.6 509.5 136.1 508 136.2 506.6C136.3 505.7 136.3 504.8 136.5 504C136.8 502.9 137.7 502.3 138.8 502.3C140.1 502.4 140.4 503.5 140.4 504.5C140.4 506.4 140.3 508.3 140.3 510.2C140.3 510.9 140.4 511.7 141.6 512.2C142.4 510.8 143.3 509.4 144.1 507.9C144.8 506.7 145.6 505.5 147.1 506C148.8 506.6 148.5 508 148.1 509.3C148 509.6 148.1 510 148.1 510.7C149.1 509.7 149.9 508.8 150.8 508.1C151.5 507.5 152.5 507.5 153.2 508.2C153.8 508.8 153.8 509.5 153.6 510.2C153.5 510.3 153.5 510.5 153.4 510.6C153.1 511.6 151.3 512.3 152.5 513.6C153.7 514.9 154.8 514.1 156 513.3C156.6 512.9 157.4 513 158.1 512.8C158.5 512.7 159 512.7 159.4 512.5C159.7 512.3 160 511.7 159.9 511.4C158.8 508.9 162.1 506.9 160.8 504.5C159.6 502.3 158.4 500.4 161.5 498.6C162.6 498 161.4 496.4 161.2 495.3C161 494.2 160.8 493.1 162 492.6C163.2 492 163.9 492.9 164.5 493.8C166.9 497.1 169.8 499.9 172.8 502.6C173.8 501.5 173.4 500.7 172.9 500C170.4 496.5 169.5 492.2 167.1 488.6C166.7 488 166.4 487.3 166.2 486.6C165.3 483.4 166.2 482 169.8 480.9C169.1 479.2 168.4 477.4 167.6 475.7C167.2 474.8 166.8 473.8 166.8 472.8C166.9 472 167.3 471.4 168.1 471.2C168.7 471.1 169.2 471.5 169.5 472.1C171.5 475.2 173.5 478.3 175.5 481.3C175.9 481.9 176 482.7 177.2 482.8C177.4 481 176.9 479.4 176.4 477.8C174.8 472.6 173.3 467.4 171.6 462.2C171.3 461.2 170.9 460.2 172.2 459.6C173.4 459.1 174.1 459.8 174.8 460.7C176.7 463 177.4 466 179.4 468.2C180.8 467.8 180.5 466.6 180.6 465.7C181 462.3 181.2 459 181.5 455.6C181.6 454.7 181.5 453.6 182.7 453.7C183.7 453.7 184.1 454.7 184.1 455.6C184.2 456.5 184.2 457.4 184.1 458.2C184.1 459.6 184 460.5 186 460.6C187.7 460.6 187.4 463.1 188.6 464.7C189.7 463.1 190.6 461.6 191.6 460.3C192.3 459.4 193.2 459 194.3 459.4C195.6 459.9 195.4 461 195 462C194.4 463.2 194.1 464.3 194.7 465.8C195.4 467.6 193.9 468.8 193 470.1C190.6 473.2 188.8 476.6 186.8 481.2C189.7 479.9 191 478.2 192.5 476.8C193.2 476.2 193.7 475.5 194.3 474.9C195 474.2 195.9 474 196.7 474.7C197.5 475.4 197.4 476.3 197 477.1C196.6 478.2 195.5 478.9 194.8 479.8C192.9 481.9 190.1 483.4 190.6 487C190.7 487.8 189.3 488.1 189.3 489.6C190.6 488.8 191.8 488.1 192.9 487.4C193.8 486.9 194.6 487 195.3 487.7C196 488.5 195.8 489.4 195 490C192.8 491.8 191.3 494.2 189 495.8C186 497.9 183.8 500.9 181 503.4C180.2 504.2 179.6 505.2 179.5 506.8C183.3 504.5 185.8 501.2 188.8 498.5C189.2 498.1 189.5 497.6 189.9 497.1C190.6 496.3 191.5 495.6 192.6 496.3C193.8 497.1 193.4 498.3 192.8 499.4C192 500.8 191.2 502.2 190.5 503.7C187.8 505.1 187.8 505.1 189.3 508.1C186.9 510.2 185.9 513.1 184.7 515.9C184.5 516.4 184.7 516.7 185 517C185.4 517.4 186 517.2 186.1 516.9C187.1 514 189.8 511.6 189.2 508.2C190.4 506.9 190.4 505.3 190.4 503.6C192.7 503.5 193.5 501.6 194 499.8C195 496.4 197.1 494 199.5 491.5C203.3 487.4 207.4 483.6 211.4 479.8C214.6 476.8 216.4 473 218.9 469.5C219.9 468.1 219.2 466.7 218.9 465.3C217.8 459.8 220.5 457.1 225.9 458C228.5 458.4 230.6 460.1 231 462.2C231.4 464.4 229.3 468.7 227 468.9C223.2 469.3 221.4 471.8 219.9 474.6C216.4 480.9 210.8 485.3 205.6 490C203.3 492.1 202.1 493.8 203.1 497.1C204 500 203.5 503.2 203 506.3C202.6 508.7 202.9 510.9 202.9 513.2C204.4 513.4 204.3 512.3 204.5 511.5C205.7 506.7 206.6 501.7 207.2 496.8C207.4 495.3 207.1 493 209.4 493.2C211.8 493.4 210.9 495.6 210.8 497.1C210.2 503.7 208.8 510.2 206.9 517.1C209.9 515.9 212.2 514.6 213.4 512C214.7 509.2 216.4 506.6 217 503.5C217.1 503.2 217.1 502.9 217.2 502.7C217.9 501.3 218.4 499.3 220.5 499.9C222.8 500.6 221.7 502.4 221.2 503.9C220.6 505.8 220.7 507.9 219.5 509.6C221.1 510.6 222.1 509.6 223.2 509.4C224.8 509 226.3 508.6 228 508.8C229.1 508.9 230.1 509.3 230.2 510.5C230.4 511.9 229.8 512.8 228.5 513.2C226.2 513.7 224.1 514.5 222.2 516C223.2 517.4 224.7 517.5 225.7 518.2C227 519.1 227.5 520.2 226.9 521.6C226.2 523.1 224.9 522.5 223.9 521.9C221.7 520.5 219.4 520.2 216.3 521.3C219 523 221.4 523.3 223.8 523.8C225 524 226.1 524.3 226.7 525.5C227.5 527.2 226.6 529.2 224.9 529.1C222 528.9 219.5 531.6 216.5 530.2C215.7 529.9 215.3 530.6 215.2 531.5C215 533.6 213.5 533.9 211.7 533.9C206.2 533.9 201.1 536 195.7 537C195.1 537.1 194.6 537.4 194.6 538.5C200 537.9 205.2 537.2 210.4 535.7C211.7 535.3 213.4 534 214.3 535.8C215.3 537.6 213.7 539 212.2 539.5C209.9 540.2 209.8 542.2 209 543.7C207.1 547 205.2 550.2 203.6 553.7C206.5 552.9 208.5 550.8 210.6 548.9C212.7 547 214.7 545.2 216.9 543.4C217.6 542.8 218.5 542.3 219.3 543C220.3 543.8 220 544.8 219.4 545.8C218 547.9 216 549.7 215.2 552.8C218.6 550.5 221.6 548.5 224.7 546.5C225.7 545.8 226.9 544.5 228.2 545.8C229.5 547 228.5 548.2 227.7 549.3C227.4 549.8 227 550.3 227.2 550.9C229 550.4 230.7 549.4 232.7 549.6C233.7 549.7 234.9 549.5 235.2 550.9C235.4 552 234.9 552.9 233.9 553.5C232.4 554.3 230.8 555.1 229.1 555.9C233 558.5 234.3 559.2 229.6 562.4C231.2 563.6 232.7 564.7 234.2 565.8C235.5 566.7 237.4 567.6 235.9 569.5C234.5 571.3 233 569.9 231.7 569C230.1 567.9 228.5 566.9 226.7 565.8C225.8 567 227.1 568.6 225.6 569.4C224.2 570.1 223 569.4 221.8 569.1C218.6 568.2 215.4 567.2 212.3 566.3C212.7 566.7 213.3 567.2 213.6 567.8C214 568.6 214.1 569.5 213.3 570.2C212.6 570.8 211.9 570.5 211.2 570.2C206.8 568 202.1 566.9 197.5 565.2C195.9 564.6 194.4 564.2 193.1 566.1C195.6 567.4 198.4 567.9 200.8 569.3C202.1 570.1 203.3 570.9 204.4 571.8C205.8 572.8 207 574.1 206 575.9C204.9 578 202.9 577.1 201.3 576.5C199.3 575.7 197.3 574.7 195.3 573.7C194.5 573.3 193.8 572.8 192.4 573.2C193.1 574.5 194.3 575.7 194.3 577.1C194.3 578.3 194.1 579.5 192.7 579.9C191.2 580.3 191.2 579.1 190.8 578.2C189.8 576 185.8 574.1 183.4 574.5C182.5 574.7 182.3 575.3 182.4 576.1C182.5 577.2 185.3 578.9 186.1 579.5C188.3 581.5 181.1 582 174 582L158.6 580.7L151.5 578.9ZM194.2 525.8C195.9 522.4 199.6 500.4 199.1 497.3C197 499.3 197.1 502.2 195.7 504.3C193.7 507.3 193.6 510.5 194 514C194.4 517.9 194.7 521.8 194.2 525.8ZM182.7 559.7C188.8 557.3 194.9 555 199.9 550.6C193.4 552.2 187.5 554.9 182.7 559.7ZM153.2 534.4C156.3 532.5 154.4 526.8 159.7 528.2C159.6 526.6 159.6 525.1 159.5 523.7C159.4 522.7 158.6 522.2 157.8 522C157 521.8 156.3 522.4 156.1 523.1C154.9 526.6 153.5 530.1 153.2 534.4ZM154.7 574.8C158.2 576.2 160.8 576.8 163.6 576.5C165.4 576.3 165.7 575 165.6 573.7C165.6 572.2 164.2 572.5 163.3 572.5C160.5 572.3 157.9 573.1 154.7 574.8ZM224 565.2C222.7 562.2 220.3 561.8 218.3 560.7C215 558.9 215 559 212.2 560.5C215.3 563.8 219.5 564.2 224 565.2ZM175.2 497C176.2 492.9 174.9 490.4 170.8 488.2C172.1 491.2 173.3 493.9 175.2 497ZM163.6 524.7C164 526.7 165.2 527.8 166.3 528.9C166.8 529.3 167.3 529.5 167.9 529.2C168.7 528.8 168.8 528 168.5 527.3C167.8 525.1 166.4 523.8 163.6 524.7ZM189.2 529.6C189.6 526.4 189.6 523.7 189.3 520.5C186.2 524.6 186.2 524.6 189.2 529.6ZM173.1 530.4C175.2 527.7 178.7 526.2 180.4 522.7C176.3 524.2 174 526.8 173.1 530.4ZM227.2 463.9C227.7 463.1 227.6 462.4 226.8 462C225.5 461.2 223 461.6 222.4 462.7C222 463.4 222.1 464.1 222.8 464.6C224.1 465.3 226.6 464.9 227.2 463.9ZM163.6 567.5C159.9 566.4 159.9 566.4 158.2 569.1C160 568.3 162 569 163.6 567.5ZM159 517.3C160 519.7 161.7 520.1 163.6 520.3C162.5 518.8 161.4 517.4 159 517.3ZM179 548.2C177.6 550 177.4 551.8 178.5 554C180.5 552 179.3 550.1 179 548.2ZM151.7 523C150.4 524 149.6 525.2 149.5 526.7C150.8 525.7 152 524.8 151.7 523ZM151.9 539.7C151.3 539.8 150.5 540 150.3 540.7C150.1 541.4 150.5 542.2 151.3 542.4C152.3 542.6 152.4 541.7 152.6 541.1C152.8 540.5 152.7 540 151.9 539.7ZM164.1 537.5C163.1 536.4 162 535.4 159.9 535.4C161.3 536.9 162.3 538 164.1 537.5ZM147 533.3C146.9 533.8 147.1 534.1 147.5 534.3C148.3 534.7 148.8 534.5 149.2 533.7C149.5 533.1 149.3 532.5 148.7 532.4C148.1 532.3 147.4 532.7 147 533.3ZM175 537.7C175.2 537.2 175.1 536.5 174.5 536.3C173.8 536.1 173.2 536.7 172.7 537.3C172.2 538 172.7 538.5 173.2 538.6C174 538.9 174.7 538.6 175 537.7ZM153 519.7C154.4 519.5 154.9 518.9 155 518C155 517.8 154.7 517.4 154.6 517.4C153.4 517.6 153.1 518.5 153 519.7ZM159.9 550.3C160.6 551.4 161.5 551.7 162.7 551C163 550.8 163.1 550.6 162.8 550.3C161.9 549.3 160.9 549.3 159.9 550.3ZM186.1 570C187.1 571.2 188.1 571.3 189.6 571.6C188.5 570.5 187.7 570.1 186.1 570Z" fill="#10100F"/>
<path d="M636.6 170.13C630.9 170.43 625.3 170.13 619.7 169.33C608.9 167.83 599.4 163.63 591.2 156.33C589.7 155.03 588.2 153.63 586.4 152.53C576.5 146.73 569.8 137.83 565.3 127.73C559.8 115.33 555.9 102.33 560.1 88.4301C560.5 87.1301 560.8 85.8301 560.9 84.4301C561.7 65.4301 571.4 50.3301 582.5 35.9301C592.7 22.6301 606 13.0301 620.9 5.53009C628.1 1.93009 636.2 2.03009 643.9 0.530089C651.8 -1.06991 659.3 1.23009 666.4 3.73009C681.7 9.03009 696.3 16.0301 708.9 26.7301C712.5 29.7301 716.1 32.8301 719.7 35.7301C723.8 39.0301 724.2 44.2301 726.7 48.4301C732.5 58.1301 733.2 69.1301 734 80.0301C734.9 92.2301 732 103.63 727.2 114.73C719.4 132.43 707 146.23 690.6 156.03C674.1 165.83 656 170.53 636.6 170.13ZM712.4 126.93C713.3 125.93 714.4 125.03 715.1 123.93C729.5 100.03 733 75.3301 720.8 49.5301C718.1 43.9301 717.6 43.8301 711.7 46.8301C710.5 47.4301 709.2 47.7301 708 48.3301C705.8 49.3301 703.8 49.3301 703.2 46.6301C702.7 44.4301 702.8 42.0301 705.7 41.2301C707.9 40.6301 710.1 39.9301 712.8 39.1301C709.9 36.0301 708.2 32.5301 704.3 31.2301C703.4 32.8301 703.3 34.1301 704.2 35.3301C705.1 36.6301 705.3 37.8301 704.1 38.9301C702.7 40.1301 701.8 38.6301 700.7 38.4301C696.5 37.6301 695.1 32.8301 691.3 31.8301C689 31.2301 687.5 30.3301 687.4 28.0301C687.3 24.8301 690.1 25.7301 691.8 25.1301C692.1 25.0301 692.2 24.4301 692.5 24.1301C687.7 19.1301 687.7 19.1301 682.2 21.7301C682.5 22.6301 682.7 23.4301 683 24.3301C683.7 26.3301 686.3 28.1301 684.9 30.3301C683 33.2301 681 29.7301 679 29.6301C673.5 29.2301 673.5 28.9301 675.4 23.7301C675.7 22.9301 676.3 22.1301 674.9 21.0301C671.3 24.9301 667.6 24.6301 663.9 20.7301C663.1 19.9301 661.4 19.8301 660.1 19.6301C657.9 19.3301 656.3 18.3301 654.9 16.8301C653.3 15.0301 651.6 13.8301 649.1 14.1301C647.7 14.3301 646.4 13.8301 645.3 12.9301C639.7 8.23009 633.1 9.13009 627.5 11.3301C616.2 15.8301 605.6 21.8301 596.7 30.5301C584.3 42.6301 575.1 57.0301 568.7 73.1301C568 74.8301 567.5 76.6301 567.4 78.3301C567.4 82.6301 566.6 86.8301 565.9 91.0301C562.5 111.43 569.9 128.43 583.7 142.63C589.7 148.83 596.9 154.13 604.6 158.53C615.2 164.73 626.7 164.53 638.6 164.63C638 162.33 637.5 160.93 637.3 159.33C637 157.83 637.9 156.73 639.2 156.03C640.9 155.03 641.5 156.63 642.5 157.43C644 158.63 644 160.73 645.2 162.03C645.6 162.53 646.1 163.13 646.8 162.53C647.3 162.13 647.8 161.13 647.4 160.93C644.3 159.53 644.9 157.73 647.4 156.93C649.8 156.13 650.3 158.23 650.3 160.23C650.3 161.63 650.9 162.93 652.2 163.53C654.7 164.53 659.5 162.43 660.3 159.83C661.1 157.43 663.2 155.33 662.1 152.33C661.8 151.53 662.7 150.23 663.3 149.33C664 148.33 665.1 148.03 666.3 148.43C667.3 148.83 667 149.83 667.2 150.73C667.9 153.03 666 155.13 666.7 157.43C667.1 158.83 667 161.03 669.4 160.23C670.9 159.63 674 159.53 671.5 156.33C669.8 154.13 671.3 152.43 673.3 151.53C674.5 150.93 676 151.13 676.3 148.93C672.1 148.83 670.1 146.23 669 141.83C674.2 144.13 673 136.83 677.3 136.73C677.2 138.93 680.1 140.73 677.4 142.73C676.3 143.53 674.7 143.73 675.9 145.53C677.1 147.33 678.2 145.73 679.2 145.13C680.1 144.53 681.5 144.93 682.2 143.63C682 143.13 681.8 142.43 681.5 141.93C680.6 140.43 680.2 138.93 682.3 138.03C683.8 137.43 684.8 138.53 685.6 139.63C687.3 141.93 686.9 146.13 684.8 148.53C683 150.53 681.3 152.63 679.5 154.63C685.4 153.13 690.2 150.33 694.4 146.63C695.4 145.73 696 145.03 695.3 143.33C693.7 139.13 694 139.03 698.1 138.23C699.9 137.83 701.6 137.73 703.4 138.03C704.5 138.13 706 137.53 705.8 136.23C705.2 131.43 708.1 130.13 712 129.43C712.8 129.33 713 128.03 712.9 127.13C712.6 126.73 712.4 126.93 712.4 126.93ZM671.5 13.2301C668.5 11.5301 666.3 9.63009 663.2 11.9301C662.3 12.5301 661.1 12.9301 661.7 14.4301C662.2 15.7301 662.9 17.2301 664.4 16.6301C666.7 15.8301 669.5 16.2301 671.5 13.2301ZM660.7 10.9301C659.1 8.23009 656.7 7.53009 654.4 8.33009C652.9 8.83009 653.1 10.9301 654.2 12.6301C656.2 12.0301 658.3 11.5301 660.7 10.9301Z" fill="#10100F"/>
<path d="M713.7 96.13C712.8 95.43 712.2 95.03 711.7 94.73C710.6 94.03 710 92.23 708.4 93.23C707.1 94.03 707.2 95.43 707.8 96.83C708.7 98.63 707.7 99.33 706.1 99.53C704.2 99.83 703.1 98.83 703.2 96.83C703.3 90.43 703.3 90.43 697.4 88.83C696.2 88.53 695.1 88.23 695.2 86.83C695.3 85.53 696.3 84.83 697.5 84.83C700.6 84.83 703.8 84.73 706.7 87.13C707 84.83 707.9 82.73 707.2 81.73C704.1 77.33 706.8 72.53 706.1 68.03C705.9 66.93 706.2 65.73 707.6 65.33C708.6 65.03 709.3 65.53 710 66.13C711.9 67.83 714.2 69.53 712.4 72.33C709.5 77.03 711.1 80.33 715.1 83.23C715.6 83.63 715.8 84.33 716.2 85.03C714.6 87.73 711.3 86.63 709.1 88.23C711.8 88.23 713.9 89.53 716.3 90.13C720.1 91.13 721.7 93.53 720 96.73C718 100.43 714.1 102.73 712 106.53C711.4 107.63 709 107.73 707.7 106.43C706.3 105.03 706.5 103.23 708.1 102.43C710.8 101.03 711.5 98.33 713.7 96.13Z" fill="#10100F"/>
<path d="M712.6 126.73C709.4 126.43 705.6 123.73 704 129.23C703.6 130.53 702.3 130.43 701.3 129.53C700.3 128.63 699.5 127.33 698.3 126.93C697 126.53 695.4 124.83 694.1 126.13C692.7 127.63 694.3 128.63 695.5 129.83C697.2 131.53 697.3 133.33 694.5 134.43C693.1 135.03 692.1 136.43 690.8 137.13C689.6 137.83 688.1 138.23 687 137.13C685.5 135.73 687 134.83 687.8 133.83C688.2 133.33 689.2 132.63 689.1 132.43C684.7 124.53 693 123.33 696.3 118.93C692.7 118.43 693.2 114.23 690.1 112.73C688.6 112.03 690 109.83 691.5 109.13C692.8 108.53 694.5 107.53 695.5 109.73C696.2 111.33 696.9 113.03 697.5 114.73C698.5 117.93 702.2 118.63 703.7 117.93C706.7 116.53 707.6 118.33 709.4 119.53C712.2 121.43 713.4 123.63 712.7 126.93C712.4 126.93 712.6 126.73 712.6 126.73Z" fill="#10100F"/>
<path d="M721.3 69.53C717.8 68.93 713 70.03 714.1 63.83C714.2 63.53 713.8 62.93 713.4 62.73C707.6 59.93 711.8 55.33 711.4 51.53C711.2 49.53 713.3 48.53 715.3 49.23C717.2 49.93 718.3 52.23 717.2 53.43C714.8 56.03 715.6 58.03 716.9 60.53C718 62.93 719.1 64.63 722.3 64.23C724.2 64.03 724.1 66.63 724.2 67.93C724.3 69.83 722.7 69.83 721.3 69.53Z" fill="#10100F"/>
<path d="M724.6 75.3301C720.7 78.0301 726.7 80.3301 725.3 83.3301C724.9 84.2301 725.3 85.6301 724 86.0301C722.8 86.4301 721.8 85.8301 721.2 84.8301C720.6 83.9301 720.3 82.7301 719.5 82.0301C718.2 80.8301 716.4 80.0301 716.8 77.8301C717.2 75.3301 719.4 74.2301 721 72.9301C722.4 71.6301 724.5 73.0301 724.6 75.3301Z" fill="#10100F"/>
<path d="M713.4 115.73C711.6 115.53 710.2 114.43 711.1 112.63C712.6 109.53 714.5 106.63 716.6 103.93C717.5 102.83 719.1 103.13 719.5 105.03C720 107.73 717 114.43 714.7 115.53C714.3 115.73 713.8 115.73 713.4 115.73Z" fill="#10100F"/>
<path d="M685.7 38.7301C685.7 38.0301 685.7 37.3301 685.7 36.7301C685.8 35.8301 686.1 34.9301 687.1 34.7301C688.1 34.5301 688.8 35.2301 689.2 36.0301C689.5 36.8301 689.6 37.7301 689.9 38.6301C690.5 40.6301 691.2 41.3301 693 39.5301C694.4 38.1301 695.6 39.3301 696.1 40.6301C696.9 42.5301 695.4 42.8301 694 42.9301C693.3 42.9301 692.6 42.8301 692 43.0301C686.1 44.8301 685.5 44.5301 685.7 38.7301Z" fill="#10100F"/>
<path d="M705.7 110.23C705.6 111.33 705.2 112.03 704.3 112.33C702.9 112.83 701 112.53 700.7 111.43C700.1 109.03 699.3 107.33 696.9 106.23C695.9 105.83 696.3 104.13 697.1 103.23C697.9 102.33 699.3 101.53 700 102.33C702.1 104.83 703.9 107.63 705.7 110.23Z" fill="#10100F"/>
<path d="M700.7 51.4301C703.3 51.2301 705.1 52.1301 705 54.5301C704.9 57.3301 702.5 57.9301 700.2 58.0301C697.9 58.1301 696.4 56.9301 696.3 54.5301C696.3 51.2301 698.8 51.3301 700.7 51.4301Z" fill="#10100F"/>
<path d="M664.8 57.2301C664.3 59.7301 662.5 60.6301 660.4 60.5301C659.2 60.5301 658.4 59.5301 658.6 58.2301C658.9 56.0301 659.8 54.3301 662.4 54.6301C663.9 54.8301 664.8 55.7301 664.8 57.2301Z" fill="#10100F"/>
<path d="M692.8 103.13C691.2 102.93 690.1 102.23 690.2 100.63C690.3 98.93 691.2 97.5301 693.1 97.4301C694.8 97.3301 696.3 98.13 696.4 100.03C696.6 102.53 694.2 102.43 692.8 103.13Z" fill="#10100F"/>
<path d="M660 154.83C659.6 156.63 658.7 158.43 656.5 158.73C655.3 158.83 654.7 157.63 654.8 156.43C654.9 154.33 655.5 152.43 658.1 152.43C659.3 152.43 660 153.23 660 154.83Z" fill="#10100F"/>
<path d="M600.4 97.5301C600.1 99.3301 599.1 99.7301 597.8 99.9301C595.9 100.23 594.7 99.6301 594.9 97.4301C595.1 95.4301 596.5 94.8301 598.2 95.0301C600.2 95.3301 600.6 96.2301 600.4 97.5301Z" fill="#10100F"/>
<path d="M609.4 152.13C609.1 153.83 608.1 154.83 606.2 154.93C604.6 154.93 603.6 154.03 603.6 152.53C603.7 150.73 604.8 149.73 606.7 149.73C608.4 149.63 609.2 150.43 609.4 152.13Z" fill="#10100F"/>
<path d="M630.8 125.63C631.2 124.13 631.6 122.43 633.5 122.33C634.9 122.33 636 123.43 636.3 124.83C636.6 126.73 635.3 127.63 633.6 127.83C632 128.03 631.1 127.13 630.8 125.63Z" fill="#10100F"/>
<path d="M615.8 41.2301C615.8 42.9301 614.7 43.4301 613.2 43.6301C612 43.7301 610.9 43.2301 610.8 41.8301C610.7 40.2301 611.1 38.4301 613.2 38.4301C614.6 38.3301 615.4 39.6301 615.8 41.2301Z" fill="#10100F"/>
<path d="M654.4 88.83C652.9 88.73 651.7 88.23 651.8 86.53C651.8 84.93 652.4 83.33 654.3 83.23C656.1 83.13 657.1 84.23 657.3 86.03C657.4 88.03 656.1 88.63 654.4 88.83Z" fill="#10100F"/>
<path d="M635.7 30.2301C635.5 30.2301 634 29.9301 634.3 27.7301C634.5 26.3301 635.2 25.0301 636.8 25.3301C638.5 25.6301 639.3 27.1301 639.5 28.6301C639.6 30.0301 638.3 30.2301 635.7 30.2301Z" fill="#10100F"/>
<path d="M601.5 133.13C601.6 134.83 600.2 135.33 599 135.53C597.4 135.83 596.4 135.13 596.4 133.43C596.4 132.03 597.1 130.83 598.7 130.73C600.3 130.73 601 131.83 601.5 133.13Z" fill="#10100F"/>
<path d="M699.9 64.7301C699.8 65.8301 699.4 66.5301 698.4 66.6301C696.6 66.8301 694.7 66.8301 694.4 64.4301C694.3 63.3301 694.9 62.0301 696 61.8301C698.2 61.5301 699 63.3301 699.9 64.7301Z" fill="#10100F"/>
<path d="M654.1 112.53C653.9 114.23 652.7 114.73 651.3 114.73C650 114.73 649.4 113.93 649.3 112.63C649.3 111.13 649.8 109.93 651.5 110.03C652.9 110.23 653.9 111.03 654.1 112.53Z" fill="#10100F"/>
<path d="M641.2 43.9301C641.4 45.4301 640.1 46.0301 638.8 46.2301C636.9 46.5301 636.8 45.0301 636.7 43.7301C636.6 42.3301 637 41.0301 638.8 41.0301C640.6 40.9301 640.8 42.3301 641.2 43.9301Z" fill="#10100F"/>
<path d="M701.6 45.8301C701.8 47.6301 700.7 48.1301 699.6 48.1301C698.1 48.2301 696.8 47.5301 697 45.8301C697.2 44.5301 697.8 42.9301 699.4 43.0301C701 43.1301 701 44.9301 701.6 45.8301Z" fill="#10100F"/>
<path d="M597.8 52.2301C597.7 53.7301 596.7 53.9301 595.5 54.0301C594.2 54.1301 593.3 53.5301 593.3 52.1301C593.3 50.9301 593.9 49.8301 595.1 49.6301C596.8 49.4301 597.4 50.8301 597.8 52.2301Z" fill="#10100F"/>
<path d="M682.1 127.73C682.3 129.23 681.5 130.03 680.3 130.03C678.9 130.03 678.6 128.93 678.7 127.73C678.8 126.43 679.1 124.93 680.9 125.23C682.4 125.43 681.6 127.03 682.1 127.73Z" fill="#10100F"/>
<path d="M697.9 77.7301C697.9 79.2301 697.3 80.0301 696 80.1301C694.7 80.3301 693.8 79.6301 693.7 78.3301C693.5 76.9301 694.4 76.2301 695.6 76.1301C696.8 76.0301 697.7 76.5301 697.9 77.7301Z" fill="#10100F"/>
<path d="M620.6 76.5301C620.6 77.9301 619.7 78.5301 618.5 78.5301C617.4 78.5301 616.4 77.7301 616.7 76.4301C616.9 75.2301 617.7 74.2301 618.8 74.2301C620 74.1301 620.5 75.3301 620.6 76.5301Z" fill="#10100F"/>
<path d="M654.3 151.13C653.8 152.33 653 152.23 652.1 152.03C650.9 151.83 650.2 151.03 650.6 149.73C650.8 148.73 651.5 148.23 652.5 148.73C653.4 149.33 654.2 150.13 654.3 151.13Z" fill="#10100F"/>
<path d="M578.2 78.53C579.7 78.73 580.8 79.43 580.8 80.73C580.8 81.83 579.6 81.93 578.7 81.83C577.7 81.73 576.8 81.33 576.7 80.23C576.4 78.83 577.6 78.93 578.2 78.53Z" fill="#10100F"/>
<path d="M30.437 194.203C28.0697 192.452 25.4873 191.008 22.7327 189.345C25.0999 187.944 27.5963 187.332 29.7483 185.493C27.4241 183.918 25.5734 185.318 23.6796 185.493C22.7757 185.581 21.7858 186.412 21.0111 185.099C20.3224 183.918 20.968 183.174 21.7858 182.517C23.8087 180.985 24.9708 178.841 26.219 176.696C26.8216 175.69 28.5862 174.639 27.2089 173.501C25.8316 172.407 25.143 174.377 24.2391 175.164C23.5074 175.821 22.9049 176.653 22.2162 177.397C20.4085 179.279 18.6008 181.16 16.4918 183.393C14.9854 178.491 12.6182 174.595 9.90662 170C8.78757 172.013 8.87365 173.107 9.3471 174.202C10.5953 176.959 11.7574 179.804 13.1347 182.473C13.7372 183.611 14.0385 184.618 14.0385 185.493C13.8664 185.45 13.7372 185.406 13.5651 185.362C10.8105 184.924 8.14196 183.962 5 184.18C5.51649 185.887 6.42034 187.069 8.01284 187.55C9.47622 187.988 10.9396 188.557 12.446 188.732C12.2308 188.951 11.9726 189.126 11.7143 189.345C9.73446 190.964 7.41027 192.365 6.03297 194.816C7.23811 195.428 7.88372 194.772 8.61541 194.334C9.9927 193.546 11.413 192.846 12.8334 192.146C14.3828 191.402 15.2867 192.015 15.5449 193.678C15.8893 195.954 16.1905 198.273 16.5779 200.549C16.7501 201.643 17.0514 202.781 18.6869 203C19.9781 199.017 18.0843 194.991 19.0312 190.964C22.7757 192.584 25.8316 194.378 28.7584 196.479C29.8774 197.31 31.6421 199.105 32.8042 197.354C33.665 196.041 31.4699 194.991 30.437 194.203Z" fill="#10100F"/>
</svg>
