<svg width="316" height="294" viewBox="0 0 316 294" fill="none" xmlns="http://www.w3.org/2000/svg">
<path d="M53.8998 121.4C54.1998 123.6 56.7998 124.1 56.9998 126.3C57.0998 127.6 56.5998 129.7 55.9998 129.4C52.4998 127.8 49.3998 132 47.1998 130.9C43.4998 129.1 43.2998 131.7 41.8998 133.3C38.2998 137.7 36.3998 137.6 34.5998 132.2C33.6998 129.5 32.4998 130.2 30.8998 130.6C28.9998 131.1 27.3998 130.9 26.7998 128.9C26.1998 126.9 27.8998 126.5 29.0998 125.7C31.3998 124.2 34.8998 123.2 32.0998 119.2C31.6998 118.7 32.3998 117.7 33.0998 117.6C36.8998 117 36.2998 114.9 35.2998 112.3C34.6998 110.5 33.9998 108.3 36.3998 107.1C38.8998 105.9 40.5998 107.2 41.6998 109.4C44.1998 114.3 48.9998 115 53.6998 115.3C54.9998 115.4 56.4998 114.2 57.4998 115.9C58.4998 117.6 57.0998 118.6 55.9998 119.5C55.3998 120.3 54.5998 120.9 53.8998 121.4Z" fill="#10100F"/>
<path d="M10.3999 75.1C8.9999 75.3 8.6999 77.1 7.2999 77.3C6.4999 77.4 5.0999 77.1 5.1999 76.8C6.0999 74.4 3.2999 72.6 3.9999 71.1C5.0999 68.6 3.3999 68.6 2.1999 67.7C-0.800102 65.4 -0.800102 64.2 2.6999 62.9C4.4999 62.2 3.9999 61.5 3.5999 60.4C3.1999 59.2 3.2999 58.1 4.5999 57.6C5.8999 57.1 6.1999 58.3 6.7999 59C7.8999 60.5 8.5999 62.7 11.0999 60.8C11.3999 60.5 12.0999 61 12.1999 61.4C12.6999 63.9 14.0999 63.4 15.7999 62.7C16.8999 62.2 18.3999 61.7 19.1999 63.3C20.0999 64.9 19.1999 66.1 17.7999 66.9C14.5999 68.7 14.3999 71.9 14.2999 75C14.2999 75.9 15.0999 76.8 13.9999 77.5C12.8999 78.2 12.1999 77.3 11.5999 76.6C11.0999 76 10.7999 75.5 10.3999 75.1Z" fill="#10100F"/>
<path d="M103.3 55.4C102.4 56.1 102.9 57.4 102 58C101.5 58.4 100.4 58.7 100.4 58.4C100.2 56.5 97.5998 56.2 97.4998 55C97.2998 52.9 96.1998 53.5 95.0998 53.3C92.2998 52.8 91.7998 52 93.6998 49.9C94.5998 48.8 93.9998 48.5 93.3998 47.9C92.6998 47.2 92.3998 46.5 93.0998 45.7C93.7998 44.9 94.3998 45.6 95.0998 45.9C96.3998 46.5 97.6998 47.8 98.6998 45.5C98.7998 45.2 99.3998 45.3 99.6998 45.5C100.9 47 101.7 46.2 102.6 45.1C103.2 44.4 104 43.5 105.1 44.2C106.3 45 106.1 46 105.5 47.1C104 49.5 105 51.7 106 53.8C106.3 54.4 107.2 54.7 106.7 55.6C106.2 56.5 105.4 56.1 104.8 55.9C104.2 55.8 103.8 55.6 103.3 55.4Z" fill="#10100F"/>
<path d="M56.1 3.59996C56.8 4.49996 58.1 3.99997 58.7 4.79997C59.1 5.29997 59.4 6.30001 59.1 6.40001C57.2 6.70001 57 9.30001 55.8 9.40001C53.7 9.60001 54.4 10.8 54.2 11.9C53.8 14.7 53 15.2 50.8 13.4C49.7 12.5 49.4 13.1 48.8 13.7C48.2 14.4 47.4 14.8 46.6 14.1C45.8 13.4 46.4 12.8 46.7 12.1C47.3 10.8 48.5 9.49998 46.2 8.49998C45.9 8.39998 45.9 7.79999 46.2 7.49999C47.6 6.19999 46.8 5.5 45.7 4.7C44.9 4.1 44.1 3.3 44.8 2.2C45.5 0.999997 46.6 1.1 47.7 1.7C50.1 3.1 52.3 2.09999 54.4 0.999985C55 0.699985 55.3 -0.200003 56.2 0.199997C57.1 0.699997 56.7 1.39996 56.6 2.09996C56.5 2.79996 56.3 3.19996 56.1 3.59996Z" fill="#10100F"/>
<path d="M147.6 250.9C148.9 249.5 149.3 247.3 151.1 248C152.8 248.7 152.7 250.6 152.3 252.4C151.3 256 152.2 259 155 261.8C157.2 264 158.6 267 161.1 269C161.7 269.4 162.2 269.9 163.2 269.8C163.6 265.3 164.1 260.8 164.4 256.3C164.5 254.7 165 253.4 165.9 252.1C166.5 251.3 167.3 251 168.3 251.1C169.5 251.3 169.7 252.3 169.6 253.2C169.5 255.5 169.2 257.7 169.1 259.9C169 261.2 168.8 262.6 171 262.6C173 262.6 173.2 264.1 173 265.8C172.7 268.8 172.5 271.8 172.3 274.8C172.2 275.7 172.6 276.3 173.4 276.5C174.4 276.7 174.6 275.9 174.8 275.1C175.2 273.6 175 271.3 177.4 271.6C180.1 271.9 179.4 274.1 179.1 275.9C178.9 276.8 179.2 277.2 180.1 277.4C182.5 278.1 184.9 271.4 187.4 269.7C188 269.3 189 269.5 189.5 269.1C191.2 267.8 192.4 268.6 193.2 270C194 271.4 194 272.9 192.6 274.1C192.1 274.5 191.1 276.1 190.9 277.5C195.2 278.4 199.4 278.3 204.4 277.1C202.9 274.6 201.8 272.3 200.3 270.3C195.8 264.3 194.7 257.5 194.9 250.2C195 244.5 194.8 238.7 194.9 233C195.1 226.6 195.9 220.1 198.7 214.1C199.5 212.4 199.2 211.2 197.9 209.4C193.3 203.1 189.1 196.7 187.6 188.6C185.5 177.6 186.7 167.1 189.6 156.5C190 154.9 190.2 153.3 190.6 151.6C191.3 148.5 193 147.6 195.3 149.6C199.4 153 204.2 155.8 207.1 160.6C209.1 163.9 212.5 166.1 216.1 167C220.5 168.1 224.4 166.3 227.5 163.1C232.3 158 236.7 152.8 238.3 145.6C239.1 141.8 241.4 141.4 244 144.4C249.6 150.7 253.5 158 254.8 166.4C255.2 169.4 256.1 172.3 256.6 175.2C258.3 185.2 254.2 193.8 250.5 202.6C249.2 205.8 246 207.9 244.4 210.9C243.8 212 242.3 212.2 241.2 211.5C239.9 210.7 239.8 209.3 240.1 207.9C240.2 207.5 240.6 207.1 240.9 206.8C246.4 201.6 248.1 194.4 251.1 187.8C252.3 185.2 252.4 182.3 252.1 179.4C251.4 173.1 250.2 166.8 248.3 160.8C247.1 157.1 244.9 153.8 241.8 150.5C240.4 156.9 236 161.1 232.2 165.6C229.7 168.5 226.4 170.6 222.9 171.8C220 172.8 216.6 172.9 213.6 171.7C208.9 169.8 204.9 166.8 202.2 162.4C200.5 159.5 197.9 157.9 195.2 156.4C191.6 163.9 191 171.9 191.4 179.7C191.8 186.8 192.9 194.1 197.6 200.1C199.6 202.7 200.7 205.9 203.4 208.1C205 209.4 203.8 211.5 204 213.3C204.1 214.3 203.7 215.4 205.3 215.6C206.6 215.7 208.1 216.3 207.7 217.7C207.2 219.6 208.4 222.1 206.3 223.5C204.8 224.5 203.2 225.3 201.6 226.1C200.9 226.5 200.1 226.7 200.4 227.7C200.7 228.9 201.5 228.3 202.2 228.2C203.6 227.9 204.7 225.9 206.2 227.4C207.8 228.9 206.9 230.4 205.8 231.8C205.2 232.5 205.7 233.2 205.9 233.9C206.7 236.3 204 236.7 203.4 238.1C202.9 239.3 205.9 240.5 204.6 242.2C203.7 243.3 202.3 244.1 200.9 245.1C203.4 245.5 204.8 246.7 203.6 249.3C203.2 250.2 203.2 250.3 204.3 250.6C207.4 251.7 207.6 252.5 205.3 254.8C204.7 255.4 203.9 256 203 256.7C204.2 257.7 206.5 257.2 206.6 259.3C206.7 261.8 204.2 262.1 202.9 263C203.2 264.8 204.2 264.1 205.1 264.2C208.4 264.3 208.6 264.8 206.8 267.9C206.7 268.1 206.6 268.4 206.5 269C208.1 269.8 210.9 269.6 210.3 272.8C210.2 273.5 210.9 273.3 211.2 273.2C213.8 273 214.9 273.8 214 276.6C213.2 279.1 215.1 279.7 216.9 280.2C225.2 282.6 235.1 279.6 240.5 272.6C246.5 264.9 249.1 256.1 247.9 246.3C247.3 241.5 246.7 236.7 246.1 231.9C245.7 228.2 244.2 224.9 242.7 221.6C242.1 220.4 241.5 219.1 241.2 217.8C240.8 216.4 241.6 215.5 242.8 214.9C244.2 214.4 245.2 214.9 245.8 216.2C247.1 219.4 248.8 222.5 249.6 225.9C251.6 235 253.4 244.3 252.8 253.7C252 265.6 247.3 275.6 236.9 282.1C232.2 285.1 226.7 285.5 221.2 285.3C217.4 285.2 213.7 285.1 210.2 283.1C209.1 282.5 207.5 282.2 206.3 282.4C197.9 283.6 190.3 288.7 182.6 285.9C179.3 284.7 177.3 285.4 175.2 288.4C174.8 289 174.5 289.7 174 290.3C172.5 292 170.5 292 169 290.4C168.4 289.8 168.5 288.5 167.4 288.4C163.7 288.1 158.5 286.8 154.8 287.5C152.9 287.8 152.7 287.7 151.3 289.6C150.5 290.7 149 291.1 147.7 291.3C145.3 291.7 144.5 290.9 144.7 288.5C144.9 286.7 143.7 288.7 143 286.7C141.4 289.5 142.6 289 141 291.7C138.9 295.2 134.9 292.4 132.2 289.4C131 288.1 130.3 287.6 129.1 289.1C128.6 289.8 127.9 290 127.1 290.1C126.1 290.2 124.9 290.5 124.3 289.2C123.9 288.2 124.4 287.4 125.2 286.9C127.4 285.4 128 278.8 128.4 276.3C128.7 274.7 128.9 272.9 130.9 272.4C132.3 272.1 134.5 274.3 135.1 276.5C135.1 276.6 135.1 276.8 135.1 277C135.1 277.7 135 278.6 136 278.8C137.1 279 138.1 278.6 138.6 277.4C139.3 275.6 140.2 281.7 140.8 279.8C142.6 274 144.2 268.2 146 262.5C146.6 260.5 146.3 258.9 145.4 257C143 251.8 139 247.3 137.9 241.6C136.5 234.3 135.1 226.9 135.5 219.3C135.6 216.4 137.2 214.2 139 212.1C142 208.5 145.1 205 149.6 203.3C156.9 200.5 163.8 202.2 170.4 205.8C172.9 207.2 175.2 209 177.6 210.6C184.5 215.3 185.9 222.5 185.9 230.1C185.9 235.4 180.4 241.3 175.1 242.7C172.5 243.4 170 244.4 167.3 244.7C166.3 244.8 165.1 245.2 164.2 245C158.1 243.2 152.3 241.1 148.1 235.7C144 230.5 146 225.2 150 220.7C155 215 161.6 214.5 168.2 217.2C171.8 218.6 174.1 222 174.9 225.7C175.5 228.7 171.4 234.3 168.2 235.2C165.8 235.8 163.1 235.5 160.7 234.5C159.6 234 158.6 233.2 159 231.7C159.4 230.2 160.4 229.4 162 229.6C162.9 229.7 163.8 230 164.6 230.2C166.6 230.7 167.6 229.5 168.6 228C169.6 226.4 169.1 225.1 168.1 223.8C166.1 221.1 159.5 219.6 157 221.9C155.4 223.4 152.6 223 151.9 225.8C150.7 230.3 151.7 233.2 155.7 235.8C161.7 239.7 167.9 240.4 174.6 237.5C178.5 235.8 181.2 231.3 180.9 227C180.5 221.8 178.2 217.9 174.1 214.8C169.9 211.6 165.6 208.6 160.3 207.5C152 205.9 148.3 208.5 142.9 215.7C141 218.2 140.4 221.2 140.9 224.3C141.7 229.7 142.5 235.1 143.3 240.5C143.5 244.3 146.5 247 147.6 250.9ZM162.4 276C157.1 273.5 154.1 269.4 150.8 265C149.3 268.8 149.3 272.3 148.8 275.6C148.1 280.5 149.2 281.5 154 281.3C154.8 281.3 155.4 280.8 156.1 280.6C158.7 280.1 159.8 277.8 162.4 276Z" fill="#10100F"/>
<path d="M259.9 275.5C260.5 274.5 260.9 273.9 261.2 273.2C262.1 271 263.3 269.4 265.9 271C266.7 271.5 267.3 270.9 268 270.7C269 270.4 270.1 270.5 270.4 271.4C271.1 274.5 272.9 273.6 274.8 272.9C275.4 272.7 276.2 272.2 276.5 272.4C279.3 274.7 282.3 273 285.2 273C287.6 273 288.2 272 288.6 270.5C290.6 263.9 292.4 257.2 294.2 250.5C294.4 249.6 294.6 248.7 294.9 247.9C295.4 246.3 296.5 245.7 298 246C299.6 246.4 299.5 247.9 299.2 249C298.4 252.8 297.4 256.6 296.4 260.4C295.2 264.9 295.1 269.6 294.5 274.1C295.5 275.1 296.7 274.3 297.7 274.7C299.5 275.4 300.6 274.5 301.4 273C302.3 271.2 303.5 270.8 305.4 271.6C308 272.7 310.4 274.3 313.5 274C314.4 273.9 315 274.9 315.2 275.8C315.3 276.6 314.9 277.3 314.2 277.7C313.6 278.1 312.8 278.6 312.1 278.5C307.6 277.7 304.2 280.1 300.5 282C298.6 283 297 281.2 295.5 281.6C294 281.9 292.7 284.1 291.1 283.4C289 282.4 286.5 282.3 284.9 280.2C284.1 279.1 283.5 279 282.5 280.2C280.9 282.3 278.3 281.2 276.1 281.7C274.7 282 273.1 281.8 271.9 282.9C270.1 284.3 268.8 283.8 267.2 282.4C264.7 280.2 262.6 280.5 260.4 283.1C260.2 283.3 260 283.5 259.8 283.7C258.6 285 258 287.1 256.1 287.5C254 287.9 252.4 285.9 250.3 285.6C248.8 285.5 248.9 283.7 249.6 282.7C250.5 281.5 251.3 280.2 250.5 279C248.8 276.5 250 274.6 251 272.4C252.6 268.8 254 265.2 256.6 262.1C258.2 260.2 257.8 257.5 258.4 255.2C259 252.7 259.4 250.2 259.7 247.6C259.9 245.8 260.5 244.4 262.3 244.7C264.4 245 264 246.7 263.8 248.3C262.7 256.5 260.8 264.6 259.2 272.7C259.5 273.6 259.2 274.3 259.9 275.5Z" fill="#10100F"/>
<path d="M217.4 198.3C213.6 198.5 209.8 197.6 206.1 196.4C205.6 196.2 205 195.8 204.6 195.5C203.4 194.5 203.2 193.2 203.9 191.8C204.8 190.1 206.3 189.9 207.7 190.6C211.5 192.3 215.2 193.4 219.4 192.6C220.9 192.3 221.4 193.5 221.9 194.7C222.4 196.2 221.8 197.1 220.6 197.6C219.7 198 218.6 198.1 217.4 198.3Z" fill="#10100F"/>
<path d="M232.9 197.6C232.6 197.6 232.3 197.7 232 197.7C229.2 198 227.7 197.1 227.6 195.2C227.4 193.3 228.6 192.3 231.6 192.3C234.5 192.3 236.7 190.8 239.1 189.6C240.5 188.8 242.1 187.5 243.3 189.7C244.2 191.3 243.6 192.7 241.9 193.8C239.3 195.5 235.8 197.1 232.9 197.6Z" fill="#10100F"/>
<path d="M221.7 178.8C223.1 179.1 224.8 178.9 225.2 180.9C225.5 182.5 224.2 184.5 222.7 184.5C220.9 184.6 220 183.5 219.8 181.8C219.5 180.2 220.2 179.2 221.7 178.8Z" fill="#10100F"/>
</svg>
