<svg width="583" height="520" viewBox="0 0 583 520" fill="none" xmlns="http://www.w3.org/2000/svg">
<path d="M557.416 29.5C554.816 29.7 552.716 29.6 550.816 30.1C549.016 30.5 547.516 31.8 545.116 31.8C544.716 29.3 546.416 28.2 548.216 27.3C550.316 26.3 552.516 25.7 554.516 24.6C558.516 22.4 558.716 20.9 555.016 18.5C552.016 16.6 549.316 14.4 546.416 12.3C545.616 11.7 544.716 11.1 544.116 10.2C543.416 9.2 542.516 8.1 543.716 6.9C544.716 5.9 545.616 6.8 546.516 7.2C550.116 8.7 552.516 12.2 556.416 13.7C557.616 11.9 556.816 10.3 556.216 8.9C555.516 7.3 554.916 5.8 554.916 4.1C554.916 2.9 554.816 1.4 556.416 1.1C557.716 0.8 558.216 2 558.716 2.8C560.816 6.4 561.916 10.4 563.516 14.7C567.716 12.4 568.716 8.2 570.216 4.6C570.916 2.9 571.216 1 573.516 0C577.216 6.4 570.816 11.1 570.916 17C574.116 16.8 576.616 14.8 579.616 14C580.616 13.7 581.716 13.3 582.416 14.2C583.216 15.3 582.216 16 581.416 16.7C578.816 19.1 576.016 21 572.616 22.2C568.516 23.7 568.816 23.8 570.016 27.9C571.316 32.5 574.416 36.5 574.116 41.5C574.116 42.1 574.716 42.8 574.516 43.3C574.116 44.5 574.616 46.5 572.616 46.8C571.216 47 570.516 45.6 570.116 44.4C568.716 40.5 567.816 36.4 565.716 32.8C565.216 31.9 565.016 30.8 563.416 30.6C562.016 33.6 561.616 37.1 559.216 39.7C558.416 40.6 557.716 41.1 556.616 40.6C555.416 40.1 555.416 39 555.816 38C556.716 35.5 557.516 32.9 557.416 29.5Z" fill="#10100F"/>
<path d="M316.416 253.7C317.816 253.3 318.116 251.9 318.916 251C319.516 250.3 320.116 249.5 321.116 249.2C322.016 249 322.816 249.1 323.316 249.9C323.716 250.5 323.816 251.1 323.516 251.9C323.116 252.9 321.616 253.2 321.816 254.6C322.716 255.1 323.216 254.2 323.916 253.9C324.716 253.6 325.516 253.2 325.916 254.3C326.316 255.2 326.716 256.1 325.516 256.8C324.816 257.2 324.116 257.6 323.416 258.1C323.616 258.4 323.716 258.8 323.916 258.8C325.116 259.2 327.116 258.8 326.616 261C326.316 262.6 324.716 262.2 323.516 262.2C322.816 262.2 322.216 262 321.216 261.9C321.016 263.8 321.616 265.1 322.816 266.3C323.316 266.8 323.916 267.2 324.016 267.9C324.216 268.9 324.216 269.9 323.216 270.5C322.216 271.1 321.316 270.7 320.716 269.8C319.716 268.2 318.816 266.5 317.716 264.8C317.116 263.9 316.116 263.9 315.916 265C315.516 267 314.516 266.9 313.516 265.7C312.016 263.8 310.816 265.3 309.616 265.8C308.616 266.2 307.516 267.7 306.616 265.9C305.716 264.1 307.016 263.4 308.316 262.8C309.916 262 311.716 261.7 312.716 259.8C311.016 258.5 308.916 258.5 307.116 257.6C306.216 257.2 305.216 256.6 305.516 255.5C305.916 254.2 307.116 254.2 308.216 254.8C309.616 255.5 311.016 255.7 312.916 256.1C312.616 253.9 311.916 251.9 312.316 249.9C312.416 249.4 312.416 248.8 313.116 248.6C313.916 248.4 314.416 248.9 314.716 249.5C315.616 250.9 315.416 252.6 316.416 253.7Z" fill="#10100F"/>
<path d="M97.0162 506.2C96.5162 504.3 94.9161 503.2 94.6161 501.5C94.5161 500.8 94.4162 500.1 95.0162 499.6C95.8162 499.1 96.6161 499.4 97.1161 500.1C97.9161 501.1 98.7162 502.2 99.7162 503.5C100.816 501.9 100.116 499.9 101.216 498.6C102.016 497.7 102.716 496.4 104.116 497.3C105.116 497.9 105.416 498.9 104.616 500C103.916 500.9 104.216 502.1 104.116 503.1C104.616 503.7 105.016 503.3 105.516 503.1C106.516 502.5 107.616 502.2 108.416 503.2C109.116 504.1 109.316 505.1 108.016 505.9C107.316 506.3 107.916 506.8 108.016 507.2C108.416 508.8 108.116 509.9 106.216 510C104.416 510.1 104.816 511.2 105.216 512.2C105.616 513.2 106.616 513.9 106.616 515.1C106.616 516.3 106.216 517.5 104.716 516.4C103.516 515.6 102.916 515.5 102.316 516.9C101.716 518.2 101.016 519.9 99.1161 519C97.3161 518.1 97.5162 516.4 98.0162 514.8C98.2162 514 98.6161 513.3 98.4161 512.5C96.5161 512.2 95.3161 513.2 94.1161 514.2C93.6161 514.6 92.916 515.2 92.316 514.6C91.516 513.7 92.4162 513.2 93.0162 512.7C93.7162 512 94.4162 511.5 94.7162 510.4C94.6162 509.6 93.7162 509.9 93.2162 509.6C92.5162 509.1 91.8161 508.6 92.1161 507.7C92.3161 507 93.116 506.9 93.816 506.9C94.916 506.9 96.0162 506.8 97.0162 506.2Z" fill="#10100F"/>
<path d="M310.76 124.625C311.139 125.446 310.697 126.521 309.686 126.9C308.865 127.216 308.107 126.647 307.917 125.952C307.664 124.878 307.98 124.246 308.928 123.93C309.497 123.677 310.508 123.867 310.76 124.625Z" fill="#10100F"/>
<path d="M328.199 128.1C328.452 128.858 328.136 129.996 327.188 130.438C326.304 130.88 324.914 130.627 324.534 129.174C324.345 128.479 324.534 127.405 325.609 127.026C326.556 126.647 327.567 126.963 328.199 128.1Z" fill="#10100F"/>
<path d="M292.248 136.314C293.132 136.124 293.764 136.567 293.954 137.388C294.143 138.209 293.638 138.778 292.879 138.968C291.995 139.157 291.174 138.462 290.984 137.767C290.794 137.072 291.742 136.44 292.248 136.314Z" fill="#10100F"/>
<path d="M261.351 122.793C262.109 122.666 262.804 123.172 262.804 123.993C262.868 124.814 262.425 125.004 261.541 125.194C260.846 125.32 260.34 125.194 260.214 124.435C260.024 123.424 260.593 122.982 261.351 122.793Z" fill="#10100F"/>
<path d="M221.103 138.841C221.23 139.473 220.851 139.915 220.345 140.168C219.84 140.421 219.587 140.042 219.46 139.599C219.271 139.031 219.524 138.652 220.029 138.399C220.471 138.273 220.85 138.336 221.103 138.841Z" fill="#10100F"/>
<path d="M356 113.821C352.651 113.757 349.492 114.642 346.269 115.463C342.036 117.043 343.679 126.268 345.511 129.869C346.775 132.333 348.228 133.471 350.756 135.05C352.398 136.061 354.862 136.188 356.379 135.556C358.717 134.608 361.181 134.102 363.329 132.649C364.15 132.081 365.161 131.828 366.046 131.386C367.31 130.817 368.384 131.133 368.952 132.27C369.521 133.534 368.889 134.482 367.689 135.05C363.203 137.072 358.653 139.22 353.788 139.852C344.564 141.116 338.056 134.482 337.74 125.889C337.613 122.729 337.424 119.381 339.446 116.348C341.152 113.757 343.363 111.988 346.143 111.104C352.777 108.955 359.349 109.271 365.793 111.862C366.741 112.241 367.562 112.81 368.384 113.441C369.458 114.326 370.658 115.274 369.837 116.917C369.142 118.243 367.689 118.37 365.856 117.296C364.972 116.79 363.392 115.4 361.307 114.895C359.285 114.389 357.263 113.821 356 113.821Z" fill="#10100F"/>
<path d="M397.89 125.825C397.827 127.089 396.184 128.1 394.794 127.847C383.232 125.257 371.48 125.636 359.664 126.963C358.78 127.089 357.895 127.405 357.011 127.595C355.494 127.91 354.294 127.974 353.915 126.078C353.599 124.372 354.61 124.056 356 123.867C363.329 122.982 370.595 121.655 378.114 122.413C382.853 122.856 387.718 122.856 392.393 123.551C393.783 123.74 395.173 124.119 396.5 124.499C397.258 124.688 397.827 125.13 397.89 125.825Z" fill="#10100F"/>
<path d="M362.634 119.128C362.634 120.139 361.56 121.087 360.233 120.834C358.969 120.644 358.148 119.949 358.527 118.623C358.843 117.548 359.538 116.601 360.865 116.79C362.065 116.98 362.571 117.927 362.634 119.128Z" fill="#10100F"/>
<path d="M249.473 164.304C245.429 164.051 241.891 165.631 238.352 167.274C237.973 167.463 237.531 167.716 237.594 168.095C238.226 170.37 236.394 169.675 235.383 169.927C235.13 170.749 236.078 171.254 235.951 172.076C235.572 174.856 237.531 176.625 238.921 178.647C239.49 179.468 240.437 179.468 241.322 179.405C244.165 179.215 246.882 178.584 249.536 177.636C250.799 177.194 252 176.435 252.569 175.108C252.821 174.54 253.011 174.034 253.579 173.782C253.959 173.592 254.338 173.592 254.717 173.718C255.222 173.908 255.033 174.35 254.969 174.729C254.654 176.941 253.137 178.584 251.368 179.342C246.819 181.174 242.08 182.754 236.962 181.616C234.688 181.111 232.855 180.037 231.718 177.825C231.149 176.688 230.454 175.677 230.012 174.477C228.685 171.191 229.57 169.232 232.982 168.158C233.866 167.906 234.245 167.274 234.688 166.705C235.825 165.315 237.278 164.367 238.984 163.862C241.322 163.167 243.597 162.282 245.934 161.65C247.956 161.082 249.978 161.208 251.81 162.472C253.2 163.356 254.654 164.178 256.044 165.062C256.865 165.568 257.307 166.263 257.118 167.274C256.928 168.348 255.664 168.917 254.969 168.095C253.453 166.2 251.115 165.694 249.473 164.304Z" fill="#10100F"/>
<path d="M246.945 169.611C254.085 169.422 261.161 168.916 268.175 170.243C269.628 170.496 271.018 170.875 272.345 171.381C273.356 171.76 273.609 172.328 273.103 173.276C272.661 174.161 272.029 174.477 270.955 174.161C264.384 172.012 257.497 172.265 250.61 172.391C249.03 172.391 247.451 172.455 245.871 172.581C244.734 172.707 243.66 172.581 243.47 171.57C243.217 170.306 244.291 169.864 245.555 169.801C246.061 169.675 246.503 169.675 246.945 169.611Z" fill="#10100F"/>
<path d="M248.335 167.084C248.335 167.906 248.651 168.348 249.473 168.474C250.168 168.601 250.42 168.221 250.673 167.59C251.179 166.326 250.168 165.757 249.599 165.821C249.599 165.821 248.525 165.694 248.335 167.084Z" fill="#10100F"/>
<path d="M97.2181 24.969C94.5436 24.8019 92.2035 25.8466 89.8633 26.9331C89.6126 27.0585 89.32 27.2256 89.3618 27.4764C89.7797 28.9808 88.5678 28.5211 87.8991 28.6883C87.732 29.2315 88.3589 29.5658 88.2753 30.1091C88.0246 31.9478 89.32 33.1179 90.2394 34.4552C90.6155 34.9984 91.2423 34.9984 91.8274 34.9566C93.7079 34.8313 95.5048 34.4134 97.26 33.7865C98.0957 33.494 98.8898 32.9925 99.2659 32.115C99.433 31.7389 99.5583 31.4046 99.9344 31.2374C100.185 31.112 100.436 31.112 100.687 31.1956C101.021 31.321 100.896 31.6135 100.854 31.8642C100.645 33.3269 99.6419 34.4134 98.4718 34.9148C95.463 36.1267 92.3288 37.1715 88.9439 36.4192C87.4395 36.0849 86.2277 35.3745 85.4755 33.9119C85.0994 33.1597 84.6396 32.4911 84.3471 31.6971C83.4695 29.524 84.0546 28.2286 86.3112 27.5182C86.8963 27.351 87.147 26.9331 87.4395 26.557C88.1917 25.6377 89.1529 25.0108 90.2812 24.6765C91.8274 24.2168 93.3318 23.6318 94.878 23.2139C96.2153 22.8378 97.5524 22.9214 98.7643 23.7571C99.6837 24.3422 100.645 24.8855 101.564 25.4705C102.108 25.8048 102.4 26.2645 102.275 26.9331C102.149 27.6435 101.313 28.0196 100.854 27.4764C99.8508 26.2227 98.3047 25.8884 97.2181 24.969Z" fill="#10100F"/>
<path d="M95.5465 28.4793C100.269 28.354 104.949 28.0197 109.588 28.8972C110.549 29.0644 111.468 29.3151 112.346 29.6494C113.014 29.9002 113.182 30.2763 112.847 30.9031C112.555 31.4882 112.137 31.6971 111.426 31.4882C107.08 30.0673 102.525 30.2345 97.9703 30.3181C96.9255 30.3181 95.8808 30.3599 94.8361 30.4434C94.0839 30.527 93.3735 30.4434 93.2481 29.7748C93.0809 28.939 93.7914 28.6465 94.6271 28.6047C94.9615 28.5211 95.254 28.5211 95.5465 28.4793Z" fill="#10100F"/>
<path d="M96.4659 26.8077C96.4659 27.3509 96.6749 27.6434 97.2182 27.727C97.6778 27.8106 97.8451 27.5599 98.0122 27.142C98.3465 26.3062 97.6778 25.9301 97.3017 25.9719C97.3017 25.9719 96.5913 25.8883 96.4659 26.8077Z" fill="#10100F"/>
<path d="M161.142 104.153C163.543 103.964 165.312 104.912 166.45 107.123C164.681 107.565 162.911 107.818 161.269 108.387C160.574 108.64 159.942 108.829 160.131 109.65C160.321 110.409 161.079 110.535 161.774 110.345C162.974 110.093 164.049 109.65 165.249 109.461C166.955 109.208 168.661 109.208 170.304 109.461C172.768 109.84 175.359 109.966 177.696 110.977C177.886 111.04 178.139 111.104 178.328 111.167C179.023 111.23 179.529 111.04 179.781 110.409C179.971 109.777 179.339 109.019 178.644 108.892C175.99 108.513 173.4 107.755 170.746 107.502C169.988 107.439 169.609 106.997 169.103 106.365C164.996 100.931 157.857 100.173 153.181 105.164C152.612 105.733 151.917 106.112 151.538 106.934C150.401 109.271 150.906 111.609 152.296 113.441C154.192 115.969 156.719 117.801 160.068 118.18C163.48 118.559 167.903 116.474 168.724 112.051C168.851 111.483 168.977 110.851 168.219 110.535C167.461 110.219 167.145 110.725 166.702 111.23C166.323 111.672 166.26 112.241 166.07 112.746C165.375 114.705 163.922 115.716 162.027 116.222C161.521 116.348 161.142 116.411 160.889 115.779C160.637 115.147 160.005 114.895 159.247 114.958C158.931 115.021 158.615 115.147 158.299 114.958C158.109 114.705 158.362 114.642 158.488 114.452C159.183 113.694 159.057 113.821 158.236 113.062C157.604 112.494 157.035 112.115 156.214 112.557C156.088 112.115 156.404 111.735 156.214 111.23C155.835 110.282 155.708 109.271 155.772 108.26C155.772 107.944 155.835 107.565 155.772 107.313C155.392 106.112 155.519 105.607 156.593 105.038C157.73 104.406 158.931 103.838 160.321 103.964C160.637 104.09 160.889 104.153 161.142 104.153Z" fill="#10100F"/>
<path d="M161.711 105.228C161.332 105.228 160.826 105.67 160.7 105.923C160.447 106.491 160.637 106.997 161.079 107.376C161.521 107.692 162.027 107.502 162.406 107.186C162.911 106.744 162.911 106.239 162.532 105.733C162.406 105.48 162.09 105.228 161.711 105.228Z" fill="#10100F"/>
<path d="M190.433 151.422C192.177 151.307 193.463 151.884 194.289 153.232C193.004 153.502 191.718 153.656 190.525 154.003C190.02 154.157 189.561 154.272 189.698 154.773C189.836 155.235 190.387 155.313 190.892 155.197C191.764 155.043 192.545 154.773 193.417 154.658C194.656 154.504 195.896 154.504 197.089 154.658C198.88 154.889 200.762 154.966 202.46 155.582C202.598 155.621 202.782 155.659 202.919 155.698C203.424 155.736 203.792 155.621 203.975 155.235C204.113 154.85 203.654 154.388 203.149 154.311C201.221 154.08 199.339 153.618 197.411 153.464C196.86 153.425 196.584 153.155 196.217 152.77C193.233 149.458 188.046 148.995 184.649 152.038C184.236 152.385 183.731 152.616 183.455 153.117C182.629 154.542 182.996 155.967 184.006 157.084C185.383 158.625 187.219 159.742 189.653 159.973C192.131 160.204 195.345 158.933 195.942 156.237C196.033 155.89 196.125 155.505 195.574 155.313C195.024 155.12 194.794 155.428 194.473 155.736C194.197 156.006 194.151 156.353 194.014 156.661C193.509 157.855 192.453 158.471 191.076 158.779C190.708 158.856 190.433 158.895 190.249 158.51C190.066 158.124 189.607 157.97 189.056 158.009C188.826 158.047 188.597 158.124 188.367 158.009C188.229 157.855 188.413 157.816 188.505 157.701C189.01 157.238 188.918 157.315 188.321 156.853C187.862 156.507 187.449 156.275 186.852 156.545C186.76 156.275 186.459 156.119 186.321 155.81C186.046 155.233 185.954 154.616 186 154C186 153.807 186.046 153.576 186 153.422C185.725 152.69 186.347 152.308 187.128 151.961C187.954 151.576 188.826 151.229 189.836 151.307C190.066 151.384 190.249 151.422 190.433 151.422Z" fill="#10100F"/>
<path d="M190.444 152.366C190.298 152.147 189.847 152.026 189.652 152.05C189.226 152.124 189.007 152.429 188.958 152.831C188.947 153.209 189.252 153.428 189.581 153.525C190.032 153.646 190.324 153.45 190.469 153.036C190.567 152.865 190.591 152.585 190.444 152.366Z" fill="#10100F"/>
<path d="M111.334 166.361C112.534 166.614 112.471 166.614 112.408 167.498C112.345 168.067 112.661 168.572 112.471 169.204C112.408 169.457 112.597 169.71 113.103 169.583C113.861 169.394 114.303 169.583 114.114 170.342C114.051 170.721 114.177 170.721 114.43 170.784C114.619 170.847 114.935 171.037 114.872 171.1C114.809 171.921 115.567 171.921 116.072 171.921C118.347 172.111 120.432 171.605 122.012 169.773C122.265 169.457 122.58 169.078 122.896 168.825C123.275 168.446 123.718 168.383 124.223 168.699C124.665 169.015 124.729 169.394 124.413 169.836C123.212 171.921 119.674 173.69 117.147 173.69C115.188 173.69 113.482 173.185 111.776 172.616C110.639 172.237 110.007 171.416 109.565 170.468C108.933 169.015 108.806 167.435 109.312 165.919C109.881 164.213 111.207 162.823 113.04 161.938C115.504 160.801 118.031 160.675 120.432 161.685C121.443 162.128 122.265 162.76 123.149 163.391C123.402 163.581 123.465 163.834 123.465 164.15C123.465 164.466 123.528 164.781 123.149 165.034C122.77 165.287 122.328 165.287 122.075 165.034C121.317 164.339 120.369 163.96 119.484 163.518C116.768 162.191 112.345 163.644 111.334 166.361Z" fill="#10100F"/>
<path d="M118.41 166.866C122.012 166.108 123.149 166.045 125.424 165.919C127.888 165.982 133.132 166.551 134.396 166.866C135.47 167.119 136.986 167.561 136.86 168.446C136.734 169.647 133.385 168.32 131.679 168.13C130.036 168.004 127.698 167.751 124.918 167.751C122.454 167.814 120.053 168.383 117.652 168.825C116.704 169.015 116.136 168.636 116.262 167.941C116.325 167.498 116.704 167.309 117.084 167.182C117.526 167.056 117.968 166.993 118.41 166.866Z" fill="#10100F"/>
<path d="M117.968 165.792C117.273 166.045 116.831 165.856 116.641 165.287C116.452 164.718 116.704 164.276 117.336 164.023C117.968 163.77 118.6 163.96 118.789 164.465C118.979 164.971 118.6 165.603 117.968 165.792Z" fill="#10100F"/>
<path d="M39.8902 132.662C40.9976 133.189 40.9363 133.175 40.667 134.02C40.4719 134.557 40.66 135.123 40.3272 135.692C40.2064 135.923 40.3312 136.213 40.8522 136.209C41.6337 136.204 42.0191 136.492 41.6566 137.184C41.5061 137.538 41.6289 137.567 41.8597 137.688C42.0291 137.794 42.2916 138.053 42.2153 138.099C41.9608 138.883 42.6977 139.061 43.189 139.18C45.3553 139.899 47.5008 139.898 49.4669 138.488C49.7868 138.241 50.183 137.946 50.5494 137.775C51.007 137.496 51.4518 137.538 51.8689 137.964C52.2245 138.375 52.1968 138.758 51.7858 139.114C50.1287 140.858 46.2737 141.746 43.8172 141.152C41.9134 140.692 40.3741 139.799 38.8497 138.845C37.8334 138.21 37.4123 137.263 37.2053 136.237C36.9328 134.676 37.1812 133.111 38.029 131.756C38.9828 130.232 40.5993 129.193 42.5882 128.764C45.2507 128.238 47.7369 128.709 49.8329 130.256C50.7115 130.924 51.3614 131.731 52.0726 132.553C52.2737 132.797 52.2757 133.057 52.2014 133.364C52.1272 133.671 52.1143 133.993 51.6864 134.15C51.2585 134.306 50.8285 134.202 50.6423 133.897C50.0687 133.043 49.2367 132.452 48.4809 131.814C46.1521 129.886 41.5115 130.258 39.8902 132.662Z" fill="#10100F"/>
<path d="M46.2833 135.802C49.8765 135.006 51.013 134.93 53.2862 134.78C55.7508 134.817 61.0008 135.33 62.2677 135.633C63.3444 135.874 64.8655 136.3 64.7485 137.186C64.6348 138.388 61.2723 137.097 59.5644 136.925C57.9204 136.816 55.58 136.588 52.8001 136.617C50.3367 136.707 47.9419 137.301 45.5457 137.768C44.6 137.968 44.0274 137.595 44.1465 136.899C44.205 136.456 44.5821 136.262 44.9598 136.132C45.4007 136.001 45.8424 135.933 46.2833 135.802Z" fill="#10100F"/>
<path d="M46.4723 133.669C45.7374 133.751 45.3521 133.463 45.3016 132.865C45.251 132.268 45.6006 131.898 46.2741 131.8C46.9476 131.703 47.5172 132.036 47.5826 132.572C47.648 133.108 47.131 133.633 46.4723 133.669Z" fill="#10100F"/>
<path d="M235.951 79.7647C237.468 80.3334 237.405 80.3334 237.089 81.4707C236.899 82.2289 237.215 82.9871 236.836 83.7453C236.709 83.998 236.899 84.4403 237.531 84.3771C238.479 84.2507 239.047 84.6298 238.668 85.5776C238.479 86.0199 238.731 86.083 238.984 86.2726C239.237 86.399 239.553 86.6517 239.553 86.8412C239.3 87.9154 240.248 88.0417 240.943 88.1681C243.849 88.8631 246.629 88.6736 248.967 86.5885C249.409 86.2094 249.788 85.8303 250.294 85.5144C250.863 85.0721 251.494 85.0721 252 85.5776C252.505 86.083 252.505 86.5885 252.063 87.094C250.104 89.5581 245.239 91.1377 241.954 90.6322C239.49 90.2531 237.405 89.179 235.319 88.1049C233.929 87.4099 233.298 86.1462 232.918 84.8826C232.35 82.8607 232.539 80.7756 233.487 78.9433C234.561 76.8583 236.52 75.2787 239.047 74.5205C242.459 73.5727 245.682 73.8886 248.588 75.721C249.788 76.4792 250.736 77.4901 251.747 78.501C252 78.7538 252.063 79.1329 252 79.512C251.937 79.9543 251.937 80.3334 251.368 80.5861C250.799 80.7756 250.294 80.7756 249.978 80.3334C249.157 79.3224 248.019 78.6274 247.008 77.8692C243.786 75.405 237.847 76.4792 235.951 79.7647Z" fill="#10100F"/>
<path d="M245.492 80.8389C244.671 80.9652 244.228 80.7125 244.102 80.0175C243.976 79.3225 244.355 78.8802 245.113 78.6906C245.871 78.5643 246.503 78.8802 246.629 79.4488C246.756 80.0807 246.25 80.7125 245.492 80.8389Z" fill="#10100F"/>
<path d="M246.44 81.6602C252.948 81.597 259.456 81.2811 265.774 82.6711C267.101 82.9871 268.364 83.303 269.565 83.8084C270.449 84.1875 270.702 84.7562 270.26 85.5776C269.818 86.399 269.249 86.7149 268.301 86.3358C262.362 84.1875 256.044 84.3139 249.788 84.2507C248.335 84.2507 246.882 84.2507 245.492 84.3139C244.481 84.3771 243.47 84.3139 243.344 83.303C243.154 82.1025 244.102 81.7234 245.303 81.6602C245.618 81.7234 246.061 81.6602 246.44 81.6602Z" fill="#10100F"/>
<path d="M3.01442 89.1473C4.02911 89.3687 3.98903 89.3745 3.89312 90.1254C3.84255 90.624 4.11272 91.0762 3.94185 91.5922C3.88489 91.7642 4.0459 92.0275 4.44109 91.9293C5.03097 91.7619 5.42675 91.9502 5.27331 92.5866C5.19368 92.8847 5.35989 92.9016 5.53772 92.9986C5.70974 93.0556 5.93345 93.187 5.95088 93.3073C5.88926 94.0122 6.50236 94.0052 6.95508 94.0215C8.86359 94.1953 10.6105 93.8194 11.9025 92.2811C12.1483 91.9998 12.3541 91.7243 12.6458 91.4774C12.966 91.1444 13.367 91.0863 13.7343 91.3606C14.1016 91.6349 14.1481 91.9557 13.9139 92.3171C12.8974 94.0612 9.955 95.5111 7.82333 95.4924C6.22457 95.4784 4.8025 94.9885 3.38042 94.4986C2.43431 94.1853 1.91708 93.4414 1.56027 92.6743C1.01343 91.4434 0.941942 90.1027 1.37493 88.8526C1.86488 87.4305 2.96273 86.2479 4.49699 85.5343C6.57522 84.619 8.6494 84.5232 10.6625 85.4188C11.4941 85.7896 12.1886 86.344 12.9232 86.8926C13.1068 87.0298 13.1817 87.2646 13.1765 87.511C13.1771 87.7975 13.2119 88.0381 12.8743 88.2508C12.5308 88.4234 12.21 88.4699 11.9689 88.2182C11.3546 87.6522 10.5689 87.3157 9.85757 86.9274C7.58586 85.6599 3.91526 86.8878 3.01442 89.1473Z" fill="#10100F"/>
<path d="M8.09748 88.4874C7.5878 88.6431 7.28388 88.5234 7.13976 88.0939C6.99565 87.6644 7.19561 87.3489 7.65938 87.1588C8.12895 87.0089 8.55896 87.1513 8.69146 87.5006C8.82977 87.89 8.56705 88.3374 8.09748 88.4874Z" fill="#10100F"/>
<path d="M9.99815 89.3094C14.1542 88.9275 18.2971 88.384 22.4083 88.9408C23.273 89.0731 24.0972 89.2087 24.891 89.4687C25.4762 89.6646 25.6677 90.0148 25.4281 90.563C25.1885 91.1112 24.8416 91.3429 24.216 91.1504C20.3073 90.0891 16.2756 90.5014 12.2744 90.7893C11.3456 90.8656 10.4168 90.9419 9.53168 91.0552C8.88887 91.1486 8.23947 91.1613 8.10565 90.5218C7.9215 89.7645 8.50738 89.4725 9.27134 89.3691C9.47657 89.3929 9.75585 89.3293 9.99815 89.3094Z" fill="#10100F"/>
</svg>
