<svg width="775" height="520" viewBox="0 0 775 520" fill="none" xmlns="http://www.w3.org/2000/svg">
<path d="M748.416 29.5C745.816 29.7 743.716 29.6 741.816 30.1C740.016 30.5 738.516 31.8 736.116 31.8C735.716 29.3 737.416 28.2 739.216 27.3C741.316 26.3 743.516 25.7 745.516 24.6C749.516 22.4 749.716 20.9 746.016 18.5C743.016 16.6 740.316 14.4 737.416 12.3C736.616 11.7 735.716 11.1 735.116 10.2C734.416 9.2 733.516 8.1 734.716 6.9C735.716 5.9 736.616 6.8 737.516 7.2C741.116 8.7 743.516 12.2 747.416 13.7C748.616 11.9 747.816 10.3 747.216 8.9C746.516 7.3 745.916 5.8 745.916 4.1C745.916 2.9 745.816 1.4 747.416 1.1C748.716 0.8 749.216 2 749.716 2.8C751.816 6.4 752.916 10.4 754.516 14.7C758.716 12.4 759.716 8.2 761.216 4.6C761.916 2.9 762.216 1 764.516 0C768.216 6.4 761.816 11.1 761.916 17C765.116 16.8 767.616 14.8 770.616 14C771.616 13.7 772.716 13.3 773.416 14.2C774.216 15.3 773.216 16 772.416 16.7C769.816 19.1 767.016 21 763.616 22.2C759.516 23.7 759.816 23.8 761.016 27.9C762.316 32.5 765.416 36.5 765.116 41.5C765.116 42.1 765.716 42.8 765.516 43.3C765.116 44.5 765.616 46.5 763.616 46.8C762.216 47 761.516 45.6 761.116 44.4C759.716 40.5 758.816 36.4 756.716 32.8C756.216 31.9 756.016 30.8 754.416 30.6C753.016 33.6 752.616 37.1 750.216 39.7C749.416 40.6 748.716 41.1 747.616 40.6C746.416 40.1 746.416 39 746.816 38C747.716 35.5 748.516 32.9 748.416 29.5Z" fill="#10100F"/>
<path d="M507.416 253.7C508.816 253.3 509.116 251.9 509.916 251C510.516 250.3 511.116 249.5 512.116 249.2C513.016 249 513.816 249.1 514.316 249.9C514.716 250.5 514.816 251.1 514.516 251.9C514.116 252.9 512.616 253.2 512.816 254.6C513.716 255.1 514.216 254.2 514.916 253.9C515.716 253.6 516.516 253.2 516.916 254.3C517.316 255.2 517.716 256.1 516.516 256.8C515.816 257.2 515.116 257.6 514.416 258.1C514.616 258.4 514.716 258.8 514.916 258.8C516.116 259.2 518.116 258.8 517.616 261C517.316 262.6 515.716 262.2 514.516 262.2C513.816 262.2 513.216 262 512.216 261.9C512.016 263.8 512.616 265.1 513.816 266.3C514.316 266.8 514.916 267.2 515.016 267.9C515.216 268.9 515.216 269.9 514.216 270.5C513.216 271.1 512.316 270.7 511.716 269.8C510.716 268.2 509.816 266.5 508.716 264.8C508.116 263.9 507.116 263.9 506.916 265C506.516 267 505.516 266.9 504.516 265.7C503.016 263.8 501.816 265.3 500.616 265.8C499.616 266.2 498.516 267.7 497.616 265.9C496.716 264.1 498.016 263.4 499.316 262.8C500.916 262 502.716 261.7 503.716 259.8C502.016 258.5 499.916 258.5 498.116 257.6C497.216 257.2 496.216 256.6 496.516 255.5C496.916 254.2 498.116 254.2 499.216 254.8C500.616 255.5 502.016 255.7 503.916 256.1C503.616 253.9 502.916 251.9 503.316 249.9C503.416 249.4 503.416 248.8 504.116 248.6C504.916 248.4 505.416 248.9 505.716 249.5C506.616 250.9 506.416 252.6 507.416 253.7Z" fill="#10100F"/>
<path d="M288.016 506.2C287.516 504.3 285.916 503.2 285.616 501.5C285.516 500.8 285.416 500.1 286.016 499.6C286.816 499.1 287.616 499.4 288.116 500.1C288.916 501.1 289.716 502.2 290.716 503.5C291.816 501.9 291.116 499.9 292.216 498.6C293.016 497.7 293.716 496.4 295.116 497.3C296.116 497.9 296.416 498.9 295.616 500C294.916 500.9 295.216 502.1 295.116 503.1C295.616 503.7 296.016 503.3 296.516 503.1C297.516 502.5 298.616 502.2 299.416 503.2C300.116 504.1 300.316 505.1 299.016 505.9C298.316 506.3 298.916 506.8 299.016 507.2C299.416 508.8 299.116 509.9 297.216 510C295.416 510.1 295.816 511.2 296.216 512.2C296.616 513.2 297.616 513.9 297.616 515.1C297.616 516.3 297.216 517.5 295.716 516.4C294.516 515.6 293.916 515.5 293.316 516.9C292.716 518.2 292.016 519.9 290.116 519C288.316 518.1 288.516 516.4 289.016 514.8C289.216 514 289.616 513.3 289.416 512.5C287.516 512.2 286.316 513.2 285.116 514.2C284.616 514.6 283.916 515.2 283.316 514.6C282.516 513.7 283.416 513.2 284.016 512.7C284.716 512 285.416 511.5 285.716 510.4C285.616 509.6 284.716 509.9 284.216 509.6C283.516 509.1 282.816 508.6 283.116 507.7C283.316 507 284.116 506.9 284.816 506.9C285.916 506.9 287.016 506.8 288.016 506.2Z" fill="#10100F"/>
<path d="M343.173 291.907C346.981 291.683 347.528 291.991 348.059 293.995C348.638 296.241 345.814 296.789 345.734 298.683C346.812 299.136 347.388 298.21 348.222 298.055C349.515 297.832 350.808 297.61 351.474 298.973C352.135 300.283 352.698 301.71 351.169 302.992C350.482 303.572 349.543 304.092 349.608 305.153C350.637 305.664 351.019 305.029 351.11 304.502C351.321 303.17 352.295 302.73 353.317 302.23C355.788 301.084 357.417 301.898 357.788 304.573C357.904 305.274 357.561 306.042 357.869 306.753C360.066 306.233 362.354 304.884 364.269 307.396C364.794 308.088 365.599 307.908 366.31 307.6C369.546 306.141 369.521 306.17 370.318 309.655C370.362 309.843 370.568 310.016 370.848 310.402C376.756 309.174 382.368 306.741 387.136 303.096C393.392 298.338 398.306 292.302 400.951 284.714C401.997 281.669 402.709 278.545 402.365 275.239C402.289 274.37 402.213 273.502 402.3 272.619C402.379 271.327 402.713 270.149 404.376 270.086C406.418 269.989 407.688 270.753 407.968 272.396C408.635 276.276 408.183 280.171 406.992 283.748C404.654 290.789 401.178 297.328 396.206 303.013C393.052 306.653 389.23 309.23 384.795 311.04C383.184 311.701 381.722 312.485 380.278 313.486C377.39 315.489 374.083 316.435 370.609 316.739C367.377 316.995 364.212 316.753 360.996 316.57C349.95 315.951 342.831 309.273 339.733 299.482C338.406 295.25 337.08 291.019 337.011 286.486C336.986 282.441 337.862 278.7 339.877 275.16C342.492 270.666 345.314 266.344 348.745 262.434C349.988 261.013 351.32 259.666 353.009 258.971C358.477 256.769 363.603 253.476 369.511 252.549C373.962 251.858 378.567 251.045 382.954 253.067C384.008 253.549 385.139 253.34 386.223 253.546C387.889 253.838 389.013 255.435 388.879 257.033C388.685 258.882 387.211 260.159 385.372 260.074C384.987 260.053 384.602 260.032 384.292 259.923C375.807 257.33 368.026 259.652 360.29 263.118C352.479 266.674 347.958 273.14 344.126 280.284C342.577 283.209 342.605 285.094 343.173 291.907Z" fill="#10100F"/>
<path d="M371.636 285.313C376.53 280.618 380.418 275.985 385.112 272.128C387.205 270.414 388.84 268.165 390.869 266.347C398.78 259.255 407.09 252.649 415.129 245.765C420.422 241.254 425.921 237.218 431.563 233.251C433.056 232.19 434.216 232.007 435.559 232.983C436.848 233.964 436.904 236.174 435.72 237.645C435.205 238.319 434.581 239.002 433.884 239.474C425.416 244.891 418.239 251.946 410.749 258.535C406.633 262.122 402.173 265.22 398.081 268.778C390.359 275.525 382.97 282.652 376.771 290.879C376.062 291.843 375.273 293.143 373.883 292.882C372.439 292.626 372.227 291.14 371.63 289.935C370.542 287.815 370.054 286.299 371.636 285.313Z" fill="#10100F"/>
<path d="M371.172 272.337C372.775 273.782 373.223 276.724 372.04 277.894C370.402 279.486 368.69 279.609 367.171 278.183C365.563 276.683 365.239 273.595 366.536 272.168C367.581 270.983 369.805 271.089 371.172 272.337Z" fill="#10100F"/>
<path d="M380.059 264.93C381.662 266.376 382.111 269.317 380.928 270.487C379.29 272.08 377.578 272.202 376.059 270.777C374.451 269.277 374.126 266.188 375.424 264.762C376.468 263.577 378.693 263.683 380.059 264.93Z" fill="#10100F"/>
<path d="M184.912 394.488C188.162 392.871 190.795 391.604 192.995 389.638C194.512 388.288 195.378 386.488 195.495 384.438C195.595 382.905 196.195 381.339 195.462 379.606C192.779 381.622 190.879 384.089 188.979 386.589C188.796 386.839 188.629 387.072 188.446 387.322C187.763 388.272 186.279 388.922 185.563 388.572C185.03 388.305 184.663 386.239 185.063 385.406C185.713 384.023 186.763 382.906 187.73 381.773C189.83 379.306 191.83 376.706 193.996 374.34C196.03 372.107 198.096 369.74 200.613 367.89C203.963 365.44 206.762 362.307 210.062 359.774C211.862 358.407 213.529 356.84 215.295 355.407C216.295 354.574 217.178 354.557 217.945 355.224C218.628 355.84 218.678 356.923 217.978 357.923C217.278 358.923 216.311 359.723 215.245 360.29C214.145 360.89 213.312 361.69 212.478 362.59C210.612 364.69 208.262 366.24 206.212 368.156C203.512 370.689 200.612 372.989 198.146 375.789C199.945 378.289 199.578 381.222 199.295 383.905C198.878 387.888 197.311 391.521 193.728 393.871C190.578 395.954 187.478 398.087 183.529 398.371C181.962 398.471 180.579 398.421 179.313 397.288C178.18 396.288 176.83 395.572 175.664 394.605C173.664 392.973 172.698 390.606 172.631 388.24C172.548 385.19 172.582 381.957 174.565 379.308C177.265 375.708 180.298 372.508 185.298 372.441C186.714 372.424 188.131 371.907 189.564 372.44C190.397 372.74 191.447 372.757 191.597 373.907C191.713 374.657 190.38 375.923 189.297 376.073C187.964 376.273 186.614 376.39 185.247 376.524C180.798 377.007 177.548 380.057 176.714 384.523C176.614 385.057 176.481 385.557 176.364 386.073C176.148 387.023 176.298 387.74 177.447 387.856C177.947 387.889 178.231 388.273 178.53 388.606C178.964 389.106 179.247 389.756 180.18 389.189C180.68 388.889 181.563 389.172 181.73 389.772C182.03 390.872 182.73 391.139 183.68 391.422C184.896 391.738 185.629 392.572 184.912 394.488Z" fill="#10100F"/>
<path d="M185.085 380.815C186.026 381.571 187.013 381.447 187.753 380.43C188.354 379.612 188.324 378.533 187.645 378.008C186.751 377.33 185.162 377.345 184.592 378.039C184.006 378.779 184.252 380.136 185.085 380.815Z" fill="#10100F"/>
<path d="M184.238 381.4C184.994 382.34 184.87 383.327 183.852 384.068C183.035 384.669 181.955 384.638 181.431 383.96C180.752 383.065 180.768 381.477 181.462 380.906C182.202 380.32 183.56 380.567 184.238 381.4Z" fill="#10100F"/>
<path d="M329.144 431.417C331.811 430.17 333.289 428.27 333.75 425.583C334.134 423.396 335.496 421.343 334.671 418.982C334.575 418.695 334.767 418.311 334.902 417.985C335.305 417.083 335.266 415.778 336.725 415.778C337.761 415.778 338.739 416.871 339.008 418.291C339.104 418.809 339.2 419.366 339.065 419.846C338.067 423.53 337.76 427.444 335.63 430.726C333.768 433.624 331.139 435.447 327.666 436.157C324.461 436.829 321.295 436.772 318.11 436.158C314.253 435.41 311.739 432.743 309.418 429.884C308.209 428.406 307.154 426.775 306.156 425.164C305.177 423.571 304.871 421.767 305.178 419.887C305.581 417.296 306.253 414.782 307.308 412.384C308.729 409.083 311.473 407.337 314.735 406.377C316.059 405.974 317.441 405.859 318.746 405.321C320.108 404.765 321.547 405.014 322.756 405.762C323.6 406.299 324.636 406.875 324.157 408.237C323.734 409.466 322.89 410.233 321.624 410.08C320.28 409.926 319.033 410.176 317.747 410.387C311.818 411.29 309.054 414.782 309.438 420.846C309.572 422.822 310.051 424.607 311.74 425.873C312.066 426.123 312.335 426.506 312.603 426.852C313.908 428.54 313.908 428.54 315.501 427.254C316.192 426.679 316.882 426.065 317.803 426.755C318.724 427.446 318.59 428.386 318.302 429.365C318.129 429.922 317.016 430.421 317.995 431.092C318.782 431.648 319.204 430.727 319.703 430.344C319.837 430.248 319.952 430.094 320.067 429.979C320.701 429.422 321.2 428.501 322.236 428.923C323.368 429.365 322.907 430.362 322.888 431.188C322.888 431.533 322.85 431.917 323.157 432.147C323.617 432.454 323.982 432.128 324.289 431.821C324.845 431.264 325.421 430.727 325.939 430.17C327.379 428.616 327.858 428.712 328.837 430.727C328.971 430.938 329.009 431.091 329.144 431.417Z" fill="#10100F"/>
<path d="M335.81 403.568C333.795 405.737 328.029 411.645 325.653 414.071C323.277 416.496 319.367 421.481 322.736 422.015C323.772 422.245 324.597 422.034 325.307 421.209C329.183 416.757 333.156 412.401 337.435 408.351C341.307 404.403 349.556 396.024 351.579 394.093C354.108 391.679 356.259 389.413 358.008 387.664C359.946 386.148 361.596 384.344 363.419 382.751C363.957 382.291 364.206 381.619 364.475 380.967C364.936 379.892 364.514 379.124 363.669 378.472C362.825 377.82 362.096 378.012 361.309 378.645C359.544 380.065 357.701 381.408 356.224 383.155C355.149 384.421 353.921 385.496 352.616 386.532C348.611 390.639 342.779 396.722 335.81 403.568Z" fill="#10100F"/>
<path d="M321.105 411.449C322.403 411.314 322.974 411.718 323.142 412.927C323.304 414.083 322.834 415.654 321.171 415.966C320.195 416.149 318.605 415.215 318.5 414C318.397 412.593 319.954 411.568 321.105 411.449Z" fill="#10100F"/>
<path d="M318.441 416.096C319.948 416.617 320.407 417.256 320.063 418.407C319.736 419.508 317.773 420.466 316.532 420.122C315.364 419.803 314.793 418.702 315.209 417.575C315.711 416.281 317.105 415.634 318.441 416.096Z" fill="#10100F"/>
</svg>
