<svg width="775" height="520" viewBox="0 0 775 520" fill="none" xmlns="http://www.w3.org/2000/svg">
<path d="M748.416 29.5C745.816 29.7 743.716 29.6 741.816 30.1C740.016 30.5 738.516 31.8 736.116 31.8C735.716 29.3 737.416 28.2 739.216 27.3C741.316 26.3 743.516 25.7 745.516 24.6C749.516 22.4 749.716 20.9 746.016 18.5C743.016 16.6 740.316 14.4 737.416 12.3C736.616 11.7 735.716 11.1 735.116 10.2C734.416 9.2 733.516 8.1 734.716 6.9C735.716 5.9 736.616 6.8 737.516 7.2C741.116 8.7 743.516 12.2 747.416 13.7C748.616 11.9 747.816 10.3 747.216 8.9C746.516 7.3 745.916 5.8 745.916 4.1C745.916 2.9 745.816 1.4 747.416 1.1C748.716 0.8 749.216 2 749.716 2.8C751.816 6.4 752.916 10.4 754.516 14.7C758.716 12.4 759.716 8.2 761.216 4.6C761.916 2.9 762.216 1 764.516 0C768.216 6.4 761.816 11.1 761.916 17C765.116 16.8 767.616 14.8 770.616 14C771.616 13.7 772.716 13.3 773.416 14.2C774.216 15.3 773.216 16 772.416 16.7C769.816 19.1 767.016 21 763.616 22.2C759.516 23.7 759.816 23.8 761.016 27.9C762.316 32.5 765.416 36.5 765.116 41.5C765.116 42.1 765.716 42.8 765.516 43.3C765.116 44.5 765.616 46.5 763.616 46.8C762.216 47 761.516 45.6 761.116 44.4C759.716 40.5 758.816 36.4 756.716 32.8C756.216 31.9 756.016 30.8 754.416 30.6C753.016 33.6 752.616 37.1 750.216 39.7C749.416 40.6 748.716 41.1 747.616 40.6C746.416 40.1 746.416 39 746.816 38C747.716 35.5 748.516 32.9 748.416 29.5Z" fill="#10100F"/>
<path d="M507.416 253.7C508.816 253.3 509.116 251.9 509.916 251C510.516 250.3 511.116 249.5 512.116 249.2C513.016 249 513.816 249.1 514.316 249.9C514.716 250.5 514.816 251.1 514.516 251.9C514.116 252.9 512.616 253.2 512.816 254.6C513.716 255.1 514.216 254.2 514.916 253.9C515.716 253.6 516.516 253.2 516.916 254.3C517.316 255.2 517.716 256.1 516.516 256.8C515.816 257.2 515.116 257.6 514.416 258.1C514.616 258.4 514.716 258.8 514.916 258.8C516.116 259.2 518.116 258.8 517.616 261C517.316 262.6 515.716 262.2 514.516 262.2C513.816 262.2 513.216 262 512.216 261.9C512.016 263.8 512.616 265.1 513.816 266.3C514.316 266.8 514.916 267.2 515.016 267.9C515.216 268.9 515.216 269.9 514.216 270.5C513.216 271.1 512.316 270.7 511.716 269.8C510.716 268.2 509.816 266.5 508.716 264.8C508.116 263.9 507.116 263.9 506.916 265C506.516 267 505.516 266.9 504.516 265.7C503.016 263.8 501.816 265.3 500.616 265.8C499.616 266.2 498.516 267.7 497.616 265.9C496.716 264.1 498.016 263.4 499.316 262.8C500.916 262 502.716 261.7 503.716 259.8C502.016 258.5 499.916 258.5 498.116 257.6C497.216 257.2 496.216 256.6 496.516 255.5C496.916 254.2 498.116 254.2 499.216 254.8C500.616 255.5 502.016 255.7 503.916 256.1C503.616 253.9 502.916 251.9 503.316 249.9C503.416 249.4 503.416 248.8 504.116 248.6C504.916 248.4 505.416 248.9 505.716 249.5C506.616 250.9 506.416 252.6 507.416 253.7Z" fill="#10100F"/>
<path d="M288.016 506.2C287.516 504.3 285.916 503.2 285.616 501.5C285.516 500.8 285.416 500.1 286.016 499.6C286.816 499.1 287.616 499.4 288.116 500.1C288.916 501.1 289.716 502.2 290.716 503.5C291.816 501.9 291.116 499.9 292.216 498.6C293.016 497.7 293.716 496.4 295.116 497.3C296.116 497.9 296.416 498.9 295.616 500C294.916 500.9 295.216 502.1 295.116 503.1C295.616 503.7 296.016 503.3 296.516 503.1C297.516 502.5 298.616 502.2 299.416 503.2C300.116 504.1 300.316 505.1 299.016 505.9C298.316 506.3 298.916 506.8 299.016 507.2C299.416 508.8 299.116 509.9 297.216 510C295.416 510.1 295.816 511.2 296.216 512.2C296.616 513.2 297.616 513.9 297.616 515.1C297.616 516.3 297.216 517.5 295.716 516.4C294.516 515.6 293.916 515.5 293.316 516.9C292.716 518.2 292.016 519.9 290.116 519C288.316 518.1 288.516 516.4 289.016 514.8C289.216 514 289.616 513.3 289.416 512.5C287.516 512.2 286.316 513.2 285.116 514.2C284.616 514.6 283.916 515.2 283.316 514.6C282.516 513.7 283.416 513.2 284.016 512.7C284.716 512 285.416 511.5 285.716 510.4C285.616 509.6 284.716 509.9 284.216 509.6C283.516 509.1 282.816 508.6 283.116 507.7C283.316 507 284.116 506.9 284.816 506.9C285.916 506.9 287.016 506.8 288.016 506.2Z" fill="#10100F"/>
<path d="M75.5979 189.532C75.9116 190.212 75.5457 191.101 74.7092 191.414C74.0295 191.676 73.4021 191.205 73.2453 190.63C73.0362 189.741 73.2976 189.218 74.0818 188.957C74.5524 188.748 75.3888 188.905 75.5979 189.532Z" fill="#10100F"/>
<path d="M90.0278 192.408C90.2369 193.035 89.9755 193.976 89.1913 194.342C88.4593 194.708 87.3092 194.499 86.9955 193.296C86.8386 192.721 86.9955 191.833 87.8842 191.519C88.6684 191.205 89.505 191.467 90.0278 192.408Z" fill="#10100F"/>
<path d="M60.2797 199.204C61.0117 199.047 61.5346 199.413 61.6914 200.093C61.8483 200.773 61.4299 201.243 60.8025 201.4C60.0706 201.557 59.391 200.982 59.2341 200.407C59.0773 199.831 59.8615 199.309 60.2797 199.204Z" fill="#10100F"/>
<path d="M34.7145 188.016C35.3418 187.911 35.9169 188.33 35.9169 189.009C35.9692 189.689 35.6033 189.846 34.8713 190.003C34.2962 190.107 33.8779 190.003 33.7734 189.375C33.6165 188.539 34.0871 188.173 34.7145 188.016Z" fill="#10100F"/>
<path d="M1.41142 201.295C1.51598 201.818 1.20232 202.184 0.784074 202.393C0.365827 202.602 0.156626 202.288 0.0520644 201.922C-0.104778 201.452 0.104422 201.138 0.52267 200.929C0.888636 200.825 1.2023 200.877 1.41142 201.295Z" fill="#10100F"/>
<path d="M111.97 185.634C109.838 185.594 107.826 186.157 105.775 186.68C103.08 187.686 104.125 193.559 105.292 195.852C106.097 197.421 107.022 198.145 108.631 199.15C109.677 199.794 111.246 199.874 112.211 199.472C113.699 198.869 115.268 198.547 116.636 197.622C117.159 197.26 117.803 197.099 118.366 196.817C119.17 196.455 119.854 196.656 120.216 197.38C120.578 198.185 120.176 198.788 119.412 199.15C116.556 200.438 113.659 201.805 110.562 202.208C104.689 203.012 100.545 198.788 100.344 193.318C100.264 191.306 100.143 189.174 101.43 187.243C102.516 185.594 103.924 184.468 105.694 183.905C109.918 182.537 114.102 182.738 118.205 184.387C118.808 184.629 119.331 184.991 119.854 185.393C120.538 185.956 121.302 186.559 120.779 187.605C120.337 188.45 119.412 188.531 118.245 187.847C117.682 187.525 116.676 186.64 115.349 186.318C114.061 185.996 112.774 185.634 111.97 185.634Z" fill="#10100F"/>
<path d="M138.64 193.277C138.6 194.082 137.554 194.725 136.669 194.565C129.307 192.915 121.825 193.157 114.303 194.001C113.74 194.082 113.176 194.283 112.613 194.404C111.648 194.605 110.884 194.645 110.642 193.438C110.441 192.352 111.085 192.151 111.97 192.03C116.636 191.467 121.262 190.622 126.049 191.105C129.066 191.387 132.163 191.387 135.14 191.829C136.025 191.95 136.91 192.191 137.755 192.433C138.238 192.553 138.6 192.835 138.64 193.277Z" fill="#10100F"/>
<path d="M116.194 189.013C116.194 189.657 115.51 190.26 114.665 190.099C113.86 189.979 113.337 189.536 113.579 188.691C113.78 188.007 114.222 187.404 115.067 187.525C115.831 187.645 116.153 188.249 116.194 189.013Z" fill="#10100F"/>
<path d="M393.557 124.991C395.799 124.829 397.452 125.638 398.515 127.525C396.862 127.903 395.209 128.119 393.675 128.604C393.026 128.82 392.435 128.981 392.612 129.683C392.789 130.33 393.498 130.438 394.147 130.276C395.268 130.06 396.272 129.683 397.393 129.521C398.987 129.305 400.58 129.305 402.115 129.521C404.417 129.844 406.837 129.952 409.021 130.815C409.198 130.869 409.434 130.923 409.611 130.977C410.26 131.031 410.732 130.869 410.968 130.33C411.145 129.79 410.555 129.143 409.906 129.035C407.427 128.712 405.007 128.065 402.528 127.849C401.82 127.795 401.466 127.418 400.993 126.878C397.157 122.241 390.488 121.594 386.12 125.854C385.589 126.339 384.939 126.663 384.585 127.364C383.523 129.359 383.995 131.354 385.293 132.918C387.064 135.075 389.425 136.639 392.553 136.963C395.74 137.286 399.872 135.507 400.639 131.732C400.757 131.246 400.875 130.707 400.167 130.438C399.459 130.168 399.164 130.599 398.751 131.031C398.396 131.408 398.337 131.894 398.16 132.325C397.511 133.997 396.154 134.859 394.383 135.291C393.911 135.399 393.557 135.453 393.321 134.913C393.084 134.374 392.494 134.158 391.786 134.212C391.491 134.266 391.196 134.374 390.901 134.212C390.724 133.997 390.96 133.943 391.078 133.781C391.727 133.134 391.609 133.242 390.842 132.595C390.251 132.109 389.72 131.786 388.953 132.163C388.835 131.786 389.13 131.462 388.953 131.031C388.599 130.222 388.481 129.359 388.54 128.496C388.54 128.227 388.599 127.903 388.54 127.687C388.186 126.663 388.304 126.231 389.307 125.746C390.369 125.207 391.491 124.721 392.789 124.829C393.085 124.937 393.321 124.991 393.557 124.991Z" fill="#10100F"/>
<path d="M394.088 125.908C393.734 125.908 393.261 126.285 393.143 126.501C392.907 126.986 393.084 127.418 393.498 127.741C393.911 128.011 394.383 127.849 394.737 127.579C395.209 127.202 395.209 126.771 394.855 126.339C394.737 126.123 394.442 125.908 394.088 125.908Z" fill="#10100F"/>
<path d="M287.919 236.002C289.935 236.427 289.829 236.427 289.723 237.912C289.617 238.867 290.147 239.716 289.829 240.777C289.722 241.201 290.041 241.626 290.89 241.413C292.163 241.095 292.906 241.413 292.587 242.686C292.481 243.323 292.693 243.323 293.118 243.429C293.436 243.535 293.966 243.854 293.86 243.96C293.754 245.339 295.027 245.339 295.876 245.339C299.696 245.657 303.197 244.808 305.849 241.732C306.274 241.201 306.804 240.565 307.335 240.14C307.971 239.504 308.714 239.397 309.563 239.928C310.306 240.458 310.412 241.095 309.881 241.838C307.865 245.339 301.924 248.31 297.68 248.31C294.391 248.31 291.526 247.461 288.662 246.506C286.752 245.869 285.691 244.49 284.948 242.899C283.887 240.458 283.675 237.806 284.524 235.26C285.479 232.395 287.707 230.061 290.784 228.575C294.921 226.666 299.165 226.454 303.197 228.151C304.895 228.894 306.274 229.955 307.759 231.016C308.184 231.334 308.29 231.758 308.29 232.289C308.29 232.819 308.396 233.35 307.759 233.774C307.123 234.199 306.38 234.199 305.955 233.774C304.682 232.607 303.091 231.971 301.606 231.228C297.043 229 289.616 231.44 287.919 236.002Z" fill="#10100F"/>
<path d="M299.802 236.851C305.85 235.578 307.759 235.472 311.579 235.26C315.717 235.366 324.523 236.321 326.645 236.851C328.448 237.275 330.995 238.018 330.783 239.503C330.57 241.519 324.947 239.291 322.083 238.973C319.324 238.761 315.398 238.336 310.73 238.336C306.592 238.442 302.56 239.397 298.529 240.14C296.937 240.458 295.982 239.822 296.195 238.655C296.301 237.912 296.937 237.594 297.574 237.381C298.317 237.169 299.059 237.063 299.802 236.851Z" fill="#10100F"/>
<path d="M299.059 235.047C297.892 235.472 297.15 235.153 296.831 234.199C296.513 233.244 296.937 232.501 297.998 232.077C299.059 231.652 300.12 231.97 300.439 232.819C300.757 233.668 300.12 234.729 299.059 235.047Z" fill="#10100F"/>
<path d="M420.353 83.7647C421.869 84.3334 421.806 84.3334 421.49 85.4707C421.301 86.2289 421.616 86.9871 421.237 87.7453C421.111 87.998 421.3 88.4403 421.932 88.3771C422.88 88.2507 423.449 88.6298 423.07 89.5776C422.88 90.0199 423.133 90.083 423.386 90.2726C423.638 90.399 423.954 90.6517 423.954 90.8412C423.701 91.9154 424.649 92.0417 425.344 92.1681C428.251 92.8631 431.031 92.6736 433.368 90.5885C433.811 90.2094 434.19 89.8303 434.695 89.5144C435.264 89.0721 435.896 89.0721 436.401 89.5776C436.907 90.083 436.907 90.5885 436.464 91.094C434.506 93.5581 429.641 95.1377 426.355 94.6322C423.891 94.2531 421.806 93.179 419.721 92.1049C418.331 91.4099 417.699 90.1462 417.32 88.8826C416.751 86.8607 416.941 84.7756 417.888 82.9433C418.963 80.8583 420.921 79.2787 423.449 78.5205C426.861 77.5727 430.083 77.8886 432.989 79.721C434.19 80.4792 435.138 81.4901 436.149 82.501C436.401 82.7538 436.464 83.1329 436.401 83.512C436.338 83.9543 436.338 84.3334 435.769 84.5861C435.201 84.7756 434.695 84.7756 434.379 84.3334C433.558 83.3224 432.421 82.6274 431.41 81.8692C428.187 79.405 422.248 80.4792 420.353 83.7647Z" fill="#10100F"/>
<path d="M429.893 84.8389C429.072 84.9652 428.63 84.7125 428.503 84.0175C428.377 83.3225 428.756 82.8802 429.514 82.6906C430.273 82.5643 430.904 82.8802 431.031 83.4488C431.157 84.0807 430.652 84.7125 429.893 84.8389Z" fill="#10100F"/>
<path d="M430.841 85.6602C437.349 85.597 443.857 85.2811 450.175 86.6711C451.502 86.9871 452.766 87.303 453.966 87.8084C454.851 88.1875 455.104 88.7562 454.661 89.5776C454.219 90.399 453.65 90.7149 452.703 90.3358C446.763 88.1875 440.445 88.3139 434.19 88.2507C432.737 88.2507 431.283 88.2507 429.893 88.3139C428.882 88.3771 427.872 88.3139 427.745 87.303C427.556 86.1025 428.504 85.7234 429.704 85.6602C430.02 85.7234 430.462 85.6602 430.841 85.6602Z" fill="#10100F"/>
<path d="M699.095 234.632C701.201 236.124 701.36 236.517 700.793 237.8C700.149 239.231 698.426 238.327 697.583 239.294C697.961 239.989 698.656 239.743 699.163 240.014C699.94 240.443 700.717 240.872 700.492 241.874C700.288 242.845 699.981 243.836 698.632 243.867C698.024 243.883 697.308 243.761 696.894 244.348C697.221 245.054 697.692 244.88 697.962 244.639C698.637 244.026 699.337 244.205 700.089 244.373C701.878 244.812 702.395 245.931 701.46 247.5C701.224 247.92 700.718 248.18 700.581 248.686C701.961 249.34 703.74 249.595 703.689 251.732C703.674 252.319 704.175 252.564 704.681 252.702C707.007 253.3 706.982 253.305 705.929 255.482C705.873 255.6 705.909 255.779 705.893 256.101C709.533 257.95 713.526 259.037 717.585 259.128C722.901 259.259 728.048 258.148 732.653 255.259C734.493 254.094 736.19 252.744 737.406 250.852C737.733 250.362 738.06 249.871 738.479 249.442C739.067 248.792 739.741 248.312 740.646 248.981C741.766 249.793 742.114 250.733 741.567 251.72C740.279 254.051 738.393 255.917 736.252 257.303C732.041 260.033 727.441 262.018 722.411 262.919C719.206 263.507 716.098 263.253 712.99 262.334C711.86 262.002 710.756 261.798 709.57 261.716C707.198 261.554 705.051 260.655 703.088 259.347C701.273 258.116 699.703 256.649 698.083 255.193C692.51 250.197 691.573 243.66 694.076 237.179C695.164 234.383 696.252 231.587 698.133 229.164C699.829 227.017 701.873 225.411 704.434 224.393C707.716 223.125 711.033 222.035 714.498 221.421C715.756 221.196 717.029 221.047 718.215 221.394C722.033 222.543 726.133 222.971 729.645 224.979C732.288 226.496 735.064 228.013 736.527 230.936C736.88 231.636 737.565 232.004 738.051 232.571C738.807 233.429 738.726 234.748 737.98 235.535C737.096 236.43 735.777 236.481 734.841 235.659C734.647 235.485 734.453 235.311 734.335 235.122C730.95 230.166 725.858 228.102 720.307 226.663C714.678 225.239 709.557 226.743 704.512 228.896C702.457 229.786 701.675 230.793 699.095 234.632Z" fill="#10100F"/>
<path d="M716.916 243.182C721.486 242.772 725.498 241.968 729.608 241.916C731.438 241.895 733.253 241.398 735.093 241.296C742.27 240.895 749.452 240.918 756.608 240.681C761.311 240.536 765.921 240.729 770.578 241.019C771.815 241.09 772.506 241.484 772.802 242.567C773.068 243.63 772.164 244.821 770.917 245.098C770.359 245.236 769.741 245.333 769.174 245.287C762.411 244.569 755.638 245.261 748.896 245.574C745.205 245.729 741.54 245.48 737.875 245.629C730.943 245.927 724.027 246.568 717.275 248.293C716.493 248.503 715.527 248.856 714.903 248.13C714.249 247.384 714.765 246.51 714.959 245.621C715.281 244.041 715.664 243.034 716.916 243.182Z" fill="#10100F"/>
<path d="M723.713 234.113C723.948 235.555 722.942 237.298 721.822 237.416C720.283 237.564 719.327 236.905 719.128 235.51C718.913 234.038 720.047 232.269 721.335 232.065C722.388 231.88 723.518 232.877 723.713 234.113Z" fill="#10100F"/>
<path d="M240.667 358.339C240.375 358.321 240.101 358.339 239.809 358.339C240.594 357.573 240.667 356.806 240.357 356.003C240.229 355.619 239.974 355.291 240.138 354.853C240.485 353.904 240.156 353.265 239.189 352.955C238.769 352.808 238.458 352.571 238.531 352.06C238.696 350.947 238.75 349.76 239.426 348.866C241.562 346.091 244.446 344.887 247.933 345.124C249.084 345.197 250.051 345.58 250.836 346.529C251.512 347.332 252.297 348.008 252.771 348.994C253.155 349.778 254.378 350.07 255.054 349.687C255.93 349.176 256.149 348.209 255.656 347.241C254.469 344.923 252.315 343.609 250.38 342.076C250.234 341.966 249.923 342.003 249.704 342.021C247.441 342.203 245.232 342.276 242.968 342.933C239.535 343.919 237.363 345.909 236.067 349.085C235.081 351.476 234.752 354.013 235.19 356.496C235.647 359.161 237.199 361.424 239.079 363.377C241.471 365.841 244.465 365.732 247.258 364.655C250.891 363.268 254.269 361.333 255.309 357.08C255.473 356.459 255.912 355.656 256.551 355.82C256.931 355.774 265.192 355.959 269.275 356.058C273.712 356.861 278.13 355.747 282.566 355.912C283.278 355.948 283.68 355.565 283.735 354.871C283.808 354.177 283.625 353.539 282.913 353.283C282.548 353.155 282.11 353.174 281.708 353.137C279.353 352.9 277.034 353.466 274.679 353.356C271.174 353.21 267.651 353.137 264.145 352.936C262.202 352.839 256.727 352.872 254.232 352.9C250.836 353.5 249.431 353.904 247.002 354.104C246.163 354.177 245.451 354.214 244.885 354.926C244.593 355.291 243.789 355.327 244.191 356.076C244.446 356.514 244.556 357.098 245.122 357.299C245.834 357.554 246.528 357.773 247.313 357.372C248.737 356.623 250.307 356.496 251.895 356.477C251.676 358.138 251.402 358.686 250.343 359.544C249.978 359.836 249.577 360.073 249.248 360.402C247.422 362.3 245.104 362.41 242.73 362.099C241.598 361.935 241.471 361.534 241.927 360.438C242.475 359.106 242.091 358.449 240.667 358.339Z" fill="#10100F"/>
<path d="M248.591 349.614C248.609 350.381 247.477 351.421 246.546 351.476C245.797 351.531 244.848 350.49 244.812 349.596C244.793 348.939 246.071 348.044 247.039 348.063C247.86 348.063 248.572 348.793 248.591 349.614Z" fill="#10100F"/>
<path d="M396.694 335.725C399.381 336.699 401.699 336.41 403.859 334.882C405.624 333.644 407.968 333.17 409.022 330.984C409.154 330.721 409.549 330.589 409.865 330.458C410.761 330.115 411.63 329.193 412.631 330.194C413.342 330.905 413.263 332.327 412.473 333.486C412.183 333.908 411.867 334.355 411.445 334.592C408.232 336.436 405.334 338.912 401.62 339.702C398.354 340.413 395.298 339.86 392.427 337.964C389.766 336.225 387.633 334.013 385.868 331.406C383.734 328.245 383.84 324.69 384.208 321.134C384.393 319.291 384.788 317.447 385.209 315.656C385.631 313.892 386.658 312.443 388.16 311.363C390.214 309.862 392.401 308.598 394.771 307.676C398.011 306.386 401.093 307.07 403.991 308.651C405.176 309.283 406.203 310.152 407.468 310.679C408.785 311.232 409.602 312.39 409.918 313.734C410.128 314.682 410.444 315.788 409.18 316.394C408.047 316.947 406.941 316.894 406.177 315.92C405.361 314.892 404.333 314.208 403.306 313.47C398.617 310.02 394.324 310.521 390.425 314.945C389.161 316.394 388.265 317.948 388.555 319.975C388.607 320.371 388.528 320.818 388.476 321.24C388.212 323.294 388.212 323.294 390.188 323.505C391.057 323.584 391.953 323.636 392.111 324.742C392.269 325.849 391.531 326.402 390.662 326.876C390.162 327.139 389.055 326.718 389.266 327.85C389.424 328.772 390.346 328.43 390.952 328.509C391.11 328.535 391.294 328.509 391.452 328.509C392.269 328.561 393.243 328.272 393.665 329.272C394.139 330.352 393.138 330.721 392.559 331.274C392.322 331.511 392.032 331.748 392.084 332.117C392.19 332.643 392.664 332.67 393.085 332.67C393.849 332.67 394.613 332.696 395.351 332.67C397.405 332.591 397.669 332.986 396.958 335.04C396.905 335.277 396.826 335.409 396.694 335.725Z" fill="#10100F"/>
<path d="M420.382 321.187C417.511 321.292 409.499 321.39 406.203 321.424C402.908 321.458 396.804 322.195 398.749 324.874C399.302 325.743 400.013 326.165 401.067 326.086C406.783 325.691 412.499 325.427 418.215 325.585C423.582 325.533 434.994 325.443 437.708 325.506C441.1 325.585 444.131 325.506 446.532 325.506C448.903 325.796 451.274 325.691 453.618 325.849C454.303 325.901 454.935 325.612 455.567 325.348C456.621 324.927 456.858 324.11 456.726 323.083C456.594 322.056 455.962 321.687 454.988 321.582C452.801 321.345 450.615 321.003 448.402 321.187C446.795 321.319 445.215 321.213 443.608 321.029C438.041 321.099 429.864 321.271 420.382 321.187Z" fill="#10100F"/>
<path d="M400.198 318.422C398.564 318.422 397.906 317.974 397.853 316.789C397.801 315.656 399.381 314.129 400.698 314.05C401.936 313.971 402.858 314.813 402.832 315.999C402.779 317.368 401.646 318.422 400.198 318.422Z" fill="#10100F"/>
<path d="M222.728 150.056C225.17 150.875 227.126 151.56 229.216 151.677C230.654 151.761 231.992 151.293 233.079 150.323C233.898 149.604 234.985 149.119 235.487 147.882C233.129 147.548 230.939 147.832 228.731 148.133C228.514 148.166 228.313 148.2 228.096 148.233C227.277 148.367 226.206 147.949 226.022 147.414C225.889 147.013 226.741 145.792 227.36 145.575C228.38 145.207 229.467 145.174 230.521 145.09C232.812 144.906 235.119 144.605 237.393 144.505C239.534 144.404 241.758 144.254 243.949 144.588C246.858 145.04 249.835 144.873 252.761 145.257C254.35 145.474 255.972 145.525 257.577 145.692C258.497 145.775 258.948 146.21 258.998 146.929C259.032 147.581 258.514 148.15 257.661 148.3C256.808 148.451 255.922 148.367 255.102 148.116C254.249 147.865 253.43 147.849 252.56 147.882C250.57 147.999 248.614 147.598 246.624 147.531C243.999 147.447 241.39 147.146 238.748 147.314C238.397 149.47 236.741 150.758 235.253 151.962C233.046 153.751 230.437 154.787 227.46 154.168C224.835 153.633 222.21 153.149 220.086 151.31C219.25 150.574 218.581 149.855 218.514 148.651C218.447 147.581 218.129 146.545 218.029 145.474C217.845 143.652 218.548 141.98 219.701 140.76C221.19 139.188 222.828 137.583 225.153 137.249C228.313 136.797 231.44 136.714 233.982 139.188C234.701 139.89 235.671 140.342 236.123 141.328C236.39 141.897 236.908 142.432 236.407 143.084C236.089 143.518 234.785 143.485 234.166 143.017C233.397 142.448 232.661 141.83 231.909 141.211C229.434 139.222 226.273 139.121 223.614 140.944C223.297 141.161 222.979 141.345 222.661 141.545C222.076 141.913 221.792 142.348 222.31 142.983C222.544 143.251 222.494 143.585 222.477 143.903C222.444 144.371 222.26 144.839 223.012 145.023C223.414 145.123 223.715 145.709 223.497 146.093C223.096 146.795 223.313 147.28 223.648 147.899C224.099 148.668 224.049 149.454 222.728 150.056Z" fill="#10100F"/>
<path d="M230.521 142.866C230.42 143.786 229.818 144.254 228.865 144.103C228.096 143.986 227.527 143.385 227.611 142.733C227.728 141.88 228.598 141.027 229.283 141.094C230.002 141.178 230.604 142.047 230.521 142.866Z" fill="#10100F"/>
<path d="M143.404 281.714C143.949 281.931 144.742 281.294 145.1 282.165C145.457 283.004 144.695 283.409 144.322 283.984C145.737 285.586 147.511 285.399 149.315 285.104C151.368 284.777 152.333 283.144 153.515 281.745C154.292 280.812 155.817 280.812 156.563 281.76C157.077 282.398 157.015 282.864 156.268 283.144C155.817 283.3 155.49 283.502 155.195 283.86C153.546 285.944 151.337 286.955 148.724 287.25C147.371 287.406 146.017 287.561 144.742 287.032C143.202 286.395 141.678 285.726 140.838 284.031C140.402 283.144 139.78 282.305 139.469 281.356C138.598 278.728 138.909 276.333 140.667 274.047C142.891 271.138 147.06 270.578 150.31 271.263C151.259 271.465 152.099 271.745 152.924 272.258C153.795 272.802 154.106 273.689 154.635 274.451C154.899 274.84 154.572 275.213 154.37 275.539C154.137 275.928 153.733 276.037 153.313 275.897C152.721 275.711 152.255 275.368 151.882 274.855C150.699 273.238 149.175 272.6 147.168 273.191C146.453 273.393 145.706 273.471 144.96 273.564C144.026 273.689 143.42 274.28 142.984 275.011C142.658 275.54 142.751 276.13 143.093 276.69C143.684 277.67 143.451 278.199 142.362 278.525C142.222 278.572 142.067 278.541 141.911 278.572C141.615 278.619 141.475 278.79 141.522 279.085C141.569 279.365 141.724 279.536 142.02 279.552C142.269 279.567 142.518 279.552 142.766 279.567C143.793 279.63 144.089 280.081 143.653 280.998C143.575 281.263 143.326 281.403 143.404 281.714Z" fill="#10100F"/>
<path d="M171.776 276.395C170.672 276.442 169.52 276.55 168.385 276.597C167.343 276.69 166.301 276.768 165.274 276.877C163.05 277.141 160.825 277.561 158.601 277.655C155.101 277.795 151.664 278.417 148.18 278.681C147.744 278.712 147.293 278.805 146.904 279.054C146.468 279.319 146.313 279.707 146.468 280.205C146.624 280.703 146.857 281.154 147.48 281.123C147.837 281.107 148.195 281.092 148.522 280.983C151.306 280.127 154.23 280.252 157.077 279.956C159.099 279.754 161.137 279.645 163.143 279.319C165.509 278.812 170.538 278.714 172.756 278.728C174.451 278.697 176.131 278.774 177.749 279.427C178.107 279.583 178.511 279.676 178.9 279.723C179.631 279.816 180.222 279.443 180.393 278.79C180.595 278.028 180.098 277.763 179.491 277.499C177.018 276.379 174.389 276.286 171.776 276.395Z" fill="#10100F"/>
<path d="M148.988 277.476C148.397 277.492 147.946 277.087 147.9 276.496C147.853 275.89 148.755 274.91 149.424 274.879C149.937 274.848 150.699 275.486 150.699 275.937C150.715 276.59 149.766 277.445 148.988 277.476Z" fill="#10100F"/>
<path d="M440.295 222.061C441.076 223.01 441.988 223.401 442.881 223.643C444.258 224.016 445.69 224.276 447.104 224.425C452.108 224.984 455.996 222.806 459.326 219.287C459.494 219.12 459.624 218.896 459.81 218.766C460.238 218.449 460.536 217.63 461.261 218.17C461.894 218.636 461.968 219.697 461.466 220.311C459.289 222.936 456.647 225.058 453.429 226.082C449.708 227.255 445.895 227.013 442.137 225.896C440.481 225.412 439.104 224.462 437.858 223.401C436.072 221.912 434.342 220.33 432.761 218.617C429.765 215.34 428.854 210.556 431.812 206.088C433.709 203.221 436.146 201.676 439.458 201.043C443.16 200.317 446.899 200.075 450.657 200.001C452.127 199.982 453.41 200.41 454.657 201.304C455.959 202.235 457.485 202.793 458.694 203.891C459.308 204.45 459.978 204.971 460.443 205.697C461.001 206.572 460.982 207.28 460.424 207.801C459.773 208.397 459.029 208.397 458.229 207.615C457.038 206.442 455.736 205.399 454.341 204.45C452.834 203.426 451.252 202.812 449.392 202.663C445.448 202.328 441.709 203.24 437.932 204.059C437.393 204.171 437.244 204.469 437.039 204.99C436.667 205.976 436.239 206.833 436.723 207.95C436.984 208.545 436.035 209.309 435.179 209.29C434.639 209.272 434.119 209.123 433.579 209.085C433.467 209.085 433.3 209.272 433.244 209.42C433.17 209.644 433.356 209.737 433.542 209.756C434.026 209.811 434.491 209.886 434.974 209.904C435.551 209.923 436.091 210.035 436.295 210.612C436.518 211.245 436.314 211.785 435.7 212.138C435.551 212.232 435.421 212.362 435.328 212.436C435.384 213.032 435.886 212.883 436.128 213.088C436.537 213.423 436.723 213.851 436.63 214.354C436.518 214.968 436.053 215.21 435.477 215.303C434.956 215.378 434.398 215.229 433.895 215.489C434.342 216.904 434.342 216.941 435.625 216.644C436.5 216.439 437.393 216.513 438.286 216.253C438.955 216.048 439.644 216.383 439.83 217.146C440.016 217.872 439.421 218.245 438.9 218.487C438.267 218.766 437.579 218.878 436.946 219.175C438.118 219.492 439.272 219.697 440.462 219.566C441.225 219.473 442.193 219.306 442.36 220.33C442.509 221.205 441.839 221.726 440.983 221.912C440.76 221.893 440.593 221.949 440.295 222.061Z" fill="#10100F"/>
<path d="M474.313 215.937C476.103 216.103 477.87 216.177 479.673 216.713C480.964 217.012 483.875 217.46 485.17 217.647C485.941 217.688 486.784 216.521 486.888 215.775C487.005 214.889 486.771 214.132 485.954 213.884C485.006 213.485 481.51 213.187 479.881 213.088C472.655 212.102 465.437 212.345 458.212 211.916C454.732 211.697 451.232 211.989 447.744 211.584C446.783 211.48 446.192 211.734 445.586 212.615C445.625 214.939 446.354 215.106 448.03 215.354C451.462 215.761 454.836 215.126 458.26 215.347C463.623 215.683 468.964 215.439 474.313 215.937Z" fill="#10100F"/>
<path d="M450.713 209.234C450.099 209.253 449.522 208.657 449.485 207.968C449.448 207.317 450.564 206.07 451.271 206.014C451.959 205.958 452.648 206.591 452.685 207.317C452.722 208.21 451.699 209.216 450.713 209.234Z" fill="#10100F"/>
<path d="M555.852 140.493C556.59 139.755 557.348 139.755 558.025 139.509C558.516 139.324 559.008 139.119 559.398 138.771C560.299 137.971 560.258 137.54 559.234 136.802C559.029 136.659 558.803 136.515 558.434 136.29C559.439 135.367 560.504 134.936 561.754 134.793C564.664 134.465 567.512 135.059 570.381 135.387C573.517 135.736 576.119 137.13 578.558 138.996C579.398 139.632 580.34 140.165 581.078 140.883C581.816 141.621 582.308 141.56 583.025 140.883C584.336 139.694 584.316 139.365 582.82 138.463C580.914 137.315 579.029 136.125 577.205 134.854C575.32 133.542 573.107 132.927 570.955 132.619C567.984 132.188 564.971 131.881 561.939 132.045C558.721 132.229 556.139 133.747 553.844 135.715C552 137.294 550.75 139.345 550.238 141.888C549.439 145.743 550.689 148.901 553.475 151.259C557.041 154.273 561.303 155.873 565.996 156.59C569.889 157.185 573.721 156.98 577.574 156.508C579.705 156.242 581.529 155.196 583.168 153.884C584.09 153.145 584.213 152.305 583.742 151.669C583.23 150.992 582.39 150.828 581.426 151.259C581.18 151.361 580.955 151.505 580.75 151.669C577.779 154.027 574.295 154.376 570.689 154.232C569.439 154.171 568.209 154.15 566.959 154.089C566.303 154.048 565.668 153.966 565.053 153.679C563.988 153.166 562.84 152.961 561.672 152.694C560.361 152.387 558.783 152.018 558.639 150.131C558.578 149.352 557.984 149.208 557.369 149.147C556.713 149.106 556.057 149.167 555.422 149.085C555.094 149.044 554.848 148.737 554.848 148.368C554.848 148.039 555.135 147.978 555.381 147.875C555.832 147.691 556.283 147.732 556.734 147.773C557.369 147.834 557.984 147.732 558.086 146.973C558.189 146.173 557.881 145.517 557.062 145.292C556.098 145.025 555.094 144.923 554.172 145.333C553.516 145.62 553.107 145.558 553.107 144.841C553.107 144.225 552.635 143.262 553.824 143.159C554.48 143.098 555.135 143.241 555.791 143.282C556.426 143.303 557.164 143.467 557.43 142.585C557.697 141.683 557.451 141.026 556.508 140.719C556.324 140.678 556.16 140.616 555.852 140.493Z" fill="#10100F"/>
<path d="M620.347 147.293C617.049 147.186 613.787 146.691 610.593 146.035C607.601 145.447 604.612 145.312 601.604 145.134C597.267 144.864 592.929 145.149 588.589 144.961C583.553 144.746 578.492 144.633 573.435 144.951C572.016 145.04 570.553 144.696 569.12 144.641C567.933 144.575 567.489 144.927 567.434 145.807C567.353 146.851 567.915 147.693 568.917 147.773C569.898 147.852 570.902 147.87 571.873 147.702C573.895 147.37 575.924 147.407 577.951 147.485C579.651 147.551 581.311 147.04 583.064 147.313C584.797 147.585 586.581 147.572 588.343 147.619C590.432 147.679 592.523 147.698 594.638 147.636C599.75 147.484 604.843 147.824 609.918 148.656C614.054 149.349 618.134 150.43 622.352 150.613C622.863 150.632 623.449 150.881 623.836 150.403C624.138 150.025 624.866 149.766 624.622 149.161C624.325 148.37 623.906 147.533 622.946 147.414C622.049 147.277 621.186 147.325 620.347 147.293Z" fill="#10100F"/>
<path d="M567.84 139.981C567.881 140.678 568.742 141.621 569.295 141.601C570.012 141.58 571.324 140.657 571.324 140.186C571.303 139.14 570.32 138.279 569.193 138.34C568.475 138.402 567.799 139.222 567.84 139.981Z" fill="#10100F"/>
<path d="M227.355 59.7815C228.113 59.9113 228.654 60.0195 229.173 60.0844C229.887 60.1709 230.385 60.4737 230.363 61.2525C230.341 62.0746 230.06 62.8102 229.173 62.9832C228.502 63.1347 227.81 63.113 227.031 63.1779C227.399 64.3245 228.264 64.2163 229.065 64.1947C229.844 64.1947 230.666 64.1947 230.817 65.2331C230.947 66.185 230.19 66.5095 229.584 66.9638C229.043 67.3532 228.329 67.072 227.831 67.5479C227.896 68.4565 228.567 68.6296 229.281 68.7377C229.498 68.7594 229.692 68.7594 229.909 68.781C232.462 69.0406 232.548 69.2137 231.791 71.788C232.397 72.1774 233.133 72.026 233.782 72.1991C234.539 72.3721 235.167 72.7615 235.275 73.4754C235.448 74.6869 236.183 74.86 237.179 74.9249C241.247 75.1845 245.249 74.7085 248.928 72.913C251.373 71.7015 254.034 70.6847 255.722 68.2834C256.133 67.6993 256.869 67.8724 257.41 68.2185C258.037 68.6296 258.318 70.1223 257.864 70.6415C257.431 71.1607 256.955 71.7015 256.371 72.0476C254.359 73.2807 252.39 74.5787 250.269 75.5739C246.916 77.1315 243.367 78.0617 239.624 77.9968C237.893 77.9535 236.162 78.0401 234.452 77.6507C229 76.3959 225.473 73.2591 224.543 67.5479C224.196 65.4927 224.045 63.4159 224.002 61.3391C223.937 58.4402 225.733 56.2985 227.269 54.0919C228.957 51.6906 231.337 50.3926 234.171 49.8734C235.534 49.6138 236.768 48.9432 238.131 48.6403C241.073 47.9913 243.994 47.7101 246.98 48.4023C249.079 48.8783 251.243 48.835 253.299 49.657C255.441 50.5224 257.323 51.8204 259.292 52.9237C260.136 53.3996 260.352 54.1568 260.201 55.0654C260.028 56.212 259.141 56.7528 258.08 56.3634C257.691 56.212 257.301 56.0173 256.998 55.736C254.943 53.789 252.39 53.0318 249.728 52.3828C247.63 51.8853 245.531 51.6906 243.41 51.4526C241.571 51.2579 239.819 51.5175 238.152 52.2531C237.503 52.5343 236.833 52.6425 236.14 52.7723C232.137 53.5511 228.913 55.3899 227.355 59.7815Z" fill="#10100F"/>
<path d="M240.974 62.2105C240.579 64.1842 242.158 64.1842 243.342 64.1842C246.105 64.3681 252.342 64.4048 255.184 64.1842C258.737 63.9084 270.974 63.6326 275.316 63.9084C278.789 64.129 285.71 64.3158 289.132 64.579C290.121 64.766 293.926 64.8735 294.177 63.9084C294.603 62.3002 294.423 61.8824 292.764 61.6713C289.531 61.2521 285.655 61.2425 282.421 60.8666C278.753 60.7126 271.763 60.5651 267.816 60.5651C263.868 60.5651 260.316 60.8666 255.974 60.8666C252.22 61.0998 248.653 61.2604 244.921 60.8666C243.735 60.7374 241.711 60.9814 240.974 62.2105Z" fill="#10100F"/>
<path d="M242.948 56.4145C242.97 55.4843 244.008 54.3594 244.852 54.3161C245.501 54.2945 246.324 55.4626 246.237 56.328C246.151 57.3015 245.242 58.1236 244.268 58.1236C243.338 58.1019 242.927 57.5611 242.948 56.4145Z" fill="#10100F"/>
</svg>
