<svg width="3240" height="372" viewBox="0 0 3240 372" fill="none" xmlns="http://www.w3.org/2000/svg">
<path d="M0 312C0 312 566 252 1620 252C2674 252 3240 312 3240 312V372H0V312Z" fill="#10100F"/>
<path d="M3117.8 212.7C3119 212.8 3120.9 212.8 3122.8 213C3127.3 213.5 3133.9 209.9 3135.7 205.9C3136.3 204.7 3136.2 203.7 3135.2 202.7C3131.6 198.9 3127.2 196.6 3122.1 195.7C3121.4 195.6 3120.6 195.6 3119.9 195.5C3119 195.3 3118.2 194.9 3118.1 193.8C3118 192.4 3119 192.1 3120.1 191.9C3122.2 191.4 3124.3 191.8 3126.3 192.4C3130.7 193.9 3134.7 196.1 3138.2 199.3C3141.2 202.1 3141.1 206.2 3138.1 209.7C3133.3 215.1 3127.7 218.6 3120.1 217C3117.6 216.5 3115.1 217 3112.6 217.1C3110 217.2 3108.4 215.9 3107.3 213.7C3106.3 211.7 3106.9 210.1 3108.3 208.4C3112.5 203.2 3116.3 202.1 3123.1 204.2C3123.7 204.4 3124.2 204.5 3124.6 203.9C3125.2 203 3124.6 202.4 3124 202.1C3119.9 200.5 3115.7 200.7 3111.9 202.7C3108.1 204.6 3105.1 207.4 3103.5 211.6C3102.1 215.2 3103.4 217.9 3107.2 218.6C3109.8 219.1 3112.4 220 3115.1 220C3115.8 220 3116.7 220.1 3116.9 221C3117.2 222 3116.5 222.8 3115.8 223.2C3114.4 223.9 3113 224 3111.5 223.5C3109.3 222.9 3107.2 222.5 3105 221.9C3100.6 220.8 3098 216.5 3098.9 212.1C3099.5 209.3 3101.6 207.1 3101.7 204.2C3101.7 203.8 3102.4 203.2 3102.9 202.9C3108.6 199.2 3114.6 196.4 3121.7 197.3C3123.3 197.5 3124.9 197.9 3126.3 198.8C3128.2 199.9 3129.6 201.4 3129.2 203.8C3128.7 206.6 3126.9 209 3124.3 208.9C3121.1 208.8 3117.9 210.5 3114.7 209.4C3113.8 209.1 3112.9 209.4 3112.2 210C3111.4 210.5 3110.8 211.2 3111.2 212.2C3111.5 213.1 3112.3 213.1 3113 213.1C3114.3 213 3115.7 212.9 3117.8 212.7Z" fill="#10100F"/>
<path d="M3111.2 190.6C3112.4 190.8 3113.5 191.2 3113.7 192.6C3113.9 194.1 3113 194.8 3111.7 194.9C3110.3 195 3109.5 194.2 3109.4 192.8C3109.3 191.6 3110 190.9 3111.2 190.6Z" fill="#10100F"/>
<path d="M3128.2 224.1C3128.2 225.3 3127.7 226.1 3126.5 226.3C3125.3 226.5 3124.4 226 3124.4 224.7C3124.3 223.6 3124.8 222.7 3126.1 222.5C3127.2 222.3 3128 222.9 3128.2 224.1Z" fill="#10100F"/>
<path d="M2677.46 44.8145C2683.02 45.6251 2687.08 47.8541 2690.92 49.8806C2696.47 52.9202 2702.45 54.136 2708.65 54.744C2709.5 54.744 2710.14 54.744 2711 54.3387C2712.71 53.7308 2714.41 52.9202 2714.2 50.8938C2713.99 49.07 2711.85 49.07 2710.36 49.07C2709.93 49.07 2709.5 49.2726 2709.07 49.2726C2706.94 49.6779 2705.87 48.462 2705.44 46.6383C2705.02 45.0171 2705.87 43.5986 2707.37 42.9907C2709.29 42.1801 2711.21 41.5722 2713.35 42.3828C2715.48 43.1933 2717.4 43.8013 2719.33 45.0171C2721.68 46.4356 2722.53 48.462 2721.68 51.0964C2720.61 54.5413 2718.47 57.3783 2715.27 59.6074C2714.2 60.2153 2713.13 60.6206 2711.85 60.8232C2703.31 61.6338 2695.62 59.6074 2688.14 55.7572C2684.94 54.136 2681.74 52.7175 2678.32 51.5017C2673.62 49.8805 2669.56 51.907 2665.5 53.7308C2664.86 53.9334 2664.65 54.5413 2664.01 54.9466C2662.51 56.1625 2660.8 56.7704 2659.1 55.1492C2657.6 53.9334 2657.6 51.2991 2659.31 49.8806C2661.02 48.2594 2662.94 46.8409 2665.5 46.233C2669.35 45.8277 2673.62 44.0039 2677.46 44.8145Z" fill="#10100F"/>
<path d="M3007.9 229.597C3003.87 233.344 3001.59 238.398 2998.35 242.77C2991.75 251.629 2984.02 259.181 2975.2 265.768C2973.38 267.13 2971.33 268.209 2969.63 269.686C2965.19 273.661 2960.07 276.386 2954.56 278.43C2937.55 284.733 2920.21 288.708 2901.95 287.856C2897.46 287.629 2893.08 286.437 2888.47 286.437C2878.8 286.494 2869.99 289.617 2861.06 292.683C2856.56 294.216 2852.19 295.749 2847.29 295.636C2838.71 295.409 2830.57 287.856 2830.06 279.339C2829.27 266.165 2832.39 253.502 2835.12 240.783C2837.23 231.016 2841.15 221.817 2843.03 211.994C2843.65 208.814 2844 205.691 2844.05 202.454C2844.39 191.041 2837.51 184.113 2825.91 184.511C2820.05 184.738 2814.19 184.511 2808.39 185.362C2805.38 185.817 2802.99 186.441 2801.91 189.792C2801.28 191.779 2799.64 193.199 2797.36 193.653C2792.01 194.732 2789 192.233 2789 186.725C2789 182.523 2791.27 179.571 2794.23 177.129C2795.71 175.936 2797.64 175.312 2799.46 176.675C2800.94 177.754 2801.97 177.526 2803.33 176.277C2814.02 166.681 2825.57 158.163 2837.06 149.532C2844.17 144.138 2849.06 137.153 2850.88 128.182C2851.62 124.661 2852.75 121.254 2853.78 117.847C2854.35 115.917 2855.31 114.156 2857.65 114.44C2859.92 114.724 2860.38 116.484 2860.6 118.585C2861.4 126.478 2865.55 132.668 2871.07 138.062C2871.86 138.857 2872.83 139.538 2873.8 140.049C2878.06 142.15 2879.88 141.639 2882.84 137.835C2885.97 133.803 2888.58 129.431 2891.03 124.945C2892.11 122.958 2893.3 121.027 2894.67 119.21C2895.47 118.131 2896.72 117.45 2898.2 117.961C2899.5 118.472 2900.41 119.437 2900.47 120.913C2900.64 125.059 2901.21 129.261 2900.93 133.349C2900.36 141.072 2900.98 148.794 2900.07 156.573C2899.39 162.592 2901.21 168.555 2902.18 174.517C2903.2 181.104 2903.2 187.691 2902.35 194.221C2901.72 198.763 2901.78 203.136 2902.86 207.678C2904.68 215.231 2904.39 222.896 2903.37 230.676C2902.57 236.638 2901.95 242.657 2901.21 248.619C2900.76 252.367 2898.59 255.66 2898.88 259.805C2903.37 256.342 2906.61 251.969 2909.91 247.711C2918.84 236.127 2925.44 223.237 2931.58 210.063C2935.79 200.978 2939.31 191.665 2943.69 182.637C2946.59 176.561 2949.21 170.258 2952 164.069C2957.51 151.86 2966.04 142.264 2977.31 135.052C2986.12 129.431 3001.87 131.816 3009.33 137.948C3016.26 143.627 3018.6 151.065 3020.02 159.129C3021.95 169.804 3022.86 180.649 3020.93 191.268C3018.65 203.817 3015.58 216.309 3008.64 227.439C3008.13 228.234 3007.51 228.972 3007.68 229.994L3007.9 229.597ZM2885.57 279.509C2890.18 279.793 2893.7 279.566 2897.06 280.304C2905.65 282.121 2914.18 282.576 2922.76 280.702C2926.06 279.963 2929.42 279.509 2932.77 278.771C2942.61 276.67 2952.28 273.774 2960.81 268.493C2975.2 259.578 2987.88 248.619 2997.32 234.253C2998.41 232.663 2998.46 231.414 2997.95 229.597C2995.85 222.442 2991.75 216.309 2987.77 210.177C2983.96 204.328 2979.98 203.022 2973.5 205.35C2969.97 206.599 2966.56 208.303 2962.97 209.552C2957.23 211.54 2946.7 210.063 2940.08 204.251C2937.12 202.831 2936.09 200.333 2937.46 198.402C2939.11 196.074 2941.21 196.131 2943.37 197.607C2947.57 202.177 2957 204.328 2961.15 203.079C2964.11 202.227 2966.67 200.694 2969.51 199.558C2975.66 197.173 2981.8 195.64 2987.94 199.615C2992.09 202.284 2994.77 206.145 2996.59 210.574C2998.46 215.117 3001.7 218.694 3003.81 223.407C3004.55 222.385 3005.06 221.817 3005.4 221.193C3014.84 201.375 3018.54 180.82 3013.99 159.072C3013.19 155.324 3012.06 151.804 3010.12 148.567C3003.58 137.381 2989.59 135.336 2981 139.936C2970.65 145.501 2962.97 154.302 2958.03 164.977C2949.84 182.58 2942.22 200.41 2934.31 218.126C2929.42 229.142 2923.05 239.363 2915.88 249.017C2909.46 257.648 2902.29 265.597 2894.84 273.377C2892.39 275.762 2889.15 276.954 2885.57 279.509ZM2811.69 177.867C2816.3 177.867 2819.88 177.924 2823.46 177.867C2827.45 177.81 2831.37 177.697 2835.24 178.889C2845.19 182.012 2851.11 190.814 2850.82 200.978C2850.59 209.211 2848.55 216.991 2846.16 224.713C2842.86 235.332 2839.79 246.064 2837.91 257.023C2836.77 263.667 2835.92 270.481 2836.32 277.295C2836.77 285.471 2846.9 292.229 2853.95 288.424C2857.13 286.721 2861.34 287.459 2863.62 284.393C2865.95 281.269 2868.79 279.68 2872.66 279.566C2872.89 279.566 2873.34 279.055 2873.34 278.828C2873.34 274.853 2877.38 275.194 2880.11 273.149C2877.84 272.979 2876.3 272.922 2874.82 272.695C2873.17 272.468 2871.81 271.56 2871.75 269.856C2871.69 268.039 2873.17 267.414 2874.88 267.414C2876.58 267.414 2878.29 267.244 2880 267.358C2882.16 267.471 2884.09 267.187 2885.8 265.654C2884.15 264.462 2882.39 265.427 2880.74 264.973C2879.31 264.575 2878.12 263.837 2878.06 262.417C2877.89 259.408 2882.84 258.67 2881.59 254.922C2881.48 254.581 2882.39 253.502 2883.01 253.389C2884.26 253.105 2885.63 253.105 2886.93 253.162C2888.81 253.219 2890.69 253.502 2892.51 252.821C2893.48 252.48 2894.21 252.083 2893.36 250.323C2891.03 251.061 2888.47 251.742 2885.85 251.515C2884.21 251.345 2882.78 250.777 2882.61 248.96C2882.39 247.029 2883.86 246.348 2885.46 246.064C2888.07 245.61 2890.69 245.212 2893.3 244.928C2896.09 244.644 2896.77 243.168 2895.98 240.499C2893.65 241.294 2891.31 242.203 2888.98 242.941C2886.88 243.622 2885.23 243.054 2884.6 240.726C2883.98 238.398 2885.74 237.83 2887.39 237.262C2888.53 236.865 2890.69 237.433 2890.63 235.729C2890.52 232.209 2892 230.959 2895.3 230.959C2896.26 230.959 2896.94 229.994 2897 228.972C2897.06 227.666 2896.21 226.871 2894.95 226.701C2894.04 226.587 2893.08 226.587 2892.11 226.701C2890.4 226.871 2888.87 226.303 2888.81 224.543C2888.75 222.783 2889.61 221.25 2891.71 220.966C2892.96 220.795 2894.39 221.363 2895.64 220.227C2895.07 220.057 2894.56 219.83 2894.04 219.773C2888.93 219.319 2888.47 218.467 2891.26 214.379C2891.77 213.641 2891.94 213.527 2891.31 212.732C2888.24 208.587 2888.47 207.735 2893.08 206.316C2894.21 205.975 2895.35 206.032 2895.3 204.442C2895.3 202.852 2894.21 202.681 2893.02 202.625C2892.45 202.625 2891.88 202.511 2891.31 202.568C2888.87 202.681 2887.11 201.773 2887.16 199.161C2887.22 196.719 2889.04 196.151 2891.14 196.322C2892.96 196.435 2894.56 195.981 2895.69 194.505C2895.98 194.164 2895.92 193.369 2895.75 192.915C2895.52 192.29 2894.84 192.29 2894.33 192.517C2893.65 192.801 2893.02 193.483 2892.34 193.596C2890.69 193.823 2888.7 194.505 2887.67 192.744C2886.88 191.382 2887.39 189.905 2888.47 188.599C2890.46 186.101 2889.78 181.842 2893.76 180.649C2893.93 180.593 2894.16 179.968 2894.1 179.627C2893.53 175.596 2895.64 171.735 2894.44 167.476C2893.13 162.763 2893.7 157.709 2893.87 152.826C2894.04 146.75 2893.93 140.617 2893.93 134.541C2890.75 138.743 2886.82 142.094 2884.94 146.92C2884.03 149.248 2881.82 150.27 2879.88 149.419C2874.65 147.034 2868.68 146.352 2864.41 141.583C2861.97 138.8 2860.55 135.109 2857.13 132.838C2852.87 143.797 2845.87 152.087 2836.2 158.39C2827.62 163.728 2819.71 170.031 2811.69 177.867Z" fill="#10100F"/>
<path d="M2978.78 214.848C2981.67 214.568 2983.63 215.964 2984 219.313C2984.38 223.035 2981.77 226.012 2978.13 226.012C2974.69 226.105 2972.82 223.407 2972.64 219.034C2972.45 214.475 2975.9 215.499 2978.78 214.848Z" fill="#10100F"/>
<path d="M2854.63 161.4C2852.81 160.889 2851.62 159.924 2851.67 157.879C2851.73 155.551 2853.21 154.416 2855.26 154.472C2856.96 154.529 2858.61 155.211 2858.61 157.482C2858.56 159.469 2856.45 161.513 2854.63 161.4Z" fill="#10100F"/>
<path d="M2867.54 157.255C2869.48 157.084 2870.1 158.504 2870.16 160.435C2870.21 162.933 2868.34 163.671 2866.52 163.898C2864.93 164.126 2863.73 162.99 2863.45 161.23C2863.16 159.185 2864.93 157.312 2867.54 157.255Z" fill="#10100F"/>
<path d="M2987.16 265.078C2990.7 266.129 2990.4 266.197 2991.26 269.869C2992.13 273.666 2991.71 277.557 2992.69 281.455C2994.07 280.641 2994.04 279.205 2994.43 277.967C2996.31 272.133 2995.92 266.093 2996.51 260.108C2996.62 259.064 2996.62 257.919 2997 256.966C2997.45 255.821 2998.4 254.928 2999.88 255.36C3001.13 255.71 3000.89 256.811 3000.85 257.704C3000.6 262.483 3000.22 267.281 3000.09 272.083C2999.96 276.229 2999.95 280.357 3000.11 284.475C3000.17 286.818 3000.71 287.038 3002.81 285.864C3004.13 285.123 3005.43 284.54 3006.43 285.825C3008.87 288.924 3012.71 289.662 3015.8 291.652C3016.03 291.775 3016.44 291.728 3016.54 291.908C3022 295 3024.79 293.777 3028.62 293.694C3029.28 293.69 3030.11 293.636 3030.54 294C3031.98 295.119 3033.39 295.253 3035.04 294.529C3036.07 294.061 3036.88 294.536 3037.38 295.444C3037.9 296.437 3036.14 298.362 3035.33 298.992C3033.95 300.05 3032.39 300.953 3030.54 300.741C3029.08 300.6 3027.42 300.953 3026.21 300.611C3023.01 299.704 3019.99 300.507 3016.91 300.521C3015.38 300.532 3013.7 301.003 3012.42 299.423C3011.92 298.8 3011.03 298.966 3010.17 299.178C3006.98 300.031 3007.12 299.894 3005.52 297.191C3004.33 295.136 3002.01 293.203 3000.03 293.293C2997.09 293.415 2996.14 295.413 2995.5 293.293C2994.86 295.712 2994.68 294.247 2992.22 295.15C2991.91 295.258 2991.63 295.697 2991.44 296.032C2990.97 297.05 2991.03 298.533 2989.25 298.375C2987.64 298.245 2986.97 297.183 2986.37 295.931C2986.31 295.837 2986.16 295.729 2986.09 295.675C2982.42 298.731 2980.8 298.562 2978.05 294.71C2977.66 294.149 2971.02 291.094 2970.5 291C2964.5 291.5 2973 290.5 2973.4 286.425C2973.26 285.788 2973.47 285.089 2973.63 284.463C2973.82 283.599 2974.42 283.013 2975.32 283.052C2976.26 283.06 2976.85 283.697 2976.89 284.564C2976.99 286.749 2977 287.132 2978.05 289C2978.58 289.954 2980.06 291.043 2981 291.5C2982.31 290.838 2982.34 290.744 2982.39 289.812C2982.58 285.799 2983.78 281.926 2983.4 277.891C2983.25 276.228 2983.8 274.774 2985.5 274.468C2987.71 274.051 2987.59 272.64 2987.19 271.218C2986.56 269.059 2986.56 267.014 2987.34 264.948C2987.3 264.981 2987.16 265.078 2987.16 265.078Z" fill="#10100F"/>
<path d="M2785.35 265.059C2786.71 264.894 2787.45 264.108 2788.35 263.653C2789.5 263.074 2790.57 263.157 2791.55 263.984C2792.41 264.728 2792.58 265.721 2792.37 266.796C2792.21 267.913 2791.22 268.864 2791.71 270.27C2793.31 269.567 2793.6 268.078 2794.05 266.713C2794.96 263.984 2794.38 261.089 2794.96 258.276C2795.2 257.16 2794.09 256.457 2793.68 255.547C2792 251.701 2794.22 245.993 2797.99 244.463C2801.31 243.14 2804.84 245.249 2805.38 249.012C2805.58 250.543 2805.29 252.156 2805.62 253.603C2806.07 255.754 2805.21 256.664 2803.32 257.284C2798.77 258.69 2798.52 259.104 2798.77 264.48C2799.39 265.183 2799.88 264.356 2800.41 264.315C2802.42 264.149 2803 264.687 2802.59 266.713C2801.93 269.733 2801.64 272.793 2800.41 275.647C2800 276.557 2799.43 277.466 2800.33 278.418C2801.31 278.418 2801.77 277.673 2801.97 277.011C2802.59 274.695 2804.72 274.489 2806.36 273.827C2807.71 273.248 2808.49 274.323 2808.7 275.605C2809.19 278.624 2809.23 281.644 2807.63 284.373C2805.87 284.166 2806.16 282.181 2804.88 281.726C2799.26 285.2 2796.8 285.076 2795.16 281.147C2794.13 281.395 2793.48 282.264 2792.7 282.843C2791.88 283.463 2791.18 284.125 2789.99 283.381C2788.35 282.347 2786.91 283.298 2786.05 284.539C2784.66 286.565 2783.22 286.151 2781.42 285.283C2777.81 283.546 2773.91 282.926 2769.93 282.843C2766.48 282.76 2763.08 282.595 2759.63 283.05C2758.11 283.256 2756.64 283.091 2755.36 281.892C2754.54 281.106 2753.07 280.031 2752.33 280.734C2749.41 283.546 2747.04 279.865 2744.37 280.403C2743.59 280.527 2743.1 279.658 2743.01 278.831C2742.93 277.839 2743.18 277.011 2744.2 276.681C2746.05 276.06 2747.9 275.895 2749.87 276.226C2753.44 276.805 2753.44 276.763 2754.5 273.413C2754.75 272.628 2755.08 271.966 2755.98 271.924C2756.8 271.883 2757.5 272.173 2757.87 272.958C2758.03 273.289 2758.28 273.662 2758.32 274.034C2758.44 275.771 2759.59 276.391 2760.94 275.853C2762.26 275.357 2762.71 273.786 2762.26 272.586C2761.07 269.484 2759.02 266.796 2757.09 264.108C2756.47 263.239 2755.16 263.653 2754.17 263.57C2750.85 263.405 2749.95 262.412 2750.07 259.062C2750.15 257.284 2750.48 255.464 2750.52 253.686C2750.65 250.294 2752.74 248.268 2755.28 246.696C2759.75 243.925 2765.66 246.945 2766.24 252.197C2766.44 253.975 2766.36 255.795 2766.52 257.532C2766.77 259.931 2765.83 261.792 2764.06 263.239C2762.83 264.232 2762.63 265.142 2763.69 266.465C2765.17 268.244 2766.4 270.187 2767.84 272.007C2768.45 272.752 2769.07 273.661 2770.46 273.951C2770.09 272.131 2769.81 270.436 2768.82 268.947C2768.12 267.871 2767.63 266.713 2767.55 265.349C2767.43 262.991 2768.82 261.13 2770.87 261.047C2773.05 260.923 2775.34 263.363 2775.14 265.555C2775.1 266.052 2774.93 266.589 2774.69 267.003C2773.13 269.857 2774.44 271.966 2776.53 273.703C2777.6 274.613 2778.67 275.481 2779.53 276.639C2779.98 277.218 2780.51 277.963 2781.38 277.59C2782.11 277.26 2781.91 276.474 2781.87 275.895C2781.66 271.511 2780.55 267.292 2779.36 263.115C2778.91 261.585 2777.85 260.758 2776.29 260.717C2769.93 260.551 2765.74 250.294 2770.17 244.298C2772.02 241.816 2775.39 241.237 2778.46 241.03C2782.24 240.741 2785.35 242.561 2788.23 244.794C2789.91 246.076 2790.36 247.978 2789.74 250.005C2788.88 252.859 2787.53 255.547 2784.99 257.16C2783.59 258.028 2783.39 258.814 2783.67 260.22C2784.21 261.709 2784.41 263.363 2785.35 265.059ZM2754.95 259.476C2757.58 258.773 2759.79 258.028 2762.63 257.946C2759.3 256.291 2757.25 256.705 2754.95 259.476ZM2776.99 255.34C2778.01 252.362 2781.83 255.299 2783.02 252.445C2779.04 252.28 2778.3 252.61 2776.99 255.34Z" fill="#10100F"/>
<path d="M192.9 125.4C193.2 127.6 195.8 128.1 196 130.3C196.1 131.6 195.6 133.7 195 133.4C191.5 131.8 188.4 136 186.2 134.9C182.5 133.1 182.3 135.7 180.9 137.3C177.3 141.7 175.4 141.6 173.6 136.2C172.7 133.5 171.5 134.2 169.9 134.6C168 135.1 166.4 134.9 165.8 132.9C165.2 130.9 166.9 130.5 168.1 129.7C170.4 128.2 173.9 127.2 171.1 123.2C170.7 122.7 171.4 121.7 172.1 121.6C175.9 121 175.3 118.9 174.3 116.3C173.7 114.5 173 112.3 175.4 111.1C177.9 109.9 179.6 111.2 180.7 113.4C183.2 118.3 188 119 192.7 119.3C194 119.4 195.5 118.2 196.5 119.9C197.5 121.6 196.1 122.6 195 123.5C194.4 124.3 193.6 124.9 192.9 125.4Z" fill="#10100F"/>
<path d="M149.4 79.1C148 79.3 147.7 81.1 146.3 81.3C145.5 81.4 144.1 81.1 144.2 80.8C145.1 78.4 142.3 76.6 143 75.1C144.1 72.6 142.4 72.6 141.2 71.7C138.2 69.4 138.2 68.2 141.7 66.9C143.5 66.2 143 65.5 142.6 64.4C142.2 63.2 142.3 62.1 143.6 61.6C144.9 61.1 145.2 62.3 145.8 63C146.9 64.5 147.6 66.7 150.1 64.8C150.4 64.5 151.1 65 151.2 65.4C151.7 67.9 153.1 67.4 154.8 66.7C155.9 66.2 157.4 65.7 158.2 67.3C159.1 68.9 158.2 70.1 156.8 70.9C153.6 72.7 153.4 75.9 153.3 79C153.3 79.9 154.1 80.8 153 81.5C151.9 82.2 151.2 81.3 150.6 80.6C150.1 80 149.8 79.5 149.4 79.1Z" fill="#10100F"/>
<path d="M242.3 59.4C241.4 60.1 241.9 61.4 241 62C240.5 62.4 239.4 62.7 239.4 62.4C239.2 60.5 236.6 60.2 236.5 59C236.3 56.9 235.2 57.5 234.1 57.3C231.3 56.8 230.8 56 232.7 53.9C233.6 52.8 233 52.5 232.4 51.9C231.7 51.2 231.4 50.5 232.1 49.7C232.8 48.9 233.4 49.6 234.1 49.9C235.4 50.5 236.7 51.8 237.7 49.5C237.8 49.2 238.4 49.3 238.7 49.5C239.9 51 240.7 50.2 241.6 49.1C242.2 48.4 243 47.5 244.1 48.2C245.3 49 245.1 50 244.5 51.1C243 53.5 244 55.7 245 57.8C245.3 58.4 246.2 58.7 245.7 59.6C245.2 60.5 244.4 60.1 243.8 59.9C243.2 59.8 242.8 59.6 242.3 59.4Z" fill="#10100F"/>
<path d="M195.1 7.59996C195.8 8.49996 197.1 7.99997 197.7 8.79997C198.1 9.29997 198.4 10.3 198.1 10.4C196.2 10.7 196 13.3 194.8 13.4C192.7 13.6 193.4 14.8 193.2 15.9C192.8 18.7 192 19.2 189.8 17.4C188.7 16.5 188.4 17.1 187.8 17.7C187.2 18.4 186.4 18.8 185.6 18.1C184.8 17.4 185.4 16.8 185.7 16.1C186.3 14.8 187.5 13.5 185.2 12.5C184.9 12.4 184.9 11.8 185.2 11.5C186.6 10.2 185.8 9.5 184.7 8.7C183.9 8.1 183.1 7.3 183.8 6.2C184.5 5 185.6 5.1 186.7 5.7C189.1 7.1 191.3 6.09999 193.4 4.99999C194 4.69999 194.3 3.8 195.2 4.2C196.1 4.7 195.7 5.39996 195.6 6.09996C195.5 6.79996 195.3 7.19996 195.1 7.59996Z" fill="#10100F"/>
<path d="M288.839 250.848C290.263 249.314 290.701 246.904 292.673 247.671C294.536 248.437 294.426 250.519 293.988 252.491C292.892 256.435 293.878 259.721 296.946 262.789C299.356 265.199 300.89 268.485 303.628 270.677C304.286 271.115 304.834 271.662 305.929 271.553C306.367 266.623 306.915 261.693 307.244 256.763C307.353 255.011 307.901 253.586 308.887 252.162C309.544 251.286 310.421 250.957 311.516 251.067C312.831 251.286 313.05 252.381 312.94 253.367C312.831 255.887 312.502 258.297 312.393 260.707C312.283 262.131 312.064 263.665 314.474 263.665C316.665 263.665 316.884 265.308 316.665 267.171C316.336 270.457 316.117 273.744 315.898 277.031C315.789 278.016 316.227 278.674 317.103 278.893C318.199 279.112 318.418 278.236 318.637 277.359C319.075 275.716 318.856 273.196 321.485 273.525C324.443 273.853 323.676 276.264 323.348 278.236C323.129 279.222 323.457 279.66 324.443 279.879C327.073 280.646 329.702 273.306 332.441 271.443C333.098 271.005 334.193 271.224 334.741 270.786C336.604 269.362 337.918 270.238 338.795 271.772C339.671 273.306 339.671 274.949 338.137 276.264C337.59 276.702 336.494 278.455 336.275 279.988C340.986 280.974 345.587 280.865 351.064 279.55C349.421 276.811 348.216 274.292 346.573 272.101C341.643 265.528 340.438 258.078 340.657 250.081C340.767 243.836 340.547 237.482 340.657 231.238C340.876 224.227 341.753 217.106 344.82 210.533C345.696 208.67 345.368 207.356 343.944 205.384C338.904 198.482 334.303 191.471 332.66 182.597C330.359 170.546 331.674 159.043 334.851 147.431C335.289 145.678 335.508 143.925 335.946 142.063C336.713 138.667 338.576 137.681 341.095 139.872C345.587 143.596 350.845 146.664 354.022 151.922C356.213 155.538 359.938 157.948 363.882 158.934C368.702 160.139 372.975 158.167 376.371 154.661C381.629 149.074 386.45 143.377 388.203 135.49C389.079 131.327 391.599 130.888 394.447 134.175C400.582 141.077 404.854 149.074 406.279 158.276C406.717 161.563 407.703 164.74 408.25 167.917C410.113 178.872 405.621 188.294 401.568 197.934C400.144 201.44 396.638 203.74 394.885 207.027C394.228 208.232 392.585 208.451 391.38 207.684C389.955 206.808 389.846 205.274 390.174 203.74C390.284 203.302 390.722 202.864 391.051 202.535C397.076 196.839 398.939 188.951 402.225 181.72C403.54 178.872 403.649 175.695 403.321 172.518C402.554 165.616 401.239 158.715 399.158 152.141C397.843 148.088 395.433 144.473 392.037 140.858C390.503 147.869 385.683 152.47 381.52 157.4C378.781 160.577 375.166 162.877 371.332 164.192C368.155 165.288 364.43 165.397 361.143 164.083C355.994 162.001 351.612 158.715 348.654 153.894C346.792 150.717 343.944 148.964 340.986 147.321C337.042 155.538 336.384 164.302 336.823 172.847C337.261 180.625 338.466 188.622 343.615 195.195C345.806 198.044 347.011 201.549 349.969 203.959C351.722 205.384 350.407 207.684 350.626 209.656C350.736 210.752 350.298 211.957 352.05 212.176C353.475 212.285 355.118 212.943 354.68 214.476C354.132 216.558 355.447 219.297 353.146 220.83C351.503 221.926 349.75 222.802 347.997 223.679C347.23 224.117 346.354 224.336 346.682 225.432C347.011 226.746 347.887 226.089 348.654 225.979C350.188 225.651 351.393 223.46 353.036 225.103C354.789 226.746 353.803 228.389 352.598 229.923C351.941 230.69 352.489 231.457 352.708 232.224C353.584 234.853 350.626 235.291 349.969 236.825C349.421 238.14 352.708 239.454 351.284 241.317C350.298 242.522 348.764 243.398 347.23 244.494C349.969 244.932 351.503 246.246 350.188 249.095C349.75 250.081 349.75 250.19 350.955 250.519C354.351 251.724 354.57 252.6 352.05 255.12C351.393 255.777 350.517 256.435 349.531 257.202C350.845 258.297 353.365 257.749 353.475 260.05C353.584 262.789 350.845 263.117 349.421 264.103C349.75 266.075 350.845 265.308 351.831 265.418C355.447 265.528 355.666 266.075 353.694 269.471C353.584 269.691 353.475 270.019 353.365 270.677C355.118 271.553 358.185 271.334 357.528 274.839C357.418 275.606 358.185 275.387 358.514 275.278C361.362 275.059 362.567 275.935 361.581 279.002C360.705 281.741 362.786 282.399 364.758 282.946C373.851 285.576 384.697 282.289 390.613 274.62C397.186 266.185 400.034 256.544 398.719 245.808C398.062 240.55 397.405 235.291 396.748 230.033C396.309 225.979 394.666 222.364 393.023 218.749C392.365 217.434 391.708 216.01 391.38 214.586C390.941 213.052 391.818 212.066 393.132 211.409C394.666 210.861 395.762 211.409 396.419 212.833C397.843 216.339 399.705 219.735 400.582 223.46C402.773 233.429 404.745 243.617 404.087 253.915C403.211 266.952 398.062 277.907 386.669 285.028C381.52 288.314 375.494 288.753 369.469 288.533C365.306 288.424 361.253 288.314 357.418 286.123C356.213 285.466 354.461 285.137 353.146 285.356C343.944 286.671 335.618 292.258 327.182 289.191C323.567 287.876 321.376 288.643 319.075 291.93C318.637 292.587 318.308 293.354 317.761 294.011C316.117 295.873 313.926 295.873 312.283 294.121C311.626 293.463 311.735 292.039 310.53 291.93C306.477 291.601 300.78 290.177 296.727 290.944C294.645 291.272 294.426 291.163 292.892 293.244C292.016 294.449 290.373 294.887 288.949 295.107C286.319 295.545 285.443 294.668 285.662 292.039C285.881 290.067 284.566 292.258 283.8 290.067C282.047 293.135 283.361 292.587 281.609 295.545C279.308 299.379 274.926 296.312 271.968 293.025C270.653 291.601 269.887 291.053 268.572 292.696C268.024 293.463 267.257 293.682 266.381 293.792C265.285 293.901 263.971 294.23 263.313 292.806C262.875 291.71 263.423 290.834 264.299 290.286C266.71 288.643 267.367 281.413 267.805 278.674C268.134 276.921 268.353 274.949 270.544 274.401C272.078 274.073 274.488 276.483 275.145 278.893C275.145 279.002 275.145 279.222 275.145 279.441C275.145 280.208 275.035 281.193 276.131 281.413C277.336 281.632 278.432 281.194 278.979 279.879C279.746 277.907 280.732 284.59 281.389 282.508C283.361 276.154 285.114 269.8 287.086 263.556C287.743 261.365 287.415 259.612 286.429 257.53C283.8 251.834 279.418 246.904 278.212 240.659C276.679 232.662 275.145 224.555 275.583 216.229C275.693 213.052 277.446 210.642 279.418 208.341C282.704 204.398 286.1 200.563 291.03 198.701C299.027 195.633 306.586 197.496 313.817 201.44C316.556 202.973 319.075 204.945 321.705 206.698C329.264 211.847 330.797 219.735 330.797 228.061C330.797 233.867 324.772 240.331 318.966 241.864C316.117 242.631 313.379 243.727 310.421 244.055C309.325 244.165 308.011 244.603 307.025 244.384C300.342 242.412 293.988 240.112 289.387 234.196C284.895 228.499 287.086 222.693 291.468 217.763C296.946 211.519 304.176 210.971 311.407 213.929C315.351 215.462 317.87 219.187 318.747 223.241C319.404 226.527 314.912 232.662 311.407 233.648C308.777 234.305 305.82 233.977 303.19 232.881C301.985 232.333 300.89 231.457 301.328 229.814C301.766 228.17 302.862 227.294 304.614 227.513C305.6 227.623 306.586 227.951 307.463 228.17C309.654 228.718 310.749 227.404 311.845 225.76C312.94 224.007 312.393 222.583 311.297 221.159C309.106 218.201 301.876 216.558 299.137 219.078C297.384 220.721 294.317 220.283 293.55 223.35C292.235 228.28 293.331 231.457 297.713 234.305C304.286 238.578 311.078 239.345 318.418 236.168C322.691 234.305 325.648 229.375 325.32 224.665C324.882 218.968 322.362 214.696 317.87 211.299C313.269 207.794 308.558 204.507 302.752 203.302C293.659 201.549 289.606 204.398 283.69 212.285C281.609 215.024 280.951 218.311 281.499 221.707C282.375 227.623 283.252 233.538 284.128 239.454C284.347 243.617 287.634 246.575 288.839 250.848ZM305.053 278.345C299.246 275.606 295.96 271.115 292.345 266.294C290.701 270.457 290.701 274.292 290.154 277.907C289.387 283.275 290.592 284.37 295.85 284.151C296.727 284.151 297.384 283.604 298.151 283.385C300.999 282.837 302.204 280.317 305.053 278.345Z" fill="#10100F"/>
<path d="M411.866 277.797C412.523 276.702 412.961 276.045 413.29 275.278C414.276 272.868 415.591 271.115 418.439 272.868C419.315 273.415 419.973 272.758 420.74 272.539C421.835 272.21 423.04 272.32 423.369 273.306C424.136 276.702 426.108 275.716 428.189 274.949C428.846 274.73 429.723 274.182 430.051 274.401C433.119 276.921 436.405 275.059 439.582 275.059C442.212 275.059 442.869 273.963 443.307 272.32C445.498 265.089 447.47 257.749 449.442 250.409C449.661 249.423 449.88 248.437 450.209 247.561C450.757 245.808 451.962 245.151 453.605 245.48C455.358 245.918 455.248 247.561 454.92 248.766C454.043 252.929 452.948 257.092 451.852 261.255C450.538 266.185 450.428 271.334 449.771 276.264C450.866 277.359 452.181 276.483 453.276 276.921C455.248 277.688 456.453 276.702 457.33 275.059C458.316 273.087 459.63 272.648 461.712 273.525C464.56 274.73 467.189 276.483 470.586 276.154C471.572 276.045 472.229 277.14 472.448 278.126C472.558 279.002 472.119 279.769 471.352 280.208C470.695 280.646 469.819 281.193 469.052 281.084C464.122 280.207 460.397 282.837 456.344 284.918C454.262 286.014 452.51 284.042 450.866 284.48C449.223 284.809 447.799 287.219 446.046 286.452C443.745 285.356 441.007 285.247 439.254 282.946C438.377 281.741 437.72 281.632 436.625 282.946C434.872 285.247 432.023 284.042 429.613 284.59C428.079 284.918 426.327 284.699 425.012 285.904C423.04 287.438 421.616 286.89 419.863 285.356C417.124 282.946 414.824 283.275 412.414 286.123C412.194 286.342 411.975 286.562 411.756 286.781C410.442 288.205 409.784 290.505 407.703 290.944C405.402 291.382 403.649 289.191 401.349 288.862C399.706 288.753 399.815 286.781 400.582 285.685C401.568 284.37 402.444 282.946 401.568 281.632C399.706 278.893 401.02 276.811 402.116 274.401C403.869 270.457 405.402 266.513 408.251 263.117C410.003 261.036 409.565 258.078 410.223 255.558C410.88 252.82 411.318 250.081 411.647 247.232C411.866 245.26 412.523 243.727 414.495 244.055C416.796 244.384 416.357 246.246 416.138 247.999C414.933 256.982 412.852 265.856 411.099 274.73C411.428 275.716 411.099 276.483 411.866 277.797Z" fill="#10100F"/>
<path d="M365.306 193.223C361.143 193.442 356.98 192.456 352.927 191.142C352.379 190.923 351.722 190.484 351.284 190.156C349.969 189.06 349.75 187.636 350.517 186.102C351.503 184.24 353.146 184.021 354.68 184.788C358.843 186.65 362.896 187.855 367.497 186.979C369.141 186.65 369.688 187.965 370.236 189.279C370.784 190.923 370.127 191.909 368.812 192.456C367.826 192.895 366.621 193.004 365.306 193.223Z" fill="#10100F"/>
<path d="M382.287 192.456C381.958 192.456 381.629 192.566 381.301 192.566C378.233 192.895 376.59 191.909 376.48 189.827C376.261 187.746 377.576 186.65 380.862 186.65C384.039 186.65 386.45 185.007 389.079 183.692C390.613 182.816 392.365 181.392 393.68 183.802C394.666 185.555 394.009 187.088 392.146 188.293C389.298 190.156 385.464 191.909 382.287 192.456Z" fill="#10100F"/>
<path d="M370.017 171.861C371.551 172.189 373.413 171.97 373.851 174.161C374.18 175.914 372.756 178.105 371.112 178.105C369.14 178.215 368.154 177.01 367.935 175.147C367.607 173.394 368.374 172.299 370.017 171.861Z" fill="#10100F"/>
</svg>
