<svg width="3240" height="372" viewBox="0 0 3240 372" fill="none" xmlns="http://www.w3.org/2000/svg">
<path d="M0 312C0 312 566 252 1620 252C2674 252 3240 312 3240 312V372H0V312Z" fill="#10100F"/>
<path d="M277.891 121.301C278.191 123.501 280.791 124.001 280.991 126.201C281.091 127.501 280.591 129.601 279.991 129.301C276.491 127.701 273.391 131.901 271.191 130.801C267.491 129.001 267.291 131.601 265.891 133.201C262.291 137.601 260.391 137.501 258.591 132.101C257.691 129.401 256.491 130.101 254.891 130.501C252.991 131.001 251.391 130.801 250.791 128.801C250.191 126.801 251.891 126.401 253.091 125.601C255.391 124.101 258.891 123.101 256.091 119.101C255.691 118.601 256.391 117.601 257.091 117.501C260.891 116.901 260.291 114.801 259.291 112.201C258.691 110.401 257.991 108.201 260.391 107.001C262.891 105.801 264.591 107.101 265.691 109.301C268.191 114.201 272.991 114.901 277.691 115.201C278.991 115.301 280.491 114.101 281.491 115.801C282.491 117.501 281.091 118.501 279.991 119.401C279.391 120.201 278.591 120.801 277.891 121.301Z" fill="#10100F"/>
<path d="M234.391 75.0007C232.991 75.2007 232.691 77.0007 231.291 77.2007C230.491 77.3007 229.091 77.0007 229.191 76.7007C230.091 74.3007 227.291 72.5007 227.991 71.0007C229.091 68.5007 227.391 68.5008 226.191 67.6008C223.191 65.3008 223.191 64.1008 226.691 62.8008C228.491 62.1008 227.991 61.4008 227.591 60.3008C227.191 59.1008 227.291 58.0007 228.591 57.5007C229.891 57.0007 230.191 58.2008 230.791 58.9008C231.891 60.4008 232.591 62.6007 235.091 60.7007C235.391 60.4007 236.091 60.9008 236.191 61.3008C236.691 63.8008 238.091 63.3008 239.791 62.6008C240.891 62.1008 242.391 61.6007 243.191 63.2007C244.091 64.8007 243.191 66.0008 241.791 66.8008C238.591 68.6008 238.391 71.8008 238.291 74.9008C238.291 75.8008 239.091 76.7008 237.991 77.4008C236.891 78.1008 236.191 77.2007 235.591 76.5007C235.091 75.9007 234.791 75.4007 234.391 75.0007Z" fill="#10100F"/>
<path d="M327.291 55.3008C326.391 56.0008 326.891 57.3008 325.991 57.9008C325.491 58.3008 324.391 58.6008 324.391 58.3008C324.191 56.4008 321.591 56.1008 321.491 54.9008C321.291 52.8008 320.191 53.4007 319.091 53.2007C316.291 52.7007 315.791 51.9008 317.691 49.8008C318.591 48.7008 317.991 48.4008 317.391 47.8008C316.691 47.1008 316.391 46.4008 317.091 45.6008C317.791 44.8008 318.391 45.5008 319.091 45.8008C320.391 46.4008 321.691 47.7008 322.691 45.4008C322.791 45.1008 323.391 45.2008 323.691 45.4008C324.891 46.9008 325.691 46.1007 326.591 45.0007C327.191 44.3007 327.991 43.4008 329.091 44.1008C330.291 44.9008 330.091 45.9007 329.491 47.0007C327.991 49.4007 328.991 51.6007 329.991 53.7007C330.291 54.3007 331.191 54.6007 330.691 55.5007C330.191 56.4007 329.391 56.0008 328.791 55.8008C328.191 55.7008 327.791 55.5008 327.291 55.3008Z" fill="#10100F"/>
<path d="M280.091 3.50072C280.791 4.40072 282.091 3.90073 282.691 4.70073C283.091 5.20073 283.391 6.20077 283.091 6.30077C281.191 6.60077 280.991 9.20077 279.791 9.30077C277.691 9.50077 278.391 10.7008 278.191 11.8008C277.791 14.6008 276.991 15.1008 274.791 13.3008C273.691 12.4008 273.391 13.0008 272.791 13.6008C272.191 14.3008 271.391 14.7007 270.591 14.0007C269.791 13.3007 270.391 12.7007 270.691 12.0007C271.291 10.7007 272.491 9.40074 270.191 8.40074C269.891 8.30074 269.891 7.70074 270.191 7.40074C271.591 6.10074 270.791 5.40075 269.691 4.60075C268.891 4.00075 268.091 3.20075 268.791 2.10075C269.491 0.900754 270.591 1.00075 271.691 1.60075C274.091 3.00075 276.291 2.00074 278.391 0.900742C278.991 0.600742 279.291 -0.299246 280.191 0.100754C281.091 0.600754 280.691 1.30072 280.591 2.00072C280.491 2.70072 280.291 3.10072 280.091 3.50072Z" fill="#10100F"/>
<path d="M371.591 250.801C372.891 249.401 373.291 247.201 375.091 247.901C376.791 248.601 376.691 250.501 376.291 252.301C375.291 255.901 376.191 258.901 378.991 261.701C381.191 263.901 382.591 266.901 385.091 268.901C385.691 269.301 386.191 269.801 387.191 269.701C387.591 265.201 388.091 260.701 388.391 256.201C388.491 254.601 388.991 253.301 389.891 252.001C390.491 251.201 391.291 250.901 392.291 251.001C393.491 251.201 393.691 252.201 393.591 253.101C393.491 255.401 393.191 257.601 393.091 259.801C392.991 261.101 392.791 262.501 394.991 262.501C396.991 262.501 397.191 264.001 396.991 265.701C396.691 268.701 396.491 271.701 396.291 274.701C396.191 275.601 396.591 276.201 397.391 276.401C398.391 276.601 398.591 275.801 398.791 275.001C399.191 273.501 398.991 271.201 401.391 271.501C404.091 271.801 403.391 274.001 403.091 275.801C402.891 276.701 403.191 277.101 404.091 277.301C406.491 278.001 408.891 271.301 411.391 269.601C411.991 269.201 412.991 269.401 413.491 269.001C415.191 267.701 416.391 268.501 417.191 269.901C417.991 271.301 417.991 272.801 416.591 274.001C416.091 274.401 415.091 276.001 414.891 277.401C419.191 278.301 423.391 278.201 428.391 277.001C426.891 274.501 425.791 272.201 424.291 270.201C419.791 264.201 418.691 257.401 418.891 250.101C418.991 244.401 418.791 238.601 418.891 232.901C419.091 226.501 419.891 220.001 422.691 214.001C423.491 212.301 423.191 211.101 421.891 209.301C417.291 203.001 413.091 196.601 411.591 188.501C409.491 177.501 410.691 167.001 413.591 156.401C413.991 154.801 414.191 153.201 414.591 151.501C415.291 148.401 416.991 147.501 419.291 149.501C423.391 152.901 428.191 155.701 431.091 160.501C433.091 163.801 436.491 166.001 440.091 166.901C444.491 168.001 448.391 166.201 451.491 163.001C456.291 157.901 460.691 152.701 462.291 145.501C463.091 141.701 465.391 141.301 467.991 144.301C473.591 150.601 477.491 157.901 478.791 166.301C479.191 169.301 480.091 172.201 480.591 175.101C482.291 185.101 478.191 193.701 474.491 202.501C473.191 205.701 469.991 207.801 468.391 210.801C467.791 211.901 466.291 212.101 465.191 211.401C463.891 210.601 463.791 209.201 464.091 207.801C464.191 207.401 464.591 207.001 464.891 206.701C470.391 201.501 472.091 194.301 475.091 187.701C476.291 185.101 476.391 182.201 476.091 179.301C475.391 173.001 474.191 166.701 472.291 160.701C471.091 157.001 468.891 153.701 465.791 150.401C464.391 156.801 459.991 161.001 456.191 165.501C453.691 168.401 450.391 170.501 446.891 171.701C443.991 172.701 440.591 172.801 437.591 171.601C432.891 169.701 428.891 166.701 426.191 162.301C424.491 159.401 421.891 157.801 419.191 156.301C415.591 163.801 414.991 171.801 415.391 179.601C415.791 186.701 416.891 194.001 421.591 200.001C423.591 202.601 424.691 205.801 427.391 208.001C428.991 209.301 427.791 211.401 427.991 213.201C428.091 214.201 427.691 215.301 429.291 215.501C430.591 215.601 432.091 216.201 431.691 217.601C431.191 219.501 432.391 222.001 430.291 223.401C428.791 224.401 427.191 225.201 425.591 226.001C424.891 226.401 424.091 226.601 424.391 227.601C424.691 228.801 425.491 228.201 426.191 228.101C427.591 227.801 428.691 225.801 430.191 227.301C431.791 228.801 430.891 230.301 429.791 231.701C429.191 232.401 429.691 233.101 429.891 233.801C430.691 236.201 427.991 236.601 427.391 238.001C426.891 239.201 429.891 240.401 428.591 242.101C427.691 243.201 426.291 244.001 424.891 245.001C427.391 245.401 428.791 246.601 427.591 249.201C427.191 250.101 427.191 250.201 428.291 250.501C431.391 251.601 431.591 252.401 429.291 254.701C428.691 255.301 427.891 255.901 426.991 256.601C428.191 257.601 430.491 257.101 430.591 259.201C430.691 261.701 428.191 262.001 426.891 262.901C427.191 264.701 428.191 264.001 429.091 264.101C432.391 264.201 432.591 264.701 430.791 267.801C430.691 268.001 430.591 268.301 430.491 268.901C432.091 269.701 434.891 269.501 434.291 272.701C434.191 273.401 434.891 273.201 435.191 273.101C437.791 272.901 438.891 273.701 437.991 276.501C437.191 279.001 439.091 279.601 440.891 280.101C449.191 282.501 459.091 279.501 464.491 272.501C470.491 264.801 473.091 256.001 471.891 246.201C471.291 241.401 470.691 236.601 470.091 231.801C469.691 228.101 468.191 224.801 466.691 221.501C466.091 220.301 465.491 219.001 465.191 217.701C464.791 216.301 465.591 215.401 466.791 214.801C468.191 214.301 469.191 214.801 469.791 216.101C471.091 219.301 472.791 222.401 473.591 225.801C475.591 234.901 477.391 244.201 476.791 253.601C475.991 265.501 471.291 275.501 460.891 282.001C456.191 285.001 450.691 285.401 445.191 285.201C441.391 285.101 437.691 285.001 434.191 283.001C433.091 282.401 431.491 282.101 430.291 282.301C421.891 283.501 414.291 288.601 406.591 285.801C403.291 284.601 401.291 285.301 399.191 288.301C398.791 288.901 398.491 289.601 397.991 290.201C396.491 291.901 394.491 291.901 392.991 290.301C392.391 289.701 392.491 288.401 391.391 288.301C387.691 288.001 382.491 286.701 378.791 287.401C376.891 287.701 376.691 287.601 375.291 289.501C374.491 290.601 372.991 291.001 371.691 291.201C369.291 291.601 368.491 290.801 368.691 288.401C368.891 286.601 367.691 288.601 366.991 286.601C365.391 289.401 366.591 288.901 364.991 291.601C362.891 295.101 358.891 292.301 356.191 289.301C354.991 288.001 354.291 287.501 353.091 289.001C352.591 289.701 351.891 289.901 351.091 290.001C350.091 290.101 348.891 290.401 348.291 289.101C347.891 288.101 348.391 287.301 349.191 286.801C351.391 285.301 351.991 278.701 352.391 276.201C352.691 274.601 352.891 272.801 354.891 272.301C356.291 272.001 358.491 274.201 359.091 276.401C359.091 276.501 359.091 276.701 359.091 276.901C359.091 277.601 358.991 278.501 359.991 278.701C361.091 278.901 362.091 278.501 362.591 277.301C363.291 275.501 364.191 281.601 364.791 279.701C366.591 273.901 368.191 268.101 369.991 262.401C370.591 260.401 370.291 258.801 369.391 256.901C366.991 251.701 362.991 247.201 361.891 241.501C360.491 234.201 359.091 226.801 359.491 219.201C359.591 216.301 361.191 214.101 362.991 212.001C365.991 208.401 369.091 204.901 373.591 203.201C380.891 200.401 387.791 202.101 394.391 205.701C396.891 207.101 399.191 208.901 401.591 210.501C408.491 215.201 409.891 222.401 409.891 230.001C409.891 235.301 404.391 241.201 399.091 242.601C396.491 243.301 393.991 244.301 391.291 244.601C390.291 244.701 389.091 245.101 388.191 244.901C382.091 243.101 376.291 241.001 372.091 235.601C367.991 230.401 369.991 225.101 373.991 220.601C378.991 214.901 385.591 214.401 392.191 217.101C395.791 218.501 398.091 221.901 398.891 225.601C399.491 228.601 395.391 234.201 392.191 235.101C389.791 235.701 387.091 235.401 384.691 234.401C383.591 233.901 382.591 233.101 382.991 231.601C383.391 230.101 384.391 229.301 385.991 229.501C386.891 229.601 387.791 229.901 388.591 230.101C390.591 230.601 391.591 229.401 392.591 227.901C393.591 226.301 393.091 225.001 392.091 223.701C390.091 221.001 383.491 219.501 380.991 221.801C379.391 223.301 376.591 222.901 375.891 225.701C374.691 230.201 375.691 233.101 379.691 235.701C385.691 239.601 391.891 240.301 398.591 237.401C402.491 235.701 405.191 231.201 404.891 226.901C404.491 221.701 402.191 217.801 398.091 214.701C393.891 211.501 389.591 208.501 384.291 207.401C375.991 205.801 372.291 208.401 366.891 215.601C364.991 218.101 364.391 221.101 364.891 224.201C365.691 229.601 366.491 235.001 367.291 240.401C367.491 244.201 370.491 246.901 371.591 250.801ZM386.391 275.901C381.091 273.401 378.091 269.301 374.791 264.901C373.291 268.701 373.291 272.201 372.791 275.501C372.091 280.401 373.191 281.401 377.991 281.201C378.791 281.201 379.391 280.701 380.091 280.501C382.691 280.001 383.791 277.701 386.391 275.901Z" fill="#10100F"/>
<path d="M483.891 275.401C484.491 274.401 484.891 273.801 485.191 273.101C486.091 270.901 487.291 269.301 489.891 270.901C490.691 271.401 491.291 270.801 491.991 270.601C492.991 270.301 494.091 270.401 494.391 271.301C495.091 274.401 496.891 273.501 498.791 272.801C499.391 272.601 500.191 272.101 500.491 272.301C503.291 274.601 506.291 272.901 509.191 272.901C511.591 272.901 512.191 271.901 512.591 270.401C514.591 263.801 516.391 257.101 518.191 250.401C518.391 249.501 518.591 248.601 518.891 247.801C519.391 246.201 520.491 245.601 521.991 245.901C523.591 246.301 523.491 247.801 523.191 248.901C522.391 252.701 521.391 256.501 520.391 260.301C519.191 264.801 519.091 269.501 518.491 274.001C519.491 275.001 520.691 274.201 521.691 274.601C523.491 275.301 524.591 274.401 525.391 272.901C526.291 271.101 527.491 270.701 529.391 271.501C531.991 272.601 534.391 274.201 537.491 273.901C538.391 273.801 538.991 274.801 539.191 275.701C539.291 276.501 538.891 277.201 538.191 277.601C537.591 278.001 536.791 278.501 536.091 278.401C531.591 277.601 528.191 280.001 524.491 281.901C522.591 282.901 520.991 281.101 519.491 281.501C517.991 281.801 516.691 284.001 515.091 283.301C512.991 282.301 510.491 282.201 508.891 280.101C508.091 279.001 507.491 278.901 506.491 280.101C504.891 282.201 502.291 281.101 500.091 281.601C498.691 281.901 497.091 281.701 495.891 282.801C494.091 284.201 492.791 283.701 491.191 282.301C488.691 280.101 486.591 280.401 484.391 283.001C484.191 283.201 483.991 283.401 483.791 283.601C482.591 284.901 481.991 287.001 480.091 287.401C477.991 287.801 476.391 285.801 474.291 285.501C472.791 285.401 472.891 283.601 473.591 282.601C474.491 281.401 475.291 280.101 474.491 278.901C472.791 276.401 473.991 274.501 474.991 272.301C476.591 268.701 477.991 265.101 480.591 262.001C482.191 260.101 481.791 257.401 482.391 255.101C482.991 252.601 483.391 250.101 483.691 247.501C483.891 245.701 484.491 244.301 486.291 244.601C488.391 244.901 487.991 246.601 487.791 248.201C486.691 256.401 484.791 264.501 483.191 272.601C483.491 273.501 483.191 274.201 483.891 275.401Z" fill="#10100F"/>
<path d="M441.391 198.201C437.591 198.401 433.791 197.501 430.091 196.301C429.591 196.101 428.991 195.701 428.591 195.401C427.391 194.401 427.191 193.101 427.891 191.701C428.791 190.001 430.291 189.801 431.691 190.501C435.491 192.201 439.191 193.301 443.391 192.501C444.891 192.201 445.391 193.401 445.891 194.601C446.391 196.101 445.791 197.001 444.591 197.501C443.691 197.901 442.591 198.001 441.391 198.201Z" fill="#10100F"/>
<path d="M456.891 197.501C456.591 197.501 456.291 197.601 455.991 197.601C453.191 197.901 451.691 197.001 451.591 195.101C451.391 193.201 452.591 192.201 455.591 192.201C458.491 192.201 460.691 190.701 463.091 189.501C464.491 188.701 466.091 187.401 467.291 189.601C468.191 191.201 467.591 192.601 465.891 193.701C463.291 195.401 459.791 197.001 456.891 197.501Z" fill="#10100F"/>
<path d="M445.691 178.701C447.091 179.001 448.791 178.801 449.191 180.801C449.491 182.401 448.191 184.401 446.691 184.401C444.891 184.501 443.991 183.401 443.791 181.701C443.491 180.101 444.191 179.101 445.691 178.701Z" fill="#10100F"/>
</svg>
