<svg width="777" height="316" viewBox="0 0 777 316" fill="none" xmlns="http://www.w3.org/2000/svg">
<path d="M117.2 253.7C117.2 253.7 117.2 253.6 117.2 253.7C117.2 253.6 117.2 253.6 117.2 253.7C117.1 253.6 117.1 253.6 117.1 253.6C117.2 253.6 117.2 253.7 117.2 253.7Z" fill="#10100F"/>
<path d="M470.5 170.9C469.4 156.2 463.2 144.1 451.8 134.7C449.5 132.8 447.1 130.9 444.2 130C436.7 127.5 428.9 126.3 421 126.6C416.2 126.8 411.5 128.2 408.3 131.9C402.7 138.3 397.4 144.9 396.9 154C396.4 164.3 398.2 170.3 410.1 173.4C417.7 175.4 425.4 174.3 432.3 169.9C433.6 169.1 434.8 168 436 167C436.9 166.2 437.4 165.2 436.6 164.1C435.8 163 434.7 163 433.6 163.4C432.5 163.9 431.5 164.7 430.4 165.4C421.7 170.6 413 171.6 405.6 166.2C403.7 164.8 402.6 163.2 402.1 160.9C399.9 151.1 404.2 143.6 410.2 136.5C414.5 131.5 420 130 426.3 130.5C430.4 130.9 434.4 131.6 438.4 132.4C445.3 133.8 450.9 137.8 455.2 143.1C460.4 149.4 464.3 156.6 465.4 165C466.6 173.8 467.4 182.5 464.8 191.1C464.2 192.9 455.9 201.2 454.5 202.5C447.1 209.6 438.9 215.7 430.2 221C425.6 223.2 410.1 232.6 409.4 233C402.9 236.4 395.8 237.9 388.8 239.7C371.6 244.1 354.7 249.3 337 251.6C325 253.1 313.2 255.4 301 255.6C292.2 255.7 283.4 256.3 274.6 256.2C273.5 256.2 272.4 256.5 271.5 255.5C272.1 252.7 272.1 252.7 271.2 248.8C270.7 246.7 271.2 245.6 273.6 245.5C275 245.4 276.3 244.8 277.7 244.4C281.2 243.3 284.1 239.8 284.4 236.3C284.6 232.9 282.3 229.4 278.8 227.8C277.2 227.1 275.6 226.5 273.9 226C272.4 225.6 271.8 224.8 271.9 223.3C271.9 220.5 271.7 217.6 272 214.8C273.2 201.5 274.4 188.3 275.9 175.1C276.8 166.9 278.3 158.7 282.2 151.2C282.8 149.9 283.1 148.7 281.7 147.9C280.4 147.1 279.3 148 278.6 149.1C278.2 149.8 277.9 150.5 277.6 151.2C273.8 160.3 271.9 169.8 271.4 179.5C270.6 193.8 267.5 207.8 267.4 222.1C267.4 224.2 266.5 224.9 264.6 224.8C260 224.6 255.5 225.5 251.3 227.3C250.9 227.5 250.4 227.6 249.9 227.7C249.1 227.9 248.2 227.9 247.8 227.1C247.4 226.2 247.7 225.3 248.7 224.7C249.8 224.1 250.8 223.4 251.9 222.8C253.1 222.1 254.4 221.4 255.6 220.7C257.2 219.7 256.2 215.9 254.8 215.5C252.5 214.7 247.4 219 246.2 220.7C245 218.8 244.8 219.3 245.7 217.4C246.8 215.1 251.3 212.8 251.2 212.3C250.6 209.1 249.8 208.8 246.8 210.1C245.6 210.6 244.6 212 242.6 211.1C244.9 209.4 246.9 207.8 249.1 206.4C250.6 205.4 250.4 204.3 249.1 203.4C247.1 201.9 245 200.4 241.9 202.3C243.9 197.8 243.8 197.6 241.8 196.1C240.3 195 237.7 196.1 237.5 195.4C237.1 193.7 236.8 192.2 235.6 191C235 190.4 234.6 189.9 233.8 189.6C232 189 229 188.5 228.8 187.5C228.4 185.8 229.8 183.7 230.6 181.8C231.2 180.4 232.1 179 232.8 177.6C235.4 172.7 237.9 167.9 240.5 163C241.1 161.9 241 160.7 239.9 160.1C238.5 159.2 237.9 160.5 237.4 161.4C236 163.8 234.7 166.4 233.3 168.8C231.6 171.8 229.8 174.7 228.1 177.6C227.6 171.6 229.2 166.2 230 160.6C230.9 154.1 233 147.8 234.8 141.5C235.9 137.7 236.8 133.9 238.2 130.3C238.8 128.7 239 127.4 237.4 126.8C235.8 126.2 235.2 127.7 235 129C234.1 133.3 232.8 137.5 231.6 141.7C229.7 148.6 227.8 155.6 226.1 162.6C224.5 169.2 223.1 175.8 222 182.4C221.2 187.3 221.3 187.3 216.3 188.4C212.7 189.2 212.7 189.2 211.2 185.8C206.8 176.2 202.3 166.5 197.8 156.9C195 150.8 192.1 144.7 189.2 138.7C186.9 133.9 183.2 124.2 179.3 126.3C177.1 127.9 196.9 164.8 206.4 184.8C203.1 183.3 201.4 181.4 199.5 179.9C197.6 178.3 195.3 177.6 193.6 175.5C191.1 172.6 187.7 170.4 184.6 168C183.2 167 181.5 166.7 180.6 168.6C179.7 170.4 181.1 171 182.5 171.7C185.8 173.3 188.8 175.1 191.4 177.7C194.3 180.6 197.4 183.2 200.4 186C201.3 186.8 202.4 187.4 202.5 188.8C197.1 188.7 195.8 189.2 195.5 191.3C195.1 194.3 197.8 194.2 200 195.1C197.7 195.8 196.3 197.3 194.6 198.3C192.1 199.7 193.3 202.3 192.2 204C190.7 206.3 191.9 207.4 194.3 208.3C193.1 208.9 192.4 209.1 191.7 209.5C190.3 210.4 188.2 211.2 189.1 213.3C190 215.3 191.5 213.4 192.8 213.4C193 213.4 193.1 213.4 193.3 213.4C193.6 213.5 194 213.6 194.1 213.8C194.2 214.2 194.2 214.8 194 215.1C193.3 216 192.1 216.2 191.1 216.6C190.3 217 189 217.5 189.4 218.5C190.3 221 190.8 221.2 189.5 222.9C188.6 224.1 188.5 225.6 190.7 226C191.1 226.1 191.5 224.5 194.5 224.5C193.5 226.3 188.6 230.6 189.8 232.6C190.8 234.1 187.8 235.3 188.6 237.2C189.4 239.1 188.5 240.8 188.2 242.7C187.6 245.9 186.2 249 186.3 252.4C186.4 254.6 185.2 255.4 183.1 255.4C179 255.3 174.9 255.1 170.8 255.4C162.5 256 154.2 255.1 145.9 254.7C145 254.7 143.8 254.8 143.7 253.5C143.6 252.4 143.8 251.4 145.4 251.3C147.4 251.2 147.9 250.5 146.4 248.7C145.2 247.4 147.2 247.6 147.6 247C148.1 246.3 149.8 245.7 148.7 245C146.7 243.6 147.4 242.9 148.8 241.8C149.6 241.2 149.9 239.8 149 239.4C147.4 238.6 147.9 237.8 148.5 236.9C149.3 235.6 149.4 234.6 147.8 233.9C147.2 233.6 146.9 233.1 147.3 232.4C148.4 230.2 148.6 228.4 145.1 228.6C144.6 228.6 144.6 227.6 144.5 227C144.4 225.6 145.4 224.7 146.1 223.7C147.8 221.4 149.4 219.1 151 216.7C151.6 215.8 152 214.5 150.8 213.8C149.9 213.2 149.1 214.1 148.4 214.8C146.6 216.7 145.5 219.2 142.5 220.9C145.2 213 147.7 205.7 150.2 198.4C149.8 198.2 149.5 198.1 149.1 197.9C147.8 202 144.7 205 143.3 209.1C141.5 214.3 139.3 219.3 137.3 224.4C136.9 225.3 136.6 226.2 135.4 225.8C134.5 225.5 134.4 224.6 134.5 223.9C134.6 222.5 135.2 221.2 135 219.7C133.8 212.1 132.7 204.6 131.6 197C131.5 196 131.4 194.9 130.2 195C129.2 195.1 128.6 196 128.6 197C128.7 199.2 129 201.4 129.2 203.5C129.6 207.8 130 212 130.5 216.7C128.3 215.9 128 214.4 127 213.4C126.4 212.8 125.7 212.4 124.9 212.9C124.2 213.4 124.1 214.1 124.5 215C125.4 217.4 126.3 219.9 127.2 222.4C126 223.1 124.4 222.8 123.9 224.3C123.4 225.7 124.9 226.2 125.6 227.4C123.3 227.6 121.5 224.5 119.7 226.8C118.4 228.5 118 230.5 120.1 231.9C119.8 233.9 113.2 232.5 117.9 236.7C118 236.8 117.8 237.6 117.5 237.9C115.6 240 116.1 241.5 118.9 242.3C117.9 243.5 117.2 244.3 116.6 245.1C116.2 245.6 116.1 246.7 116.6 246.8C120.4 247.6 117.6 249.7 117.5 251.3C117.4 252 117.1 252.8 117.6 253.5C119.8 255.3 122.1 256.9 120.3 260.4C119.8 261.3 119.9 262.6 120 263.6C120 264.6 119.7 266.1 121.2 266.2C122.7 266.3 123.5 265.3 123.7 263.9C124 262.5 124.3 261.2 125.3 260C127.5 257.2 130.4 257.3 132.1 260.4C132.9 261.8 132.6 263.1 131.9 264.5C131.3 265.7 130.9 267.2 132.3 267.8C133.7 268.4 135 267.1 135.6 265.9C136.1 265 136.1 263.8 136.5 262.7C137 261.3 136 259.9 136.9 258.5C137.3 258.5 137.8 258.4 138.2 258.4C149.2 259.2 160.1 260 171.2 259.8C175 259.8 178.8 259.9 182.5 259.8C184.5 259.7 185.4 260.6 185.3 262.6C185.2 264.3 185.1 266.1 185.2 267.8C185.4 270.6 185.2 273.5 186.1 276.2C186.4 277.2 187 277.9 188.1 277.7C189.2 277.5 189.8 276.7 189.8 275.7C189.8 274.9 189.4 274.2 189.3 273.4C188.7 269 188.7 264.7 189.1 260.1C192.3 260.4 195.2 260.5 197.9 261C200.5 261.5 203.1 261.8 205.6 263.1C208.7 264.7 213.1 261 212.7 257.4C212.6 256.7 212.4 256 211.8 255.8C209.2 255.4 209.4 252.5 207.7 251.2C206.8 250.5 207.1 249.9 207.8 249.4C208.9 248.6 209.9 247.7 208.8 246.3C207.7 244.8 206.6 246.2 205.4 246.5C204.9 246.6 204.5 246.7 204.2 246.3C204.3 244.3 208.1 243.8 206.3 241.3C205.2 239.7 204.5 237.5 201.8 237.6C202.8 235.7 205.7 235.7 204.8 233.4C203.8 231 201.7 233.9 200.3 232.9C200.4 232.6 200.3 232.2 200.5 232C201.3 230.6 204.1 230.4 203.5 228.3C202.6 225.6 200.2 228.7 198.6 227.6C199.3 225.8 201 225.6 202.2 224.7C202.8 224.2 203.3 223.5 203.1 222.7C202.8 221.8 202.1 221.6 201.2 221.7C200.3 221.8 199.4 222.5 198.4 221.1C201.8 220.4 202.5 217.8 203 215C203.3 213.6 202.9 212.9 201.6 212.6C200.8 212.4 199.6 213 199.4 211.2C200.8 209.7 201.8 209.1 203.6 208.5C206.5 207.5 204.9 205.6 206.5 204C207.8 202.7 204.6 202.3 203.9 201.5C207 198.1 209 199.7 209.9 199C211 198.2 210.5 197 210.2 196C210.2 195.8 210.5 195.4 210.7 195.3C213.9 193.6 217.2 191.6 220.9 192.8C228 195.1 233.2 199.8 236.4 206.4C239.3 212.3 241.7 218.5 243.2 225C245.7 235.7 246.3 246 238.5 255.4C236.4 258 234.8 259 231.7 258.8C227.7 258.5 224.2 259.1 221.6 260.2C225.2 260.4 228.3 260.3 231.4 260.7C234.4 261.1 237.4 261.6 240.3 260.8C243.2 260 246 260.4 248.8 260.1C250.9 259.8 252.8 261.1 254.8 260.8C259.7 260 264.5 259.7 269.3 261.4C269.9 261.6 270.5 261.8 271.1 261.3C274.7 258.5 279.1 259.9 282.9 259.7C289.7 259.5 296.6 260 303.4 259.8C308.2 259.6 322.3 258.2 323.6 258C329.3 257.1 335 256.1 340.8 255.2C348.6 254.1 356.4 253 363.9 250.7C372.9 247.9 382.1 246.1 391.2 243.9C397 242.5 402.8 241.1 408.2 238.4C409.6 237.7 418.6 233.4 420.9 231.2C423.6 229.7 425.7 228.5 427.4 227.5C438.8 222.1 449.4 214.1 459 205.6C458.1 209 457.1 212.1 455.8 215.1C452.1 224.3 445.6 231.6 439.3 239.1C432.1 247.6 422.3 252.9 413.5 259.5C408.3 263.3 403 266.9 398 271C389.7 277.8 380.4 283.1 370.3 286.7C358 291.1 345.7 294.3 333.1 297.6C324.2 299.9 315.5 303 306.3 304.2C301.4 304.8 297 307 292.1 307.5C281.3 308.8 268.4 310.4 257.5 310.8C244.2 309.4 204.5 305.6 196 305.2C189.7 304.9 184.6 303.1 178.5 301.6C172.4 300.2 170.3 301.3 163.2 299.9C158.9 298.6 153.1 298.6 152.3 298.6C148 298.7 147.4 296.7 143.3 295.7C141.3 295.2 139.3 294.9 137.3 294.7C131.2 294.2 126 293.6 120.4 290.9C115.6 288.5 110.7 286.3 105.9 284.2C101.2 282.1 96.5999 279.6 91.4999 278.5C89.9999 278.2 88.9999 277.3 88.3999 275.9C87.8999 274.8 87.0999 273.9 85.8999 274.7C83.9999 275.9 83.0999 274.8 81.8999 273.6C80.5999 272.1 79.3999 270.2 76.8999 270.8C76.5999 270.9 75.8999 270.5 75.7999 270.1C74.2999 266.8 71.0999 266.3 68.0999 265.5C68.8999 264.1 70.5999 265.6 71.3999 264.3C70.7999 263.7 70.0999 263 69.3999 263.3C66.7999 264.7 65.2999 263.1 63.2999 261.8C61.7999 260.8 61.0999 257.5 58.0999 259.2C57.9999 259.3 57.0999 258.7 57.0999 258.5C57.0999 254.3 53.7999 253.8 50.8999 253C49.3999 252.6 48.6999 252.1 49.4999 250.5C49.8999 249.7 49.0999 249.3 48.2999 248.8C46.7999 247.9 44.9999 248.3 43.3999 247.6C43.8999 246.7 45.4999 247.1 45.3999 245.7C45.2999 244.2 44.3999 244 43.1999 243.9C42.9999 243.9 41.5999 244.3 42.4999 243.2C44.4999 240.6 42.4999 239.8 40.6999 239.5C38.2999 239.2 37.7999 237.7 37.6999 235.8C38.9999 235.4 39.7999 236.3 40.6999 236.9C45.4999 239.9 50.2999 242.9 55.5999 245C62.3999 247.7 68.9999 251 76.4999 252C84.8999 253 93.2999 254.5 101.8 255.3C107.1 255.8 112.7 257.7 117.6 253.9C115 252.4 112.1 251.9 109.1 251.7C98.8999 251.2 88.7999 249.8 78.6999 248.2C72.3999 247.2 66.7999 244.6 60.8999 242.4C52.1999 239.3 44.8999 233.8 36.6999 229.8C32.5999 227.8 29.1999 224.5 25.0999 222.6C22.8999 221.6 21.5999 220.3 20.5999 218.3C16.1999 208.9 11.7999 199.5 8.79994 189.6C6.59994 182.4 5.49994 175 4.89994 167.4C4.39994 161.3 6.09994 155.6 7.29994 149.8C8.09994 146.1 8.09994 142.2 10.4999 138.7C15.2999 131.5 21.1999 125.7 28.9999 121.8C34.9999 118.8 40.4999 117.9 46.9999 120.4C59.7999 125.4 64.7999 139.4 58.8999 149.1C55.1999 155.3 50.3999 160.2 42.7999 161C37.5999 161.5 32.4999 160.2 27.6999 158.1C24.7999 156.8 23.5999 154.2 23.6999 151.2C23.7999 148.2 24.8999 145.6 28.1999 144.8C29.2999 144.5 30.2999 144.3 31.3999 144C32.3999 143.8 33.1999 143.3 33.1999 142.2C33.1999 141.1 32.1999 140.5 31.2999 140.4C27.7999 139.9 24.3999 140.8 22.2999 143.3C17.2999 149.3 18.3999 158.4 25.3999 161.8C29.3999 163.8 33.6999 164.4 37.9999 165.1C50.0999 167.2 61.6999 157.2 64.4999 144.7C65.6999 139.4 63.7999 134.7 62.0999 129.7C59.3999 121.7 46.0999 114.1 37.2999 114.7C36.1999 114.8 35.0999 114.8 34.0999 115.3C30.2999 117.1 26.1999 118.5 22.5999 120.7C17.3999 123.9 12.4999 127.7 9.29994 133.2C4.69994 141.1 2.19994 149.7 1.29994 158.6C-0.100061 171.8 2.09993 184.6 6.69993 197C9.29993 203.7 12.0999 210.4 15.1999 216.9C19.1999 225.4 21.7999 234.6 28.0999 242C28.3999 242.4 28.8999 242.9 28.6999 243.2C27.3999 246.9 30.6999 248 32.4999 249.8C33.5999 250.9 34.6999 251.9 35.6999 253.2C37.9999 256.2 40.8999 258.5 44.0999 260.6C50.9999 265.2 59.4999 266.9 65.3999 273.1C65.4999 273.2 77.8999 280.7 83.8999 282.9C94.2999 286.7 104.8 290.6 114.7 295.9C117.9 297.6 121.2 299.2 124.7 299.8C132.7 301.2 140.8 302.2 148.5 304.6C149.4 304.9 150.4 304.8 151.3 304.8C160.8 304.7 170.1 306.2 179.3 308.4C185.3 309.8 191.1 311.6 197.3 311.8C203.7 312 209.6 312.2 215.9 313C235 315.3 246.1 315.8 252.7 315.6C254.6 315.9 256.5 315.8 258.5 315.8C264 315.8 277.5 315.8 288.7 314.1C294.5 312.9 300.7 312.6 306 310.3C309.9 308.6 313.9 308.8 317.8 307.6C329.4 306.2 361.1 295 364.1 294.2C365.9 293.7 371.3 291.9 373 291C376.9 288.8 377.8 288.6 382 287C393.4 283.5 397.6 278 400.5 276C407.3 271.3 414 265.5 420.5 260.5C423.9 257.9 427 255.9 430.4 253.3C438.3 247.2 444.8 239.7 450.8 231.9C452.4 229.8 454 227.7 455.4 225.4C458.5 220.1 460.9 214.5 463.3 208.9C466.1 202.2 468.9 195.6 470.4 188.5C471.3 182.4 471 176.6 470.5 170.9ZM133.9 251.4C131.3 254.1 129 253.6 127.2 250.2C125.6 247.2 125.4 243.9 125.2 240.6C125.1 239.2 126.2 238.9 127.2 238.4C128 238 129.1 237.7 128.9 236.5C128.7 235.3 127.6 235.3 126.7 235.2C126.2 235.2 125.8 234.9 125.7 234.2C127.4 230.3 131 230.4 134.4 230.5C137.4 230.6 139.5 233 139.8 236C140.4 242.3 137.8 247.2 133.9 251.4ZM192.9 248.8C193 250.7 198.7 249.5 200.1 249.7C200.5 251.7 195 254.2 195.7 256C189.3 256.3 189.3 256.3 190.5 250.5C190.8 249.3 191.2 248.1 191.4 246.9C191.7 245 193.4 242 194.8 241.2C195.4 240.8 195.9 240.8 196.4 241.5C197.3 242.7 196.6 243.5 195.8 244.3C195.5 244.4 192.8 247.3 192.9 248.8ZM266.5 234C266.2 240.3 265.6 246.5 266.3 252.8C266.7 255.9 266.4 256 263.4 256.1C260.4 256.1 257.4 256.2 254.5 256.8C250.8 257.6 248.2 254.9 244.9 254.3C246.8 252.5 249.4 254.7 250.4 253.7C252 252 254.2 252.5 256.1 251.2C254.7 247.7 250.8 248.4 248.1 246.1C250.8 245.2 253.1 246 255.5 245.6C255.6 243 253.8 242.5 252 242.2C249.3 241.8 248.1 240.4 248.7 237.7C248.8 236.9 248.8 236.1 248.6 235.4C248.2 232.9 248.8 231.7 251.7 231.8C253.2 231.9 254.7 230.9 256.1 230.4C258.2 229.6 260.3 229.3 262.6 229.4C266.9 229.5 266.7 229.5 266.5 234ZM270.9 230.1C273.8 230.1 275.5 230.9 277.2 231.6C279.2 232.4 280 234.1 280.2 236C280.4 237.9 279.1 239.1 277.5 240C276.2 240.7 274.9 240.9 273.4 241C271.7 241.2 270.8 240.7 270.9 238.7C271 235.9 270.9 233.1 270.9 230.1Z" fill="#10100F"/>
<path d="M274 124.2C273.1 118 275.4 114.5 284.5 114.8C288.5 114.9 292.4 116.4 296.1 118.2C301.2 120.7 302.6 125.5 302.7 130.3C302.9 136.7 293.8 143 287.5 141.7C278.4 139.7 273.1 133.1 274 124.2ZM283.1 119.7C280.8 119.6 279 119.9 278.7 122.1C277.7 129.2 279.3 134.9 287.8 137.1C291.4 138 294.1 136.5 296.4 133.7C298.7 130.9 298.5 128.4 296.9 125.5C296 123.8 294.7 122.6 292.9 121.7C289.7 119.9 286 120.9 283.1 119.7Z" fill="#10100F"/>
<path d="M221.4 226.2C221.1 227.5 220.6 228.6 219.1 228.7C217.7 228.8 216.6 228.4 216.4 226.8C216.2 225.4 216.6 224.3 218.2 224.1C219.9 223.8 220.9 224.6 221.4 226.2Z" fill="#10100F"/>
<path d="M230.4 225C231.6 225.1 232.8 225.9 232.7 227.5C232.6 228.9 231.6 229.7 230.2 229.6C228.6 229.5 227.5 228.7 227.6 227C227.6 225.7 228.5 225 230.4 225Z" fill="#10100F"/>
<path d="M256.2 238.2C253.7 239.9 250.9 239.4 248.2 238.4C247.3 238.1 246.7 237.2 246.7 236.2C246.7 235.7 247.3 235.1 247.8 234.9C249.9 233.9 251.6 235.8 253.7 235.8C255.3 235.7 256 236.6 256.2 238.2Z" fill="#10100F"/>
<path d="M135.9 239C135.8 240.6 134.5 240.6 133.2 240.7C132.2 240.7 131.9 240 132 239.2C132.1 238 132.9 237.2 134.1 237.2C135.2 237.1 135.8 237.7 135.9 239Z" fill="#10100F"/>
<path d="M322.927 229.753C322.569 234.949 322.312 240.047 324.556 245.072C321.061 244.633 317.664 244.295 314.364 244.258C312.767 244.04 311.676 243.228 310.889 242.019C309.317 239.501 308.347 236.79 307.178 234.077C306.789 233.073 306.7 232.072 307.71 231.183C310.033 229.109 309.933 229.108 308.764 226.394C307.693 223.782 304.004 222.741 301.785 224.416C300.952 224.93 299.429 226.716 300 229.753C299.983 231.253 301.092 232.709 302.896 232.429C303.998 232.242 304.395 232.546 304.683 233.549C306.022 239.065 307.461 244.481 312.825 247.741C310.715 248.618 308.905 249.497 306.998 250.176C306.093 250.566 305.093 250.555 304.403 249.647C303.812 248.841 303.12 248.133 303.835 246.841C305.06 244.554 304.377 244.01 303.5 242C303.209 241.197 301.517 239.514 300.714 239.705C299.311 239.99 297.718 240.658 297.5 242.256C297.18 244.053 296.612 246.62 298.5 247.741C301.671 248.103 300.817 249.487 302 251C303.676 253.119 304.658 253.75 307.368 252.881C310.277 252.013 312.992 250.743 316.192 250.779C318.991 250.81 321.798 250.242 324.601 249.973C325.102 249.878 325.905 249.587 326.393 250.693C321.566 251.542 321.964 252.302 319.641 252.709C317.318 253.117 315.238 252.96 313.033 253.335C311.631 253.52 310.914 255.012 311.5 256.318C312.084 257.725 312.697 256.791 313.5 256.5C314.002 256.306 314.802 256.155 315.403 256.062C319.812 255.311 324.216 254.96 328.626 254.11C332.834 253.357 337.282 251.715 341.673 252.564C342.072 252.668 342.573 252.574 343.073 252.579C343.873 252.588 344.576 252.296 344.685 251.497C344.795 250.512 344.019 250.393 343.327 250.286L343.299 250.282C340.505 249.751 337.81 249.22 335.008 249.389C334.621 248.285 335.326 247.793 335.933 247.199C337.651 245.618 339.66 244.741 341.769 243.964C343.476 243.383 344.985 242.6 346.397 241.516C349.827 238.854 350.87 234.965 351.714 231.075C352.133 229.379 351.993 228.687 354 228.109C355.404 227.725 355.981 225.122 354.792 224.109C354.199 223.502 352.694 222.508 352 222C349.816 220.576 348.118 221.734 346.792 224.019C345.671 225.907 345.412 227.377 347.5 228.5C350 228.5 349.319 230.648 349.211 231.347C348.468 235.139 347.128 238.724 343.211 240.28C340.5 241.25 337.886 242.421 334.767 244.086C335.698 241.396 334.922 239.188 334.847 236.987C334.764 235.486 335.177 234.29 336.784 233.708C337.487 233.416 338.487 233.427 338.5 232.227C338.518 230.627 338.335 229.125 336.946 228.109C335.359 226.992 334.803 226.72 333 227C331.643 227.211 330.916 227.808 330.5 228.5C329.351 230.408 327 234.077 331.5 234.077C331.898 234.282 331.957 236.054 331.95 236.654C332.03 238.455 332.209 240.357 332.088 242.256C331.96 244.755 330.753 245.341 328.67 243.818C326.289 242.091 325.618 239.484 325.55 236.683C325.578 234.183 325.604 231.783 325.832 229.285C326.064 226.488 325.896 223.586 323.116 221.755C321.925 220.941 319.97 220.5 321.485 219C323 217.5 321.685 215.638 319.588 215.315C317.591 214.992 315.884 215.673 314.665 217.36C312.938 219.741 313.097 223.464 314.5 224.5C315.903 225.536 316.677 225.386 317.589 224.193C318.5 223 320.199 223.322 321.485 224.536C323.163 226.051 323.049 227.844 322.928 229.736L322.927 229.753Z" fill="#10100F"/>
<path d="M103.735 221.552C105.169 221.437 106.201 221.38 107.234 221.208C108.955 220.864 109.872 221.839 110.675 223.101C111.536 224.42 110.905 225.51 110.044 226.6C109.585 227.231 108.668 227.576 108.668 228.551C108.61 233.083 104.882 234.345 101.728 235.894C99.4333 237.041 99.0318 237.443 100.236 239.68C100.867 240.828 101.613 241.86 101.728 243.18C102.129 247.195 100.925 249.777 96.2214 251.211C92.2064 252.473 87.9046 252.244 83.8323 250.752C80.3336 249.49 79.4159 247.999 79.9321 244.327C80.3909 241.114 81.2513 238.131 84.6927 236.64C84.2912 234.747 82.8573 234.345 81.366 234.001C78.3834 233.312 75.4009 232.853 72.9346 230.788C71.7874 229.87 70.4682 230.501 69.2064 230.444C67.8872 230.444 66.1665 230.903 65.4209 229.584C64.5031 227.977 65.2488 226.084 66.1091 224.593C67.0842 222.871 70.9844 222.011 73.5081 222.871C75.6877 223.617 76.6627 224.994 76.548 227.576C76.4907 228.666 76.9495 229.125 77.6952 229.411C78.6702 229.756 79.7026 230.042 80.7351 230.329C83.3735 230.96 85.8398 231.878 87.6752 234.173C89.1665 229.756 88.4209 227.576 84.8647 225.338C82.6852 223.961 80.3909 222.757 79.4159 220.175C79.1864 219.544 78.7849 218.684 77.982 218.856C76.4333 219.143 75.8598 218.167 75.4009 217.02C74.77 215.528 73.967 213.979 74.3685 212.316C74.6553 210.939 75.8024 210.136 77.179 210.021C78.8997 209.792 80.6204 209.447 82.0543 211.054C83.0867 212.258 83.3735 213.807 84.2338 215.012C84.8074 215.873 84.0044 216.274 83.4882 216.676C82.2837 217.651 82.6278 218.684 83.3735 219.716C84.6927 221.495 86.7575 222.126 88.5929 223.101C89.0518 223.33 89.4533 223.101 89.7974 222.757C92.3785 220.233 92.8373 216.561 90.9445 213.463C90.3136 212.488 89.6253 211.742 88.4209 212.029C86.356 212.488 85.6104 211.226 85.1515 209.677C84.6927 208.013 84.2912 206.292 85.8398 204.801C87.2164 203.424 88.8223 203.022 90.6004 203.137C92.6652 203.309 95.0742 206.464 93.9844 208.128C92.8373 209.792 93.6403 210.824 94.1565 211.914C96.0493 215.643 95.7625 219.2 93.2388 222.413C91.6328 224.535 91.4034 226.772 91.5181 229.182C92.5505 229.756 92.952 228.952 93.3535 228.494C96.7949 224.879 100.81 221.724 102.645 216.79C103.104 215.586 103.506 214.381 103.563 213.062C103.62 211.627 103.391 210.48 101.498 210.652C100.122 210.767 99.7775 209.792 99.548 208.644C98.9745 205.604 100.122 203.424 102.645 201.817C104.309 200.728 106.259 200.728 107.521 201.817C108.725 202.793 109.758 205.891 108.782 207.325C106.488 211.054 106.316 215.528 104.595 219.372C104.309 219.888 104.137 220.462 103.735 221.552ZM93.0667 235.148C96.2787 234.402 99.4333 233.714 102.531 232.911C103.792 232.567 104.825 231.763 105.398 230.501C105.8 229.641 105.8 228.608 104.825 228.494C102.359 228.207 102.359 225.969 101.498 224.478C96.967 227.576 93.8124 231.591 93.0667 235.148ZM83.3161 244.786C82.7425 246.622 83.947 247.253 85.0368 247.826C88.6503 249.777 92.4358 249.318 96.2214 248.4C97.6553 248.056 98.2862 247.023 98.4583 245.589C98.573 244.499 98.4583 243.639 97.0243 244.155C92.5505 245.819 87.962 245.761 83.3161 244.786ZM93.2962 242.204C95.2463 242.319 96.7376 242.147 96.8523 240.082C96.9096 238.992 95.6478 237.787 94.6727 237.902C93.0667 238.074 92.8373 238.705 93.2962 242.204ZM88.1914 242.09C87.1017 238.992 87.1017 238.992 84.5206 240.828C85.6677 241.631 86.6428 242.606 88.1914 242.09Z" fill="#10100F"/>
<path d="M562.9 126.1C565.5 126.5 567.4 127.6 569.2 128.6C571.8 130.1 574.6 130.7 577.5 131C577.9 131 578.2 131 578.6 130.8C579.4 130.5 580.2 130.1 580.1 129.1C580 128.2 579 128.2 578.3 128.2C578.1 128.2 577.9 128.3 577.7 128.3C576.7 128.5 576.2 127.9 576 127C575.8 126.2 576.2 125.5 576.9 125.2C577.8 124.8 578.7 124.5 579.7 124.9C580.7 125.3 581.6 125.6 582.5 126.2C583.6 126.9 584 127.9 583.6 129.2C583.1 130.9 582.1 132.3 580.6 133.4C580.1 133.7 579.6 133.9 579 134C575 134.4 571.4 133.4 567.9 131.5C566.4 130.7 564.9 130 563.3 129.4C561.1 128.6 559.2 129.6 557.3 130.5C557 130.6 556.9 130.9 556.6 131.1C555.9 131.7 555.1 132 554.3 131.2C553.6 130.6 553.6 129.3 554.4 128.6C555.2 127.8 556.1 127.1 557.3 126.8C559.1 126.6 561.1 125.7 562.9 126.1Z" fill="#10100F"/>
<path d="M768.1 41C766.7 41 765.3 40.5 764.2 39.4C763.1 38.4 761.8 37.9 760.4 37.4C759.1 36.9 757.8 36.9 756.7 37.8C756.3 38.1 755.7 38.4 755.2 38.6C754.6 38.9 754 39 753.5 38.5C753 38 753.1 37 753.7 36.4C755.4 34.5 759.5 33.7 761.9 34.8C763.4 35.5 764.9 36.4 766.3 37.4C768.1 38.6 770.1 38.6 772.1 38C772.5 37.9 773.1 37.8 773 37.2C772.9 36.6 772.6 36.1 772 36C771.9 36 771.8 36 771.6 36C770.8 36 770.2 35.7 770.2 34.9C770.2 34.1 770.8 33.5 771.6 33.3C773 32.9 774.3 33.5 775 34.8C775.1 35.1 775.3 35.4 775.5 35.6C777 37.6 775.5 39.7 773.5 40.4C770.7 41.3 770.7 41.3 768.1 41Z" fill="#10100F"/>
<path d="M607.6 7.30005C607.9 5.50005 607.5 4.20005 607.4 2.70005C607.2 1.10005 607.4 0.90005 608.9 0.50005C609.3 0.40005 609.8 0.300049 610.2 0.300049C615.1 0.400049 619.9 0.40005 624.8 1.10005C625.3 1.20005 625.8 1.30005 626.3 1.50005C630.1 3.10005 633.9 4.60005 637.4 6.70005C638.4 7.30005 639.3 8.10005 640.2 8.90005C641.2 9.80005 642.4 10.4 643.6 11C645 11.6 645.2 12.1 644.6 13.4C643.7 15.3 642.8 17.2001 641.7 19C639.8 22.1 638.9 25.6001 637.5 28.9001C637.4 29.2001 637.3 29.6 637.2 30C634.1 36.4001 633.7 43.3 632.9 50.1C632.5 53.8 632.5 57.4 632.9 61.1C633.1 63.1 633.9 65 635.2 66.5C635.9 67.3 636.1 68.4 636.6 69.3C638 71.8 640 73.9001 641.5 76.4001C642.3 76.1001 643.1 75.5 643.8 75.2C647.2 73.8 650.9 73.4001 654.2 75.1001C656.8 76.4001 658.3 78.8 658.4 81.8C658.5 84.8 657.6 87.5 655.6 89.8C654.4 91.1001 653.3 92.3001 651.9 93.4001C648.7 95.9001 645 96.6001 641.1 95.9001C638.1 95.3001 637.1 92.7 636.2 90.2C635.7 88.7 635.7 87.1 636.2 85.5C636.5 84.6 636.6 83.7001 636.9 82.9001C637.6 80.8001 636.9 79.3 635.3 78C634.5 77.3 634.1 76.5 633.9 75.5C633.5 73.8 632.8 72.4 631.5 71.3C630.6 70.6001 630.1 69.6 629.8 68.5C629.5 67.3 628.9 66.3 627.9 65.5C626.6 64.4 625.8 62.8001 624.7 61.4001C622.4 58.5 619.5 57.0001 615.8 56.8001C609.6 56.4001 603.5 56.4001 597.3 56.8001C595.2 56.9001 593.2 57.6 591.2 58.1C589 58.7 586.7 59.1001 584.5 59.9001C581.3 61.1001 578.6 62.7 577.1 66C576.9 66.4 576.7 66.8 576.4 67.2C575.6 68.1 574.7 68.1 574.3 67C573 63.5 571 60.3 570.5 56.5C570.3 54.8 570.8 53.2 570.5 51.6C570.4 51 571 50.5 571.5 50.2C572.2 49.7 572.9 49.3001 573.6 48.8001C574.8 47.9001 574.8 47.9001 573.8 46.5C573.1 45.4001 572.8 44.1001 572.9 42.7001C573.1 39.1001 574.4 35.8 575.6 32.5C576.8 29.1 578 25.7001 579.6 22.5C581 19.6 583.1 17.3 585 14.8C587.1 12.1 589.6 9.90005 592.3 7.90005C594.5 6.30005 596.6 4.70005 599 3.50005C599.7 3.20005 600.4 2.90005 601.1 2.70005C602.7 2.30005 604 2.70005 605 4.10005C605.8 5.20005 606.2 6.50005 607.6 7.30005ZM636.2 18.4001C636.1 17.7001 636.5 17.2 637.2 17.3C637.7 17.3 637.7 18.0001 637.7 18.4001C637.9 19.7001 637.6 21.1001 637.6 22.9001C639.2 19.8001 640.5 17.2001 641.9 14.6C642.2 14 642.4 13.4 641.7 13C638.9 11.1 636.5 8.70005 633.4 7.30005C631.2 6.30005 628.9 5.60005 626.7 4.60005C625.2 3.90005 623.6 3.50005 621.9 3.40005C618.5 3.20005 615 3.10005 611.6 2.90005C611 2.90005 610.6 3.10005 610.1 3.20005C609.5 3.30005 609.3 3.70005 609.5 4.20005C610.2 5.90005 609.4 7.60005 609.7 9.30005C609.8 10 609.8 10.7001 609.1 11.1C608.4 11.5 607.8 11 607.3 10.5C605.9 9.30005 604.8 7.90005 603.8 6.40005C602.9 5.00005 602.5 5.00005 601 5.50005C600.5 5.70005 600 5.90005 599.6 6.20005C592.9 9.70005 587.6 14.7001 583.4 20.9001C582.8 21.8001 582.2 22.8 581.7 23.8C579.4 28.1 578.2 32.7001 576.5 37.2001C575.7 39.3 575.3 41.4 575.2 43.6C575.2 45.1 575.1 46.6 577 47.2C577.7 47.4 577.7 48.1 577.1 48.6C575.8 49.6 575 51.1 573.3 51.7C572.9 51.8 572.6 52.3001 572.6 52.8001C572.8 55.6001 572.5 58.6 573.8 61.2C574.4 62.5 574.4 64.1001 575.9 65.1001C576.3 64.5001 576.7 64.1 577 63.5C578.2 61.4001 579.9 60 582.2 59.2C588.7 56.9 595.4 55.4 602.4 55.1C604.7 55 607 55 609.2 54.9001C606.6 53.4001 603.7 52.6001 600.9 52.8001C597.1 53.0001 593.3 52.5 589.5 53C589.4 53 589.2 53.1 589.1 53C588.2 52.8 588.1 52.1001 588.2 51.4001C588.3 50.7001 588.5 50.2001 589.4 50.5C591.2 51.1 593 50.7 594.8 50.7C598 50.8 601.2 50.8001 604.3 50.8001C604.4 50.5001 604.3 50.4001 604.2 50.3001C600.1 48.9001 595.9 47.7 591.5 47.7C590.6 47.7 590 47.7 590 46.6C590 45.6 590.7 45.5 591.6 45.6C593.4 45.8 595.1 46 596.9 46.4001C600.9 47.3001 604.9 48.4 608.7 50.1C609.7 50.6 610.8 51.1 612 51C612 50.2001 611.4 50.1001 611 49.8001C608.4 48.3001 605.8 46.9001 603.1 45.5C601 44.4001 599 43.3 596.6 43C595.8 42.9001 595.5 42.2001 595.7 41.5C595.9 40.8 596.5 40.7001 597.1 40.8C597.4 40.8 597.7 41 597.9 41.1C600.9 41.9 603.6 43.4 606.3 44.8C606.9 45.1 607.5 45.7 608.4 45.6C608.3 45.3 608.3 45 608.1 44.9001C607.7 44.5 607.3 44.2001 607 43.8C603.6 40.7001 599.9 38.1 595.8 36C594.9 35.6 595 35 595.3 34.4001C595.6 33.7001 596.3 34.1001 596.7 34.4001C598.6 35.9001 601 36.6 602.9 38.1C604.5 39.4 606 40.7001 607.6 42C608.7 42.8 609.7 43.7001 610.4 44.9001C610.9 45.6001 611.4 46.3 612.7 46.5C610.7 43.7001 609.1 41 607 38.5C604.9 36 602.3 33.9001 599.7 31.9001C598.9 31.3001 598 30.7001 597.2 30C596.9 29.7001 596.5 29.4001 596.8 28.9001C597.1 28.4001 597.6 28.5 598 28.7001C598.8 29.1 599.5 29.6 600.3 30.2001C604.5 33.3 608.4 36.8 611.3 41.3C613.2 44.2001 615.6 46.7 617.3 49.7C617.9 50.7 618.6 51.7001 619.6 52.5C619.4 50.7001 619.4 50.7001 618.8 50C618.3 49.5 618 48.9001 617.8 48.3001C617.2 46.6001 616.2 45.2001 614.9 44C612.9 42.1 611.4 39.7001 609.8 37.5C608 35 606.3 32.4001 603.9 30.2001C603 29.4001 602.4 28.4 601.2 28C600.5 27.8 599.7 27.3001 599.5 26.4001C599.4 26.0001 599.3 25.5 599.7 25.2001C600.1 25 600.4 25.2001 600.7 25.4001C601.3 25.8001 601.8 26.4001 602.4 26.9001C605.8 29.5001 608.6 32.8001 610.9 36.4001C612.2 38.4001 613.7 40.1 614.9 42.1C615.5 43 616.5 43.7001 617.3 44.5C617.2 43.8 617 43.3 616.6 42.8C614.8 40.4 612.9 38.1 611.3 35.5C609.3 32.3 607 29.4001 604.3 26.7001C603.8 26.2001 603.6 25.6 603.2 25C602.9 24.7001 603.1 24.3 603.3 24C603.7 23.5 604.1 23.7001 604.5 24C604.8 24.1 605 24.3 605.2 24.6C607.6 27.8 610.4 30.8 612.5 34.3C614 36.8 615.8 39.2001 617.9 41.4001C617.4 39.7001 616.4 38.4001 615.4 37C612.9 33.4001 611.5 29.2001 608.5 26C608.1 25.6 608.1 25.1 608.2 24.5C608.3 23.8 608.7 23.6 609.3 24C610.1 24.6 610.7 25.4001 611.2 26.2001C613.8 30.7001 616.5 35.1 619.1 39.5C619.6 40.3 620 41.1 621 41.8C621 40.4 620.5 39.4001 620.1 38.4001C617.5 33.2001 615.1 28.0001 611.5 23.4001C611.2 23.0001 611 22.7001 611.1 22.2001C611.2 21.8001 611.2 21.2 611.8 21.1C612.2 21 612.5 21.3001 612.7 21.7001C613.4 22.8001 614.2 23.9 614.9 25.1C616.2 27.3 617.4 29.4 618.6 31.6C618.4 28.2 617.4 25.1 615.7 22.3C615.5 22 615.2 21.7001 615.1 21.4001C614.8 20.8001 615.1 20.3 615.5 20C616 19.6 616.4 20.0001 616.8 20.4001C617.1 20.9001 617.6 21.3 617.8 21.8C618.8 24.7 620.1 27.5 620.7 30.5C621.2 33.1 621.6 35.6 622.6 38.1C623.9 41.3 625.3 44.6 626.1 48C626.2 48.5 626.3 49.2 626.9 49.6C627.3 49.1 627.1 48.6 626.9 48.1C625.6 44.6 625.5 40.7001 623.4 37.4001C623.1 37 623.1 36.4001 623 35.9001C621.4 31.0001 621.1 25.7001 618.3 21.2001C617.8 20.5 618.3 19.8 618.8 19.5C619.5 19.1 620 19.7 620.1 20.3C621.2 23.7 622.9 26.9 623.2 30.5C623.3 32 624 33.5 624.5 35.2001C625 34.6001 625 34.1001 624.9 33.7001C624.3 30.9001 624.3 27.9 622.7 25.3C622.3 24.6 622.1 23.9001 622.1 23.2001C622.1 22.5 622 21.7 622.9 21.6C623.8 21.4 623.9 22.3001 624 22.9001C624.2 24.8001 625.3 26.5 625.9 28.3C626 26.9 626.1 25.5 625.5 24.1C625.1 23.3 625.7 22.5 626.4 22.3C627.4 22.1 627.3 23 627.4 23.7001C627.5 24.8001 627.5 25.9001 627.9 26.9001C628.4 25.0001 628.8 23.1 629.1 21.3C629.2 20.6 629.3 19.8 629.7 19.1C629.9 18.8 630.2 18.5 630.6 18.6C631 18.7 631.2 19.0001 631.3 19.4001C631.3 20.0001 631.3 20.6 631.2 21.2001C630.9 22.6 630.6 24.0001 630.2 25.4001C629.6 27.6001 630.1 29.6 630.6 31.7001C631 31.6 631.1 31.4001 631.1 31.2001C632.2 27.6 632.8 23.9001 634.2 20.4001C634.2 18.2001 634.1 18.1001 636.2 18.4001C635.5 19.1001 635.2 20.1 634.9 21C633.9 24.1 633.1 27.1 632.4 30.3C631.7 33.4 631.2 36.4 631.2 39.6C631.2 40.4 631.2 41.2001 631.7 42.2001C631.9 41.5 632 41 632.1 40.5C633.3 36.1 633.3 31.5 634.8 27.1C635.7 24.2 635.8 21.2001 636.2 18.4001ZM650.8 77.1001C649.5 76.5001 648.2 77.4001 646.9 77.9001C645.3 78.5001 643.6 79.2 642.4 80.7C640.6 83 639.7 85.6 639.3 88.5C639.2 89.2 639.3 90 639.5 90.7C639.8 91.8 640.4 92.5 641.6 92.8C642.8 93.1001 644 93.1 645.1 93.5C646.7 94 648.2 93.6 649.4 92.7C652.8 90.1 655.4 86.9 655.6 82.3C655.7 78.9 654.3 77.4001 650.8 77.1001ZM628.5 48.2C629.1 44.4 628.3 32.3001 627.2 29.9001C627.9 36.3001 626.7 42.2 628.5 48.2ZM624.2 56.4001C622.4 52.5 620.6 48.6 617.8 45.3C619.8 49.1 621.3 53.2001 624.2 56.4001ZM618.4 42.2001C619 43.7001 619.8 45.1 621.1 46.1C620.5 44.5 619.7 43.2001 618.4 42.2001Z" fill="#10100F"/>
<path d="M627 83.6C625.7 83.6 624.6 83.2 623.5 82.8L623.1 82.7C621.5 82.1 619.9 81.4 618.3 80.7C617.8 80.5 617.2 80.2 616.7 80C616 79.7 615.5 79.2 615.4 78.5L615.3 78L615.6 77.6C616 77.1 616.5 76.9 617 76.9C617.3 76.9 617.6 77 617.8 77H617.9C620.1 77.4 622.1 78.2 624.1 79C625.4 79.5 626.8 80 628.1 80.5C629 80.8 629.5 81.5 629.3 82.3C629.1 83 628.6 83.4 627.8 83.5C627.5 83.5 627.3 83.6 627 83.6Z" fill="#10100F"/>
<path d="M668.2 74.8C667.4 74.8 666.7 74.3 666.4 73.5C666.1 72.5 666.5 71.6 667.5 71.2C669.8 70.2 672.2 69.3 674.6 68.4C674.8 68.3 675 68.3 675.2 68.3C675.3 68.3 675.4 68.3 675.4 68.3H675.6H675.8C676.4 68.5 676.8 68.8 677 69.2C677.1 69.5 677.2 70 676.9 70.6C676.8 70.7 676.7 71 676.5 71.1C673.7 73 671.3 74.2 668.8 74.8C668.6 74.8 668.4 74.8 668.2 74.8Z" fill="#10100F"/>
<path d="M645.2 61.9C644.8 61.9 644.5 61.8 644.2 61.5C643.6 61 643.2 60.3 643.1 59.4C642.9 57.1 642.3 54.9 641.6 52.9C641.4 52.3 641.4 51.7 641.4 51.2C641.4 50 642.2 49.5 643 49.5C643.9 49.5 644.5 50.1 644.7 50.9C644.8 51.9 645.2 52.9 645.6 54C646.2 55.7 646.8 57.4 646.5 59.3C646.5 59.4 646.5 59.5 646.5 59.7C646.5 60 646.6 60.3 646.5 60.6C646.4 61.5 645.8 61.9 645.2 61.9Z" fill="#10100F"/>
<path d="M659.2 59.5C659 59.5 658.8 59.5 658.6 59.4C657.8 59.1 657.1 58.2 657.7 56.8C658.5 54.6 659 52.7 659.2 51C659.3 50 660 49.3 660.9 49.3C661 49.3 661 49.3 661.1 49.3C661.8 49.4 662.5 49.9 662.5 51.2C662.5 51.7 662.5 52.1 662.4 52.7V53.6L662.3 54.4C662.1 55.2 662 56.1 661.8 57.1C661.7 57.7 661.4 58.3 660.9 58.8C660.5 59 660 59.5 659.2 59.5Z" fill="#10100F"/>
<path d="M613.7 98.7001C612.7 98.7001 611.9 98.1001 611.8 97.1001C611.7 96.2001 612.2 95.3001 613.1 95.1001C613.6 95.0001 614.1 94.8001 614.7 94.7001C615.8 94.4001 616.9 94.1001 618.1 94.1001C618.8 94.1001 619.5 94.2001 620.2 94.5001L620.4 94.6001L620.6 94.8001C621.1 95.3001 621 95.8001 621 96.0001C620.9 96.7001 620.3 96.9001 620.1 97.0001C618.4 98.0001 616.3 98.6001 613.7 98.8001C613.9 98.7001 613.8 98.7001 613.7 98.7001Z" fill="#10100F"/>
<path d="M629.6 109.1C629.3 109.1 629 109 628.8 108.9C628 108.5 627.7 107.5 628.1 106.6C628.8 105.1 629.6 103.6 630.3 102.3C630.5 101.8 631.1 101.5 631.6 101.5H631.8L632 101.6C632.7 101.8 633.2 102.2 633.5 102.7C633.7 103.2 633.7 103.7 633.5 104.2C632.8 105.7 631.9 107.2 631.2 108.3C630.8 108.8 630.2 109.1 629.6 109.1Z" fill="#10100F"/>
<path d="M651.6 106.2C652.8 108.5 652.2 111 651.7 112.6L651.6 113.1C651.4 113.9 650.6 114.4 649.7 114.2C649.1 114.1 648.5 113.7 648.3 113.2C648.1 112.8 648.1 112.3 648.2 111.9C648.4 111.3 648.5 110.7 648.7 110C648.9 109 649.9 104.9 650.4 104.9C651.1 105 651.6 106.2 651.6 106.2Z" fill="#10100F"/>
<path d="M667.6 95.5C665.7 95.5 663 92.5 663.3 91.8C663.6 91.1 665.5 91.6 666 91.6C668.2 91.6 670.3 92.2 670.8 93.4C671.3 94.5 670.4 95 670.4 95C669.5 95.3 668.5 95.5 667.6 95.5Z" fill="#10100F"/>
<path d="M651.2 84.8001C651.9 82.3001 650.8 81.3001 648.7 81.4001C647.8 81.5001 646.9 81.4001 646 81.7001C645.5 81.9001 645 81.5001 644.9 80.9001C644.8 80.4001 644.9 80.0001 645.4 79.8001C647.1 78.7001 651.9 77.8001 653.5 79.7001C654.8 81.2001 653.9 85.3001 653.3 86.5001C653.1 86.9001 652.8 87.4001 652.3 87.2001C651.8 87.0001 651 86.8001 651 85.9001C651.1 85.5001 651.2 85.1001 651.2 84.8001Z" fill="#10100F"/>
</svg>
