<svg width="567" height="199" viewBox="0 0 567 199" fill="none" xmlns="http://www.w3.org/2000/svg">
<path d="M192.7 120.9C197.5 118.6 201.5 119.7 205.4 121.8C208.1 123.3 211.2 124.4 213.7 126.1C218.6 129.5 221.9 133.8 221.3 140.5C221 143.7 222.2 147 222.1 150.4C221.3 166.4 215 179.8 202.9 190.4C200.7 192.4 198.1 193.7 195.3 194.7C187.5 197.5 179.7 199.1 171.3 197.4C167.5 196.6 163.5 197.1 159.6 196.6C140.9 194 125.3 176.1 123 158.6C121.8 149.9 122.3 141.1 121.2 132.3C120.9 130.2 121.6 128 122 125.9C122.4 123.9 123.8 122.3 125.9 121.9C134.3 120.4 142.7 117.8 152 119.2C152.2 117.2 152.4 115.4 152.5 113.5C152.7 108.4 153.4 103.7 156.2 99C158.1 95.8 158.1 91.1 157.8 87.2C157.4 80.2 155.3 73.4 154.8 66.4C154.7 64.9 153.9 63.3 153 62.1C151.7 60.3 152.4 58.7 152.9 57.1C153.3 55.7 154.5 54.8 156 54.8C157.6 54.8 158.4 55.9 158.6 57.4C158.9 59.5 159.2 61.7 159.6 63.8C160.7 68.8 164.6 71.8 169.7 71.4C170.5 71.3 171.6 71.4 172 71C176.1 66.4 181.5 62.5 183 56.1C183.6 53.4 185.1 52.4 187.3 52.2C189.3 52 190.8 54.2 190.4 56.8C189.2 63.5 192.6 68.4 196.5 73.2C200.3 77.9 205.1 81.7 209.6 85.8C212.7 88.5 215.8 91.2 218.9 93.9C221.1 95.9 223.3 97.4 226.7 97C229.6 96.6 231.3 98.9 231.8 102.2C232.2 105 230.8 106.5 228.3 107.5C223.8 109.3 221.3 109 218.6 105.1C217.4 103.3 216.1 103 214.3 102.7C208.2 101.8 202.2 103.5 196.2 103.9C193.4 104.1 191.2 107.4 191.8 110.5C192.3 113.8 192.3 116.9 192.7 120.9ZM141.7 176.2C142.4 177.1 142 178 141.8 179C141.6 179.7 141.3 181 142.2 180.8C145.6 180.2 145.9 182.2 146.3 184.8C146.5 186.1 148.1 186.7 149.6 186.7C150.6 186.7 152 186.6 152.3 187.5C153.5 190.9 156.6 190.6 159.1 191.1C167.8 192.8 176.6 192.8 185.4 192.4C189.1 192.3 192.7 191.2 195.9 189C207.5 181 213.8 170 215.5 155.9C216.1 150.5 216 145.3 215.1 139.7C210.1 142.6 205.2 145.4 199.3 145.4C188.1 145.5 176.9 145.7 165.9 143.5C158.9 142.1 151.6 141.8 144.9 138.6C140.4 136.4 135.1 136.1 130 136C128.9 136 127.6 135.6 127.1 137.5C128.2 138.7 129.8 138.4 131.2 138.3C134.1 138.2 135.1 139.5 134.7 142.3C134.6 143.1 134.1 144 134.4 144.5C136.6 148.7 133.8 149.1 130.8 149.3C130.3 149.3 129.8 149.8 129.3 150C129.8 151.4 131.3 150.8 132 151.9C133.6 154.4 130.6 155.4 130.6 156.7C130.6 158.1 134.3 158.8 132.3 161.6C131.6 162.6 129.8 162.5 129.9 164.2C131 164.7 131.6 164.2 132.3 163.9C133.5 163.4 134.8 161.9 135.9 163.2C137.2 164.6 136.1 166.1 134.9 167.3C134.6 167.6 133.9 167.9 134.4 168.7C135.4 169.4 137 168.7 138 170.1C139.7 172.5 135.9 173.7 136.6 175.7C138.3 177.2 140.1 175 141.7 176.2ZM212.9 96.8C213.1 96.4 213.4 96 213.6 95.7C203.6 86.1 192 78 185.5 65.4C184.7 65.8 184.5 65.9 184.4 66C183.8 66.5 183.2 67.1 182.7 67.6C178 73 173.4 78.3 164.9 75.6C162.7 74.9 161.6 76.5 162.3 78.7C163.5 82.2 163.3 85.8 162.8 89.2C162.3 93 162.3 96.5 164 100C165.4 103 163.3 105.7 163.1 108.5C162.9 110.9 159.7 109.7 158.3 111C158.1 111.2 158 111.6 157.9 111.9C162 113.5 162 113.5 159.5 117.1C159.3 117.4 159 117.5 158.7 117.7C162.5 118.6 159.7 122.3 161.3 124C163 125.8 162.2 128 162.8 129.9C163.6 132.6 159.7 131.8 159 133.4C160.5 135.1 162.7 134.1 163.6 135.2C167.1 139.8 172.5 138.3 177 139.5C179.9 140.2 181.4 138.7 182.6 136.5C183.2 135.5 183.7 134.4 184.2 133.4C187.9 125.8 187.1 117.7 186.8 109.8C186.5 102.3 189.7 98.5 197.1 97.9C202.4 97.6 207.7 97.2 212.9 96.8Z" fill="#10100F"/>
<path d="M84.5 148.3C84.3 149.3 84.6 150.9 83 150.8C81.5 150.7 79.8 150.2 79.7 148.2C79.7 146.7 80.8 145.8 82.3 145.6C84.3 145.5 84.5 146.8 84.5 148.3Z" fill="#10100F"/>
<path d="M45.3 139.5C45.3 141.4 44.8999 142.8 43.1999 142.7C41.8999 142.6 41.2999 141.3 41.3999 140.1C41.4999 138.7 42.6001 137.5 44.1001 137.6C45.2001 137.7 45.2 138.9 45.3 139.5Z" fill="#10100F"/>
<path d="M63.3998 141.2C61.8998 140.9 61.3998 139.6 61.3998 138.3C61.2998 136.7 62.7 136.2 64.1 136.2C65.9 136.1 65.8 137.1 65.6 138.4C65.5 139.7 65.2998 141 63.3998 141.2Z" fill="#10100F"/>
<path d="M107.5 160.5C107.1 162 106.4 163.5 104.5 163.3C103.3 163.2 103.1 162.2 103.1 161.2C103.1 159.7 103.6 158.5 105.3 158.4C106.7 158.2 107.2 159.2 107.5 160.5Z" fill="#10100F"/>
<path d="M103.1 134.7C103.1 136.3 102.2 137.2 100.7 137.4C99.4 137.6 98.4 137 98.4 135.6C98.3 134.1 99.1 133 100.7 132.8C102.1 132.6 102.7 133.5 103.1 134.7Z" fill="#10100F"/>
<path d="M101.5 151.6C100.2 151.3 99.5 150.5 99.6 149.2C99.7 147.6 100.5 146.7 102.2 146.9C103.4 147 104.5 147.6 104.1 149.1C103.7 150.3 103.2 151.7 101.5 151.6Z" fill="#10100F"/>
<path d="M83.6001 137.1C81.9001 136.8 81.1001 136 81.1001 134.7C81.1001 133.1 82.1 132.3 83.7 132.2C85.3 132.1 85.6001 133.1 85.6001 134.4C85.6001 136 84.8001 136.8 83.6001 137.1Z" fill="#10100F"/>
<path d="M23 146.9C24.7 147.3 24.5001 148.6 24.6001 149.7C24.7001 150.7 24.3001 151.7 23.1001 151.8C21.8001 151.9 20.9001 151.2 20.8001 149.8C20.6001 148 21.9 147.5 23 146.9Z" fill="#10100F"/>
<path d="M2.6001 136.3C3.7001 136.3 4.20005 137.1 4.30005 138.1C4.40005 139.3 4.2999 140.6 2.8999 140.9C1.4999 141.2 0.799951 140.2 0.699951 138.9C0.699951 137.6 1.3001 136.7 2.6001 136.3Z" fill="#10100F"/>
<path d="M206.2 160.3C204.8 159.9 202.6 160.4 202.4 158C202.3 156.3 205.3 154.3 207.6 154.3C209.5 154.4 210.3 155.3 210.2 157.2C210.1 159.8 208.6 160.5 206.2 160.3Z" fill="#10100F"/>
<path d="M189.5 85.9001C187.9 85.5001 186.9 84.7001 187.2 83.3001C187.7 81.1001 189.2 80.0001 191.5 80.3001C192.6 80.4001 193.2 81.5001 193.1 82.4001C193 84.7001 191.4 85.7001 189.5 85.9001Z" fill="#10100F"/>
<path d="M176.2 84.4C176.5 82.4 177.7 81.1 180.1 81.4C181.1 81.5 182.1 82.1 181.9 83.2C181.6 85.2 180.6 87 178.3 87.1C176.9 87.2 176.3 86 176.2 84.4Z" fill="#10100F"/>
<path d="M543.8 170.7C545 170.8 546.9 170.8 548.8 171C553.3 171.5 559.9 167.9 561.7 163.9C562.3 162.7 562.2 161.7 561.2 160.7C557.6 156.9 553.2 154.6 548.1 153.7C547.4 153.6 546.6 153.6 545.9 153.5C545 153.3 544.2 152.9 544.1 151.8C544 150.4 545 150.1 546.1 149.9C548.2 149.4 550.3 149.8 552.3 150.4C556.7 151.9 560.7 154.1 564.2 157.3C567.2 160.1 567.1 164.2 564.1 167.7C559.3 173.1 553.7 176.6 546.1 175C543.6 174.5 541.1 175 538.6 175.1C536 175.2 534.4 173.9 533.3 171.7C532.3 169.7 532.9 168.1 534.3 166.4C538.5 161.2 542.3 160.1 549.1 162.2C549.7 162.4 550.2 162.5 550.6 161.9C551.2 161 550.6 160.4 550 160.1C545.9 158.5 541.7 158.7 537.9 160.7C534.1 162.6 531.1 165.4 529.5 169.6C528.1 173.2 529.4 175.9 533.2 176.6C535.8 177.1 538.4 178 541.1 178C541.8 178 542.7 178.1 542.9 179C543.2 180 542.5 180.8 541.8 181.2C540.4 181.9 539 182 537.5 181.5C535.3 180.9 533.2 180.5 531 179.9C526.6 178.8 524 174.5 524.9 170.1C525.5 167.3 527.6 165.1 527.7 162.2C527.7 161.8 528.4 161.2 528.9 160.9C534.6 157.2 540.6 154.4 547.7 155.3C549.3 155.5 550.9 155.9 552.3 156.8C554.2 157.9 555.6 159.4 555.2 161.8C554.7 164.6 552.9 167 550.3 166.9C547.1 166.8 543.9 168.5 540.7 167.4C539.8 167.1 538.9 167.4 538.2 168C537.4 168.5 536.8 169.2 537.2 170.2C537.5 171.1 538.3 171.1 539 171.1C540.3 171 541.7 170.9 543.8 170.7Z" fill="#10100F"/>
<path d="M537.2 148.6C538.4 148.8 539.5 149.2 539.7 150.6C539.9 152.1 539 152.8 537.7 152.9C536.3 153 535.5 152.2 535.4 150.8C535.3 149.6 536 148.9 537.2 148.6Z" fill="#10100F"/>
<path d="M554.2 182.1C554.2 183.3 553.7 184.1 552.5 184.3C551.3 184.5 550.4 184 550.4 182.7C550.3 181.6 550.8 180.7 552.1 180.5C553.2 180.3 554 180.9 554.2 182.1Z" fill="#10100F"/>
<path d="M27.3817 1.92571C31.1995 2.48031 33.9894 4.00546 36.6326 5.39196C40.4504 7.47171 44.5619 8.3036 48.8202 8.71955C49.4076 8.71955 49.8481 8.71956 50.4354 8.44226C51.6101 8.02631 52.7848 7.47171 52.638 6.08521C52.4912 4.83736 51.0228 4.83735 49.9949 4.83735C49.7012 4.83735 49.4076 4.97601 49.1139 4.97601C47.6455 5.25331 46.9113 4.4214 46.6176 3.17355C46.3239 2.06435 46.9113 1.0938 47.9392 0.677848C49.2608 0.123248 50.5823 -0.292707 52.0507 0.261893C53.5191 0.816494 54.8406 1.23245 56.1622 2.06435C57.7774 3.0349 58.3647 4.4214 57.7774 6.22385C57.0432 8.5809 55.5748 10.522 53.3722 12.0471C52.638 12.4631 51.9038 12.7404 51.0228 12.8791C45.1492 13.4337 39.863 12.0472 34.7237 9.4128C32.5211 8.3036 30.3184 7.33304 27.969 6.50114C24.7385 5.39194 21.9486 6.77845 19.1586 8.0263C18.7181 8.16495 18.5713 8.58091 18.1307 8.85821C17.1029 9.69011 15.9282 10.106 14.7534 8.99685C13.7256 8.16495 13.7256 6.36251 14.9003 5.39196C16.0751 4.28276 17.3966 3.31221 19.1586 2.89626C21.8017 2.61896 24.7386 1.37111 27.3817 1.92571Z" fill="#10100F"/>
</svg>
